<svg xmlns="http://www.w3.org/2000/svg" width="16" height="16" fill="none" data-fui-icon="true" viewBox="0 0 16 16"><g clip-path="url(#a)"><path fill="currentColor" d="M5.6.85A3.95 3.95 0 0 1 9.55 4.8c0 1.048-.41 2-1.077 2.708 1.315.65 2.143 1.658 2.652 2.607.953 1.778.18 3.985-1.831 4.585-.879.262-2.022.45-3.493.45-1.648 0-2.885-.236-3.798-.548C.228 13.999-.518 12.078.16 10.41c.418-1.025 1.19-2.17 2.578-2.889A3.95 3.95 0 0 1 5.6.85m1.328 7.67a3.94 3.94 0 0 1-2.65.002c-1.562.436-2.331 1.482-2.727 2.455-.382.937.047 1.903.935 2.206.74.251 1.81.466 3.315.466 1.342 0 2.34-.17 3.064-.386 1.024-.306 1.48-1.424.937-2.439-.498-.93-1.357-1.892-2.874-2.303M10.8 1.65a3.15 3.15 0 0 1 3.15 3.15c0 .722-.246 1.384-.654 1.915a4.83 4.83 0 0 1 1.838 1.652c.944 1.433.477 3.404-1.132 4.152q-.258.12-.557.224a.75.75 0 0 1-.491-1.417q.227-.08.416-.168c.725-.337.984-1.248.512-1.966-.368-.558-.974-1.138-2.008-1.43a3.1 3.1 0 0 1-1.074.188.75.75 0 0 1 0-1.5 1.65 1.65 0 1 0-.276-3.277.75.75 0 0 1-.248-1.479 3 3 0 0 1 .524-.044m-5.2.7a2.45 2.45 0 1 0 .001 4.9 2.45 2.45 0 0 0 0-4.9"/></g><defs><clipPath id="a"><path fill="currentColor" d="M0 0h16v16H0z"/></clipPath></defs></svg>