<svg xmlns="http://www.w3.org/2000/svg" width="12" height="12" fill="none" data-fui-icon="true" viewBox="0 0 12 12"><path fill="currentColor" d="M6 .25c2.356 0 4.277 1.897 4.277 4.25 0 1.225-.523 2.33-1.355 3.104-.134.125-.172.24-.172.306V9a2.75 2.75 0 1 1-5.5 0V7.91c0-.066-.037-.181-.172-.306A4.23 4.23 0 0 1 1.723 4.5C1.723 2.148 3.643.25 6 .25m0 1.5c-1.54 0-2.777 1.237-2.777 2.75 0 .79.335 1.502.876 2.005.348.324.65.811.65 1.405V9c0 .408.198.77.5.998V6.727l-.873-1.311A.75.75 0 0 1 5 4.25h2a.75.75 0 0 1 .624 1.166l-.874 1.31v3.272c.303-.228.5-.59.5-.998V7.91c0-.594.303-1.081.651-1.405.54-.503.876-1.216.876-2.005 0-1.513-1.238-2.75-2.777-2.75"/></svg>