<svg xmlns="http://www.w3.org/2000/svg" width="24" height="24" fill="none" data-fui-icon="true" viewBox="0 0 24 24"><path fill="currentColor" d="M19.2 14.85a.75.75 0 0 1 .75.75v2.85h2.85a.75.75 0 0 1 0 1.5h-2.85v2.85a.75.75 0 0 1-1.5 0v-2.85H15.6a.75.75 0 0 1 0-1.5h2.85V15.6c0-.414.335-.75.75-.75M12 13.35c1.134 0 2.224.181 3.234.514a.75.75 0 0 1-.468 1.425A8.8 8.8 0 0 0 12 14.851c-4.47 0-7.95 3.23-7.95 7.05a.751.751 0 0 1-1.5 0c0-4.797 4.31-8.55 9.45-8.55M12 1.35a5.25 5.25 0 1 1 0 10.501 5.25 5.25 0 0 1 0-10.5m0 1.5a3.75 3.75 0 1 0 0 7.501 3.75 3.75 0 0 0 0-7.5"/></svg>