<svg xmlns="http://www.w3.org/2000/svg" width="24" height="24" fill="none" data-fui-icon="true" viewBox="0 0 24 24"><path fill="currentColor" d="M18.242 14.25c.108 0 .208.057.257.153.33.636.504 1.383.504 2.251 0 2.319-2.028 4.958-5.956 5.352a.31.31 0 0 0-.28.303v.939a.75.75 0 0 1-1.5 0v-.938a.307.307 0 0 0-.279-.303c-1.844-.18-3.174-.839-4.115-1.663a6.33 6.33 0 0 1-1.837-2.8.75.75 0 1 1 1.428-.458 4.83 4.83 0 0 0 1.398 2.129c.663.58 1.638 1.104 3.082 1.28a.29.29 0 0 0 .324-.292V14.55a.3.3 0 0 1 .3-.3h.9a.3.3 0 0 1 .3.3v5.652c0 .175.15.313.324.292 3.152-.387 4.41-2.462 4.41-3.84 0-.756-.167-1.307-.424-1.725l-.036-.058c-.155-.236-.006-.621.277-.621zM12.018 0a.75.75 0 0 1 .75.75v.934c0 .158.124.289.28.303 4.054.38 5.635 2.972 5.94 4.428a.751.751 0 0 1-1.47.307c-.174-.833-1.207-2.853-4.428-3.224a.292.292 0 0 0-.322.293v7.159a.3.3 0 0 0 .3.3H23.25a.75.75 0 0 1 .076 1.496l-.076.004H.75a.75.75 0 0 1 0-1.5h5.307c.3 0 .437-.427.224-.638a4 4 0 0 1-.601-.757c-.425-.69-.648-1.522-.648-2.51 0-2.319 2.03-4.958 5.956-5.354a.31.31 0 0 0 .28-.303V.75a.75.75 0 0 1 .75-.75m-.75 3.797a.29.29 0 0 0-.325-.293c-3.15.388-4.41 2.464-4.41 3.84 0 .757.167 1.307.424 1.725.259.421.64.759 1.14 1.04.76.425 1.726.683 2.813.909a.298.298 0 0 0 .358-.293z"/></svg>