<svg xmlns="http://www.w3.org/2000/svg" width="12" height="12" fill="none" data-fui-icon="true" viewBox="0 0 12 12"><path fill="currentColor" d="M1.757 1.757a2.4 2.4 0 0 1 1.705-.705h5.076a2.41 2.41 0 0 1 2.41 2.41v5.076a2.41 2.41 0 0 1-2.41 2.41H3.462a2.41 2.41 0 0 1-2.41-2.41V3.462c0-.64.253-1.253.705-1.705m1.061 1.061a.9.9 0 0 0-.266.644v5.076a.91.91 0 0 0 .91.91h5.076a.91.91 0 0 0 .91-.91V3.462a.91.91 0 0 0-.91-.91H3.462a.9.9 0 0 0-.644.266m3.89 3.89A1 1 0 1 1 8.12 8.12a1 1 0 0 1-1.414-1.414m-2.83 0A1 1 0 1 1 5.294 8.12a1 1 0 0 1-1.414-1.414m2.83-2.83A1 1 0 1 1 8.12 5.294a1 1 0 0 1-1.414-1.414m-2.83 0a1 1 0 1 1 1.415 1.415 1 1 0 0 1-1.414-1.414"/></svg>