<svg xmlns="http://www.w3.org/2000/svg" width="32" height="32" fill="none" data-fui-icon="true" viewBox="0 0 32 32"><path fill="currentColor" d="M16.124 2.25c-7.43 0-11.173 4.994-12.374 9.08V5.75a.75.75 0 0 0-1.5 0v6c0 1.236.994 2.25 2.235 2.25H9.43a.75.75 0 0 0 0-1.5H4.998c.794-3.718 4.077-8.75 11.126-8.75C23.589 3.75 28.25 9.369 28.25 16s-4.66 12.25-12.126 12.25c-5.116 0-9.234-3.016-11.061-6.824a.75.75 0 1 0-1.352.648c2.063 4.3 6.688 7.676 12.413 7.676 8.382 0 13.626-6.381 13.626-13.75S24.506 2.25 16.124 2.25m-.374 6A.75.75 0 0 0 15 9v7.5c0 .23.106.448.287.59l3.5 2.75a.75.75 0 0 0 .926-1.18L16.5 16.136V9a.75.75 0 0 0-.75-.75"/></svg>