<svg xmlns="http://www.w3.org/2000/svg" width="16" height="16" fill="none" data-fui-icon="true" viewBox="0 0 16 16"><path fill="currentColor" d="M12.167 14.25c1.15 0 2.083-.933 2.083-2.083V3.833c0-1.15-.933-2.083-2.083-2.083H3.833c-1.15 0-2.083.933-2.083 2.083v8.334c0 1.15.933 2.083 2.083 2.083zm-8.334-1.5a.583.583 0 0 1-.583-.583V3.833c0-.322.261-.583.583-.583h8.334c.322 0 .583.261.583.583v8.334a.583.583 0 0 1-.583.583zm2.47-2.22a.75.75 0 0 0 1.06-1.06L5.893 8l1.47-1.47a.75.75 0 1 0-1.06-1.06L4.774 6.998a1.417 1.417 0 0 0 0 2.004zm2.334 0a.75.75 0 0 0 1.06 0l1.529-1.528a1.417 1.417 0 0 0 0-2.004L9.697 5.47a.75.75 0 0 0-1.06 1.06L10.107 8l-1.47 1.47a.75.75 0 0 0 0 1.06"/></svg>