<svg xmlns="http://www.w3.org/2000/svg" width="32" height="32" fill="none" data-fui-icon="true" viewBox="0 0 32 32"><path fill="currentColor" d="M10.52 4.863a2.75 2.75 0 0 1 3.889 0l2.603 2.603A4.73 4.73 0 0 1 18.298 5.1l.108-.098a1.42 1.42 0 0 1 1.896.098l4.95 4.95c4.197 4.198 4.198 11.005 0 15.203s-11.006 4.197-15.204 0l-6.128-6.13a2.75 2.75 0 0 1 1.098-4.558l-.155-.155a2.75 2.75 0 0 1 0-3.889c.374-.374.83-.615 1.31-.728A2.75 2.75 0 0 1 9.79 6.174c.113-.48.355-.937.729-1.311M3.756 22.409a.75.75 0 0 1 .862.619c.077.473.432 1.203 1.007 1.896.57.688 1.262 1.221 1.914 1.415a.75.75 0 1 1-.427 1.437c-1.04-.31-1.966-1.08-2.642-1.894-.672-.81-1.196-1.782-1.332-2.612a.75.75 0 0 1 .618-.861m9.592-16.486a1.25 1.25 0 0 0-1.767 1.768l4.713 4.715a.75.75 0 1 1-1.06 1.06L9.578 7.81a1.251 1.251 0 0 0-1.769 1.768l5.657 5.657a.75.75 0 0 1-1.06 1.06L7.69 11.582a1.25 1.25 0 0 0-1.768 1.767l5.658 5.658a.75.75 0 0 1-1.061 1.06l-3.771-3.771a1.25 1.25 0 0 0-1.768 1.767l6.129 6.129a9.25 9.25 0 1 0 13.08-13.082l-4.889-4.89a3.246 3.246 0 0 0 .058 4.536l1.232 1.234c.327.326.421.819.24 1.243a4.17 4.17 0 0 0 .885 4.595.75.75 0 0 1-1.06 1.06 5.67 5.67 0 0 1-1.3-6.011l-1.058-1.059a4.73 4.73 0 0 1-1.243-2.186zm9.86-2.444c2.111.227 3.864 1.694 4.437 3.49a.75.75 0 1 1-1.429.455c-.385-1.209-1.625-2.286-3.168-2.453a.75.75 0 0 1 .16-1.492"/></svg>