<svg xmlns="http://www.w3.org/2000/svg" width="24" height="24" fill="none" data-fui-icon="true" viewBox="0 0 24 24"><path fill="currentColor" d="M18.398 12.597a.75.75 0 0 1 .952 1.112L12.6 22.7a.75.75 0 0 1-1.2 0L4.65 13.71a.75.75 0 0 1 .953-1.112L12 16.005zm-6.046 4.92a.75.75 0 0 1-.704 0l-3.772-2.01L12 21.002l4.123-5.493zM12 1a.75.75 0 0 1 .59.288l6.75 8.63.049.071a.75.75 0 0 1-.315 1.069l-6.75 3.236a.75.75 0 0 1-.648 0l-6.75-3.236a.75.75 0 0 1-.315-1.069l.048-.07 6.75-8.63A.75.75 0 0 1 12 1m-5.585 9.11L12 12.786l5.584-2.678L12 2.968z"/></svg>