<svg xmlns="http://www.w3.org/2000/svg" width="24" height="24" fill="none" data-fui-icon="true" viewBox="0 0 24 24"><g clip-path="url(#a)"><path fill="currentColor" d="M14.406.292a6.6 6.6 0 0 1 7.915 4.946l.633 2.741a.587.587 0 0 1-.44.704l-6.119 1.413-.256.066a5.134 5.134 0 0 0-3.59 6.09l1.412 6.12a.587.587 0 0 1-.44.703l-2.742.633a6.6 6.6 0 0 1-7.915-4.946l-1.98-8.575A6.6 6.6 0 0 1 5.83 2.272zm8.151 9.92a.564.564 0 0 1 .699.59 14.56 14.56 0 0 1-7.066 11.307.564.564 0 0 1-.836-.37l-1.344-5.824a3.634 3.634 0 0 1 2.723-4.358z"/></g><defs><clipPath id="a"><path fill="currentColor" d="M0 0h24v24H0z"/></clipPath></defs></svg>