<svg xmlns="http://www.w3.org/2000/svg" width="32" height="32" fill="none" data-fui-icon="true" viewBox="0 0 32 32"><path fill="currentColor" d="M24.647 16.687a3.966 3.966 0 0 1 5.609 5.608l-7.517 7.516a3.75 3.75 0 0 1-2.236 1.076l-3.078.341a1.55 1.55 0 0 1-1.712-1.711l.342-3.078a3.75 3.75 0 0 1 1.075-2.237zm-18.39 2.385c3.473-2.424 7.988-3.382 12.021-1.768a.75.75 0 0 1-.556 1.392c-3.467-1.386-7.452-.594-10.605 1.607C3.967 22.502 1.75 26.038 1.75 30a.75.75 0 0 1-1.5 0c0-4.538 2.533-8.502 6.008-10.928m11.933 6.19a2.25 2.25 0 0 0-.644 1.343l-.342 3.079a.05.05 0 0 0 .055.054l3.077-.341a2.25 2.25 0 0 0 1.343-.646l5.28-5.28-3.488-3.489zm11.005-7.515a2.467 2.467 0 0 0-3.488 0l-1.176 1.175 3.489 3.488 1.175-1.176a2.466 2.466 0 0 0 0-3.487M15 .25a6.75 6.75 0 1 1 0 13.5 6.75 6.75 0 0 1 0-13.5m0 1.5a5.25 5.25 0 1 0 0 10.5 5.25 5.25 0 0 0 0-10.5"/></svg>