<svg xmlns="http://www.w3.org/2000/svg" width="24" height="24" fill="none" data-fui-icon="true" viewBox="0 0 24 24"><g clip-path="url(#a)"><path fill="currentColor" d="M9.503 20c0 .879.323 1.483.764 1.875.455.404 1.083.622 1.736.622s1.281-.218 1.736-.622c.442-.392.764-.996.764-1.875zM12 1.588c-3.012 0-4.732 1.476-5.76 3.297-1.056 1.868-1.375 4.1-1.463 5.462-.06.927-.4 1.866-1.084 2.583l-.348.364A3.08 3.08 0 0 0 5.571 18.5h12.857a3.08 3.08 0 0 0 2.226-5.206l-.347-.364c-.685-.717-1.025-1.656-1.085-2.583-.088-1.363-.407-3.594-1.462-5.462-1.028-1.82-2.747-3.297-5.76-3.297M16.003 20c0 1.286-.49 2.306-1.267 2.996-.764.678-1.76 1.001-2.733 1.001-.972 0-1.969-.323-2.732-1-.778-.691-1.268-1.71-1.268-2.997H5.571a4.58 4.58 0 0 1-3.311-7.742l.348-.364c.4-.42.631-1.004.673-1.644.093-1.444.431-3.943 1.652-6.104C6.18 1.94 8.357.088 12 .088s5.82 1.85 7.067 4.058c1.22 2.16 1.559 4.66 1.652 6.103.041.64.272 1.226.672 1.645l.348.364A4.579 4.579 0 0 1 18.428 20z"/></g><defs><clipPath id="a"><path fill="currentColor" d="M0 0h24v24H0z"/></clipPath></defs></svg>