<svg xmlns="http://www.w3.org/2000/svg" width="20" height="20" fill="none" data-fui-icon="true" viewBox="0 0 20 20"><path fill="currentColor" d="M11 9a.75.75 0 0 0 0 1.5h2.75a.75.75 0 0 0 0-1.5zm-.75 5.25a.75.75 0 0 1 .75-.75h2.75a.75.75 0 0 1 0 1.5H11a.75.75 0 0 1-.75-.75m-.876-5.084a.75.75 0 0 0-1.248-.832l-.931 1.397-.36-.45a.75.75 0 0 0-1.17.938l1 1.25a.75.75 0 0 0 1.209-.053zm-.208 3.46a.75.75 0 0 1 .208 1.04l-1.5 2.25a.75.75 0 0 1-1.21.053l-1-1.25a.75.75 0 1 1 1.172-.937l.359.449.931-1.397a.75.75 0 0 1 1.04-.208"/><path fill="currentColor" fill-rule="evenodd" d="M9.347.5c-.581 0-1.1.365-1.295.913L7.842 2h-.966c-.63 0-1.16.422-1.324 1h-.708A2.31 2.31 0 0 0 2.53 5.313v12.03a2.31 2.31 0 0 0 2.313 2.313h10.312a2.313 2.313 0 0 0 2.313-2.312V5.312A2.313 2.313 0 0 0 15.156 3h-.708c-.163-.578-.695-1-1.324-1h-.966l-.21-.587A1.375 1.375 0 0 0 10.653.5zm-.213 2.343.3-.843h1.131l.301.843a.75.75 0 0 0 .744.657H13v1.25H7V3.5h1.39a.75.75 0 0 0 .744-.657m6.835 2.47a.813.813 0 0 0-.813-.813H14.5v.375c0 .76-.616 1.375-1.375 1.375h-6.25c-.76 0-1.375-.616-1.375-1.375V4.5h-.656a.813.813 0 0 0-.813.813v12.03c0 .45.364.813.813.813h10.312a.81.81 0 0 0 .813-.812z" clip-rule="evenodd"/></svg>