<svg xmlns="http://www.w3.org/2000/svg" width="24" height="24" fill="none" data-fui-icon="true" viewBox="0 0 24 24"><path fill="currentColor" d="M16.475 1.25a5.75 5.75 0 0 1 5.721 5.178l1 10a5.75 5.75 0 0 1-5.721 6.322H6.525a5.75 5.75 0 0 1-5.721-6.322l1-10A5.75 5.75 0 0 1 7.526 1.25zm-8.95 1.5a4.25 4.25 0 0 0-4.229 3.827l-1 10a4.25 4.25 0 0 0 4.23 4.673h10.949a4.25 4.25 0 0 0 4.23-4.673l-1-10a4.25 4.25 0 0 0-4.23-3.827zM16 6.25a.75.75 0 0 1 .75.75v.023a2 2 0 0 1-.01.203 5.67 5.67 0 0 1-.57 2.11 4.26 4.26 0 0 1-1.441 1.663c-.7.466-1.598.751-2.729.751-1.13 0-2.03-.285-2.728-.751a4.26 4.26 0 0 1-1.443-1.664 5.7 5.7 0 0 1-.578-2.265v-.069L8 7h-.75a.75.75 0 0 1 1.5-.001v.02l.005.1c.006.089.02.222.047.383.054.326.161.75.368 1.163.206.41.502.799.933 1.086.426.284 1.028.499 1.896.499.869 0 1.47-.215 1.897-.499.43-.287.727-.675.932-1.086.207-.414.314-.837.368-1.163.027-.161.041-.294.047-.384q.005-.067.005-.098l.001-.021A.75.75 0 0 1 16 6.25"/></svg>