<svg xmlns="http://www.w3.org/2000/svg" width="24" height="24" fill="none" data-fui-icon="true" viewBox="0 0 24 24"><path fill="currentColor" fill-rule="evenodd" d="M22.426 8.532a1.5 1.5 0 0 0-1.24-1.03l-5.457-.718-2.369-4.93A1.5 1.5 0 0 0 11.999 1a1.5 1.5 0 0 0-1.361.854L8.263 6.788l-5.449.714a1.5 1.5 0 0 0-1.241 1.03 1.49 1.49 0 0 0 .4 1.558l3.986 3.76-1.001 5.367a1.49 1.49 0 0 0 .593 1.491 1.5 1.5 0 0 0 1.608.108l4.846-2.606 4.835 2.606c.519.28 1.135.238 1.608-.109.473-.345.7-.917.593-1.491l-.999-5.371 3.983-3.756c.428-.403.581-1 .4-1.558zm-5.413 4.222a1.5 1.5 0 0 0-.447 1.37l.986 5.372-4.835-2.606a1.5 1.5 0 0 0-.717-.182V2.499l.009.004 2.368 4.93c.222.461.657.776 1.165.842l5.455.722z" clip-rule="evenodd"/></svg>