<svg xmlns="http://www.w3.org/2000/svg" width="20" height="20" fill="none" data-fui-icon="true" viewBox="0 0 20 20"><path fill="currentColor" d="M5.251 7.938A.75.75 0 1 1 6.311 9l-2.84 2.84A3.317 3.317 0 0 0 5.816 17.5c.88 0 1.723-.35 2.345-.972l2.841-2.84a.75.75 0 1 1 1.06 1.061l-2.84 2.84a4.817 4.817 0 0 1-6.81-6.81zM12.72 6.22a.75.75 0 1 1 1.06 1.06l-6.5 6.5a.75.75 0 1 1-1.06-1.06zM14.185 1a4.816 4.816 0 0 1 3.405 8.222l-2.841 2.84A.75.75 0 1 1 13.689 11l2.84-2.84a3.316 3.316 0 1 0-4.69-4.69L9 6.312a.75.75 0 1 1-1.06-1.06l2.84-2.84A4.82 4.82 0 0 1 14.184 1"/></svg>