<svg xmlns="http://www.w3.org/2000/svg" width="24" height="24" fill="none" data-fui-icon="true" viewBox="0 0 24 24"><path fill="currentColor" d="M19.5 15.818a3.25 3.25 0 0 1 3.25 3.25v.954a.75.75 0 0 1-1.5 0v-.954a1.75 1.75 0 0 0-1.75-1.75h-15a1.75 1.75 0 0 0-1.75 1.75v.954a.75.75 0 0 1-1.5 0v-.954a3.25 3.25 0 0 1 3.25-3.25zM19.5 4a3.25 3.25 0 0 1 3.25 3.25v3.182a3.25 3.25 0 0 1-3.25 3.25h-15a3.25 3.25 0 0 1-3.25-3.25V7.25A3.25 3.25 0 0 1 4.5 4zm-15 1.5a1.75 1.75 0 0 0-1.75 1.75v3.182c0 .966.784 1.75 1.75 1.75h15a1.75 1.75 0 0 0 1.75-1.75V7.25A1.75 1.75 0 0 0 19.5 5.5z"/></svg>