<svg xmlns="http://www.w3.org/2000/svg" width="32" height="32" fill="none" data-fui-icon="true" viewBox="0 0 32 32"><path fill="currentColor" d="M24 1.25c1.503 0 2.793 1.234 2.68 2.806-.182 2.52-.7 4.36-1.407 5.757-.708 1.402-1.586 2.32-2.422 3.02-.412.344-.818.64-1.168.9-.36.266-.656.492-.9.724-.452.43-.7.854-.7 1.543s.248 1.112.7 1.543c.244.232.54.458.9.725.35.259.756.555 1.168.899.836.7 1.714 1.618 2.422 3.02.706 1.397 1.225 3.236 1.407 5.757.113 1.572-1.177 2.806-2.68 2.806H8c-1.503 0-2.793-1.234-2.68-2.806.182-2.52.7-4.36 1.407-5.756.708-1.403 1.586-2.32 2.422-3.021.412-.344.818-.64 1.168-.9.36-.266.656-.492.9-.724.452-.43.7-.854.7-1.543s-.248-1.112-.7-1.543a10 10 0 0 0-.9-.725c-.35-.259-.756-.555-1.168-.899-.836-.7-1.714-1.618-2.422-3.02C6.02 8.416 5.502 6.576 5.32 4.056 5.207 2.484 6.497 1.25 8 1.25zM8 2.75c-.706 0-1.229.567-1.184 1.198.17 2.37.652 4.006 1.25 5.188.594 1.176 1.322 1.94 2.046 2.547.37.309.734.574 1.099.844a11 11 0 0 1 1.041.844c.675.643 1.165 1.437 1.165 2.629s-.49 1.986-1.165 2.629a11 11 0 0 1-1.041.844c-.365.27-.73.535-1.099.844-.724.607-1.452 1.372-2.047 2.547-.597 1.183-1.078 2.819-1.249 5.188-.045.631.478 1.198 1.184 1.198h16c.706 0 1.229-.567 1.184-1.198-.17-2.37-.652-4.005-1.25-5.188-.594-1.175-1.322-1.94-2.046-2.547-.37-.309-.734-.574-1.099-.844a11 11 0 0 1-1.041-.844c-.675-.643-1.165-1.437-1.165-2.629s.49-1.986 1.165-2.629a11 11 0 0 1 1.041-.844c.365-.27.73-.535 1.099-.844.724-.607 1.452-1.371 2.047-2.547.597-1.182 1.078-2.819 1.249-5.188.045-.631-.478-1.198-1.184-1.198zM21 6c.552 0 1.008.457.839.982-.567 1.762-2.555 3.434-4.744 4.527a2.45 2.45 0 0 1-2.19 0c-2.19-1.093-4.177-2.765-4.744-4.527-.169-.525.288-.982.84-.982z"/></svg>