<svg xmlns="http://www.w3.org/2000/svg" width="20" height="20" fill="none" data-fui-icon="true" viewBox="0 0 20 20"><path fill="currentColor" d="M10.25 0a5.75 5.75 0 0 1 5.71 5.07.75.75 0 0 1-1.49.176A4.25 4.25 0 0 0 10.25 1.5h-.5A4.25 4.25 0 0 0 5.5 5.75V8h9.55a3.45 3.45 0 0 1 3.45 3.45v5.1A3.45 3.45 0 0 1 15.05 20H4.95a3.45 3.45 0 0 1-3.45-3.45v-5.1A3.45 3.45 0 0 1 4 8.133V5.75A5.75 5.75 0 0 1 9.75 0zm-5.3 9.5A1.95 1.95 0 0 0 3 11.45v5.1a1.95 1.95 0 0 0 1.95 1.95h10.1A1.95 1.95 0 0 0 17 16.55v-5.1a1.95 1.95 0 0 0-1.95-1.95z"/></svg>