<svg xmlns="http://www.w3.org/2000/svg" width="32" height="32" fill="none" data-fui-icon="true" viewBox="0 0 32 32"><path fill="currentColor" d="M26.21 2A2.79 2.79 0 0 1 29 4.79v9.626c0 .731-.288 1.433-.8 1.955L16.225 28.564a4.8 4.8 0 0 1-6.816.03l-7.004-7.003a4.8 4.8 0 0 1 .032-6.816L14.629 2.8a2.8 2.8 0 0 1 1.955-.8zm-9.626 1.5a1.3 1.3 0 0 0-.903.37L3.487 15.845a3.3 3.3 0 0 0-.021 4.685l7.004 7.004a3.3 3.3 0 0 0 4.685-.021L27.13 15.319a1.3 1.3 0 0 0 .37-.903V4.79a1.29 1.29 0 0 0-1.29-1.29zM22.5 6a2.5 2.5 0 1 1 0 5 2.5 2.5 0 0 1 0-5m0 1.5a1 1 0 1 0 0 2 1 1 0 0 0 0-2"/></svg>