<svg xmlns="http://www.w3.org/2000/svg" width="24" height="24" fill="none" data-fui-icon="true" viewBox="0 0 24 24"><path fill="currentColor" d="M18.25 3A2.75 2.75 0 0 1 21 5.75v12.5A2.75 2.75 0 0 1 18.25 21H5.75A2.75 2.75 0 0 1 3 18.25V5.75A2.75 2.75 0 0 1 5.75 3zM5.75 4.5c-.69 0-1.25.56-1.25 1.25v12.5c0 .69.56 1.25 1.25 1.25h12.5c.69 0 1.25-.56 1.25-1.25V5.75c0-.69-.56-1.25-1.25-1.25zm4.19 8.804a.75.75 0 0 1 1.2.9l-1.872 2.495a.75.75 0 0 1-1.016.174l-1.125-.75a.75.75 0 0 1 .832-1.248l.534.356zm6.31.946a.75.75 0 0 1 0 1.5h-2.5a.75.75 0 0 1 0-1.5zM9.94 7.303a.75.75 0 0 1 1.2.9l-1.872 2.495a.75.75 0 0 1-1.016.174l-1.125-.75a.75.75 0 0 1 .832-1.248l.534.356zm6.368.947a.75.75 0 0 1 0 1.5h-2.5a.75.75 0 0 1 0-1.5z"/></svg>