<svg xmlns="http://www.w3.org/2000/svg" width="20" height="20" fill="none" data-fui-icon="true" viewBox="0 0 20 20"><g clip-path="url(#a)"><path fill="currentColor" d="M11.685.488A5.7 5.7 0 0 1 18.52 4.76l.405 1.754.108.53c.974 5.468-2.503 10.799-7.977 12.063l-1.754.405-.288.058a5.7 5.7 0 0 1-6.548-4.33L.982 8.81A5.7 5.7 0 0 1 4.97 2.046l.285-.074zM5.59 3.434a4.2 4.2 0 0 0-3.147 5.038l1.484 6.43a4.2 4.2 0 0 0 5.038 3.148l1.753-.405q.495-.116.962-.281l-.774-3.354a4.5 4.5 0 0 1 3.372-5.397l3.355-.775a9 9 0 0 0-.17-.987l-.405-1.753a4.2 4.2 0 0 0-5.037-3.148zm9.025 6.64a3 3 0 0 0-2.248 3.598l.708 3.065a9.01 9.01 0 0 0 4.605-7.37z"/></g><defs><clipPath id="a"><path fill="currentColor" d="M0 0h20v20H0z"/></clipPath></defs></svg>