<svg xmlns="http://www.w3.org/2000/svg" width="20" height="20" fill="none" data-fui-icon="true" viewBox="0 0 20 20"><path fill="currentColor" d="M16.363 4.186a15 15 0 0 0-3.782-1.17q-.268.482-.484.99a14 14 0 0 0-4.198 0 11 11 0 0 0-.485-.99A15.2 15.2 0 0 0 3.63 4.189C1.236 7.749.587 11.22.911 14.643a15.2 15.2 0 0 0 4.639 2.341q.565-.763.994-1.61a10 10 0 0 1-1.565-.751q.197-.145.384-.29a10.85 10.85 0 0 0 9.274 0q.189.156.384.29-.751.445-1.568.752.43.847.994 1.61a15.2 15.2 0 0 0 4.642-2.34c.38-3.97-.65-7.41-2.726-10.46m-9.409 8.352c-.904 0-1.65-.825-1.65-1.84 0-1.014.72-1.846 1.648-1.846s1.668.832 1.652 1.847c-.016 1.014-.728 1.84-1.65 1.84m6.091 0c-.905 0-1.65-.825-1.65-1.84 0-1.014.722-1.846 1.65-1.846.93 0 1.665.832 1.649 1.847-.016 1.014-.727 1.84-1.649 1.84"/></svg>