<svg xmlns="http://www.w3.org/2000/svg" width="12" height="12" fill="none" data-fui-icon="true" viewBox="0 0 12 12"><path fill="currentColor" d="M6.401 1.678a.75.75 0 0 1 1.448.394l-2.25 8.25a.75.75 0 0 1-1.448-.394zM2.33 3.36a.75.75 0 1 1 1.092 1.027l-1.354 1.44a.25.25 0 0 0 0 .343L3.42 7.61a.75.75 0 1 1-1.092 1.027L.974 7.2a1.75 1.75 0 0 1 0-2.398zM8.61 3.33a.75.75 0 0 1 1.061.032l1.356 1.44a1.75 1.75 0 0 1 0 2.398L9.67 8.639A.75.75 0 0 1 8.579 7.61l1.355-1.44a.25.25 0 0 0 0-.342l-1.355-1.44a.75.75 0 0 1 .031-1.06"/></svg>