<svg xmlns="http://www.w3.org/2000/svg" width="20" height="20" fill="none" data-fui-icon="true" viewBox="0 0 20 20"><path fill="currentColor" d="M10.426 0a3.25 3.25 0 0 1 3.194 2.651L13.873 4H18a.75.75 0 0 1 0 1.5h-.344l-1.551 11.696A3.02 3.02 0 0 1 13.095 20h-6.19a3.02 3.02 0 0 1-3.01-2.804L2.345 5.5H2A.75.75 0 0 1 2 4h4.128l.253-1.349A3.25 3.25 0 0 1 9.575 0zM5.382 16.999l.006.06.014.149A1.52 1.52 0 0 0 6.905 18.5h6.19a1.52 1.52 0 0 0 1.517-1.441l.006-.06L16.145 5.5H3.855zM9.575 1.5c-.842 0-1.565.6-1.72 1.428L7.652 4h4.694l-.201-1.072a1.75 1.75 0 0 0-1.72-1.428z"/></svg>