<svg xmlns="http://www.w3.org/2000/svg" width="13" height="12" fill="none" data-fui-icon="true" viewBox="0 0 13 12"><path stroke="currentColor" stroke-width="1.2" d="M2.679 6.922c-.09.039-.406.074-.616.074q-.14.001-.27-.013c-.071-.007-.13.06-.102.126a2.31 2.31 0 0 0 2.102 1.429 4.68 4.68 0 0 1-3.008.97c-.1-.002-.143.132-.055.18a6.6 6.6 0 0 0 3.183.812c4.246 0 6.567-3.462 6.567-6.464q0-.146-.007-.294c.45-.32.842-.72 1.151-1.175q-.544.237-1.148.332c-.04.006-.06-.049-.027-.072.337-.235.607-.557.777-.932.035-.078-.05-.15-.127-.11-.388.2-.808.347-1.25.432A2.32 2.32 0 0 0 8.164 1.5c-1.274 0-2.308 1.017-2.308 2.273q0 .266.06.517a6.6 6.6 0 0 1-4.671-2.273c-.043-.049-.121-.042-.151.016a2.24 2.24 0 0 0-.248 1.025c0 .788.408 1.484 1.027 1.891a2.3 2.3 0 0 1-1.02-.27.018.018 0 0 0-.026.015c0 1.092.783 2.005 1.827 2.223m.025.005-.025-.005m.025.005-.025-.005"/></svg>