<svg xmlns="http://www.w3.org/2000/svg" width="32" height="32" fill="none" data-fui-icon="true" viewBox="0 0 32 32"><path fill="currentColor" d="M5.75 22a.75.75 0 0 1 .75.75v4.5a.75.75 0 0 1-1.5 0v-4.5a.75.75 0 0 1 .75-.75m5-7a.75.75 0 0 1 .75.75v11.5a.75.75 0 0 1-1.5 0v-11.5a.75.75 0 0 1 .75-.75m5-6a.75.75 0 0 1 .75.75v17.5a.75.75 0 0 1-1.5 0V9.75a.75.75 0 0 1 .75-.75m5 6a.75.75 0 0 1 .75.75v11.5a.75.75 0 0 1-1.5 0v-11.5a.75.75 0 0 1 .75-.75m5-11a.75.75 0 0 1 .75.75v22.5a.75.75 0 0 1-1.5 0V4.75a.75.75 0 0 1 .75-.75"/></svg>