<svg xmlns="http://www.w3.org/2000/svg" width="20" height="20" fill="none" data-fui-icon="true" viewBox="0 0 20 20"><path fill="currentColor" d="M15.236 3.741a4.024 4.024 0 0 1 4.024 4.023V13a4.024 4.024 0 0 1-4.024 4.023H4.764A4.023 4.023 0 0 1 .74 13V7.764A4.023 4.023 0 0 1 4.764 3.74zm-10.472 1.5A2.523 2.523 0 0 0 2.24 7.764v2.818l1.54-1.752c.323-.369.74-.635 1.198-.78a2.656 2.656 0 0 1 2.73.713l2.67 2.842 1.019-1.26a2.46 2.46 0 0 1 1.769-.91l.139-.004h.002c.688 0 1.345.29 1.81.798l2.635 2.881c.002-.036.007-.073.007-.11V7.764a2.524 2.524 0 0 0-2.524-2.523z"/></svg>