<svg xmlns="http://www.w3.org/2000/svg" width="12" height="12" fill="none" data-fui-icon="true" viewBox="0 0 12 12"><path fill="currentColor" d="M6 2.106c1.268 0 1.418.005 1.92.028.3.003.599.058.881.163.207.076.393.198.546.356.158.153.28.34.356.546.104.282.16.58.164.882.022.5.027.65.027 1.919 0 1.268-.005 1.418-.027 1.92-.004.3-.06.599-.164.881a1.57 1.57 0 0 1-.902.902c-.282.104-.58.16-.882.164-.5.022-.65.027-1.919.027-1.268 0-1.419-.005-1.92-.027a2.6 2.6 0 0 1-.882-.164 1.5 1.5 0 0 1-.545-.356 1.5 1.5 0 0 1-.356-.546 2.6 2.6 0 0 1-.163-.882c-.023-.5-.028-.65-.028-1.919 0-1.268.005-1.419.028-1.92.003-.3.058-.599.163-.881.076-.207.198-.393.356-.546.153-.158.34-.28.546-.356.282-.105.58-.16.882-.163.5-.023.65-.028 1.919-.028m0-.856c-1.29 0-1.452.006-1.958.028a3.5 3.5 0 0 0-1.153.221c-.317.12-.605.307-.842.549a2.3 2.3 0 0 0-.548.84c-.138.37-.212.76-.22 1.154-.024.506-.029.668-.029 1.958s.006 1.452.028 1.958c.008.394.083.784.221 1.153.12.317.307.605.549.842.237.242.524.429.84.548.37.138.76.212 1.154.22.506.024.668.029 1.958.029s1.452-.006 1.958-.028a3.5 3.5 0 0 0 1.153-.221 2.43 2.43 0 0 0 1.39-1.39c.138-.369.212-.759.22-1.153.024-.506.029-.668.029-1.958s-.006-1.452-.028-1.958a3.5 3.5 0 0 0-.221-1.153 2.3 2.3 0 0 0-.549-.842 2.3 2.3 0 0 0-.84-.548 3.5 3.5 0 0 0-1.154-.22C7.452 1.255 7.29 1.25 6 1.25m0 2.31a2.44 2.44 0 1 0 0 4.88 2.44 2.44 0 0 0 0-4.88m0 4.024a1.583 1.583 0 1 1 0-3.167 1.583 1.583 0 0 1 0 3.167m2.536-4.69a.57.57 0 1 0 0 1.14.57.57 0 0 0 0-1.14"/></svg>