<svg xmlns="http://www.w3.org/2000/svg" width="16" height="16" fill="none" data-fui-icon="true" viewBox="0 0 16 16"><path fill="currentColor" d="M8 .25c1.077 0 1.922 0 2.605.046.688.047 1.266.144 1.801.366a5.42 5.42 0 0 1 2.932 2.932c.222.535.32 1.113.366 1.802.047.682.046 1.527.046 2.604s0 1.922-.046 2.605c-.047.688-.144 1.266-.366 1.801a5.42 5.42 0 0 1-2.932 2.932c-.535.222-1.113.32-1.802.366-.682.047-1.527.046-2.604.046s-1.922 0-2.604-.046c-.69-.047-1.267-.144-1.802-.366a5.42 5.42 0 0 1-2.932-2.932c-.222-.535-.32-1.113-.366-1.802C.249 9.923.25 9.078.25 8s0-1.922.046-2.604c.047-.69.144-1.267.366-1.802A5.42 5.42 0 0 1 3.594.662C4.129.44 4.707.342 5.396.296 6.078.249 6.923.25 8 .25m0 1.5c-1.097 0-1.883 0-2.502.043-.612.042-1.008.121-1.33.255a3.92 3.92 0 0 0-2.12 2.12c-.134.322-.213.718-.255 1.33-.042.62-.043 1.405-.043 2.502s0 1.883.043 2.502c.042.612.121 1.008.255 1.33a3.92 3.92 0 0 0 2.12 2.12c.322.133.718.213 1.33.255.62.042 1.405.043 2.502.043s1.883 0 2.502-.043c.612-.042 1.008-.122 1.33-.255a3.92 3.92 0 0 0 2.12-2.12c.133-.322.213-.718.255-1.33.042-.62.043-1.405.043-2.502s0-1.883-.043-2.502c-.042-.612-.122-1.008-.255-1.33a3.92 3.92 0 0 0-2.12-2.12c-.322-.134-.718-.213-1.33-.255C9.882 1.751 9.097 1.75 8 1.75m2.97 4.553a.75.75 0 0 1 1.06 1.06L9.668 9.726a1.417 1.417 0 0 1-2.003 0L6.333 8.394 5.03 9.696a.75.75 0 1 1-1.06-1.06l1.362-1.362.107-.097a1.42 1.42 0 0 1 1.789 0l.107.097 1.331 1.331z"/></svg>