<svg xmlns="http://www.w3.org/2000/svg" width="24" height="24" fill="none" data-fui-icon="true" viewBox="0 0 24 24"><path fill="currentColor" d="M12.282 3.004q.167.006.332.017l.129.01a9 9 0 0 1 .316.03l.1.012q.1.012.197.027.04.005.08.012l.208.034.01.002q.508.092.994.233l.066.018q.236.07.465.15l.025.009q.478.167.931.374l.02.008.002.002c1.634.751 3.033 1.858 4.158 2.974l.137.139.018.017.094.098a20 20 0 0 1 .382.403l.126.137.148.166q.11.124.216.249l.09.104a22 22 0 0 1 .652.808l.07.09q.129.174.249.339.13.175.25.342l.068.098q.176.252.325.477.086.131.162.25c.266.414.449.726.54.888.168.3.168.658 0 .958a18 18 0 0 1-.702 1.137q-.094.142-.2.294-.092.136-.193.281-.1.139-.206.284-.138.19-.287.39l-.076.097a23 23 0 0 1-.594.74l-.133.156q-.096.11-.194.223l-.173.195-.138.15-.196.21q-.086.091-.174.182l-.105.11-.02.016-.136.14c-1.125 1.116-2.524 2.222-4.158 2.973l-.003.003-.018.007a11 11 0 0 1-.932.375l-.025.01a10 10 0 0 1-.465.149l-.066.018a10 10 0 0 1-.994.233l-.01.002-.209.034-.079.012q-.097.015-.196.027l-.1.012a9 9 0 0 1-.317.03l-.129.01q-.165.012-.332.017L12 21l-.283-.004a9 9 0 0 1-.605-.04q-.082-.007-.166-.017l-.304-.039-.079-.012a10 10 0 0 1-1.745-.437l-.024-.009a11 11 0 0 1-.906-.364l-.044-.018q-.004-.004-.01-.006c-1.63-.751-3.026-1.856-4.15-2.97l-.132-.135-.024-.021q-.055-.056-.108-.113a19 19 0 0 1-.696-.755q-.068-.076-.135-.154l-.198-.233-.113-.136-.142-.175-.146-.181-.146-.188-.077-.098-.067-.09q-.126-.169-.242-.33-.108-.146-.207-.285-.102-.144-.194-.28l-.2-.294q-.085-.13-.161-.25a18 18 0 0 1-.539-.886.98.98 0 0 1 0-.96l.15-.257q.021-.039.047-.08c.112-.187.26-.425.44-.7q.03-.05.063-.1.15-.225.326-.477l.068-.097q.154-.217.328-.449.072-.1.147-.2l.165-.215.1-.128.167-.207.135-.165.123-.146a22 22 0 0 1 .52-.598l.099-.108a20 20 0 0 1 .388-.411l.105-.11.024-.022.132-.134c1.339-1.327 3.063-2.64 5.11-3.358l.024-.01q.23-.078.464-.148l.073-.021a10 10 0 0 1 1.208-.267q.04-.007.08-.012a10 10 0 0 1 .303-.04l.166-.016.152-.014.118-.009q.305-.02.618-.021zm-.695 1.508-.09.004a8 8 0 0 0-.393.036l-.071.009a8 8 0 0 0-.395.058l-.082.016q-.377.07-.744.174l-.129.036a9 9 0 0 0-.7.242c-1.63.637-3.06 1.722-4.243 2.894a18 18 0 0 0-.871.927l-.132.15-.19.223-.103.126q-.078.094-.152.187l-.114.14-.16.205-.075.098q-.162.215-.308.42-.077.104-.15.205a22 22 0 0 0-.702 1.057q-.096.158-.167.281.065.112.151.254c.13.21.295.465.492.754q.106.159.226.329.064.09.131.18.15.209.315.43l.247.318.072.088.191.236q.052.064.107.129.092.111.19.222.058.068.12.137.063.074.13.148l.214.235.118.127q.204.216.42.432c1.183 1.172 2.613 2.256 4.242 2.893a9 9 0 0 0 .823.277q.37.105.751.175l.082.016q.196.034.395.059l.071.008q.195.023.393.036l.09.004q.204.012.413.013l.41-.013.09-.004q.2-.012.395-.036l.068-.008q.198-.024.393-.058l.096-.019a8.3 8.3 0 0 0 1.572-.454c1.627-.637 3.054-1.719 4.235-2.89a18 18 0 0 0 .603-.628q.068-.073.133-.146.075-.083.147-.167l.16-.182.106-.127.155-.186a19 19 0 0 0 .287-.355l.104-.133.113-.148q.15-.198.284-.386c.362-.498.65-.935.856-1.267q.101-.166.175-.293-.074-.128-.175-.294a21 21 0 0 0-.885-1.307q-.127-.175-.267-.36l-.16-.209-.052-.065a22 22 0 0 0-.28-.348q-.076-.092-.155-.186l-.12-.14-.158-.183q-.075-.085-.152-.17l-.152-.167a18 18 0 0 0-.567-.59c-1.181-1.17-2.608-2.253-4.235-2.89a9 9 0 0 0-.844-.284 8 8 0 0 0-.728-.17l-.096-.019a8 8 0 0 0-.393-.058l-.068-.008a8 8 0 0 0-.394-.036l-.09-.004a8 8 0 0 0-.824 0M12 7a5 5 0 1 1 0 10 5 5 0 0 1 0-10m0 1.5a3.5 3.5 0 1 0 0 7 3.5 3.5 0 0 0 0-7"/></svg>