<svg xmlns="http://www.w3.org/2000/svg" width="24" height="24" fill="none" data-fui-icon="true" viewBox="0 0 24 24"><path fill="currentColor" d="M19 13.25a.75.75 0 0 1 .75.75v3.25H23a.75.75 0 0 1 0 1.5h-3.25V22a.75.75 0 0 1-1.5 0v-3.25H15a.75.75 0 0 1 0-1.5h3.25V14a.75.75 0 0 1 .75-.75m-1.206-5c2.599 0 4.834 1.609 5.638 3.89l.074.222c.161.522.244 1.074.244 1.638a.75.75 0 0 1-1.5 0c0-.476-.08-.934-.23-1.354l-.002-.003-.123-.308c-.672-1.51-2.246-2.585-4.101-2.585-1.727 0-3.214.94-3.952 2.293a8.3 8.3 0 0 1 1.781 1.916.75.75 0 1 1-1.246.834c-1.267-1.894-3.506-3.135-6.048-3.037-3.706.142-6.579 3.268-6.579 6.88 0 .87.733 1.614 1.69 1.614h9.846a.75.75 0 0 1 0 1.5H3.44C1.7 21.75.25 20.38.25 18.637c0-4.392 3.483-8.206 8.021-8.38a8.5 8.5 0 0 1 4.308.97c1.018-1.783 2.982-2.977 5.215-2.977m-9.294-7a4.25 4.25 0 1 1 0 8.5 4.25 4.25 0 0 1 0-8.5m0 1.5a2.75 2.75 0 1 0 0 5.5 2.75 2.75 0 0 0 0-5.5m9-1.5a3.25 3.25 0 1 1 0 6.5 3.25 3.25 0 0 1 0-6.5m0 1.5a1.75 1.75 0 1 0 0 3.5 1.75 1.75 0 0 0 0-3.5"/></svg>