<svg xmlns="http://www.w3.org/2000/svg" width="20" height="20" fill="none" data-fui-icon="true" viewBox="0 0 20 20"><path fill="currentColor" d="M5.5 4.115A3.75 3.75 0 0 1 9.941.43l6 1.125A3.75 3.75 0 0 1 19 5.24v9.52a3.75 3.75 0 0 1-3.059 3.686l-6 1.125A3.75 3.75 0 0 1 5.5 15.885V14A.75.75 0 0 1 7 14v1.885a2.25 2.25 0 0 0 2.665 2.212l6-1.125A2.25 2.25 0 0 0 17.5 14.76V5.24a2.25 2.25 0 0 0-1.835-2.212l-6-1.125A2.25 2.25 0 0 0 7 4.115V6.25a.75.75 0 0 1-1.5 0zm4.72 2.855a.75.75 0 0 1 1.06 0l2.5 2.5a.75.75 0 0 1 0 1.06l-2.5 2.5a.75.75 0 0 1-1.06-1.06l1.22-1.22H3c-.575 0-.94.187-1.157.405A1.2 1.2 0 0 0 1.5 12c0 .314.118.62.343.845.218.218.582.406 1.157.406a.75.75 0 0 1 0 1.5c-.925 0-1.686-.314-2.218-.846A2.7 2.7 0 0 1 0 12c0-.685.258-1.38.782-1.905C1.314 9.563 2.075 9.25 3 9.25h8.44l-1.22-1.22a.75.75 0 0 1 0-1.06"/></svg>