<svg xmlns="http://www.w3.org/2000/svg" width="12" height="12" fill="none" data-fui-icon="true" viewBox="0 0 12 12"><path fill="currentColor" d="M9.125 1.125c.966 0 1.75.784 1.75 1.75v6.25a1.75 1.75 0 0 1-1.75 1.75h-6.25a1.75 1.75 0 0 1-1.75-1.75v-6.25c0-.966.784-1.75 1.75-1.75zm-6.25 1.5a.25.25 0 0 0-.25.25v6.25c0 .138.112.25.25.25h6.25a.25.25 0 0 0 .25-.25v-6.25a.25.25 0 0 0-.25-.25zm1.297 4.209a.75.75 0 0 1 0 1.5h-.094a.75.75 0 0 1 0-1.5zm4.047 0a.75.75 0 0 1 0 1.5H6.188a.75.75 0 0 1 0-1.5zM4.172 3.667a.75.75 0 0 1 0 1.5h-.094a.75.75 0 0 1 0-1.5zm4.047 0a.75.75 0 0 1 0 1.5H6.188a.75.75 0 0 1 0-1.5z"/></svg>