<svg xmlns="http://www.w3.org/2000/svg" width="32" height="32" fill="none" data-fui-icon="true" viewBox="0 0 32 32"><path fill="currentColor" d="M21.937 1.613a7.75 7.75 0 0 1 7.712 6.979l1.327 13.273c.456 4.562-3.126 8.52-7.711 8.52H8.735c-4.585 0-8.168-3.958-7.712-8.52L2.35 8.592a7.75 7.75 0 0 1 7.712-6.979zm-11.875 1.5c-3.21 0-5.9 2.433-6.22 5.628L2.516 22.014a6.25 6.25 0 0 0 6.22 6.872h14.53a6.25 6.25 0 0 0 6.22-6.872L28.156 8.74a6.25 6.25 0 0 0-6.22-5.628zM22 8.25a.75.75 0 0 1 .75.75H22l.75.001v.028l-.002.064a8.068 8.068 0 0 1-.102.968 8.1 8.1 0 0 1-.725 2.274c-.42.839-1.06 1.701-2.036 2.351-.98.654-2.254 1.064-3.885 1.064s-2.905-.41-3.885-1.063c-.975-.65-1.617-1.513-2.036-2.352a8.1 8.1 0 0 1-.726-2.275 8 8 0 0 1-.101-.967l-.002-.064v-.028L10 9h-.75a.75.75 0 0 1 1.5-.002v.044l.01.162c.01.144.031.356.074.61.085.514.255 1.187.587 1.851.33.66.814 1.299 1.526 1.774.707.471 1.684.811 3.053.811s2.345-.34 3.053-.812c.711-.474 1.195-1.112 1.526-1.773a6.6 6.6 0 0 0 .587-1.85 7 7 0 0 0 .084-.81v-.007A.75.75 0 0 1 22 8.25"/></svg>