<svg xmlns="http://www.w3.org/2000/svg" width="16" height="16" fill="none" data-fui-icon="true" viewBox="0 0 16 16"><g clip-path="url(#a)"><path fill="currentColor" d="M8 0a8 8 0 1 1 0 16A8 8 0 0 1 8 0m0 1.5a6.5 6.5 0 1 0 0 13 6.5 6.5 0 0 0 0-13m1.75 1.25a.75.75 0 0 1 .75.75v.668A2.37 2.37 0 0 1 12 6.375c0 .63-.247 1.2-.646 1.625.4.425.646.996.646 1.625a2.37 2.37 0 0 1-1.5 2.206v.669a.75.75 0 0 1-1.5 0V12H7.5v.5a.75.75 0 0 1-1.5 0V12H4.75a.75.75 0 0 1 0-1.5H5v-5h-.25a.75.75 0 0 1 0-1.5H6v-.5a.75.75 0 0 1 1.5 0V4H9v-.5a.75.75 0 0 1 .75-.75M6.5 10.5h3.125a.875.875 0 0 0 0-1.75H6.5zm0-3.25h3.125a.875.875 0 0 0 0-1.75H6.5z"/></g><defs><clipPath id="a"><path fill="currentColor" d="M0 0h16v16H0z"/></clipPath></defs></svg>