<svg xmlns="http://www.w3.org/2000/svg" width="20" height="20" fill="none" data-fui-icon="true" viewBox="0 0 20 20"><path fill="currentColor" d="M10.076 1.25c-3.895 0-6.203 2.16-7.326 4.376V4a.75.75 0 0 0-1.5 0v3.385c0 .917.738 1.672 1.664 1.673H5a.75.75 0 0 0 0-1.5H3.597c.59-2.146 2.533-4.808 6.48-4.808 4.417 0 7.173 3.31 7.173 7.25s-2.756 7.25-7.174 7.25c-3.154 0-5.675-2.005-6.68-4.398a.75.75 0 1 0-1.382.582c1.218 2.9 4.253 5.316 8.062 5.316 5.335 0 8.674-4.074 8.674-8.75s-3.34-8.75-8.674-8.75m-.08 2.72a.75.75 0 0 0-.75.75v.422c-1.752.286-2.731 1.564-2.731 2.785 0 .505.11.954.34 1.339.23.382.549.653.89.85.453.26.995.41 1.501.52v2.736a1.84 1.84 0 0 1-.785-.407 1.8 1.8 0 0 1-.495-.775.75.75 0 0 0-1.432.447c.114.363.371.947.923 1.443.435.391 1.022.7 1.79.822v.378a.75.75 0 0 0 1.5 0v-.38c1.752-.286 2.73-1.563 2.73-2.784 0-.505-.11-.954-.34-1.339a2.4 2.4 0 0 0-.889-.85c-.453-.26-.995-.411-1.502-.52V6.664c.94.228 1.206.862 1.247 1.063a.75.75 0 1 0 1.47-.3c-.158-.776-.922-2.016-2.717-2.29V4.72a.75.75 0 0 0-.75-.75m.75 6.98c.3.076.55.16.754.277.171.1.28.205.35.32.068.115.127.289.127.57 0 .35-.302 1.017-1.23 1.256zm-1.5-1.856a3 3 0 0 1-.754-.28.9.9 0 0 1-.35-.319c-.068-.114-.127-.288-.127-.568 0-.35.302-1.02 1.231-1.258z"/></svg>