<svg xmlns="http://www.w3.org/2000/svg" width="16" height="16" fill="none" data-fui-icon="true" viewBox="0 0 16 16"><path fill="currentColor" d="M5.294 0c.499 0 .886.285 1.102.629l.082.15.056.112c.3.542.852.89 1.466.89.655 0 1.24-.396 1.522-1.002l.082-.15A1.3 1.3 0 0 1 10.706 0h2.044c.966 0 1.75.784 1.75 1.75v12.5A1.75 1.75 0 0 1 12.75 16h-2.044c-.57 0-.994-.373-1.184-.78-.283-.605-.867-1-1.522-1s-1.24.395-1.522 1c-.19.407-.614.78-1.184.78H3.25a1.75 1.75 0 0 1-1.75-1.75V1.75C1.5.784 2.284 0 3.25 0zM3.25 1.5a.25.25 0 0 0-.25.25v12.5c0 .138.112.25.25.25h1.912c.526-1.046 1.59-1.78 2.838-1.78s2.312.734 2.838 1.78h1.912a.25.25 0 0 0 .25-.25V1.75a.25.25 0 0 0-.25-.25h-1.912C10.312 2.546 9.248 3.28 8 3.28S5.688 2.546 5.162 1.5zm6.845 3.345a.75.75 0 1 1 1.06 1.06l-5.25 5.25a.75.75 0 1 1-1.06-1.06zM10 9a1 1 0 1 1 0 2 1 1 0 0 1 0-2M6 5a1 1 0 1 1 0 2 1 1 0 0 1 0-2"/></svg>