<svg xmlns="http://www.w3.org/2000/svg" width="16" height="16" fill="none" data-fui-icon="true" viewBox="0 0 16 16"><path fill="currentColor" d="M12.452 4.925c.604 0 1.22.45 1.548.9h-.006L9.27 10.55c-.7.7-1.845.7-2.544 0l-.453-.452 4.273-4.273.164-.162c.411-.392.955-.738 1.743-.738m-4.278 0c.604 0 1.22.45 1.548.9l-3.86 3.861-1.725-1.725L6.27 5.825c.007-.01.16-.162.16-.162.411-.392.954-.738 1.743-.738m-4.266 0c.604 0 1.22.45 1.547.9L3.728 7.552 2 5.825c.001-.008.164-.162.164-.162.411-.392.956-.738 1.744-.738"/></svg>