<svg xmlns="http://www.w3.org/2000/svg" width="24" height="24" fill="none" data-fui-icon="true" viewBox="0 0 24 24"><path fill="currentColor" d="M12 1c.637 0 1.262.178 1.805.513l6.75 4.17A3.05 3.05 0 0 1 22 8.275v7.45a3.05 3.05 0 0 1-1.445 2.592l-6.75 4.17a3.43 3.43 0 0 1-3.61 0l-6.75-4.17A3.05 3.05 0 0 1 2 15.725v-7.45c0-1.056.547-2.037 1.445-2.592l6.75-4.17A3.43 3.43 0 0 1 12 1m0 1.5c-.359 0-.711.1-1.017.29L4.234 6.958c-.456.282-.734.78-.734 1.316v7.45c0 .536.278 1.034.734 1.316l6.75 4.17a1.94 1.94 0 0 0 2.033 0l6.749-4.17c.456-.282.734-.78.734-1.316v-7.45c0-.536-.278-1.034-.734-1.316l-6.75-4.17A1.94 1.94 0 0 0 12 2.5M5.953 8.488a.75.75 0 0 1 1.017-.301l5.026 2.718 5.028-2.718a.75.75 0 1 1 .714 1.318l-4.995 2.703v5.922a.75.75 0 0 1-1.5 0v-5.926l-4.987-2.7a.75.75 0 0 1-.303-1.016"/></svg>