<svg xmlns="http://www.w3.org/2000/svg" width="12" height="12" fill="none" data-fui-icon="true" viewBox="0 0 12 12"><path fill="currentColor" d="M8.719 1.067c.63 0 1.275.114 1.836.36.559.245 1.084.648 1.372 1.252.048.1.073.21.073.322v7.249a.751.751 0 0 1-1.195.604l-.085-.073-.086-.08c-.452-.388-1.241-.639-2.103-.639-.936 0-1.653.293-1.945.657l-.057.063a.75.75 0 0 1-1.115-.063c-.292-.364-1.01-.656-1.945-.656-.919 0-1.756.285-2.189.718l-.085.073A.751.751 0 0 1 0 10.25V3.001c0-.111.026-.222.073-.322.288-.604.813-1.007 1.372-1.252.561-.246 1.206-.36 1.836-.36.913 0 1.96.246 2.719.84.76-.594 1.806-.84 2.719-.84M3.28 2.568c-.463 0-.897.085-1.234.233-.266.116-.441.258-.547.402v5.711a5.6 5.6 0 0 1 1.969-.351c.586 0 1.213.091 1.781.302V3.252c-.362-.397-1.096-.684-1.969-.684m5.438 0c-.873 0-1.607.287-1.969.684v5.613a5.2 5.2 0 0 1 1.781-.303c.647 0 1.34.11 1.969.352v-5.71c-.106-.145-.281-.287-.547-.403-.337-.148-.77-.233-1.234-.233"/></svg>