<svg xmlns="http://www.w3.org/2000/svg" width="16" height="16" fill="none" data-fui-icon="true" viewBox="0 0 16 16"><path fill="currentColor" d="M11.573 1a3.3 3.3 0 0 1 2.326.963l.138.139a3.29 3.29 0 0 1-.035 4.684l-7.73 7.502a.75.75 0 0 1-.43.206l-4 .5a.75.75 0 0 1-.836-.837l.5-4 .024-.119a.75.75 0 0 1 .182-.31l5.905-6.085a.8.8 0 0 1 .117-.159.8.8 0 0 1 .142-.108l1.338-1.378A3.3 3.3 0 0 1 11.574 1m-8.61 9.592-.35 2.794 2.794-.35 5.49-5.328-2.606-2.606zm8.61-8.092a1.8 1.8 0 0 0-1.283.543l-.954.981 2.638 2.64.983-.954a1.79 1.79 0 0 0 .02-2.548l-.139-.139a1.8 1.8 0 0 0-1.265-.523"/></svg>