<svg xmlns="http://www.w3.org/2000/svg" width="32" height="32" fill="none" data-fui-icon="true" viewBox="0 0 32 32"><path fill="currentColor" d="M18.276 4.803a.75.75 0 0 1 1.447.394l-6 22a.75.75 0 1 1-1.447-.395zm5.542 4.984a.75.75 0 0 1 1.06.032l3.614 3.839a3.417 3.417 0 0 1 0 4.684L24.88 22.18a.75.75 0 0 1-1.092-1.029l3.612-3.839a1.916 1.916 0 0 0 0-2.627l-3.612-3.839a.75.75 0 0 1 .031-1.06M7.12 9.819a.75.75 0 0 1 1.092 1.028l-3.613 3.84a1.92 1.92 0 0 0 0 2.626l3.613 3.84A.75.75 0 0 1 7.12 22.18l-3.613-3.838a3.42 3.42 0 0 1 0-4.684z"/></svg>