<svg xmlns="http://www.w3.org/2000/svg" width="20" height="20" fill="none" data-fui-icon="true" viewBox="0 0 20 20"><g clip-path="url(#a)"><path fill="currentColor" d="M10 16a.75.75 0 0 1 .75.75v2a.75.75 0 0 1-1.5 0v-2A.75.75 0 0 1 10 16m-5.304-1.758a.751.751 0 0 1 1.062 1.062l-1.415 1.414a.75.75 0 0 1-1.06-1.06zm9.547 0a.75.75 0 0 1 1.06 0l1.415 1.415a.75.75 0 0 1-1.06 1.06l-1.415-1.413a.75.75 0 0 1 0-1.062M10 5.467a4.534 4.534 0 1 1 0 9.068 4.534 4.534 0 0 1 0-9.068m0 1.5a3.034 3.034 0 1 0 0 6.067 3.034 3.034 0 0 0 0-6.067M3.25 9.25a.75.75 0 0 1 0 1.5h-2a.75.75 0 0 1 0-1.5zm15.5 0a.75.75 0 0 1 0 1.5h-2a.75.75 0 0 1 0-1.5zm-3.093-5.968a.75.75 0 0 1 1.06 1.06l-1.413 1.416a.75.75 0 0 1-1.06-1.062zm-12.375 0a.75.75 0 0 1 1.06 0l1.416 1.414a.751.751 0 0 1-1.062 1.062L3.282 4.343a.75.75 0 0 1 0-1.06M10 .5a.75.75 0 0 1 .75.75v2a.75.75 0 0 1-1.5 0v-2A.75.75 0 0 1 10 .5"/></g><defs><clipPath id="a"><path fill="currentColor" d="M0 0h20v20H0z"/></clipPath></defs></svg>