<svg xmlns="http://www.w3.org/2000/svg" width="16" height="16" fill="none" data-fui-icon="true" viewBox="0 0 16 16"><path fill="currentColor" d="M10.833 1.083a.75.75 0 0 1 .75.75v.583h.584c1.15 0 2.083.934 2.083 2.084v7.666c0 1.15-.932 2.084-2.083 2.084H3.833a2.084 2.084 0 0 1-2.083-2.084V4.5c0-1.15.933-2.084 2.083-2.084h.584v-.583a.75.75 0 0 1 1.5 0v.583h4.166v-.583a.75.75 0 0 1 .75-.75m-7 2.833a.584.584 0 0 0-.583.584v7.666c0 .322.261.584.583.584h8.334a.584.584 0 0 0 .583-.584V4.5a.584.584 0 0 0-.583-.584zm5.305 2.22a.75.75 0 0 1 1.06 1.06L9.061 8.334l1.136 1.137a.75.75 0 0 1-1.061 1.06L7.999 9.395 6.863 10.53a.75.75 0 0 1-1.06-1.06l1.135-1.137-1.136-1.138a.75.75 0 0 1 1.06-1.06L8 7.273z"/></svg>