<svg xmlns="http://www.w3.org/2000/svg" width="12" height="12" fill="none" data-fui-icon="true" viewBox="0 0 12 12"><path fill="currentColor" d="M1.25 1a.75.75 0 0 1 .75.75v7.188c0 .31.252.562.563.562h8.687a.75.75 0 0 1 0 1.5H2.563A2.06 2.06 0 0 1 .5 8.938V1.75A.75.75 0 0 1 1.25 1m9 1a.75.75 0 0 1 .75.75v2a.75.75 0 0 1-1.28.53l-.47-.47-1.657 1.658a.75.75 0 0 1-1.06 0L5.374 5.31 3.968 6.718a.75.75 0 1 1-1.06-1.06L4.844 3.72l.056-.052a.75.75 0 0 1 1.004.052l1.157 1.157L8.19 3.75l-.47-.47A.75.75 0 0 1 8.25 2z"/></svg>