<svg xmlns="http://www.w3.org/2000/svg" width="24" height="24" fill="none" data-fui-icon="true" viewBox="0 0 24 24"><path fill="currentColor" d="M12 1c6.075 0 11 4.925 11 11s-4.925 11-11 11S1 18.075 1 12 5.925 1 12 1m0 1.5a9.5 9.5 0 1 0 0 19 9.5 9.5 0 0 0 0-19M14 5a.75.75 0 0 1 .75.75v.813a3.126 3.126 0 0 1 2.496 3.062c0 .952-.428 1.802-1.098 2.375a3.12 3.12 0 0 1 1.098 2.375c0 1.51-1.072 2.77-2.496 3.061v.814a.75.75 0 0 1-1.5 0v-.75h-2.5v.75a.75.75 0 0 1-1.5 0v-.75H7.504a.75.75 0 0 1 0-1.5h.775l-.025-8h-.75a.75.75 0 0 1 0-1.5H9.25v-.75a.75.75 0 0 1 1.5 0v.75h2.5v-.75A.75.75 0 0 1 14 5M9.78 16h4.341a1.625 1.625 0 0 0 0-3.25H9.77zm-.015-4.75h4.356l.166-.009A1.625 1.625 0 0 0 14.121 8H9.754z"/></svg>