<svg xmlns="http://www.w3.org/2000/svg" width="24" height="24" fill="none" data-fui-icon="true" viewBox="0 0 24 24"><path fill="currentColor" d="M1.22 1.22a.75.75 0 0 1 1.06 0l20.5 20.5a.75.75 0 0 1-1.06 1.06l-4.932-4.932a.3.3 0 0 0-.497.118l-.56 1.682c-.693 2.08-3.334 2.703-4.884 1.153L7.74 17.697a.3.3 0 0 0-.424 0L3.994 21.02a.75.75 0 0 1-1.06-1.061l3.323-3.323a.3.3 0 0 0 0-.424l-3.105-3.105c-1.55-1.55-.927-4.19 1.154-4.884l1.681-.562a.3.3 0 0 0 .117-.496L1.22 2.28a.75.75 0 0 1 0-1.06m3.56 8.426a1.45 1.45 0 0 0-.567 2.4l7.694 7.694a1.45 1.45 0 0 0 2.4-.566l.893-2.679a.3.3 0 0 0-.072-.307L7.765 8.825a.3.3 0 0 0-.307-.072zm7.911-6.869a2.95 2.95 0 0 1 4.172 0l4.314 4.313a2.95 2.95 0 0 1 0 4.172l-3.165 3.165a.3.3 0 0 1-.424 0l-.637-.637a.3.3 0 0 1 0-.424l3.165-3.165a1.45 1.45 0 0 0 0-2.05l-4.313-4.313a1.45 1.45 0 0 0-2.051 0l-3.165 3.164a.3.3 0 0 1-.424 0l-.636-.637a.3.3 0 0 1 0-.424z"/></svg>