<svg xmlns="http://www.w3.org/2000/svg" width="24" height="24" fill="none" data-fui-icon="true" viewBox="0 0 24 24"><path fill="currentColor" d="M4.741.031c1.767 0 3.062 1.427 3.368 2.991.296 1.513.842 2.741 1.315 3.59.193.348.373.631.517.842A8.4 8.4 0 0 1 12 7.2c.71 0 1.4.088 2.057.254.144-.21.325-.494.519-.842a12.3 12.3 0 0 0 1.314-3.59c.307-1.564 1.602-2.99 3.369-2.99h2.04c1.363 0 2.657 1.144 2.38 2.675-.505 2.782-2.031 4.822-3.403 6.152a14 14 0 0 1-1.757 1.444 8.4 8.4 0 1 1-13.04 0c-.477-.33-1.102-.81-1.755-1.444C2.352 7.53.826 5.49.32 2.707.044 1.176 1.337.031 2.701.031zM12 8.701a6.9 6.9 0 1 0 0 13.8 6.9 6.9 0 0 0 0-13.8m2.47 4.569a.75.75 0 0 1 1.06 1.06l-4.2 4.2a.75.75 0 0 1-1.06 0l-1.8-1.8a.75.75 0 0 1 1.06-1.06l1.27 1.27zM2.7 1.53c-.625 0-.98.483-.903.908.43 2.377 1.74 4.15 2.971 5.343a12.3 12.3 0 0 0 1.778 1.43 8.4 8.4 0 0 1 1.94-1.243A13.802 13.802 0 0 1 6.637 3.31C6.435 2.274 5.625 1.53 4.74 1.53zm16.559 0c-.884 0-1.694.743-1.897 1.78a13.8 13.8 0 0 1-1.847 4.658 8.4 8.4 0 0 1 1.939 1.243l.147-.099c.431-.293 1.017-.736 1.63-1.33 1.231-1.194 2.541-2.967 2.972-5.344.077-.425-.278-.908-.903-.908z"/></svg>