<svg xmlns="http://www.w3.org/2000/svg" width="16" height="16" fill="none" data-fui-icon="true" viewBox="0 0 16 16"><path fill="currentColor" d="M12.432 10.25c.143 0 .268.1.286.243q.03.245.031.506c0 1.792-1.675 3.75-4.749 3.75-1.594 0-2.716-.501-3.479-1.173a4.35 4.35 0 0 1-1.257-1.922.751.751 0 0 1 1.43-.456c.101.316.334.826.818 1.252.471.415 1.233.8 2.488.8 2.408-.001 3.25-1.44 3.25-2.25q-.001-.178-.02-.326c-.028-.21.122-.425.333-.425zM8 1.25c3.229 0 4.499 1.969 4.734 3.097a.75.75 0 0 1-1.47.305C11.166 4.174 10.474 2.75 8 2.75 5.593 2.75 4.75 4.19 4.75 5c0 .447.098.752.233.973.137.224.344.413.635.576.601.338 1.432.508 2.427.695a.3.3 0 0 0 .056.006h7.149a.75.75 0 0 1 0 1.5H.75a.75.75 0 1 1 0-1.5h2.71c.235 0 .366-.294.244-.494Q3.25 6.016 3.25 5c0-1.793 1.678-3.75 4.75-3.75"/></svg>