<svg xmlns="http://www.w3.org/2000/svg" width="12" height="12" fill="none" data-fui-icon="true" viewBox="0 0 12 12"><path fill="currentColor" fill-rule="evenodd" d="M9.125.25a2.625 2.625 0 0 0-2.59 3.058l-1.828.812a2.625 2.625 0 1 0-.188 3.926l1.988.884q-.007.097-.007.195a2.625 2.625 0 1 0 .543-1.599L5.38 6.787a2.6 2.6 0 0 0 .06-1.35l1.756-.781A2.625 2.625 0 1 0 9.125.25M8 2.875a1.125 1.125 0 1 1 2.25 0 1.125 1.125 0 0 1-2.25 0M1.75 6A1.125 1.125 0 1 1 4 6a1.125 1.125 0 0 1-2.25 0m7.375 2a1.125 1.125 0 1 0 0 2.25 1.125 1.125 0 0 0 0-2.25" clip-rule="evenodd"/></svg>