<svg xmlns="http://www.w3.org/2000/svg" width="12" height="12" fill="none" data-fui-icon="true" viewBox="0 0 12 12"><g clip-path="url(#a)"><path fill="currentColor" d="M4.166.786a.75.75 0 0 1 .972.611l.001.008.002.008q.006.028.024.09c.024.082.064.187.128.286.108.17.29.348.707.348s.598-.178.707-.348a1.1 1.1 0 0 0 .151-.376l.002-.008h-.001l.002-.008A.75.75 0 0 1 7.917.818l3.443 1.583a1.1 1.1 0 0 1 .524 1.49l-.788 1.58a1.1 1.1 0 0 1-1.138.596v3.808c0 .621-.504 1.125-1.125 1.125H3.167a1.126 1.126 0 0 1-1.125-1.125V6.067a1.1 1.1 0 0 1-1.139-.596L.115 3.89a1.1 1.1 0 0 1 .524-1.49L4.083.818z"/></g><defs><clipPath id="a"><path fill="currentColor" d="M0 0h12v12H0z"/></clipPath></defs></svg>