<svg xmlns="http://www.w3.org/2000/svg" width="20" height="20" fill="none" data-fui-icon="true" viewBox="0 0 20 20"><path fill="currentColor" d="M10 15a.75.75 0 0 0 .75-.75v-3.5h3.5a.75.75 0 0 0 0-1.5h-3.5v-3.5a.75.75 0 0 0-1.5 0v3.5h-3.5a.75.75 0 0 0 0 1.5h3.5v3.5c0 .414.336.75.75.75"/><path fill="currentColor" fill-rule="evenodd" d="M1 5.75A4.75 4.75 0 0 1 5.75 1h8.5A4.75 4.75 0 0 1 19 5.75v8.5A4.75 4.75 0 0 1 14.25 19h-8.5A4.75 4.75 0 0 1 1 14.25zM5.75 2.5A3.25 3.25 0 0 0 2.5 5.75v8.5a3.25 3.25 0 0 0 3.25 3.25h8.5a3.25 3.25 0 0 0 3.25-3.25v-8.5a3.25 3.25 0 0 0-3.25-3.25z" clip-rule="evenodd"/></svg>