<svg xmlns="http://www.w3.org/2000/svg" width="32" height="32" fill="none" data-fui-icon="true" viewBox="0 0 32 32"><path fill="currentColor" d="M25.966 21.055a2.784 2.784 0 0 1 2.784 2.784c0 2.69-2.188 4.692-4.817 4.692H8.067c-2.63 0-4.817-2.001-4.817-4.692a2.785 2.785 0 0 1 2.784-2.784zm-19.932 1.5c-.709 0-1.284.575-1.284 1.284 0 1.802 1.454 3.192 3.317 3.192h15.866c1.863 0 3.317-1.39 3.317-3.192 0-.71-.575-1.284-1.284-1.284zm15.494-5.882c1.265-1.897 4.052-1.897 5.317 0 .32.48.876.744 1.42.755a.75.75 0 1 1-.03 1.499c-.972-.02-2.012-.483-2.638-1.422a1.695 1.695 0 0 0-2.82 0c-1.265 1.896-4.052 1.896-5.316 0a1.695 1.695 0 0 0-2.82 0c-1.265 1.896-4.052 1.896-5.316 0a1.695 1.695 0 0 0-2.82 0c-.654.98-1.755 1.443-2.77 1.422a.75.75 0 1 1 .03-1.5c.568.012 1.157-.252 1.492-.754 1.264-1.897 4.052-1.896 5.316 0a1.694 1.694 0 0 0 2.82 0c1.264-1.897 4.051-1.896 5.316 0a1.694 1.694 0 0 0 2.82 0m.37-13.61a6.85 6.85 0 0 1 6.852 6.851c0 .753-.3 1.504-.769 2.068-.469.566-1.173 1.018-2.015 1.018H6.034c-.842 0-1.547-.452-2.016-1.018-.468-.564-.768-1.315-.768-2.068A6.85 6.85 0 0 1 10.1 3.063zm-11.797 1.5A5.35 5.35 0 0 0 4.75 9.914c0 .37.155.788.423 1.11.267.322.58.476.861.476h19.932c.28 0 .594-.154.861-.476s.423-.74.423-1.11a5.35 5.35 0 0 0-5.352-5.351z"/></svg>