<svg xmlns="http://www.w3.org/2000/svg" width="32" height="32" fill="none" data-fui-icon="true" viewBox="0 0 32 32"><path fill="currentColor" d="M16.001 16.917c4.852 0 8.553 2.897 10.06 6.974.375 1.012.122 2.005-.478 2.72-.59.701-1.51 1.139-2.51 1.139H8.93c-1.002 0-1.922-.437-2.511-1.14-.6-.714-.853-1.707-.479-2.72 1.508-4.076 5.208-6.973 10.06-6.973m0 1.5c-4.19 0-7.35 2.475-8.652 5.994-.17.461-.067.894.22 1.235.296.354.792.604 1.362.604h14.141c.57 0 1.066-.25 1.363-.604.286-.341.39-.774.22-1.235-1.302-3.52-4.463-5.994-8.654-5.994m.001-15.5a5.75 5.75 0 1 1 0 11.5 5.75 5.75 0 0 1 0-11.5m0 1.5a4.25 4.25 0 1 0 0 8.5 4.25 4.25 0 0 0 0-8.5"/></svg>