<svg xmlns="http://www.w3.org/2000/svg" width="20" height="20" fill="none" data-fui-icon="true" viewBox="0 0 20 20"><g clip-path="url(#a)"><path fill="currentColor" d="M16.17.25a3.58 3.58 0 0 1 3.58 3.58v12.34a3.58 3.58 0 0 1-3.58 3.58H3.83a3.58 3.58 0 0 1-3.58-3.58V3.83A3.58 3.58 0 0 1 3.83.25zM1.75 16.17a2.08 2.08 0 0 0 2.08 2.08h12.34a2.08 2.08 0 0 0 2.08-2.08v-3.62h-4.437c-.367 1.723-1.97 3-3.813 3s-3.446-1.277-3.813-3H1.75zM3.83 1.75a2.08 2.08 0 0 0-2.08 2.08v7.22h5.107a.75.75 0 0 1 .75.75c0 1.196 1.053 2.25 2.393 2.25s2.393-1.054 2.393-2.25a.75.75 0 0 1 .75-.75h5.107V3.83a2.08 2.08 0 0 0-2.08-2.08z"/></g><defs><clipPath id="a"><path fill="currentColor" d="M0 0h20v20H0z"/></clipPath></defs></svg>