<svg xmlns="http://www.w3.org/2000/svg" width="20" height="20" fill="none" data-fui-icon="true" viewBox="0 0 20 20"><path fill="currentColor" d="M10 2.375c2.23 0 2.518.01 3.408.05.614.008 1.22.122 1.796.335l.001-.001c.463.17.882.441 1.228.793l.13.135c.296.32.527.697.678 1.108.21.57.324 1.173.334 1.782l.026.6c.02.564.024 1.141.024 2.823 0 2.242-.009 2.521-.05 3.423a5.4 5.4 0 0 1-.335 1.783l-.003.01a3.53 3.53 0 0 1-2.021 2.021l-.01.003a5.4 5.4 0 0 1-1.798.335c-.89.04-1.178.05-3.408.05s-2.518-.01-3.41-.05a5.4 5.4 0 0 1-1.796-.335v.001a3.35 3.35 0 0 1-1.227-.794 3.35 3.35 0 0 1-.808-1.242 5.4 5.4 0 0 1-.334-1.782c-.041-.902-.05-1.18-.05-3.423 0-2.242.009-2.521.05-3.423a5.4 5.4 0 0 1 .335-1.782h-.001c.173-.47.45-.895.808-1.243a3.35 3.35 0 0 1 1.228-.793 5.4 5.4 0 0 1 1.796-.334c.89-.04 1.178-.05 3.409-.05m0 1.5c-2.236 0-2.488.008-3.354.048H6.62a3.9 3.9 0 0 0-1.305.243 1.85 1.85 0 0 0-.703.462 1.85 1.85 0 0 0-.446.686v.001a3.9 3.9 0 0 0-.242 1.305l-.001.026c-.04.866-.048 1.118-.048 3.354s.008 2.488.048 3.355v.025c.006.445.088.887.243 1.305q.11.294.307.535l.14.152.015.016c.192.198.427.35.685.446h.001c.419.155.86.237 1.306.242l.026.001c.866.04 1.118.048 3.354.048s2.488-.008 3.355-.048h.025a3.9 3.9 0 0 0 1.305-.243 2.03 2.03 0 0 0 1.149-1.15c.155-.418.237-.859.242-1.304l.001-.026c.04-.866.048-1.118.048-3.354s-.008-2.488-.048-3.354V6.62a3.9 3.9 0 0 0-.243-1.305l-.083-.19a1.9 1.9 0 0 0-.379-.513 1.85 1.85 0 0 0-.687-.446 3.9 3.9 0 0 0-1.305-.242l-.026-.001c-.866-.04-1.118-.048-3.354-.048m-.744 2.386a3.814 3.814 0 1 1 1.488 7.48 3.814 3.814 0 0 1-1.488-7.48m1.629 1.602a2.312 2.312 0 1 0-1.768 4.274 2.312 2.312 0 0 0 1.768-4.274m3.34-3.039a1.017 1.017 0 0 1 1.016 1.015 1.014 1.014 0 0 1-1.733.718 1.015 1.015 0 0 1 .718-1.733"/></svg>