<svg xmlns="http://www.w3.org/2000/svg" width="12" height="12" fill="none" data-fui-icon="true" viewBox="0 0 12 12"><g clip-path="url(#a)"><path fill="currentColor" d="M.782.97a.75.75 0 0 1 1.06 0l1.335 1.334q.012.011.026.02L4.57 3.69l.02.027 2.447 2.446.027.022 1.3 1.298q.005.01.012.019l.563.562q.015.015.03.026l1.288 1.287q.005.01.013.019l.949.949a.75.75 0 0 1-1.06 1.06l-1.071-1.07a.19.19 0 0 0-.232-.03 5.2 5.2 0 0 1-1.935.651.193.193 0 0 0-.17.19v.104a.75.75 0 0 1-1.5 0v-.104a.193.193 0 0 0-.17-.19A5.25 5.25 0 0 1 .5 5.75a.75.75 0 0 1 1.5 0A3.75 3.75 0 0 0 5.75 9.5h.5c.49 0 .959-.095 1.388-.267.12-.048.146-.201.054-.293l-.626-.626a.2.2 0 0 0-.194-.046A3 3 0 0 1 6 8.4a3 3 0 0 1-2.996-2.845L3 5.4V4.326c0-.05-.02-.097-.055-.133L.782 2.03a.75.75 0 0 1 0-1.06M10.75 5a.75.75 0 0 1 .75.75c0 .804-.182 1.565-.505 2.245l-1.16-1.16A3.7 3.7 0 0 0 10 5.75a.75.75 0 0 1 .75-.75M6 .9a3 3 0 0 1 3 3v1.5q-.002.281-.053.547L7.5 4.5v-.6a1.5 1.5 0 0 0-2.01-1.41L4.376 1.376A3 3 0 0 1 6 .9"/></g><defs><clipPath id="a"><path fill="currentColor" d="M0 0h12v12H0z"/></clipPath></defs></svg>