<svg xmlns="http://www.w3.org/2000/svg" width="16" height="16" fill="none" data-fui-icon="true" viewBox="0 0 16 16"><path fill="currentColor" d="M9.56 15.847a8 8 0 0 1-3.122 0l.291-1.471a6.55 6.55 0 0 0 2.542 0zM2.595 11.61a6.55 6.55 0 0 0 1.796 1.796l-.835 1.245a8 8 0 0 1-2.207-2.207zm11.434.417h.001l.504.338.118.08a8 8 0 0 1-2.207 2.206l-.834-1.245a6.55 6.55 0 0 0 1.796-1.796zM1.624 6.73a6.5 6.5 0 0 0 0 2.542l-1.472.29a8 8 0 0 1 0-3.123zm14.223-.29a8 8 0 0 1 0 3.122l-1.471-.29a6.55 6.55 0 0 0 0-2.542zM3.973 1.97h-.001l.418.623A6.55 6.55 0 0 0 2.594 4.39l-.623-.418-.623-.417a8 8 0 0 1 2.207-2.207zm8.471-.623a8 8 0 0 1 2.207 2.207l-.622.418v-.001l-.623.418a6.55 6.55 0 0 0-1.796-1.796zM8 0q.803.002 1.56.152l-.29 1.472a6.5 6.5 0 0 0-2.54 0L6.437.152A8 8 0 0 1 8 0"/></svg>