<svg xmlns="http://www.w3.org/2000/svg" width="16" height="16" fill="none" data-fui-icon="true" viewBox="0 0 16 16"><path fill="currentColor" d="M6.502 2.03a1.75 1.75 0 0 1 2.996 0l6.228 10.316C16.43 13.512 15.59 15 14.228 15H1.771C.41 15-.43 13.512.273 12.346zM1.557 13.122a.25.25 0 0 0 .214.38h12.457a.25.25 0 0 0 .214-.38l-1.494-2.473C12.101 11.612 10.457 13 8 13s-4.103-1.39-4.95-2.353zm8.943-5.12a2.5 2.5 0 1 1-4.989-.245A6.1 6.1 0 0 0 3.9 9.316c.55.729 1.925 2.184 4.1 2.184 2.176 0 3.55-1.455 4.1-2.183a6.1 6.1 0 0 0-1.612-1.56q.012.12.013.243M8 7a1 1 0 1 0 0 2 1 1 0 0 0 0-2m.214-4.195a.25.25 0 0 0-.428 0L5.937 5.867A5.9 5.9 0 0 1 8 5.5l.304.007c.645.032 1.23.165 1.757.36z"/></svg>