<svg xmlns="http://www.w3.org/2000/svg" width="32" height="32" fill="none" data-fui-icon="true" viewBox="0 0 32 32"><path fill="currentColor" d="M16 1c8.302 0 15.032 6.73 15.032 15.032 0 1.272-.157 2.508-.455 3.689-.486 1.927-2.326 2.988-4.15 2.988h-6.15a3.25 3.25 0 0 0-3.084 2.223l-.971 2.914c-.612 1.836-2.498 3.2-4.536 2.59C5.489 28.583.969 22.837.969 16.032.968 7.73 7.698 1 16 1m0 1.5C8.526 2.5 2.468 8.559 2.468 16.032c0 6.123 4.067 11.298 9.648 12.967 1.085.324 2.264-.372 2.683-1.628l.972-2.914a4.75 4.75 0 0 1 4.505-3.248h6.152c1.308 0 2.414-.747 2.694-1.855.268-1.062.41-2.175.41-3.322C29.532 8.56 23.474 2.5 16 2.5m-7.5 16a1.5 1.5 0 1 1 0 3 1.5 1.5 0 0 1 0-3m0-8a1.5 1.5 0 1 1 0 3 1.5 1.5 0 0 1 0-3m15 0a1.5 1.5 0 1 1 0 3 1.5 1.5 0 0 1 0-3M16 6a1.5 1.5 0 1 1 0 3 1.5 1.5 0 0 1 0-3"/></svg>