<svg xmlns="http://www.w3.org/2000/svg" width="24" height="24" fill="none" data-fui-icon="true" viewBox="0 0 24 24"><path fill="currentColor" d="M11.25 2a.75.75 0 0 1 0 1.5h-6.8A1.95 1.95 0 0 0 2.5 5.45v13.1a1.95 1.95 0 0 0 1.95 1.95h13.1a1.95 1.95 0 0 0 1.95-1.95v-4.8a.75.75 0 0 1 1.5 0v4.8A3.45 3.45 0 0 1 17.55 22H4.45A3.45 3.45 0 0 1 1 18.55V5.45A3.45 3.45 0 0 1 4.45 2zm6.25-1a.75.75 0 0 1 .75.75c0 .892.49 1.9 1.295 2.705S21.358 5.75 22.25 5.75a.75.75 0 0 1 0 1.5c-.848 0-1.85.569-2.687 1.464a6 6 0 0 0-.973 1.373c-.236.468-.34.872-.34 1.163a.75.75 0 0 1-1.5 0c0-.262-.115-.649-.39-1.125a7 7 0 0 0-1.092-1.393 7 7 0 0 0-1.393-1.092c-.476-.275-.863-.39-1.125-.39a.75.75 0 0 1 0-1.5c.291 0 .695-.104 1.163-.34.46-.23.94-.567 1.373-.973.895-.836 1.464-1.84 1.464-2.687A.75.75 0 0 1 17.5 1m-.048 3.177a7.3 7.3 0 0 1-1.142 1.356c-.419.392-.881.737-1.353 1.014.48.315.949.703 1.371 1.125s.81.89 1.124 1.37a7.7 7.7 0 0 1 1.015-1.353 7.3 7.3 0 0 1 1.355-1.142 6.5 6.5 0 0 1-1.338-1.031 6.5 6.5 0 0 1-1.032-1.34"/></svg>