<svg xmlns="http://www.w3.org/2000/svg" width="20" height="20" fill="none" data-fui-icon="true" viewBox="0 0 20 20"><path fill="currentColor" d="M19.375 4.276a7.8 7.8 0 0 1-2.209.596 3.8 3.8 0 0 0 1.691-2.096 7.8 7.8 0 0 1-2.442.919A3.87 3.87 0 0 0 13.607 2.5c-2.124 0-3.846 1.696-3.846 3.788q0 .444.099.861a10.98 10.98 0 0 1-7.93-3.956 3.74 3.74 0 0 0-.52 1.903c0 1.314.68 2.474 1.711 3.152a3.9 3.9 0 0 1-1.742-.474v.05c0 1.834 1.325 3.364 3.086 3.712a3.9 3.9 0 0 1-1.738.065 3.84 3.84 0 0 0 3.594 2.629 7.8 7.8 0 0 1-4.778 1.622q-.466 0-.918-.053A11 11 0 0 0 6.521 17.5c7.077 0 10.946-5.77 10.946-10.773q0-.245-.012-.49a7.8 7.8 0 0 0 1.918-1.959z"/></svg>