<svg xmlns="http://www.w3.org/2000/svg" width="16" height="16" fill="none" data-fui-icon="true" viewBox="0 0 16 16"><g fill="currentColor" clip-path="url(#a)"><path d="M4 5a1 1 0 1 0 0-2 1 1 0 0 0 0 2m3 0a1 1 0 1 0 0-2 1 1 0 0 0 0 2"/><path fill-rule="evenodd" d="M.3 3A2.5 2.5 0 0 1 2.8.5h10.4A2.5 2.5 0 0 1 15.7 3v10a2.5 2.5 0 0 1-2.5 2.5H2.8A2.5 2.5 0 0 1 .3 13zm2.5-1a1 1 0 0 0-1 1v3h12.4V3a1 1 0 0 0-1-1zm10.4 12a1 1 0 0 0 1-1V7.5H1.8V13a1 1 0 0 0 1 1z" clip-rule="evenodd"/></g><defs><clipPath id="a"><path fill="currentColor" d="M0 0h16v16H0z"/></clipPath></defs></svg>