<svg xmlns="http://www.w3.org/2000/svg" width="24" height="24" fill="none" data-fui-icon="true" viewBox="0 0 24 24"><path fill="currentColor" d="M5 5a1 1 0 1 1-2 0 1 1 0 0 1 2 0m3 0a1 1 0 1 1-2 0 1 1 0 0 1 2 0m2 1a1 1 0 1 0 0-2 1 1 0 0 0 0 2"/><path fill="currentColor" fill-rule="evenodd" d="M0 4a3 3 0 0 1 3-3h18a3 3 0 0 1 3 3v15.5a3 3 0 0 1-3 3H3a3 3 0 0 1-3-3zm3-1.5A1.5 1.5 0 0 0 1.5 4v3.25h21V4A1.5 1.5 0 0 0 21 2.5zM21 21a1.5 1.5 0 0 0 1.5-1.5V8.75h-21V19.5A1.5 1.5 0 0 0 3 21z" clip-rule="evenodd"/></svg>