<svg xmlns="http://www.w3.org/2000/svg" width="20" height="20" fill="none" data-fui-icon="true" viewBox="0 0 20 20"><path fill="currentColor" d="M14.925 2.5A3.075 3.075 0 0 1 18 5.575V8.25a.75.75 0 0 1-1.5 0v-.864l-5.275 3.45a4.07 4.07 0 0 1-4.45 0L1.5 7.387v6.539c0 .87.705 1.575 1.575 1.575H13.75a.75.75 0 0 1 0 1.5H3.075A3.075 3.075 0 0 1 0 13.925v-8.35A3.075 3.075 0 0 1 3.075 2.5zm.965 7.613a.75.75 0 0 1 1.06-.036l2.812 2.625.01.01.017.018q.044.045.08.097l.007.012a.74.74 0 0 1 .07.686l-.009.024a1 1 0 0 1-.061.111l-.008.012a1 1 0 0 1-.079.097l-.017.017-.01.012-2.813 2.625a.75.75 0 0 1-1.023-1.096L17.346 14H12a.75.75 0 0 1 0-1.5h5.347l-1.421-1.327a.75.75 0 0 1-.036-1.06M3.075 4C2.205 4 1.5 4.705 1.5 5.575v.019l6.096 3.988a2.57 2.57 0 0 0 2.808 0L16.5 5.594v-.019c0-.87-.705-1.575-1.575-1.575z"/></svg>