<svg xmlns="http://www.w3.org/2000/svg" width="24" height="24" fill="none" data-fui-icon="true" viewBox="0 0 24 24"><path fill="currentColor" d="M10.625 2.25A4.75 4.75 0 0 1 15.375 7a.75.75 0 0 1-1.5 0 3.25 3.25 0 0 0-3.25-3.25h-3.5a3.75 3.75 0 0 0-3.75 3.75v9a3.75 3.75 0 0 0 3.75 3.75h3.5a3.25 3.25 0 0 0 3.25-3.25.75.75 0 0 1 1.5 0 4.75 4.75 0 0 1-4.75 4.75h-3.5a5.25 5.25 0 0 1-5.25-5.25v-9c0-2.9 2.35-5.25 5.25-5.25zm7.906 5.414a.75.75 0 0 1 1.055.117l3 3.75a.75.75 0 0 1 0 .938l-3 3.75a.75.75 0 0 1-1.172-.938l2.025-2.531H10a.75.75 0 0 1 0-1.5h10.44l-2.026-2.531a.75.75 0 0 1 .117-1.055"/></svg>