<svg xmlns="http://www.w3.org/2000/svg" width="12" height="12" fill="none" data-fui-icon="true" viewBox="0 0 12 12"><path fill="currentColor" d="M8.75 1c.401 0 .692.226.853.387.174.175.31.388.414.585.165.317.304.719.344 1.079.585.283.989.88.989 1.574v4a1.75 1.75 0 0 1-1.75 1.75H2.35A1.75 1.75 0 0 1 .608 8.804L.6 8.625V3c0-.304.104-.718.24-1.045.072-.17.174-.368.314-.537.123-.148.397-.418.82-.418zM2.1 8.625l.004.05a.25.25 0 0 0 .246.2H9.6a.25.25 0 0 0 .25-.25v-4a.25.25 0 0 0-.25-.25H2.1zm6.264-3.12A1.125 1.125 0 1 1 7.131 6.74l-.006-.115.006-.115A1.125 1.125 0 0 1 8.25 5.5zm-.114.745a.375.375 0 0 0-.375.375l.007.075a.376.376 0 1 0 .443-.442zM2.225 2.536a2 2 0 0 0-.096.296l-.009.043h6.658a2 2 0 0 0-.091-.21 1 1 0 0 0-.104-.165H2.241z"/></svg>