<svg xmlns="http://www.w3.org/2000/svg" width="32" height="32" fill="none" data-fui-icon="true" viewBox="0 0 32 32"><g clip-path="url(#a)"><path fill="currentColor" d="M19.08.567a8.7 8.7 0 0 1 10.434 6.52l.967 4.19c1.988 8.61-3.38 17.201-11.99 19.189l-4.19.967-.44.09a8.7 8.7 0 0 1-9.994-6.61l-2.61-11.302A8.7 8.7 0 0 1 7.343 3.289l.434-.113zM8.115 4.638a7.2 7.2 0 0 0-5.396 8.635l2.61 11.303a7.2 7.2 0 0 0 8.634 5.396l4.19-.968-1.743-7.551a6.75 6.75 0 0 1 5.058-8.095l7.552-1.744-.968-4.19a7.2 7.2 0 0 0-8.635-5.395zm13.69 10.181a5.25 5.25 0 0 0-3.934 6.297l1.726 7.475c6.478-2.214 10.535-8.705 9.685-15.498z"/></g><defs><clipPath id="a"><path fill="currentColor" d="M0 0h32v32H0z"/></clipPath></defs></svg>