<svg xmlns="http://www.w3.org/2000/svg" width="20" height="20" fill="none" data-fui-icon="true" viewBox="0 0 20 20"><path fill="currentColor" d="M10 0c5.523 0 10 4.477 10 10s-4.477 10-10 10S0 15.523 0 10 4.477 0 10 0m0 1.5a8.5 8.5 0 1 0 0 17 8.5 8.5 0 0 0 0-17m.008 2.25a.75.75 0 0 1 .75.75v.458c1.955.263 2.797 1.539 2.973 2.362a.75.75 0 0 1-1.466.314c-.045-.208-.359-.93-1.507-1.155V9.4c.564.115 1.165.27 1.665.543.363.199.705.475.953.868q.374.599.372 1.393c0 1.294-1.09 2.602-2.99 2.877v.418a.75.75 0 0 1-1.5 0v-.415c-.848-.12-1.493-.438-1.97-.846a3.36 3.36 0 0 1-1-1.491.75.75 0 0 1 1.425-.468c.067.204.223.54.55.82.215.183.53.363.995.46v-2.916c-.565-.115-1.167-.269-1.667-.542a2.54 2.54 0 0 1-.953-.869c-.25-.397-.372-.864-.372-1.392 0-1.294 1.091-2.604 2.992-2.88V4.5a.75.75 0 0 1 .75-.75m.75 9.812c1.136-.236 1.49-.99 1.49-1.357 0-.29-.064-.47-.142-.594a1.05 1.05 0 0 0-.403-.35c-.253-.139-.57-.236-.945-.322zm-1.5-7.079c-1.137.237-1.492.992-1.492 1.358 0 .29.064.47.141.594.08.126.206.242.404.35.253.139.57.235.947.321z"/></svg>