<svg xmlns="http://www.w3.org/2000/svg" width="32" height="32" fill="none" data-fui-icon="true" viewBox="0 0 32 32"><g clip-path="url(#a)"><g clip-path="url(#b)"><path fill="currentColor" fill-rule="evenodd" d="M1.018 3.326C.71 1.476 2.264.063 3.963.063h2.359c2.208 0 3.857 1.787 4.235 3.793a17.2 17.2 0 0 0 1.784 4.993c.257.471.497.857.691 1.148.945-.259 1.94-.397 2.968-.397 1.027 0 2.023.138 2.968.397.194-.291.434-.677.69-1.148a17.2 17.2 0 0 0 1.784-4.993C21.822 1.85 23.47.063 25.678.063h2.375c1.698 0 3.253 1.414 2.944 3.263-.619 3.71-2.525 6.441-4.257 8.234-.83.86-1.627 1.51-2.233 1.955A11.16 11.16 0 0 1 27.2 20.8C27.2 26.986 22.186 32 16 32S4.8 26.986 4.8 20.8c0-2.782 1.015-5.327 2.694-7.286a17.7 17.7 0 0 1-2.228-1.955c-1.728-1.793-3.63-4.524-4.248-8.233m22.427 9.106.104-.075a16 16 0 0 0 2.112-1.84c1.592-1.647 3.302-4.114 3.857-7.438.127-.764-.512-1.517-1.465-1.517h-2.375c-1.326 0-2.485 1.104-2.762 2.572a18.7 18.7 0 0 1-1.94 5.433c-.196.358-.383.673-.552.94a11.2 11.2 0 0 1 3.02 1.925m-12.42-2.865c.195.358.382.673.55.94a11.2 11.2 0 0 0-3.019 1.925l-.102-.074a16 16 0 0 1-2.108-1.84C4.758 8.871 3.051 6.403 2.498 3.08c-.128-.765.512-1.517 1.465-1.517h2.359c1.326 0 2.484 1.103 2.762 2.57a18.7 18.7 0 0 0 1.94 5.434M16 30.5c5.357 0 9.7-4.343 9.7-9.7s-4.343-9.7-9.7-9.7-9.7 4.343-9.7 9.7 4.343 9.7 9.7 9.7" clip-rule="evenodd"/><path stroke="currentColor" stroke-linecap="round" stroke-linejoin="round" stroke-width="1.5" d="m12 21.2 2.4 2.4L20 18"/></g></g><defs><clipPath id="a"><path fill="currentColor" d="M0 0h32v32H0z"/></clipPath><clipPath id="b"><path fill="currentColor" d="M0 0h32v32H0z"/></clipPath></defs></svg>