<svg xmlns="http://www.w3.org/2000/svg" width="20" height="20" fill="none" data-fui-icon="true" viewBox="0 0 20 20"><path fill="currentColor" d="M8.133 1.575c.82-1.433 2.912-1.433 3.733 0l.078.147 1.85 3.85 4.261.56c1.793.234 2.528 2.449 1.2 3.701l-3.11 2.93.782 4.188c.334 1.794-1.564 3.142-3.145 2.29L10 17.2l-3.782 2.04c-1.581.851-3.48-.496-3.145-2.29l.78-4.188-3.11-2.93C-.583 8.581.154 6.366 1.945 6.131l4.26-.558 1.851-3.851zm2.459.797a.658.658 0 0 0-1.185 0L7.359 6.636l-.04.071a.66.66 0 0 1-.467.294l-4.714.617a.653.653 0 0 0-.365 1.124L5.22 11.99a.65.65 0 0 1 .194.593l-.865 4.642a.656.656 0 0 0 .866.735l.092-.04 4.181-2.255a.66.66 0 0 1 .625 0l4.182 2.254a.657.657 0 0 0 .969-.594l-.011-.1-.865-4.642a.65.65 0 0 1 .193-.593l3.446-3.25a.653.653 0 0 0-.366-1.123l-4.713-.617a.66.66 0 0 1-.467-.294l-.04-.07z"/></svg>