<svg xmlns="http://www.w3.org/2000/svg" width="24" height="24" fill="none" data-fui-icon="true" viewBox="0 0 24 24"><g clip-path="url(#a)"><path fill="currentColor" fill-rule="evenodd" d="M4.536.47a.75.75 0 0 0-1.265.383 6.9 6.9 0 0 0 1.887 6.232l9.08 9.081a4.4 4.4 0 0 0 .486 5.65l.645.645a4.4 4.4 0 0 0 6.213.012l.012-.012 1.936-1.937a.75.75 0 0 0 0-1.06l-5.279-5.28.438-.437a.75.75 0 0 0-1.06-1.061l-.439.438zM16.13 14.185 4.66 2.714a5.4 5.4 0 0 0 1.558 3.31l9.036 9.035zM20.73.852A.75.75 0 0 0 19.462.47l-6.262 6.262-.53.53 1.06 1.061.53-.53 5.078-5.078a5.4 5.4 0 0 1-1.557 3.31l-2.645 2.644-.53.53 1.06 1.06.531-.53 2.644-2.644A6.9 6.9 0 0 0 20.73.853M5.31 12.686a.75.75 0 0 1 1.062 0l.437.438.923-.923.53-.53 1.061 1.06-.53.53-.923.923.876.876.923-.923.53-.53 1.06 1.06-.53.531-.967.968a4.4 4.4 0 0 1-.486 5.65l-.645.645a4.4 4.4 0 0 1-6.225 0L.47 20.524a.75.75 0 0 1-.014-1.047l.014-.014 5.279-5.278-.438-.438a.75.75 0 0 1 0-1.061m2.375 3.435-.876-.876-4.748 4.749.876.876zm.53 4.634a2.9 2.9 0 0 0 .462-3.504l-4.61 4.61a2.9 2.9 0 0 0 3.503-.46zm7.57 0a2.9 2.9 0 0 1-.462-3.504l4.61 4.61a2.9 2.9 0 0 1-3.503-.46zm5.279.115.875-.876-4.748-4.749-.876.876z" clip-rule="evenodd"/></g><defs><clipPath id="a"><path fill="currentColor" d="M0 0h24v24H0z"/></clipPath></defs></svg>