<svg xmlns="http://www.w3.org/2000/svg" width="20" height="20" fill="none" data-fui-icon="true" viewBox="0 0 20 20"><path fill="currentColor" d="M10 0c1.582 0 2.813 0 3.8.078.995.08 1.807.243 2.54.607a6.6 6.6 0 0 1 2.975 2.975c.363.733.527 1.545.607 2.54C20 7.187 20 8.418 20 10s0 2.813-.078 3.8c-.08.995-.244 1.807-.607 2.54a6.6 6.6 0 0 1-2.975 2.975c-.733.363-1.545.527-2.54.607C12.813 20 11.582 20 10 20s-2.813 0-3.8-.078c-.995-.08-1.807-.244-2.54-.607A6.6 6.6 0 0 1 .685 16.34C.32 15.607.158 14.795.078 13.8 0 12.813 0 11.582 0 10s0-2.813.078-3.8c.08-.995.243-1.807.607-2.54A6.6 6.6 0 0 1 3.66.685C4.393.32 5.205.158 6.2.078 7.187 0 8.418 0 10 0m0 1.5c-1.606 0-2.767 0-3.68.073-.905.072-1.503.212-1.994.455a5.1 5.1 0 0 0-2.298 2.298c-.243.49-.383 1.089-.455 1.993C1.5 7.233 1.5 8.394 1.5 10c0 1.607 0 2.768.073 3.682.072.904.212 1.502.455 1.993a5.1 5.1 0 0 0 2.298 2.297c.49.244 1.089.383 1.993.456.914.072 2.075.073 3.68.073 1.607 0 2.768 0 3.682-.073.904-.073 1.502-.212 1.993-.456a5.1 5.1 0 0 0 2.297-2.297c.244-.491.383-1.089.456-1.993.072-.914.073-2.075.073-3.681s0-2.767-.073-3.68c-.073-.905-.212-1.503-.456-1.994a5.1 5.1 0 0 0-2.297-2.298c-.491-.243-1.089-.383-1.993-.455C12.767 1.5 11.606 1.5 10 1.5m-4.062 5c.933 0 1.589.386 2.002.781a2.9 2.9 0 0 1 .548.72l.03.063.01.022.006.012c0 .001-.024.013-.617.268l.618-.266a.75.75 0 0 1-1.344.663l-.035-.07-.042-.073a1.4 1.4 0 0 0-.21-.254C6.718 8.188 6.42 8 5.938 8A1.44 1.44 0 0 0 4.5 9.438v1.117c0 .8.65 1.45 1.45 1.45h.397a.75.75 0 0 0 .75-.75v-.291H6.48a.75.75 0 0 1 0-1.5h.867c.69 0 1.25.56 1.25 1.25v.54a2.25 2.25 0 0 1-2.25 2.25H5.95A2.95 2.95 0 0 1 3 10.555V9.439A2.94 2.94 0 0 1 5.938 6.5m4.496 0a.75.75 0 0 1 .75.75v5.505a.75.75 0 0 1-1.5 0V7.25a.75.75 0 0 1 .75-.75m5.818 0a.75.75 0 0 1 0 1.5h-2.266v1.252h1.803a.75.75 0 0 1 0 1.5h-1.803v2.003a.75.75 0 0 1-1.5 0V7.75c0-.69.56-1.25 1.25-1.25z"/></svg>