<svg xmlns="http://www.w3.org/2000/svg" width="24" height="24" fill="none" data-fui-icon="true" viewBox="0 0 24 24"><path fill="currentColor" d="M16.536 3.25a6.75 6.75 0 0 1 6.72 6.12l.683 7.28a3.75 3.75 0 0 1-3.733 4.1H20a3.75 3.75 0 0 1-2.25-.75l-2.4-1.8a2.25 2.25 0 0 0-1.35-.45h-4c-.487 0-.96.158-1.35.45L6.25 20a3.75 3.75 0 0 1-2.25.75h-.206a3.75 3.75 0 0 1-3.734-4.1l.683-7.28a6.75 6.75 0 0 1 6.72-6.12zm-9.072 1.5a5.25 5.25 0 0 0-5.228 4.76l-.682 7.28a2.25 2.25 0 0 0 2.24 2.46H4c.487 0 .96-.159 1.35-.45l2.4-1.8a3.75 3.75 0 0 1 2.25-.75h4c.811 0 1.6.263 2.25.75l2.4 1.8c.39.291.863.45 1.35.45h.206a2.25 2.25 0 0 0 2.24-2.46l-.683-7.28a5.25 5.25 0 0 0-5.227-4.76zM15 11.6a1.2 1.2 0 1 1 0 2.4 1.2 1.2 0 0 1 0-2.4M8 8a.75.75 0 0 1 .75.75v1.5h1.5a.75.75 0 0 1 0 1.5h-1.5v1.5a.75.75 0 0 1-1.5 0v-1.5h-1.5a.75.75 0 0 1 0-1.5h1.5v-1.5A.75.75 0 0 1 8 8m9.4 0a1.2 1.2 0 1 1 0 2.4 1.2 1.2 0 0 1 0-2.4"/></svg>