<svg xmlns="http://www.w3.org/2000/svg" width="32" height="32" fill="none" data-fui-icon="true" viewBox="0 0 32 32"><path fill="currentColor" d="M23 16a1.34 1.34 0 0 0-1.275.927l-1.173 3.625-3.625 1.173a1.34 1.34 0 0 0 0 2.55l3.625 1.173 1.173 3.625a1.34 1.34 0 0 0 2.55 0l1.173-3.625 3.625-1.173a1.34 1.34 0 0 0 0-2.55l-3.625-1.173-1.173-3.625A1.34 1.34 0 0 0 23 15.999M11.566 2a1.84 1.84 0 0 0-1.75 1.27L8.35 7.775a.9.9 0 0 1-.575.575L3.27 9.817a1.841 1.841 0 0 0 0 3.499l4.505 1.467a.9.9 0 0 1 .575.575l1.467 4.505a1.84 1.84 0 0 0 3.499 0l1.467-4.505a.9.9 0 0 1 .575-.575l4.505-1.467a1.84 1.84 0 0 0 0-3.5L15.358 8.35a.9.9 0 0 1-.575-.575L13.316 3.27A1.84 1.84 0 0 0 11.566 2"/></svg>