<svg xmlns="http://www.w3.org/2000/svg" width="24" height="24" fill="none" data-fui-icon="true" viewBox="0 0 24 24"><path fill="currentColor" d="M12 1.875c5.592 0 10.125 4.533 10.125 10.125S17.592 22.125 12 22.125 1.875 17.592 1.875 12 6.408 1.875 12 1.875m0 1.5a8.625 8.625 0 1 0 0 17.25 8.625 8.625 0 0 0 0-17.25m2.845 4.72a.75.75 0 1 1 1.06 1.06L13.061 12l2.844 2.845a.75.75 0 1 1-1.06 1.06L12 13.061l-2.845 2.844a.75.75 0 1 1-1.06-1.06L10.94 12 8.095 9.155a.75.75 0 1 1 1.06-1.06L12 10.94z"/></svg>