<svg xmlns="http://www.w3.org/2000/svg" width="20" height="20" fill="none" data-fui-icon="true" viewBox="0 0 20 20"><path fill="currentColor" fill-rule="evenodd" d="M5.024 2.5h1.582L6.03 6.75a2.022 2.022 0 1 1-3.882-1.024l.702-1.754A2.34 2.34 0 0 1 5.024 2.5m0-1.5h9.598c1.571 0 2.984.956 3.567 2.415l.702 1.754a3.515 3.515 0 0 1-.895 3.911q.004.037.004.076v6.094A3.75 3.75 0 0 1 14.25 19h-9a3.75 3.75 0 0 1-3.75-3.75V9q0-.032.003-.064A3.51 3.51 0 0 1 .755 5.17l.702-1.754A3.84 3.84 0 0 1 5.024 1M16.5 9.891a3.6 3.6 0 0 1-.88.109 3.52 3.52 0 0 1-2.865-1.473A3.64 3.64 0 0 1 9.823 10c-1.21 0-2.27-.584-2.932-1.473A3.52 3.52 0 0 1 4.026 10c-.36 0-.704-.053-1.026-.15v5.4a2.25 2.25 0 0 0 2.25 2.25H6.5V14h-.927a.75.75 0 0 1 0-1.5h8.5a.75.75 0 1 1 0 1.5H13v3.5h1.25a2.25 2.25 0 0 0 2.25-2.25zm-5 7.609H8V14h3.5zm-3.356-15-.457 3.574a2.153 2.153 0 1 0 4.272 0L11.503 2.5zm5.472 4.25L13.04 2.5h1.582c.958 0 1.819.583 2.174 1.472l.702 1.754a2.023 2.023 0 1 1-3.882 1.023" clip-rule="evenodd"/></svg>