<svg xmlns="http://www.w3.org/2000/svg" width="17" height="16" fill="none" data-fui-icon="true" viewBox="0 0 17 16"><path fill="currentColor" d="M12.34 1a3.37 3.37 0 0 1 3.112 2.076l.32.768c.152.366.23.759.23 1.155l-.005.154a3 3 0 0 1-.995 2.076v5.447A3.324 3.324 0 0 1 11.678 16H4.326a3.324 3.324 0 0 1-3.324-3.324V7.23a3 3 0 0 1-.997-2.078L0 5c0-.396.078-.79.23-1.155l.32-.768A3.37 3.37 0 0 1 3.66 1zM5.564 6.838A3.13 3.13 0 0 1 3.131 8h-.127l-.155-.004a3 3 0 0 1-.347-.04v4.72c0 1.007.817 1.824 1.824 1.824h.676v-3.25c0-.69.56-1.25 1.25-1.25h3.5c.69 0 1.25.56 1.25 1.25v3.25h.676a1.824 1.824 0 0 0 1.824-1.824v-4.72q-.17.029-.349.04L12.998 8h-.127a3.13 3.13 0 0 1-2.434-1.161A3.12 3.12 0 0 1 8.002 8a3.13 3.13 0 0 1-2.439-1.162m.939 7.662h3v-3h-3zm-.114-9.928a1.64 1.64 0 1 0 3.228 0L9.246 2.5H6.758zM3.66 2.5a1.87 1.87 0 0 0-1.726 1.152l-.32.768A1.505 1.505 0 0 0 3.004 6.5h.127c.79 0 1.466-.566 1.605-1.344L5.211 2.5zm7.605 2.656c.139.778.815 1.344 1.605 1.344h.127a1.504 1.504 0 0 0 1.389-2.08l-.32-.768A1.87 1.87 0 0 0 12.341 2.5h-1.55z"/></svg>