<svg xmlns="http://www.w3.org/2000/svg" width="20" height="20" fill="none" data-fui-icon="true" viewBox="0 0 20 20"><path fill="currentColor" d="M17 12.637a2.75 2.75 0 0 1 2.75 2.75v.909a.75.75 0 0 1-1.5 0v-.91c0-.69-.56-1.25-1.25-1.25H3c-.69 0-1.25.56-1.25 1.25v.91a.75.75 0 0 1-1.5 0v-.91A2.75 2.75 0 0 1 3 12.637zM17 2a2.75 2.75 0 0 1 2.75 2.75v3.363a2.75 2.75 0 0 1-2.75 2.75H3a2.75 2.75 0 0 1-2.75-2.75V4.75A2.75 2.75 0 0 1 3 2zM3 3.5c-.69 0-1.25.56-1.25 1.25v3.363c0 .69.56 1.25 1.25 1.25h14c.69 0 1.25-.56 1.25-1.25V4.75c0-.69-.56-1.25-1.25-1.25z"/></svg>