<svg xmlns="http://www.w3.org/2000/svg" width="12" height="12" fill="none" data-fui-icon="true" viewBox="0 0 12 12"><path fill="currentColor" d="M4.51 1.491a1.75 1.75 0 0 1 2.98 0l4.21 6.842C12.419 9.5 11.58 11 10.21 11H1.79C.42 11-.418 9.5.298 8.333zM9.07 7.01a5.1 5.1 0 0 1-.958 1.135C7.622 8.572 6.905 9 6 9s-1.622-.428-2.113-.855A5.1 5.1 0 0 1 2.93 7.01q-.014-.025-.026-.049L1.576 9.12a.25.25 0 0 0 .214.381h8.42a.25.25 0 0 0 .213-.38L9.096 6.96q-.011.025-.025.049M6 5.5c-.413 0-.792.195-1.127.487-.195.169-.354.356-.474.513.12.158.28.344.474.514.335.292.714.486 1.127.486.412 0 .791-.194 1.127-.486a3.5 3.5 0 0 0 .472-.514 3.5 3.5 0 0 0-.472-.513C6.79 5.694 6.412 5.5 6 5.5m.213-3.222a.25.25 0 0 0-.426 0L4.452 4.446A3 3 0 0 1 6 4c.603 0 1.122.191 1.547.445z"/></svg>