<svg xmlns="http://www.w3.org/2000/svg" width="16" height="16" fill="none" data-fui-icon="true" viewBox="0 0 16 16"><path fill="currentColor" fill-rule="evenodd" d="M7 9c1.58 0 2.784.329 3.693.857a4.67 4.67 0 0 1 1.833 1.92c.58 1.128-.17 2.286-1.195 2.59-.992.292-2.531.633-4.33.633-1.8 0-3.34-.34-4.332-.634-1.025-.303-1.775-1.46-1.194-2.59a4.67 4.67 0 0 1 1.833-1.919C4.216 9.33 5.42 9 7 9m0 1.5c-1.371 0-2.303.284-2.938.654a3.17 3.17 0 0 0-1.253 1.309.25.25 0 0 0 0 .241c.044.088.14.18.285.224.898.265 2.29.572 3.906.572s3.009-.307 3.906-.572a.46.46 0 0 0 .286-.224.25.25 0 0 0 0-.241 3.17 3.17 0 0 0-1.253-1.309C9.303 10.784 8.37 10.5 7 10.5m3.788-2.737a.75.75 0 0 1 .95-.475c1.57.524 2.723 1.086 3.848 2.493a.75.75 0 0 1-1.172.938c-.874-1.093-1.723-1.53-3.151-2.007a.75.75 0 0 1-.475-.95M7 1a3.5 3.5 0 1 1 0 7 3.5 3.5 0 0 1 0-7m0 1.5a2 2 0 1 0 0 4 2 2 0 0 0 0-4M10.75 0a3.5 3.5 0 0 1 2.864 5.514.75.75 0 0 1-1.227-.865A2 2 0 0 0 10.75 1.5a.75.75 0 0 1 0-1.499" clip-rule="evenodd"/></svg>