<svg xmlns="http://www.w3.org/2000/svg" width="32" height="32" fill="none" data-fui-icon="true" viewBox="0 0 32 32"><path fill="currentColor" d="M10.272 6.829a1 1 0 1 1 1.09 1.676c-2.148 1.396-3.865 2.609-5.034 4.22a8.1 8.1 0 0 0-1.034 1.913 6.06 6.06 0 0 1 3.386-1.027c3.282 0 5.986 2.6 5.986 5.861s-2.704 5.862-5.986 5.862c-3.273 0-5.97-2.586-5.986-5.833-.183-3.473.57-5.96 2.015-7.95 1.414-1.95 3.436-3.34 5.563-4.722m14.667 0a1 1 0 1 1 1.09 1.676c-2.148 1.396-3.865 2.61-5.034 4.22a8.1 8.1 0 0 0-1.034 1.913 6.06 6.06 0 0 1 3.386-1.027c3.282 0 5.986 2.6 5.986 5.861s-2.704 5.861-5.986 5.862c-3.273 0-5.97-2.586-5.986-5.833-.184-3.473.57-5.96 2.015-7.95 1.414-1.95 3.436-3.34 5.563-4.722"/></svg>