<svg xmlns="http://www.w3.org/2000/svg" width="24" height="24" fill="none" data-fui-icon="true" viewBox="0 0 24 24"><path fill="currentColor" d="M20.974 2.989c.134-.002.32.013.517.06.168.04.386.114.592.255l.087.065.005.003h-.001c.3.246.426.55.485.764l.04.18.002.007.001.008c.028.175.068.569.034.912-.28 2.941-1.485 10.017-2.094 13.266-.254 1.358-.822 2.275-1.739 2.462l-.188.029c-.756.069-1.387-.189-1.92-.5-.263-.155-.519-.332-.758-.501-.246-.175-.475-.34-.719-.5-.816-.534-1.454-.966-2.083-1.393-.628-.426-1.246-.846-2.027-1.36h-.001c-.494-.323-.887-.674-1.104-1.088a1.51 1.51 0 0 1-.043-1.349c.159-.358.434-.661.667-.898.123-.125.256-.252.38-.371.128-.123.25-.242.37-.365.125-.13.99-.928 1.949-1.822q-1.682 1.118-4.15 2.777h.001c-.803.55-1.621.884-2.436.867-.42-.01-.971-.121-1.492-.251a25 25 0 0 1-1.586-.46l-.001-.001c-.517-.168-1.127-.338-1.551-.543-.221-.107-.478-.26-.672-.498a1.26 1.26 0 0 1-.278-.973c.06-.472.388-.8.67-1.01.304-.224.705-.424 1.168-.607q8.035-3.489 10.728-4.606c2.555-1.06 4.115-1.689 5.126-2.054.998-.361 1.539-.496 2.02-.505m-.166 1.517c-.23.033-.605.13-1.344.398-.73.264-1.772.676-3.328 1.314l-1.735.715q-2.673 1.11-10.727 4.607l-.012.005-.01.004a4.4 4.4 0 0 0-.743.36c.299.137.712.253 1.315.45l.732.225c.253.074.51.145.758.207.511.128.922.2 1.159.206.382.008.892-.148 1.557-.604l.005-.004q3.765-2.531 5.711-3.815.973-.64 1.498-.974.263-.166.423-.26.08-.047.149-.083c.012-.007.12-.067.243-.095l.14-.027c.063-.01.141-.019.223-.018.173.001.439.043.673.248h.001c.243.212.315.482.338.636.023.153.014.307-.015.428a1 1 0 0 1-.106.256q-.047.078-.092.136a4 4 0 0 1-.205.246c-.152.17-.356.382-.588.614a82 82 0 0 1-1.693 1.63c-.614.578-1.234 1.153-1.715 1.599l-.787.732-.057.055-.02.02c-.14.144-.28.28-.409.404-.131.126-.246.236-.351.343-.222.225-.323.362-.362.45-.016.037-.014.024-.002.048.042.078.184.258.6.53.791.521 1.418.947 2.046 1.373s1.256.853 2.06 1.379l.4.27.366.26c.238.168.447.312.65.43.4.235.71.33 1.024.302.011-.001.078-.002.187-.147.124-.165.285-.5.402-1.126.61-3.255 1.804-10.267 2.077-13.132v-.005a2.67 2.67 0 0 0-.023-.527h-.001l-.008-.038-.001-.002a.678.678 0 0 0-.212-.04z"/></svg>