<svg xmlns="http://www.w3.org/2000/svg" width="16" height="16" fill="none" data-fui-icon="true" viewBox="0 0 16 16"><path fill="currentColor" d="M5.5 3.061A2.75 2.75 0 0 1 8.917.393l5 1.25A2.75 2.75 0 0 1 16 4.311v7.377a2.75 2.75 0 0 1-2.083 2.668l-5 1.25A2.75 2.75 0 0 1 5.5 12.938V12A.75.75 0 0 1 7 12v.938c0 .813.764 1.41 1.553 1.213l5-1.25c.556-.139.947-.64.947-1.213V4.311a1.25 1.25 0 0 0-.947-1.212l-5-1.25A1.25 1.25 0 0 0 7 3.06V4.24a.75.75 0 0 1-1.5 0zM9.22 4.97a.75.75 0 0 1 1.06 0l2.5 2.5a.75.75 0 0 1 0 1.06l-2.5 2.5a.75.75 0 0 1-1.06-1.06l1.22-1.22H3c-.575 0-.94.187-1.157.405A1.2 1.2 0 0 0 1.5 10c0 .314.118.62.343.845.218.218.582.406 1.157.406a.75.75 0 0 1 0 1.5c-.925 0-1.686-.314-2.218-.846A2.7 2.7 0 0 1 0 10c0-.686.257-1.38.782-1.905C1.314 7.563 2.075 7.25 3 7.25h7.44L9.22 6.03a.75.75 0 0 1 0-1.06"/></svg>