<svg xmlns="http://www.w3.org/2000/svg" width="16" height="16" fill="none" data-fui-icon="true" viewBox="0 0 16 16"><path fill="currentColor" d="M4.951 1c.494 0 .962.222 1.274.605l1.09 1.343A.14.14 0 0 0 7.424 3h6.806c.978 0 1.77.792 1.77 1.77v2.48a.75.75 0 0 1-1.5 0V4.77a.27.27 0 0 0-.27-.27H7.424a1.64 1.64 0 0 1-1.274-.605L5.06 2.552A.14.14 0 0 0 4.95 2.5H1.77a.27.27 0 0 0-.27.27v9.46c0 .15.12.27.27.27h7.48a.75.75 0 0 1 0 1.5H1.77A1.77 1.77 0 0 1 0 12.23V2.77C0 1.792.792 1 1.77 1zM13 8a.75.75 0 0 1 .75.75v1.5h1.5a.75.75 0 0 1 0 1.5h-1.5v1.5a.75.75 0 0 1-1.5 0v-1.5h-1.5a.75.75 0 0 1 0-1.5h1.5v-1.5A.75.75 0 0 1 13 8"/></svg>