<svg xmlns="http://www.w3.org/2000/svg" width="16" height="16" fill="none" data-fui-icon="true" viewBox="0 0 16 16"><path fill="currentColor" d="M8 0c3.224 0 6.5 2.352 6.5 6.25 0 2.607-1.594 5.035-3.057 6.733a22.5 22.5 0 0 1-2.722 2.653l-.194.154-.053.042-.015.01-.004.005h-.002L8 15.25l.452.598a.75.75 0 0 1-.904 0L8 15.25l-.453.598-.002-.001-.004-.004-.015-.011-.053-.042-.194-.154a22.451 22.451 0 0 1-2.723-2.652C3.095 11.283 1.5 8.856 1.5 6.25 1.5 2.352 4.776 0 8 0m0 1.5c-2.575 0-5 1.85-5 4.75 0 2.042 1.282 4.115 2.693 5.754A21 21 0 0 0 8 14.284q.175-.148.4-.347a21 21 0 0 0 1.907-1.933C11.719 10.364 13 8.292 13 6.25c0-2.9-2.425-4.75-5-4.75m0 2a3 3 0 1 1 0 6 3 3 0 0 1 0-6M8 5a1.5 1.5 0 1 0 0 3 1.5 1.5 0 0 0 0-3"/></svg>