<svg xmlns="http://www.w3.org/2000/svg" width="32" height="32" fill="none" data-fui-icon="true" viewBox="0 0 32 32"><path fill="currentColor" d="M20.13 4.825a24.2 24.2 0 0 1 6.051 1.872c3.32 4.88 4.97 10.384 4.361 16.735a24.2 24.2 0 0 1-7.426 3.743 18 18 0 0 1-1.59-2.574c.87-.327 1.709-.73 2.508-1.204a9 9 0 0 1-.615-.464 17.36 17.36 0 0 1-14.838 0c-.199.153-.405.31-.615.463.798.474 1.636.876 2.504 1.202a18 18 0 0 1-1.59 2.577 24.4 24.4 0 0 1-7.422-3.746c-.52-5.476.52-11.03 4.35-16.727a24.3 24.3 0 0 1 6.056-1.877q.429.772.774 1.584a22.4 22.4 0 0 1 6.717 0q.345-.812.774-1.584m-9.007 9.338c-1.484 0-2.637 1.332-2.637 2.955 0 1.624 1.195 2.944 2.641 2.944 1.475 0 2.614-1.32 2.64-2.944.025-1.623-1.16-2.955-2.644-2.955m9.75 0c-1.486 0-2.64 1.332-2.64 2.955.001 1.624 1.19 2.943 2.64 2.944 1.474 0 2.612-1.32 2.637-2.944.026-1.623-1.152-2.955-2.637-2.955"/></svg>