<svg xmlns="http://www.w3.org/2000/svg" width="32" height="32" fill="none" data-fui-icon="true" viewBox="0 0 32 32"><g clip-path="url(#a)"><path fill="currentColor" d="M8.5 15c.614 0 1.158.396 1.347.98l1.47 4.543a.25.25 0 0 0 .16.16l4.543 1.47a1.416 1.416 0 0 1 0 2.694l-4.542 1.47a.25.25 0 0 0-.162.16l-1.47 4.543a1.416 1.416 0 0 1-2.693 0l-1.47-4.542a.25.25 0 0 0-.16-.162l-4.544-1.47a1.416 1.416 0 0 1 0-2.693l4.543-1.47a.25.25 0 0 0 .162-.16l1.47-4.543.038-.107A1.42 1.42 0 0 1 8.5 15m-1.39 5.984a1.75 1.75 0 0 1-1.126 1.126L1.688 23.5l4.296 1.39a1.75 1.75 0 0 1 1.126 1.126L8.5 30.31l1.39-4.295a1.75 1.75 0 0 1 1.126-1.126l4.294-1.39-4.294-1.39a1.75 1.75 0 0 1-1.126-1.126L8.5 16.688zM21.5 0c.784 0 1.479.505 1.722 1.25l1.652 5.075c.124.38.421.677.8.801l5.076 1.652a1.811 1.811 0 0 1 0 3.444l-5.075 1.652a1.25 1.25 0 0 0-.801.8l-1.652 5.076a1.811 1.811 0 0 1-3.443 0l-1.653-5.075a1.25 1.25 0 0 0-.8-.801l-5.076-1.652a1.811 1.811 0 0 1 0-3.443l5.075-1.653a1.25 1.25 0 0 0 .801-.8l1.652-5.076A1.81 1.81 0 0 1 21.5 0m0 1.5a.31.31 0 0 0-.295.214l-1.652 5.075a2.75 2.75 0 0 1-1.764 1.764l-5.075 1.652a.31.31 0 0 0 0 .59l5.075 1.652a2.75 2.75 0 0 1 1.764 1.764l1.652 5.075a.31.31 0 0 0 .59 0l1.652-5.075a2.75 2.75 0 0 1 1.764-1.764l5.075-1.652a.31.31 0 0 0 0-.59l-5.075-1.652a2.75 2.75 0 0 1-1.764-1.764l-1.652-5.075A.31.31 0 0 0 21.5 1.5"/></g><defs><clipPath id="a"><path fill="currentColor" d="M0 0h32v32H0z"/></clipPath></defs></svg>