<svg xmlns="http://www.w3.org/2000/svg" width="20" height="20" fill="none" data-fui-icon="true" viewBox="0 0 20 20"><path fill="currentColor" d="M13 18.5a.75.75 0 0 1 0 1.5H7a.75.75 0 0 1 0-1.5zM10 0c2.366 0 4.316.815 5.675 2.191C17.03 3.564 17.75 5.448 17.75 7.5c0 2.53-1.407 4.24-2.495 5.184-.619.536-1.005 1.207-1.005 1.86v.206a2 2 0 0 1-2 2h-4.5a2 2 0 0 1-2-2v-.205c0-.654-.386-1.325-1.005-1.861C3.656 11.74 2.25 10.03 2.25 7.5c0-2.052.72-3.936 2.075-5.309C5.685.815 7.635 0 10 0m0 1.5c-2.01 0-3.56.685-4.606 1.746C4.343 4.311 3.75 5.802 3.75 7.5c0 1.923 1.061 3.256 1.978 4.05.812.704 1.522 1.755 1.522 2.995v.205a.5.5 0 0 0 .5.5h4.5a.5.5 0 0 0 .5-.5v-.205c0-1.24.71-2.291 1.523-2.995.916-.794 1.977-2.127 1.977-4.05 0-1.698-.593-3.19-1.644-4.254C13.56 2.186 12.01 1.5 10 1.5M11.875 8a.75.75 0 0 1 0 1.5H10.75v2.75a.75.75 0 0 1-1.5 0V9.5H8.125a.75.75 0 0 1 0-1.5z"/></svg>