<svg xmlns="http://www.w3.org/2000/svg" width="12" height="12" fill="none" data-fui-icon="true" viewBox="0 0 12 12"><path fill="currentColor" d="M10.25 0a.75.75 0 0 1 .75.75V11a.75.75 0 0 1-1.055.685l-1.927-.856-1.683.842a.75.75 0 0 1-.67 0l-1.684-.842-1.926.856A.75.75 0 0 1 1 11V.75A.75.75 0 0 1 1.75 0zM2.5 9.846l1.195-.532a.75.75 0 0 1 .64.015L6 10.161l1.665-.832.076-.033a.75.75 0 0 1 .564.018l1.195.532V1.5h-7zM6 5.5A.75.75 0 0 1 6 7H4.5a.75.75 0 0 1 0-1.5zm1.5-2.75a.75.75 0 0 1 0 1.5h-3a.75.75 0 0 1 0-1.5z"/></svg>