<svg xmlns="http://www.w3.org/2000/svg" width="16" height="16" fill="none" data-fui-icon="true" viewBox="0 0 16 16"><path fill="currentColor" d="M5.334 11.083a1.584 1.584 0 1 1-.002 3.168 1.584 1.584 0 0 1 .002-3.168m6 0a1.584 1.584 0 1 1-.002 3.168 1.584 1.584 0 0 1 .002-3.168m-6 1.5a.084.084 0 0 0-.084.083c0 .046.038.084.084.084a.084.084 0 0 0 .083-.084.084.084 0 0 0-.083-.083m6 0a.084.084 0 0 0-.084.083c0 .046.038.084.084.084a.084.084 0 0 0 .083-.084.084.084 0 0 0-.083-.083m-9.82-11.5c.834 0 1.552.59 1.715 1.407l1.292 6.457a.58.58 0 0 0 .573.469h6.797a.584.584 0 0 0 .573-.478l.966-5.24a.75.75 0 0 1 1.474.27L13.94 9.21a2.084 2.084 0 0 1-2.05 1.706H5.095c-.993 0-1.848-.7-2.043-1.675L1.759 2.784a.25.25 0 0 0-.245-.201h-.347a.75.75 0 0 1 0-1.5zm4.924 1.52a.75.75 0 0 1 1.061 0L8.5 3.605l1.002-1a.75.75 0 0 1 1.06 1.061L9.562 4.666l1.002 1.002a.75.75 0 0 1-1.061 1.06L8.5 5.728 7.499 6.729a.751.751 0 0 1-1.061-1.061l1-1.002-1-1.001a.75.75 0 0 1 0-1.061"/></svg>