<svg xmlns="http://www.w3.org/2000/svg" width="24" height="24" fill="none" data-fui-icon="true" viewBox="0 0 24 24"><path fill="currentColor" d="M16.25 2a.75.75 0 0 1 .75.75V4h1.25A2.75 2.75 0 0 1 21 6.75v11.5A2.75 2.75 0 0 1 18.25 21H5.75A2.75 2.75 0 0 1 3 18.25V6.75A2.75 2.75 0 0 1 5.75 4H7V2.75a.75.75 0 0 1 1.5 0V4h7V2.75a.75.75 0 0 1 .75-.75M5.75 5.5c-.69 0-1.25.56-1.25 1.25v11.5c0 .69.56 1.25 1.25 1.25h12.5c.69 0 1.25-.56 1.25-1.25V6.75c0-.69-.56-1.25-1.25-1.25zm8.222 3.97a.75.75 0 0 1 1.06 1.06l-1.972 1.972 1.97 1.97a.75.75 0 0 1-1.06 1.06L12 13.562l-1.97 1.97a.75.75 0 0 1-1.06-1.06l1.97-1.97-1.972-1.972a.75.75 0 1 1 1.06-1.06L12 11.44z"/></svg>