<svg xmlns="http://www.w3.org/2000/svg" width="32" height="32" fill="none" data-fui-icon="true" viewBox="0 0 32 32"><path fill="currentColor" d="M16 0c4.877 0 8.937 3.491 9.821 8.11a.75.75 0 0 1-1.472.282A8.5 8.5 0 0 0 7.5 10v3.5h17.45A5.05 5.05 0 0 1 30 18.55v8.4A5.05 5.05 0 0 1 24.95 32H7.05A5.05 5.05 0 0 1 2 26.95v-8.4a5.05 5.05 0 0 1 4-4.94V10C6 4.477 10.477 0 16 0M7.05 15a3.55 3.55 0 0 0-3.55 3.55v8.4a3.55 3.55 0 0 0 3.55 3.55h17.9a3.55 3.55 0 0 0 3.55-3.55v-8.4A3.55 3.55 0 0 0 24.95 15z"/></svg>