<svg xmlns="http://www.w3.org/2000/svg" width="24" height="24" fill="none" data-fui-icon="true" viewBox="0 0 24 24"><path fill="currentColor" d="M14.4 22.5a.75.75 0 0 1 0 1.5H9.6a.75.75 0 0 1 0-1.5zM12 5c4.076 0 7 3.098 7 7 0 2.6-1.568 4.221-2.618 5.015-.407.307-.632.715-.632 1.086A2.9 2.9 0 0 1 12.85 21h-1.7a2.9 2.9 0 0 1-2.9-2.9c0-.37-.226-.778-.632-1.085C6.568 16.22 5 14.599 5 12c0-3.902 2.924-7 7-7M4.72 18.22a.75.75 0 1 1 1.06 1.06l-1.125 1.125a.75.75 0 1 1-1.06-1.06zm13.5 0a.75.75 0 0 1 1.06 0l1.125 1.125a.75.75 0 1 1-1.06 1.06L18.22 19.28a.75.75 0 0 1 0-1.06M12 6.5c-3.224 0-5.5 2.402-5.5 5.5 0 1.928 1.152 3.16 2.022 3.818.664.502 1.228 1.312 1.228 2.283a1.4 1.4 0 0 0 1.4 1.399h1.7a1.4 1.4 0 0 0 1.4-1.4c0-.97.563-1.78 1.227-2.282.871-.658 2.023-1.89 2.023-3.818 0-3.098-2.276-5.5-5.5-5.5m-9.75 4.75a.75.75 0 0 1 0 1.5H.75a.75.75 0 0 1 0-1.5zm21 0a.75.75 0 0 1 0 1.5h-1.5a.75.75 0 0 1 0-1.5zM3.22 3.22a.75.75 0 0 1 1.06 0l1.125 1.125a.75.75 0 1 1-1.06 1.06L3.22 4.28a.75.75 0 0 1 0-1.06m16.5 0a.75.75 0 1 1 1.06 1.06l-1.125 1.125a.75.75 0 1 1-1.06-1.06zM12 0a.75.75 0 0 1 .75.75v1.5a.75.75 0 0 1-1.5 0V.75A.75.75 0 0 1 12 0"/></svg>