<svg xmlns="http://www.w3.org/2000/svg" width="16" height="16" fill="none" data-fui-icon="true" viewBox="0 0 16 16"><path fill="currentColor" d="M3.74 8.75c.9 0 1.817.653 1.818 1.676 0 .575-.289.997-.597 1.287-.148.14-.316.262-.482.37H5a.75.75 0 0 1 0 1.5H2.5a.75.75 0 0 1-.746-.674l-.004-.076c0-.577.345-.97.633-1.208.28-.231.641-.426.901-.573.298-.169.508-.298.649-.43.123-.117.125-.171.125-.196 0-.011-.004-.045-.054-.089a.4.4 0 0 0-.265-.088.8.8 0 0 0-.379.125 1.3 1.3 0 0 0-.18.127c-.002-.004-.04-.044-.513-.547l-.515-.547h.001l.002-.001.004-.004.01-.01.028-.025.092-.075c.075-.059.183-.136.315-.213.253-.148.655-.33 1.135-.33m9.76 1.666a.75.75 0 0 1 0 1.5H7.833a.75.75 0 0 1 0-1.5zM3.18 10.5a.75.75 0 0 1-1.028-1.092zm.556-7.948a.75.75 0 0 1 1.181.614V6.5a.75.75 0 0 1-1.5 0V4.606l-.487.341a.75.75 0 1 1-.86-1.229zM13.5 4.083a.75.75 0 0 1 0 1.5H7.833a.75.75 0 0 1 0-1.5z"/></svg>