<svg xmlns="http://www.w3.org/2000/svg" width="32" height="32" fill="none" data-fui-icon="true" viewBox="0 0 32 32"><path fill="currentColor" d="M12.2 2.45a7.15 7.15 0 0 1 7.15 7.15c0 2.293-1.08 4.331-2.758 5.64 4.365 1.654 6.23 5.301 7.002 7.737.57 1.797-.03 3.813-1.81 4.743-1.739.909-4.628 1.83-9.184 1.83-4.808 0-7.76-1.026-9.461-1.98-1.56-.874-2.155-2.631-1.798-4.273.53-2.432 2.068-6.312 6.482-8.045A7.14 7.14 0 0 1 5.05 9.601a7.15 7.15 0 0 1 7.15-7.15m2.68 13.777a7.13 7.13 0 0 1-5.33.012l.006.027c-4.665 1.203-6.222 4.925-6.75 7.35-.24 1.105.173 2.145 1.066 2.646 1.447.81 4.139 1.788 8.728 1.788 4.35 0 6.995-.878 8.49-1.66 1.029-.537 1.462-1.737 1.074-2.96-.772-2.433-2.667-5.991-7.294-7.164zM21.6 4.05a5.55 5.55 0 0 1 3.748 9.641c3.146 1.234 4.608 3.627 5.265 5.358.559 1.473.21 3.179-1.092 4.198-.683.534-1.621 1.096-2.875 1.531a.75.75 0 0 1-.492-1.417c1.093-.378 1.886-.86 2.443-1.296.724-.567.968-1.55.613-2.484-.626-1.65-2.083-3.975-5.508-4.846a5.5 5.5 0 0 1-2.102.414.75.75 0 0 1 0-1.5 4.05 4.05 0 1 0-.676-8.044.75.75 0 1 1-.248-1.478q.452-.076.924-.077m-9.4-.1a5.65 5.65 0 1 0 .001 11.302 5.65 5.65 0 0 0 0-11.302"/></svg>