<svg xmlns="http://www.w3.org/2000/svg" width="20" height="20" fill="none" data-fui-icon="true" viewBox="0 0 20 20"><g clip-path="url(#a)"><path fill="currentColor" fill-rule="evenodd" d="M17.276.853A.75.75 0 0 0 16.01.47l-4.817 4.817-.53.53 1.06 1.06.53-.53 3.56-3.558a4.3 4.3 0 0 1-1.179 2.226L12.777 6.87l-.53.53 1.06 1.061.531-.53 1.857-1.857a5.78 5.78 0 0 0 1.58-5.222M4.43 10.465a.75.75 0 0 1 1.061 0l.262.262.456-.456.53-.53 1.06 1.06-.53.53-.455.456.523.524.456-.456.53-.53 1.061 1.06-.53.531-.51.509c.96 1.451.802 3.424-.476 4.702l-.528.528a3.74 3.74 0 0 1-5.286 0L.47 17.071a.75.75 0 0 1 0-1.06l.007-.008 4.215-4.216-.262-.262a.75.75 0 0 1 0-1.06m1.847 2.907-.524-.524-3.692 3.693.523.523zm.53 3.695a2.24 2.24 0 0 0 .44-2.543l-3.511 3.51a2.24 2.24 0 0 0 2.543-.44zm11.14 1.588 1.583-1.584a.75.75 0 0 0 0-1.06l-4.223-4.224.262-.262a.75.75 0 1 0-1.06-1.06l-.35.35L3.902.558c-.676 3.378 2.142 6.196 4.582 8.636l.04.04 3.608 3.608a3.74 3.74 0 0 0 0 5.285l.528.528a3.74 3.74 0 0 0 5.274.012zm-4.754-1.588a2.24 2.24 0 0 1-.44-2.544l3.51 3.51a2.24 2.24 0 0 1-2.542-.438zm4.223-.003.523-.523-3.692-3.693-.524.524z" clip-rule="evenodd"/></g><defs><clipPath id="a"><path fill="currentColor" d="M0 0h20v20H0z"/></clipPath></defs></svg>