<svg xmlns="http://www.w3.org/2000/svg" width="13" height="12" fill="none" data-fui-icon="true" viewBox="0 0 13 12"><path fill="currentColor" d="M5.5 1.125a.75.75 0 1 1 0 1.5H2.375a.25.25 0 0 0-.25.25v5.25c0 .138.112.25.25.25h1.951c.257 0 .507.08.716.226l.087.066L6 9.4l.89-.737.087-.065a1.25 1.25 0 0 1 .71-.222h1.937a.25.25 0 0 0 .25-.25v-2a.75.75 0 0 1 1.5 0v2a1.75 1.75 0 0 1-1.75 1.75H7.778l-.98.812a1.25 1.25 0 0 1-1.6-.005l-.963-.807h-1.86a1.75 1.75 0 0 1-1.75-1.75v-5.25c0-.966.784-1.75 1.75-1.75zM3.75 4.813a.688.688 0 1 1 0 1.375.688.688 0 0 1 0-1.375m2.25 0a.688.688 0 1 1 0 1.375.688.688 0 0 1 0-1.375M9.094.545a1.707 1.707 0 0 1 2.413 2.413L9.756 4.71a2.55 2.55 0 0 1-1.52.73 1.47 1.47 0 0 1-1.624-1.622 2.55 2.55 0 0 1 .73-1.52zm1.351 1.062a.206.206 0 0 0-.29 0l-1.75 1.75a1.05 1.05 0 0 0-.296.585c.222-.034.428-.135.586-.294l1.75-1.75c.08-.08.08-.21 0-.291"/></svg>