<svg xmlns="http://www.w3.org/2000/svg" width="16" height="16" fill="none" data-fui-icon="true" viewBox="0 0 16 16"><path fill="currentColor" d="M11.877 5.25c1.683 0 3.138 1.042 3.664 2.533l.09.293c.079.298.119.609.119.924a.75.75 0 0 1-1.5 0c0-.252-.043-.493-.121-.71l-.001-.005-.065-.162c-.354-.796-1.19-1.373-2.186-1.373-.9 0-1.672.476-2.073 1.16q.476.48.835 1.06a.75.75 0 1 1-1.278.786c-.729-1.187-1.963-1.964-3.356-2.004l-.28.002c-2.181.091-3.975 2.12-3.975 4.592 0 .538.403.904.818.904h6.687a.75.75 0 0 1 0 1.5H2.568C1.25 14.75.25 13.636.25 12.346c0-3.133 2.292-5.96 5.412-6.091a5.4 5.4 0 0 1 2.95.73 3.9 3.9 0 0 1 3.265-1.735m1.123 4a.75.75 0 0 1 .75.75v1.25H15a.75.75 0 0 1 0 1.5h-1.25V14a.75.75 0 0 1-1.5 0v-1.25H11a.75.75 0 0 1 0-1.5h1.25V10a.75.75 0 0 1 .75-.75m-7-9a2.75 2.75 0 1 1 0 5.5 2.75 2.75 0 0 1 0-5.5m6 1a1.75 1.75 0 1 1 0 3.5 1.75 1.75 0 0 1 0-3.5m-6 .5a1.25 1.25 0 1 0 0 2.5 1.25 1.25 0 0 0 0-2.5m6 1a.25.25 0 1 0 0 .5.25.25 0 0 0 0-.5"/></svg>