<svg xmlns="http://www.w3.org/2000/svg" width="12" height="12" fill="none" data-fui-icon="true" viewBox="0 0 12 12"><path fill="currentColor" d="M0 5.185c.085.043.18.07.281.07H12V9.1a1.9 1.9 0 0 1-1.9 1.9H1.9A1.9 1.9 0 0 1 0 9.1zM4.938 6.42a.2.2 0 0 0-.3.174V9.71a.2.2 0 0 0 .3.174l2.744-1.551a.2.2 0 0 0 0-.348zM1.665 4.005H.281a.6.6 0 0 0-.281.07V2.9A1.9 1.9 0 0 1 1.9 1h2.77zm4.43 0H3.434l2.789-2.79A.6.6 0 0 0 6.363 1h2.738zm4.652-2.89A1.9 1.9 0 0 1 12 2.9v1.105H7.864l2.86-2.86q.012-.014.023-.03"/></svg>