<svg xmlns="http://www.w3.org/2000/svg" width="24" height="24" fill="none" data-fui-icon="true" viewBox="0 0 24 24"><g clip-path="url(#a)"><path fill="currentColor" d="M6.5 11c.506 0 .957.306 1.148.767l.036.094 1.088 3.366 3.367 1.09a1.244 1.244 0 0 1 0 2.367l-3.367 1.088-1.088 3.367a1.244 1.244 0 0 1-2.368 0l-1.088-3.366-3.367-1.09a1.244 1.244 0 0 1 0-2.367l3.367-1.088 1.088-3.367.036-.094A1.24 1.24 0 0 1 6.5 11m-.846 4.69a1.5 1.5 0 0 1-.965.964l-2.615.846 2.615.846a1.5 1.5 0 0 1 .965.965l.846 2.614.846-2.614a1.5 1.5 0 0 1 .965-.965l2.614-.846-2.614-.846a1.5 1.5 0 0 1-.965-.964L6.5 13.074zM16 0c.666 0 1.257.43 1.463 1.063l1.226 3.767a.75.75 0 0 0 .48.48l3.768 1.227a1.539 1.539 0 0 1 0 2.926L19.17 10.69a.75.75 0 0 0-.48.48l-1.227 3.768a1.539 1.539 0 0 1-2.926 0L13.31 11.17a.75.75 0 0 0-.48-.48L9.063 9.463a1.539 1.539 0 0 1 0-2.926l3.767-1.226a.75.75 0 0 0 .48-.48l1.227-3.769A1.54 1.54 0 0 1 16 0m0 1.5a.04.04 0 0 0-.036.026l-1.227 3.768a2.25 2.25 0 0 1-1.443 1.443L9.526 7.964a.038.038 0 0 0 0 .072l3.768 1.227c.684.222 1.22.76 1.443 1.443l1.227 3.768a.038.038 0 0 0 .072 0l1.227-3.768c.222-.684.76-1.22 1.443-1.443l3.768-1.227A.04.04 0 0 0 22.5 8q-.001-.026-.026-.036l-3.768-1.227a2.25 2.25 0 0 1-1.443-1.443l-1.227-3.768A.04.04 0 0 0 16 1.5"/></g><defs><clipPath id="a"><path fill="currentColor" d="M0 0h24v24H0z"/></clipPath></defs></svg>