<svg xmlns="http://www.w3.org/2000/svg" width="12" height="12" fill="none" data-fui-icon="true" viewBox="0 0 12 12"><path fill="currentColor" d="M6 7.2c.199 0 .39.08.53.22l1.547 1.547a.75.75 0 0 1-1.06 1.06l-.267-.266v1.486a.75.75 0 0 1-1.5 0V9.761l-.267.266a.75.75 0 0 1-1.06-1.06L5.47 7.42A.75.75 0 0 1 6 7.2m4.813-1.95a.75.75 0 0 1 0 1.5H1.188a.75.75 0 0 1 0-1.5zM6 0a.75.75 0 0 1 .75.75v1.486l.267-.266a.75.75 0 1 1 1.06 1.06L6.53 4.577a.75.75 0 0 1-1.06 0L3.923 3.03a.75.75 0 1 1 1.06-1.06l.267.266V.75A.75.75 0 0 1 6 0"/></svg>