<svg xmlns="http://www.w3.org/2000/svg" width="32" height="32" fill="none" data-fui-icon="true" viewBox="0 0 32 32"><path fill="currentColor" d="M16 1c8.284 0 15 6.716 15 15s-6.716 15-15 15S1 24.284 1 16 7.716 1 16 1m0 1.5C8.544 2.5 2.5 8.544 2.5 16S8.544 29.5 16 29.5 29.5 23.456 29.5 16 23.456 2.5 16 2.5M18.25 13a.75.75 0 0 1 .75.75v9.75h1.25a.75.75 0 0 1 0 1.5h-7.5a.75.75 0 0 1 0-1.5H14v-9h-1.25a.75.75 0 0 1 0-1.5zM15.5 23.5h2v-9h-2zm1-16.496a2.5 2.5 0 1 1 0 5 2.5 2.5 0 0 1 0-5m0 1.5a1 1 0 1 0 0 2 1 1 0 0 0 0-2"/></svg>