<svg xmlns="http://www.w3.org/2000/svg" width="12" height="12" fill="none" data-fui-icon="true" viewBox="0 0 12 12"><path fill="currentColor" d="M5.527.169a1.25 1.25 0 0 1 .946 0L6.62.24l4.498 2.57c.545.312.882.892.882 1.52v.42a1 1 0 0 1-1 1v2.92a1.749 1.749 0 0 1-.75 3.33h-8.5A1.75 1.75 0 0 1 1 8.67V5.75a1 1 0 0 1-1-1v-.42c0-.628.337-1.208.882-1.52L5.38.24zM1.75 10a.25.25 0 0 0 0 .5h8.5a.25.25 0 1 0 0-.5zm.75-1.5h2.75V5.75H2.5zm4.25 0H9.5V5.75H6.75zM1.626 4.113a.25.25 0 0 0-.111.137h8.97a.25.25 0 0 0-.111-.137L6 1.613z"/></svg>