<svg xmlns="http://www.w3.org/2000/svg" width="20" height="20" fill="none" data-fui-icon="true" viewBox="0 0 20 20"><path fill="currentColor" d="M8.58 3.009c.971-.842 2.482-.152 2.483 1.133v11.715c0 1.286-1.512 1.976-2.483 1.134L5.84 14.615a1.75 1.75 0 0 0-1.147-.428H3.437a2 2 0 0 1-2-2V7.812a2 2 0 0 1 2-2h1.255c.421 0 .829-.152 1.147-.427zm-1.759 3.51a3.25 3.25 0 0 1-2.129.793H3.437a.5.5 0 0 0-.5.5v4.375a.5.5 0 0 0 .5.5h1.255c.782 0 1.538.282 2.13.794l2.74 2.376V4.142zm10.774 1.076a.75.75 0 0 1 1.06 1.06L17.311 10l1.344 1.345a.75.75 0 0 1-1.06 1.06L16.25 11.06l-1.345 1.345a.75.75 0 0 1-1.06-1.06L15.19 10l-1.345-1.345a.75.75 0 0 1 1.06-1.06l1.345 1.344z"/></svg>