<svg xmlns="http://www.w3.org/2000/svg" width="32" height="32" fill="none" data-fui-icon="true" viewBox="0 0 32 32"><path fill="currentColor" d="M14.25 4a.75.75 0 0 1 0 1.5H5.32A2.82 2.82 0 0 0 2.5 8.32v17.36a2.82 2.82 0 0 0 2.82 2.82h17.36a2.82 2.82 0 0 0 2.82-2.82v-5.93a.75.75 0 0 1 1.5 0v5.93A4.32 4.32 0 0 1 22.68 30H5.32A4.32 4.32 0 0 1 1 25.68V8.32A4.32 4.32 0 0 1 5.32 4zm9.25-2a.75.75 0 0 1 .75.75c0 1.396.742 2.903 1.92 4.08s2.684 1.92 4.08 1.92a.75.75 0 0 1 0 1.5c-1.364 0-2.868.836-4.067 2.095-1.205 1.263-1.933 2.774-1.933 3.905a.75.75 0 0 1-1.5 0c0-.531-.192-1.177-.571-1.876-.375-.691-.91-1.39-1.536-2.017-.626-.625-1.326-1.16-2.017-1.536-.699-.379-1.345-.571-1.876-.571a.75.75 0 0 1 0-1.5c1.13 0 2.642-.728 3.905-1.933 1.259-1.2 2.095-2.703 2.095-4.067A.75.75 0 0 1 23.5 2m-.037 3.613a9.4 9.4 0 0 1-1.773 2.29 9.8 9.8 0 0 1-2.289 1.633c.815.451 1.607 1.066 2.302 1.76a10.5 10.5 0 0 1 1.76 2.302 9.8 9.8 0 0 1 1.634-2.288 9.4 9.4 0 0 1 2.289-1.774 8.7 8.7 0 0 1-2.277-1.645 8.7 8.7 0 0 1-1.646-2.278"/></svg>