<svg xmlns="http://www.w3.org/2000/svg" width="12" height="12" fill="none" data-fui-icon="true" viewBox="0 0 12 12"><g clip-path="url(#a)"><path fill="currentColor" d="M6.003-.006c.555 0 1.05.253 1.379.649.173.208.38.396.63.5.252.103.53.114.8.09a1.793 1.793 0 0 1 1.953 1.953c-.025.27-.014.548.09.8.104.249.292.455.5.628a1.793 1.793 0 0 1 .001 2.756c-.207.174-.396.38-.5.631-.105.252-.115.531-.09.803a1.792 1.792 0 0 1-1.954 1.953c-.272-.025-.55-.015-.801.09-.25.104-.457.292-.631.5a1.79 1.79 0 0 1-2.76-.006c-.171-.206-.375-.393-.623-.495-.249-.103-.524-.114-.792-.09a1.796 1.796 0 0 1-1.96-1.953c.025-.27.014-.547-.09-.798-.104-.25-.294-.457-.503-.631a1.795 1.795 0 0 1 .003-2.766c.208-.172.396-.377.5-.627.104-.249.116-.525.091-.793a1.795 1.795 0 0 1 1.96-1.956c.267.026.54.015.788-.087.248-.103.452-.29.622-.497.33-.399.829-.654 1.387-.654m2.406 3.974a.75.75 0 0 0-1.06 0l-2.47 2.47-.595-.595a.75.75 0 0 0-1.06 1.06l1.125 1.125a.75.75 0 0 0 1.06 0l3-3a.75.75 0 0 0 0-1.06"/></g><defs><clipPath id="a"><path fill="currentColor" d="M0 0h12v12H0z"/></clipPath></defs></svg>