<svg xmlns="http://www.w3.org/2000/svg" width="32" height="32" fill="none" data-fui-icon="true" viewBox="0 0 32 32"><path fill="currentColor" d="M16 24a.75.75 0 0 1-.75-.75v-6.5h-6.5a.75.75 0 0 1 0-1.5h6.5v-6.5a.75.75 0 0 1 1.5 0v6.5h6.5a.75.75 0 0 1 0 1.5h-6.5v6.5A.75.75 0 0 1 16 24"/><path fill="currentColor" fill-rule="evenodd" d="M2 7.25C2 4.35 4.35 2 7.25 2h17.5C27.65 2 30 4.35 30 7.25v17.5c0 2.9-2.35 5.25-5.25 5.25H7.25A5.25 5.25 0 0 1 2 24.75zM7.25 3.5A3.75 3.75 0 0 0 3.5 7.25v17.5a3.75 3.75 0 0 0 3.75 3.75h17.5a3.75 3.75 0 0 0 3.75-3.75V7.25a3.75 3.75 0 0 0-3.75-3.75z" clip-rule="evenodd"/></svg>