<svg xmlns="http://www.w3.org/2000/svg" width="12" height="12" fill="none" data-fui-icon="true" viewBox="0 0 12 12"><path fill="currentColor" d="M9.25 0A2.75 2.75 0 0 1 12 2.75v6.5A2.75 2.75 0 0 1 9.25 12h-6.5A2.75 2.75 0 0 1 0 9.25v-6.5A2.75 2.75 0 0 1 2.75 0zM4.255 6c-.506 0-.986.221-1.316.604L1.5 8.277v.973c0 .69.56 1.25 1.25 1.25h6.5q.188-.002.358-.054L5.454 6.48a1.74 1.74 0 0 0-1.2-.48M2.75 1.5c-.69 0-1.25.56-1.25 1.25v3.227l.302-.351a3.236 3.236 0 0 1 4.687-.23L10.5 9.225V2.75c0-.69-.56-1.25-1.25-1.25zM8 3a1 1 0 1 1 0 2 1 1 0 0 1 0-2"/></svg>