<svg xmlns="http://www.w3.org/2000/svg" width="12" height="12" fill="none" data-fui-icon="true" viewBox="0 0 12 12"><path fill="currentColor" d="M7.549 1.81c.784.133 1.547.37 2.27.702 1.244 1.83 1.863 3.894 1.634 6.275a9.1 9.1 0 0 1-2.785 1.403 6.7 6.7 0 0 1-.596-.965q.49-.185.94-.452a3 3 0 0 1-.23-.173 6.51 6.51 0 0 1-5.564 0l-.23.173q.449.268.938.452a7 7 0 0 1-.596.965A9.1 9.1 0 0 1 .547 8.786C.352 6.733.742 4.65 2.177 2.513a9.1 9.1 0 0 1 2.271-.703q.162.288.291.593a8.4 8.4 0 0 1 2.519 0 6 6 0 0 1 .29-.593M4.17 5.312c-.556 0-.99.498-.99 1.107s.45 1.104.992 1.104c.553 0 .98-.495.99-1.104.009-.609-.436-1.107-.992-1.107m3.656 0c-.557 0-.99.498-.99 1.107s.447 1.104.99 1.104c.553 0 .98-.495.99-1.104.009-.609-.433-1.107-.99-1.107"/></svg>