<svg xmlns="http://www.w3.org/2000/svg" width="16" height="16" fill="none" data-fui-icon="true" viewBox="0 0 16 16"><path stroke="currentColor" stroke-width="1.2" d="M12.443 3.94a10.6 10.6 0 0 0-2.641-.816 7 7 0 0 0-.338.691 9.8 9.8 0 0 0-2.93 0 7 7 0 0 0-.34-.691c-.912.156-1.8.431-2.642.819-1.671 2.485-2.124 4.91-1.898 7.299.979.727 2.074 1.28 3.24 1.634q.392-.532.693-1.124a7 7 0 0 1-1.093-.525q.139-.1.268-.202a7.57 7.57 0 0 0 6.476 0q.131.108.268.202a7 7 0 0 1-1.095.526q.3.591.694 1.123a10.6 10.6 0 0 0 3.24-1.633c.266-2.771-.453-5.173-1.902-7.302Z"/><path fill="currentColor" d="M4.722 8.488c0 .708.521 1.284 1.153 1.284.643 0 1.14-.576 1.151-1.284s-.506-1.29-1.153-1.29c-.648 0-1.151.581-1.151 1.29m4.254 0c0 .708.519 1.284 1.151 1.284.643 0 1.14-.576 1.15-1.284.012-.709-.501-1.29-1.15-1.29s-1.151.581-1.151 1.29"/></svg>