<svg xmlns="http://www.w3.org/2000/svg" width="32" height="32" fill="none" data-fui-icon="true" viewBox="0 0 32 32"><path fill="currentColor" d="M24.92 10a1 1 0 0 1 .995 1.1l-1.524 15.127A4 4 0 0 1 20.398 30h-8.795a4 4 0 0 1-3.994-3.773L6.085 11.1A1 1 0 0 1 7.079 10zm-8.184-8a4.25 4.25 0 0 1 4.203 3.62L21.146 7h6.104a.75.75 0 0 1 0 1.5H4.75a.75.75 0 0 1 0-1.5h6.104l.208-1.38A4.25 4.25 0 0 1 15.264 2zm-1.472 1.5a2.75 2.75 0 0 0-2.72 2.342L12.372 7h7.258l-.174-1.158A2.75 2.75 0 0 0 16.736 3.5z"/></svg>