<svg xmlns="http://www.w3.org/2000/svg" width="16" height="16" fill="none" data-fui-icon="true" viewBox="0 0 16 16"><path fill="currentColor" d="M9.594.75c.453 0 .891.098 1.29.277.094.042.141.142.13.244a.28.28 0 0 1-.241.242 2 2 0 0 0-.732 3.743 3.17 3.17 0 0 1 1.203 1.203 2 2 0 0 0 3.73-.635.43.43 0 0 1 .35-.351q.07-.012.14-.029c.138-.033.286.054.286.196v6.46a3.15 3.15 0 0 1-3.15 3.15H3.4A3.15 3.15 0 0 1 .25 12.1V5.64a2.39 2.39 0 0 1 2.39-2.39.89.89 0 0 0 .775-.455l.243-.434A3.15 3.15 0 0 1 6.406.75zM8 5a3.5 3.5 0 1 0 0 7 3.5 3.5 0 0 0 0-7m0 1.5a2 2 0 1 1 0 4 2 2 0 0 1 0-4m5-5.75a.75.75 0 0 1 .75.75v1.25H15a.75.75 0 0 1 0 1.5h-1.25V5.5a.75.75 0 0 1-1.5 0V4.25H11a.75.75 0 0 1 0-1.5h1.25V1.5A.75.75 0 0 1 13 .75"/></svg>