<svg xmlns="http://www.w3.org/2000/svg" width="20" height="20" fill="none" data-fui-icon="true" viewBox="0 0 20 20"><path fill="currentColor" d="M11.895 1c.85 0 1.66.288 2.312.798a.113.113 0 0 1-.07.202H14a2.25 2.25 0 0 0 0 4.5.25.25 0 0 1 .25.25 2.25 2.25 0 0 0 4.5 0A.25.25 0 0 1 19 6.5l.05-.001c.345-.008.7.187.7.531v8.22A3.75 3.75 0 0 1 16 19H4a3.75 3.75 0 0 1-3.75-3.75V7.03A3.03 3.03 0 0 1 3.28 4a1.53 1.53 0 0 0 1.273-.682l.432-.648A3.75 3.75 0 0 1 8.105 1zM10 6.5a4.25 4.25 0 1 0 0 8.5 4.25 4.25 0 0 0 0-8.5M10 8a2.75 2.75 0 1 1 0 5.5A2.75 2.75 0 0 1 10 8M16.5.75a1 1 0 0 1 1 1v1.5H19a1 1 0 1 1 0 2h-1.5v1.5a1 1 0 1 1-2 0v-1.5H14a1 1 0 1 1 0-2h1.5v-1.5a1 1 0 0 1 1-1"/></svg>