<svg xmlns="http://www.w3.org/2000/svg" width="16" height="16" fill="none" data-fui-icon="true" viewBox="0 0 16 16"><path fill="currentColor" d="M8.5 1.75a.75.75 0 0 1 0 1.5H3.166a.584.584 0 0 0-.583.583v7c0 .322.261.584.583.584h2.602c.29 0 .574.09.811.255l.099.076L8 12.856l1.346-1.114.097-.074c.236-.163.517-.25.806-.251h2.583a.584.584 0 0 0 .583-.584V8.167a.75.75 0 0 1 1.5 0v2.666c0 1.15-.932 2.084-2.083 2.084H10.28l-1.376 1.14a1.42 1.42 0 0 1-1.813-.006l-1.354-1.134H3.166a2.084 2.084 0 0 1-2.083-2.084v-7c0-1.15.933-2.083 2.083-2.083zM5 6.5a.833.833 0 1 1 0 1.666A.833.833 0 0 1 5 6.5m3 0a.833.833 0 1 1 0 1.666A.833.833 0 0 1 8 6.5m4.667-5.417a2.917 2.917 0 1 1-.002 5.834 2.917 2.917 0 0 1 .002-5.834m0 1.5a1.418 1.418 0 1 0 .001 2.835 1.418 1.418 0 0 0-.001-2.835"/></svg>