<svg xmlns="http://www.w3.org/2000/svg" width="24" height="24" fill="none" data-fui-icon="true" viewBox="0 0 24 24"><path fill="currentColor" d="M20.29.657a.751.751 0 0 1 1.21.593v21.5a.75.75 0 0 1-1.21.593l-2.457-1.908-2.457 1.908-.105.068a.75.75 0 0 1-.814-.069L12 21.436l-2.457 1.908a.75.75 0 0 1-.814.068l-.105-.069-2.457-1.907-2.457 1.908a.75.75 0 0 1-1.21-.593V1.25A.75.75 0 0 1 3.71.657l2.457 1.906L8.624.657l.105-.068a.75.75 0 0 1 .814.068L12 2.563 14.457.657a.75.75 0 0 1 .813-.068l.106.068 2.457 1.906zm-7.83 3.448-.107.07a.75.75 0 0 1-.813-.07L9.083 2.2 6.627 4.105l-.106.07a.75.75 0 0 1-.708 0l-.106-.07L4 2.781v18.437l1.707-1.324.106-.069a.75.75 0 0 1 .814.07L9.083 21.8l2.457-1.906.107-.069a.75.75 0 0 1 .813.07l2.456 1.905 2.458-1.906.106-.069a.75.75 0 0 1 .813.07L20 21.217V2.78l-1.707 1.324a.75.75 0 0 1-.813.07l-.106-.07L14.916 2.2zM13.25 15a.75.75 0 0 1 0 1.5h-5.5a.75.75 0 0 1 0-1.5zm3-3.75a.75.75 0 0 1 0 1.5h-8.5a.75.75 0 0 1 0-1.5zm0-3.75a.75.75 0 0 1 0 1.5h-8.5a.75.75 0 0 1 0-1.5z"/></svg>