<svg xmlns="http://www.w3.org/2000/svg" width="20" height="20" fill="none" data-fui-icon="true" viewBox="0 0 20 20"><path fill="currentColor" d="M10 .5c4.16 0 7.5 3.376 7.5 7.75 0 1.408-.476 2.809-1.14 4.087-.666 1.283-1.546 2.486-2.412 3.513a30.4 30.4 0 0 1-3.388 3.41l-.062.051-.017.014-.004.004-.001.001-.476-.58.475.58a.75.75 0 0 1-.95 0l.475-.58-.476.58h-.002q0-.002-.003-.005l-.017-.014-.062-.05-.222-.193a30.376 30.376 0 0 1-3.166-3.219c-.866-1.026-1.746-2.23-2.412-3.512C2.975 11.059 2.5 9.658 2.5 8.25 2.5 3.876 5.84.5 10 .5M10 2C6.704 2 4 4.668 4 8.25c0 1.08.368 2.237.97 3.395.599 1.152 1.406 2.263 2.228 3.239A29 29 0 0 0 10 17.758a28.893 28.893 0 0 0 2.802-2.874c.822-.976 1.628-2.087 2.227-3.24.602-1.157.971-2.313.971-3.394C16 4.668 13.296 2 10 2m0 2.5a3.5 3.5 0 1 1 0 7 3.5 3.5 0 0 1 0-7M10 6a2 2 0 1 0 0 4 2 2 0 0 0 0-4"/></svg>