<svg xmlns="http://www.w3.org/2000/svg" width="32" height="32" fill="none" data-fui-icon="true" viewBox="0 0 32 32"><path fill="currentColor" d="M27.294 1.154a.751.751 0 0 1 1.206.596v28.5a.75.75 0 0 1-1.206.596l-3.461-2.652-3.46 2.652a.75.75 0 0 1-.912 0L16 28.194l-3.46 2.652a.75.75 0 0 1-.913 0l-3.461-2.652-3.46 2.652A.75.75 0 0 1 3.5 30.25V1.75a.75.75 0 0 1 1.206-.596l3.46 2.65 3.461-2.65.105-.067a.75.75 0 0 1 .807.067L16 3.804l3.46-2.65.105-.067a.75.75 0 0 1 .808.067l3.46 2.65zM16.456 5.345a.75.75 0 0 1-.912 0l-3.461-2.65-3.46 2.65a.75.75 0 0 1-.912 0L5 3.268V28.73l2.71-2.076.106-.067a.75.75 0 0 1 .807.067l3.46 2.65 3.46-2.65.106-.067a.75.75 0 0 1 .807.067l3.46 2.65 3.461-2.65a.75.75 0 0 1 .912 0L27 28.73V3.268l-2.71 2.077a.75.75 0 0 1-.913 0l-3.461-2.65zm.419 14.905a.75.75 0 0 1 0 1.5h-6.75a.75.75 0 0 1 0-1.5zm5-5a.75.75 0 0 1 0 1.5h-11.75a.75.75 0 0 1 0-1.5zm0-5a.75.75 0 0 1 0 1.5h-11.75a.75.75 0 0 1 0-1.5z"/></svg>