<svg xmlns="http://www.w3.org/2000/svg" width="17" height="16" fill="none" data-fui-icon="true" viewBox="0 0 17 16"><path stroke="currentColor" stroke-width="1.3" d="M3.572 9.229c-.119.052-.542.1-.822.1a4 4 0 0 1-.36-.018c-.094-.01-.171.08-.136.168a3.08 3.08 0 0 0 2.803 1.905 6.24 6.24 0 0 1-4.01 1.294c-.133-.003-.19.175-.074.24A8.8 8.8 0 0 0 5.217 14c5.661 0 8.756-4.616 8.756-8.619q0-.196-.009-.391A6.2 6.2 0 0 0 15.5 3.423q0-.001-.001-.001c-.481.21-.994.36-1.53.443-.053.009-.08-.065-.035-.096a3.05 3.05 0 0 0 1.034-1.242c.048-.105-.067-.2-.169-.148a6.2 6.2 0 0 1-1.666.577A3.1 3.1 0 0 0 10.886 2c-1.7 0-3.078 1.356-3.078 3.03q.001.356.08.69a8.79 8.79 0 0 1-6.229-3.03c-.056-.066-.16-.057-.2.02-.211.412-.33.876-.33 1.367 0 1.05.543 1.979 1.368 2.522a3.1 3.1 0 0 1-1.36-.36.023.023 0 0 0-.034.02c0 1.456 1.044 2.672 2.436 2.963m.033.007-.033-.007m.033.007-.033-.007"/></svg>