<svg xmlns="http://www.w3.org/2000/svg" width="16" height="16" fill="none" data-fui-icon="true" viewBox="0 0 16 16"><path fill="currentColor" d="M3.238.118c1.325 0 2.269 1.066 2.493 2.194A7.8 7.8 0 0 0 6.75 4.89a5.6 5.6 0 0 1 2.5 0q.091-.142.193-.325a7.8 7.8 0 0 0 .827-2.251c.224-1.129 1.168-2.195 2.493-2.195h1.262c1.03 0 2.052.874 1.83 2.08-.346 1.88-1.375 3.255-2.29 4.145-.35.34-.688.613-.973.822A5.57 5.57 0 0 1 8 15.882a5.568 5.568 0 0 1-4.592-8.716 9 9 0 0 1-.972-.823C1.521 5.453.492 4.079.146 2.198-.076.992.945.118 1.976.118zM8 6.246a4.068 4.068 0 1 0 0 8.136 4.068 4.068 0 0 0 0-8.136m1.17 2.538a.75.75 0 0 1 1.061 1.06l-2.457 2.459a.75.75 0 0 1-.947.093l-.115-.093-.945-.946a.75.75 0 0 1 1.06-1.06l.416.414zM1.976 1.618a.4.4 0 0 0-.294.118.2.2 0 0 0-.06.19c.272 1.479 1.086 2.588 1.861 3.342.348.338.682.597.941.78q.42-.353.904-.62-.04-.065-.08-.135a9.3 9.3 0 0 1-.988-2.689c-.12-.604-.58-.986-1.021-.986zm10.788 0c-.442 0-.901.382-1.021.986a9.3 9.3 0 0 1-.988 2.689q-.04.07-.08.136.483.266.903.618c.26-.183.595-.441.942-.78.775-.753 1.59-1.862 1.861-3.34a.21.21 0 0 0-.06-.19.4.4 0 0 0-.295-.119z"/></svg>