<svg xmlns="http://www.w3.org/2000/svg" width="24" height="24" fill="none" data-fui-icon="true" viewBox="0 0 24 24"><path fill="currentColor" d="M17.604 2.612a1.5 1.5 0 1 1 2.897.777l-.834 3.112h2.337a1.5 1.5 0 0 1 0 3h-3.14l-1.361 5.079h2.578a1.5 1.5 0 0 1 0 3H16.7l-.94 3.505a1.501 1.501 0 0 1-2.898-.777l.732-2.728H7.465l-.939 3.504a1.5 1.5 0 0 1-2.898-.777l.73-2.727H2a1.5 1.5 0 1 1 0-3h3.162L6.523 9.5h-2.6a1.5 1.5 0 0 1 0-3h3.405L8.37 2.612a1.5 1.5 0 0 1 2.898.777l-.834 3.113h6.127zM8.269 14.58h6.127l1.362-5.08H9.63z"/></svg>