<svg xmlns="http://www.w3.org/2000/svg" width="16" height="16" fill="none" data-fui-icon="true" viewBox="0 0 16 16"><path fill="currentColor" d="M13.173 5.553a.75.75 0 0 1 .75.75v3.941c0 .22.071.43.196.597l.4.532c.529.703.095 1.831-.894 1.831h-2.963c-.057 1.389-1.159 2.546-2.575 2.546-1.455 0-2.581-1.22-2.581-2.66v-.636a.75.75 0 0 1 .75-.75h6.639a2.5 2.5 0 0 1-.472-1.46V6.303a.75.75 0 0 1 .75-.75m-6.161 7.651c.054.611.54 1.046 1.075 1.046s1.021-.435 1.075-1.046zM13.47.47a.75.75 0 0 1 1.06 1.06l-12 12a.75.75 0 1 1-1.06-1.06zM8.087.25c.615 0 1.21.099 1.767.282a.75.75 0 0 1-.47 1.425 4.1 4.1 0 0 0-1.297-.207C5.72 1.75 3.75 3.759 3.75 6.303V8a.75.75 0 0 1-1.5 0V6.303C2.25 2.99 4.834.25 8.087.25"/></svg>