<svg xmlns="http://www.w3.org/2000/svg" width="12" height="12" fill="none" data-fui-icon="true" viewBox="0 0 12 12"><path fill="currentColor" d="M5.102 1.467c.773-.491 1.835.054 1.835 1.018v7.03c0 1.028-1.209 1.58-1.986.906L3.307 8.996a.75.75 0 0 0-.492-.184h-.752a1.5 1.5 0 0 1-1.5-1.5V4.688a1.5 1.5 0 0 1 1.5-1.5h.752a.75.75 0 0 0 .492-.183L4.95 1.579zm-.813 2.67a2.25 2.25 0 0 1-1.474.55h-.752v2.625h.752a2.25 2.25 0 0 1 1.474.55l1.149.995V3.142zM7.691 4a.75.75 0 0 1 1.059-.059l-.396.444.397-.444v.001l.001.001.003.002.006.005.013.013.036.036q.042.042.102.112c.079.094.177.227.274.398.193.345.376.846.377 1.491 0 .645-.184 1.146-.377 1.491a2.6 2.6 0 0 1-.376.51l-.036.036-.013.013-.006.005q-.002 0-.003.002h-.001v.002L8.25 7.5l.5.559a.75.75 0 0 1-1.056-1.064l.05-.048-.004.001.024-.025c.026-.032.069-.087.113-.166.087-.156.186-.406.186-.757s-.099-.601-.186-.757a1 1 0 0 0-.137-.192q0 0 .003.002l.003.003h.001l-.052-.051A.75.75 0 0 1 7.691 4"/></svg>