<svg xmlns="http://www.w3.org/2000/svg" width="16" height="16" fill="none" data-fui-icon="true" viewBox="0 0 16 16"><g clip-path="url(#a)"><path fill="currentColor" d="M12.8.25a2.95 2.95 0 0 1 2.95 2.95v9.6a2.95 2.95 0 0 1-2.95 2.95H3.2A2.95 2.95 0 0 1 .25 12.8V3.2A2.95 2.95 0 0 1 3.2.25zM1.75 12.8c0 .8.65 1.45 1.45 1.45h9.6c.8 0 1.45-.65 1.45-1.45v-2.65h-3.152C10.744 11.503 9.46 12.483 8 12.483s-2.744-.98-3.098-2.333H1.75zM3.2 1.75c-.8 0-1.45.65-1.45 1.45v5.45h3.806a.75.75 0 0 1 .75.75c0 .831.737 1.583 1.694 1.583s1.694-.752 1.694-1.583a.75.75 0 0 1 .75-.75h3.806V3.2c0-.8-.65-1.45-1.45-1.45z"/></g><defs><clipPath id="a"><path fill="currentColor" d="M0 0h16v16H0z"/></clipPath></defs></svg>