<svg xmlns="http://www.w3.org/2000/svg" width="13" height="12" fill="none" data-fui-icon="true" viewBox="0 0 13 12"><path fill="currentColor" d="M8.452.25c.615 0 1.186.324 1.502.852l1.837 3.07a1.75 1.75 0 0 1-.182 2.048l-4.27 4.906a1.75 1.75 0 0 1-2.64 0L.43 6.22a1.75 1.75 0 0 1-.181-2.047l1.837-3.071A1.75 1.75 0 0 1 3.587.25zm-4.865 1.5a.25.25 0 0 0-.215.122l-1.837 3.07a.25.25 0 0 0 .027.293l4.27 4.906a.25.25 0 0 0 .376 0l4.27-4.906c.07-.081.081-.2.026-.293l-1.837-3.07a.25.25 0 0 0-.215-.122zm1.915 1.583c.086-.566.902-.566.988 0l.095.618a1 1 0 0 0 .837.837l.618.095c.566.086.566.902 0 .988l-.618.095a1 1 0 0 0-.837.837l-.095.618c-.086.566-.901.566-.988 0l-.095-.618a1 1 0 0 0-.837-.837l-.618-.095c-.566-.086-.566-.902 0-.988l.618-.095a1 1 0 0 0 .837-.837z"/></svg>