<svg xmlns="http://www.w3.org/2000/svg" width="16" height="16" fill="none" data-fui-icon="true" viewBox="0 0 16 16"><path fill="currentColor" d="M10.96 2.356a1.5 1.5 0 0 1 2.898.778l-.332 1.238h.73l.153.008a1.5 1.5 0 0 1 0 2.984l-.153.008h-1.533l-.55 2.053h.88l.153.007a1.5 1.5 0 0 1 0 2.985l-.153.008h-1.684l-.475 1.775a1.501 1.501 0 0 1-2.899-.776l.268-1H5.595L5.119 14.2a1.501 1.501 0 0 1-2.898-.776l.267-1h-.743a1.5 1.5 0 0 1 0-3h1.548l.55-2.052h-.895a1.5 1.5 0 0 1 0-3h1.698l.54-2.016a1.5 1.5 0 0 1 2.898.778l-.332 1.238h2.669zM6.399 9.425h2.67l.55-2.053h-2.67z"/></svg>