<svg xmlns="http://www.w3.org/2000/svg" width="12" height="12" fill="none" data-fui-icon="true" viewBox="0 0 12 12"><g clip-path="url(#a)"><path fill="currentColor" fill-rule="evenodd" d="M2.897.47A.75.75 0 0 0 1.63.853a3.55 3.55 0 0 0 .97 3.202l1.458 1.459-.418.418-.474-.474A.75.75 0 1 0 2.106 6.52l.474.474L.476 9.097l-.006.006a.75.75 0 0 0 0 1.061l.88.88a2.41 2.41 0 0 0 3.408 0l.293-.293a2.41 2.41 0 0 0 .446-2.794L6 7.455l.503.502a2.41 2.41 0 0 0 .446 2.794l.293.293a2.41 2.41 0 0 0 3.408 0l.878-.878.002-.002a.75.75 0 0 0 0-1.06v-.002L9.42 6.993l.474-.474a.75.75 0 0 0-1.06-1.06l-.475.473-.418-.418 1.458-1.459a3.55 3.55 0 0 0 .97-3.202A.75.75 0 0 0 9.103.47L6 3.573zm5.112 7.934.35-.35 1.58 1.58-.35.35a.91.91 0 0 1-1.286 0l-.294-.294a.91.91 0 0 1 0-1.286m-5.948 1.23 1.58-1.58.35.35a.91.91 0 0 1 0 1.286l-.294.293a.91.91 0 0 1-1.286 0z" clip-rule="evenodd"/></g><defs><clipPath id="a"><path fill="currentColor" d="M0 0h12v12H0z"/></clipPath></defs></svg>