<svg xmlns="http://www.w3.org/2000/svg" width="24" height="24" fill="none" data-fui-icon="true" viewBox="0 0 24 24"><path fill="currentColor" d="M17.96 3.5a3.54 3.54 0 0 1 3.54 3.54v3.46a.75.75 0 0 1-1.5 0V9.169l-6.64 4.526a4.63 4.63 0 0 1-5.22 0L1.5 9.17v7.791A2.04 2.04 0 0 0 3.54 19h13.21a.75.75 0 0 1 0 1.5H3.54A3.54 3.54 0 0 1 0 16.96V7.04A3.54 3.54 0 0 1 3.54 3.5zm1.37 9.048a.75.75 0 0 1 1.06-.03l3.375 3.187.006.008a1 1 0 0 1 .093.108l.017.028q.031.047.055.098l.01.028a.75.75 0 0 1 0 .55q-.003.011-.008.022a1 1 0 0 1-.057.103q-.008.014-.017.027a1 1 0 0 1-.093.11l-.006.008-3.375 3.187a.75.75 0 1 1-1.03-1.09L21.364 17h-6.739a.75.75 0 0 1 0-1.5h6.74l-2.005-1.893a.75.75 0 0 1-.03-1.06M3.54 5A2.04 2.04 0 0 0 1.5 7.04v.313l7.485 5.103a3.13 3.13 0 0 0 3.53 0L20 7.353V7.04A2.04 2.04 0 0 0 17.96 5z"/></svg>