<svg xmlns="http://www.w3.org/2000/svg" width="20" height="20" fill="none" data-fui-icon="true" viewBox="0 0 20 20"><path fill="currentColor" d="M11.05 1.603c2.62 0 4.075.945 4.8 2.166q.21.356.333.71c1.253.593 1.93 1.466 2.267 2.314.346.872.316 1.669.279 2.02q-.019.164-.038.31l-.001.005a7.2 7.2 0 0 1-1.57 3.525c-1.231 1.476-3.336 2.738-6.839 2.738h-.906a.02.02 0 0 0-.017.014l-.52 2.606a1.52 1.52 0 0 1-1.49 1.22H4.895a1.365 1.365 0 0 1-1.335-1.645l.138-.658h-1.1c-.872 0-1.52-.81-1.33-1.661L3.906 3.393a2.286 2.286 0 0 1 2.232-1.79zm5.37 4.94q-.015.131-.035.263c-.07.462-.37 1.849-1.588 3.126-1.238 1.297-3.336 2.387-6.82 2.387h-.936a.02.02 0 0 0-.017.014l-.862 3.444c-.12.484-.466.862-.908 1.04l-.192.914h2.286a.02.02 0 0 0 .017-.014l.522-2.606c.142-.71.765-1.22 1.488-1.22h.906c3.096 0 4.764-1.093 5.686-2.199a5.7 5.7 0 0 0 1.235-2.762l.001-.006c.014-.098.025-.184.034-.269a2.85 2.85 0 0 0-.181-1.307 2.56 2.56 0 0 0-.627-.92q-.005.066-.01.116M6.137 3.104a.786.786 0 0 0-.768.615l-2.602 11.71H4.69a.02.02 0 0 0 .017-.014l.862-3.445a1.52 1.52 0 0 1 1.472-1.15h.937c3.146 0 4.826-.972 5.734-1.923.928-.972 1.146-2.023 1.19-2.314q.016-.101.027-.205c.032-.284.067-1.11-.367-1.842-.394-.663-1.289-1.432-3.512-1.432z"/></svg>