<svg xmlns="http://www.w3.org/2000/svg" width="20" height="20" fill="none" data-fui-icon="true" viewBox="0 0 20 20"><path fill="currentColor" d="M10 0a7.5 7.5 0 0 1 4.548 13.464c-.332.253-.518.575-.54.883l-.098 1.361a2.47 2.47 0 0 1-1.425 2.06 2.5 2.5 0 0 1-4.971 0 2.47 2.47 0 0 1-1.424-2.06l-.098-1.361c-.022-.308-.208-.63-.54-.883A7.5 7.5 0 0 1 10 0m-.865 18a1 1 0 0 0 1.73 0zM10 1.5a6 6 0 0 0-3.638 10.773c.582.444 1.066 1.127 1.126 1.966l.099 1.362c.036.506.458.899.966.899h.07L7.258 7.867a.75.75 0 0 1 .923-.845l.731.183.752-.376a.75.75 0 0 1 .67 0l.752.376.731-.183a.75.75 0 0 1 .923.845L11.378 16.5h.07a.97.97 0 0 0 .966-.9l.098-1.36c.06-.84.544-1.523 1.126-1.967A6 6 0 0 0 10 1.5m-.665 7.17a.75.75 0 0 1-.419.075L10 15.607l1.084-6.862a.75.75 0 0 1-.419-.074L10 8.339z"/></svg>