<svg xmlns="http://www.w3.org/2000/svg" width="12" height="12" fill="none" data-fui-icon="true" viewBox="0 0 12 12"><path fill="currentColor" d="M9.656 6.75a.75.75 0 0 1 .75.75v.75h.75a.75.75 0 1 1 0 1.5h-.75v.75a.75.75 0 1 1-1.5 0v-.75h-.75a.75.75 0 0 1 0-1.5h.75V7.5a.75.75 0 0 1 .75-.75M8.312.938a2.75 2.75 0 0 1 2.75 2.749v1.717a.75.75 0 0 1-1.5 0V3.687c0-.69-.559-1.25-1.25-1.25H3.72c-.69 0-1.25.56-1.25 1.25V8.25c0 .69.56 1.25 1.25 1.25h2.475a.75.75 0 0 1 0 1.5H3.72a2.75 2.75 0 0 1-2.75-2.75V3.688a2.75 2.75 0 0 1 2.75-2.75zM7.27 6.218a.75.75 0 0 1 0 1.5H4.094a.75.75 0 0 1 0-1.5zm.886-2.343a.75.75 0 0 1 0 1.5H4.094a.75.75 0 0 1 0-1.5z"/></svg>