<svg xmlns="http://www.w3.org/2000/svg" width="20" height="20" fill="none" data-fui-icon="true" viewBox="0 0 20 20"><path fill="currentColor" d="M12.581 3.016c1.306.222 2.578.615 3.782 1.17 2.076 3.05 3.107 6.49 2.726 10.459a15.2 15.2 0 0 1-4.642 2.34 11 11 0 0 1-.994-1.61 10 10 0 0 0 1.568-.752 6 6 0 0 1-.384-.29 10.85 10.85 0 0 1-9.274 0q-.187.145-.384.29a10 10 0 0 0 1.564.751 11 11 0 0 1-.993 1.61 15.2 15.2 0 0 1-4.639-2.341C.587 11.22 1.236 7.749 3.63 4.188a15.2 15.2 0 0 1 3.785-1.172q.268.482.485.99c1.391-.21 2.807-.21 4.198 0q.216-.509.484-.99m-5.63 5.836c-.927 0-1.648.832-1.648 1.846s.747 1.84 1.651 1.84c.922 0 1.634-.825 1.65-1.84.015-1.014-.726-1.846-1.653-1.846m6.094 0c-.928 0-1.65.832-1.65 1.846s.745 1.84 1.65 1.84c.922 0 1.633-.825 1.649-1.84.015-1.014-.72-1.846-1.649-1.846"/></svg>