<svg xmlns="http://www.w3.org/2000/svg" width="20" height="20" fill="none" data-fui-icon="true" viewBox="0 0 20 20"><path fill="currentColor" fill-rule="evenodd" d="M10 6.5a.75.75 0 0 1 .75.75v4a.75.75 0 0 1-1.5 0v-4A.75.75 0 0 1 10 6.5" clip-rule="evenodd"/><path fill="currentColor" d="M11 14.5a1 1 0 1 1-2 0 1 1 0 0 1 2 0"/><path fill="currentColor" fill-rule="evenodd" d="M10 2.5a.86.86 0 0 0-.747.435L1.59 16.457a.698.698 0 0 0 .608 1.043H17.8a.7.7 0 0 0 .608-1.043L10.747 2.935A.86.86 0 0 0 10 2.5m-2.052-.304a2.359 2.359 0 0 1 4.104 0l7.662 13.521A2.2 2.2 0 0 1 17.801 19H2.2a2.2 2.2 0 0 1-1.913-3.283z" clip-rule="evenodd"/></svg>