<svg xmlns="http://www.w3.org/2000/svg" width="32" height="32" fill="none" data-fui-icon="true" viewBox="0 0 32 32"><path fill="currentColor" d="M21.667 2.917a.75.75 0 0 1 .75.75v1.917h1.916A3.417 3.417 0 0 1 27.75 9v15.334a3.417 3.417 0 0 1-3.417 3.416H7.667a3.417 3.417 0 0 1-3.417-3.416V9a3.417 3.417 0 0 1 3.417-3.416h1.916V3.667a.75.75 0 0 1 1.5 0v1.917h9.834V3.667a.75.75 0 0 1 .75-.75m-14 4.167A1.917 1.917 0 0 0 5.75 9v15.334c0 1.058.859 1.916 1.917 1.916h16.666a1.917 1.917 0 0 0 1.917-1.916V9a1.917 1.917 0 0 0-1.917-1.916zm11.139 5.72a.75.75 0 1 1 1.06 1.06l-2.805 2.806 2.802 2.803a.75.75 0 0 1-1.06 1.06L16 17.73l-2.803 2.803a.75.75 0 0 1-1.06-1.06l2.803-2.803-2.806-2.806a.75.75 0 0 1 1.06-1.06L16 15.609z"/></svg>