<svg xmlns="http://www.w3.org/2000/svg" width="24" height="24" fill="none" data-fui-icon="true" viewBox="0 0 24 24"><path fill="currentColor" d="M9.553 3.255q.2.362.378.735a17.6 17.6 0 0 1 4.132 0q.177-.374.38-.735l.257-.464.523.089c1.428.243 2.824.649 4.159 1.21l.567.252.19.087.117.172c2.58 3.793 3.872 8.094 3.397 13.045l-.032.33-.267.2a18.9 18.9 0 0 1-5.8 2.923l-.505.153-.315-.424a14 14 0 0 1-1.26-2.039l-.016-.033a13.8 13.8 0 0 1-3.458.443c-1.172 0-2.335-.15-3.463-.444l-.016.032a14 14 0 0 1-1.258 2.04l-.315.426-.507-.154a19 19 0 0 1-5.795-2.925l-.268-.2-.031-.331c-.405-4.267.41-8.609 3.385-13.035l.119-.175.191-.088A19 19 0 0 1 8.771 2.88l.524-.09zm5.95 1.203q-.158.316-.297.643l-.227.535-.576-.087a16 16 0 0 0-4.812 0l-.574.087-.228-.534a12 12 0 0 0-.298-.644A17.5 17.5 0 0 0 4.86 5.623c-2.595 3.94-3.343 7.763-3.046 11.544 1.397.996 2.931 1.78 4.553 2.33q.224-.334.427-.68-.617-.28-1.201-.625l-.979-.58.92-.67q.221-.164.444-.337l.364-.28.415.197a12.27 12.27 0 0 0 10.488 0l.43-.204.366.301a6 6 0 0 0 .407.309l.974.663-1.013.601q-.586.347-1.205.626.203.348.427.68a17.4 17.4 0 0 0 4.558-2.33c.345-4.36-.795-8.152-3.06-11.549a17.4 17.4 0 0 0-3.625-1.161m-7.161 6.164c1.112 0 2.002 1 1.983 2.217-.02 1.217-.874 2.207-1.98 2.207-1.084 0-1.98-.99-1.98-2.207 0-1.218.864-2.217 1.977-2.217m7.312 0c1.115 0 1.998 1 1.979 2.217-.02 1.217-.873 2.207-1.979 2.207-1.086 0-1.979-.99-1.98-2.207 0-1.218.866-2.217 1.98-2.217"/></svg>