<svg xmlns="http://www.w3.org/2000/svg" width="32" height="32" fill="none" data-fui-icon="true" viewBox="0 0 32 32"><path fill="currentColor" d="M16.356 29.204a.75.75 0 0 1-.712 0l.356-.66zM14.92 3.237a3.4 3.4 0 0 1 2.16 0l8.334 2.777a3.42 3.42 0 0 1 2.336 3.241v6.628c0 3.566-1.538 6.198-3.733 8.282-2.168 2.057-5.01 3.609-7.66 5.039l-.357-.66-.356.66c-2.651-1.43-5.493-2.983-7.66-5.04-2.196-2.083-3.734-4.715-3.734-8.28V9.254c0-1.47.941-2.776 2.336-3.24zm1.686 1.423a1.9 1.9 0 0 0-1.212 0L7.06 7.437c-.783.261-1.311.994-1.311 1.818v6.628c0 3.064 1.296 5.324 3.267 7.194 1.91 1.812 4.423 3.228 6.983 4.613 2.56-1.385 5.073-2.8 6.983-4.613 1.97-1.87 3.267-4.13 3.267-7.194V9.255c0-.824-.528-1.557-1.31-1.818zm2.53 7.476a.75.75 0 0 1 1.061 1.06l-5 5a.75.75 0 0 1-1.06 0l-2.334-2.332a.75.75 0 0 1 1.06-1.06l1.803 1.802z"/></svg>