<svg xmlns="http://www.w3.org/2000/svg" width="12" height="12" fill="none" data-fui-icon="true" viewBox="0 0 12 12"><path fill="currentColor" d="M5.959 0c.497 0 .958.217 1.286.577l2.756 3.025c.326.357.499.829.499 1.307v5.206C10.5 11.09 9.765 12 8.716 12H3.284c-1.05 0-1.784-.91-1.784-1.885v-8.23C1.5.91 2.235 0 3.284 0zM3.284 1.5c-.093 0-.284.106-.284.385v8.23c0 .28.191.385.284.385h5.432c.093 0 .284-.106.284-.385V5.19H7.423c-1.05 0-1.785-.911-1.785-1.885V1.5zm2.837 4a.5.5 0 0 1 .5.5v1.83l.807-.806a.5.5 0 0 1 .707.707L6.548 9.318a.69.69 0 0 1-.973 0L4.111 7.854a.5.5 0 1 1 .707-.708l.803.803V6a.5.5 0 0 1 .5-.5m1.017-2.196c0 .28.192.385.285.385h.629l-.914-1.003z"/></svg>