<svg xmlns="http://www.w3.org/2000/svg" width="24" height="24" fill="none" data-fui-icon="true" viewBox="0 0 24 24"><g clip-path="url(#a)"><path fill="currentColor" d="M12 0a3.59 3.59 0 0 1 2.77 1.304c.344.413.753.788 1.25.994.435.18.91.219 1.381.191l.203-.015a3.6 3.6 0 0 1 2.89 1.039 3.6 3.6 0 0 1 1.036 2.883l-.014.203c-.027.472.012.95.193 1.385.206.496.58.905.992 1.248A3.6 3.6 0 0 1 24 12c0 1.11-.503 2.1-1.292 2.76l-.153.135c-.353.317-.664.686-.845 1.123-.208.501-.229 1.056-.179 1.597a3.6 3.6 0 0 1-1.038 2.88 3.6 3.6 0 0 1-2.886 1.037c-.538-.05-1.091-.03-1.591.178l-.183.085c-.416.216-.768.548-1.07.91A3.59 3.59 0 0 1 12 24a3.59 3.59 0 0 1-2.646-1.16l-.126-.145c-.298-.36-.647-.689-1.059-.903l-.18-.085c-.495-.206-1.043-.226-1.576-.175l-.194.013a3.6 3.6 0 0 1-2.698-1.05 3.6 3.6 0 0 1-1.039-2.88c.044-.472.034-.954-.109-1.401l-.07-.19c-.181-.436-.493-.804-.847-1.12l-.153-.133A3.6 3.6 0 0 1 0 12c0-1.048.448-1.991 1.162-2.65l.147-.127c.362-.3.695-.65.91-1.065l.086-.181c.18-.434.22-.91.193-1.38l-.016-.2a3.6 3.6 0 0 1 1.04-2.884 3.6 3.6 0 0 1 2.894-1.037c.464.044.94.034 1.38-.107l.187-.067c.493-.205.898-.578 1.237-.99A3.6 3.6 0 0 1 12 0m0 1.5c-.652 0-1.234.296-1.622.767-.416.504-1.008 1.083-1.818 1.42-.816.338-1.642.344-2.289.282a2.1 2.1 0 0 0-1.51.443l-.179.161a2.1 2.1 0 0 0-.605 1.684c.06.648.053 1.477-.288 2.296-.338.814-.92 1.41-1.425 1.827-.41.339-.687.826-.75 1.379L1.5 12c0 .65.294 1.229.76 1.616.507.42 1.088 1.017 1.428 1.832.342.822.349 1.655.289 2.305a2.1 2.1 0 0 0 .605 1.68l.18.16c.435.348.977.497 1.508.446.647-.062 1.476-.057 2.293.283.81.337 1.403.913 1.82 1.416.388.468.967.762 1.617.762.647 0 1.224-.291 1.611-.756.42-.503 1.016-1.081 1.829-1.419.823-.342 1.658-.347 2.308-.286a2.1 2.1 0 0 0 1.685-.605c.459-.46.661-1.076.605-1.68-.06-.652-.055-1.487.287-2.312.338-.814.918-1.411 1.421-1.832A2.09 2.09 0 0 0 22.5 12c0-.649-.292-1.228-.758-1.615-.503-.419-1.081-1.013-1.419-1.824-.341-.822-.347-1.655-.286-2.305a2.1 2.1 0 0 0-.604-1.683 2.1 2.1 0 0 0-1.688-.606c-.649.061-1.48.057-2.3-.283-.815-.338-1.41-.918-1.829-1.423A2.09 2.09 0 0 0 12 1.5m3.223 6.98a.75.75 0 0 1 1.06 1.06l-6 6.002a.75.75 0 0 1-1.061 0L6.97 13.291a.75.75 0 1 1 1.06-1.06l1.72 1.72z"/></g><defs><clipPath id="a"><path fill="currentColor" d="M0 0h24v24H0z"/></clipPath></defs></svg>