<svg xmlns="http://www.w3.org/2000/svg" width="24" height="24" fill="none" data-fui-icon="true" viewBox="0 0 24 24"><path fill="currentColor" d="M17.57 1.146c2.419-.036 5.059.823 6.222 2.853.152.266.208.552.208.81V21.61a.96.96 0 0 1-.654.908.99.99 0 0 1-1.045-.25c-1.094-1.16-3.086-1.776-5.109-1.699-2.035.079-3.796.843-4.553 2.075a.75.75 0 0 1-1.278 0c-.758-1.232-2.518-1.996-4.553-2.075-2.023-.077-4.015.54-5.109 1.7a.99.99 0 0 1-1.045.249A.96.96 0 0 1 0 21.61V4.808c0-.258.056-.544.208-.809 1.163-2.03 3.803-2.89 6.222-2.853 2.042.03 4.232.702 5.57 2.162 1.338-1.46 3.528-2.132 5.57-2.162m-11.163 1.5c-2.179-.033-4.13.759-4.897 2.1h-.001l-.001.001-.003.01a.2.2 0 0 0-.005.05v15.669c1.485-1.036 3.493-1.478 5.365-1.406 1.558.06 3.164.483 4.385 1.34V4.783c-.848-1.322-2.752-2.107-4.843-2.138m11.186 0c-2.09.03-3.995.816-4.843 2.138V20.41c1.22-.856 2.827-1.279 4.385-1.339 1.872-.072 3.88.37 5.365 1.406V4.809c0-.04-.008-.06-.01-.064-.768-1.34-2.718-2.132-4.897-2.1"/></svg>