<svg xmlns="http://www.w3.org/2000/svg" width="16" height="16" fill="none" data-fui-icon="true" viewBox="0 0 16 16"><path fill="currentColor" d="M8.84 1.132c2.135 0 3.356.773 3.97 1.806.106.178.19.36.257.538 1.001.49 1.554 1.204 1.832 1.903.29.729.263 1.392.232 1.686l-.031.252v.005l-.031.2a5.9 5.9 0 0 1-1.26 2.697c-1.014 1.217-2.742 2.244-5.584 2.244h-.613l-.396 1.976a1.365 1.365 0 0 1-1.338 1.096H3.915A1.243 1.243 0 0 1 2.7 14.037l.073-.346h-.694a1.242 1.242 0 0 1-1.213-1.51l2.112-9.5a1.98 1.98 0 0 1 1.931-1.55zm4.411 4.356a4.9 4.9 0 0 1-1.305 2.56c-1.024 1.073-2.744 1.957-5.564 1.957H5.74l-.664 2.653c-.101.407-.38.731-.742.902l-.1.475h1.534l.394-1.975.03-.118c.168-.575.699-.979 1.308-.98h.726c2.436 0 3.727-.857 4.433-1.704a4.4 4.4 0 0 0 .955-2.135V7.12c.011-.079.02-.145.027-.21.017-.162.03-.556-.136-.975a1.9 1.9 0 0 0-.253-.446M4.91 2.632a.48.48 0 0 0-.466.375L2.402 12.19h1.243l.664-2.653.033-.111a1.365 1.365 0 0 1 1.29-.922h.75c2.483 0 3.785-.765 4.479-1.492.713-.747.88-1.554.912-1.77q.012-.077.02-.158c.024-.216.05-.838-.273-1.38-.283-.475-.942-1.073-2.68-1.073z"/></svg>