<svg xmlns="http://www.w3.org/2000/svg" width="20" height="20" fill="none" data-fui-icon="true" viewBox="0 0 20 20"><path fill="currentColor" d="M17.189 3.391c.122-.002.393.028.57.171a.63.63 0 0 1 .21.398c.018.114.044.375.023.578-.22 2.322-1.18 7.958-1.669 10.559-.205 1.1-.612 1.47-1.006 1.505-.856.079-1.506-.564-2.335-1.105-1.295-.847-2.027-1.375-3.287-2.201-1.454-.956-.511-1.481.318-2.34.216-.224 3.987-3.642 4.058-3.952.01-.04.019-.183-.068-.259-.085-.076-.212-.05-.304-.03-.131.03-2.2 1.394-6.216 4.094q-.88.605-1.597.588c-.525-.01-1.538-.296-2.291-.54-.921-.299-1.656-.457-1.591-.965q.049-.396 1.096-.811 6.444-2.797 8.591-3.689c4.093-1.696 4.943-1.99 5.498-2"/></svg>