<svg xmlns="http://www.w3.org/2000/svg" width="24" height="24" fill="none" data-fui-icon="true" viewBox="0 0 24 24"><path fill="currentColor" d="M10.276 2.4c.773-1.314 2.674-1.314 3.447 0l9.815 16.685c.784 1.333-.177 3.015-1.724 3.015H2.185c-1.547 0-2.508-1.682-1.723-3.015zm9.026 12.445C18.3 16.269 15.88 19 12 19c-3.88 0-6.302-2.73-7.305-4.155l-2.94 5a.5.5 0 0 0 .43.755h19.63a.5.5 0 0 0 .43-.754zM15.58 10.63a3.75 3.75 0 1 1-7.16 0c-.297.2-.574.417-.83.642A10.1 10.1 0 0 0 5.666 13.6c.668 1.062 2.798 3.9 6.334 3.9s5.664-2.837 6.333-3.9a10 10 0 0 0-1.923-2.327 8 8 0 0 0-.831-.642M11.999 9.5a2.25 2.25 0 1 0 0 4.5 2.25 2.25 0 0 0 0-4.5m.431-6.339a.5.5 0 0 0-.861 0L8.094 9.067A7.7 7.7 0 0 1 12 8l.192.005h.007a7.7 7.7 0 0 1 3.705 1.062z"/></svg>