<svg xmlns="http://www.w3.org/2000/svg" width="20" height="20" fill="none" data-fui-icon="true" viewBox="0 0 20 20"><path fill="currentColor" d="M10 2.375a.75.75 0 0 1 0 1.5H3.959a.917.917 0 0 0-.917.917v8.75c0 .506.41.916.917.916H7.21c.372 0 .733.131 1.018.37l1.72 1.443c.03.025.076.026.107 0l1.749-1.449a1.6 1.6 0 0 1 1.01-.364h3.228c.506 0 .917-.41.917-.916V9a.75.75 0 0 1 1.5 0v4.542a2.417 2.417 0 0 1-2.417 2.416h-3.229a.1.1 0 0 0-.052.02l-1.75 1.448a1.584 1.584 0 0 1-2.027-.006l-1.72-1.442a.1.1 0 0 0-.054-.02H3.959a2.417 2.417 0 0 1-2.417-2.416v-8.75a2.417 2.417 0 0 1 2.417-2.417zM5.938 8.313a.854.854 0 1 1-.002 1.708.854.854 0 0 1 .002-1.708m4.062 0a.855.855 0 1 1 0 1.71.855.855 0 0 1 0-1.71m5.326-7.2a2.367 2.367 0 0 1 3.349 3.35l-3.222 3.22a2.75 2.75 0 0 1-1.64.789l-.883.097a1.55 1.55 0 0 1-1.712-1.711l.098-.882c.07-.62.347-1.2.788-1.642zm-2.161 4.283c-.2.2-.327.463-.358.745l-.098.882a.05.05 0 0 0 .056.055l.881-.098a1.25 1.25 0 0 0 .747-.358l1.833-1.833-1.228-1.226zm4.448-3.222a.87.87 0 0 0-1.226 0l-.328.328 1.227 1.227.328-.328a.87.87 0 0 0 0-1.227"/></svg>