<svg xmlns="http://www.w3.org/2000/svg" width="32" height="32" fill="none" data-fui-icon="true" viewBox="0 0 32 32"><path fill="currentColor" d="M13.387 4.772c.912-.818 2.363-.17 2.363 1.054v4.765c5.316.093 8.952 1.2 11.234 3.833 2.36 2.724 3.1 6.893 3.1 12.575a.75.75 0 0 1-1.421.335l.67-.335-.67.335c-1.017-2.033-1.68-3.395-3.366-4.348-1.655-.936-4.383-1.515-9.547-1.566v4.751c0 1.226-1.45 1.874-2.363 1.055L2.052 17.053a1.416 1.416 0 0 1 0-2.108zM3.122 15.998l11.128 9.987v-5.32a.75.75 0 0 1 .75-.75c5.68 0 8.936.579 11.035 1.765 1.097.62 1.851 1.394 2.459 2.265-.251-3.96-1.052-6.701-2.644-8.538-1.946-2.245-5.243-3.325-10.85-3.325a.75.75 0 0 1-.75-.75V6.013z"/></svg>