<svg xmlns="http://www.w3.org/2000/svg" width="24" height="24" fill="none" data-fui-icon="true" viewBox="0 0 24 24"><path fill="currentColor" d="M12 0c6.627 0 12 5.373 12 12s-5.373 12-12 12S0 18.627 0 12 5.373 0 12 0m0 1.5C6.201 1.5 1.5 6.201 1.5 12S6.201 22.5 12 22.5 22.5 17.799 22.5 12 17.799 1.5 12 1.5m.01 2.85a.75.75 0 0 1 .75.75v.558c2.558.27 3.615 1.9 3.828 2.898a.75.75 0 0 1-1.467.313c-.079-.369-.593-1.456-2.36-1.7v4.2c.768.15 1.586.347 2.253.712.442.243.851.575 1.145 1.044q.444.709.446 1.678c0 1.574-1.369 3.237-3.844 3.518v.563a.75.75 0 0 1-1.5 0v-.562c-1.145-.126-1.994-.536-2.607-1.062a4.1 4.1 0 0 1-1.221-1.825.75.75 0 0 1 1.425-.466c.095.288.315.758.774 1.152.345.296.857.576 1.629.69v-4.198c-.769-.15-1.588-.344-2.255-.71-.443-.242-.851-.575-1.146-1.044q-.445-.71-.445-1.678c0-1.575 1.37-3.238 3.846-3.52V5.1a.75.75 0 0 1 .75-.75m.75 12.46c1.74-.254 2.344-1.379 2.345-2.007 0-.408-.092-.683-.216-.88-.127-.201-.318-.374-.596-.527-.407-.223-.925-.368-1.532-.497zm-1.5-9.638c-1.74.254-2.344 1.38-2.345 2.009 0 .408.092.683.216.88.126.202.319.374.597.527.407.223.925.366 1.533.494z"/></svg>