<svg xmlns="http://www.w3.org/2000/svg" width="16" height="16" fill="none" data-fui-icon="true" viewBox="0 0 16 16"><path fill="currentColor" fill-rule="evenodd" d="M4.16 2h1.266l-.46 3.4A1.618 1.618 0 1 1 1.86 4.58l.561-1.403A1.87 1.87 0 0 1 4.161 2m0-1.2h7.679c1.257 0 2.387.765 2.854 1.932l.561 1.404a2.815 2.815 0 0 1-.854 3.247V12.2a3 3 0 0 1-3 3H4.6a3 3 0 0 1-3-3V7.383a2.815 2.815 0 0 1-.854-3.247l.561-1.404A3.07 3.07 0 0 1 4.161.8m9.04 7.145q-.27.054-.562.055c-.937 0-1.778-.46-2.293-1.179A2.91 2.91 0 0 1 8 8.001a2.91 2.91 0 0 1-2.345-1.18A2.82 2.82 0 0 1 2.8 7.945V12.2A1.8 1.8 0 0 0 4.6 14h.6v-2.8h-.6a.6.6 0 1 1 0-1.2h6.8a.6.6 0 0 1 0 1.2h-.6V14h.6a1.8 1.8 0 0 0 1.8-1.8zM9.6 14H6.4v-2.8h3.2zM6.656 2l-.365 2.859a1.723 1.723 0 1 0 3.418 0L9.344 2zm4.379 3.4L10.574 2h1.265c.766 0 1.455.466 1.74 1.178l.561 1.403a1.618 1.618 0 1 1-3.106.818" clip-rule="evenodd"/></svg>