<svg xmlns="http://www.w3.org/2000/svg" width="12" height="13" fill="none" data-fui-icon="true" viewBox="0 0 12 13"><path fill="currentColor" d="M3 2.25A2.25 2.25 0 0 1 5.83.078l4.5 1.2A2.25 2.25 0 0 1 12 3.451v5.195a2.25 2.25 0 0 1-1.67 2.174l-4.5 1.2A2.25 2.25 0 0 1 3 9.846v-.798a.75.75 0 0 1 1.5 0v.798a.75.75 0 0 0 .943.725l4.5-1.2a.75.75 0 0 0 .557-.725V3.451a.75.75 0 0 0-.557-.725l-4.5-1.2a.75.75 0 0 0-.943.725v1.083a.75.75 0 0 1-1.5 0zm2.97 1.518a.75.75 0 0 1 1.06 0l1.75 1.75a.75.75 0 0 1 0 1.06l-1.75 1.75a.75.75 0 0 1-1.06-1.06l.47-.47H2.5c-.385 0-.64.098-.781.211-.12.096-.219.247-.22.54a.75.75 0 1 1-1.499 0c0-.707.276-1.306.781-1.71.483-.387 1.105-.54 1.719-.54h3.94l-.47-.47a.75.75 0 0 1 0-1.06"/></svg>