<svg xmlns="http://www.w3.org/2000/svg" width="12" height="12" fill="none" data-fui-icon="true" viewBox="0 0 12 12"><path fill="currentColor" d="M9.125 1.125c.966 0 1.75.784 1.75 1.75v5.25a1.75 1.75 0 0 1-1.75 1.75H7.778l-.98.812a1.25 1.25 0 0 1-1.6-.005l-.963-.807h-1.36a1.75 1.75 0 0 1-1.75-1.75v-5.25c0-.966.784-1.75 1.75-1.75zm-6.25 1.5a.25.25 0 0 0-.25.25v5.25c0 .138.112.25.25.25h1.451c.257 0 .507.08.716.226l.087.066.872.731.89-.736.087-.065a1.25 1.25 0 0 1 .71-.222h1.437a.25.25 0 0 0 .25-.25v-5.25a.25.25 0 0 0-.25-.25zm3.125 4a.5.5 0 1 1 0 1 .5.5 0 0 1 0-1m.062-3.168c.694 0 1.25.567 1.25 1.257 0 .422-.21.694-.406.866l-.184.14a.6.6 0 0 0-.147.132.4.4 0 0 0-.07.18.5.5 0 0 1-.988-.15c.079-.526.388-.816.642-.988a.6.6 0 0 0 .134-.113.1.1 0 0 0 .013-.024.1.1 0 0 0 .006-.043.253.253 0 0 0-.25-.257c-.134 0-.25.11-.25.257a.5.5 0 0 1-1 0c0-.69.555-1.257 1.25-1.257"/></svg>