<svg xmlns="http://www.w3.org/2000/svg" width="24" height="24" fill="none" data-fui-icon="true" viewBox="0 0 24 24"><path fill="currentColor" d="M10.5 13.875c2.318 0 4.056.482 5.35 1.235a6.63 6.63 0 0 1 2.604 2.726c.741 1.441-.203 2.951-1.565 3.354a22.9 22.9 0 0 1-6.39.935c-2.653 0-4.924-.503-6.389-.936-1.362-.402-2.305-1.912-1.564-3.353a6.63 6.63 0 0 1 2.603-2.726c1.295-.753 3.033-1.235 5.35-1.235m0 1.5c-2.11 0-3.574.437-4.596 1.031a5.13 5.13 0 0 0-2.025 2.117c-.222.43 0 1.034.656 1.228 1.37.405 3.494.874 5.965.874s4.594-.47 5.965-.874c.657-.194.877-.797.656-1.229a5.13 5.13 0 0 0-2.025-2.116c-1.022-.594-2.487-1.031-4.596-1.031m6.038-3.612a.75.75 0 0 1 .95-.475c2.32.774 3.972 1.586 5.598 3.618a.75.75 0 0 1-1.172.938c-1.375-1.718-2.723-2.406-4.902-3.132a.75.75 0 0 1-.474-.95M10.5 1.875a4.875 4.875 0 1 1 0 9.75 4.875 4.875 0 0 1 0-9.75m0 1.5a3.375 3.375 0 1 0 0 6.75 3.375 3.375 0 0 0 0-6.75m5.625-3a4.875 4.875 0 0 1 3.988 7.679.75.75 0 0 1-1.226-.864 3.375 3.375 0 0 0-2.762-5.315.75.75 0 0 1 0-1.5"/></svg>