<svg xmlns="http://www.w3.org/2000/svg" width="16" height="16" fill="none" data-fui-icon="true" viewBox="0 0 16 16"><path fill="currentColor" d="M6.85 2.226C7.724 1.576 9 2.194 9 3.314v9.371c0 1.157-1.36 1.778-2.234 1.02l-2.194-1.9a1.25 1.25 0 0 0-.818-.305H2.75A1.75 1.75 0 0 1 1 9.75v-3.5c0-.967.784-1.75 1.75-1.75h1.004c.3 0 .591-.11.818-.306l2.194-1.9zM5.555 5.328A2.75 2.75 0 0 1 3.754 6H2.75a.25.25 0 0 0-.25.25v3.5c0 .138.112.25.25.25h1.004c.661 0 1.3.238 1.8.672L7.5 12.356V3.642zm8.415.641a.75.75 0 0 1 1.06 1.06l-.97.97.97.97a.75.75 0 0 1-1.06 1.06L13 9.06l-.97.97a.75.75 0 1 1-1.06-1.06l.97-.97-.97-.97a.75.75 0 0 1 1.06-1.06l.97.97z"/></svg>