<svg xmlns="http://www.w3.org/2000/svg" width="12" height="12" fill="none" data-fui-icon="true" viewBox="0 0 12 12"><path fill="currentColor" d="M6.003 11.364a1.75 1.75 0 0 0 1.534-2.009l-.153-.98H9.13a2.25 2.25 0 0 0 2.223-2.589l-.418-2.75a2.25 2.25 0 0 0-2.224-1.911H1.875c-.69 0-1.25.56-1.25 1.25v3.75c0 .69.56 1.25 1.25 1.25h1.106l1.712 3.322c.215.417.646.678 1.113.678zM2.125 2.625h.5v3.25h-.5zm2 3.693V2.625h4.586c.37 0 .685.27.741.637l.42 2.75a.75.75 0 0 1-.742.863H6.508a.75.75 0 0 0-.741.865l.288 1.847a.25.25 0 0 1-.118.25z"/></svg>