<svg xmlns="http://www.w3.org/2000/svg" width="12" height="12" fill="none" data-fui-icon="true" viewBox="0 0 12 12"><path fill="currentColor" d="M9.626 1.125c.966 0 1.75.783 1.75 1.75v3.25a1.75 1.75 0 0 1-1.75 1.75h-.25v.25a1.75 1.75 0 0 1-1.75 1.75H5.444L3.365 11.03a.75.75 0 0 1-1.114-.655v-.507A1.75 1.75 0 0 1 .626 8.125v-3.25c0-.966.783-1.75 1.75-1.75h.375v-.25c0-.966.783-1.75 1.75-1.75zm-7.25 3.5a.25.25 0 0 0-.25.25v3.25c0 .138.112.25.25.25h.625c.406 0 .735.323.748.726l1.138-.631.086-.041a.8.8 0 0 1 .278-.054h2.375a.25.25 0 0 0 .25-.25v-.981l-.001-.019.001-.021V4.875a.25.25 0 0 0-.25-.25zm2.125-2a.25.25 0 0 0-.25.25v.25h3.375c.966 0 1.75.783 1.75 1.75v1.5h.25a.25.25 0 0 0 .25-.25v-3.25a.25.25 0 0 0-.25-.25z"/></svg>