<svg xmlns="http://www.w3.org/2000/svg" width="24" height="24" fill="none" data-fui-icon="true" viewBox="0 0 24 24"><path fill="currentColor" d="M5.608 13.5c1.195 0 2.354.86 2.354 2.139 0 .725-.36 1.267-.777 1.66-.4.376-.911.67-1.334.91q-.279.158-.506.291H7.5a.75.75 0 0 1 0 1.5H3.75a.75.75 0 0 1-.75-.75c0-.703.417-1.195.813-1.522.389-.321.894-.595 1.298-.824.442-.25.796-.464 1.045-.699.232-.218.306-.391.306-.566 0-.256-.279-.639-.854-.639-.257 0-.525.103-.757.239-.111.064-.201.13-.262.177l-.065.054q-.009.009-.012.01H4.51a.75.75 0 0 1-1.026-1.094l.18.19-.179-.19v-.001h.001l.006-.006.012-.01.037-.033q.046-.04.123-.101a4 4 0 0 1 .429-.291c.35-.205.887-.444 1.514-.444M20.25 16a.75.75 0 0 1 0 1.5h-8.5a.75.75 0 0 1 0-1.5zM5.82 4.136A.75.75 0 0 1 7 4.75v5a.75.75 0 0 1-1.5 0V6.19l-1.32.924a.75.75 0 0 1-.86-1.228zM20.25 6.5a.75.75 0 0 1 0 1.5h-8.5a.75.75 0 0 1 0-1.5z"/></svg>