<svg xmlns="http://www.w3.org/2000/svg" width="16" height="16" fill="none" data-fui-icon="true" viewBox="0 0 16 16"><path fill="currentColor" d="M13.627 6c.45 0 .8.395.744.843l-.85 6.835h-.002A2.53 2.53 0 0 1 11 16H5a2.53 2.53 0 0 1-2.52-2.322l-.851-6.835A.75.75 0 0 1 2.373 6zM8.923.01a2.75 2.75 0 0 1 2.433 2.073l.23.917h3.664a.75.75 0 0 1 0 1.5H.75a.75.75 0 0 1 0-1.5h3.664l.23-.917A2.75 2.75 0 0 1 7.312 0h1.376zM7.312 1.5a1.25 1.25 0 0 0-1.213.947L5.96 3h4.08l-.139-.553a1.25 1.25 0 0 0-1.106-.942L8.688 1.5z"/></svg>