<svg xmlns="http://www.w3.org/2000/svg" width="32" height="32" fill="none" data-fui-icon="true" viewBox="0 0 32 32"><path fill="currentColor" d="M3.5 20.25a.75.75 0 0 1 .75.75v1.5c0 2.9 2.35 5.25 5.25 5.25H11a.75.75 0 0 1 0 1.5H9.5a6.75 6.75 0 0 1-6.75-6.75V21a.75.75 0 0 1 .75-.75m25 0a.75.75 0 0 1 .75.75v1.5a6.75 6.75 0 0 1-6.75 6.75H21a.75.75 0 0 1 0-1.5h1.5c2.9 0 5.25-2.35 5.25-5.25V21a.75.75 0 0 1 .75-.75M11 2.75a.75.75 0 0 1 0 1.5H9.5A5.25 5.25 0 0 0 4.25 9.5V11a.75.75 0 0 1-1.5 0V9.5A6.75 6.75 0 0 1 9.5 2.75zm11.5 0a6.75 6.75 0 0 1 6.75 6.75V11a.75.75 0 0 1-1.5 0V9.5c0-2.9-2.35-5.25-5.25-5.25H21a.75.75 0 0 1 0-1.5z"/></svg>