<svg xmlns="http://www.w3.org/2000/svg" width="12" height="12" fill="none" data-fui-icon="true" viewBox="0 0 12 12"><path fill="currentColor" d="M6 0a6 6 0 1 1 0 12A6 6 0 0 1 6 0m-.004 2.25a.75.75 0 0 0-.746.754v.102c-.933.277-1.5 1.052-1.5 1.816 0 .322.079.624.245.887.163.257.384.434.599.558.396.23.895.339 1.231.42.402.096.65.167.808.266.062.039.084.068.092.08.006.012.025.048.025.141-.004.011-.02.035-.064.068-.087.063-.292.158-.682.158-.09 0-.289-.027-.51-.104-.226-.077-.381-.174-.452-.248a.75.75 0 0 0-1.084 1.037c.304.317.712.514 1.049.63q.12.04.243.074v.107a.75.75 0 0 0 1.5.008V8.91c.855-.207 1.5-.777 1.5-1.637 0-.326-.075-.631-.232-.9a1.75 1.75 0 0 0-.588-.593c-.405-.253-.908-.37-1.255-.453-.414-.099-.666-.164-.831-.26a.24.24 0 0 1-.081-.063q-.002-.001-.006-.013a.3.3 0 0 1-.007-.07c0-.004.003-.03.022-.071a.5.5 0 0 1 .112-.149c.103-.095.293-.202.62-.202a1.6 1.6 0 0 1 .754.269c.047.036.067.06.071.066a.75.75 0 0 0 1.342-.67c-.247-.493-.735-.772-1.082-.919a3 3 0 0 0-.339-.12v-.13a.75.75 0 0 0-.754-.746"/></svg>