<svg xmlns="http://www.w3.org/2000/svg" width="24" height="24" fill="none" data-fui-icon="true" viewBox="0 0 24 24"><path fill="currentColor" d="M22.25 12.5a.75.75 0 0 1 .75.75v4A5.75 5.75 0 0 1 17.25 23H6.75A5.75 5.75 0 0 1 1 17.25v-4a.75.75 0 0 1 1.5 0v4a4.25 4.25 0 0 0 4.25 4.25h10.5a4.25 4.25 0 0 0 4.25-4.25v-4a.75.75 0 0 1 .75-.75M11.21 2.112a1.25 1.25 0 0 1 1.674.086l5.146 5.147a.75.75 0 1 1-1.06 1.06l-4.22-4.22V14.25a.75.75 0 0 1-1.5 0V4.186l-4.22 4.22a.75.75 0 0 1-1.06-1.061l5.146-5.147z"/></svg>