<svg xmlns="http://www.w3.org/2000/svg" width="16" height="16" fill="none" data-fui-icon="true" viewBox="0 0 16 16"><path fill="currentColor" d="M8 .708a7.292 7.292 0 0 1 .883 14.53l-.7.085v-5.91h1.907l.144-.788H8.18V7.279c0-.596.112-1.18.534-1.594.419-.412 1.005-.522 1.605-.522l.147.002v-.674a7 7 0 0 0-.823-.064c-1.026 0-1.645.242-2.016.62-.374.382-.613 1.022-.613 2.075v1.503H5.638v.787h1.376v5.858l-.776-.193A7.293 7.293 0 0 1 8 .707m0 1.25a6.043 6.043 0 0 0-2.236 11.654v-2.95H4.388V7.375h1.376v-.253c0-1.215.274-2.237.97-2.948.7-.714 1.708-.997 2.909-.997.458 0 1.244.085 1.614.187l.459.127v3.013l-.689-.07a8 8 0 0 0-.708-.02c-.491 0-.663.097-.728.161-.062.061-.161.224-.161.704v.096h2.303l-.134.737-.373 2.037-.094.513h-1.7v3.206A6.042 6.042 0 0 0 8 1.958"/></svg>