<svg xmlns="http://www.w3.org/2000/svg" width="12" height="12" fill="none" data-fui-icon="true" viewBox="0 0 12 12"><g clip-path="url(#a)"><path fill="currentColor" d="M9.75 0a.75.75 0 0 1 .75.75c0 3.032-2.054 4.455-3.452 5.424-.218.15-.42.29-.595.424-.24.182-.486.355-.73.528-.788.56-1.558 1.106-2.077 1.874H8.35a5.2 5.2 0 0 0-.968-1.05.751.751 0 0 1 .97-1.144c1.117.946 2.149 2.278 2.149 4.444a.75.75 0 0 1-1.5 0q0-.401-.06-.75H3.058a5 5 0 0 0-.058.75.75.75 0 0 1-1.5 0c0-2.857 1.825-4.285 3.205-5.251C3.325 5.033 1.5 3.607 1.5.75a.75.75 0 0 1 1.5 0q.001.401.059.75h5.883Q9 1.151 9 .75A.75.75 0 0 1 9.75 0M3.646 3c.58.858 1.472 1.44 2.355 2.072q.137-.1.275-.198c.79-.56 1.559-1.106 2.078-1.874z"/></g><defs><clipPath id="a"><path fill="currentColor" d="M0 0h12v12H0z"/></clipPath></defs></svg>