<svg xmlns="http://www.w3.org/2000/svg" width="32" height="32" fill="none" data-fui-icon="true" viewBox="0 0 32 32"><path fill="currentColor" d="M24.333 4.25a3.417 3.417 0 0 1 3.417 3.417v16.666a3.417 3.417 0 0 1-3.417 3.417H7.667a3.417 3.417 0 0 1-3.417-3.417V7.667A3.417 3.417 0 0 1 7.667 4.25zM7.667 5.75A1.917 1.917 0 0 0 5.75 7.667v16.666c0 1.059.858 1.917 1.917 1.917h16.666a1.917 1.917 0 0 0 1.917-1.917V7.667a1.917 1.917 0 0 0-1.917-1.917zm3.007 10.875c1.047 0 2.086.757 2.086 1.907 0 .65-.324 1.131-.687 1.473-.346.326-.784.58-1.136.778l-.013.008h1.326a.75.75 0 0 1 0 1.5H9.125a.75.75 0 0 1-.75-.75c0-.64.38-1.082.723-1.364.334-.276.767-.511 1.1-.7.37-.209.652-.38.847-.564.178-.168.215-.281.215-.38 0-.075-.034-.167-.133-.253a.7.7 0 0 0-.453-.155c-.184 0-.385.074-.569.182a2 2 0 0 0-.253.178l-.005.003a.75.75 0 1 1-1.028-1.091l.001-.002h.002l.004-.004.043-.04.108-.087c.088-.07.215-.161.372-.252.302-.177.77-.387 1.325-.387m12.201 2.083a.75.75 0 0 1 0 1.5h-7.083a.75.75 0 0 1 0-1.5zm-13.027-.219h-.001v.001l-.001.001-.002.001.003-.004zm1.02-9.699a.75.75 0 0 1 1.09.668v4.167a.75.75 0 0 1-1.5 0v-2.727l-.903.633a.75.75 0 0 1-.86-1.23l2.083-1.457zm12.007 2.001a.75.75 0 0 1 0 1.5h-7.083a.75.75 0 0 1 0-1.5z"/></svg>