<svg xmlns="http://www.w3.org/2000/svg" width="24" height="24" fill="none" data-fui-icon="true" viewBox="0 0 24 24"><path fill="currentColor" d="M15.75 2A6.25 6.25 0 0 1 22 8.25v7.5A6.25 6.25 0 0 1 15.75 22h-7.5A6.25 6.25 0 0 1 2 15.75v-7.5A6.25 6.25 0 0 1 8.25 2zm-7.5 1.5A4.75 4.75 0 0 0 3.5 8.25v7.5a4.75 4.75 0 0 0 4.75 4.75h7.5a4.75 4.75 0 0 0 4.75-4.75v-7.5a4.75 4.75 0 0 0-4.75-4.75zm.5 3.5a.75.75 0 0 1 .75.75v8.5a.75.75 0 0 1-1.5 0v-8.5A.75.75 0 0 1 8.75 7m6.985.205a.75.75 0 1 1 1.03 1.09L12.84 12l3.924 3.705a.75.75 0 1 1-1.03 1.09l-4.5-4.25a.75.75 0 0 1 0-1.09z"/></svg>