<svg xmlns="http://www.w3.org/2000/svg" width="12" height="12" fill="none" data-fui-icon="true" viewBox="0 0 12 12"><g clip-path="url(#a)"><path fill="currentColor" d="M.782.22a.75.75 0 0 1 1.06 0l1.464 1.463q0-.003.003-.004l1.197 1.197-.001.006 2.613 2.613.004-.003 1.06 1.06-.004.003.832.832.003-.003 1.06 1.06-.003.003 1.148 1.148a.75.75 0 0 1-1.06 1.06l-1.27-1.27a5.2 5.2 0 0 1-1.968.67.193.193 0 0 0-.17.19v.068c0 .103.084.187.188.187H8.25a.75.75 0 0 1 0 1.5h-4.5a.75.75 0 0 1 0-1.5h1.313a.187.187 0 0 0 .187-.187v-.068a.193.193 0 0 0-.17-.19A5.25 5.25 0 0 1 .5 4.85a.75.75 0 0 1 1.5 0A3.75 3.75 0 0 0 5.75 8.6h.5a3.7 3.7 0 0 0 1.526-.326l-.905-.905a3 3 0 0 1-3.867-2.715L3 4.5V3.498L.782 1.28a.75.75 0 0 1 0-1.06M10.75 4.1a.75.75 0 0 1 .75.75c0 .843-.2 1.64-.554 2.346L9.802 6.051C9.929 5.674 10 5.27 10 4.85a.75.75 0 0 1 .75-.75M6 0a3 3 0 0 1 3 3v1.5c0 .23-.029.455-.078.67L7.5 3.75V3a1.5 1.5 0 0 0-2.116-1.367L4.288.537A3 3 0 0 1 6 0"/></g><defs><clipPath id="a"><path fill="currentColor" d="M0 0h12v12H0z"/></clipPath></defs></svg>