<svg xmlns="http://www.w3.org/2000/svg" width="20" height="20" fill="none" data-fui-icon="true" viewBox="0 0 20 20"><path fill="currentColor" fill-rule="evenodd" d="m16.542 3.683-6.041-2.014a1.58 1.58 0 0 0-1.002 0L3.458 3.683c-.076.025-.138.072-.207.108a1.56 1.56 0 0 0-.868 1.35c0 .015-.007.029-.007.044v4.743q0 .435.046.843c.008.072.025.138.035.208.255 1.8 1.149 3.2 2.34 4.33q.029.024.058.049a12 12 0 0 0 1.059.884c1.185.886 2.513 1.604 3.73 2.26.065.035.137.038.207.052.051.01.098.038.149.038a.75.75 0 0 0 .356-.09c3.238-1.747 7.269-3.921 7.269-8.573V5.186c0-.683-.436-1.287-1.083-1.501zm-.417 6.244c0 3.617-3.054 5.399-6.125 7.06V3.102l.026-.01 6.042 2.016a.08.08 0 0 1 .057.078z" clip-rule="evenodd"/></svg>