<svg xmlns="http://www.w3.org/2000/svg" width="16" height="16" fill="none" data-fui-icon="true" viewBox="0 0 16 16"><path fill="currentColor" d="M10.829 2a4.75 4.75 0 0 1 4.732 4.345l.4 4.67A2.75 2.75 0 0 1 13.221 14h-.056c-.593 0-1.17-.191-1.646-.546l-1.435-1.072a1.25 1.25 0 0 0-.748-.248H6.665c-.27 0-.533.087-.748.248L4.48 13.454A2.75 2.75 0 0 1 2.836 14H2.78a2.75 2.75 0 0 1-2.74-2.985l.4-4.67A4.75 4.75 0 0 1 5.172 2zm-5.33 3a.75.75 0 0 0-.75.75v.75H4A.75.75 0 0 0 4 8h.75v.75a.75.75 0 0 0 1.5 0V8H7a.75.75 0 0 0 0-1.5h-.75v-.75A.75.75 0 0 0 5.5 5m4.25 2.25a1 1 0 1 0 .002 2.001A1 1 0 0 0 9.75 7.25m2-2a1 1 0 1 0 .002 2.001 1 1 0 0 0-.002-2.001"/></svg>