<svg xmlns="http://www.w3.org/2000/svg" width="20" height="20" fill="none" data-fui-icon="SplitUp20" viewBox="0 0 20 20"><path fill="currentColor" fill-rule="evenodd" d="M1.15 4.45A.75.75 0 0 1 1.3 3.4l3-2.25a.75.75 0 0 1 .9 0l3 2.25a.75.75 0 0 1-.9 1.2L5.5 3.25v1.972a3.25 3.25 0 0 0 1.742 2.88l2.755 1.442c.922-.493 1.898-1.008 2.734-1.444A3.28 3.28 0 0 0 14.5 5.196V3.25L12.7 4.6a.75.75 0 0 1-.9-1.2l3-2.25a.75.75 0 0 1 .9 0l3 2.25a.75.75 0 0 1-.9 1.2L16 3.25v1.946a4.78 4.78 0 0 1-2.575 4.235c-.82.428-1.773.929-2.675 1.411v2.256A2.998 2.998 0 0 1 10 19a2.998 2.998 0 0 1-.75-5.902v-2.252L6.546 9.43A4.75 4.75 0 0 1 4 5.222V3.25L2.2 4.6a.75.75 0 0 1-1.05-.15M8.5 16a1.5 1.5 0 1 0 3 0 1.5 1.5 0 0 0-3 0" clip-rule="evenodd"/></svg>