<svg xmlns="http://www.w3.org/2000/svg" width="32" height="32" fill="none" data-fui-icon="true" viewBox="0 0 32 32"><g clip-path="url(#a)"><path fill="currentColor" d="M16.001 0c4.907 0 7.838 2.251 9.53 5.046 1.659 2.741 2.103 5.961 2.211 7.96.06 1.117.43 2.168 1.131 2.939l.416.458a6.21 6.21 0 0 1 .09 8.253A6.82 6.82 0 0 1 24.236 27h-2.87c-.062 1.59-.714 2.84-1.7 3.692-1.022.884-2.36 1.308-3.67 1.308s-2.648-.424-3.67-1.308c-.986-.853-1.637-2.101-1.699-3.692H7.765a6.82 6.82 0 0 1-5.145-2.344 6.21 6.21 0 0 1 .09-8.254l.417-.457c.7-.771 1.07-1.822 1.13-2.94.109-1.998.554-5.218 2.214-7.96C8.162 2.252 11.093 0 16 0m-3.874 27c.059 1.158.527 1.994 1.179 2.557.712.617 1.687.943 2.69.943 1.001 0 1.976-.326 2.689-.943.65-.563 1.12-1.399 1.178-2.557zm3.874-25.5c-4.346 0-6.808 1.945-8.247 4.323-1.47 2.43-1.895 5.358-1.998 7.263-.075 1.382-.537 2.788-1.52 3.869l-.415.457a4.71 4.71 0 0 0-.07 6.26A5.32 5.32 0 0 0 7.766 25.5h16.47a5.32 5.32 0 0 0 4.013-1.828 4.71 4.71 0 0 0-.07-6.26l-.414-.457c-.983-1.081-1.445-2.487-1.52-3.868-.103-1.905-.526-4.834-1.997-7.264-1.44-2.378-3.9-4.323-8.246-4.323"/></g><defs><clipPath id="a"><path fill="currentColor" d="M0 0h32v32H0z"/></clipPath></defs></svg>