<svg xmlns="http://www.w3.org/2000/svg" width="21" height="20" fill="none" data-fui-icon="true" viewBox="0 0 21 20"><path fill="currentColor" d="M13.607 1.85c1.154 0 2.208.43 3.005 1.135a7 7 0 0 0 1.588-.59l.118-.05a.81.81 0 0 1 .78.155.79.79 0 0 1 .204.927q-.054.116-.114.228c.57-.177 1.072.472.722.988h.001a8.4 8.4 0 0 1-1.799 1.914q.003.084.004.17c0 5.293-4.093 11.423-11.595 11.423-2.037 0-3.953-.521-5.618-1.433a.8.8 0 0 1-.378-.947.816.816 0 0 1 .803-.572l.215.003c1.1 0 2.139-.247 3.067-.684a4.48 4.48 0 0 1-2.394-2.424.76.76 0 0 1 .156-.842A4.4 4.4 0 0 1 .73 7.823c0-.348.248-.604.546-.665a4.384 4.384 0 0 1-.03-4.067l.057-.096c.286-.417.858-.432 1.196-.128l.068.07.344.38a10.32 10.32 0 0 0 6.204 3.112q-.003-.07-.004-.14c0-2.462 2.024-4.44 4.497-4.44m0 1.3c-1.774 0-3.197 1.414-3.197 3.138q.002.367.083.715l.194.838-.86-.042a11.63 11.63 0 0 1-7.684-3.412 3.122 3.122 0 0 0 1.336 3.318l1.924 1.268-2.302-.075a4.6 4.6 0 0 1-.92-.127 3.18 3.18 0 0 0 2.372 2.12l.02.004.018.003H4.59l.005.001 2.011.41-1.88.823a1.5 1.5 0 0 1-.312.09 4.4 4.4 0 0 1-.601.072 3.2 3.2 0 0 0 2.519 1.286l1.855.032-1.47 1.133a8.4 8.4 0 0 1-3.462 1.582 10.4 10.4 0 0 0 3.266.523c6.653 0 10.295-5.41 10.295-10.123q0-.23-.01-.46l-.016-.354.288-.205q.155-.112.303-.23a.72.72 0 0 1-.6-.465.72.72 0 0 1 .197-.779q-.219.056-.44.099l-.349.067-.245-.256a3.22 3.22 0 0 0-2.337-.994"/></svg>