<svg xmlns="http://www.w3.org/2000/svg" width="12" height="12" fill="none" data-fui-icon="true" viewBox="0 0 12 12"><path fill="currentColor" d="M5.25 2a.75.75 0 0 1 0 1.5H1.99a.49.49 0 0 0-.49.49v6.02c0 .27.22.49.49.49h5.52c.27 0 .49-.22.49-.49V7.75a.75.75 0 0 1 1.5 0v2.26A1.99 1.99 0 0 1 7.51 12H1.99A1.99 1.99 0 0 1 0 10.01V3.99A1.99 1.99 0 0 1 1.99 2zM9.5 1a.75.75 0 0 1 .75.75c0 .35.115.588.264.736.148.15.386.264.736.264a.75.75 0 0 1 0 1.5c-.35 0-.588.115-.736.264-.15.148-.264.386-.264.736a.75.75 0 0 1-1.5 0c0-.35-.115-.588-.264-.736-.148-.15-.386-.264-.736-.264a.75.75 0 0 1 0-1.5c.35 0 .588-.115.736-.264.15-.148.264-.386.264-.736A.75.75 0 0 1 9.5 1"/></svg>