<svg xmlns="http://www.w3.org/2000/svg" width="12" height="12" fill="none" data-fui-icon="true" viewBox="0 0 12 12"><path fill="currentColor" d="M7.875 10.5a.75.75 0 0 1 0 1.5h-3.75a.75.75 0 0 1 0-1.5zM6 0c1.454 0 2.662.418 3.509 1.245S10.75 3.222 10.75 4.5c0 1.644-.792 2.653-1.425 3.186-.239.2-.325.4-.325.525A1.29 1.29 0 0 1 7.71 9.5H4.29A1.29 1.29 0 0 1 3 8.21c0-.124-.086-.323-.325-.524C2.042 7.153 1.25 6.144 1.25 4.5c0-1.278.394-2.427 1.241-3.255S4.546 0 6 0m0 1.5c-1.17 0-1.963.332-2.46.817S2.75 3.528 2.75 4.5c0 1.098.507 1.717.89 2.038.38.32.774.824.847 1.462h3.026c.073-.638.467-1.142.847-1.462.383-.321.89-.94.89-2.038 0-.972-.294-1.698-.79-2.183S7.17 1.5 6 1.5m1.125 2.75a.75.75 0 0 1 0 1.5H6.75v.75a.75.75 0 0 1-1.5 0v-.75h-.375a.75.75 0 0 1 0-1.5z"/></svg>