<svg xmlns="http://www.w3.org/2000/svg" width="16" height="16" fill="none" data-fui-icon="true" viewBox="0 0 16 16"><path fill="currentColor" d="M11.686 2.55a.75.75 0 1 1 1.448.39l-.585 2.182h1.707l.076.004a.75.75 0 0 1 0 1.492l-.076.004h-2.108l-.953 3.553h1.858l.076.004a.75.75 0 0 1 0 1.492l-.076.004h-2.26l-.624 2.33a.75.75 0 0 1-1.45-.387l.521-1.943H5.02l-.625 2.33a.75.75 0 0 1-1.45-.387l.52-1.943h-1.72a.75.75 0 0 1 0-1.5h2.123l.952-3.553H2.948a.75.75 0 0 1 0-1.5h2.274l.69-2.571a.75.75 0 0 1 1.447.388l-.585 2.183h4.222zM5.42 10.176h4.222l.952-3.553H6.373z"/></svg>