<svg xmlns="http://www.w3.org/2000/svg" width="24" height="24" fill="none" data-fui-icon="true" viewBox="0 0 24 24"><path fill="currentColor" d="M17.5 1a.75.75 0 0 1 0 1.5H16v6.853c0 .263.083.519.237.732l6.18 8.554c1.313 1.819.014 4.36-2.229 4.36H3.812c-2.243 0-3.542-2.541-2.228-4.36l6.18-8.554A1.25 1.25 0 0 0 8 9.353V2.5H6.5a.75.75 0 0 1 0-1.5zM8.675 15.43c-.949-.17-2.034-.076-3.406.668l-2.47 3.42c-.597.826-.007 1.982 1.013 1.982h16.376c1.02 0 1.61-1.156 1.013-1.983l-2.158-2.986c-1.417.938-2.684 1.283-3.883 1.23-1.334-.058-2.484-.61-3.498-1.123-1.056-.534-1.965-1.025-2.987-1.209M9.5 9.352a2.75 2.75 0 0 1-.521 1.61l-2.16 2.99a5.9 5.9 0 0 1 2.122 0c1.287.23 2.417.85 3.398 1.347 1.023.517 1.91.92 2.886.962.811.036 1.758-.178 2.939-.949l-3.143-4.35a2.75 2.75 0 0 1-.522-1.61V2.5h-5z"/></svg>