<svg xmlns="http://www.w3.org/2000/svg" width="32" height="32" fill="none" data-fui-icon="true" viewBox="0 0 32 32"><g clip-path="url(#a)"><path fill="currentColor" d="M16 0a4.79 4.79 0 0 1 3.691 1.732c.46.553 1.008 1.055 1.672 1.33.666.275 1.402.303 2.118.237a4.8 4.8 0 0 1 3.842 1.386 4.79 4.79 0 0 1 1.384 3.836c-.066.718-.037 1.455.24 2.122.274.663.775 1.21 1.326 1.67A4.79 4.79 0 0 1 32 16a4.79 4.79 0 0 1-1.72 3.68c-.553.464-1.056 1.014-1.332 1.68-.277.67-.306 1.412-.24 2.134a4.79 4.79 0 0 1-1.385 3.831 4.79 4.79 0 0 1-3.837 1.386c-.72-.066-1.459-.038-2.128.238-.666.275-1.215.777-1.677 1.33A4.79 4.79 0 0 1 16 32a4.79 4.79 0 0 1-3.694-1.735c-.456-.55-1-1.048-1.658-1.32-.662-.274-1.395-.302-2.108-.235a4.79 4.79 0 0 1-3.845-1.384 4.79 4.79 0 0 1-1.385-3.832c.065-.719.036-1.457-.24-2.124-.277-.667-.781-1.216-1.337-1.678A4.79 4.79 0 0 1 0 16a4.79 4.79 0 0 1 1.74-3.698c.554-.459 1.056-1.005 1.331-1.67.276-.663.304-1.396.239-2.111a4.8 4.8 0 0 1 1.385-3.837A4.79 4.79 0 0 1 8.545 3.3c.71.067 1.439.04 2.098-.234.658-.272 1.2-.77 1.654-1.32A4.79 4.79 0 0 1 16 0m5.54 11.466a.75.75 0 0 0-1.061 0l-7.47 7.47-2.47-2.47a.75.75 0 1 0-1.06 1.06l3 3a.75.75 0 0 0 1.06 0l8-8a.75.75 0 0 0 0-1.06"/></g><defs><clipPath id="a"><path fill="currentColor" d="M0 0h32v32H0z"/></clipPath></defs></svg>