<svg xmlns="http://www.w3.org/2000/svg" width="24" height="24" fill="none" data-fui-icon="true" viewBox="0 0 24 24"><path fill="currentColor" d="M16.25 1a.75.75 0 0 1 .75.75V4h1.68A3.32 3.32 0 0 1 22 7.32v11.36A3.32 3.32 0 0 1 18.68 22H5.32A3.32 3.32 0 0 1 2 18.68V7.32A3.32 3.32 0 0 1 5.32 4H7V1.75a.75.75 0 0 1 1.5 0V4h7V1.75a.75.75 0 0 1 .75-.75m4.25 9.454a.7.7 0 0 1-.25.046H3.75a.7.7 0 0 1-.25-.046v8.226a1.82 1.82 0 0 0 1.82 1.82h13.36a1.82 1.82 0 0 0 1.82-1.82zM5.32 5.5A1.82 1.82 0 0 0 3.5 7.32v1.725A.8.8 0 0 1 3.75 9h16.5q.133.002.25.045V7.32a1.82 1.82 0 0 0-1.82-1.82z"/></svg>