<svg xmlns="http://www.w3.org/2000/svg" width="16" height="16" fill="none" data-fui-icon="true" viewBox="0 0 16 16"><path fill="currentColor" d="M4.326 3.333c1.637 0 2.987 1.293 2.994 2.917.092 1.736-.286 2.979-1.008 3.975-.707.974-1.718 1.67-2.782 2.36a.5.5 0 1 1-.545-.838c1.074-.698 1.934-1.304 2.518-2.11a4 4 0 0 0 .517-.956 3.03 3.03 0 0 1-1.694.513c-1.64 0-2.993-1.3-2.993-2.93s1.352-2.93 2.993-2.931m7.334 0c1.636 0 2.986 1.293 2.993 2.917.092 1.736-.285 2.979-1.008 3.975-.706.974-1.718 1.67-2.78 2.36a.5.5 0 1 1-.546-.838c1.074-.698 1.933-1.304 2.517-2.11.206-.283.38-.597.516-.956a3.03 3.03 0 0 1-1.692.513c-1.64 0-2.993-1.3-2.993-2.93s1.352-2.931 2.993-2.931"/></svg>