<svg xmlns="http://www.w3.org/2000/svg" width="32" height="32" fill="none" data-fui-icon="true" viewBox="0 0 32 32"><path fill="currentColor" d="m17.781 4.448.53-.53zm7.105 7.104-.53.53zM10.375 21.75a.75.75 0 0 0 0 1.5zm11.25 1.5a.75.75 0 0 0 0-1.5zm-11.25-6.98a.75.75 0 0 0 0 1.5zm5.938 1.5a.75.75 0 0 0 0-1.5zM16.25 4.334v5.334h1.5V4.333zm0 5.334a3.417 3.417 0 0 0 3.417 3.416v-1.5a1.917 1.917 0 0 1-1.917-1.916zm3.417 3.416H25v-1.5h-5.333zM9 4.417h6.896v-1.5H9zm6.896 0c.508 0 .995.202 1.355.561l1.06-1.06c-.64-.641-1.51-1.001-2.415-1.001zm1.355.561 7.104 7.105 1.06-1.061-7.104-7.105zm7.104 7.105c.36.36.562.847.562 1.355h1.5c0-.906-.36-1.775-1.001-2.416zm.562 1.355v12.229h1.5v-12.23zm0 12.229A1.917 1.917 0 0 1 23 27.583v1.5a3.417 3.417 0 0 0 3.417-3.416zM23 27.583H9v1.5h14zm-14 0a1.917 1.917 0 0 1-1.917-1.916h-1.5A3.417 3.417 0 0 0 9 29.083zm-1.917-1.916V6.333h-1.5v19.334zm0-19.334c0-1.058.858-1.916 1.917-1.916v-1.5a3.417 3.417 0 0 0-3.417 3.416zm3.292 16.917h11.25v-1.5h-11.25zm0-5.48h5.938v-1.5h-5.938z"/></svg>