<svg xmlns="http://www.w3.org/2000/svg" width="32" height="32" fill="none" data-fui-icon="true" viewBox="0 0 32 32"><path fill="currentColor" d="M26.223 4H5.772C4.792 4 4 4.773 4 5.73v20.536C4 27.222 4.792 28 5.772 28h20.451c.98 0 1.777-.778 1.777-1.73V5.73C28 4.773 27.203 4 26.223 4M11.12 24.452H7.558V12.995h3.562zM9.34 11.434a2.064 2.064 0 1 1 0-4.125 2.063 2.063 0 0 1 0 4.125m15.112 13.018h-3.558v-5.57c0-1.326-.024-3.037-1.852-3.037-1.851 0-2.133 1.449-2.133 2.944v5.663h-3.553V12.995h3.413v1.566h.047c.473-.9 1.636-1.852 3.365-1.852 3.605 0 4.27 2.372 4.27 5.457z"/></svg>