<svg xmlns="http://www.w3.org/2000/svg" width="12" height="12" fill="none" data-fui-icon="true" viewBox="0 0 12 12"><g clip-path="url(#a)"><path fill="currentColor" d="M9.429.25a2.32 2.32 0 0 1 2.321 2.321V9.43a2.32 2.32 0 0 1-2.321 2.321H2.57A2.32 2.32 0 0 1 .25 9.429V2.57A2.32 2.32 0 0 1 2.571.25zM1.75 9.429c0 .453.368.82.821.821H9.43a.82.82 0 0 0 .821-.821V7.75H8.371C8.04 8.729 7.078 9.417 6 9.417S3.961 8.729 3.629 7.75H1.75zm.821-7.679a.82.82 0 0 0-.821.821V6.25h2.504a.75.75 0 0 1 .75.75c0 .466.421.917.996.917s.996-.451.996-.917a.75.75 0 0 1 .75-.75h2.504V2.571a.82.82 0 0 0-.821-.821z"/></g><defs><clipPath id="a"><path fill="currentColor" d="M0 0h12v12H0z"/></clipPath></defs></svg>