<svg xmlns="http://www.w3.org/2000/svg" width="12" height="12" fill="none" data-fui-icon="true" viewBox="0 0 12 12"><path fill="currentColor" d="M2.805 6.375c.752 0 1.55.55 1.55 1.445 0 .477-.23.829-.472 1.068a.75.75 0 0 1-.133 1.487H1.875a.75.75 0 0 1-.75-.75c0-.515.31-.856.543-1.05.226-.186.515-.342.703-.449.176-.1.298-.175.385-.242a.5.5 0 0 0-.14.06 1 1 0 0 0-.09.06q-.015.011-.018.015 0 0 .002-.003A.75.75 0 0 1 1.485 6.92l.23.243-.229-.243h.001l.001-.003.004-.003.009-.008a2 2 0 0 1 .1-.083c.062-.049.149-.111.256-.174a1.9 1.9 0 0 1 .948-.274m7.32 1.25a.75.75 0 0 1 0 1.5h-4.25a.75.75 0 0 1 0-1.5zm-7.43-5.864a.75.75 0 0 1 1.18.614v2.5a.75.75 0 0 1-1.5 0v-1.06l-.07.05a.75.75 0 0 1-.86-1.229zm7.43 1.114a.75.75 0 0 1 0 1.5h-4.25a.75.75 0 0 1 0-1.5z"/></svg>