<svg xmlns="http://www.w3.org/2000/svg" width="20" height="20" fill="none" data-fui-icon="true" viewBox="0 0 20 20"><path fill="currentColor" d="M10.001 10.292q.72.001 1.39.128a.75.75 0 0 1-.28 1.474 6 6 0 0 0-1.219-.101h-.001a6 6 0 0 0-.673.049l-.096.013a6 6 0 0 0-.221.038l-.08.014c-1.902.385-3.317 1.697-3.964 3.448a.47.47 0 0 0 .089.494c.13.155.36.276.635.276h4.628a.75.75 0 0 1 0 1.5H5.581a2.33 2.33 0 0 1-1.785-.812 1.97 1.97 0 0 1-.346-1.979c.821-2.222 2.65-3.91 5.08-4.398l.078-.015q.162-.03.329-.054l.064-.01q.183-.023.37-.039l.11-.008q.189-.013.384-.017zm6.137 2.512a.75.75 0 1 1 1.06 1.06L16.063 15l1.137 1.137a.75.75 0 0 1-1.06 1.06L15 16.061l-1.136 1.136a.75.75 0 0 1-1.06-1.06L13.94 15l-1.136-1.136a.75.75 0 0 1 1.06-1.06l1.137 1.136zM10.001 1.542a3.875 3.875 0 1 1 0 7.75 3.875 3.875 0 0 1 0-7.75m0 1.5a2.375 2.375 0 1 0 0 4.75 2.375 2.375 0 0 0 0-4.75"/></svg>