<svg xmlns="http://www.w3.org/2000/svg" width="20" height="20" fill="none" data-fui-icon="true" viewBox="0 0 20 20"><path fill="currentColor" d="M15.833 12.583a.75.75 0 0 1 .75.75v1.75h1.75a.75.75 0 0 1 0 1.5h-1.75v1.75a.75.75 0 0 1-1.5 0v-1.75h-1.75a.75.75 0 0 1 0-1.5h1.75v-1.75a.75.75 0 0 1 .75-.75M14.813 2a3.25 3.25 0 0 1 3.25 3.252v5.993a.75.75 0 0 1-1.5 0V5.252c0-.967-.785-1.752-1.75-1.752H5.156a1.75 1.75 0 0 0-1.75 1.75v9.563c0 .966.784 1.75 1.75 1.75h6.05a.75.75 0 0 1 0 1.5h-6.05a3.25 3.25 0 0 1-3.25-3.25V5.25A3.25 3.25 0 0 1 5.156 2zM10 12.583a.75.75 0 0 1 0 1.5H5.833a.75.75 0 0 1 0-1.5zm4.166-3.333a.75.75 0 0 1 0 1.5H5.833a.75.75 0 0 1 0-1.5zm0-3.333a.75.75 0 0 1 0 1.5H5.833a.75.75 0 0 1 0-1.5z"/></svg>