<svg xmlns="http://www.w3.org/2000/svg" width="16" height="16" fill="none" data-fui-icon="true" viewBox="0 0 16 16"><g clip-path="url(#a)"><path fill="currentColor" d="M8 0a8 8 0 1 1 0 16A8 8 0 0 1 8 0m0 9.5c-1.206 0-2.062.458-2.613.93a3.8 3.8 0 0 0-.597.646 3 3 0 0 0-.148.226q-.026.044-.041.073l-.014.023-.004.01-.004.006.52.26-.52-.259a.75.75 0 0 0 1.34.67v.005l-.002.003.001-.001.013-.023q.022-.037.076-.114c.074-.102.19-.244.356-.386C6.687 11.292 7.206 11 8 11s1.313.292 1.637.57a2.2 2.2 0 0 1 .432.5l.014.023-.002-.003-.002-.004v-.001a.75.75 0 0 0 1.342-.67l-.52.26c.52-.26.52-.262.519-.262l-.001-.002-.002-.003-.004-.01-.014-.023-.04-.073a3 3 0 0 0-.149-.226 3.8 3.8 0 0 0-.597-.645C10.062 9.958 9.206 9.5 8 9.5M5 6a1 1 0 1 0 0 2 1 1 0 0 0 0-2m6 0a1 1 0 1 0 0 2 1 1 0 0 0 0-2"/></g><defs><clipPath id="a"><path fill="currentColor" d="M0 0h16v16H0z"/></clipPath></defs></svg>