<svg xmlns="http://www.w3.org/2000/svg" width="16" height="16" fill="none" data-fui-icon="true" viewBox="0 0 16 16"><path fill="currentColor" d="M9.476 2.5a2.75 2.75 0 0 1 2.726 3.102l-.02.148h1.045a2 2 0 0 1 1.79 1.105l.73 1.46a2 2 0 0 1 .19 1.177l-.291 2.041a2 2 0 0 1-1.757 1.702 2.5 2.5 0 0 1-4.774.015h-1.23a2.5 2.5 0 0 1-4.774-.008 2.75 2.75 0 0 1-2.527-3.13l.053-.372A.75.75 0 0 1 .75 8.25H3a.75.75 0 0 1 0 1.5h-.85l-.082.573a1.25 1.25 0 0 0 1.052 1.411 2.5 2.5 0 0 1 4.765.016h1.23c.167-.53.504-.982.948-1.295l.652-5.045A1.25 1.25 0 0 0 9.475 4H3a.75.75 0 0 1 0-1.5zm-3.976 9a1 1 0 1 0 0 2 1 1 0 0 0 0-2m6 0a1 1 0 1 0 0 2 1 1 0 0 0 0-2m.134-1.494a2.5 2.5 0 0 1 2.234 1.7.5.5 0 0 0 .293-.386l.291-2.04a.5.5 0 0 0-.048-.294l-.73-1.46a.5.5 0 0 0-.447-.276H11.99zM5.75 5.25a.75.75 0 0 1 0 1.5H1a.75.75 0 0 1 0-1.5z"/></svg>