<svg xmlns="http://www.w3.org/2000/svg" width="20" height="20" fill="none" data-fui-icon="true" viewBox="0 0 20 20"><path fill="currentColor" d="M13.543 2.75a5.75 5.75 0 0 1 5.712 5.09l.668 5.788a3.25 3.25 0 0 1-3.228 3.622h-.363a3.25 3.25 0 0 1-1.95-.65l-1.666-1.25a1.75 1.75 0 0 0-1.05-.35H8.333c-.378 0-.748.123-1.05.35L5.616 16.6a3.25 3.25 0 0 1-1.95.65h-.362a3.25 3.25 0 0 1-3.228-3.622L.744 7.84A5.75 5.75 0 0 1 6.455 2.75zm-7.088 1.5a4.25 4.25 0 0 0-4.221 3.763L1.566 13.8a1.75 1.75 0 0 0 1.738 1.95h.362c.379 0 .747-.123 1.05-.35l1.667-1.25a3.25 3.25 0 0 1 1.95-.65h3.333c.704 0 1.388.229 1.95.65l1.667 1.25c.302.227.671.35 1.05.35h.362a1.75 1.75 0 0 0 1.738-1.95l-.668-5.787a4.25 4.25 0 0 0-4.222-3.763zm.42 2.188a.75.75 0 0 1 .75.75v1.125H8.75a.75.75 0 0 1 0 1.5H7.625v1.124a.75.75 0 0 1-1.5 0V9.814H5a.75.75 0 1 1 0-1.5h1.125V7.187a.75.75 0 0 1 .75-.75M12.5 9.5a1 1 0 1 1-.001 2.001A1 1 0 0 1 12.5 9.5m2-3a1 1 0 1 1 0 2.001 1 1 0 0 1 0-2.001"/></svg>