<svg xmlns="http://www.w3.org/2000/svg" width="24" height="24" fill="none" data-fui-icon="true" viewBox="0 0 24 24"><path stroke="currentColor" stroke-width="1.5" d="M19.636 5.023a18.1 18.1 0 0 0-4.539-1.404q-.321.578-.581 1.188a16.8 16.8 0 0 0-5.037 0 13 13 0 0 0-.582-1.188 18.3 18.3 0 0 0-4.542 1.407C1.483 9.3.705 13.465 1.093 17.572A18.3 18.3 0 0 0 6.66 20.38q.677-.916 1.192-1.933c-.65-.244-1.279-.546-1.877-.9.157-.115.311-.234.46-.349a13.02 13.02 0 0 0 11.13 0q.225.188.46.348-.902.535-1.88.903.513 1.017 1.191 1.93a18.2 18.2 0 0 0 5.57-2.807c.457-4.762-.78-8.89-3.27-12.55Z"/><path fill="currentColor" d="M6.364 12.838c0 1.218.897 2.208 1.982 2.208 1.105 0 1.96-.99 1.98-2.208.018-1.217-.871-2.216-1.984-2.216s-1.978.999-1.978 2.216m7.311 0c0 1.218.893 2.208 1.98 2.208 1.105 0 1.958-.99 1.977-2.208.02-1.217-.863-2.216-1.977-2.216s-1.98.999-1.98 2.216"/></svg>