<svg xmlns="http://www.w3.org/2000/svg" width="12" height="12" fill="none" data-fui-icon="true" viewBox="0 0 12 12"><path fill="currentColor" d="M4.26 0C4.953 0 5.583.314 6 .818A2.26 2.26 0 0 1 7.74 0H8a2 2 0 0 1 1.93 2.518h.68c.768 0 1.39.622 1.39 1.39v1.211a1.39 1.39 0 0 1-1 1.333V10.1A1.9 1.9 0 0 1 9.1 12H2.9A1.9 1.9 0 0 1 1 10.1V6.452A1.39 1.39 0 0 1 0 5.12V3.907c0-.767.622-1.39 1.39-1.39h.68A2 2 0 0 1 4 0zM2.5 10.1c0 .22.18.4.4.4h2.35V6.509H2.5zm4.25.4H9.1a.4.4 0 0 0 .4-.4V6.509H6.75zM1.5 5.009h3.75v-.991H1.5zm5.25 0h3.75v-.991H6.75zM4 1.5a.5.5 0 0 0 0 1h1.085l-.077-.388A.76.76 0 0 0 4.26 1.5zm3.74 0a.76.76 0 0 0-.748.612l-.077.388H8a.5.5 0 0 0 0-1z"/></svg>