<svg xmlns="http://www.w3.org/2000/svg" width="16" height="16" fill="none" data-fui-icon="true" viewBox="0 0 16 16"><path fill="currentColor" d="M8 .5c.47 0 .933.126 1.339.364l4.565 2.68A2.22 2.22 0 0 1 15 5.46v5.082a2.22 2.22 0 0 1-1.096 1.914l-4.565 2.68a2.64 2.64 0 0 1-2.678 0l-4.565-2.68A2.22 2.22 0 0 1 1 10.541V5.459a2.22 2.22 0 0 1 1.096-1.914L6.66.865A2.64 2.64 0 0 1 8 .5M8 2c-.204 0-.404.054-.58.157l-4.565 2.68a.72.72 0 0 0-.355.622v5.082a.72.72 0 0 0 .355.621l4.566 2.68a1.15 1.15 0 0 0 1.158 0l4.566-2.68a.72.72 0 0 0 .355-.621V5.459a.72.72 0 0 0-.355-.621l-4.566-2.68A1.14 1.14 0 0 0 8 2M3.7 5.51a.75.75 0 0 1 1.017-.301l3.28 1.774 3.281-1.774a.75.75 0 0 1 .714 1.318L8.745 8.285v3.857a.75.75 0 0 1-1.5 0v-3.86L4.003 6.527A.75.75 0 0 1 3.7 5.511"/></svg>