<svg xmlns="http://www.w3.org/2000/svg" width="16" height="16" fill="none" data-fui-icon="true" viewBox="0 0 16 16"><path fill="currentColor" d="M12 .25c.951 0 1.788.784 1.714 1.805-.093 1.298-.362 2.268-.742 3.02a5 5 0 0 1-1.306 1.63c-.216.18-.43.335-.601.462-.181.134-.311.235-.414.333-.17.162-.233.281-.233.5s.063.338.233.5c.103.098.233.199.414.333.171.127.385.282.601.463.447.373.923.87 1.306 1.629.38.752.649 1.722.742 3.02.074 1.021-.763 1.805-1.713 1.805H4c-.951 0-1.788-.784-1.714-1.805.093-1.298.362-2.268.742-3.02a5 5 0 0 1 1.305-1.63c.217-.18.43-.335.602-.462.181-.134.311-.235.414-.333.17-.162.234-.281.234-.5s-.064-.338-.234-.5a5 5 0 0 0-.414-.333c-.171-.127-.385-.282-.602-.463A5 5 0 0 1 3.03 5.075c-.38-.752-.649-1.722-.742-3.02C2.213 1.034 3.05.25 4 .25zm-8 1.5c-.07 0-.13.029-.168.068a.16.16 0 0 0-.05.13c.083 1.146.314 1.913.586 2.45.268.532.595.876.93 1.156.173.145.345.27.532.408.176.13.377.282.555.452.393.375.699.865.699 1.586s-.306 1.211-.699 1.586c-.178.17-.379.321-.555.452-.187.138-.359.263-.533.408-.334.28-.66.624-.93 1.156-.27.537-.502 1.304-.584 2.45a.16.16 0 0 0 .049.13c.039.04.098.068.168.068h8c.07 0 .13-.029.17-.068a.16.16 0 0 0 .048-.13c-.082-1.145-.313-1.913-.585-2.45a3.5 3.5 0 0 0-.93-1.156c-.173-.145-.345-.27-.532-.408a6 6 0 0 1-.555-.452C9.223 9.21 8.917 8.722 8.917 8s.306-1.211.699-1.586c.178-.17.379-.321.555-.452.187-.138.359-.263.533-.408.334-.28.661-.625.93-1.156.27-.537.502-1.305.584-2.45a.16.16 0 0 0-.049-.13.24.24 0 0 0-.168-.068zM10.5 3c.276 0 .504.228.42.491-.284.88-1.278 1.716-2.373 2.263-.344.172-.75.172-1.094 0C6.358 5.207 5.364 4.372 5.08 3.49 4.996 3.228 5.224 3 5.5 3z"/></svg>