<svg xmlns="http://www.w3.org/2000/svg" width="32" height="32" fill="none" data-fui-icon="true" viewBox="0 0 32 32"><path fill="currentColor" d="M18.227 31.844c-.728.101-1.471.156-2.227.156s-1.5-.055-2.227-.156l.207-1.484a14.7 14.7 0 0 0 4.04 0zM7.073 27.428a14.5 14.5 0 0 0 3.493 2.02l-.28.695-.13.322-.151.373a16 16 0 0 1-3.857-2.23h.001l.016-.02zm18.778 1.18a16 16 0 0 1-3.857 2.23l-.28-.694v-.001l-.28-.695a14.5 14.5 0 0 0 3.493-2.02zm-23.3-7.174a14.5 14.5 0 0 0 2.021 3.493l-1.181.924a16 16 0 0 1-2.23-3.857zm27.592.28.38.153.315.127a16 16 0 0 1-2.23 3.857l-.59-.462-.59-.462a14.5 14.5 0 0 0 2.02-3.493zM1.64 13.98a14.6 14.6 0 0 0 0 4.04l-1.485.207a16.1 16.1 0 0 1 0-4.454zm30.204-.207C31.945 14.5 32 15.244 32 16s-.055 1.499-.156 2.227l-1.484-.207a14.7 14.7 0 0 0 0-4.04zM3.392 6.149l1.18.924a14.5 14.5 0 0 0-2.02 3.493l-.696-.28-.695-.281a16 16 0 0 1 2.23-3.857zm25.216 0a16 16 0 0 1 2.23 3.856l-.694.281h-.001l-.695.28a14.5 14.5 0 0 0-2.02-3.493zM10.286 1.855l.28.696a14.5 14.5 0 0 0-3.493 2.02l-.924-1.18V3.39a16 16 0 0 1 3.856-2.23zm11.708-.695a16 16 0 0 1 3.857 2.23l-.924 1.181a14.5 14.5 0 0 0-3.493-2.02zM16 0q1.134.002 2.227.155L18.02 1.64a14.6 14.6 0 0 0-4.04 0L13.772.155A16 16 0 0 1 16 0"/></svg>