<svg xmlns="http://www.w3.org/2000/svg" width="20" height="20" fill="none" data-fui-icon="true" viewBox="0 0 20 20"><path fill="currentColor" d="M9.676 1.542a2.42 2.42 0 0 1 2.391 2.789l-.344 2.211h3.493a3.25 3.25 0 0 1 3.213 3.74l-.698 4.582a3.25 3.25 0 0 1-3.212 2.761H3.125a1.583 1.583 0 0 1-1.583-1.583v-6.25c0-.874.709-1.583 1.583-1.583h2.15L8.268 2.4l1.333.687-3.226 6.262v6.776h8.144c.864 0 1.6-.632 1.73-1.486l.697-4.583a1.75 1.75 0 0 0-1.73-2.014h-4.37a.752.752 0 0 1-.74-.865l.74.115v-.001l-.74-.114.48-3.077a.92.92 0 0 0-.91-1.058.08.08 0 0 0-.074.045L8.268 2.4a1.59 1.59 0 0 1 1.408-.858M3.125 9.709a.083.083 0 0 0-.083.083v6.25c0 .046.037.083.083.083h1.75V9.709z"/></svg>