<svg xmlns="http://www.w3.org/2000/svg" width="16" height="16" fill="none" data-fui-icon="true" viewBox="0 0 16 16"><path fill="currentColor" d="M13.72 1.22a.75.75 0 0 1 1.06 1.06l-3.472 3.472a4 4 0 0 1-5.557 5.557L2.28 14.78a.75.75 0 0 1-1.061-1.06l3.47-3.472a4 4 0 0 1 5.557-5.557zm-.26 3.811a.75.75 0 0 1 1.045.187 17 17 0 0 1 1.379 2.365.98.98 0 0 1 0 .831 16.6 16.6 0 0 1-2.286 3.543C12.319 13.452 10.419 15 8 15c-.916 0-1.76-.224-2.523-.581a.75.75 0 0 1 .637-1.359c.592.278 1.22.44 1.886.44 1.755 0 3.274-1.135 4.46-2.52 1.003-1.17 1.675-2.418 1.956-2.982a16 16 0 0 0-1.142-1.923.75.75 0 0 1 .186-1.044M8 1c.916 0 1.76.224 2.522.581a.75.75 0 0 1-.636 1.358A4.4 4.4 0 0 0 8 2.5c-1.755 0-3.274 1.135-4.46 2.52C2.537 6.19 1.864 7.437 1.583 8c.196.393.583 1.121 1.142 1.924a.75.75 0 1 1-1.23.857A17 17 0 0 1 .116 8.417a.98.98 0 0 1-.002-.831l.258-.518c.366-.7 1.055-1.89 2.028-3.025C3.681 2.548 5.582 1 8 1m-1.155 9.215a2.5 2.5 0 0 0 3.37-3.37zM8 5.5a2.5 2.5 0 0 0-2.216 3.654l3.37-3.37A2.5 2.5 0 0 0 8 5.5"/></svg>