<svg xmlns="http://www.w3.org/2000/svg" width="24" height="24" fill="none" data-fui-icon="true" viewBox="0 0 24 24"><path fill="currentColor" d="M18.328 2.806a.75.75 0 0 1 1.448.388L18.69 7.251h3.315a.75.75 0 0 1 0 1.5h-3.716l-1.763 6.58h3.556a.75.75 0 0 1 0 1.5h-3.958l-1.088 4.06a.75.75 0 0 1-1.45-.389l.985-3.672H6.89l-1.088 4.06a.75.75 0 0 1-1.45-.388l.985-3.672H2a.75.75 0 0 1 0-1.5h3.738l1.764-6.579h-3.58a.75.75 0 0 1 0-1.5h3.981l1.192-4.445a.75.75 0 0 1 1.448.388L9.456 7.251h7.68zM7.292 15.33h7.68l1.763-6.579h-7.68z"/></svg>