<svg xmlns="http://www.w3.org/2000/svg" width="16" height="16" fill="none" data-fui-icon="true" viewBox="0 0 16 16"><path fill="currentColor" d="M13.5.25a.75.75 0 0 1 .75.75v14a.75.75 0 0 1-1.2.6l-1.519-1.14-1.293 1.11a.75.75 0 0 1-.976 0L8 14.486 6.738 15.57a.75.75 0 0 1-.976 0L4.468 14.46 2.95 15.6a.75.75 0 0 1-1.2-.6V1A.75.75 0 0 1 2.5.25zM3.25 13.5l.8-.6.11-.069a.75.75 0 0 1 .828.1l1.262 1.08 1.262-1.08.111-.08a.75.75 0 0 1 .865.08l1.262 1.08 1.262-1.08.105-.076a.75.75 0 0 1 .833.045l.8.6V1.75h-9.5zM8.5 6.25a.75.75 0 0 1 0 1.5h-3a.75.75 0 0 1 0-1.5zm2-3a.75.75 0 0 1 0 1.5h-5a.75.75 0 0 1 0-1.5z"/></svg>