<svg xmlns="http://www.w3.org/2000/svg" width="16" height="16" fill="none" data-fui-icon="true" viewBox="0 0 16 16"><path fill="currentColor" fill-rule="evenodd" d="M7.42 2.158a1.14 1.14 0 0 1 1.16 0l4.564 2.68a.72.72 0 0 1 .356.621v5.082a.72.72 0 0 1-.356.621l-4.565 2.68a1.15 1.15 0 0 1-1.158 0l-4.565-2.68a.72.72 0 0 1-.356-.621V5.459a.72.72 0 0 1 .356-.621zM8 .5c-.47 0-.933.126-1.339.364l-4.565 2.68A2.22 2.22 0 0 0 1 5.46v5.082a2.22 2.22 0 0 0 1.096 1.915l4.565 2.68a2.65 2.65 0 0 0 2.678 0l4.565-2.68A2.22 2.22 0 0 0 15 10.54V5.459a2.22 2.22 0 0 0-1.096-1.914L9.339.864A2.64 2.64 0 0 0 8 .5m3.992 6.028L8.746 8.286v3.856a.75.75 0 1 1-1.5 0v-3.86L4.003 6.529a.75.75 0 1 1 .714-1.32l3.28 1.776L11.28 5.21a.75.75 0 1 1 .713 1.32" clip-rule="evenodd"/></svg>