<svg xmlns="http://www.w3.org/2000/svg" width="12" height="13" fill="none" data-fui-icon="true" viewBox="0 0 12 13"><path fill="currentColor" d="M6.007 0a.75.75 0 0 1 .75.75v.208c1.956.263 2.798 1.539 2.975 2.362a.751.751 0 0 1-1.467.314c-.045-.208-.36-.93-1.508-1.155V5.4c.564.115 1.166.27 1.666.544.362.199.705.475.953.869.25.396.372.864.372 1.392 0 1.294-1.09 2.602-2.991 2.877v.214a.75.75 0 0 1-1.5 0v-.212c-.848-.12-1.492-.437-1.969-.845a3.36 3.36 0 0 1-1-1.491.75.75 0 0 1 1.425-.468c.067.204.223.54.55.82.215.183.53.363.994.46V6.645c-.564-.115-1.166-.269-1.666-.542a2.54 2.54 0 0 1-.953-.869c-.25-.397-.372-.864-.372-1.392 0-1.294 1.09-2.604 2.991-2.88V.75a.75.75 0 0 1 .75-.75m.75 9.562c1.136-.236 1.49-.99 1.491-1.357 0-.29-.064-.47-.141-.594a1.05 1.05 0 0 0-.404-.35c-.253-.139-.57-.236-.946-.323zm-1.5-7.079c-1.137.237-1.491.992-1.491 1.358 0 .29.064.47.141.594.08.126.206.242.404.35.253.139.57.235.946.321z"/></svg>