<svg xmlns="http://www.w3.org/2000/svg" width="20" height="20" fill="none" data-fui-icon="true" viewBox="0 0 20 20"><path fill="currentColor" d="M9.924.25c.713 0 1.396.286 1.898.792l5.144 5.184c.503.506.784 1.19.784 1.904v8.924a2.69 2.69 0 0 1-2.68 2.696H4.93a2.69 2.69 0 0 1-2.68-2.696V2.946A2.69 2.69 0 0 1 4.93.25zm.303 8.5a.75.75 0 0 0-.75.75v4.794l-1.053-1.052a.75.75 0 1 0-1.06 1.06l2 2.002c.44.439 1.152.439 1.591 0l2.174-2.175a.75.75 0 1 0-1.06-1.06l-1.092 1.092V9.5a.75.75 0 0 0-.75-.75m1.248-3.372c0 .666.533 1.196 1.18 1.196H15.2L11.475 2.82z"/></svg>