<svg xmlns="http://www.w3.org/2000/svg" width="16" height="16" fill="none" data-fui-icon="true" viewBox="0 0 16 16"><path fill="currentColor" d="M7.74 1.083a2.086 2.086 0 0 1 2.062 2.404l-.25 1.596h2.62a2.75 2.75 0 0 1 2.719 3.164l-.558 3.666a2.75 2.75 0 0 1-2.719 2.337H2.5a1.42 1.42 0 0 1-1.417-1.417v-5c0-.782.635-1.417 1.417-1.417h1.628L6.48 1.851l.102-.168a1.42 1.42 0 0 1 1.158-.6M2.583 12.75H3.75V7.916H2.583zM5.25 7.514v5.236h6.364a1.25 1.25 0 0 0 1.236-1.062l.558-3.667a1.25 1.25 0 0 0-1.236-1.438H8.677a.75.75 0 0 1-.741-.865l.383-2.462a.583.583 0 0 0-.532-.668z"/></svg>