<svg xmlns="http://www.w3.org/2000/svg" width="24" height="24" fill="none" data-fui-icon="true" viewBox="0 0 24 24"><g clip-path="url(#a)"><path fill="currentColor" d="M12 0c6.42 0 12 5.58 12 12s-5.58 12-12 12S0 18.42 0 12 5.58 0 12 0m0 1.5C6.408 1.5 1.5 6.408 1.5 12S6.408 22.5 12 22.5 22.5 17.592 22.5 12 17.592 1.5 12 1.5m0 13.75c1.706 0 2.906.646 3.676 1.306.38.326.655.653.835.903a4 4 0 0 1 .26.407l.016.03.005.011.003.006s0 .002-.565.284l.566-.282a.75.75 0 0 1-1.304.737l-.035-.061v-.001l-.003-.004v-.003l-.027-.046a3.739 3.739 0 0 0-.728-.843c-.542-.464-1.405-.944-2.699-.944s-2.157.48-2.7.944a3.7 3.7 0 0 0-.727.843l-.026.046-.002.002v.003l-.001.002h-.001l-.035.062a.75.75 0 0 1-1.304-.737l.566.282-.566-.283h.001l.003-.007.005-.01.016-.03.056-.098c.047-.078.114-.185.204-.31.18-.25.454-.577.835-.903.77-.66 1.97-1.306 3.676-1.306M7.2 10.3a1.2 1.2 0 1 1 0 2.4 1.2 1.2 0 0 1 0-2.4m9.6 0a1.2 1.2 0 1 1 0 2.4 1.2 1.2 0 0 1 0-2.4"/></g><defs><clipPath id="a"><path fill="currentColor" d="M0 0h24v24H0z"/></clipPath></defs></svg>