<svg xmlns="http://www.w3.org/2000/svg" width="24" height="24" fill="none" data-fui-icon="true" viewBox="0 0 24 24"><path fill="currentColor" d="M12.75 8.75a.75.75 0 0 0 0 1.5h3.5a.75.75 0 0 0 0-1.5zM12 14a.75.75 0 0 1 .75-.75h3.5a.75.75 0 0 1 0 1.5h-3.5A.75.75 0 0 1 12 14m.75 3.75a.75.75 0 0 0 0 1.5h3.5a.75.75 0 0 0 0-1.5zm-2.006-9.564a.75.75 0 0 1 .07 1.058l-1.75 2a.75.75 0 0 1-1.15-.025l-1-1.25a.75.75 0 1 1 1.172-.938l.44.55 1.16-1.325a.75.75 0 0 1 1.058-.07m.07 5.558a.75.75 0 1 0-1.128-.988l-1.16 1.326-.44-.55a.75.75 0 1 0-1.172.937l1 1.25a.75.75 0 0 0 1.15.025zm-.07 3.442a.75.75 0 0 1 .07 1.058l-1.75 2a.75.75 0 0 1-1.15-.026l-1-1.25a.75.75 0 1 1 1.172-.936l.44.55 1.16-1.326a.75.75 0 0 1 1.058-.07"/><path fill="currentColor" fill-rule="evenodd" d="M11.216.5a1.5 1.5 0 0 0-1.413.996L9.623 2H8.501c-.652 0-1.21.417-1.416 1h-1.46A2.625 2.625 0 0 0 3 5.625v15.75A2.625 2.625 0 0 0 5.625 24h12.75A2.625 2.625 0 0 0 21 21.375V5.625A2.625 2.625 0 0 0 18.375 3h-1.46c-.207-.583-.764-1-1.416-1h-1.122l-.18-.505A1.5 1.5 0 0 0 12.784.5zM19.5 5.625c0-.621-.504-1.125-1.125-1.125H17V5a1.5 1.5 0 0 1-1.5 1.5h-7A1.5 1.5 0 0 1 7 5v-.5H5.625c-.621 0-1.125.504-1.125 1.125v15.75c0 .621.504 1.125 1.125 1.125h12.75c.621 0 1.125-.504 1.125-1.125zM11.216 2h1.568l.358 1.002a.75.75 0 0 0 .706.498H15.5V5h-7V3.5h1.651c.318 0 .6-.2.707-.498z" clip-rule="evenodd"/></svg>