<svg xmlns="http://www.w3.org/2000/svg" width="24" height="24" fill="none" data-fui-icon="true" viewBox="0 0 24 24"><path fill="currentColor" d="M12 18a.75.75 0 0 1-.75-.75v-4.5h-4.5a.75.75 0 0 1 0-1.5h4.5v-4.5a.75.75 0 0 1 1.5 0v4.5h4.5a.75.75 0 0 1 0 1.5h-4.5v4.5A.75.75 0 0 1 12 18"/><path fill="currentColor" fill-rule="evenodd" d="M2 6.75A4.75 4.75 0 0 1 6.75 2h10.5A4.75 4.75 0 0 1 22 6.75v10.5A4.75 4.75 0 0 1 17.25 22H6.75A4.75 4.75 0 0 1 2 17.25zM6.75 3.5A3.25 3.25 0 0 0 3.5 6.75v10.5a3.25 3.25 0 0 0 3.25 3.25h10.5a3.25 3.25 0 0 0 3.25-3.25V6.75a3.25 3.25 0 0 0-3.25-3.25z" clip-rule="evenodd"/></svg>