<svg xmlns="http://www.w3.org/2000/svg" width="20" height="20" fill="none" data-fui-icon="true" viewBox="0 0 20 20"><g clip-path="url(#a)"><path fill="currentColor" d="M10 0c.586 0 1.16.166 1.655.48l6.082 3.844A2.71 2.71 0 0 1 19 6.615v6.77a2.71 2.71 0 0 1-1.263 2.29l-6.082 3.845a3.1 3.1 0 0 1-3.31 0l-6.082-3.844A2.71 2.71 0 0 1 1 13.385v-6.77c0-.93.477-1.794 1.263-2.29L8.345.478A3.1 3.1 0 0 1 10 0m0 1.5c-.302 0-.598.086-.854.247L3.063 5.592A1.21 1.21 0 0 0 2.5 6.615v6.77c0 .415.213.801.563 1.023l6.083 3.845a1.6 1.6 0 0 0 1.707 0l6.083-3.845a1.21 1.21 0 0 0 .564-1.023v-6.77a1.21 1.21 0 0 0-.564-1.023l-6.082-3.845A1.6 1.6 0 0 0 10 1.5M4.536 6.83a.75.75 0 0 1 1.017-.303l4.444 2.405 4.444-2.405a.75.75 0 1 1 .714 1.319l-4.41 2.387v5.234a.75.75 0 0 1-1.5 0V10.23L4.838 7.846a.75.75 0 0 1-.303-1.017"/></g><defs><clipPath id="a"><path fill="currentColor" d="M0 0h20v20H0z"/></clipPath></defs></svg>