<svg xmlns="http://www.w3.org/2000/svg" width="32" height="32" fill="none" data-fui-icon="true" viewBox="0 0 32 32"><path fill="currentColor" d="M14 18.75c3.056 0 5.327.635 7.008 1.613a8.6 8.6 0 0 1 3.376 3.534c.901 1.753-.236 3.614-1.934 4.116-1.938.572-4.942 1.237-8.45 1.237s-6.512-.665-8.449-1.237c-1.698-.502-2.836-2.363-1.935-4.117a8.6 8.6 0 0 1 3.376-3.533c1.681-.978 3.952-1.613 7.008-1.613m0 1.5c-2.847 0-4.845.59-6.253 1.41a7.1 7.1 0 0 0-2.797 2.922c-.382.743.032 1.698 1.026 1.992 1.843.545 4.7 1.176 8.024 1.176 3.325 0 6.182-.631 8.025-1.176.993-.294 1.407-1.249 1.025-1.992a7.1 7.1 0 0 0-2.797-2.923C18.846 20.84 16.847 20.25 14 20.25m8.288-4.487a.75.75 0 0 1 .95-.475c3.07 1.024 5.223 2.086 7.348 4.743a.75.75 0 0 1-1.172.938c-1.874-2.343-3.722-3.28-6.651-4.257a.75.75 0 0 1-.475-.95M14 2.75a6.25 6.25 0 1 1 0 12.5 6.25 6.25 0 0 1 0-12.5m0 1.5a4.75 4.75 0 1 0 0 9.5 4.75 4.75 0 0 0 0-9.5m7.5-3.5a6.25 6.25 0 0 1 5.113 9.845.75.75 0 0 1-1.226-.864A4.75 4.75 0 0 0 21.5 2.25a.75.75 0 0 1 0-1.5"/></svg>