<svg xmlns="http://www.w3.org/2000/svg" width="20" height="20" fill="none" data-fui-icon="true" viewBox="0 0 20 20"><path fill="currentColor" d="M13.544 2.75a5.75 5.75 0 0 1 5.712 5.09l.668 5.788a3.25 3.25 0 0 1-3.229 3.622h-.362a3.25 3.25 0 0 1-1.95-.65l-1.666-1.25a1.75 1.75 0 0 0-1.05-.35H8.334c-.379 0-.748.123-1.051.35L5.616 16.6a3.25 3.25 0 0 1-1.95.65h-.362a3.25 3.25 0 0 1-3.228-3.622L.744 7.84A5.75 5.75 0 0 1 6.456 2.75zm-6.67 3.688a.75.75 0 0 0-.75.75v1.125H5a.75.75 0 0 0 0 1.5h1.125v1.124a.75.75 0 0 0 1.5 0V9.814H8.75a.75.75 0 0 0 0-1.5H7.625V7.187a.75.75 0 0 0-.75-.75M12.5 9.5a1 1 0 1 0 0 2 1 1 0 0 0 0-2m2-3a1 1 0 1 0 0 2 1 1 0 0 0 0-2"/></svg>