<svg xmlns="http://www.w3.org/2000/svg" width="24" height="24" fill="none" data-fui-icon="true" viewBox="0 0 24 24"><path fill="currentColor" d="M10.01 1.896c.905-1.578 3.255-1.525 4.064.158l2.332 4.853 5.37.704c1.911.25 2.696 2.612 1.28 3.947l-3.92 3.695.984 5.279c.356 1.912-1.667 3.35-3.355 2.44L12 20.405l-4.765 2.569c-1.687.91-3.71-.528-3.353-2.441l.982-5.28-3.919-3.694C-.47 10.223.313 7.86 2.225 7.61l5.369-.704 2.333-4.853zm2.712.807a.802.802 0 0 0-1.444 0L8.782 7.9l-.049.088a.8.8 0 0 1-.568.358l-5.744.752a.796.796 0 0 0-.447 1.368l4.2 3.959c.196.186.285.46.236.725l-1.054 5.656a.8.8 0 0 0 1.056.896l.111-.05 5.097-2.747a.8.8 0 0 1 .762 0l5.095 2.748a.801.801 0 0 0 1.182-.725l-.014-.122-1.054-5.656a.8.8 0 0 1 .236-.725l4.2-3.959a.796.796 0 0 0-.326-1.344l-.12-.024-5.744-.752a.8.8 0 0 1-.569-.358l-.05-.088z"/></svg>