<svg xmlns="http://www.w3.org/2000/svg" width="24" height="24" fill="none" data-fui-icon="true" viewBox="0 0 24 24"><path fill="currentColor" fill-rule="evenodd" d="M20.865 2.262a.75.75 0 0 1 .873.873l-.008.039-.02.11-.08.418a99.298 99.298 0 0 1-1.442 6.278c-.48 1.8-1.053 3.709-1.696 5.358-.63 1.618-1.366 3.097-2.212 3.942a8.175 8.175 0 0 1-11.006.507L3.53 21.53a.75.75 0 1 1-1.06-1.06l1.743-1.744A8.175 8.175 0 0 1 4.72 7.72c.845-.846 2.324-1.582 3.942-2.212 1.65-.643 3.557-1.217 5.358-1.695a99 99 0 0 1 6.696-1.523l.11-.02.029-.006zM15.22 18.22a6.676 6.676 0 0 1-8.88.5L10.06 15h4.19a.75.75 0 1 0 0-1.5h-2.69l5.47-5.47a.75.75 0 0 0-1.06-1.06l-3.22 3.22V8.837a.75.75 0 0 0-1.5 0v2.851l-3.085 3.085.085-2.75a.75.75 0 0 0-1.5-.047l-.134 4.346L5.28 17.66a6.676 6.676 0 0 1 .501-8.88c.605-.604 1.82-1.249 3.426-1.875 1.576-.614 3.424-1.171 5.199-1.643A98 98 0 0 1 20.05 3.95a101 101 0 0 1-1.313 5.646c-.472 1.774-1.03 3.623-1.643 5.199-.626 1.607-1.27 2.821-1.875 3.426" clip-rule="evenodd"/></svg>