<svg xmlns="http://www.w3.org/2000/svg" width="20" height="20" fill="none" data-fui-icon="true" viewBox="0 0 20 20"><path fill="currentColor" d="M15.51 12.25c.123 0 .235.075.274.191q.211.625.212 1.385c0 2.168-2.083 4.577-5.983 4.577-2.03 0-3.439-.62-4.393-1.438a5.33 5.33 0 0 1-1.583-2.363.75.75 0 0 1 1.426-.466 3.83 3.83 0 0 0 1.134 1.69c.66.567 1.715 1.077 3.416 1.077 3.271 0 4.483-1.925 4.483-3.077 0-.598-.136-1.024-.336-1.343-.06-.096.004-.233.118-.233zM10.013 1.595c4.094 0 5.676 2.42 5.967 3.782a.751.751 0 0 1-1.468.313c-.147-.688-1.132-2.595-4.5-2.595-3.272 0-4.485 1.926-4.485 3.077 0 .598.135 1.024.335 1.343.203.322.504.585.911.81.836.457 1.98.68 3.29.92a.3.3 0 0 0 .054.005h9.133a.75.75 0 0 1 0 1.5H.75a.75.75 0 0 1 0-1.5h3.824c.286 0 .43-.389.25-.612a3 3 0 0 1-.232-.325c-.372-.593-.565-1.305-.565-2.141 0-2.168 2.086-4.577 5.986-4.577"/></svg>