<svg xmlns="http://www.w3.org/2000/svg" width="16" height="16" fill="none" data-fui-icon="true" viewBox="0 0 16 16"><path fill="currentColor" d="M9.903 2.532c.843.144 1.667.384 2.455.716l.336.148.151.07.094.138c1.52 2.235 2.284 4.775 2.004 7.696l-.025.265-.214.16a11.2 11.2 0 0 1-3.425 1.725l-.404.123-.252-.34a8.4 8.4 0 0 1-.697-1.114 8.2 8.2 0 0 1-1.925.233c-.652 0-1.3-.08-1.93-.234a8.5 8.5 0 0 1-.695 1.115l-.252.341-.406-.124a11.2 11.2 0 0 1-3.421-1.726l-.214-.16-.026-.265c-.238-2.518.244-5.082 1.997-7.69l.094-.141.153-.07c.89-.41 1.828-.7 2.792-.866l.42-.071.206.371q.09.164.173.332a10.4 10.4 0 0 1 2.212 0q.083-.168.174-.332l.206-.371zm.113 1.519-.182.428-.46-.07a9.2 9.2 0 0 0-2.75 0l-.46.07-.183-.428a7 7 0 0 0-.114-.251 10 10 0 0 0-1.908.619c-1.451 2.219-1.88 4.368-1.728 6.496.748.525 1.563.947 2.423 1.251l.083-.128a8 8 0 0 1-.549-.294l-.782-.465.735-.536q.127-.092.255-.193l.291-.224.332.156a6.98 6.98 0 0 0 5.962 0l.344-.162.294.242q.117.095.224.17l.78.53-.81.482q-.27.16-.553.295l.083.128a10 10 0 0 0 2.425-1.25c.177-2.449-.462-4.582-1.73-6.5a10 10 0 0 0-1.908-.618q-.06.124-.114.252M5.873 7.198c.647 0 1.164.581 1.153 1.29-.011.708-.508 1.284-1.151 1.284-.632 0-1.153-.576-1.153-1.285 0-.708.503-1.289 1.15-1.289m4.255 0c.648 0 1.16.581 1.15 1.29-.011.708-.507 1.284-1.15 1.284-.633 0-1.153-.576-1.153-1.285 0-.708.504-1.289 1.153-1.289"/></svg>