<svg xmlns="http://www.w3.org/2000/svg" width="12" height="12" fill="none" data-fui-icon="true" viewBox="0 0 12 12"><path fill="currentColor" d="M7.17 11.885a6 6 0 0 1-2.34 0l.29-1.47a4.5 4.5 0 0 0 1.76 0zM2.257 8.499c.329.491.753.915 1.244 1.244l-.418.622-.085.13-.332.493a6 6 0 0 1-1.655-1.655zm8.108.417.292.195.331.222a6 6 0 0 1-1.655 1.655l-.417-.622-.417-.623A4.5 4.5 0 0 0 9.743 8.5zM1.585 5.12a4.5 4.5 0 0 0 0 1.76l-1.47.29a6 6 0 0 1 0-2.34zm10.3-.29a6 6 0 0 1 0 2.34l-1.47-.29a4.5 4.5 0 0 0 0-1.76zM3.084 1.633zl.418.623A4.5 4.5 0 0 0 2.257 3.5l-.623-.418-.623-.417a6 6 0 0 1 1.655-1.655zm6.249-.623a6 6 0 0 1 1.655 1.655l-.622.418v-.001l-.623.418A4.5 4.5 0 0 0 8.5 2.257zM6 0q.601.001 1.17.114l-.29 1.472a4.5 4.5 0 0 0-1.76 0L4.83.114A6 6 0 0 1 6 0"/></svg>