<svg xmlns="http://www.w3.org/2000/svg" width="24" height="24" fill="none" data-fui-icon="true" viewBox="0 0 24 24"><path fill="currentColor" d="M12.468 1a3.5 3.5 0 0 1 3.44 2.855L16.123 5H21a.75.75 0 0 1 0 1.5h-.82l-1.426 14.428A3.26 3.26 0 0 1 15.5 24h-8a3.26 3.26 0 0 1-3.254-3.072L2.82 6.5H2A.75.75 0 0 1 2 5h5.877l.215-1.145A3.5 3.5 0 0 1 11.532 1zM5.739 20.78l.003.04A1.76 1.76 0 0 0 7.5 22.5h8a1.76 1.76 0 0 0 1.76-1.72L18.674 6.5H4.327zM11.532 2.5a2 2 0 0 0-1.966 1.632L9.403 5h5.194l-.163-.868A2 2 0 0 0 12.468 2.5z"/></svg>