<svg xmlns="http://www.w3.org/2000/svg" width="20" height="20" fill="none" data-fui-icon="true" viewBox="0 0 20 20"><path fill="currentColor" d="M15.716 6.034a.75.75 0 0 1 .882.59q.134.669.135 1.376v4.646c0 .279.094.55.266.77l.492.628c.622.794.057 1.956-.952 1.956h-3.806a3 3 0 1 1-6 0v-.75a.75.75 0 0 1 .75-.75h8.46l-.125-.16a2.75 2.75 0 0 1-.585-1.694V8q0-.558-.106-1.084a.75.75 0 0 1 .589-.882M8.233 16a1.5 1.5 0 0 0 3 0zm7.97-14.53a.75.75 0 0 1 1.06 1.06l-14 14a.75.75 0 0 1-1.06-1.06zM9.733 1c1.093 0 2.13.25 3.054.7a.751.751 0 0 1-.655 1.349A5.5 5.5 0 0 0 4.234 8v3.376a.75.75 0 0 1-1.5 0V8a7 7 0 0 1 7-7"/></svg>