<svg xmlns="http://www.w3.org/2000/svg" width="16" height="16" fill="none" data-fui-icon="true" viewBox="0 0 16 16"><path fill="currentColor" fill-rule="evenodd" d="M8.36 1.009a7 7 0 0 1 0 13.982L8 15a7 7 0 0 1-1.612-.187c-.809-.192-1.476-.301-2.076-.144-.423.11-.831.233-1.204.354-.664.216-1.3-.04-1.695-.435-.396-.396-.65-1.032-.435-1.695.12-.373.243-.782.354-1.206.156-.6.047-1.266-.144-2.075A7 7 0 0 1 8 1zM8 2.5a5.5 5.5 0 0 0-5.352 6.768c.189.8.396 1.8.135 2.8-.12.455-.25.892-.378 1.287-.008.024-.013.091.068.172s.149.076.172.069c.395-.128.832-.259 1.287-.378 1-.262 2-.055 2.8.134Q7.345 13.5 8 13.5a5.5 5.5 0 0 0 .284-10.993zM5 7a1 1 0 1 1 0 2 1 1 0 0 1 0-2m3 0a1 1 0 1 1 0 2 1 1 0 0 1 0-2m3 0a1 1 0 1 1 0 2 1 1 0 0 1 0-2" clip-rule="evenodd"/></svg>