<svg xmlns="http://www.w3.org/2000/svg" width="21" height="20" fill="none" data-fui-icon="true" viewBox="0 0 21 20"><path fill="currentColor" d="M15.334 10.884a2.75 2.75 0 1 1 3.889 3.89l-4.1 4.099a2.75 2.75 0 0 1-1.642.79l-1.49.164a1.55 1.55 0 0 1-1.712-1.71l.165-1.492c.07-.62.348-1.2.79-1.64zM8.5 11c.757 0 1.49.096 2.187.274a.75.75 0 1 1-.373 1.453A7.3 7.3 0 0 0 8.5 12.5c-3.669 0-6.5 2.65-6.5 5.75a.75.75 0 0 1-1.5 0c0-4.079 3.66-7.25 8-7.25m3.794 5.045c-.2.2-.327.463-.359.745l-.165 1.491a.05.05 0 0 0 .055.056l1.491-.166a1.25 1.25 0 0 0 .745-.358l2.51-2.51-1.767-1.768zm5.868-4.1a1.25 1.25 0 0 0-1.767 0l-.53.53 1.767 1.767.53-.53a1.25 1.25 0 0 0 0-1.768M8.5 1a4.5 4.5 0 1 1 0 9 4.5 4.5 0 0 1 0-9m0 1.5a3 3 0 1 0 0 6 3 3 0 0 0 0-6"/></svg>