<svg xmlns="http://www.w3.org/2000/svg" width="32" height="32" fill="none" data-fui-icon="true" viewBox="0 0 32 32"><path fill="currentColor" d="M15.876 2.25C7.494 2.25 2.25 8.632 2.25 16s5.244 13.75 13.626 13.75c5.725 0 10.35-3.377 12.413-7.676a.75.75 0 1 0-1.352-.648c-1.827 3.808-5.945 6.824-11.061 6.824C8.411 28.25 3.75 22.631 3.75 16S8.41 3.75 15.876 3.75c7.05 0 10.332 5.032 11.126 8.75h-4.43a.75.75 0 0 0 0 1.5h4.943a2.243 2.243 0 0 0 2.235-2.25v-6a.75.75 0 0 0-1.5 0v5.58c-1.201-4.086-4.944-9.08-12.374-9.08m-.126 6A.75.75 0 0 0 15 9v7.5c0 .23.106.448.287.59l3.5 2.75a.75.75 0 0 0 .926-1.18L16.5 16.136V9a.75.75 0 0 0-.75-.75"/></svg>