<svg xmlns="http://www.w3.org/2000/svg" width="25" height="24" fill="none" data-fui-icon="true" viewBox="0 0 25 24"><path fill="currentColor" d="M16.328 2.25c1.382 0 2.646.518 3.598 1.365a8.6 8.6 0 0 0 1.927-.713.94.94 0 0 1 1.044.12.916.916 0 0 1 .237 1.078 5 5 0 0 1-.17.338c.686-.28 1.321.502.904 1.117a10 10 0 0 1-2.164 2.299c.001.072.006.145.006.218 0 6.339-4.903 13.678-13.885 13.678-2.44 0-4.733-.624-6.727-1.716a.93.93 0 0 1-.44-1.102.95.95 0 0 1 .934-.663l.26.003c1.346 0 2.62-.308 3.752-.853A5.35 5.35 0 0 1 2.686 14.5a.88.88 0 0 1 .204-1.002A5.26 5.26 0 0 1 .904 9.388c0-.417.31-.722.67-.777a5.232 5.232 0 0 1-.055-4.889c.304-.59 1.036-.638 1.457-.26l.08.083.204.23a12.42 12.42 0 0 0 7.708 3.977q-.004-.103-.005-.207c0-2.935 2.413-5.295 5.365-5.295m0 1.5c-2.145 0-3.865 1.71-3.865 3.795q0 .445.1.865l.223.968-.992-.05a13.94 13.94 0 0 1-9.24-4.12q-.11.437-.112.907c0 1.31.678 2.473 1.716 3.156l2.22 1.462-2.657-.085a5.5 5.5 0 0 1-1.15-.163 3.84 3.84 0 0 0 2.89 2.614l.042.008h-.001l.004.001 2.322.472-2.17.95c-.126.055-.27.087-.367.106a5 5 0 0 1-.371.056 8 8 0 0 1-.402.035 3.88 3.88 0 0 0 3.08 1.6l2.139.036-1.693 1.307a10.1 10.1 0 0 1-4.252 1.915c1.263.43 2.62.665 4.033.665 8.002 0 12.385-6.507 12.385-12.178q0-.275-.013-.552l-.019-.41.332-.236q.218-.156.425-.326a.83.83 0 0 1-.466-1.509l.026-.02q-.324.086-.655.15l-.403.08-.282-.297a3.9 3.9 0 0 0-2.827-1.202"/></svg>