<svg xmlns="http://www.w3.org/2000/svg" width="20" height="20" fill="none" data-fui-icon="true" viewBox="0 0 20 20"><g clip-path="url(#a)"><path fill="currentColor" d="M10.005-.009c.926 0 1.752.421 2.302 1.081.288.346.63.66 1.047.833.312.13.65.173.989.168l.339-.018a2.99 2.99 0 0 1 3.26 3.257c-.041.45-.023.913.15 1.33.174.416.487.76.833 1.048a2.989 2.989 0 0 1 .005 4.594l-.252.228c-.243.239-.453.51-.583.824l-.059.16c-.12.376-.129.782-.093 1.178a2.99 2.99 0 0 1-.863 2.391 2.99 2.99 0 0 1-2.235.874l-.161-.01c-.451-.042-.914-.024-1.332.15l-.154.07c-.348.181-.643.46-.896.762l-.106.12a2.99 2.99 0 0 1-2.191.955c-.87 0-1.651-.37-2.198-.962l-.107-.12c-.285-.344-.626-.657-1.039-.829-.414-.172-.873-.19-1.32-.147l-.161.01a2.98 2.98 0 0 1-2.24-.873 2.99 2.99 0 0 1-.874-2.231l.01-.16c.036-.395.027-.798-.093-1.173l-.057-.158a2.5 2.5 0 0 0-.585-.823l-.253-.228A2.99 2.99 0 0 1 .007 9.989c0-.87.371-1.654.964-2.2l.122-.106c.303-.252.581-.545.762-.893l.072-.152c.13-.312.173-.649.169-.987l-.019-.338a2.988 2.988 0 0 1 3.267-3.258c.39.038.788.028 1.158-.09l.157-.057a2.5 2.5 0 0 0 .813-.578l.223-.25a2.99 2.99 0 0 1 2.31-1.089m0 1.5c-.463 0-.876.21-1.153.545-.361.436-.887.953-1.617 1.257-.735.306-1.473.309-2.033.256a1.5 1.5 0 0 0-1.073.315L4 3.98a1.49 1.49 0 0 0-.43 1.197c.051.56.048 1.302-.26 2.04-.306.731-.824 1.259-1.261 1.62-.335.279-.543.69-.543 1.153 0 .46.207.872.54 1.15.438.363.957.893 1.263 1.627.308.74.311 1.482.26 2.044-.039.431.105.869.431 1.195l.128.114a1.5 1.5 0 0 0 1.071.316c.56-.053 1.3-.051 2.037.255.729.304 1.255.82 1.617 1.254a1.49 1.49 0 0 0 2.297.004c.364-.435.894-.952 1.625-1.256.741-.307 1.484-.31 2.046-.257a1.488 1.488 0 0 0 1.627-1.624c-.051-.563-.048-1.308.261-2.051.305-.732.821-1.26 1.256-1.625.29-.243.482-.588.526-.977l.01-.169c0-.46-.207-.87-.54-1.147-.434-.363-.95-.892-1.254-1.623-.308-.74-.31-1.483-.259-2.045a1.49 1.49 0 0 0-1.629-1.626c-.56.052-1.302.05-2.042-.258-.732-.304-1.261-.821-1.625-1.258a1.5 1.5 0 0 0-.978-.531zM10 12.5a1 1 0 1 1 0 2 1 1 0 0 1 0-2m0-7a.75.75 0 0 1 .75.75v4a.75.75 0 0 1-1.5 0v-4A.75.75 0 0 1 10 5.5"/></g><defs><clipPath id="a"><path fill="currentColor" d="M0 0h20v20H0z"/></clipPath></defs></svg>