<svg xmlns="http://www.w3.org/2000/svg" width="32" height="32" fill="none" data-fui-icon="true" viewBox="0 0 32 32"><path fill="currentColor" d="M16 25a.75.75 0 0 1 .75.75v4.5a.75.75 0 0 1-1.5 0v-4.5A.75.75 0 0 1 16 25m-7.425-2.636a.75.75 0 1 1 1.06 1.06l-3.18 3.182a.75.75 0 1 1-1.061-1.06zm13.79 0a.75.75 0 0 1 1.06 0l3.181 3.182a.75.75 0 1 1-1.06 1.06l-3.182-3.181a.75.75 0 0 1 0-1.06M16 9.5a6.5 6.5 0 1 1 0 13 6.5 6.5 0 0 1 0-13m0 1.5a5 5 0 1 0 0 10 5 5 0 0 0 0-10m-9.75 4.25a.75.75 0 0 1 0 1.5h-4.5a.75.75 0 0 1 0-1.5zm24 0a.75.75 0 0 1 0 1.5h-4.5a.75.75 0 0 1 0-1.5zM5.394 5.394a.75.75 0 0 1 1.06 0l3.182 3.181a.75.75 0 1 1-1.06 1.06l-3.182-3.18a.75.75 0 0 1 0-1.061m20.152 0a.75.75 0 1 1 1.06 1.06l-3.181 3.182a.75.75 0 1 1-1.06-1.06zM16 1a.75.75 0 0 1 .75.75v4.5a.75.75 0 0 1-1.5 0v-4.5A.75.75 0 0 1 16 1"/></svg>