<svg xmlns="http://www.w3.org/2000/svg" width="16" height="16" fill="none" data-fui-icon="true" viewBox="0 0 16 16"><path fill="currentColor" d="M8 0q.561 0 1.103.075a.75.75 0 0 1-.206 1.487 6.5 6.5 0 1 0 5.541 5.541.75.75 0 0 1 1.487-.206Q16 7.44 16 8a8 8 0 1 1-8-8m2.08 9.915a.75.75 0 0 1 1.34.67l-.52-.26c.52.26.52.262.52.262l-.001.002-.002.003-.004.01-.014.023-.04.073a3 3 0 0 1-.149.226c-.13.179-.325.412-.597.645-.551.473-1.407.931-2.613.931s-2.062-.458-2.613-.93a3.8 3.8 0 0 1-.597-.646 3 3 0 0 1-.148-.226q-.026-.044-.041-.073l-.014-.023-.004-.01-.004-.006.52-.26-.52.259a.75.75 0 0 1 1.34-.67v-.003l.012.019q.022.037.076.114c.074.102.19.244.356.386.324.277.843.569 1.637.569s1.313-.292 1.637-.57a2.2 2.2 0 0 0 .432-.5zM5 6a1 1 0 1 1 0 2 1 1 0 0 1 0-2m6 0a1 1 0 1 1 0 2 1 1 0 0 1 0-2m2.25-6a.75.75 0 0 1 .75.75V2h1.25a.75.75 0 0 1 0 1.5H14v1.25a.75.75 0 0 1-1.5 0V3.5h-1.25a.75.75 0 0 1 0-1.5h1.25V.75a.75.75 0 0 1 .75-.75"/></svg>