<svg xmlns="http://www.w3.org/2000/svg" width="12" height="12" fill="none" data-fui-icon="true" viewBox="0 0 12 12"><g clip-path="url(#a)"><path fill="currentColor" d="M9 6c-.25 0-.47.16-.547.397l-.502 1.554-1.554.503a.574.574 0 0 0 0 1.092l1.554.503.502 1.553a.575.575 0 0 0 1.093 0l.503-1.553 1.553-.503a.574.574 0 0 0 0-1.092l-1.553-.503-.503-1.554A.57.57 0 0 0 9 6M3.917 0A.75.75 0 0 0 3.2.52l-.6 1.844a.37.37 0 0 1-.236.237L.52 3.2a.754.754 0 0 0 0 1.432l1.845.6a.37.37 0 0 1 .235.236L3.2 7.313a.754.754 0 0 0 1.433 0l.6-1.844a.37.37 0 0 1 .236-.236l1.844-.6a.753.753 0 0 0 0-1.433L5.47 2.6a.37.37 0 0 1-.236-.236l-.6-1.843A.75.75 0 0 0 3.917 0"/></g><defs><clipPath id="a"><path fill="currentColor" d="M0 0h12v12H0z"/></clipPath></defs></svg>