<svg xmlns="http://www.w3.org/2000/svg" width="12" height="12" fill="none" data-fui-icon="true" viewBox="0 0 12 12"><path fill="currentColor" d="M6 0c.805 0 1.446 0 1.966.035.526.036.982.111 1.41.288a4.25 4.25 0 0 1 2.3 2.301c.178.428.253.884.289 1.41C12 4.554 12 5.195 12 6s0 1.446-.035 1.966c-.036.526-.111.982-.288 1.41a4.25 4.25 0 0 1-2.301 2.3c-.428.178-.884.253-1.41.289C7.446 12 6.805 12 6 12s-1.446 0-1.966-.035c-.526-.036-.982-.111-1.41-.288a4.25 4.25 0 0 1-2.3-2.301C.145 8.948.07 8.492.034 7.966 0 7.446 0 6.805 0 6s0-1.446.035-1.966c.036-.526.111-.982.288-1.41a4.25 4.25 0 0 1 2.301-2.3c.428-.178.884-.253 1.41-.289C4.554 0 5.195 0 6 0m0 1.5c-.826 0-1.408 0-1.864.031-.45.03-.724.089-.939.178-.673.28-1.209.815-1.488 1.488-.09.215-.147.489-.178.939C1.501 4.592 1.5 5.174 1.5 6s0 1.408.031 1.864c.03.45.089.724.178.939.279.673.815 1.209 1.488 1.488.215.089.489.147.939.178.456.03 1.038.03 1.864.03s1.408 0 1.864-.03c.45-.031.724-.09.939-.178a2.75 2.75 0 0 0 1.488-1.488c.089-.215.147-.49.178-.939.03-.456.03-1.038.03-1.864s0-1.408-.03-1.864c-.031-.45-.09-.724-.178-.939A2.75 2.75 0 0 0 8.803 1.71c-.215-.089-.49-.147-.939-.178C7.408 1.501 6.826 1.5 6 1.5M3.86 4.25c.378 0 .662.108.86.24a1.2 1.2 0 0 1 .302.287l.008.011.003.005.002.003.001.002a.5.5 0 0 1-.782.612l-.062-.076.004.007.006.008.003.003a.2.2 0 0 0-.035-.029.55.55 0 0 0-.31-.073c-.2 0-.36.162-.361.361v.74c0 .218.178.396.396.396a.22.22 0 0 0 .2-.138.498.498 0 0 1 .207-.953l.083.004a.81.81 0 0 1 .727.806v.064c0 .672-.545 1.217-1.217 1.217-.77 0-1.396-.626-1.396-1.396v-.74c0-.751.61-1.36 1.361-1.361m2.31 0a.5.5 0 0 1 .5.5v2.497a.5.5 0 0 1-1 0V4.75a.5.5 0 0 1 .5-.5m2.767 0a.5.5 0 0 1 0 1H8.25v.248h.506a.5.5 0 0 1 0 1H8.25v.749a.5.5 0 0 1-1 0V5.25a1 1 0 0 1 1-1z"/></svg>