<svg xmlns="http://www.w3.org/2000/svg" width="20" height="20" fill="none" data-fui-icon="true" viewBox="0 0 20 20"><path fill="currentColor" d="M13.637 2.25c2.86 0 5.113 2.484 5.113 5.417 0 1.378-.588 2.692-1.382 3.85-.798 1.165-1.848 2.233-2.874 3.13a30 30 0 0 1-4.017 2.942l-.072.043-.024.014-.002.002h-.001a.75.75 0 0 1-.758-.002l-.009-.004-.018-.012-.072-.043-.264-.163c-.226-.142-.547-.35-.93-.613a30 30 0 0 1-2.822-2.178c-1.026-.9-2.075-1.969-2.873-3.131-.794-1.155-1.382-2.466-1.382-3.835 0-2.933 2.253-5.417 5.113-5.417A4.92 4.92 0 0 1 10 3.854a4.92 4.92 0 0 1 3.637-1.604m0 1.5c-1.249 0-2.357.665-2.992 1.733l-.056.081a.75.75 0 0 1-1.234-.08C8.72 4.413 7.612 3.75 6.363 3.75c-1.939 0-3.613 1.716-3.613 3.917 0 .945.412 1.957 1.118 2.985.702 1.022 1.653 1.998 2.627 2.853a29 29 0 0 0 3.506 2.614 28.412 28.412 0 0 0 3.505-2.6c.974-.853 1.924-1.826 2.626-2.85.705-1.028 1.118-2.046 1.118-3.002 0-2.2-1.674-3.917-3.613-3.917"/></svg>