<svg xmlns="http://www.w3.org/2000/svg" width="12" height="12" fill="none" data-fui-icon="true" viewBox="0 0 12 12"><g clip-path="url(#a)"><path fill="currentColor" d="M7.24.845a.75.75 0 0 1 .677-.027l3.444 1.583a1.1 1.1 0 0 1 .524 1.49l-.788 1.58a1.1 1.1 0 0 1-1.139.596v3.808c0 .621-.504 1.125-1.125 1.125H3.167a1.125 1.125 0 0 1-1.125-1.125V6.067a1.1 1.1 0 0 1-1.138-.596L.116 3.89a1.1 1.1 0 0 1 .524-1.49L4.083.818a.75.75 0 0 1 1.056.58l.001.007.002.008.023.09c.025.083.065.187.128.286.11.17.29.348.707.348s.599-.178.707-.348a1.1 1.1 0 0 0 .152-.376l.002-.008H6.86l.002-.008A.75.75 0 0 1 7.24.845m.73 1.753C7.635 3.12 7.013 3.637 6 3.637s-1.634-.516-1.97-1.04l-.048-.081L1.64 3.592l.453.906.479-.146a.75.75 0 0 1 .97.716V9.5h4.915V5.068a.75.75 0 0 1 .97-.716l.478.146.453-.906-2.341-1.076q-.022.04-.048.082"/></g><defs><clipPath id="a"><path fill="currentColor" d="M0 0h12v12H0z"/></clipPath></defs></svg>