<svg xmlns="http://www.w3.org/2000/svg" width="24" height="24" fill="none" data-fui-icon="true" viewBox="0 0 24 24"><path fill="currentColor" d="M6.212 19.012a.75.75 0 0 1 1.076 1.046l-1.667 1.714a.75.75 0 1 1-1.075-1.045zM3.99 16.727a.75.75 0 0 1 1.075 1.045l-2.777 2.857a.75.75 0 0 1-1.076-1.046zm16.2-14.686a1.64 1.64 0 0 1 1.768 1.767c-.298 3.766-2.183 6.678-4.959 9.286v4.062c0 .64-.35 1.23-.911 1.536l-3.5 1.91c-1.166.635-2.589-.209-2.589-1.537v-1.616l-3.45-3.45H4.935a1.75 1.75 0 0 1-1.537-2.587l1.91-3.5A1.75 1.75 0 0 1 6.843 7h4.062c2.609-2.776 5.52-4.662 9.285-4.96M11.5 17.5v1.564c0 .19.204.31.37.22l3.5-1.91.055-.04a.25.25 0 0 0 .075-.18v-2.831zm8.81-13.964c-3.355.265-5.996 1.962-8.507 4.696l-3.939 4.959 2.944 2.942 4.952-3.932c2.737-2.514 4.439-5.155 4.704-8.512a.14.14 0 0 0-.154-.153M6.843 8.5a.25.25 0 0 0-.219.13l-1.91 3.5a.25.25 0 0 0 .22.37h1.564l3.177-4zm9.4-2.476a1.687 1.687 0 1 1 0 3.375 1.687 1.687 0 0 1 0-3.375"/></svg>