<svg xmlns="http://www.w3.org/2000/svg" width="16" height="16" fill="none" data-fui-icon="true" viewBox="0 0 16 16"><g clip-path="url(#a)"><path fill="currentColor" d="M13.2.5A2.5 2.5 0 0 1 15.7 3v10a2.5 2.5 0 0 1-2.5 2.5H2.8A2.5 2.5 0 0 1 .3 13V3A2.5 2.5 0 0 1 2.8.5zM2.8 2a1 1 0 0 0-1 1v10a1 1 0 0 0 1 1h10.4l.102-.005a1 1 0 0 0 .892-.893L14.2 13V3a1 1 0 0 0-.898-.995L13.2 2zM8 3.25a4.75 4.75 0 1 1-4.75 4.756v-.012A4.75 4.75 0 0 1 8 3.25m-.727 5.5q.033.495.102.91c.134.808.364 1.34.625 1.34.26 0 .49-.532.625-1.34.046-.275.08-.581.102-.91zm-2.436 0a3.25 3.25 0 0 0 1.206 1.845l-.028-.11A9.5 9.5 0 0 1 5.77 8.75zm5.393 0a9.5 9.5 0 0 1-.273 1.845 3.25 3.25 0 0 0 1.206-1.845zM6.042 5.405A3.25 3.25 0 0 0 4.837 7.25h.934a9.5 9.5 0 0 1 .272-1.845M8 5c-.26 0-.49.532-.625 1.34-.046.275-.08.581-.102.91h1.454a9 9 0 0 0-.102-.91C8.491 5.532 8.261 5 8 5m1.985.515c.126.5.208 1.098.245 1.735h.933a3.25 3.25 0 0 0-1.206-1.845q.015.056.028.11"/></g><defs><clipPath id="a"><path fill="currentColor" d="M0 0h16v16H0z"/></clipPath></defs></svg>