<svg xmlns="http://www.w3.org/2000/svg" width="20" height="20" fill="none" data-fui-icon="true" viewBox="0 0 20 20"><path fill="currentColor" d="M5.25 6.5a.75.75 0 0 1 0 1.5H3.36a.86.86 0 0 0-.86.86v7.78c0 .475.385.86.86.86h6.78a.86.86 0 0 0 .86-.86v-.89a.75.75 0 0 1 1.5 0v.89A2.36 2.36 0 0 1 10.14 19H3.36A2.36 2.36 0 0 1 1 16.64V8.86A2.36 2.36 0 0 1 3.36 6.5zM16.64 1A2.36 2.36 0 0 1 19 3.36v7.78a2.36 2.36 0 0 1-2.36 2.36H9.86a2.36 2.36 0 0 1-2.36-2.36V3.36A2.36 2.36 0 0 1 9.86 1zM9.86 2.5a.86.86 0 0 0-.86.86v7.78c0 .475.385.86.86.86h6.78a.86.86 0 0 0 .86-.86V3.36a.86.86 0 0 0-.86-.86z"/></svg>