<svg xmlns="http://www.w3.org/2000/svg" width="12" height="12" fill="none" data-fui-icon="true" viewBox="0 0 12 12"><g clip-path="url(#a)"><path fill="currentColor" fill-rule="evenodd" d="M10.865.262a.75.75 0 0 1 .873.873l-.001.006-.003.017-.012.062a46 46 0 0 1-.218 1.077c-.149.702-.365 1.658-.633 2.667-.268 1.006-.59 2.079-.954 3.011-.35.902-.78 1.782-1.303 2.305a4.876 4.876 0 0 1-6.323.49l-.76.76A.75.75 0 1 1 .47 10.47l.76-.76a4.876 4.876 0 0 1 .49-6.324c.523-.523 1.403-.953 2.305-1.304.932-.363 2.005-.685 3.011-.953A56 56 0 0 1 10.78.28l.062-.013.017-.003zM7.553 9.22a3.376 3.376 0 0 1-4.183.47L5.06 8h2.19a.75.75 0 0 0 0-1.5h-.69l2.47-2.47a.75.75 0 0 0-1.06-1.06L6.748 4.19a.75.75 0 0 0-1.498.052V5.69L4.228 6.711l.022-.688a.75.75 0 1 0-1.5-.046l-.07 2.282-.37.371a3.376 3.376 0 0 1 .47-4.183c.283-.282.899-.62 1.789-.967.86-.334 1.873-.64 2.853-.9.977-.26 1.907-.471 2.593-.617l.028-.006-.006.028a54 54 0 0 1-.616 2.593c-.26.98-.567 1.994-.901 2.853-.347.89-.685 1.506-.967 1.789" clip-rule="evenodd"/></g><defs><clipPath id="a"><path fill="currentColor" d="M0 0h12v12H0z"/></clipPath></defs></svg>