<svg xmlns="http://www.w3.org/2000/svg" width="32" height="32" fill="none" data-fui-icon="true" viewBox="0 0 32 32"><path fill="currentColor" d="M16 1.917c7.778 0 14.084 6.305 14.084 14.083 0 7.2-5.404 13.137-12.377 13.981l-.84.103v-10.76h3.73l.472-2.574h-4.208v-2.19c0-1.147.22-2.146.92-2.834.696-.685 1.702-.898 2.86-.898.283 0 .55.005.79.01V8.548c-.641-.104-1.553-.192-2.145-.193-2.122 0-3.515.502-4.388 1.393-.876.895-1.369 2.326-1.369 4.498v2.505h-2.752v2.575h2.752V29.9l-.93-.23C6.464 28.148 1.917 22.606 1.917 16 1.917 8.222 8.222 1.917 16 1.917m0 1.5C9.05 3.417 3.417 9.051 3.417 16c0 5.561 3.608 10.28 8.612 11.942v-7.117H9.277V15.25h2.752v-1.005c0-2.366.534-4.256 1.797-5.547 1.267-1.294 3.129-1.844 5.46-1.844.887 0 2.414.17 3.096.358l.55.152v5.092l-.826-.084c-.274-.028-.79-.044-1.465-.044-1.03 0-1.538.201-1.81.468-.268.264-.47.756-.47 1.764v.69h4.508l-.163.886-.746 4.074-.113.614h-3.48v7.534C24.185 27.25 28.584 22.14 28.584 16c0-6.95-5.635-12.583-12.584-12.583"/></svg>