<svg xmlns="http://www.w3.org/2000/svg" width="12" height="12" fill="none" data-fui-icon="true" viewBox="0 0 12 12"><path fill="currentColor" d="M6 .25C7.333.25 8.19.24 8.903.488a4.25 4.25 0 0 1 2.609 2.609c.249.711.238 1.57.238 2.903s.01 2.191-.238 2.903a4.25 4.25 0 0 1-2.609 2.609c-.712.248-1.57.238-2.903.238-1.334 0-2.192.01-2.903-.238A4.25 4.25 0 0 1 .488 8.903C.24 8.191.25 7.333.25 6c0-1.334-.01-2.192.238-2.903A4.25 4.25 0 0 1 3.097.488C3.808.24 4.667.25 6 .25m0 1.5c-1.46 0-1.998.01-2.408.154a2.75 2.75 0 0 0-1.688 1.688C1.76 4.002 1.75 4.54 1.75 6s.01 1.997.154 2.408a2.75 2.75 0 0 0 1.688 1.688c.41.143.949.154 2.408.154s1.997-.01 2.408-.154a2.75 2.75 0 0 0 1.688-1.688c.143-.41.154-.949.154-2.408s-.01-1.998-.154-2.408a2.75 2.75 0 0 0-1.688-1.688c-.41-.143-.95-.154-2.408-.154m1.72 3.22a.75.75 0 0 1 1.06 1.06L7.384 7.427a1.25 1.25 0 0 1-1.768 0L4.75 6.56l-.47.47a.75.75 0 1 1-1.06-1.06l.646-.647.095-.086a1.25 1.25 0 0 1 1.673.086l.866.866z"/></svg>