<svg xmlns="http://www.w3.org/2000/svg" width="16" height="16" fill="none" data-fui-icon="true" viewBox="0 0 16 16"><path fill="currentColor" d="M9.5 14.5a.75.75 0 0 1 0 1.5h-3a.75.75 0 0 1 0-1.5zm-6.53-2.53a.75.75 0 1 1 1.06 1.06l-.75.75a.75.75 0 1 1-1.06-1.06zm9 0a.75.75 0 0 1 1.06 0l.75.75a.75.75 0 1 1-1.06 1.06l-.75-.75a.75.75 0 0 1 0-1.06M8 3.25c2.974 0 4.75 2.399 4.75 4.75 0 1.856-1.352 2.98-1.976 3.405l-.018.016-.007.009a2.086 2.086 0 0 1-2.086 2.07H7.337a2.087 2.087 0 0 1-2.087-2.07l-.006-.01-.018-.015C4.602 10.98 3.25 9.855 3.25 8c0-2.351 1.776-4.75 4.75-4.75m0 1.5C5.974 4.75 4.75 6.351 4.75 8c0 1.075.796 1.808 1.32 2.166.379.258.68.706.68 1.247 0 .324.263.587.587.587h1.326a.587.587 0 0 0 .587-.587c0-.541.301-.989.68-1.247.524-.358 1.32-1.09 1.32-2.166 0-1.649-1.224-3.25-3.25-3.25m-6.25 2.5a.75.75 0 0 1 0 1.5h-1a.75.75 0 0 1 0-1.5zm13.5 0a.75.75 0 0 1 0 1.5h-1a.75.75 0 0 1 0-1.5zM1.97 1.97a.75.75 0 0 1 1.06 0l.75.75a.75.75 0 1 1-1.06 1.06l-.75-.75a.75.75 0 0 1 0-1.06m11 0a.75.75 0 1 1 1.06 1.06l-.75.75a.75.75 0 1 1-1.06-1.06zM8 0a.75.75 0 0 1 .75.75v1a.75.75 0 0 1-1.5 0v-1A.75.75 0 0 1 8 0"/></svg>