<svg xmlns="http://www.w3.org/2000/svg" width="20" height="20" fill="none" data-fui-icon="true" viewBox="0 0 20 20"><path fill="currentColor" d="M9.297 1.46c.422-.14.95-.14 1.371 0l7.031 2.673A1.98 1.98 0 0 1 19 5.996v8.543c0 .844-.527 1.547-1.3 1.863l-7.032 2.672c-.422.14-.95.14-1.371 0l-7.031-2.672C1.492 16.086 1 15.382 1 14.54V5.996c0-.844.492-1.582 1.266-1.863zm.773 1.583h-.175l-6.68 2.531L10 8.246l6.75-2.672zM2.863 14.82l6.293 2.39V9.724L2.687 7.19v7.348c0 .14.07.246.176.281m7.98 2.39 6.259-2.39a.31.31 0 0 0 .21-.28V7.19l-6.468 2.532z"/></svg>