<svg xmlns="http://www.w3.org/2000/svg" width="20" height="20" fill="none" data-fui-icon="true" viewBox="0 0 20 20"><path fill="currentColor" d="M9.452 1.25a4.3 4.3 0 0 1 4.298 4.298.75.75 0 0 1-1.5 0A2.8 2.8 0 0 0 9.452 2.75H5.75a3 3 0 0 0-3 3v8.5a3 3 0 0 0 3 3h3.702a2.8 2.8 0 0 0 2.798-2.798.75.75 0 0 1 1.5 0 4.3 4.3 0 0 1-4.298 4.298H5.75a4.5 4.5 0 0 1-4.5-4.5v-8.5a4.5 4.5 0 0 1 4.5-4.5zm6.58 5.04a.75.75 0 0 1 1.054.116l2.5 3.125a.75.75 0 0 1 0 .938l-2.5 3.125a.75.75 0 0 1-1.172-.938l1.525-1.906H8.689a.75.75 0 0 1 0-1.5h8.751l-1.525-1.906a.75.75 0 0 1 .117-1.055"/></svg>