<svg xmlns="http://www.w3.org/2000/svg" width="32" height="32" fill="none" data-fui-icon="true" viewBox="0 0 32 32"><path fill="currentColor" d="M19.75 2A2.25 2.25 0 0 1 22 4.25v4.23c0 1.099-.795 2.038-1.88 2.22l-4.19.697c-.259 1.476-.43 3.039-.43 4.603s.172 3.126.432 4.602l4.188.699A2.25 2.25 0 0 1 22 23.52v4.229A2.25 2.25 0 0 1 19.75 30h-4.5a1 1 0 0 1-.122-.012c-1.165-.073-2.285-.699-2.807-1.851C11.394 26.09 10 22.009 10 16s1.394-10.09 2.321-12.137c.522-1.152 1.643-1.778 2.807-1.851A1 1 0 0 1 15.25 2zm-4.473 1.503c-.728.027-1.325.398-1.588.98C12.839 6.358 11.5 10.228 11.5 16s1.338 9.64 2.188 11.518c.264.58.861.952 1.59.98l.022.002h4.45a.75.75 0 0 0 .746-.673l.004-.077v-4.23a.75.75 0 0 0-.626-.739l-4.71-.785a.75.75 0 0 1-.613-.598C14.226 19.706 14 17.864 14 16s.226-3.707.55-5.398a.75.75 0 0 1 .614-.6l4.71-.783a.75.75 0 0 0 .614-.605l.012-.135V4.25a.75.75 0 0 0-.75-.75H15.3q-.011.002-.023.003"/></svg>