<svg xmlns="http://www.w3.org/2000/svg" width="24" height="24" fill="none" data-fui-icon="true" viewBox="0 0 24 24"><path fill="currentColor" d="M19.75 2A2.25 2.25 0 0 1 22 4.25v6.879a2.25 2.25 0 0 1-.66 1.59l-9.22 9.221a3.617 3.617 0 0 1-5.115 0L2.06 16.995a3.617 3.617 0 0 1 0-5.115l9.22-9.22A2.25 2.25 0 0 1 12.871 2zm-6.879 1.5a.75.75 0 0 0-.53.22l-9.22 9.22a2.12 2.12 0 0 0 0 2.995l4.944 4.945a2.117 2.117 0 0 0 2.995 0l9.22-9.22a.75.75 0 0 0 .22-.531V4.25a.75.75 0 0 0-.75-.75zM16.5 5a2.5 2.5 0 1 1 0 5 2.5 2.5 0 0 1 0-5m0 1.5a1 1 0 1 0 0 2 1 1 0 0 0 0-2"/></svg>