<svg xmlns="http://www.w3.org/2000/svg" width="32" height="32" fill="none" data-fui-icon="true" viewBox="0 0 32 32"><path fill="currentColor" d="M10.495 1c.784 0 1.392.51 1.68 1.104a4.25 4.25 0 0 0 7.65 0C20.113 1.51 20.721 1 21.505 1h4.245a2.75 2.75 0 0 1 2.75 2.75v24.5A2.75 2.75 0 0 1 25.75 31h-4.245c-.784 0-1.392-.51-1.68-1.104a4.25 4.25 0 0 0-7.65 0c-.288.593-.897 1.104-1.68 1.104H6.25a2.75 2.75 0 0 1-2.75-2.75V3.75A2.75 2.75 0 0 1 6.25 1zM6.25 2.5C5.56 2.5 5 3.06 5 3.75v24.5c0 .69.56 1.25 1.25 1.25h4.245c.09 0 .237-.067.33-.26a5.75 5.75 0 0 1 10.35 0c.093.193.24.26.33.26h4.245c.69 0 1.25-.56 1.25-1.25V3.75c0-.69-.56-1.25-1.25-1.25h-4.245c-.09 0-.237.067-.33.26a5.75 5.75 0 0 1-10.35 0c-.093-.193-.24-.26-.33-.26zM20 17.5a2.5 2.5 0 1 1 0 5 2.5 2.5 0 0 1 0-5m.72-7.28a.75.75 0 0 1 1.06 1.06l-10.5 10.5a.75.75 0 1 1-1.06-1.06zM20 19a1 1 0 1 0 0 2 1 1 0 0 0 0-2m-8-9.5a2.5 2.5 0 1 1 0 5 2.5 2.5 0 0 1 0-5m0 1.5a1 1 0 1 0 0 2 1 1 0 0 0 0-2"/></svg>