<svg xmlns="http://www.w3.org/2000/svg" width="16" height="16" fill="none" data-fui-icon="true" viewBox="0 0 16 16"><path fill="currentColor" d="M11.667 2.031c.683 0 1.172.467 1.442.86.264.385.446.875.47 1.343a2.08 2.08 0 0 1 1.304 1.933V11.5c0 1.15-.933 2.083-2.083 2.083H3.133A2.083 2.083 0 0 1 1.05 11.5V4c0-.395.146-.833.353-1.173.183-.299.587-.796 1.23-.796zM2.55 11.5c0 .322.26.583.583.583H12.8c.322 0 .583-.26.583-.583V6.167a.584.584 0 0 0-.583-.584H2.633q-.042-.001-.083-.005zm8.578-3.91a1.25 1.25 0 1 1-1.372 1.37l-.006-.127.006-.128A1.25 1.25 0 0 1 11 7.583zM11 8.583a.25.25 0 0 0-.25.25l.005.05a.25.25 0 0 0 .49 0l.005-.05-.005-.05a.25.25 0 0 0-.195-.194zM2.685 3.608c-.042.068-.078.15-.103.23A.6.6 0 0 0 2.55 4c0 .046.037.083.083.083h9.404a1.3 1.3 0 0 0-.164-.343c-.152-.22-.245-.209-.206-.209H2.739a1 1 0 0 0-.054.077"/></svg>