<svg xmlns="http://www.w3.org/2000/svg" width="16" height="16" fill="none" data-fui-icon="true" viewBox="0 0 16 16"><path fill="currentColor" d="M8 0a8 8 0 1 1 0 16A8 8 0 0 1 8 0m0 1.5a6.5 6.5 0 1 0 0 13 6.5 6.5 0 0 0 0-13m.004 1.75a.75.75 0 0 1 .75.75v.302c.626.098 1.437.404 1.917 1.362a.751.751 0 0 1-1.342.671c-.274-.548-.788-.58-1.324-.58-1.018 0-1.255.616-1.255.745 0 .147.033.22.058.26.027.044.08.1.19.163.251.144.623.23 1.157.343.466.098 1.095.225 1.592.508.265.152.526.365.717.67.193.308.286.666.286 1.056 0 1.039-.851 1.721-1.995 1.927v.415a.75.75 0 0 1-1.5 0v-.44a5 5 0 0 1-.488-.13c-.428-.141-.929-.373-1.297-.742a.75.75 0 0 1 1.06-1.06c.132.131.382.27.705.377.318.104.613.147.77.147.566 0 .9-.132 1.07-.252.162-.114.175-.21.175-.242a.47.47 0 0 0-.058-.26.5.5 0 0 0-.19-.163c-.251-.144-.623-.23-1.157-.344-.466-.098-1.095-.223-1.592-.507a2 2 0 0 1-.717-.67A1.96 1.96 0 0 1 5.25 6.5c0-.94.764-1.884 2.004-2.161V4a.75.75 0 0 1 .75-.75"/></svg>