<svg xmlns="http://www.w3.org/2000/svg" width="32" height="32" fill="none" data-fui-icon="true" viewBox="0 0 32 32"><path fill="currentColor" d="M9.487 14.635a.87.87 0 0 0 1.008-.5l3.645-8.94a.645.645 0 0 0-.44-.89.87.87 0 0 0-1.008.5l-3.646 8.941a.645.645 0 0 0 .441.889m11.74 10.84c.735 0 1.33.002 1.813-.038.43-.035.82-.105 1.183-.261l.156-.072a3.4 3.4 0 0 0 1.493-1.494c.208-.408.293-.848.333-1.338.04-.483.039-1.079.039-1.813v-10.9c0-.687 0-1.246-.034-1.699-.036-.46-.11-.873-.294-1.261a3.42 3.42 0 0 0-1.628-1.628c-.388-.184-.801-.259-1.262-.294-.453-.035-1.011-.034-1.7-.034h-1.204a.75.75 0 0 0 0 1.5h1.205c.711 0 1.203 0 1.585.03.373.029.581.08.734.153.401.19.725.513.914.914.073.153.125.361.154.735.029.382.03.873.03 1.585v10.899c0 .759-.001 1.283-.034 1.69-.033.399-.093.619-.175.78-.184.361-.478.654-.838.838-.162.082-.381.143-.78.175-.406.034-.93.034-1.69.034h-10.8c-.758 0-1.283 0-1.69-.034-.398-.032-.618-.093-.78-.175a1.9 1.9 0 0 1-.837-.837c-.083-.162-.143-.382-.176-.78-.033-.408-.033-.932-.033-1.691v-4.378a.75.75 0 0 0-1.5 0v4.378c0 .734-.001 1.33.038 1.813.035.43.105.82.262 1.184l.072.154a3.4 3.4 0 0 0 1.258 1.362l.235.131c.409.209.848.294 1.339.334.482.04 1.078.039 1.813.039zm-14.23-12.56a.75.75 0 0 0 1.005-1.113L5.92 9.924c-.227-.204-.227-.47 0-.674l2.082-1.878A.75.75 0 0 0 6.997 6.26L4.915 8.136c-.887.8-.887 2.102 0 2.902zm8.135-.055a.75.75 0 0 0 1.058.055l2.082-1.877c.887-.8.887-2.102 0-2.902L16.19 6.259a.75.75 0 0 0-1.004 1.113l2.081 1.878c.227.204.227.47 0 .674l-2.08 1.878a.75.75 0 0 0-.055 1.058"/></svg>