<svg xmlns="http://www.w3.org/2000/svg" width="12" height="12" fill="none" data-fui-icon="true" viewBox="0 0 12 12"><path fill="currentColor" d="M6.868 0c.745 0 1.35.604 1.35 1.35v.35q.215.11.417.24l.319-.182.122-.063a1.35 1.35 0 0 1 1.64.44l.076.115.865 1.488a1.35 1.35 0 0 1-.497 1.85l-.306.176q.007.116.008.236l-.008.235.307.176c.65.372.872 1.203.496 1.85l-.865 1.489a1.35 1.35 0 0 1-1.84.492l-.317-.182a5 5 0 0 1-.417.24v.35A1.35 1.35 0 0 1 6.868 12H5.13a1.35 1.35 0 0 1-1.35-1.35v-.35a5 5 0 0 1-.419-.241l-.316.182a1.35 1.35 0 0 1-1.84-.492L.342 8.261a1.35 1.35 0 0 1 .494-1.85l.307-.177L1.136 6q0-.12.006-.236l-.306-.175a1.35 1.35 0 0 1-.495-1.85l.865-1.488.075-.116a1.35 1.35 0 0 1 1.763-.377l.317.181q.203-.129.419-.24v-.35C3.78.605 4.384 0 5.13 0zM6 4.25a1.75 1.75 0 1 0 0 3.5 1.75 1.75 0 0 0 0-3.5"/></svg>