<svg xmlns="http://www.w3.org/2000/svg" width="24" height="24" fill="none" data-fui-icon="true" viewBox="0 0 24 24"><path fill="currentColor" d="M13.252 3a4.75 4.75 0 0 1 4.75 4.75V8a4.74 4.74 0 0 1-1.758 3.688A4.75 4.75 0 0 1 19.002 16v.25a4.75 4.75 0 0 1-4.75 4.75h-7.51a1.75 1.75 0 0 1-1.75-1.75V4.75c0-.966.784-1.75 1.75-1.75zm-6.76 16.25c0 .138.112.25.25.25h7.51a3.25 3.25 0 0 0 3.25-3.25V16a3.25 3.25 0 0 0-3.25-3.25h-7.76zm.25-14.75a.25.25 0 0 0-.25.25v6.5h6.76A3.25 3.25 0 0 0 16.502 8v-.25a3.25 3.25 0 0 0-3.25-3.25z"/></svg>