<svg xmlns="http://www.w3.org/2000/svg" width="20" height="20" fill="none" data-fui-icon="true" viewBox="0 0 20 20"><path fill="currentColor" d="M2.929 2.929a3.77 3.77 0 0 1 2.664-1.104h8.814a3.767 3.767 0 0 1 3.768 3.768v8.814a3.77 3.77 0 0 1-3.768 3.767H5.593a3.77 3.77 0 0 1-3.767-3.767V5.593c0-1 .396-1.958 1.103-2.664m1.06 1.06a2.27 2.27 0 0 0-.664 1.604v8.814a2.27 2.27 0 0 0 2.268 2.268h8.814a2.27 2.27 0 0 0 2.268-2.268V5.593a2.27 2.27 0 0 0-2.268-2.268H5.593c-.601 0-1.178.24-1.603.665m8.84 8.84a1 1 0 1 1 1.414 1.414 1 1 0 0 1-1.415-1.415m-7.072 0a1 1 0 1 1 1.415 1.414 1 1 0 0 1-1.415-1.415m3.536-3.536a1 1 0 1 1 1.414 1.414 1 1 0 0 1-1.414-1.414m3.536-3.536a1 1 0 1 1 1.414 1.415 1 1 0 0 1-1.415-1.415m-7.072 0a1 1 0 1 1 1.415 1.415 1 1 0 0 1-1.415-1.415"/></svg>