<svg xmlns="http://www.w3.org/2000/svg" width="32" height="32" fill="none" data-fui-icon="true" viewBox="0 0 32 32"><path fill="currentColor" d="M16 1.917c3.66 0 5.684-.011 7.331.565a10.09 10.09 0 0 1 6.187 6.188c.576 1.647.566 3.67.566 7.33s.01 5.684-.566 7.331a10.08 10.08 0 0 1-6.187 6.187c-1.647.576-3.67.566-7.331.566-3.66 0-5.683.01-7.33-.566a10.09 10.09 0 0 1-6.188-6.187c-.576-1.647-.565-3.67-.565-7.331 0-3.66-.01-5.683.565-7.33A10.08 10.08 0 0 1 8.67 2.482c1.647-.576 3.67-.565 7.33-.565m0 1.5c-3.786 0-5.489.01-6.835.481a8.58 8.58 0 0 0-5.267 5.267c-.47 1.346-.481 3.049-.481 6.835s.01 5.489.481 6.835a8.59 8.59 0 0 0 5.267 5.267c1.346.47 3.049.482 6.835.482s5.489-.011 6.835-.482a8.58 8.58 0 0 0 5.267-5.267c.47-1.346.482-3.049.482-6.835s-.011-5.489-.482-6.835a8.59 8.59 0 0 0-5.267-5.267c-1.346-.47-3.049-.481-6.835-.481m7.47 8.72a.75.75 0 1 1 1.06 1.06l-5.252 5.253a2.75 2.75 0 0 1-3.89 0l-1.837-1.839a1.25 1.25 0 0 0-1.768 0L8.53 19.864a.75.75 0 0 1-1.06-1.06l3.252-3.253a2.75 2.75 0 0 1 3.89 0l1.837 1.838a1.25 1.25 0 0 0 1.768 0z"/></svg>