<svg xmlns="http://www.w3.org/2000/svg" width="20" height="20" fill="none" data-fui-icon="true" viewBox="0 0 20 20"><path fill="currentColor" d="M10.44 1.448A8.564 8.564 0 0 1 18.564 10l-.012.44a8.564 8.564 0 0 1-8.11 8.112l-.44.01c-.679 0-1.34-.079-1.974-.229-1.01-.24-1.885-.388-2.685-.179-.533.14-1.046.294-1.515.447-.75.243-1.474-.043-1.93-.498-.455-.456-.74-1.18-.497-1.93.152-.468.305-.982.445-1.516.209-.8.06-1.675-.179-2.685A8.563 8.563 0 0 1 10 1.438zM10 2.938a7.063 7.063 0 0 0-6.874 8.689c.237 1 .484 2.21.171 3.41a29 29 0 0 1-.47 1.6c-.036.108-.01.264.131.405.14.14.297.166.406.13.491-.158 1.033-.32 1.598-.469 1.2-.314 2.41-.067 3.411.17a7.063 7.063 0 1 0 1.99-13.927zM6.25 8.75a1.25 1.25 0 1 1 0 2.5 1.25 1.25 0 0 1 0-2.5m3.75 0a1.25 1.25 0 1 1 0 2.5 1.25 1.25 0 0 1 0-2.5m3.75 0a1.25 1.25 0 1 1 0 2.5 1.25 1.25 0 0 1 0-2.5"/></svg>