<svg xmlns="http://www.w3.org/2000/svg" width="16" height="16" fill="none" data-fui-icon="true" viewBox="0 0 16 16"><path fill="currentColor" d="M8.497 1a1.99 1.99 0 0 1 1.96 1.644l.081.464q.257.129.497.283l.483-.173a2.02 2.02 0 0 1 2.419.87l.478.811a1.96 1.96 0 0 1-.448 2.522h-.001l-.382.31q.009.133.01.269l-.01.267.383.312a1.96 1.96 0 0 1 .448 2.522l-.478.81a2.02 2.02 0 0 1-2.42.871l-.48-.175q-.241.155-.499.284l-.081.464v.001A1.99 1.99 0 0 1 8.497 15H7.493a1.99 1.99 0 0 1-1.96-1.644l-.084-.466a6 6 0 0 1-.497-.283l-.478.174-.001.001a2.02 2.02 0 0 1-2.42-.87l-.479-.811a1.96 1.96 0 0 1 .448-2.522l.383-.312L2.396 8q.001-.135.01-.268l-.383-.31V7.42a1.96 1.96 0 0 1-.449-2.522l.479-.81a2.02 2.02 0 0 1 2.42-.871l.48.173q.24-.153.496-.282l.083-.465A1.99 1.99 0 0 1 7.493 1zM7.493 2.5a.49.49 0 0 0-.483.404v.001l-.15.85-.073.407-.382.157a4.1 4.1 0 0 0-.897.51l-.323.24-.38-.136-.84-.303a.52.52 0 0 0-.62.22l-.479.811a.46.46 0 0 0 .104.597l.69.56.322.264-.053.414a4 4 0 0 0 0 1.007l.053.413-.323.264-.688.561a.46.46 0 0 0-.105.598l.479.81a.52.52 0 0 0 .531.245l.089-.024.839-.303.379-.137.324.24q.414.31.898.51l.382.157.072.406.15.852a.49.49 0 0 0 .484.405h1.004a.49.49 0 0 0 .482-.405l.15-.85.072-.408.382-.157q.484-.2.9-.51l.323-.24.38.137.838.303a.52.52 0 0 0 .62-.22l.479-.811a.46.46 0 0 0-.103-.598l-.69-.561-.324-.263.054-.414q.033-.254.034-.503-.001-.25-.034-.504l-.054-.414.324-.264.69-.56a.46.46 0 0 0 .103-.597l-.478-.81a.52.52 0 0 0-.62-.221l-.841.303-.38.135-.323-.24a4 4 0 0 0-.897-.509l-.383-.157-.072-.407-.15-.85-.022-.085a.49.49 0 0 0-.46-.32zM8 5.5a2.5 2.5 0 1 1 0 5 2.5 2.5 0 0 1 0-5M8 7a1 1 0 1 0 0 2 1 1 0 0 0 0-2"/></svg>