<svg xmlns="http://www.w3.org/2000/svg" width="32" height="32" fill="none" data-fui-icon="true" viewBox="0 0 32 32"><path fill="currentColor" d="M15.481 29.083a3.42 3.42 0 0 0 3.382-3.943l-.633-4.057h6.116a4.75 4.75 0 0 0 4.696-5.465l-1.116-7.333A4.75 4.75 0 0 0 23.23 4.25H5c-1.15 0-2.083.933-2.083 2.083v10c0 1.15.933 2.083 2.083 2.083h3.715l4.913 9.538a2.09 2.09 0 0 0 1.853 1.129M5 16.916a.583.583 0 0 1-.583-.583v-10c0-.322.261-.583.583-.583h3.25v11.166zm10.481 10.667a.59.59 0 0 1-.52-.316L9.75 17.15V5.75h13.48a3.25 3.25 0 0 1 3.212 2.76l1.117 7.334a3.25 3.25 0 0 1-3.213 3.739h-6.99a.752.752 0 0 0-.742.865l.768 4.923a1.92 1.92 0 0 1-1.9 2.212"/></svg>