<svg xmlns="http://www.w3.org/2000/svg" width="20" height="20" fill="none" data-fui-icon="true" viewBox="0 0 20 20"><g clip-path="url(#a)"><path fill="currentColor" d="M10.19.007c.933.064 1.66.597 2.164 1.173.54.616.958 1.422 1.28 2.289l.05.147q.08-.015.156-.028c.91-.155 1.818-.196 2.622-.036.75.148 1.575.51 2.098 1.287l.1.161c.513.888.418 1.857.156 2.629-.264.776-.753 1.54-1.343 2.25q-.05.06-.103.12.053.06.103.12c.59.711 1.079 1.477 1.343 2.253.262.772.357 1.74-.156 2.628-.512.888-1.399 1.29-2.199 1.45-.804.158-1.71.116-2.62-.039l-.156-.03-.052.15c-.32.867-.74 1.673-1.28 2.29C11.817 19.433 11.026 20 10 20s-1.817-.566-2.354-1.18c-.54-.616-.958-1.422-1.279-2.289l-.052-.15q-.078.016-.155.03c-.91.155-1.818.197-2.622.038-.8-.158-1.685-.562-2.198-1.449-.512-.888-.418-1.856-.155-2.628.264-.776.753-1.542 1.343-2.253l.101-.12-.101-.12c-.59-.71-1.08-1.474-1.344-2.25C.92 6.857.828 5.888 1.34 5l.1-.161c.523-.776 1.348-1.139 2.098-1.287.804-.16 1.712-.12 2.622.036l.155.028.052-.147c.321-.867.739-1.673 1.279-2.29C8.183.567 8.976 0 10 0zM10 15.203c-.76.333-1.505.61-2.22.822.533 1.434 1.256 2.355 2.058 2.464L10 18.5c.867 0 1.65-.946 2.219-2.475-.715-.213-1.46-.489-2.22-.822M3.67 11.09c-1.04 1.257-1.465 2.41-1.032 3.16l.09.135c.496.64 1.654.804 3.162.55a19 19 0 0 1-.399-2.333c-.667-.491-1.279-1-1.82-1.512m12.657 0a19 19 0 0 1-1.822 1.512 19 19 0 0 1-.398 2.333c1.508.254 2.667.09 3.163-.55l.09-.135c.434-.75.007-1.903-1.033-3.16M7.17 13.724q.081.449.18.866.411-.124.84-.277a25 25 0 0 1-1.02-.59m5.66 0q-.249.153-.505.301-.256.149-.514.287.428.154.839.277.099-.418.18-.865M10 6.444q-.78.373-1.574.83-.793.458-1.505.948a22.7 22.7 0 0 0 .001 3.556A22.7 22.7 0 0 0 10 13.553a23 23 0 0 0 1.576-.826q.792-.46 1.503-.95a23 23 0 0 0 0-3.554 23 23 0 0 0-1.505-.949A23 23 0 0 0 10 6.444m0 2.296A1.26 1.26 0 1 1 10 11.26 1.26 1.26 0 0 1 10 8.74m-4.641.67q-.347.295-.658.59.311.295.658.589a25 25 0 0 1 0-1.179m9.28.001a25 25 0 0 1 0 1.178q.348-.295.66-.589a16 16 0 0 0-.66-.589M5.892 5.064C4.283 4.793 3.072 5 2.639 5.75S2.632 7.652 3.67 8.91a19 19 0 0 1 1.821-1.513 19 19 0 0 1 .399-2.333m11.47.686c-.433-.75-1.644-.957-3.253-.686.172.726.307 1.51.398 2.333.668.491 1.28 1 1.822 1.512 1.04-1.257 1.466-2.409 1.034-3.159m-10.01-.339q-.1.418-.182.865a25 25 0 0 1 1.02-.59 16 16 0 0 0-.838-.275m5.298 0q-.411.122-.84.276a25 25 0 0 1 1.02.588 16 16 0 0 0-.18-.864M10 1.5c-.866 0-1.651.945-2.22 2.474.715.213 1.46.489 2.22.822a19 19 0 0 1 2.219-.822C11.649 2.445 10.866 1.5 10 1.5"/></g><defs><clipPath id="a"><path fill="currentColor" d="M0 0h20v20H0z"/></clipPath></defs></svg>