<svg xmlns="http://www.w3.org/2000/svg" width="16" height="16" fill="none" data-fui-icon="true" viewBox="0 0 16 16"><g clip-path="url(#a)"><path fill="currentColor" d="M8 0a8 8 0 1 1 0 16A8 8 0 0 1 8 0m0 1.5a6.5 6.5 0 1 0 0 13 6.5 6.5 0 0 0 0-13m0 8c1.206 0 2.062.458 2.613.93.272.234.468.467.597.646.065.09.114.168.148.226q.026.044.041.073l.014.023.004.01.002.003v.002c.001 0 .002.002-.519.262l.52-.26a.75.75 0 0 1-1.34.67l.001.005.002.003-.001-.001-.013-.023a2.244 2.244 0 0 0-.433-.5C9.314 11.292 8.795 11 8 11s-1.313.292-1.637.57a2.2 2.2 0 0 0-.432.5l-.013.022h-.001l.002-.002v-.005a.75.75 0 1 1-1.34-.67l.52.26-.52-.26.004-.007.004-.01.014-.023.04-.073a3 3 0 0 1 .149-.226c.13-.179.325-.412.597-.645C5.938 9.958 6.794 9.5 8 9.5M5 6a1 1 0 1 1 0 2 1 1 0 0 1 0-2m6 0a1 1 0 1 1 0 2 1 1 0 0 1 0-2"/></g><defs><clipPath id="a"><path fill="currentColor" d="M0 0h16v16H0z"/></clipPath></defs></svg>