<svg xmlns="http://www.w3.org/2000/svg" width="20" height="20" fill="none" data-fui-icon="true" viewBox="0 0 20 20"><path fill="currentColor" d="M13.5 6.508c.425 0 .84.12 1.2.347l3.88 2.454c.573.362.92.991.92 1.668v4.333c0 .678-.347 1.309-.92 1.67l-3.88 2.454a2.25 2.25 0 0 1-2.4 0L8.42 16.98a1.98 1.98 0 0 1-.92-1.67v-4.333c0-.677.348-1.306.92-1.668l3.88-2.454a2.25 2.25 0 0 1 1.2-.347m0 1.5c-.14 0-.278.04-.398.115l-3.88 2.453a.48.48 0 0 0-.222.401v4.333c0 .163.084.315.222.402l3.88 2.453a.74.74 0 0 0 .796 0l3.88-2.453A.48.48 0 0 0 18 15.31v-4.333a.48.48 0 0 0-.222-.4l-3.88-2.454a.74.74 0 0 0-.398-.115m-3.717 2.99a.75.75 0 0 1 1.017-.304l2.698 1.46 2.7-1.46a.75.75 0 0 1 .713 1.32l-2.665 1.441v3.168a.75.75 0 0 1-1.5 0v-3.17l-2.661-1.44a.75.75 0 0 1-.302-1.016M16.25 1a3.25 3.25 0 0 1 3.25 3.25V7A.75.75 0 0 1 18 7V4.25a1.75 1.75 0 0 0-1.75-1.75H3.75A1.75 1.75 0 0 0 2 4.25v9.031c0 .967.784 1.75 1.75 1.75H5.5a.75.75 0 0 1 0 1.5H3.75a3.25 3.25 0 0 1-3.25-3.25V4.25A3.25 3.25 0 0 1 3.75 1zM4.375 3.75a1 1 0 1 1 0 2 1 1 0 0 1 0-2m3.125 0a1 1 0 1 1 0 2 1 1 0 0 1 0-2m3.125 0a1 1 0 1 1 0 2 1 1 0 0 1 0-2"/></svg>