<svg xmlns="http://www.w3.org/2000/svg" width="20" height="20" fill="none" data-fui-icon="true" viewBox="0 0 20 20"><path fill="currentColor" d="M9.934 2.25C5.208 2.25 2.25 5.862 2.25 10s2.958 7.75 7.684 7.75c3.373 0 6.06-2.14 7.14-4.71a.75.75 0 1 0-1.383-.58c-.866 2.062-3.039 3.79-5.757 3.79-3.809 0-6.184-2.85-6.184-6.25s2.375-6.25 6.184-6.25c3.326 0 5 2.194 5.545 4.02H13.5a.75.75 0 0 0 0 1.5h2.7c.863 0 1.55-.705 1.55-1.558V4a.75.75 0 0 0-1.5 0v1.8c-1.052-1.844-3.058-3.55-6.316-3.55m-.184 3.5A.75.75 0 0 0 9 6.5v4c0 .22.096.426.26.567l.074.057 2.25 1.5a.75.75 0 1 0 .832-1.248L10.5 10.099V6.5a.75.75 0 0 0-.75-.75"/></svg>