<svg xmlns="http://www.w3.org/2000/svg" width="12" height="12" fill="none" data-fui-icon="true" viewBox="0 0 12 12"><path fill="currentColor" d="M4.235.5c.43 0 .836.185 1.117.502l.112.144.93 1.354h4.016c.878 0 1.59.712 1.59 1.59v1.66a.75.75 0 0 1-1.5 0V4.09a.09.09 0 0 0-.09-.09H6.39c-.491 0-.95-.241-1.229-.646L4.231 2H1.59a.09.09 0 0 0-.09.09v7.82c0 .05.04.09.09.09h3.66a.75.75 0 0 1 0 1.5H1.59A1.59 1.59 0 0 1 0 9.91V2.09C0 1.212.712.5 1.59.5zM8.75 6a.75.75 0 0 1 .75.75V8h1.25a.75.75 0 0 1 0 1.5H9.5v1.25a.75.75 0 0 1-1.5 0V9.5H6.75a.75.75 0 0 1 0-1.5H8V6.75A.75.75 0 0 1 8.75 6"/></svg>