<svg xmlns="http://www.w3.org/2000/svg" width="16" height="16" fill="none" data-fui-icon="true" viewBox="0 0 16 16"><g clip-path="url(#a)"><path fill="currentColor" d="M11.236 5.25c.358 0 .709.102 1.011.293l2.947 1.862c.502.317.806.87.806 1.463v3.264a1.73 1.73 0 0 1-.806 1.463l-2.947 1.862a1.89 1.89 0 0 1-2.021 0l-2.948-1.862a1.73 1.73 0 0 1-.805-1.463V8.868c0-.593.304-1.146.805-1.463l2.948-1.862a1.9 1.9 0 0 1 1.01-.293m.746 5.82v2.78l2.41-1.523a.23.23 0 0 0 .108-.195V9.707zm-4.01 1.062c0 .079.041.153.108.195l2.402 1.519v-2.779L7.972 9.71zM13.25.5A2.75 2.75 0 0 1 16 3.25V5.5a.75.75 0 0 1-1.5 0V3.25c0-.69-.56-1.25-1.25-1.25H2.75c-.69 0-1.25.56-1.25 1.25v7.5c0 .69.56 1.25 1.25 1.25h2a.75.75 0 0 1 0 1.5h-2A2.75 2.75 0 0 1 0 10.75v-7.5A2.75 2.75 0 0 1 2.75.5zm-2.014 6.25a.4.4 0 0 0-.209.06L8.602 8.345l2.633 1.425 2.635-1.426-2.424-1.532a.4.4 0 0 0-.21-.061M3.25 3a.75.75 0 1 1 0 1.5.75.75 0 0 1 0-1.5m2.5 0a.75.75 0 1 1 0 1.5.75.75 0 0 1 0-1.5m2.5 0a.75.75 0 1 1 0 1.5.75.75 0 0 1 0-1.5"/></g><defs><clipPath id="a"><path fill="currentColor" d="M0 0h16v16H0z"/></clipPath></defs></svg>