<svg xmlns="http://www.w3.org/2000/svg" width="12" height="12" fill="none" data-fui-icon="true" viewBox="0 0 12 12"><path fill="currentColor" d="M4.432 1.603C5.122.4 6.879.4 7.568 1.603l.066.124.692 1.445 1.598.21c1.507.197 2.122 2.059 1.008 3.111L9.769 7.591l.291 1.567c.28 1.507-1.311 2.642-2.641 1.924L6 10.315l-1.419.767c-1.33.718-2.922-.417-2.642-1.924l.291-1.567-1.162-1.098C-.046 5.441.57 3.579 2.076 3.382l1.597-.21.693-1.445zm3.776 8.188h.005a.3.3 0 0 1-.081-.03zm.636-1.349-.33.609zL8.84 8.44zM2.646 4.82l-.375.05 2.236-.293zm7.083.05-.376-.05-1.86-.243z"/></svg>