<svg xmlns="http://www.w3.org/2000/svg" width="12" height="12" fill="none" data-fui-icon="true" viewBox="0 0 12 12"><path fill="currentColor" d="M9 .25c.937 0 1.816.783 1.689 1.84-.107.885-.348 1.56-.678 2.089-.33.53-.725.876-1.075 1.13-.168.122-.337.231-.462.314-.136.09-.226.155-.293.213-.1.088-.098.111-.098.164s-.003.076.098.164c.067.058.157.122.293.213.125.083.294.192.462.313.35.255.745.6 1.075 1.131.33.53.571 1.204.678 2.09.127 1.056-.752 1.839-1.689 1.839H3c-.937 0-1.816-.783-1.688-1.84.107-.885.348-1.56.678-2.089.33-.53.725-.876 1.075-1.13.167-.122.337-.231.462-.314a3 3 0 0 0 .293-.213c.1-.088.097-.111.097-.164s.003-.076-.097-.164a3 3 0 0 0-.293-.213c-.125-.083-.295-.192-.462-.313-.35-.255-.745-.6-1.075-1.131-.33-.53-.571-1.204-.678-2.09C1.184 1.034 2.063.25 3 .25zm-6 1.5a.23.23 0 0 0-.164.065q-.043.048-.035.095c.085.704.266 1.161.462 1.476.195.313.429.525.684.71.134.097.261.179.41.278.139.092.302.204.45.333.329.288.61.693.61 1.293s-.281 1.005-.61 1.293c-.148.13-.311.241-.45.333-.149.1-.276.18-.41.278a2.5 2.5 0 0 0-.684.71c-.196.315-.377.772-.462 1.476-.004.033.004.062.035.095A.23.23 0 0 0 3 10.25h6a.23.23 0 0 0 .164-.065c.031-.033.04-.063.035-.095-.084-.704-.266-1.161-.461-1.476a2.5 2.5 0 0 0-.684-.71c-.134-.097-.262-.179-.411-.278a4 4 0 0 1-.45-.333c-.328-.288-.61-.693-.61-1.293s.282-1.005.61-1.293c.149-.13.312-.241.45-.333.149-.1.277-.18.411-.278.254-.185.489-.397.684-.71.195-.315.377-.772.461-1.476.004-.032-.004-.063-.035-.095A.23.23 0 0 0 9 1.75zm4.617.56c.276 0 .503.231.394.485-.23.537-.809 1.04-1.462 1.401a1.14 1.14 0 0 1-1.099 0c-.652-.36-1.23-.864-1.461-1.401-.109-.253.117-.484.393-.484z"/></svg>