<svg xmlns="http://www.w3.org/2000/svg" width="24" height="24" fill="none" data-fui-icon="true" viewBox="0 0 24 24"><path fill="currentColor" d="m13.336 3.336.53-.53zm5.328 5.328-.53.53zM7.781 16.125a.75.75 0 0 0 0 1.5zm8.438 1.5a.75.75 0 0 0 0-1.5zm-8.438-5.61a.75.75 0 0 0 0 1.5zm4.453 1.5a.75.75 0 0 0 0-1.5zM12 3.25v4h1.5v-4zm0 4A2.75 2.75 0 0 0 14.75 10V8.5c-.69 0-1.25-.56-1.25-1.25zM14.75 10h4V8.5h-4zm-8-6.5h5.172V2H6.75zm5.172 0c.331 0 .649.132.883.366l1.061-1.06A2.75 2.75 0 0 0 11.922 2zm.883.366 5.329 5.329 1.06-1.061-5.328-5.329zm5.329 5.329c.234.234.366.552.366.883H20c0-.729-.29-1.428-.805-1.944zm.366.883v9.172H20v-9.172zm0 9.172c0 .69-.56 1.25-1.25 1.25V22A2.75 2.75 0 0 0 20 19.25zm-1.25 1.25H6.75V22h10.5zm-10.5 0c-.69 0-1.25-.56-1.25-1.25H4A2.75 2.75 0 0 0 6.75 22zM5.5 19.25V4.75H4v14.5zm0-14.5c0-.69.56-1.25 1.25-1.25V2A2.75 2.75 0 0 0 4 4.75zm2.281 12.875h8.438v-1.5H7.78zm0-4.11h4.453v-1.5H7.781z"/></svg>