<svg xmlns="http://www.w3.org/2000/svg" width="32" height="32" fill="none" data-fui-icon="true" viewBox="0 0 32 32"><path fill="currentColor" d="M13.778 2.778c.978-1.704 3.467-1.704 4.444 0l.093.176 3.226 6.716 7.427.973c2.135.28 3.008 2.914 1.43 4.403l-5.426 5.114 1.363 7.307c.397 2.132-1.859 3.738-3.743 2.723L16 26.636l-6.59 3.552c-1.885 1.016-4.142-.59-3.744-2.722l1.361-7.307-5.424-5.114c-1.58-1.49-.706-4.124 1.429-4.403l7.427-.973 3.226-6.716zm3.185.826c-.387-.805-1.538-.805-1.925 0l-3.33 6.928a1.07 1.07 0 0 1-.822.595l-7.66 1.003c-.89.117-1.246 1.21-.593 1.825l5.598 5.278c.263.248.382.612.316.966L7.14 27.741c-.153.824.657 1.469 1.409 1.195l.149-.067 6.794-3.662c.317-.17.7-.17 1.017 0l6.793 3.662c.74.398 1.605-.17 1.576-.966l-.018-.162-1.406-7.542a1.06 1.06 0 0 1 .315-.966l5.6-5.278c.611-.576.336-1.573-.435-1.792l-.16-.033-7.659-1.003a1.07 1.07 0 0 1-.758-.478l-.065-.117z"/></svg>