<svg xmlns="http://www.w3.org/2000/svg" width="32" height="32" fill="none" data-fui-icon="true" viewBox="0 0 32 32"><path fill="currentColor" d="M23.75 3a5.25 5.25 0 1 1 0 10.5H20v5h3.75a5.25 5.25 0 1 1-5.25 5.25V20h-5v3.75a5.25 5.25 0 1 1-5.25-5.25H12v-5H8.25a5.25 5.25 0 1 1 5.25-5.25V12h5V8.25c0-2.9 2.35-5.25 5.25-5.25M8.25 20A3.75 3.75 0 1 0 12 23.75V20zM20 23.75A3.75 3.75 0 1 0 23.75 20H20zm-6.5-5.25h5v-5h-5zm-5.25-14a3.75 3.75 0 1 0 0 7.5H12V8.25A3.75 3.75 0 0 0 8.25 4.5m15.5 0A3.75 3.75 0 0 0 20 8.25V12h3.75a3.75 3.75 0 1 0 0-7.5"/></svg>