<svg xmlns="http://www.w3.org/2000/svg" width="12" height="12" fill="none" data-fui-icon="true" viewBox="0 0 12 12"><path fill="currentColor" d="M9.125 1.125c.966 0 1.75.784 1.75 1.75v2.75a.75.75 0 0 1-1.5 0v-2.75a.25.25 0 0 0-.25-.25h-6.25a.25.25 0 0 0-.25.25v6.25c0 .138.112.25.25.25h3.25a.75.75 0 0 1 0 1.5h-3.25a1.75 1.75 0 0 1-1.75-1.75v-6.25c0-.966.784-1.75 1.75-1.75zm0 5.25a.75.75 0 0 1 .75.75v.75h.75a.75.75 0 0 1 0 1.5h-.75v.75a.75.75 0 0 1-1.5 0v-.75h-.75a.75.75 0 0 1 0-1.5h.75v-.75a.75.75 0 0 1 .75-.75"/></svg>