<svg xmlns="http://www.w3.org/2000/svg" width="20" height="20" fill="none" data-fui-icon="true" viewBox="0 0 20 20"><path fill="currentColor" d="M12.25 1c.966 0 1.75.784 1.75 1.75v2.67c0 .842-.6 1.564-1.428 1.72l-2.438.457C10.052 8.35 10 9.157 10 10s.052 1.649.134 2.402l2.438.458A1.75 1.75 0 0 1 14 14.58v2.67A1.75 1.75 0 0 1 12.25 19H9.584c-.723 0-1.497-.293-1.966-.985C6.812 16.823 5.5 14.228 5.5 10s1.312-6.823 2.118-8.015C8.087 1.293 8.861 1 9.584 1zM9.584 2.5c-.344 0-.594.135-.724.326C8.204 3.797 7 6.103 7 10s1.204 6.203 1.86 7.174c.13.191.38.326.724.326h2.666a.25.25 0 0 0 .25-.25v-2.67a.25.25 0 0 0-.204-.246l-2.982-.559.14-.737h-.002l-.138.737a.75.75 0 0 1-.605-.64A24 24 0 0 1 8.5 10c0-.84.047-1.644.123-2.398l.086-.738.024-.117a.75.75 0 0 1 .581-.522l2.982-.559a.25.25 0 0 0 .204-.246V2.75a.25.25 0 0 0-.25-.25z"/></svg>