<svg xmlns="http://www.w3.org/2000/svg" width="32" height="32" fill="none" data-fui-icon="true" viewBox="0 0 32 32"><path fill="currentColor" d="M14.065 3.09c.872-1.468 2.997-1.468 3.87 0l13.364 22.512c.89 1.5-.19 3.398-1.934 3.398H2.635C.89 29-.19 27.103.7 25.603zM25.79 19.261c-1.122 1.687-4.37 5.74-9.792 5.74s-8.67-4.053-9.791-5.74L1.99 26.368a.75.75 0 0 0 .644 1.133h26.73a.75.75 0 0 0 .645-1.133zm-5.545-5.638a4.75 4.75 0 1 1-8.494 0c-.667.37-1.264.807-1.794 1.267a13.6 13.6 0 0 0-2.695 3.24c.804 1.3 3.735 5.37 8.737 5.37 5.001 0 7.932-4.07 8.736-5.37a13.6 13.6 0 0 0-2.695-3.24c-.53-.46-1.13-.896-1.795-1.267m-4.427-1.119a3.25 3.25 0 1 0 .36 0l-.18-.003zm.825-8.648a.75.75 0 0 0-1.289 0l-5.438 9.157c1.569-1.121 3.598-2.012 6.083-2.012l.28.002c2.356.065 4.291.931 5.8 2.01z"/></svg>