<svg xmlns="http://www.w3.org/2000/svg" width="32" height="32" fill="none" data-fui-icon="true" viewBox="0 0 32 32"><path fill="currentColor" d="M13.5 5a.75.75 0 0 1 0 1.5H7.32A2.82 2.82 0 0 0 4.5 9.32v15.36a2.82 2.82 0 0 0 2.82 2.82h15.36a2.82 2.82 0 0 0 2.82-2.82V18.5a.75.75 0 0 1 1.5 0v6.18A4.32 4.32 0 0 1 22.68 29H7.32A4.32 4.32 0 0 1 3 24.68V9.32A4.32 4.32 0 0 1 7.32 5zm14.75-2a.75.75 0 0 1 .75.75V12a.75.75 0 0 1-1.5 0V5.56L17.28 15.78a.75.75 0 1 1-1.06-1.06L26.44 4.5H20A.75.75 0 0 1 20 3z"/></svg>