<svg xmlns="http://www.w3.org/2000/svg" width="20" height="20" fill="none" data-fui-icon="true" viewBox="0 0 20 20"><path fill="currentColor" d="M16.228 13.065c1.117 0 2.022.906 2.022 2.022 0 1.848-1.505 3.214-3.292 3.214H5.042c-1.787 0-3.292-1.366-3.292-3.214 0-1.116.905-2.021 2.021-2.022zm-12.457 1.5a.52.52 0 0 0-.521.522c0 .96.771 1.713 1.792 1.714h9.916c1.02 0 1.792-.755 1.792-1.714a.52.52 0 0 0-.522-.522zm9.45-4.652a2.278 2.278 0 0 1 3.79 0c.143.214.4.341.66.347a.75.75 0 1 1-.03 1.5 2.32 2.32 0 0 1-1.877-1.015.778.778 0 0 0-1.294 0 2.278 2.278 0 0 1-3.791 0 .778.778 0 0 0-1.294 0 2.278 2.278 0 0 1-3.791 0 .778.778 0 0 0-1.294 0 2.32 2.32 0 0 1-1.972 1.015.75.75 0 0 1 .031-1.5.82.82 0 0 0 .693-.347 2.278 2.278 0 0 1 3.79 0 .778.778 0 0 0 1.295 0 2.278 2.278 0 0 1 3.79 0 .778.778 0 0 0 1.295 0m.465-8.874a4.564 4.564 0 0 1 4.564 4.564c0 1.14-.929 1.99-2.022 1.99H3.771c-1.092 0-2.021-.851-2.021-1.99a4.564 4.564 0 0 1 4.563-4.564zm-7.373 1.5A3.064 3.064 0 0 0 3.25 5.603c0 .264.21.49.521.49h12.457c.312 0 .522-.226.522-.49a3.064 3.064 0 0 0-3.064-3.064z"/></svg>