<svg xmlns="http://www.w3.org/2000/svg" width="32" height="32" fill="none" data-fui-icon="true" viewBox="0 0 32 32"><path fill="currentColor" d="M16.002 16.917q1.11.002 2.138.197a.75.75 0 1 1-.278 1.474 10 10 0 0 0-2.044-.17 10 10 0 0 0-.726.039l-.059.006q-.132.012-.262.028l-.119.014q-.315.043-.619.104l-.14.03-.21.049c-3.028.73-5.285 2.886-6.335 5.723-.17.461-.066.894.22 1.235.297.354.792.604 1.361.604h7.406a.75.75 0 0 1 0 1.5H8.929c-1 0-1.921-.437-2.51-1.14-.6-.715-.852-1.707-.478-2.72 1.192-3.222 3.756-5.707 7.176-6.607l.03-.009.057-.014.116-.029q.126-.03.254-.058.066-.016.133-.028.137-.03.276-.053l.105-.019q.184-.03.372-.055l.11-.013q.143-.018.288-.032l.113-.011q.154-.013.309-.023.034-.001.07-.004l.097-.005q.171-.008.344-.011zm10.136 3.887a.75.75 0 1 1 1.06 1.06L25.061 24l2.137 2.137a.75.75 0 0 1-1.06 1.06L24 25.061l-2.136 2.136a.75.75 0 0 1-1.06-1.06L22.94 24l-2.136-2.136a.75.75 0 0 1 1.061-1.06l2.136 2.136zM16.002 2.917a5.75 5.75 0 1 1-.001 11.5 5.75 5.75 0 0 1 0-11.5m0 1.5a4.25 4.25 0 1 0 0 8.5 4.25 4.25 0 0 0 0-8.5"/></svg>