<svg xmlns="http://www.w3.org/2000/svg" width="20" height="20" fill="none" data-fui-icon="true" viewBox="0 0 20 20"><path fill="currentColor" d="M6.42 4.268a.625.625 0 1 1 .681 1.048c-1.342.872-2.416 1.63-3.146 2.637a5 5 0 0 0-.646 1.196 3.8 3.8 0 0 1 2.117-.642c2.05 0 3.74 1.626 3.74 3.664 0 2.037-1.69 3.662-3.74 3.663-2.046 0-3.733-1.616-3.743-3.646-.114-2.17.357-3.725 1.26-4.97C3.827 6 5.092 5.132 6.421 4.268m9.167 0a.626.626 0 1 1 .681 1.048c-1.342.872-2.416 1.63-3.146 2.637a5 5 0 0 0-.647 1.196 3.8 3.8 0 0 1 2.117-.642c2.05 0 3.742 1.625 3.742 3.664 0 2.037-1.691 3.663-3.742 3.663-2.046 0-3.732-1.616-3.742-3.646-.114-2.17.357-3.725 1.26-4.97.884-1.217 2.148-2.086 3.477-2.95"/></svg>