<svg xmlns="http://www.w3.org/2000/svg" width="24" height="24" fill="none" data-fui-icon="true" viewBox="0 0 24 24"><g clip-path="url(#a)"><path fill="currentColor" d="m20.733 8.383-.73-.172a.75.75 0 0 0 .335.81zm-5.116-5.115-.638.394a.75.75 0 0 0 .81.336zm-7.234 0-.172.73a.75.75 0 0 0 .81-.336zm-3.984 1.13.53.53zM3.268 8.384l.394.638a.75.75 0 0 0 .335-.81zm0 7.234.73.172a.75.75 0 0 0-.336-.81zm1.13 3.984-.53.53zm3.985 1.132.638-.395a.75.75 0 0 0-.81-.335zm7.234 0 .172-.73a.75.75 0 0 0-.81.335zm3.984-1.132.53.53zm1.132-3.984-.395-.638a.75.75 0 0 0-.335.81zm-.395-6.596A3.5 3.5 0 0 1 22 12h1.5c0-1.799-.95-3.375-2.373-4.255zm-1.267-4.092c.89.89 1.201 2.138.931 3.282l1.46.344a5 5 0 0 0-1.33-4.687zm-3.282-.931a3.5 3.5 0 0 1 3.282.93l1.06-1.06a5 5 0 0 0-4.686-1.33zM12 2c1.258 0 2.361.663 2.98 1.662l1.275-.789A5 5 0 0 0 12 .5zM9.02 3.662A3.5 3.5 0 0 1 12 2V.5c-1.799 0-3.375.95-4.255 2.373zM4.93 4.929c.89-.89 2.138-1.201 3.282-.931l.344-1.46a5 5 0 0 0-4.687 1.33zM3.997 8.21a3.5 3.5 0 0 1 .932-3.282l-1.06-1.06a5 5 0 0 0-1.332 4.686zM2 12c0-1.258.663-2.361 1.662-2.98l-.789-1.275A5 5 0 0 0 .5 12zm1.662 2.98A3.5 3.5 0 0 1 2 12H.5c0 1.799.95 3.375 2.373 4.255zm1.267 4.091a3.5 3.5 0 0 1-.931-3.282l-1.46-.344a5 5 0 0 0 1.33 4.687zm3.282.931a3.5 3.5 0 0 1-3.282-.93l-1.06 1.06a5 5 0 0 0 4.686 1.33zM12 22a3.5 3.5 0 0 1-2.98-1.662l-1.275.789A5 5 0 0 0 12 23.5zm2.98-1.662A3.5 3.5 0 0 1 12 22v1.5c1.799 0 3.375-.95 4.255-2.373zm4.091-1.267c-.89.89-2.138 1.201-3.282.931l-.344 1.46a5 5 0 0 0 4.687-1.33zm.931-3.282a3.5 3.5 0 0 1-.931 3.282l1.06 1.06a5 5 0 0 0 1.331-4.686zM22 12a3.5 3.5 0 0 1-1.662 2.98l.789 1.275A5 5 0 0 0 23.5 12z"/><path stroke="currentColor" stroke-linecap="round" stroke-linejoin="round" stroke-width="1.5" d="m7.5 12 3 3.188L16.5 9"/></g><defs><clipPath id="a"><path fill="currentColor" d="M0 0h24v24H0z"/></clipPath></defs></svg>