<svg xmlns="http://www.w3.org/2000/svg" width="24" height="24" fill="none" data-fui-icon="true" viewBox="0 0 24 24"><path fill="currentColor" d="M19.25 3A2.75 2.75 0 0 1 22 5.75v10.5A2.75 2.75 0 0 1 19.25 19h-3.874a.25.25 0 0 0-.16.058l-2.098 1.738a1.75 1.75 0 0 1-2.24-.007l-2.065-1.73A.25.25 0 0 0 8.65 19H4.75A2.75 2.75 0 0 1 2 16.25V5.75A2.75 2.75 0 0 1 4.75 3zM4.75 4.5c-.69 0-1.25.56-1.25 1.25v10.5c0 .69.56 1.25 1.25 1.25h3.901c.411 0 .81.145 1.125.41l2.065 1.73a.25.25 0 0 0 .32 0l2.099-1.738a1.75 1.75 0 0 1 1.116-.402h3.874c.69 0 1.25-.56 1.25-1.25V5.75c0-.69-.56-1.25-1.25-1.25zM7.5 9.75a1.25 1.25 0 1 1 0 2.5 1.25 1.25 0 0 1 0-2.5m4.5 0a1.25 1.25 0 1 1 0 2.5 1.25 1.25 0 0 1 0-2.5m4.5 0a1.25 1.25 0 1 1 0 2.5 1.25 1.25 0 0 1 0-2.5"/></svg>