<svg xmlns="http://www.w3.org/2000/svg" width="24" height="24" fill="none" data-fui-icon="true" viewBox="0 0 24 24"><path fill="currentColor" d="M9.25 2a.75.75 0 0 1 0 1.5h-1.5A4.25 4.25 0 0 0 3.5 7.75v8.5a4.25 4.25 0 0 0 4.25 4.25h8.5a4.25 4.25 0 0 0 4.25-4.25v-1.5a.75.75 0 0 1 1.5 0v1.5A5.75 5.75 0 0 1 16.25 22h-8.5A5.75 5.75 0 0 1 2 16.25v-8.5A5.75 5.75 0 0 1 7.75 2zm6.915 1.024a3.402 3.402 0 0 1 4.81 4.811l-7.31 7.31a2.92 2.92 0 0 1-2.061.855H9.25C8.56 16 8 15.44 8 14.75v-2.354c0-.773.307-1.514.854-2.061zm-6.25 8.372a1.42 1.42 0 0 0-.415 1V14.5h2.104c.375 0 .734-.15 1-.415l4.844-4.846-2.69-2.69zm10-7.311a1.9 1.9 0 0 0-2.69 0L15.82 5.489l2.69 2.69 1.406-1.405a1.9 1.9 0 0 0 0-2.689"/></svg>