<svg xmlns="http://www.w3.org/2000/svg" width="16" height="16" fill="none" data-fui-icon="true" viewBox="0 0 16 16"><path fill="currentColor" d="M8.75 7.25H12a.75.75 0 0 1 0 1.5H8.75V12a.75.75 0 0 1-1.5 0V8.75H4a.75.75 0 0 1 0-1.5h3.25V4a.75.75 0 0 1 1.5 0z"/><path fill="currentColor" fill-rule="evenodd" d="M0 4.25A4.25 4.25 0 0 1 4.25 0h7.5A4.25 4.25 0 0 1 16 4.25v7.5A4.25 4.25 0 0 1 11.75 16h-7.5A4.25 4.25 0 0 1 0 11.75zM4.25 1.5A2.75 2.75 0 0 0 1.5 4.25v7.5a2.75 2.75 0 0 0 2.75 2.75h7.5a2.75 2.75 0 0 0 2.75-2.75v-7.5a2.75 2.75 0 0 0-2.75-2.75z" clip-rule="evenodd"/></svg>