<svg xmlns="http://www.w3.org/2000/svg" width="12" height="12" fill="none" data-fui-icon="true" viewBox="0 0 12 12"><path fill="currentColor" d="M6.188 1.313A2.99 2.99 0 0 1 8.77 2.796l.406-.37.083-.07c.87-.683 2.177-.07 2.178 1.067v5.154c0 1.136-1.308 1.75-2.178 1.068l-.083-.07-.406-.372a2.99 2.99 0 0 1-2.584 1.485H3.563a3 3 0 0 1-3-3V4.313a3 3 0 0 1 3-3zm-2.625 1.5a1.5 1.5 0 0 0-1.5 1.5v3.375l.007.153a1.5 1.5 0 0 0 1.493 1.346h2.625c.767 0 1.4-.578 1.487-1.324.067-.573.73-.9 1.22-.567l.095.076.947.865V3.762l-.947.866c-.494.451-1.244.119-1.315-.492a1.5 1.5 0 0 0-1.487-1.324z"/></svg>