<svg xmlns="http://www.w3.org/2000/svg" width="16" height="16" fill="none" data-fui-icon="true" viewBox="0 0 16 16"><path fill="currentColor" d="M7.74 14.917a2.086 2.086 0 0 0 2.062-2.404l-.25-1.596h2.62a2.75 2.75 0 0 0 2.719-3.164l-.558-3.666a2.75 2.75 0 0 0-2.719-2.337H2.5c-.782 0-1.417.635-1.417 1.417v5c0 .782.635 1.417 1.417 1.417h1.628l2.352 4.565.102.168c.264.374.695.6 1.158.6M2.583 3.25H3.75v4.834H2.583zM5.25 8.486V3.25h6.364a1.25 1.25 0 0 1 1.236 1.063l.558 3.666a1.25 1.25 0 0 1-1.236 1.438H8.677a.75.75 0 0 0-.741.865l.383 2.462a.583.583 0 0 1-.532.668z"/></svg>