<svg xmlns="http://www.w3.org/2000/svg" width="20" height="20" fill="none" data-fui-icon="true" viewBox="0 0 20 20"><path fill="currentColor" d="M10.653.5c.545 0 1.035.321 1.255.813l.04.1.21.587h.966c.629 0 1.16.422 1.323 1h.71a2.313 2.313 0 0 1 2.312 2.313v12.03a2.313 2.313 0 0 1-2.313 2.313H4.844a2.31 2.31 0 0 1-2.313-2.312V5.312A2.31 2.31 0 0 1 4.844 3h.709c.163-.578.694-1 1.323-1h.966l.21-.588A1.375 1.375 0 0 1 9.347.5zm-5.81 4a.813.813 0 0 0-.812.813v12.03c0 .45.364.813.813.813h10.312a.81.81 0 0 0 .813-.812V5.312a.813.813 0 0 0-.813-.812H14.5v.375c0 .76-.616 1.375-1.375 1.375h-6.25c-.76 0-1.375-.616-1.375-1.375V4.5zm8.438 9a.75.75 0 1 1 0 1.5H6.72a.75.75 0 0 1 0-1.5zm0-4.5a.75.75 0 1 1 0 1.5H6.72a.75.75 0 0 1 0-1.5zM9.13 2.854a.75.75 0 0 1-.74.646H7v1.25h6V3.5h-1.39a.75.75 0 0 1-.74-.646L10.565 2h-1.13z"/></svg>