<svg xmlns="http://www.w3.org/2000/svg" width="16" height="16" fill="none" data-fui-icon="true" viewBox="0 0 16 16"><path fill="currentColor" d="M1.22 1.22a.75.75 0 0 1 1.06 0l12.5 12.5a.75.75 0 0 1-1.06 1.06l-2.693-2.692a.3.3 0 0 0-.212-.088H9.05a.3.3 0 0 0-.3.3v1.95a.75.75 0 0 1-1.5 0V12.3a.3.3 0 0 0-.3-.3H4.255c-1.58 0-2.566-1.71-1.775-3.077l1.41-2.434A.8.8 0 0 0 4 6.08v-.894a.3.3 0 0 0-.088-.212L1.22 2.28a.75.75 0 0 1 0-1.06M9.95 1A2.05 2.05 0 0 1 12 3.05v3.03a.8.8 0 0 0 .11.41l1.41 2.433c.212.366.295.758.274 1.134-.013.226-.28.297-.44.137l-1.948-1.948a.3.3 0 0 1-.048-.062l-.546-.944a2.3 2.3 0 0 1-.312-1.16V3.05a.55.55 0 0 0-.55-.55h-3.9a1 1 0 0 0-.074.005c-.14.019-.298.012-.398-.088l-.67-.67c-.121-.121-.116-.322.028-.416.32-.209.703-.33 1.114-.331zM5.856 6.917c-.17-.17-.47-.081-.572.137q-.044.095-.096.186l-1.41 2.435a.55.55 0 0 0 .477.825h4.46a.3.3 0 0 0 .212-.512z"/></svg>