<svg xmlns="http://www.w3.org/2000/svg" width="12" height="12" fill="none" data-fui-icon="true" viewBox="0 0 12 12"><path fill="currentColor" d="M5.083 2.1q.06.109.115.221a8 8 0 0 1 1.6 0q.057-.112.117-.221l.172-.309.349.059A8.4 8.4 0 0 1 9.54 2.5l.127.059.078.114c1.147 1.685 1.722 3.602 1.51 5.805l-.02.222-.178.132a8.4 8.4 0 0 1-2.584 1.303l-.337.101-.21-.282a6.4 6.4 0 0 1-.508-.809A6.2 6.2 0 0 1 6 9.314c-.48 0-.957-.058-1.42-.168q-.225.424-.508.808l-.21.284-.338-.102A8.5 8.5 0 0 1 .942 8.833L.765 8.7.743 8.48c-.18-1.9.184-3.835 1.506-5.801l.08-.116.126-.06a8.5 8.5 0 0 1 2.107-.652l.35-.06zm2.475.957-.152.357-.383-.059a6.8 6.8 0 0 0-2.048 0l-.383.06-.152-.357q-.033-.076-.069-.15a7.5 7.5 0 0 0-1.368.446c-1.07 1.641-1.391 3.23-1.282 4.805.541.378 1.13.682 1.75.904l.01-.015a6 6 0 0 1-.365-.197l-.652-.387.612-.447q.094-.069.19-.144l.243-.187.276.13a5.19 5.19 0 0 0 4.43 0l.286-.134.244.2q.088.071.166.126l.649.441-.675.402q-.18.104-.367.197l.01.015a7.4 7.4 0 0 0 1.75-.903c.126-1.81-.347-3.387-1.283-4.807a7.4 7.4 0 0 0-1.369-.447q-.036.075-.068.15M4.404 5.398c.486 0 .874.437.866.968s-.381.963-.864.963c-.473 0-.864-.432-.864-.963s.377-.967.862-.968m3.192 0c.486 0 .871.437.863.968s-.381.963-.863.963c-.474 0-.864-.432-.865-.963 0-.531.378-.968.865-.968"/></svg>