<svg xmlns="http://www.w3.org/2000/svg" width="16" height="16" fill="none" data-fui-icon="true" viewBox="0 0 16 16"><path stroke="currentColor" stroke-linecap="round" stroke-linejoin="round" stroke-width="1.5" d="M7.215 1.177c-1.18 1.621-3.348 2.5-4.569 2.888-.517.164-.896.635-.896 1.178v.722c0 3.992 2.21 8.034 6.016 9.237A.9.9 0 0 0 8 15.25a.9.9 0 0 0 .234-.048c3.806-1.203 6.016-5.245 6.016-9.237v-.722c0-.543-.379-1.014-.896-1.178-1.22-.388-3.389-1.267-4.569-2.888C8.6.922 8.315.75 8 .75s-.6.172-.785.427"/><path stroke="currentColor" stroke-linecap="round" stroke-linejoin="round" stroke-width="1.5" d="M5.75 8.75 7 10.25l3.25-3.5"/></svg>