<svg xmlns="http://www.w3.org/2000/svg" width="12" height="12" fill="none" data-fui-icon="true" viewBox="0 0 12 12"><path fill="currentColor" d="M8.25 0A3.75 3.75 0 0 1 12 3.75v4.5A3.75 3.75 0 0 1 8.25 12h-4.5A3.75 3.75 0 0 1 0 8.25v-4.5A3.75 3.75 0 0 1 3.75 0zm-4.5 1.5A2.25 2.25 0 0 0 1.5 3.75v4.5a2.25 2.25 0 0 0 2.25 2.25h4.5a2.25 2.25 0 0 0 2.25-2.25v-4.5A2.25 2.25 0 0 0 8.25 1.5zm0 1.5a.75.75 0 0 1 .75.75v4.5a.75.75 0 0 1-1.5 0v-4.5A.75.75 0 0 1 3.75 3m3.94.252a.75.75 0 0 1 1.12.996L7.254 6 8.81 7.752a.75.75 0 0 1-1.122.996l-2-2.25a.75.75 0 0 1 0-.996z"/></svg>