<svg xmlns="http://www.w3.org/2000/svg" width="20" height="20" fill="none" data-fui-icon="true" viewBox="0 0 20 20"><path fill="currentColor" d="M10 1a9 9 0 0 1 8.997 9.238c-.04 1.57-1.441 2.515-2.797 2.515h-3.379a1.56 1.56 0 0 0-1.516 1.196l-.674 2.808c-.303 1.263-1.545 2.323-3 1.928A9 9 0 0 1 10 1m0 1.5a7.5 7.5 0 0 0-1.975 14.737c.445.121.99-.18 1.147-.83l.674-2.807a3.06 3.06 0 0 1 2.975-2.347h3.38c.764 0 1.282-.503 1.296-1.054L17.5 10A7.5 7.5 0 0 0 10 2.5m-3.5 9a1 1 0 1 1 0 2 1 1 0 0 1 0-2M6 7a1 1 0 1 1 0 2 1 1 0 0 1 0-2m8 0a1 1 0 1 1 0 2 1 1 0 0 1 0-2m-4-2.5a1 1 0 1 1 0 2 1 1 0 0 1 0-2"/></svg>