<svg xmlns="http://www.w3.org/2000/svg" width="12" height="12" fill="none" data-fui-icon="true" viewBox="0 0 12 12"><g clip-path="url(#a)"><path fill="currentColor" d="M9.25 0a.75.75 0 0 1 0 1.5H8.5v3.192c0 .05.015.1.043.141l3.015 4.433c.79 1.162-.043 2.734-1.448 2.734H1.89C.485 12-.348 10.427.442 9.266l3.015-4.433a.25.25 0 0 0 .043-.14V1.5h-.75a.75.75 0 0 1 0-1.5zM4.462 8.14c-.377-.06-.882-.032-1.636.287l-1.143 1.682a.25.25 0 0 0 .207.391h8.22c.2 0 .32-.225.207-.39l-.975-1.435c-.728.343-1.362.482-1.952.457-.72-.031-1.284-.302-1.726-.524-.465-.232-.793-.404-1.202-.468M5 4.692c0 .351-.106.694-.303.984l-.64.941q.33-.008.637.04c.685.108 1.233.405 1.642.61.432.216.745.35 1.118.367.255.01.584-.036 1.031-.219l-1.182-1.74A1.75 1.75 0 0 1 7 4.693V1.5H5z"/></g><defs><clipPath id="a"><path fill="currentColor" d="M0 0h12v12H0z"/></clipPath></defs></svg>