<svg xmlns="http://www.w3.org/2000/svg" width="20" height="20" fill="none" data-fui-icon="true" viewBox="0 0 20 20"><path fill="currentColor" d="M10.012 0a.75.75 0 0 1 .75.75v.873c3.54.274 4.945 2.479 5.218 3.754a.751.751 0 0 1-1.468.313c-.136-.634-.982-2.303-3.75-2.561v6.247c1.105.209 2.275.47 3.209.981.573.315 1.09.739 1.46 1.329.372.593.565 1.304.565 2.14 0 2.024-1.817 4.259-5.234 4.545v.876a.75.75 0 0 1-1.5 0v-.874c-1.633-.133-2.81-.695-3.642-1.408a5.33 5.33 0 0 1-1.583-2.363.75.75 0 0 1 1.426-.466c.14.424.46 1.112 1.134 1.69.557.478 1.395.914 2.665 1.04V10.62c-1.106-.209-2.276-.468-3.21-.98-.573-.315-1.09-.738-1.46-1.328-.372-.592-.564-1.304-.565-2.14 0-2.025 1.82-4.259 5.235-4.546V.75a.75.75 0 0 1 .75-.75m.75 16.865c2.71-.268 3.734-1.98 3.734-3.039 0-.599-.136-1.024-.336-1.343-.202-.322-.502-.586-.91-.81-.66-.362-1.513-.578-2.488-.77zm-1.5-13.734c-2.71.27-3.735 1.982-3.735 3.04 0 .6.135 1.025.335 1.344.203.322.503.585.912.81.66.361 1.513.575 2.488.768z"/></svg>