<svg xmlns="http://www.w3.org/2000/svg" width="32" height="32" fill="none" data-fui-icon="true" viewBox="0 0 32 32"><path fill="currentColor" d="M11.15 17.5c1.85 0 3.35 1.5 3.35 3.35v4.8C14.5 27.5 13 29 11.15 29h-4.8A3.35 3.35 0 0 1 3 25.65v-4.8C3 19 4.5 17.5 6.35 17.5zm14.5 0C27.5 17.5 29 19 29 20.85v4.8C29 27.5 27.5 29 25.65 29h-4.8a3.35 3.35 0 0 1-3.35-3.35v-4.8c0-1.85 1.5-3.35 3.35-3.35zM6.35 19a1.85 1.85 0 0 0-1.85 1.85v4.8a1.85 1.85 0 0 0 1.85 1.85h4.8A1.85 1.85 0 0 0 13 25.65v-4.8A1.85 1.85 0 0 0 11.15 19zm14.5 0A1.85 1.85 0 0 0 19 20.85v4.8a1.85 1.85 0 0 0 1.85 1.85h4.8a1.85 1.85 0 0 0 1.85-1.85v-4.8A1.85 1.85 0 0 0 25.65 19zm-9.7-16C13 3 14.5 4.5 14.5 6.35v4.8c0 1.85-1.5 3.35-3.35 3.35h-4.8A3.35 3.35 0 0 1 3 11.15v-4.8C3 4.5 4.5 3 6.35 3zm14.5 0C27.5 3 29 4.5 29 6.35v4.8c0 1.85-1.5 3.35-3.35 3.35h-4.8a3.35 3.35 0 0 1-3.35-3.35v-4.8C17.5 4.5 19 3 20.85 3zM6.35 4.5A1.85 1.85 0 0 0 4.5 6.35v4.8A1.85 1.85 0 0 0 6.35 13h4.8A1.85 1.85 0 0 0 13 11.15v-4.8a1.85 1.85 0 0 0-1.85-1.85zm14.5 0A1.85 1.85 0 0 0 19 6.35v4.8A1.85 1.85 0 0 0 20.85 13h4.8a1.85 1.85 0 0 0 1.85-1.85v-4.8a1.85 1.85 0 0 0-1.85-1.85z"/></svg>