<svg xmlns="http://www.w3.org/2000/svg" width="16" height="16" fill="none" data-fui-icon="true" viewBox="0 0 16 16"><path fill="currentColor" d="M8 0a6 6 0 0 1 3.727 10.702c-.233.186-.348.404-.362.593l-.089 1.231a2.12 2.12 0 0 1-1.078 1.7 2.25 2.25 0 0 1-4.397 0 2.12 2.12 0 0 1-1.077-1.7l-.09-1.231c-.013-.19-.128-.407-.362-.593A6 6 0 0 1 8 0m0 1.5a4.5 4.5 0 0 0-2.795 8.027c.473.376.876.95.927 1.66l.088 1.233c.023.327.295.58.623.58h.008L5.638 6.385a.75.75 0 0 1 .958-.852l.488.15.523-.322a.75.75 0 0 1 .787 0l.522.323.488-.15a.75.75 0 0 1 .958.85L9.15 13h.008c.328 0 .6-.253.623-.58l.088-1.232c.051-.711.454-1.285.927-1.66A4.5 4.5 0 0 0 8 1.5m-.419 5.639a.8.8 0 0 1-.263.1L8 10.953l.682-3.716a.8.8 0 0 1-.262-.1L8 6.882z"/></svg>