<svg xmlns="http://www.w3.org/2000/svg" width="24" height="24" fill="none" data-fui-icon="true" viewBox="0 0 24 24"><path fill="currentColor" d="M18.25 3A2.75 2.75 0 0 1 21 5.75v5.5a.75.75 0 0 1-1.5 0v-5.5c0-.69-.56-1.25-1.25-1.25H5.75c-.69 0-1.25.56-1.25 1.25v12.5c0 .69.56 1.25 1.25 1.25h6.5a.75.75 0 0 1 0 1.5h-6.5A2.75 2.75 0 0 1 3 18.25V5.75A2.75 2.75 0 0 1 5.75 3zm0 10.5a.75.75 0 0 1 .75.75v2.25h2.25a.75.75 0 0 1 0 1.5H19v2.25a.75.75 0 0 1-1.5 0V18h-2.25a.75.75 0 0 1 0-1.5h2.25v-2.25a.75.75 0 0 1 .75-.75"/></svg>