<svg xmlns="http://www.w3.org/2000/svg" width="12" height="12" fill="none" data-fui-icon="true" viewBox="0 0 12 12"><g clip-path="url(#a)"><path fill="currentColor" d="M5.25 9.75c0 .296.103.464.217.565A.8.8 0 0 0 6 10.5a.8.8 0 0 0 .533-.185c.113-.101.217-.269.217-.565zM6 1.5c-.64 0-1.099.153-1.436.368-.34.217-.6.524-.798.889-.405.749-.51 1.67-.525 2.262a2.45 2.45 0 0 1-.488 1.435l-.279.362A.89.89 0 0 0 3.18 8.25h5.635a.905.905 0 0 0 .725-1.448l-.3-.4a2.5 2.5 0 0 1-.48-1.445c-.017-.587-.125-1.49-.529-2.224C7.857 2.056 7.226 1.5 6 1.5m2.25 8.25c0 .704-.272 1.286-.721 1.685a2.3 2.3 0 0 1-1.53.565 2.3 2.3 0 0 1-1.529-.565c-.449-.399-.72-.982-.72-1.685h-.57A2.39 2.39 0 0 1 1.285 5.9l.28-.362a.95.95 0 0 0 .175-.56c.018-.673.133-1.876.706-2.935A3.85 3.85 0 0 1 3.759.603C4.362.22 5.105 0 5.999 0c1.833 0 2.939.908 3.546 2.009.576 1.045.693 2.234.713 2.905.007.244.075.446.181.588l.299.4A2.406 2.406 0 0 1 8.814 9.75z"/></g><defs><clipPath id="a"><path fill="currentColor" d="M0 0h12v12H0z"/></clipPath></defs></svg>