<svg xmlns="http://www.w3.org/2000/svg" width="16" height="16" fill="none" data-fui-icon="true" viewBox="0 0 16 16"><path fill="currentColor" d="M2.875 1A2.5 2.5 0 0 1 5.26 2.75h.523a2.67 2.67 0 0 1 2.414 1.53l1.402 2.97h3.281l-1.05-1.109a.751.751 0 0 1 1.09-1.031l2.25 2.375a.75.75 0 0 1 0 1.031l-2.25 2.375a.751.751 0 0 1-1.09-1.031l1.05-1.11H9.6l-1.403 2.97a2.67 2.67 0 0 1-2.414 1.53h-.524a2.501 2.501 0 0 1-4.884-.75 2.5 2.5 0 0 1 4.885-.75h.523c.452 0 .865-.26 1.058-.67L8.296 8 6.84 4.92a1.17 1.17 0 0 0-1.058-.67h-.524A2.501 2.501 0 0 1 .375 3.5a2.5 2.5 0 0 1 2.5-2.5m0 10.5a1 1 0 1 0 0 2.001 1 1 0 0 0 0-2m0-9a1 1 0 1 0 0 2.001 1 1 0 0 0 0-2"/></svg>