<svg xmlns="http://www.w3.org/2000/svg" width="32" height="32" fill="none" data-fui-icon="true" viewBox="0 0 32 32"><path fill="currentColor" d="M21 1.75A7.25 7.25 0 0 1 28.25 9v14A7.25 7.25 0 0 1 21 30.25H11A7.25 7.25 0 0 1 3.75 23V9A7.25 7.25 0 0 1 11 1.75zm-10 1.5A5.75 5.75 0 0 0 5.25 9v14A5.75 5.75 0 0 0 11 28.75h10A5.75 5.75 0 0 0 26.75 23V9A5.75 5.75 0 0 0 21 3.25zM16 13a6 6 0 1 1 0 12 6 6 0 0 1 0-12m0 1.5a4.5 4.5 0 1 0 0 9 4.5 4.5 0 0 0 0-9M16 7a1.5 1.5 0 1 1 0 3 1.5 1.5 0 0 1 0-3"/></svg>