<svg xmlns="http://www.w3.org/2000/svg" width="24" height="24" fill="none" data-fui-icon="true" viewBox="0 0 24 24"><path fill="currentColor" d="M12.75 3a.75.75 0 0 1 0 1.5h-8c-.69 0-1.25.56-1.25 1.25v10.5c0 .69.56 1.25 1.25 1.25h3.901c.411 0 .81.145 1.125.41l2.065 1.73a.25.25 0 0 0 .32.001l2.099-1.738a1.75 1.75 0 0 1 1.116-.403h3.874c.69 0 1.25-.56 1.25-1.25V10.5a.75.75 0 1 1 1.5 0v5.75A2.75 2.75 0 0 1 19.25 19h-3.874a.25.25 0 0 0-.16.058l-2.098 1.738a1.75 1.75 0 0 1-2.24-.007l-2.065-1.73A.25.25 0 0 0 8.65 19H4.75A2.75 2.75 0 0 1 2 16.25V5.75A2.75 2.75 0 0 1 4.75 3zM7.5 10.125a.875.875 0 1 1 0 1.75.875.875 0 0 1 0-1.75m4.5 0a.875.875 0 1 1 0 1.75.875.875 0 0 1 0-1.75m4.5 0a.875.875 0 1 1 0 1.75.875.875 0 0 1 0-1.75m2.334-9.24a2.75 2.75 0 1 1 3.889 3.888l-4.1 4.1a2.75 2.75 0 0 1-1.642.788l-1.49.166a1.55 1.55 0 0 1-1.712-1.711l.165-1.49c.07-.621.348-1.2.79-1.641zm-3.04 5.16c-.2.2-.327.464-.359.745l-.165 1.492a.05.05 0 0 0 .055.055l1.491-.166a1.25 1.25 0 0 0 .745-.358l2.51-2.51-1.768-1.767zm5.868-4.1a1.25 1.25 0 0 0-1.767 0l-.53.53 1.767 1.768.53-.53a1.25 1.25 0 0 0 0-1.768"/></svg>