<svg xmlns="http://www.w3.org/2000/svg" width="24" height="24" fill="none" data-fui-icon="true" viewBox="0 0 24 24"><path fill="currentColor" d="M8 17a2 2 0 1 1 0 4 2 2 0 0 1 0-4m9 0a2 2 0 1 1 0 4 2 2 0 0 1 0-4m-9 1.5a.5.5 0 1 0 0 1 .5.5 0 0 0 0-1m9 0a.5.5 0 1 0 0 1 .5.5 0 0 0 0-1M2.27 2a2.25 2.25 0 0 1 2.207 1.809l1.937 9.686.026.107c.155.528.641.898 1.2.898h10.195c.603 0 1.12-.43 1.23-1.023l1.448-7.863a.75.75 0 1 1 1.474.272l-1.448 7.862A2.75 2.75 0 0 1 17.835 16H7.64a2.75 2.75 0 0 1-2.697-2.21L3.006 4.102A.75.75 0 0 0 2.27 3.5H1.75a.75.75 0 0 1 0-1.5zm12.248 2.172a.75.75 0 1 1 1.06 1.06L13.811 7l1.767 1.768a.75.75 0 1 1-1.06 1.06L12.75 8.061l-1.768 1.767a.75.75 0 1 1-1.06-1.06L11.69 7 9.922 5.232a.75.75 0 1 1 1.06-1.06l1.768 1.767z"/></svg>