<svg xmlns="http://www.w3.org/2000/svg" width="12" height="12" fill="none" data-fui-icon="true" viewBox="0 0 12 12"><g clip-path="url(#a)"><path fill="currentColor" fill-rule="evenodd" d="M0 6.066a6 6 0 1 1 12 0 6 6 0 0 1-12 0m8.372-2.438a.75.75 0 0 1 0 1.06L7.061 6l1.311 1.312a.75.75 0 1 1-1.06 1.06L6 7.061 4.688 8.372a.75.75 0 1 1-1.06-1.06L4.938 6 3.628 4.688a.75.75 0 0 1 1.06-1.06L6 4.939l1.312-1.311a.75.75 0 0 1 1.06 0" clip-rule="evenodd"/></g><defs><clipPath id="a"><path fill="currentColor" d="M0 0h12v12H0z"/></clipPath></defs></svg>