<svg xmlns="http://www.w3.org/2000/svg" width="12" height="13" fill="none" data-fui-icon="true" viewBox="0 0 12 13"><path fill="currentColor" d="M2.765 7.801a.75.75 0 0 1 .948.479c.067.204.223.538.55.819.155.132.361.262.638.361.179.064.355-.08.355-.27v-.64a.3.3 0 0 1 .3-.3h.9a.3.3 0 0 1 .3.3v.642c0 .19.176.334.356.27.626-.221.943-.618 1.068-.943.057-.146.186-.27.343-.27h.915c.168 0 .305.139.28.305-.17 1.123-1.147 2.185-2.75 2.492a.26.26 0 0 0-.212.249.75.75 0 0 1-1.5 0 .25.25 0 0 0-.209-.246c-.745-.14-1.323-.437-1.76-.81a3.36 3.36 0 0 1-1-1.492.75.75 0 0 1 .478-.946M6.006 0a.75.75 0 0 1 .75.75c0 .119.089.22.206.24 1.81.322 2.599 1.536 2.769 2.33a.751.751 0 0 1-1.467.313c-.04-.184-.293-.775-1.155-1.062-.179-.06-.353.083-.353.272V4.95a.3.3 0 0 0 .3.3h4.194a.75.75 0 0 1 0 1.5H.75a.75.75 0 1 1 0-1.5H2.63c.009 0 .013-.01.008-.017-.25-.397-.372-.865-.372-1.392 0-1.246 1.012-2.506 2.782-2.844a.254.254 0 0 0 .21-.247.75.75 0 0 1 .75-.75m-.75 2.852c0-.19-.176-.334-.355-.27-.857.303-1.136.934-1.136 1.259 0 .29.065.47.142.593.08.126.205.242.403.35.167.092.36.164.581.228a.29.29 0 0 0 .365-.284z"/></svg>