<svg xmlns="http://www.w3.org/2000/svg" width="16" height="16" fill="none" data-fui-icon="true" viewBox="0 0 16 16"><g clip-path="url(#a)"><path fill="currentColor" d="M6.5 13c0 .901.646 1.5 1.5 1.5s1.5-.599 1.5-1.5zM8 1.5c-1.744 0-2.733.874-3.342 1.978-.632 1.148-.83 2.527-.887 3.357-.04.587-.233 1.193-.635 1.696l-.324.404A1.58 1.58 0 0 0 4.047 11.5h7.908a1.58 1.58 0 0 0 1.233-2.565l-.323-.403c-.402-.503-.594-1.11-.635-1.697-.056-.83-.255-2.209-.887-3.357C10.733 2.374 9.744 1.5 8 1.5M11 13c0 1.766-1.354 3-3 3s-3-1.234-3-3h-.954a3.08 3.08 0 0 1-2.404-5.003l.323-.403c.178-.223.285-.521.308-.861.063-.908.282-2.546 1.072-3.98C4.159 1.275 5.599 0 8 0c2.4 0 3.84 1.275 4.655 2.753.79 1.434 1.008 3.072 1.07 3.98.024.34.132.638.31.861l.323.403A3.08 3.08 0 0 1 11.954 13z"/></g><defs><clipPath id="a"><path fill="currentColor" d="M0 0h16v16H0z"/></clipPath></defs></svg>