<svg xmlns="http://www.w3.org/2000/svg" width="16" height="16" fill="none" data-fui-icon="true" viewBox="0 0 16 16"><path fill="currentColor" d="M10.065 2.413c1.045.178 2.063.492 3.026.936 1.66 2.44 2.484 5.192 2.18 8.367a12.1 12.1 0 0 1-3.713 1.87 9 9 0 0 1-.795-1.286 8 8 0 0 0 1.254-.602 4 4 0 0 1-.307-.232 8.68 8.68 0 0 1-7.42 0c-.099.076-.201.156-.306.232q.599.356 1.25.6a9 9 0 0 1-.794 1.289 12.2 12.2 0 0 1-3.711-1.872c-.26-2.738.26-5.516 2.175-8.364a12.2 12.2 0 0 1 3.028-.938q.214.386.388.792a11.2 11.2 0 0 1 3.357 0q.173-.406.388-.792M5.56 7.081c-.742 0-1.318.666-1.319 1.478s.598 1.471 1.322 1.471c.737 0 1.306-.66 1.32-1.471.012-.812-.582-1.478-1.323-1.478m4.876 0c-.743 0-1.32.666-1.32 1.478s.595 1.471 1.32 1.471c.737 0 1.306-.66 1.318-1.471.013-.812-.576-1.478-1.318-1.478"/></svg>