<svg xmlns="http://www.w3.org/2000/svg" width="24" height="24" fill="none" data-fui-icon="true" viewBox="0 0 24 24"><path fill="currentColor" d="M10.395 3.724c1.068-.926 2.73-.167 2.73 1.247v14.058c0 1.414-1.662 2.173-2.73 1.248l-3.29-2.852a2.25 2.25 0 0 0-1.474-.55H4.125a2.25 2.25 0 0 1-2.25-2.25v-5.25a2.25 2.25 0 0 1 2.25-2.25h1.506a2.25 2.25 0 0 0 1.473-.55zm1.23 1.247a.15.15 0 0 0-.248-.113l-3.29 2.851a3.75 3.75 0 0 1-2.456.916H4.125a.75.75 0 0 0-.75.75v5.25c0 .414.336.75.75.75h1.506a3.75 3.75 0 0 1 2.456.916l3.29 2.852a.15.15 0 0 0 .248-.114zm4.316 3.53A.75.75 0 0 1 17 8.44l-.408.457.409-.456.001.002q0 0 .003.002l.007.006.018.017.054.054q.066.066.166.183c.131.157.3.383.467.679.334.596.658 1.472.658 2.615s-.324 2.02-.658 2.616a4.4 4.4 0 0 1-.467.678 3 3 0 0 1-.22.237l-.018.017-.007.007-.003.002h-.001v.002L16.5 15l.5.559a.75.75 0 0 1-1.001-1.117l.014-.014q.029-.029.089-.099c.079-.094.192-.245.306-.449.228-.406.467-1.03.467-1.88s-.239-1.474-.467-1.88a3 3 0 0 0-.306-.449q-.06-.07-.09-.098l-.014-.015h.001l-.054-.053a.75.75 0 0 1-.004-1.005"/></svg>