<svg xmlns="http://www.w3.org/2000/svg" width="12" height="12" fill="none" data-fui-icon="true" viewBox="0 0 12 12"><path fill="currentColor" d="M3.348 1.757a1.75 1.75 0 0 1 2.476 0l.304.306q.132-.21.314-.394a1.25 1.25 0 0 1 1.767 0l1.592 1.59a4.626 4.626 0 0 1-6.54 6.542L.873 7.414a1.75 1.75 0 0 1 .314-2.722 1.75 1.75 0 0 1 1.787-2.378c.085-.202.209-.393.373-.557m1.414 1.061a.25.25 0 1 0-.353.354l1.061 1.06A.75.75 0 0 1 4.41 5.294L2.995 3.88a.25.25 0 1 0-.354.354L4.41 6a.75.75 0 1 1-1.06 1.06L2.287 6a.25.25 0 0 0-.354.354L4.321 8.74A3.125 3.125 0 0 0 8.74 4.32L7.357 2.938a.75.75 0 0 0 .145.852c.406.406.57.995.43 1.55l-.05.202a.58.58 0 0 0 .15.546.751.751 0 0 1-1.06 1.062 2.08 2.08 0 0 1-.546-1.971l.051-.201a.13.13 0 0 0-.035-.127 2.24 2.24 0 0 1-.55-.904z"/></svg>