<svg xmlns="http://www.w3.org/2000/svg" width="12" height="12" fill="none" data-fui-icon="true" viewBox="0 0 12 12"><path fill="currentColor" d="M9.84 0A2.16 2.16 0 0 1 12 2.16v7.68A2.16 2.16 0 0 1 9.84 12H2.16A2.16 2.16 0 0 1 0 9.84V2.16A2.16 2.16 0 0 1 2.16 0zM2.16 1.5a.66.66 0 0 0-.66.66v7.68c0 .364.296.66.66.66h7.68a.66.66 0 0 0 .66-.66V2.16a.66.66 0 0 0-.66-.66zm1.09 5a.75.75 0 1 1 0 1.5.75.75 0 0 1 0-1.5m5 0a.75.75 0 0 1 0 1.5h-2.5a.75.75 0 0 1 0-1.5zm-5-3a.75.75 0 1 1 0 1.5.75.75 0 0 1 0-1.5m5 0a.75.75 0 0 1 0 1.5h-2.5a.75.75 0 0 1 0-1.5z"/></svg>