<svg xmlns="http://www.w3.org/2000/svg" width="20" height="20" fill="none" data-fui-icon="true" viewBox="0 0 20 20"><path fill="currentColor" d="M10 1c1.271 0 2.262 0 3.06.054.806.055 1.47.168 2.082.422a6.25 6.25 0 0 1 3.382 3.382c.254.612.367 1.276.422 2.081.055.799.054 1.79.054 3.06 0 1.272 0 2.263-.054 3.061-.055.806-.168 1.47-.422 2.082a6.25 6.25 0 0 1-3.382 3.382c-.612.254-1.276.367-2.081.422-.799.055-1.79.054-3.061.054s-2.262 0-3.06-.054c-.806-.055-1.47-.168-2.082-.422a6.25 6.25 0 0 1-3.382-3.383c-.254-.611-.367-1.275-.422-2.08C.999 12.262 1 11.27 1 10s0-2.262.054-3.06c.055-.806.168-1.47.422-2.082a6.25 6.25 0 0 1 3.382-3.382c.612-.254 1.276-.367 2.081-.422C7.738.999 8.73 1 10 1m0 4.25a.75.75 0 0 0-.75.75v3.25H6a.75.75 0 0 0 0 1.5h3.25V14a.75.75 0 1 0 1.5 0v-3.25H14a.75.75 0 0 0 0-1.5h-3.25V6a.75.75 0 0 0-.75-.75"/></svg>