<svg xmlns="http://www.w3.org/2000/svg" width="20" height="20" fill="none" data-fui-icon="true" viewBox="0 0 20 20"><g clip-path="url(#a)"><path fill="currentColor" d="M5.5 9c.44 0 .835.248 1.03.63l.072.172.878 2.717 2.718.88a1.158 1.158 0 0 1 0 2.203l-2.718.878-.878 2.718a1.158 1.158 0 0 1-2.204 0l-.88-2.718-2.716-.878a1.158 1.158 0 0 1 0-2.204l2.717-.88.88-2.716.07-.172C4.666 9.248 5.062 9 5.5 9m-.573 4.041c-.136.42-.466.75-.886.886l-1.772.573 1.772.573c.367.12.665.386.825.733l.06.153.574 1.771.573-1.771.06-.153c.16-.346.459-.614.826-.733L8.73 14.5l-1.771-.573a1.38 1.38 0 0 1-.886-.886L5.5 11.269zM13.239.005c.528.042.989.377 1.193.865l.04.108 1.039 3.19a.5.5 0 0 0 .32.321l3.192 1.04a1.416 1.416 0 0 1 0 2.693L15.83 9.26a.5.5 0 0 0-.32.32l-1.04 3.192a1.416 1.416 0 0 1-2.693 0L10.74 9.58a.5.5 0 0 0-.32-.32L7.228 8.22a1.416 1.416 0 0 1 0-2.693l3.19-1.039a.5.5 0 0 0 .321-.32L11.78.978c.19-.583.733-.978 1.346-.978zm-1.073 4.628a2 2 0 0 1-1.283 1.283l-2.945.959 2.945.959a2 2 0 0 1 1.283 1.283l.959 2.944.959-2.944a2 2 0 0 1 1.283-1.283l2.944-.959-2.944-.959a2 2 0 0 1-1.283-1.283l-.959-2.945z"/></g><defs><clipPath id="a"><path fill="currentColor" d="M0 0h20v20H0z"/></clipPath></defs></svg>