<svg xmlns="http://www.w3.org/2000/svg" width="24" height="24" fill="none" data-fui-icon="true" viewBox="0 0 24 24"><path fill="currentColor" d="M20 1a3 3 0 0 1 3 3v15.5a3 3 0 0 1-3 3H4a3 3 0 0 1-3-3V4a3 3 0 0 1 3-3zM4 2.5A1.5 1.5 0 0 0 2.5 4v15.5A1.5 1.5 0 0 0 4 21h16a1.5 1.5 0 0 0 1.5-1.5V4A1.5 1.5 0 0 0 20 2.5zM12 5a6.75 6.75 0 1 1 0 13.5A6.75 6.75 0 0 1 12 5m-1.483 7.5c.108 2.406.731 4.25 1.483 4.25s1.375-1.844 1.483-4.25zm-3.714 0a5.26 5.26 0 0 0 2.993 4.016 7 7 0 0 1-.293-.8c-.269-.895-.438-2.013-.487-3.216zm8.181 0c-.05 1.203-.218 2.32-.487 3.217a7 7 0 0 1-.293.799 5.26 5.26 0 0 0 2.993-4.016zM9.796 6.984A5.26 5.26 0 0 0 6.803 11h2.213c.05-1.203.218-2.32.487-3.217.08-.269.177-.54.293-.799M12 6.75c-.752 0-1.375 1.844-1.483 4.25h2.966c-.108-2.406-.731-4.25-1.483-4.25m2.204.234c.116.26.212.53.293.8.269.895.438 2.013.487 3.216h2.213a5.26 5.26 0 0 0-2.993-4.016"/></svg>