<svg xmlns="http://www.w3.org/2000/svg" width="12" height="12" fill="none" data-fui-icon="true" viewBox="0 0 12 12"><path fill="currentColor" d="M7 10.5A.75.75 0 0 1 7 12H5a.75.75 0 0 1 0-1.5zM2.25 9a.75.75 0 1 1 0 1.5.75.75 0 0 1 0-1.5m7.5 0a.75.75 0 1 1 0 1.5.75.75 0 0 1 0-1.5M6 2.25c1.204 0 2.161.459 2.81 1.19.637.716.94 1.65.94 2.56 0 1.415-.967 2.166-1.518 2.48a1.484 1.484 0 0 1-1.467 1.27h-1.53a1.485 1.485 0 0 1-1.468-1.27C3.217 8.166 2.25 7.414 2.25 6c0-.91.303-1.844.94-2.56.649-.731 1.606-1.19 2.81-1.19m0 1.5c-.796 0-1.339.291-1.69.686-.362.408-.56.974-.56 1.564 0 .678.494 1.047.846 1.225.347.175.647.546.653 1.025h1.502c.006-.479.306-.85.653-1.025.352-.178.846-.547.846-1.225 0-.59-.198-1.156-.56-1.564C7.338 4.04 6.795 3.75 6 3.75M.75 5.25a.75.75 0 1 1 0 1.5.75.75 0 0 1 0-1.5m10.5 0a.75.75 0 1 1 0 1.5.75.75 0 0 1 0-1.5m-9-3.75a.75.75 0 1 1 0 1.5.75.75 0 0 1 0-1.5m7.5 0a.75.75 0 1 1 0 1.5.75.75 0 0 1 0-1.5M6 0a.75.75 0 1 1 0 1.5A.75.75 0 0 1 6 0"/></svg>