<svg xmlns="http://www.w3.org/2000/svg" width="32" height="32" fill="none" data-fui-icon="true" viewBox="0 0 32 32"><path fill="currentColor" d="M16 1.917c7.778 0 14.084 6.305 14.084 14.083S23.778 30.084 16 30.084 1.917 23.778 1.917 16 8.222 1.917 16 1.917m0 1.5C9.05 3.417 3.417 9.051 3.417 16c0 6.95 5.634 12.584 12.583 12.584 6.95 0 12.584-5.635 12.584-12.584 0-6.95-5.635-12.583-12.584-12.583m4.322 6.003c1.41-.535 2.792.846 2.257 2.257l-2.4 6.327a3.75 3.75 0 0 1-2.175 2.176l-6.327 2.4c-1.41.534-2.792-.847-2.257-2.258l2.4-6.326a3.75 3.75 0 0 1 2.176-2.177zm.533 1.402-6.327 2.4a2.25 2.25 0 0 0-1.306 1.306l-2.4 6.327a.25.25 0 0 0 .323.322l6.327-2.4a2.25 2.25 0 0 0 1.305-1.305l2.4-6.328a.25.25 0 0 0-.322-.322"/></svg>