<svg xmlns="http://www.w3.org/2000/svg" width="12" height="12" fill="none" data-fui-icon="true" viewBox="0 0 12 12"><g clip-path="url(#a)"><path fill="currentColor" d="M9.092.129c.593-.04 1.345.064 1.954.594l.119.111c.627.627.748 1.441.706 2.074-.042.637-.253 1.288-.53 1.89-.18.392-.405.794-.665 1.202.26.408.485.81.665 1.201.277.603.487 1.253.53 1.89.041.633-.078 1.447-.705 2.074-.627.628-1.442.747-2.075.705-.637-.042-1.287-.252-1.89-.53-.39-.179-.793-.404-1.201-.664-.408.26-.81.485-1.201.665-.603.277-1.253.487-1.89.53-.633.041-1.448-.079-2.075-.706S.088 9.724.13 9.091c.042-.637.252-1.287.53-1.89.179-.39.403-.793.663-1.201-.26-.408-.484-.81-.664-1.201-.277-.603-.488-1.254-.53-1.89C.087 2.274.208 1.46.835.833l.12-.111C1.562.193 2.314.09 2.907.129c.637.042 1.288.253 1.89.53.392.18.794.405 1.202.664.408-.26.81-.484 1.201-.664.603-.277 1.254-.488 1.89-.53M2.282 7.32c-.687 1.243-.875 2.296-.387 2.784l.084.074c.518.393 1.526.19 2.702-.46a17 17 0 0 1-1.262-1.137c-.41-.41-.79-.834-1.138-1.26m7.436 0c-.348.427-.727.851-1.137 1.261s-.836.79-1.263 1.138c1.177.65 2.185.852 2.704.459l.083-.074c.488-.488.3-1.541-.387-2.784M6 3.151c-.504.383-1.019.828-1.52 1.328A15 15 0 0 0 3.15 6c.383.505.829 1.019 1.33 1.52.5.5 1.015.945 1.52 1.328A15 15 0 0 0 8.849 6a15 15 0 0 0-1.33-1.52C7.02 3.978 6.505 3.533 6 3.15M6 5a1 1 0 1 1 0 2 1 1 0 0 1 0-2M4.679 2.281c-1.242-.686-2.296-.874-2.783-.386-.488.487-.3 1.541.386 2.784A16.8 16.8 0 0 1 4.68 2.28m5.426-.386c-.489-.488-1.542-.3-2.785.386.427.348.851.728 1.261 1.138s.788.834 1.136 1.26c.686-1.243.875-2.297.387-2.784"/></g><defs><clipPath id="a"><path fill="currentColor" d="M0 0h12v12H0z"/></clipPath></defs></svg>