<svg xmlns="http://www.w3.org/2000/svg" width="32" height="32" fill="none" data-fui-icon="true" viewBox="0 0 32 32"><path fill="currentColor" d="M6 7a1 1 0 1 1-2 0 1 1 0 0 1 2 0m3 0a1 1 0 1 1-2 0 1 1 0 0 1 2 0m2 1a1 1 0 1 0 0-2 1 1 0 0 0 0 2"/><path fill="currentColor" fill-rule="evenodd" d="M.5 6A3.5 3.5 0 0 1 4 2.5h24A3.5 3.5 0 0 1 31.5 6v20a3.5 3.5 0 0 1-3.5 3.5H4A3.5 3.5 0 0 1 .5 26zM4 4a2 2 0 0 0-2 2v4h28V6a2 2 0 0 0-2-2zm24 24a2 2 0 0 0 2-2V11.5H2V26a2 2 0 0 0 2 2z" clip-rule="evenodd"/></svg>