<svg xmlns="http://www.w3.org/2000/svg" width="24" height="24" fill="none" data-fui-icon="true" viewBox="0 0 24 24"><path fill="currentColor" d="M12.204.507c1.005.07 1.8.644 2.366 1.29.607.693 1.085 1.61 1.456 2.611q.07.188.135.384.204-.04.401-.074c1.053-.18 2.086-.223 2.988-.044.843.167 1.739.567 2.301 1.403l.108.173c.55.954.457 2.007.162 2.875-.297.871-.851 1.743-1.533 2.565a13 13 0 0 1-.265.31q.137.155.265.31c.682.822 1.235 1.694 1.532 2.566.295.868.39 1.92-.16 2.874-.551.954-1.51 1.399-2.41 1.577-.902.179-1.934.135-2.988-.045a14 14 0 0 1-.401-.074q-.065.196-.135.384c-.371 1.002-.85 1.918-1.456 2.61-.604.69-1.468 1.298-2.57 1.298s-1.966-.608-2.57-1.298c-.606-.692-1.085-1.608-1.456-2.61a14 14 0 0 1-.136-.384q-.202.04-.4.074c-1.053.18-2.085.224-2.988.045-.9-.178-1.858-.623-2.41-1.577-.55-.954-.455-2.006-.16-2.874.296-.871.85-1.744 1.533-2.566q.127-.155.264-.31-.137-.155-.264-.31c-.682-.822-1.237-1.694-1.533-2.565-.296-.868-.39-1.92.16-2.875l.108-.173c.563-.836 1.459-1.236 2.302-1.403.903-.179 1.935-.136 2.988.044q.198.033.4.074.066-.195.136-.384c.371-1.002.85-1.918 1.456-2.61C10.034 1.108 10.9.5 12 .5zM12 17.833c-.926.411-1.834.748-2.701 1.006.635 1.829 1.521 3.013 2.51 3.148l.192.013c1.065 0 2.023-1.216 2.699-3.161a23 23 0 0 1-2.7-1.006M4.726 13.08C3.38 14.638 2.807 16.077 3.34 17l.106.16c.612.788 2.08.963 3.98.599a23 23 0 0 1-.478-2.843 23 23 0 0 1-2.222-1.836m14.547 0a23 23 0 0 1-2.221 1.836 23 23 0 0 1-.479 2.843c1.9.364 3.368.189 3.98-.6l.108-.159c.532-.923-.04-2.362-1.388-3.92M8.611 16.034q.116.715.272 1.365.64-.191 1.317-.448a29 29 0 0 1-1.589-.917m6.777 0q-.386.241-.786.473-.401.23-.802.444.676.256 1.316.448.155-.65.272-1.366M12 7.816A27 27 0 0 0 8.378 9.91a26.7 26.7 0 0 0 0 4.182A26.6 26.6 0 0 0 12 16.18a26.598 26.598 0 0 0 3.622-2.09 26.7 26.7 0 0 0 0-4.183A26.7 26.7 0 0 0 12 7.818m0 2.702a1.481 1.481 0 1 1 0 2.962 1.481 1.481 0 0 1 0-2.962m-5.189.563q-.559.458-1.045.918.486.46 1.045.917a29 29 0 0 1 0-1.835m10.376 0q.016.455.017.918-.001.462-.017.917A20 20 0 0 0 18.233 12a20 20 0 0 0-1.046-.918M7.427 6.24C5.405 5.853 3.873 6.078 3.34 7c-.533.923.04 2.361 1.386 3.919a23 23 0 0 1 2.222-1.836c.107-1.007.268-1.963.479-2.843M20.66 7c-.533-.923-2.065-1.147-4.087-.76.21.88.372 1.836.479 2.843a23 23 0 0 1 2.221 1.836C20.62 9.36 21.193 7.923 20.66 7M8.884 6.6q-.156.651-.273 1.366a29 29 0 0 1 1.589-.918q-.676-.256-1.316-.447m6.232 0q-.641.192-1.317.448.401.213.803.445.4.232.786.473-.116-.715-.272-1.365M12.001 2C10.935 2 9.975 3.215 9.3 5.16c.866.258 1.774.596 2.7 1.007a23 23 0 0 1 2.7-1.007C14.024 3.216 13.066 2 12 2"/></svg>