<svg xmlns="http://www.w3.org/2000/svg" width="24" height="25" fill="none" data-fui-icon="true" viewBox="0 0 24 25"><path fill="currentColor" d="M10.923.483a2.25 2.25 0 0 1 2.154 0l9.5 5.182A2.25 2.25 0 0 1 23.75 7.64v1.11c0 .69-.56 1.25-1.25 1.25h-.75v9.436a2.439 2.439 0 0 1-.937 4.689H3.188a2.438 2.438 0 0 1-.938-4.689V10H1.5C.81 10 .25 9.44.25 8.75V7.64c0-.823.45-1.581 1.173-1.975zM3.188 20.75a.938.938 0 0 0 0 1.875h17.625a.938.938 0 0 0 0-1.875zM3.75 10v9.25H6.5V10zM8 10v9.25h8V10zm9.5 0v9.25h2.75V10zm-5.14-8.2a.75.75 0 0 0-.72 0l-9.5 5.182a.75.75 0 0 0-.39.658v.86h20.5v-.86a.75.75 0 0 0-.39-.658z"/></svg>