<svg xmlns="http://www.w3.org/2000/svg" width="20" height="20" fill="none" data-fui-icon="true" viewBox="0 0 20 20"><g clip-path="url(#a)"><path fill="currentColor" d="M17.875 8.633h-.035c-1.617 0-3.094-.492-4.29-1.371v6.293c0 3.164-2.566 5.695-5.73 5.695a5.67 5.67 0 0 1-5.695-5.695c0-3.164 2.531-5.73 5.695-5.73.282 0 .528.034.809.07v3.164a2.2 2.2 0 0 0-.809-.141 2.656 2.656 0 0 0-2.636 2.637A2.656 2.656 0 0 0 7.82 16.19a2.656 2.656 0 0 0 2.637-2.636V1.25h3.094v.07c0 .246 0 .492.07.739.211 1.16.914 2.18 1.899 2.812a4.1 4.1 0 0 0 2.32.703h.035z"/></g><defs><clipPath id="a"><path fill="currentColor" d="M0 0h20v20H0z"/></clipPath></defs></svg>