<svg xmlns="http://www.w3.org/2000/svg" width="20" height="20" fill="none" data-fui-icon="true" viewBox="0 0 20 20"><path fill="currentColor" fill-rule="evenodd" d="M18.945.884a2.75 2.75 0 0 0-3.89 0l-1.414 1.414-4.686 4.686a2.75 2.75 0 0 0-.788 1.64L8 10.117a1.55 1.55 0 0 0 1.712 1.711l1.49-.165a2.75 2.75 0 0 0 1.641-.789l4.686-4.686 1.415-1.414a2.75 2.75 0 0 0 0-3.89m-2.829 1.06a1.25 1.25 0 0 1 1.768 1.768L17 4.596l-1.768-1.768zM14.172 3.89l1.767 1.768-4.155 4.155c-.2.201-.464.328-.746.359l-1.49.165a.05.05 0 0 1-.056-.055l.166-1.49a1.25 1.25 0 0 1 .358-.746zM1.55 6.999A4.25 4.25 0 0 1 5.8 2.75h3a.75.75 0 1 0 0-1.5h-3A5.75 5.75 0 0 0 .05 7v6a5.75 5.75 0 0 0 5.75 5.75h6A5.75 5.75 0 0 0 17.55 13v-1a.75.75 0 0 0-1.5 0v1a4.25 4.25 0 0 1-4.25 4.25h-6A4.25 4.25 0 0 1 1.55 13z" clip-rule="evenodd"/></svg>