<svg xmlns="http://www.w3.org/2000/svg" width="24" height="24" fill="none" data-fui-icon="true" viewBox="0 0 24 24"><path fill="currentColor" d="M22.25 16a.75.75 0 0 1 .75.75v1c0 2.9-2.35 5.25-5.25 5.25H6.25A5.25 5.25 0 0 1 1 17.75v-1a.75.75 0 1 1 1.5 0v1a3.75 3.75 0 0 0 3.75 3.75h11.5a3.75 3.75 0 0 0 3.75-3.75v-1a.75.75 0 0 1 .75-.75M14.72 1.97a.75.75 0 0 1 1.06 0l3.25 3.25a.75.75 0 0 1 0 1.06l-3.25 3.25a.75.75 0 0 1-1.06-1.06l1.97-1.97h-2.94a3.25 3.25 0 0 0-3.25 3.25v6.5a.75.75 0 0 1-1.5 0v-6.5A4.75 4.75 0 0 1 13.75 5h2.94l-1.97-1.97a.75.75 0 0 1 0-1.06"/></svg>