<svg xmlns="http://www.w3.org/2000/svg" width="12" height="12" fill="none" data-fui-icon="true" viewBox="0 0 12 12"><path fill="currentColor" d="M2.837 9.245a.75.75 0 0 1 1.076 1.045l-.834.858a.75.75 0 0 1-1.075-1.046zm-1.11-1.143a.75.75 0 0 1 1.075 1.046l-1.389 1.428A.75.75 0 0 1 .337 9.532zM10.202.644c.673.022 1.206.6 1.152 1.29-.155 1.952-1.113 3.459-2.479 4.775v1.87c0 .4-.191.772-.508 1.005l-.143.091-1.75.955-.158.073a1.25 1.25 0 0 1-1.69-1.17V8.88L3.12 7.375h-.652A1.25 1.25 0 0 1 1.37 5.527l.954-1.75.092-.144a1.25 1.25 0 0 1 1.006-.508h1.87C6.607 1.76 8.114.801 10.066.647zM6.125 8.93v.18l1.25-.682v-.49zm3.688-6.745c-1.38.21-2.516.966-3.635 2.184L4.434 6.567l.998.999 2.202-1.75c1.216-1.118 1.97-2.253 2.179-3.63m-6.925 3.69h.18l.994-1.25H3.57z"/></svg>