<svg xmlns="http://www.w3.org/2000/svg" width="20" height="20" fill="none" data-fui-icon="true" viewBox="0 0 20 20"><path fill="currentColor" d="M1.657 1.657a.75.75 0 0 1 1.061 0l15.625 15.625a.75.75 0 0 1-1.06 1.06L14.74 15.8a.32.32 0 0 0-.396-.042 8.2 8.2 0 0 1-3.31 1.175.32.32 0 0 0-.284.317v.938c0 .172.14.312.313.312h2.187a.75.75 0 0 1 0 1.5h-6.5a.75.75 0 0 1 0-1.5h2.188c.172 0 .312-.14.312-.312v-.938a.32.32 0 0 0-.284-.317A8.25 8.25 0 0 1 1.75 8.75a.75.75 0 0 1 1.5 0 6.75 6.75 0 0 0 9.876 5.98.3.3 0 0 0 .066-.478l-.85-.85a.325.325 0 0 0-.36-.064A5 5 0 0 1 5 8.75V6.2a.32.32 0 0 0-.092-.232l-3.25-3.25a.75.75 0 0 1 0-1.06M17.5 8a.75.75 0 0 1 .75.75c0 1.656-.49 3.196-1.33 4.488a.302.302 0 0 1-.468.043l-.637-.637a.32.32 0 0 1-.043-.396c.62-1.02.978-2.217.978-3.498A.75.75 0 0 1 17.5 8m-11 .75a3.5 3.5 0 0 0 4.029 3.46c.232-.036.304-.316.138-.483L7.034 8.094a.312.312 0 0 0-.534.221zm3.5-7.5a5 5 0 0 1 5 5v2.5c0 .74-.162 1.442-.45 2.074-.087.188-.333.222-.48.076l-.682-.683a.33.33 0 0 1-.074-.341c.12-.353.186-.732.186-1.126v-2.5a3.5 3.5 0 0 0-6.016-2.432c-.13.134-.347.148-.48.016l-.614-.615a.3.3 0 0 1-.01-.417A4.99 4.99 0 0 1 10 1.25"/></svg>