<svg xmlns="http://www.w3.org/2000/svg" width="16" height="16" fill="none" data-fui-icon="true" viewBox="0 0 16 16"><path fill="currentColor" d="M13.544 2.427q.091.008.191.032c.097.023.224.065.35.14l.127.087.004.002c.217.179.308.4.349.55l.027.121.002.012c.018.114.045.368.022.596-.17 1.776-.894 6.025-1.26 7.971-.165.887-.57 1.568-1.311 1.636-.505.046-.921-.127-1.256-.323a7 7 0 0 1-.468-.309l-.425-.296c-.491-.32-.876-.58-1.253-.836s-.747-.508-1.214-.815c-.305-.2-.571-.431-.722-.719a1.08 1.08 0 0 1-.03-.96c.109-.247.294-.449.435-.592q.054-.056.112-.11l-.76.508c-.497.341-1.024.563-1.564.552-.272-.006-.62-.078-.932-.156a15 15 0 0 1-.964-.28h-.001c-.297-.096-.683-.205-.952-.335a1.3 1.3 0 0 1-.463-.345.93.93 0 0 1-.205-.717c.046-.355.29-.59.472-.724.2-.147.456-.274.74-.387a538 538 0 0 1 6.434-2.762c1.533-.635 2.473-1.015 3.083-1.236.6-.217.949-.308 1.269-.314zM13.37 3.67c-.104.007-.303.046-.832.237-.29.105-.663.249-1.156.446l-1.874.768a540 540 0 0 0-6.434 2.763l-.02.008-.068.028.146.047.257.08.434.135q.227.066.448.123c.306.076.536.115.657.118.178.004.449-.07.83-.332l.006-.003L7.75 6.757q.857-.573 1.441-.958t.902-.586a10 10 0 0 1 .355-.214c.008-.004.092-.05.19-.072.03-.007.136-.032.257-.031a.8.8 0 0 1 .525.198h-.001a.8.8 0 0 1 .255.481.9.9 0 0 1-.012.323.7.7 0 0 1-.084.203 1 1 0 0 1-.065.097q-.062.08-.132.16c-.094.105-.22.234-.36.374-.283.283-.652.636-1.02.983-.369.347-.742.692-1.03.96l-.511.476-.001.001c-.086.09-.172.174-.249.247-.08.077-.147.14-.208.203a2 2 0 0 0-.138.15l.012.015c.049.046.124.108.238.183.477.313.854.57 1.23.825.377.256.754.51 1.234.825.168.11.33.225.466.322.142.1.263.184.377.25.21.123.352.162.481.157l.017-.019c.052-.069.142-.24.209-.601v-.001c.366-1.953 1.081-6.153 1.244-7.863V3.84a1 1 0 0 0 .001-.143z"/></svg>