<svg xmlns="http://www.w3.org/2000/svg" width="16" height="16" fill="none" data-fui-icon="true" viewBox="0 0 16 16"><path fill="currentColor" d="M13.5 11.273a2.25 2.25 0 0 1 2.25 2.25v.318a.75.75 0 0 1-1.5 0v-.318a.75.75 0 0 0-.75-.75h-11a.75.75 0 0 0-.75.75v.318a.75.75 0 0 1-1.5 0v-.318a2.25 2.25 0 0 1 2.25-2.25zM13.5 2a2.25 2.25 0 0 1 2.25 2.25v2.728a2.25 2.25 0 0 1-2.25 2.25h-11a2.25 2.25 0 0 1-2.25-2.25V4.25A2.25 2.25 0 0 1 2.5 2zm-11 1.5a.75.75 0 0 0-.75.75v2.728c0 .414.336.75.75.75h11a.75.75 0 0 0 .75-.75V4.25a.75.75 0 0 0-.75-.75z"/></svg>