<svg xmlns="http://www.w3.org/2000/svg" width="12" height="12" fill="none" data-fui-icon="true" viewBox="0 0 12 12"><path fill="currentColor" d="M7.784 1.25a3.75 3.75 0 0 1 3.732 3.377l.365 3.65a2.25 2.25 0 0 1-2.24 2.473H9.61a2.25 2.25 0 0 1-1.57-.639l-.627-.61a.75.75 0 0 0-.523-.213H5.11a.75.75 0 0 0-.524.213l-.626.61c-.42.41-.984.639-1.57.639h-.033A2.25 2.25 0 0 1 .118 8.276l.365-3.649A3.75 3.75 0 0 1 4.214 1.25zm-3.535 3a1.25 1.25 0 1 0 .001 2.501 1.25 1.25 0 0 0 0-2.501m3.5 0a1.25 1.25 0 1 0 .001 2.501 1.25 1.25 0 0 0 0-2.501"/></svg>