<svg xmlns="http://www.w3.org/2000/svg" width="24" height="24" fill="none" data-fui-icon="true" viewBox="0 0 24 24"><path fill="currentColor" d="M12 12.5c3.722 0 6.565 2.226 7.721 5.352a2.21 2.21 0 0 1-.39 2.226 2.65 2.65 0 0 1-2.027.922H6.698a2.65 2.65 0 0 1-2.027-.922 2.21 2.21 0 0 1-.391-2.226c1.157-3.126 4-5.352 7.72-5.352m0 1.5c-3.06 0-5.362 1.803-6.313 4.373a.72.72 0 0 0 .133.741c.186.222.505.386.878.386h10.606c.374 0 .692-.164.878-.386a.72.72 0 0 0 .133-.741c-.95-2.57-3.254-4.373-6.314-4.373m0-12a4.5 4.5 0 1 1 0 9 4.5 4.5 0 0 1 0-9m0 1.5a3 3 0 1 0 .002 6 3 3 0 0 0-.001-6"/></svg>