<svg xmlns="http://www.w3.org/2000/svg" width="24" height="24" fill="none" data-fui-icon="true" viewBox="0 0 24 24"><g clip-path="url(#a)"><g clip-path="url(#b)"><path fill="currentColor" fill-rule="evenodd" d="M.321 2.707C.043 1.176 1.337.03 2.7.03H4.74c1.767 0 3.062 1.427 3.368 2.991.296 1.513.843 2.741 1.315 3.59.194.348.374.631.518.842A8.4 8.4 0 0 1 12 7.2c.71 0 1.4.088 2.058.254.144-.21.324-.494.518-.842a12.3 12.3 0 0 0 1.314-3.59c.307-1.564 1.602-2.99 3.369-2.99H21.3c1.363 0 2.656 1.144 2.379 2.675-.505 2.782-2.031 4.822-3.403 6.152a14 14 0 0 1-1.757 1.444 8.4 8.4 0 1 1-13.039 0 14 14 0 0 1-1.756-1.444C2.352 7.53.825 5.49.32 2.707m17.133 6.505q.07-.046.147-.098c.43-.293 1.017-.736 1.63-1.331 1.231-1.194 2.541-2.967 2.972-5.344.077-.425-.277-.908-.903-.908h-2.041c-.884 0-1.694.743-1.897 1.78a13.8 13.8 0 0 1-1.847 4.657 8.4 8.4 0 0 1 1.94 1.244m-9.34-1.87q.196.352.371.626a8.4 8.4 0 0 0-1.94 1.244L6.4 9.114a12.3 12.3 0 0 1-1.63-1.331C3.536 6.589 2.227 4.816 1.796 2.439c-.077-.425.277-.908.903-.908H4.74c.884 0 1.693.743 1.896 1.78.333 1.7.946 3.078 1.476 4.03M12 22.5a6.9 6.9 0 1 0 0-13.8 6.9 6.9 0 0 0 0 13.8" clip-rule="evenodd"/><path stroke="currentColor" stroke-linecap="round" stroke-linejoin="round" stroke-width="1.5" d="m9 16.2 1.8 1.8 4.2-4.2"/></g></g><defs><clipPath id="a"><path fill="currentColor" d="M0 0h24v24H0z"/></clipPath><clipPath id="b"><path fill="currentColor" d="M0 0h24v24H0z"/></clipPath></defs></svg>