<svg xmlns="http://www.w3.org/2000/svg" width="12" height="12" fill="none" data-fui-icon="true" viewBox="0 0 12 12"><path fill="currentColor" fill-rule="evenodd" d="M5.59 1.1a3.755 3.755 0 1 1 5.31 5.31l-.477.478a.75.75 0 1 1-1.06-1.061l.476-.477A2.255 2.255 0 0 0 6.65 2.16l-.477.478a.75.75 0 0 1-1.06-1.061zM2.637 5.112a.75.75 0 0 1 0 1.061l-.477.477A2.255 2.255 0 0 0 5.35 9.84l.477-.478a.75.75 0 1 1 1.06 1.061l-.476.477A3.755 3.755 0 1 1 1.1 5.59l.477-.478a.75.75 0 0 1 1.06 0" clip-rule="evenodd"/><path fill="currentColor" fill-rule="evenodd" d="M4.763 7.237a.75.75 0 0 1 0 1.061l-.543.543a.75.75 0 0 1-1.061-1.06l.543-.544a.75.75 0 0 1 1.06 0M8.84 3.16a.75.75 0 0 1 0 1.06l-.543.544a.75.75 0 0 1-1.06-1.061l.542-.543a.75.75 0 0 1 1.061 0M1.273 1.273a.75.75 0 0 1 1.06 0l8.394 8.393a.75.75 0 1 1-1.06 1.061L1.272 2.334a.75.75 0 0 1 0-1.061" clip-rule="evenodd"/></svg>