<svg xmlns="http://www.w3.org/2000/svg" width="12" height="12" fill="none" data-fui-icon="true" viewBox="0 0 12 12"><path fill="currentColor" d="M6 0a6 6 0 1 1 0 12A6 6 0 0 1 6 0m0 1.5a4.5 4.5 0 1 0 0 9 4.5 4.5 0 0 0 0-9m0 5c.932 0 1.595.315 2.031.664a2.7 2.7 0 0 1 .585.653l.035.06.012.022.007.014v.001l-.393.197.394-.196a.75.75 0 0 1-1.304.737l-.035-.061.001.003-.034-.05a1.2 1.2 0 0 0-.205-.208C6.904 8.185 6.568 8 6 8s-.905.185-1.094.336c-.1.08-.166.156-.205.208l-.034.047-.034.061a.75.75 0 0 1-1.304-.737l.394.196-.394-.197h.001l.007-.015.012-.022q.013-.025.035-.06.042-.07.118-.173c.102-.136.254-.31.467-.48C4.405 6.815 5.068 6.5 6 6.5M4.666 8.596l-.003.005zl.001-.003zM4.25 3.78a1 1 0 1 1 0 2 1 1 0 0 1 0-2m3.5 0a1 1 0 1 1 0 2 1 1 0 0 1 0-2"/></svg>