<svg xmlns="http://www.w3.org/2000/svg" width="20" height="20" fill="none" data-fui-icon="true" viewBox="0 0 20 20"><path fill="currentColor" d="M8 3a.75.75 0 0 1 0 1.5H3.86c-.75 0-1.36.61-1.36 1.36v10.28c0 .75.61 1.36 1.36 1.36h10.28c.75 0 1.36-.61 1.36-1.36V12a.75.75 0 0 1 1.5 0v4.14A2.86 2.86 0 0 1 14.14 19H3.86A2.86 2.86 0 0 1 1 16.14V5.86A2.86 2.86 0 0 1 3.86 3zm6.5-2a.75.75 0 0 1 .75.75c0 .64.362 1.397.982 2.018.621.62 1.379.982 2.018.982a.75.75 0 0 1 0 1.5c-.584 0-1.336.429-1.996 1.147A5 5 0 0 0 15.5 8.46c-.185.36-.251.634-.251.79a.75.75 0 0 1-1.5 0c0-.118-.069-.37-.295-.743a6 6 0 0 0-.875-1.087 6 6 0 0 0-1.087-.875c-.372-.226-.625-.295-.743-.295a.75.75 0 0 1 0-1.5c.156 0 .43-.066.79-.251.347-.178.72-.438 1.063-.753.718-.66 1.147-1.412 1.147-1.996A.75.75 0 0 1 14.5 1m-.055 2.927c-.25.343-.536.656-.827.924-.288.264-.6.5-.916.703a8 8 0 0 1 1.743 1.743c.203-.316.44-.627.704-.915.268-.291.58-.578.923-.828a5.4 5.4 0 0 1-1.627-1.627"/></svg>