<svg xmlns="http://www.w3.org/2000/svg" width="20" height="20" fill="none" data-fui-icon="true" viewBox="0 0 20 20"><path fill="currentColor" d="M8.133 1.575c.821-1.433 2.912-1.433 3.734 0l.078.147 1.85 3.85 4.261.56c1.792.234 2.528 2.449 1.2 3.701l-3.11 2.93.781 4.188c.335 1.794-1.563 3.141-3.144 2.29L10 17.2l-3.782 2.04c-1.58.852-3.479-.495-3.144-2.29l.78-4.188-3.11-2.93c-1.328-1.252-.592-3.467 1.2-3.702l4.26-.558 1.852-3.851zM5.506 17.919v.001l4.182-2.254h-.001zm4.807-2.253 4.182 2.254h-.002zm5.138 1.56h.002l-.866-4.642zm-.67-5.236 3.446-3.248h-.001zM7.239 6.805q.016-.014.032-.032l.006-.008zm5.49-.032.018.02-.024-.028z"/></svg>