<svg xmlns="http://www.w3.org/2000/svg" width="24" height="24" fill="none" data-fui-icon="true" viewBox="0 0 24 24"><path fill="currentColor" d="M23 17.438A3.563 3.563 0 0 1 19.438 21H4.563A3.563 3.563 0 0 1 1 17.438V10h22zm-12.951-5.296a.376.376 0 0 0-.562.326v5.843c0 .287.31.467.56.326l5.145-2.907a.375.375 0 0 0 .001-.652zM1.499 8.5H1V6.563A3.563 3.563 0 0 1 4.563 3h2.436zM19.437 3q.427.001.824.097L14.858 8.5H10.37l5.473-5.473.024-.027zm2.245.797A3.56 3.56 0 0 1 23 6.563V8.5h-6.02zM8.249 8.5H3.62l5.473-5.473L9.117 3h4.632z"/></svg>