<svg xmlns="http://www.w3.org/2000/svg" width="24" height="24" fill="none" data-fui-icon="true" viewBox="0 0 24 24"><path fill="currentColor" d="M3.515 3.515A3.77 3.77 0 0 1 6.179 2.41H17.82A3.77 3.77 0 0 1 21.59 6.18V17.82a3.77 3.77 0 0 1-3.768 3.768H6.18A3.77 3.77 0 0 1 2.41 17.82V6.18c0-1 .397-1.958 1.104-2.664m1.06 1.06a2.27 2.27 0 0 0-.664 1.604V17.82A2.27 2.27 0 0 0 6.18 20.09H17.82a2.27 2.27 0 0 0 2.268-2.268V6.18A2.27 2.27 0 0 0 17.82 3.91H6.18c-.602 0-1.178.24-1.604.664M15.36 15.36a1.25 1.25 0 1 1 1.767 1.767 1.25 1.25 0 0 1-1.767-1.767m-8.486 0a1.25 1.25 0 1 1 1.768 1.767 1.25 1.25 0 0 1-1.768-1.767m4.243-4.243a1.25 1.25 0 1 1 1.768 1.768 1.25 1.25 0 0 1-1.768-1.768m4.243-4.243a1.25 1.25 0 1 1 1.767 1.768 1.25 1.25 0 0 1-1.767-1.768m-8.486 0a1.25 1.25 0 1 1 1.768 1.768 1.25 1.25 0 0 1-1.768-1.768"/></svg>