<svg xmlns="http://www.w3.org/2000/svg" width="20" height="20" fill="none" data-fui-icon="true" viewBox="0 0 20 20"><path fill="currentColor" d="M10 1a9 9 0 1 1 0 18 9 9 0 0 1 0-18m0 1.5a7.5 7.5 0 1 0 0 15 7.5 7.5 0 0 0 0-15m2 1.25a.75.75 0 0 1 .75.75v.856c1.154.327 2 1.386 2 2.644a2.74 2.74 0 0 1-.867 2 2.74 2.74 0 0 1 .867 2 2.75 2.75 0 0 1-2 2.643v.857a.75.75 0 0 1-1.5 0v-.75h-2v.75a.75.75 0 0 1-1.5 0v-.75H6a.75.75 0 0 1 0-1.5h.772l-.018-6.5H6a.75.75 0 0 1 0-1.5h1.75V4.5a.75.75 0 0 1 1.5 0v.75h2V4.5a.75.75 0 0 1 .75-.75m-3.728 9.5H12a1.25 1.25 0 1 0 0-2.5H8.266zm-.011-4H12l.128-.007A1.25 1.25 0 0 0 12 6.75H8.254z"/></svg>