<svg xmlns="http://www.w3.org/2000/svg" width="16" height="16" fill="none" data-fui-icon="true" viewBox="0 0 16 16"><path fill="currentColor" d="M13.3 0A2.7 2.7 0 0 1 16 2.7v10.6a2.7 2.7 0 0 1-2.7 2.7H2.7A2.7 2.7 0 0 1 0 13.3V2.7A2.7 2.7 0 0 1 2.7 0zM2.7 1.5a1.2 1.2 0 0 0-1.2 1.2v10.6a1.2 1.2 0 0 0 1.2 1.2h10.6a1.2 1.2 0 0 0 1.2-1.2V2.7a1.2 1.2 0 0 0-1.2-1.2zM4 10a1 1 0 1 1 0 2 1 1 0 0 1 0-2m5.25.25a.75.75 0 0 1 0 1.5h-2.5a.75.75 0 0 1 0-1.5zM4 7a1 1 0 1 1 0 2 1 1 0 0 1 0-2m7.25.25a.75.75 0 0 1 0 1.5h-4.5a.75.75 0 0 1 0-1.5zM4 4a1 1 0 1 1 0 2 1 1 0 0 1 0-2m8.25.25a.75.75 0 0 1 0 1.5h-5.5a.75.75 0 0 1 0-1.5z"/></svg>