<svg xmlns="http://www.w3.org/2000/svg" width="24" height="24" fill="none" data-fui-icon="true" viewBox="0 0 24 24"><path fill="currentColor" d="M2.095 2.095a.75.75 0 0 1 1.06 0l18.75 18.75a.75.75 0 0 1-1.06 1.06l-3.136-3.135a.385.385 0 0 0-.48-.049 9.7 9.7 0 0 1-4.133 1.464.386.386 0 0 0-.346.38v.81a.75.75 0 0 1-1.5 0v-.81a.386.386 0 0 0-.346-.38C6.035 19.64 2.25 15.514 2.25 10.5a.75.75 0 0 1 1.5 0 8.25 8.25 0 0 0 12.258 7.21.36.36 0 0 0 .071-.57l-1.12-1.121a.39.39 0 0 0-.442-.073 6 6 0 0 1-8.51-5.137L6 10.5v-3q0-.128.006-.253a.39.39 0 0 0-.111-.292l-3.8-3.8a.75.75 0 0 1 0-1.06M21 9.75a.75.75 0 0 1 .75.75 9.7 9.7 0 0 1-1.815 5.662.363.363 0 0 1-.553.04l-.54-.54a.39.39 0 0 1-.04-.493A8.2 8.2 0 0 0 20.25 10.5a.75.75 0 0 1 .75-.75m-13.5.75a4.5 4.5 0 0 0 5.586 4.367c.263-.065.332-.388.141-.58L8.14 9.202a.375.375 0 0 0-.64.265zm4.5-9a6 6 0 0 1 6 6v3a5.97 5.97 0 0 1-.763 2.927.354.354 0 0 1-.563.067l-.563-.564a.4.4 0 0 1-.069-.455A4.5 4.5 0 0 0 16.5 10.5v-3a4.5 4.5 0 0 0-8-2.827c-.15.185-.43.215-.6.047l-.524-.524a.36.36 0 0 1-.03-.481A5.99 5.99 0 0 1 12 1.5"/></svg>