<svg xmlns="http://www.w3.org/2000/svg" width="12" height="12" fill="none" data-fui-icon="true" viewBox="0 0 12 12"><path fill="currentColor" d="M9 6.25a.75.75 0 0 1 .75.75v1.25H11a.75.75 0 0 1 0 1.5H9.75V11a.75.75 0 0 1-1.5 0V9.75H7a.75.75 0 0 1 0-1.5h1.25V7A.75.75 0 0 1 9 6.25m-.603-3c1.357 0 2.655.672 3.153 1.806h-.001c.132.295.201.615.201.944a.75.75 0 0 1-1.5 0 .8.8 0 0 0-.071-.336l-.003-.005-.042-.084c-.237-.42-.862-.825-1.737-.825-.681 0-1.22.251-1.534.564.308.291.574.63.787 1.001a.75.75 0 0 1-1.3.747c-.488-.851-1.31-1.35-2.188-1.31-1.257.056-2.412 1.347-2.412 3.066 0 .149.053.266.118.34.063.07.127.092.177.092h2.792a.75.75 0 0 1 0 1.5H2.045C.969 10.75.25 9.797.25 8.818c0-2.283 1.568-4.462 3.845-4.564l.284-.002c.424.013.827.101 1.204.247.623-.79 1.693-1.249 2.814-1.249M4 .25a1.75 1.75 0 1 1 0 3.5 1.75 1.75 0 0 1 0-3.5m4.5 0a1.25 1.25 0 1 1 0 2.5 1.25 1.25 0 0 1 0-2.5M4 1.75a.25.25 0 1 0 0 .5.25.25 0 0 0 0-.5m4.5-.5a.25.25 0 1 0 0 .5.25.25 0 0 0 0-.5"/></svg>