<svg xmlns="http://www.w3.org/2000/svg" width="12" height="12" fill="none" data-fui-icon="true" viewBox="0 0 12 12"><g clip-path="url(#a)"><path fill="currentColor" d="M11.25 1.5a.75.75 0 0 1 .75.75v4.063C12 7.244 11.245 8 10.313 8H2.529l1.196 1.227a.75.75 0 0 1-1.075 1.046l-2.437-2.5a.75.75 0 0 1 0-1.046l2.437-2.5a.75.75 0 0 1 1.075 1.046L2.529 6.5h7.784a.187.187 0 0 0 .187-.187V2.25a.75.75 0 0 1 .75-.75"/></g><defs><clipPath id="a"><path fill="currentColor" d="M0 0h12v12H0z"/></clipPath></defs></svg>