<svg xmlns="http://www.w3.org/2000/svg" width="16" height="16" fill="none" data-fui-icon="true" viewBox="0 0 16 16"><path fill="currentColor" d="M11.25 1.5A3.75 3.75 0 0 1 15 5.25v5.5a3.75 3.75 0 0 1-3.75 3.75h-6.5A3.75 3.75 0 0 1 1 10.75v-5.5A3.75 3.75 0 0 1 4.75 1.5zM4.75 3A2.25 2.25 0 0 0 2.5 5.25v5.5A2.25 2.25 0 0 0 4.75 13h6.5a2.25 2.25 0 0 0 2.25-2.25v-5.5A2.25 2.25 0 0 0 11.25 3zm2.566 1.88a1.083 1.083 0 0 1 1.45.075L10.78 6.97a.75.75 0 0 1-1.06 1.06l-.97-.97v3.44a.75.75 0 0 1-1.5 0V7.06l-.97.97a.75.75 0 0 1-1.06-1.06l2.014-2.015z"/></svg>