<svg xmlns="http://www.w3.org/2000/svg" width="12" height="12" fill="none" data-fui-icon="true" viewBox="0 0 12 12"><path fill="currentColor" d="M11.625 2.566c-.414.18-.858.302-1.325.357.476-.28.842-.727 1.014-1.257-.446.26-.94.45-1.465.55A2.32 2.32 0 0 0 8.164 1.5c-1.274 0-2.308 1.017-2.308 2.273q0 .266.06.517a6.6 6.6 0 0 1-4.758-2.374 2.24 2.24 0 0 0-.312 1.142c0 .788.408 1.484 1.027 1.891a2.3 2.3 0 0 1-1.046-.284v.029c0 1.1.796 2.019 1.852 2.228a2.4 2.4 0 0 1-1.043.039 2.305 2.305 0 0 0 2.157 1.577 4.68 4.68 0 0 1-3.418.941A6.6 6.6 0 0 0 3.913 10.5c4.246 0 6.567-3.462 6.567-6.464q0-.146-.007-.294c.45-.32.842-.72 1.151-1.175z"/></svg>