<svg xmlns="http://www.w3.org/2000/svg" width="32" height="32" fill="none" data-fui-icon="true" viewBox="0 0 32 32"><path fill="currentColor" d="M16 1c8.284 0 15 6.716 15 15s-6.716 15-15 15S1 24.284 1 16 7.716 1 16 1m.012 5a.75.75 0 0 0-.75.75v.876c-3.416.287-5.234 2.522-5.234 4.546 0 .836.192 1.548.565 2.14.37.59.887 1.014 1.46 1.328.933.511 2.104.77 3.209.98v6.245c-1.27-.125-2.107-.56-2.664-1.039a3.83 3.83 0 0 1-1.134-1.69.75.75 0 0 0-1.426.466 5.33 5.33 0 0 0 1.583 2.363c.832.713 2.009 1.275 3.64 1.408v.874a.75.75 0 0 0 1.5 0v-.876c3.418-.286 5.236-2.52 5.236-4.545 0-.836-.193-1.547-.565-2.14-.37-.59-.887-1.014-1.46-1.329-.934-.512-2.105-.772-3.21-.981V9.129c2.768.258 3.615 1.927 3.75 2.561a.751.751 0 0 0 1.468-.313c-.272-1.275-1.677-3.48-5.218-3.755V6.75a.75.75 0 0 0-.75-.75m.75 10.902c.975.193 1.828.409 2.488.77.408.225.709.49.911.811.2.32.336.745.336 1.343 0 1.06-1.026 2.77-3.735 3.04zm-1.5-1.81c-.975-.192-1.828-.406-2.488-.768-.408-.223-.708-.488-.91-.81-.2-.318-.336-.743-.336-1.342 0-1.059 1.025-2.772 3.734-3.041z"/></svg>