<svg xmlns="http://www.w3.org/2000/svg" width="20" height="20" fill="none" data-fui-icon="true" viewBox="0 0 20 20"><path fill="currentColor" d="M10 0a.75.75 0 0 1 .75.75v2.32a4.001 4.001 0 0 1 1.944 6.885l1.798 3.811q.21-.162.394-.326c.51-.454.877-.908 1.114-1.246a6 6 0 0 0 .327-.525v-.001a.75.75 0 0 1 1.345.663L17 12c.642.316.671.33.672.332l-.002.003q0 .002-.002.004l-.007.014-.024.045-.084.152a7 7 0 0 1-.326.505 8.8 8.8 0 0 1-2.083 2.094l1.784 3.78a.75.75 0 0 1-1.357.64l-1.726-3.656c-1.042.493-2.316.837-3.845.837s-2.805-.344-3.847-.837L4.43 19.57a.751.751 0 0 1-1.358-.64l1.783-3.781a8.7 8.7 0 0 1-2.408-2.6 5 5 0 0 1-.107-.196l-.008-.014-.002-.004v-.002c-.001 0 .007-.006.67-.333l-.672.33a.75.75 0 0 1 1.345-.662l.012.023.058.103c.054.093.14.232.258.4a7.3 7.3 0 0 0 1.507 1.572l1.798-3.811A4.001 4.001 0 0 1 9.25 3.07V.75A.75.75 0 0 1 10 0m1.407 10.743a4 4 0 0 1-2.815 0l-1.8 3.813c.863.409 1.923.694 3.208.694 1.284 0 2.344-.286 3.206-.694zM10 4.5a2.5 2.5 0 1 0 0 5 2.5 2.5 0 0 0 0-5"/></svg>