<svg xmlns="http://www.w3.org/2000/svg" width="32" height="32" fill="none" data-fui-icon="true" viewBox="0 0 32 32"><path fill="currentColor" d="M16 2.917c7.225 0 13.084 5.858 13.084 13.083S23.225 29.084 16 29.084 2.917 23.225 2.917 16 8.775 2.917 16 2.917m0 1.5C9.603 4.417 4.417 9.603 4.417 16S9.603 27.584 16 27.584 27.584 22.397 27.584 16 22.397 4.417 16 4.417m-5.334 10.25a1.334 1.334 0 1 1 0 2.668 1.334 1.334 0 0 1 0-2.668m5.334 0a1.334 1.334 0 1 1 0 2.668 1.334 1.334 0 0 1 0-2.668m5.333 0a1.334 1.334 0 1 1 0 2.668 1.334 1.334 0 0 1 0-2.668"/></svg>