<svg xmlns="http://www.w3.org/2000/svg" width="32" height="32" fill="none" data-fui-icon="true" viewBox="0 0 32 32"><path fill="currentColor" d="M11.638 2A4.52 4.52 0 0 1 16 5.348 4.52 4.52 0 0 1 20.362 2h.695A3.944 3.944 0 0 1 25 5.943a4.04 4.04 0 0 1-.922 2.575h3.552a2.37 2.37 0 0 1 2.37 2.37v2.75a2.37 2.37 0 0 1-2.37 2.37h-.13V26.34A3.66 3.66 0 0 1 23.84 30H8.16a3.66 3.66 0 0 1-3.66-3.66V16.009h-.13A2.37 2.37 0 0 1 2 13.639v-2.751a2.37 2.37 0 0 1 2.37-2.37h3.552A4.04 4.04 0 0 1 7 5.943 3.944 3.944 0 0 1 10.943 2zM6 26.34a2.16 2.16 0 0 0 2.16 2.16h7.09V16.009H6zm10.75 2.16h7.09A2.16 2.16 0 0 0 26 26.34V16.009h-9.25zM4.37 10.018a.87.87 0 0 0-.87.87v2.75c0 .481.39.87.87.87h10.88v-4.49zm12.38 4.49h10.88c.48 0 .87-.389.87-.87v-2.75a.87.87 0 0 0-.87-.87H16.75zM10.943 3.5A2.444 2.444 0 0 0 8.5 5.943 2.557 2.557 0 0 0 11.057 8.5h4.035l-.49-2.552A3.02 3.02 0 0 0 11.638 3.5zm9.42 0a3.02 3.02 0 0 0-2.965 2.448l-.49 2.552h4.035A2.557 2.557 0 0 0 23.5 5.943 2.444 2.444 0 0 0 21.057 3.5z"/></svg>