<svg xmlns="http://www.w3.org/2000/svg" width="32" height="32" fill="none" data-fui-icon="true" viewBox="0 0 32 32"><path fill="currentColor" d="M1.22 1.22a.75.75 0 0 1 1.06 0l28.5 28.5a.75.75 0 0 1-1.06 1.06l-6.692-6.692a.3.3 0 0 0-.213-.088H17.05a.3.3 0 0 0-.3.3v5.95a.75.75 0 0 1-1.5 0V24.3a.3.3 0 0 0-.3-.3H8.696c-2.739 0-4.554-2.842-3.403-5.327l2.479-5.348c.15-.322.227-.674.227-1.03V9.184a.3.3 0 0 0-.088-.212L1.22 2.28a.75.75 0 0 1 0-1.06M20.25 1A3.75 3.75 0 0 1 24 4.75v7.545c0 .355.077.708.227 1.03l2.478 5.348c.657 1.416.348 2.947-.544 4.002a.28.28 0 0 1-.417.01L8.087 5.026A.3.3 0 0 1 8 4.815V4.75A3.75 3.75 0 0 1 11.75 1z"/></svg>