<svg xmlns="http://www.w3.org/2000/svg" width="16" height="16" fill="none" data-fui-icon="true" viewBox="0 0 16 16"><g clip-path="url(#a)"><path fill="currentColor" d="m10.289 13.525.146-.735a.75.75 0 0 0-.77.319zm-4.578 0 .624-.416a.75.75 0 0 0-.77-.32zm-2.484-.752-.53.53zm-.752-2.484.735.146a.75.75 0 0 0-.319-.77zm0-4.578.416.624a.75.75 0 0 0 .32-.77zm.752-2.484.53.53zm2.484-.752-.146.735a.75.75 0 0 0 .77-.319zm4.578 0-.624.416a.75.75 0 0 0 .77.32zm2.484.752-.53.53zm.752 2.484-.735-.146a.75.75 0 0 0 .319.77zm0 4.578-.416-.624a.75.75 0 0 0-.32.77zM8 15.5c1.216 0 2.286-.62 2.912-1.558l-1.247-.833C9.305 13.648 8.694 14 8 14zm-2.912-1.558A3.5 3.5 0 0 0 8 15.5V14a2 2 0 0 1-1.665-.891zm-2.391-.639a3.5 3.5 0 0 0 3.16.958l-.292-1.471a2 2 0 0 1-1.808-.547zm-.958-3.16a3.5 3.5 0 0 0 .958 3.16l1.06-1.06a2 2 0 0 1-.547-1.808zM.5 8c0 1.216.62 2.286 1.558 2.912l.833-1.247A2 2 0 0 1 2 8zm1.558-2.912A3.5 3.5 0 0 0 .5 8H2c0-.694.352-1.305.891-1.665zm.639-2.391a3.5 3.5 0 0 0-.958 3.16l1.471-.292a2 2 0 0 1 .547-1.808zm3.16-.958a3.5 3.5 0 0 0-3.16.958l1.06 1.06a2 2 0 0 1 1.808-.547zM8 .5c-1.216 0-2.286.62-2.912 1.558l1.247.833C6.695 2.352 7.307 2 8 2zm2.912 1.558A3.5 3.5 0 0 0 8 .5V2c.694 0 1.305.352 1.665.891zm2.391.639a3.5 3.5 0 0 0-3.16-.958l.292 1.471a2 2 0 0 1 1.808.547zm.958 3.16a3.5 3.5 0 0 0-.958-3.16l-1.06 1.06c.49.49.673 1.172.547 1.808zM15.5 8c0-1.216-.62-2.286-1.558-2.912l-.833 1.247c.539.36.891.971.891 1.665zm-1.558 2.912A3.5 3.5 0 0 0 15.5 8H14c0 .694-.352 1.305-.891 1.665zm-.639 2.391a3.5 3.5 0 0 0 .958-3.16l-1.471.292a2 2 0 0 1-.547 1.808zm-3.16.958a3.5 3.5 0 0 0 3.16-.958l-1.06-1.06c-.49.49-1.172.673-1.808.547z"/><path stroke="currentColor" stroke-linecap="round" stroke-linejoin="round" stroke-width="1.5" d="m5 8 2 2.125L11 6"/></g><defs><clipPath id="a"><path fill="currentColor" d="M0 0h16v16H0z"/></clipPath></defs></svg>