<svg xmlns="http://www.w3.org/2000/svg" width="32" height="32" fill="none" data-fui-icon="true" viewBox="0 0 32 32"><g clip-path="url(#a)"><path fill="currentColor" d="M19.08.567a8.7 8.7 0 0 1 10.434 6.52l.793 3.436a.773.773 0 0 1-.58.928l-8.243 1.903a6.767 6.767 0 0 0-5.07 8.115l1.902 8.243a.773.773 0 0 1-.58.928l-3.435.793a8.7 8.7 0 0 1-10.434-6.52l-2.61-11.302a8.7 8.7 0 0 1 6.52-10.435zm11.286 12.276c.226-.052.449.106.445.338a19.19 19.19 0 0 1-10.465 16.746c-.206.106-.447-.026-.499-.252l-1.972-8.543a5.267 5.267 0 0 1 3.947-6.317z"/></g><defs><clipPath id="a"><path fill="currentColor" d="M0 0h32v32H0z"/></clipPath></defs></svg>