<svg xmlns="http://www.w3.org/2000/svg" width="12" height="12" fill="none" data-fui-icon="true" viewBox="0 0 12 12"><path fill="currentColor" d="M7.195.375q.14.001.277.017a2.248 2.248 0 0 0-1.198 3.184A2.75 2.75 0 1 0 8.73 6.005a2.25 2.25 0 0 0 3.172-1.353q.05-.016.098-.035v4.458a2.55 2.55 0 0 1-2.55 2.55h-6.9a2.55 2.55 0 0 1-2.537-2.29L0 9.076V4.23A1.98 1.98 0 0 1 1.98 2.25a.48.48 0 0 0 .417-.245l.183-.326A2.55 2.55 0 0 1 4.805.375zM6 5.063a1.25 1.25 0 1 1 0 2.5 1.25 1.25 0 0 1 0-2.5M9.75.25a.75.75 0 0 1 .75.75v.75h.75a.75.75 0 0 1 0 1.5h-.75V4A.75.75 0 0 1 9 4v-.75h-.75a.75.75 0 0 1 0-1.5H9V1a.75.75 0 0 1 .75-.75"/></svg>