<svg xmlns="http://www.w3.org/2000/svg" width="24" height="24" fill="none" data-fui-icon="true" viewBox="0 0 24 24"><path fill="currentColor" d="M20.25 16.5a.75.75 0 0 1 .75.75v2.25h2.25a.75.75 0 0 1 0 1.5H21v2.25a.75.75 0 0 1-1.5 0V21h-2.25a.75.75 0 0 1 0-1.5h2.25v-2.25a.75.75 0 0 1 .75-.75M18.188 2.125a3.75 3.75 0 0 1 3.75 3.752v7.68a.75.75 0 0 1-1.5 0v-7.68a2.25 2.25 0 0 0-2.25-2.252H5.874a2.25 2.25 0 0 0-2.25 2.25v12.313a2.25 2.25 0 0 0 2.25 2.25h7.683a.75.75 0 0 1 0 1.5H5.875a3.75 3.75 0 0 1-3.75-3.75V5.874a3.75 3.75 0 0 1 3.75-3.75zM12 15.25a.75.75 0 0 1 0 1.5H7a.75.75 0 0 1 0-1.5zm5-4a.75.75 0 0 1 0 1.5H7a.75.75 0 0 1 0-1.5zm0-4a.75.75 0 0 1 0 1.5H7a.75.75 0 0 1 0-1.5z"/></svg>