<svg xmlns="http://www.w3.org/2000/svg" width="12" height="12" fill="none" data-fui-icon="true" viewBox="0 0 12 12"><path fill="currentColor" d="M6 0a6 6 0 1 1 0 12A6 6 0 0 1 6 0m.074 2.04q-.916 0-1.668.284a3.7 3.7 0 0 0-1.287.809q-.537.525-.826 1.255a4.4 4.4 0 0 0-.29 1.623q0 .892.29 1.618.293.726.83 1.246.54.525 1.292.806.751.284 1.676.284.742 0 1.28-.145.347-.093.585-.174a.236.236 0 0 0 .139-.312l-.17-.434a.267.267 0 0 0-.33-.151q-.19.061-.455.13Q6.68 9 6.087 9q-.933 0-1.614-.367A2.56 2.56 0 0 1 3.423 7.6q-.37-.674-.37-1.593 0-.92.37-1.594a2.57 2.57 0 0 1 1.054-1.04q.681-.368 1.614-.368.88 0 1.523.339.644.335.995.966.35.627.351 1.51 0 .665-.206 1.045-.202.375-.562.375a.36.36 0 0 1-.268-.098q-.095-.105-.095-.343V4.274a.25.25 0 0 0-.25-.25h-.42a.205.205 0 0 0-.205.205v.202q0 .002-.003.003l-.002-.001q-.116-.202-.412-.35a1.54 1.54 0 0 0-.71-.153 1.82 1.82 0 0 0-1.614.954q-.26.461-.26 1.118 0 .603.23 1.082.232.474.653.751.421.276.995.276.5 0 .805-.198.305-.201.408-.464l.002-.002.003.002q.05.247.313.469.264.223.805.223.863 0 1.346-.612.483-.615.483-1.725 0-1.136-.487-1.982a3.35 3.35 0 0 0-1.37-1.312q-.88-.47-2.065-.47m-.132 2.794q.467 0 .714.306.252.3.252.862 0 .557-.252.863-.248.301-.714.301-.482 0-.747-.3-.26-.303-.26-.864t.26-.862q.264-.306.747-.306"/></svg>