<svg xmlns="http://www.w3.org/2000/svg" width="24" height="24" fill="none" data-fui-icon="true" viewBox="0 0 24 24"><path fill="currentColor" d="M12 1c2.639 0 4.68.695 6.246 1.772 1.558 1.073 2.602 2.497 3.3 3.893.697 1.394 1.059 2.78 1.247 3.81.094.517.145.95.174 1.255a10 10 0 0 1 .032.489v.012l-.75.019.75-.018a.75.75 0 0 1-.195.523l-4.82 5.303q.015.094.016.192v3A1.75 1.75 0 0 1 16.25 23h-8.5A1.75 1.75 0 0 1 6 21.25v-3q0-.099.015-.192l-4.82-5.303A.75.75 0 0 1 1 12.232l.75.018-.75-.019v-.012l.007-.128q.006-.129.026-.36c.028-.306.08-.74.174-1.256.188-1.03.55-2.416 1.247-3.81.698-1.396 1.741-2.82 3.3-3.893C7.319 1.695 9.36 1 12 1M7.5 21.25c0 .138.112.25.25.25h8.5a.25.25 0 0 0 .25-.25V18.5h-9zM6.875 10.5c-1.762 0-2.882.563-3.553 1.09-.27.212-.473.422-.617.595l4.387 4.826A1 1 0 0 1 7.25 17h4v-4.538c-.028-.041-.06-.093-.104-.15a4 4 0 0 0-.719-.722c-.67-.527-1.79-1.09-3.552-1.09m10.25 0c-1.762 0-2.882.563-3.553 1.09-.34.267-.574.531-.719.723q-.063.085-.103.149V17h4q.08 0 .157.01l4.387-4.825a4 4 0 0 0-.617-.595c-.67-.527-1.79-1.09-3.552-1.09M12 2.5c-2.361 0-4.1.618-5.395 1.509-1.3.895-2.195 2.097-2.81 3.326-.484.97-.79 1.946-.98 2.775C3.734 9.508 5.056 9 6.874 9c2.113 0 3.556.687 4.478 1.41.258.202.471.406.647.594a6 6 0 0 1 .646-.594C13.57 9.687 15.011 9 17.125 9c1.817 0 3.138.508 4.06 1.11a12.6 12.6 0 0 0-.981-2.775c-.615-1.229-1.509-2.43-2.81-3.326C16.1 3.118 14.361 2.5 12 2.5"/></svg>