<svg xmlns="http://www.w3.org/2000/svg" width="24" height="24" fill="none" data-fui-icon="true" viewBox="0 0 24 24"><g clip-path="url(#a)"><path stroke="currentColor" stroke-linecap="round" stroke-linejoin="round" stroke-width="1.5" d="M4.045 4.045a3.02 3.02 0 0 0-.884 2.134V17.82c0 .8.318 1.568.884 2.134v0a3.02 3.02 0 0 0 2.134.884H17.82c.8 0 1.568-.318 2.134-.884v0a3.02 3.02 0 0 0 .884-2.134V6.18c0-.8-.318-1.568-.884-2.134v0a3.02 3.02 0 0 0-2.134-.884H6.18c-.8 0-1.568.318-2.134.884"/><path fill="currentColor" d="M12.884 11.116a1.25 1.25 0 1 1-1.768 1.768 1.25 1.25 0 0 1 1.768-1.768M8.64 6.873a1.25 1.25 0 1 1-1.767 1.768A1.25 1.25 0 0 1 8.64 6.873M6.873 15.36a1.25 1.25 0 1 1 1.768 1.767 1.25 1.25 0 0 1-1.768-1.767m10.253 0a1.25 1.25 0 1 1-1.767 1.767 1.25 1.25 0 0 1 1.768-1.767M15.36 6.873a1.25 1.25 0 1 1 1.767 1.768 1.25 1.25 0 0 1-1.767-1.768"/></g><defs><clipPath id="a"><path fill="currentColor" d="M0 0h24v24H0z"/></clipPath></defs></svg>