<svg xmlns="http://www.w3.org/2000/svg" width="12" height="12" fill="none" data-fui-icon="true" viewBox="0 0 12 12"><g clip-path="url(#a)"><path fill="currentColor" d="M6 .563c1.886 0 3.276.69 4.183 1.766.888 1.055 1.255 2.412 1.255 3.671v2.25q-.001.031-.004.063.003.062.004.124a3 3 0 0 1-3 3 1.5 1.5 0 0 1-1.5-1.5v-3a1.5 1.5 0 0 1 1.5-1.5c.544 0 1.053.148 1.493.4-.03-.934-.317-1.855-.895-2.541C8.443 2.59 7.49 2.063 6 2.063s-2.443.528-3.036 1.233c-.578.686-.866 1.607-.896 2.542.44-.254.95-.4 1.495-.4a1.5 1.5 0 0 1 1.5 1.5v3a1.5 1.5 0 0 1-1.5 1.5A3 3 0 0 1 .564 8.312L.563 8.25V6c0-1.26.366-2.616 1.254-3.67C2.724 1.252 4.114.562 6 .562M3.563 6.938a1.5 1.5 0 1 0 0 3zm4.874 3a1.5 1.5 0 1 0 0-3z"/></g><defs><clipPath id="a"><path fill="currentColor" d="M0 0h12v12H0z"/></clipPath></defs></svg>