<svg xmlns="http://www.w3.org/2000/svg" width="12" height="12" fill="none" data-fui-icon="true" viewBox="0 0 12 12"><path fill="currentColor" d="M.22.22a.75.75 0 0 1 1.06 0l10.5 10.5a.75.75 0 1 1-1.06 1.06L8.027 9.088A.3.3 0 0 0 7.815 9H7.05a.3.3 0 0 0-.3.3v1.95a.75.75 0 0 1-1.5 0V9.3a.3.3 0 0 0-.3-.3H3.267c-1.36 0-2.201-1.484-1.501-2.65l1.17-1.95A.45.45 0 0 0 3 4.167a.26.26 0 0 0-.076-.183L.22 1.28a.75.75 0 0 1 0-1.06M3.052 7.12a.25.25 0 0 0 .215.379h2.448a.3.3 0 0 0 .212-.512L4.451 5.512a.3.3 0 0 0-.469.058zM7.25 0C8.216 0 9 .784 9 1.75v2.418c0 .081.023.162.064.231l1.17 1.95q.089.15.145.303c.09.245-.195.372-.38.187L7.585 4.425a.28.28 0 0 1-.083-.184L7.5 4.168V1.75a.25.25 0 0 0-.25-.25h-2.5c-.048 0-.099-.009-.133-.043L3.823.662C3.7.539 3.706.336 3.855.247 4.117.09 4.423 0 4.75 0z"/></svg>