<svg xmlns="http://www.w3.org/2000/svg" width="24" height="24" fill="none" data-fui-icon="true" viewBox="0 0 24 24"><path fill="currentColor" d="M17.499 4a2.5 2.5 0 0 1 2.5 2.5q0 .06-.01.116a2.75 2.75 0 0 1 1.96 2.634v8A2.75 2.75 0 0 1 19.2 20H4.7a2.75 2.75 0 0 1-2.75-2.75V6a2 2 0 0 1 2-2zM3.449 17.25c0 .69.56 1.25 1.25 1.25h14.5c.69 0 1.25-.56 1.25-1.25v-8c0-.69-.56-1.25-1.25-1.25H3.95c-.173 0-.34-.025-.5-.066zm13.05-5.5a1.5 1.5 0 1 1 0 3 1.5 1.5 0 0 1 0-3M3.949 5.5a.5.5 0 1 0 0 1H18.5a1 1 0 0 0-1-1z"/></svg>