<svg xmlns="http://www.w3.org/2000/svg" width="16" height="16" fill="none" data-fui-icon="true" viewBox="0 0 16 16"><path fill="currentColor" d="M12.167 1.75c1.15 0 2.083.933 2.083 2.083v8.334c0 1.15-.933 2.083-2.083 2.083H3.833a2.083 2.083 0 0 1-2.083-2.083V3.833c0-1.15.933-2.083 2.083-2.083zm-8.334 1.5a.583.583 0 0 0-.583.583v8.334c0 .322.261.583.583.583h8.334a.583.583 0 0 0 .583-.583V3.833a.583.583 0 0 0-.583-.583zm2.594 5.469a.75.75 0 0 1 1.199.9l-1.247 1.663-.6-.45v.001l.6.45a.75.75 0 0 1-1.017.174l-.75-.5a.75.75 0 0 1 .832-1.248l.16.106zm4.406.531a.75.75 0 0 1 0 1.5H9.167a.75.75 0 0 1 0-1.5zM6.427 4.718a.75.75 0 0 1 1.199.9L6.379 7.282l-.6-.45.6.45a.75.75 0 0 1-1.017.174l-.75-.5a.75.75 0 0 1 .832-1.248l.16.106zm4.445.532a.75.75 0 0 1 0 1.5H9.205a.75.75 0 0 1 0-1.5z"/></svg>