<svg xmlns="http://www.w3.org/2000/svg" width="16" height="16" fill="none" data-fui-icon="true" viewBox="0 0 16 16"><path fill="currentColor" d="M8.688 0a2.75 2.75 0 0 1 2.668 2.083l.23.917h3.664a.75.75 0 0 1 0 1.5h-.588l-1.142 9.179v-.001A2.53 2.53 0 0 1 11 16H5a2.53 2.53 0 0 1-2.52-2.322L1.337 4.5H.75a.75.75 0 0 1 0-1.5h3.664l.23-.917A2.75 2.75 0 0 1 7.312 0zm-4.72 13.493.005.044A1.03 1.03 0 0 0 5 14.5h6a1.03 1.03 0 0 0 1.027-.963l.005-.044 1.12-8.993H2.848zM7.312 1.5a1.25 1.25 0 0 0-1.213.947L5.96 3h4.08l-.139-.553A1.25 1.25 0 0 0 8.688 1.5z"/></svg>