<svg xmlns="http://www.w3.org/2000/svg" width="12" height="12" fill="none" data-fui-icon="true" viewBox="0 0 12 12"><g clip-path="url(#a)"><path fill="currentColor" d="M6.28.57a5.438 5.438 0 0 1 0 10.86l-.28.008q-.646-.001-1.254-.146c-.609-.144-1.067-.214-1.467-.108a17 17 0 0 0-.89.262c-.578.188-1.127-.036-1.463-.372s-.56-.884-.372-1.463l.134-.432q.067-.225.129-.46c.104-.4.034-.858-.11-1.466A5.438 5.438 0 0 1 6 .563zM6 2.062a3.938 3.938 0 0 0-3.833 4.845c.142.599.31 1.392.1 2.192-.082.314-.173.616-.262.893.277-.088.578-.178.893-.26.8-.211 1.595-.043 2.194.099q.437.104.908.105a3.938 3.938 0 0 0 .202-7.87zM4.5 5a1 1 0 1 1 0 2 1 1 0 0 1 0-2m3 0a1 1 0 1 1 0 2 1 1 0 0 1 0-2"/></g><defs><clipPath id="a"><path fill="currentColor" d="M0 0h12v12H0z"/></clipPath></defs></svg>