<svg xmlns="http://www.w3.org/2000/svg" width="32" height="32" fill="none" data-fui-icon="true" viewBox="0 0 32 32"><path fill="currentColor" d="M25.669 4.25a3.417 3.417 0 0 1 3.417 3.417v8.666a3.417 3.417 0 0 1-3.417 3.417h-1.917v1.917a3.416 3.416 0 0 1-3.416 3.416h-6.139l-5.83 3.24a.75.75 0 0 1-1.115-.656v-2.584h-.916a3.417 3.417 0 0 1-3.417-3.416V13a3.417 3.417 0 0 1 3.417-3.417h2.25V7.667a3.417 3.417 0 0 1 3.416-3.417zM6.336 11.083A1.92 1.92 0 0 0 4.419 13v8.667c0 1.058.859 1.916 1.917 1.916h1.666a.75.75 0 0 1 .75.75v2.059l4.886-2.714a.75.75 0 0 1 .364-.095h6.334a1.916 1.916 0 0 0 1.916-1.916v-2.61a1 1 0 0 1 0-.116V13a1.917 1.917 0 0 0-1.916-1.917zm5.666-5.333a1.917 1.917 0 0 0-1.916 1.917v1.916h10.25A3.417 3.417 0 0 1 23.752 13v5.25h1.917a1.917 1.917 0 0 0 1.917-1.917V7.667a1.917 1.917 0 0 0-1.917-1.917z"/></svg>