<svg xmlns="http://www.w3.org/2000/svg" width="32" height="32" fill="none" data-fui-icon="true" viewBox="0 0 32 32"><path fill="currentColor" d="M12.25 3a.75.75 0 0 1 0 1.5h-2.5A5.25 5.25 0 0 0 4.5 9.75v12.5c0 2.9 2.35 5.25 5.25 5.25h12.5c2.9 0 5.25-2.35 5.25-5.25v-2.5a.75.75 0 0 1 1.5 0v2.5A6.75 6.75 0 0 1 22.25 29H9.75A6.75 6.75 0 0 1 3 22.25V9.75A6.75 6.75 0 0 1 9.75 3zm11.958 0a4.8 4.8 0 0 1 3.393 1.4A4.8 4.8 0 0 1 29 7.791a4.87 4.87 0 0 1-1.418 3.437l-9.526 9.526A4.25 4.25 0 0 1 15.05 22h-3.3A1.75 1.75 0 0 1 10 20.25v-3.3a4.25 4.25 0 0 1 1.245-3.006l9.527-9.526A4.87 4.87 0 0 1 24.208 3M12.306 15.005a2.75 2.75 0 0 0-.806 1.944v3.301c0 .138.112.25.25.25h3.3c.73 0 1.43-.29 1.945-.806L23.7 12.99 19.01 8.3zM24.208 4.5c-.889 0-1.751.354-2.376.979L20.07 7.24l4.69 4.69 1.761-1.762a3.37 3.37 0 0 0 .979-2.376 3.3 3.3 0 0 0-.96-2.332 3.3 3.3 0 0 0-2.332-.96"/></svg>