<svg xmlns="http://www.w3.org/2000/svg" width="24" height="24" fill="none" data-fui-icon="true" viewBox="0 0 24 24"><path fill="currentColor" d="M12.784.5a1.5 1.5 0 0 1 1.412.995l.181.505h1.122c.652 0 1.208.417 1.414 1h1.462A2.625 2.625 0 0 1 21 5.625v15.75A2.625 2.625 0 0 1 18.375 24H5.625A2.625 2.625 0 0 1 3 21.375V5.625A2.625 2.625 0 0 1 5.625 3h1.462c.206-.583.762-1 1.414-1h1.122l.18-.505A1.5 1.5 0 0 1 11.217.5zm-7.159 4c-.621 0-1.125.504-1.125 1.125v15.75c0 .621.504 1.125 1.125 1.125h12.75c.621 0 1.125-.504 1.125-1.125V5.625c0-.621-.504-1.125-1.125-1.125H17V5a1.5 1.5 0 0 1-1.5 1.5h-7A1.5 1.5 0 0 1 7 5v-.5zM16.25 17.75a.75.75 0 0 1 0 1.5h-8.5a.75.75 0 0 1 0-1.5zm0-4.5a.75.75 0 0 1 0 1.5h-8.5a.75.75 0 0 1 0-1.5zm0-4.5a.75.75 0 0 1 0 1.5h-8.5a.75.75 0 0 1 0-1.5zm-5.392-5.748-.707-.253v.001za.75.75 0 0 1-.707.498h-1.65l-.001.001V5h7V3.501l-.001-.001h-1.65c-.317 0-.6-.2-.707-.498l.707-.252v-.001l-.707.253L12.784 2h-1.568z"/></svg>