<svg xmlns="http://www.w3.org/2000/svg" width="16" height="16" fill="none" data-fui-icon="true" viewBox="0 0 16 16"><path fill="currentColor" d="M12.835 1.75c1.15 0 2.083.933 2.083 2.083v4.334c0 1.15-.933 2.083-2.083 2.083h-.583v.583c0 1.15-.934 2.084-2.084 2.084H7.195l-2.829 1.572-.09.042a.75.75 0 0 1-1.024-.698v-.916h-.084a2.084 2.084 0 0 1-2.083-2.084V6.5c0-1.15.933-2.083 2.083-2.083h.75v-.584c0-1.15.933-2.083 2.084-2.083zM3.168 5.917a.583.583 0 0 0-.583.583v4.333c0 .322.26.584.583.584h.834a.75.75 0 0 1 .75.75v.39l1.886-1.046.086-.041a.8.8 0 0 1 .278-.053h3.166a.585.585 0 0 0 .584-.584V9.538L10.75 9.5l.002-.04V6.5a.584.584 0 0 0-.584-.583zM6.002 3.25a.584.584 0 0 0-.584.583v.584h4.75c1.15 0 2.084.933 2.084 2.083v2.25h.583a.583.583 0 0 0 .583-.583V3.833a.583.583 0 0 0-.583-.583z"/></svg>