<svg xmlns="http://www.w3.org/2000/svg" width="24" height="24" fill="none" data-fui-icon="true" viewBox="0 0 24 24"><path fill="currentColor" d="M19.42 6.876c1.007 0 2.035.748 2.58 1.499h-.009l-7.876 7.875a3.01 3.01 0 0 1-4.241 0l-.753-.753 7.12-7.122c.013-.016.274-.27.274-.27.685-.653 1.592-1.23 2.906-1.23m-7.13 0c1.006 0 2.034.748 2.58 1.499L8.435 14.81 5.56 11.935l3.56-3.56c.014-.019.263-.27.263-.27.685-.653 1.592-1.23 2.906-1.23m-7.11 0c1.006 0 2.034.748 2.579 1.499l-2.88 2.88L2 8.375c.002-.013.273-.27.273-.27.686-.653 1.592-1.23 2.907-1.23"/></svg>