<svg xmlns="http://www.w3.org/2000/svg" width="16" height="16" fill="none" data-fui-icon="true" viewBox="0 0 16 16"><g clip-path="url(#a)"><path fill="currentColor" fill-rule="evenodd" d="M0 8.066a8 8 0 1 1 16 0 8 8 0 0 1-16 0M5.22 5.22a.75.75 0 0 0 0 1.06L6.94 8 5.22 9.72a.75.75 0 0 0 1.06 1.06L8 9.06l1.72 1.72a.75.75 0 1 0 1.06-1.06L9.06 8l1.72-1.72a.75.75 0 1 0-1.06-1.06L8 6.94 6.28 5.22a.75.75 0 0 0-1.06 0" clip-rule="evenodd"/></g><defs><clipPath id="a"><path fill="currentColor" d="M0 0h16v16H0z"/></clipPath></defs></svg>