<svg xmlns="http://www.w3.org/2000/svg" width="32" height="32" fill="none" data-fui-icon="true" viewBox="0 0 32 32"><path fill="currentColor" d="M21.25 1.5a.75.75 0 0 1 .75.75V5h3.18a4.32 4.32 0 0 1 4.32 4.32v15.86a4.32 4.32 0 0 1-4.32 4.32H6.82a4.32 4.32 0 0 1-4.32-4.32V9.32A4.32 4.32 0 0 1 6.82 5H10V2.25a.75.75 0 0 1 1.5 0V5h9V2.25a.75.75 0 0 1 .75-.75M4 25.18A2.82 2.82 0 0 0 6.82 28h18.36A2.82 2.82 0 0 0 28 25.18V13H4zM6.82 6.5A2.82 2.82 0 0 0 4 9.32v2.18h24V9.32a2.82 2.82 0 0 0-2.82-2.82z"/></svg>