<svg xmlns="http://www.w3.org/2000/svg" width="12" height="12" fill="none" data-fui-icon="true" viewBox="0 0 12 12"><path fill="currentColor" d="M6.001 6.5c2.026 0 3.582 1.219 4.212 2.92.204.553.063 1.1-.26 1.485a1.7 1.7 0 0 1-1.3.595H3.349a1.7 1.7 0 0 1-1.3-.595 1.48 1.48 0 0 1-.26-1.484C2.418 7.718 3.974 6.5 6 6.5m0 1.5c-1.364 0-2.381.795-2.805 1.94h.002c.02.024.072.06.15.06h5.305a.2.2 0 0 0 .151-.06C8.382 8.794 7.366 8 6.002 8m0-7.5a2.625 2.625 0 1 1 0 5.25A2.625 2.625 0 0 1 6 .5M6 2a1.125 1.125 0 1 0 0 2.25A1.125 1.125 0 0 0 6 2"/></svg>