<svg xmlns="http://www.w3.org/2000/svg" width="12" height="12" fill="none" data-fui-icon="true" viewBox="0 0 12 12"><path fill="currentColor" d="M2.25 4a.75.75 0 0 1 0 1.5h-.476a.274.274 0 0 0-.274.274v4.452c0 .151.123.274.274.274h4.452a.274.274 0 0 0 .274-.274V9.75a.75.75 0 0 1 1.5 0v.476C8 11.206 7.206 12 6.226 12H1.774C.794 12 0 11.206 0 10.226V5.774C0 4.794.794 4 1.774 4zm7.976-4C11.206 0 12 .794 12 1.774v4.452C12 7.206 11.206 8 10.226 8H5.774C4.794 8 4 7.206 4 6.226V1.774C4 .794 4.794 0 5.774 0zM5.774 1.5a.274.274 0 0 0-.274.274v4.452c0 .151.123.274.274.274h4.452a.274.274 0 0 0 .274-.274V1.774a.274.274 0 0 0-.274-.274z"/></svg>