<svg xmlns="http://www.w3.org/2000/svg" width="12" height="12" fill="none" data-fui-icon="true" viewBox="0 0 12 12"><path fill="currentColor" d="M6 0a.75.75 0 0 1 .75.75v1.396A2 2 0 0 1 8 4c0 .46-.157.88-.417 1.218l1.169 1.994q.022-.026.046-.052a4.6 4.6 0 0 0 .724-1.344l.004-.014.001-.001v-.002a.75.75 0 0 1 1.446.398L10.25 6l.723.198v.003l-.002.004-.004.013-.011.039-.042.129a6.048 6.048 0 0 1-.94 1.704q-.191.24-.427.477l1.35 2.304a.75.75 0 0 1-1.295.758L8.33 9.458C7.696 9.784 6.926 10 6 10s-1.697-.216-2.331-.542l-1.272 2.17a.751.751 0 0 1-1.295-.757l1.35-2.304a5 5 0 0 1-.427-.477 6 6 0 0 1-.94-1.704 4 4 0 0 1-.053-.168l-.004-.013V6.2s.006-.004.722-.199l-.724.197a.75.75 0 0 1 1.446-.395l.005.014.026.078a4.546 4.546 0 0 0 .7 1.267q.021.025.044.05l1.169-1.993a2 2 0 0 1 .834-3.071V.75A.75.75 0 0 1 6 0m.289 5.976a2 2 0 0 1-.29.024q-.146-.002-.29-.024L4.43 8.16c.43.206.947.339 1.57.339s1.141-.133 1.57-.339zM5.999 3.5A.5.5 0 1 0 6 4.5a.5.5 0 0 0 0-1"/></svg>