<svg xmlns="http://www.w3.org/2000/svg" width="24" height="24" fill="none" data-fui-icon="true" viewBox="0 0 24 24"><path fill="currentColor" d="M11.913 1.25c.78 0 1.53.303 2.086.848l5.88 5.76a2.9 2.9 0 0 1 .871 2.065v9.915c0 1.623-1.338 2.912-2.957 2.912H6.207c-1.618 0-2.957-1.29-2.957-2.912V4.162c0-1.623 1.339-2.912 2.957-2.912zm-5.706 1.5c-.82 0-1.457.647-1.457 1.412v15.676c0 .765.638 1.412 1.457 1.412h11.586c.82 0 1.457-.647 1.457-1.412V9.923q0-.074-.008-.146h-4.208c-1.618 0-2.957-1.29-2.957-2.912V2.76a2 2 0 0 0-.164-.009zm6.052 8a.75.75 0 0 1 .75.75v4.628l1.06-1.06a.75.75 0 0 1 1.06 1.06l-2.174 2.175c-.44.44-1.151.439-1.59 0l-2.002-2a.75.75 0 0 1 1.06-1.06l1.086 1.084V11.5a.75.75 0 0 1 .75-.75m1.318-3.885c0 .765.638 1.412 1.457 1.412h3.13l-4.587-4.494z"/></svg>