<svg xmlns="http://www.w3.org/2000/svg" width="24" height="24" fill="none" data-fui-icon="true" viewBox="0 0 24 24"><path fill="currentColor" d="M15 1.25a.75.75 0 0 1 0 1.5H9.853a2.85 2.85 0 0 0-2.32 1.193L7 4.691A3.72 3.72 0 0 1 3.971 6.25c-1.227 0-2.22.994-2.221 2.22v9.93a2.85 2.85 0 0 0 2.85 2.85h14.8a2.85 2.85 0 0 0 2.85-2.85V10a.75.75 0 0 1 1.5 0v8.4a4.35 4.35 0 0 1-4.35 4.35H4.6A4.35 4.35 0 0 1 .25 18.4V8.47a3.72 3.72 0 0 1 3.72-3.72c.718 0 1.391-.346 1.808-.93l.535-.749a4.35 4.35 0 0 1 3.54-1.821zM12 7.5A5.25 5.25 0 1 1 12 18a5.25 5.25 0 0 1 0-10.5M12 9a3.75 3.75 0 1 0 0 7.5A3.75 3.75 0 0 0 12 9m8-7.75a.75.75 0 0 1 .75.75v2.25H23a.75.75 0 0 1 0 1.5h-2.25V8a.75.75 0 0 1-1.5 0V5.75H17a.75.75 0 0 1 0-1.5h2.25V2a.75.75 0 0 1 .75-.75"/></svg>