<svg xmlns="http://www.w3.org/2000/svg" width="12" height="12" fill="none" data-fui-icon="true" viewBox="0 0 12 12"><g clip-path="url(#a)"><path fill="currentColor" d="M9.84 0A2.16 2.16 0 0 1 12 2.16v1.784a.745.745 0 0 1 0 1.11V9.84A2.16 2.16 0 0 1 9.84 12H2.16A2.16 2.16 0 0 1 0 9.84V5.055a.745.745 0 0 1 0-1.11V2.16A2.16 2.16 0 0 1 2.16 0zM5.25 10.5h4.59a.66.66 0 0 0 .66-.66V5.25H5.25zM1.5 9.84c0 .364.296.66.66.66h1.59V5.25H1.5zm3.75-6.09h5.25V2.16a.66.66 0 0 0-.66-.66H5.25zM2.16 1.5a.66.66 0 0 0-.66.66v1.59h2.25V1.5z"/></g><defs><clipPath id="a"><path fill="currentColor" d="M0 0h12v12H0z"/></clipPath></defs></svg>