<svg xmlns="http://www.w3.org/2000/svg" width="32" height="32" fill="none" data-fui-icon="true" viewBox="0 0 32 32"><path fill="currentColor" d="M25 18.25a.75.75 0 0 1 .75.75v4.25H30a.75.75 0 0 1 0 1.5h-4.25V29a.75.75 0 0 1-1.5 0v-4.25H20a.75.75 0 0 1 0-1.5h4.25V19a.75.75 0 0 1 .75-.75m-.768-8c3.324 0 6.128 2.214 7.124 5.269.259.78.394 1.62.394 2.481a.75.75 0 0 1-1.5 0c0-.706-.11-1.387-.318-2.012l.765-.255-.766.25c-.81-2.48-3.068-4.233-5.699-4.233-2.416 0-4.522 1.49-5.474 3.661a11.4 11.4 0 0 1 2.861 2.893.75.75 0 1 1-1.238.845c-1.868-2.736-5.17-4.533-8.923-4.391-5.487.206-9.708 4.733-9.708 9.933 0 1.379 1.185 2.559 2.734 2.559h13.639a.75.75 0 0 1 0 1.5H4.484C2.181 28.75.25 26.97.25 24.691c0-6.007 4.859-11.196 11.151-11.432a12 12 0 0 1 6.068 1.364c1.212-2.577 3.78-4.373 6.763-4.373m5.7 5.738-.001-.004.713-.233zM11.5 1.25a5.25 5.25 0 1 1 0 10.5 5.25 5.25 0 0 1 0-10.5m0 1.5a3.75 3.75 0 1 0 0 7.5 3.75 3.75 0 0 0 0-7.5m12.5-.5a3.75 3.75 0 1 1 0 7.5 3.75 3.75 0 0 1 0-7.5m0 1.5a2.25 2.25 0 1 0 0 4.5 2.25 2.25 0 0 0 0-4.5"/></svg>