<svg xmlns="http://www.w3.org/2000/svg" width="16" height="16" fill="none" data-fui-icon="true" viewBox="0 0 16 16"><path fill="currentColor" d="M8.053 1.75c-2.35 0-3.894 1.102-4.803 2.4V2.662a.75.75 0 0 0-1.5 0v3.54c0 .757.61 1.384 1.379 1.384h3.514a.75.75 0 0 0 0-1.5H3.919C4.392 4.75 5.654 3.25 8.053 3.25c2.893 0 4.697 2.157 4.697 4.75s-1.804 4.75-4.697 4.75c-1.912 0-3.452-1.046-4.197-2.368a.75.75 0 0 0-1.307.736c1 1.778 3.033 3.132 5.504 3.132 3.81 0 6.197-2.92 6.197-6.25s-2.387-6.25-6.197-6.25"/></svg>