<svg xmlns="http://www.w3.org/2000/svg" width="32" height="32" fill="none" data-fui-icon="true" viewBox="0 0 32 32"><path fill="currentColor" d="M16 1a.75.75 0 0 1 .75.75v3.298A6 6 0 0 1 22 11a5.98 5.98 0 0 1-2.06 4.523l3.22 7.75a11 11 0 0 0 1.117-.939c.824-.792 1.4-1.584 1.768-2.176a9 9 0 0 0 .489-.893l.02-.044.002-.006v-.001a.75.75 0 0 1 1.387.572l-.693-.286.692.287v.004l-.004.006-.009.02-.03.07a10.516 10.516 0 0 1-.581 1.064c-.42.674-1.07 1.57-2 2.465-.455.436-.975.87-1.565 1.28l2.19 5.266a.75.75 0 0 1-1.386.576l-2.103-5.058C20.769 26.369 18.642 27 16 27c-2.644 0-4.771-.632-6.456-1.52l-2.102 5.058a.75.75 0 0 1-1.385-.576l2.189-5.267c-.59-.409-1.11-.843-1.564-1.279a13 13 0 0 1-2-2.465 11 11 0 0 1-.582-1.064l-.03-.07-.009-.02-.003-.006v-.003c.004-.003.057-.026.692-.288l-.694.286a.75.75 0 0 1 1.387-.572l.003.007.02.044q.028.062.09.188c.084.166.215.41.399.705a11.264 11.264 0 0 0 2.883 3.114l3.221-7.75a6 6 0 0 1 3.19-10.475V1.75A.75.75 0 0 1 16 1m2.668 15.373c-.804.4-1.71.627-2.668.627-.96 0-1.865-.227-2.67-.627l-3.208 7.717c1.507.818 3.437 1.41 5.878 1.41 2.44 0 4.37-.593 5.876-1.41zM16 6.5a4.5 4.5 0 1 0 0 9 4.5 4.5 0 0 0 0-9"/></svg>