<svg xmlns="http://www.w3.org/2000/svg" width="24" height="24" fill="none" data-fui-icon="true" viewBox="0 0 24 24"><path fill="currentColor" d="M12 1a.75.75 0 0 1 .75.75v2.306A5 5 0 0 1 17 9a4.98 4.98 0 0 1-1.515 3.583l1.946 4.094q.226-.179.427-.359a8.7 8.7 0 0 0 1.324-1.503 7 7 0 0 0 .377-.61l.015-.028q.001-.005.002-.005a.751.751 0 0 1 1.35.654l-.675-.326.674.326v.001l-.011.024-.027.05-.096.175c-.083.147-.207.351-.375.593a10.2 10.2 0 0 1-1.554 1.763 10 10 0 0 1-.774.627l1.84 3.869a.751.751 0 0 1-1.355.644l-1.766-3.713C15.54 19.522 13.95 20 12.001 20c-1.95 0-3.54-.478-4.81-1.14l-1.763 3.712a.751.751 0 0 1-1.355-.644L5.91 18.06a10.217 10.217 0 0 1-2.326-2.39 8 8 0 0 1-.471-.769l-.027-.05-.011-.024c.006-.005.07-.036.674-.327l-.675.326a.75.75 0 0 1 1.35-.654l.002.005.015.028q.02.041.07.127c.064.113.166.28.307.483a8.7 8.7 0 0 0 1.749 1.862l1.947-4.094a5 5 0 0 1 2.735-8.527V1.75A.75.75 0 0 1 12 1m2.245 12.467A5 5 0 0 1 12 14c-.808 0-1.57-.193-2.246-.533l-1.92 4.038c1.086.576 2.46.995 4.166.995 1.705 0 3.077-.42 4.163-.995zM12 5.5a3.5 3.5 0 1 0 0 7 3.5 3.5 0 0 0 0-7"/></svg>