<svg xmlns="http://www.w3.org/2000/svg" width="20" height="21" fill="none" data-fui-icon="true" viewBox="0 0 20 21"><path fill="currentColor" d="M9.008.953a2 2 0 0 1 1.984 0l7.5 4.286A2 2 0 0 1 19.5 6.977v.941c0 .644-.523 1.166-1.167 1.166H18v6.769a2.157 2.157 0 0 1-.656 4.21H2.656A2.156 2.156 0 0 1 2 15.853V9.083h-.333A1.167 1.167 0 0 1 .5 7.917v-.941a2 2 0 0 1 1.008-1.737zM2.656 17.25a.656.656 0 0 0 0 1.313h14.688a.656.656 0 0 0 0-1.313zM3.5 9.083v6.667h2V9.083zm3.5 0v6.667h6V9.083zm7.5 0v6.667h2V9.083zm-4.252-6.827a.5.5 0 0 0-.496 0l-7.5 4.285A.5.5 0 0 0 2 6.976v.607h16v-.607a.5.5 0 0 0-.252-.435z"/></svg>