<svg xmlns="http://www.w3.org/2000/svg" width="32" height="32" fill="none" data-fui-icon="true" viewBox="0 0 32 32"><path fill="currentColor" d="M10.494 1c.784 0 1.392.51 1.68 1.104a4.252 4.252 0 0 0 7.652 0C20.114 1.51 20.722 1 21.506 1h4.244a2.75 2.75 0 0 1 2.75 2.75v24.5A2.75 2.75 0 0 1 25.75 31h-4.244c-.784 0-1.392-.51-1.68-1.104a4.252 4.252 0 0 0-7.652 0c-.288.593-.896 1.104-1.68 1.104H6.25a2.75 2.75 0 0 1-2.75-2.75V3.75A2.75 2.75 0 0 1 6.25 1zM6.25 2.5C5.56 2.5 5 3.06 5 3.75v24.5c0 .69.56 1.25 1.25 1.25h4.244c.09 0 .238-.067.331-.26a5.75 5.75 0 0 1 10.35 0c.093.193.24.26.33.26h4.245c.69 0 1.25-.56 1.25-1.25V3.75c0-.69-.56-1.25-1.25-1.25h-4.244c-.09 0-.238.067-.331.26a5.75 5.75 0 0 1-10.35 0c-.093-.193-.24-.26-.33-.26zm14.47 7.72a.75.75 0 0 1 1.06 1.06L17.06 16l4.72 4.72a.75.75 0 1 1-1.06 1.06L16 17.06l-4.72 4.72a.75.75 0 1 1-1.06-1.06L14.94 16l-4.72-4.72a.75.75 0 0 1 1.06-1.06L16 14.94z"/></svg>