<svg xmlns="http://www.w3.org/2000/svg" width="16" height="16" fill="none" data-fui-icon="true" viewBox="0 0 16 16"><path fill="currentColor" d="M8 0c1.193 0 2.13 0 2.884.057.761.057 1.398.176 1.981.447a5.42 5.42 0 0 1 2.631 2.63c.271.584.39 1.22.447 1.982C16 5.87 16 6.806 16 8s0 2.13-.057 2.884c-.057.761-.176 1.398-.447 1.981a5.42 5.42 0 0 1-2.63 2.631c-.584.271-1.22.39-1.982.447C10.13 16 9.194 16 8 16s-2.13 0-2.884-.057c-.762-.057-1.398-.176-1.981-.447a5.42 5.42 0 0 1-2.631-2.63c-.271-.584-.39-1.22-.447-1.982C0 10.13 0 9.194 0 8s0-2.13.057-2.884c.057-.762.176-1.398.447-1.981A5.42 5.42 0 0 1 3.134.504c.584-.271 1.22-.39 1.982-.447C5.87 0 6.806 0 8 0m0 1.5c-1.216 0-2.086 0-2.77.052-.677.05-1.112.149-1.463.312a3.92 3.92 0 0 0-1.903 1.903c-.163.351-.261.786-.312 1.462C1.5 5.914 1.5 6.784 1.5 8s0 2.086.052 2.77c.05.677.149 1.112.312 1.463a3.92 3.92 0 0 0 1.903 1.903c.351.163.786.261 1.462.312.685.052 1.555.052 2.771.052s2.086 0 2.77-.052c.677-.05 1.112-.149 1.463-.312a3.92 3.92 0 0 0 1.903-1.903c.163-.351.261-.786.312-1.463.052-.684.052-1.554.052-2.77s0-2.086-.052-2.77c-.05-.677-.149-1.112-.312-1.463a3.92 3.92 0 0 0-1.903-1.903c-.351-.163-.786-.261-1.463-.312C10.087 1.5 9.217 1.5 8 1.5M4.738 5.25c.618 0 1.078.164 1.4.361a2 2 0 0 1 .465.396l.045.06.005.008.002.004.002.001v.001c-.002.002-.04.029-.506.342l.507-.341a.75.75 0 0 1-1.199.898l-.022-.029a.5.5 0 0 0-.08-.06c-.086-.053-.276-.14-.619-.14A.74.74 0 0 0 4 7.489v.85c0 .501.406.907.906.907a.38.38 0 0 0 .365-.285A.747.747 0 0 1 5.5 7.5h.099c.655 0 1.186.53 1.186 1.186v.18a1.88 1.88 0 0 1-1.879 1.88A2.407 2.407 0 0 1 2.5 8.34v-.85a2.24 2.24 0 0 1 2.238-2.24m3.557 0a.75.75 0 0 1 .75.751v3.995a.75.75 0 0 1-1.5 0V6.001a.75.75 0 0 1 .75-.751m4.456 0a.751.751 0 0 1 0 1.501h-1.3v.497h.986a.75.75 0 0 1 0 1.5h-.987v1.248a.75.75 0 0 1-1.5 0V6.501c0-.69.56-1.251 1.25-1.251z"/></svg>