<svg xmlns="http://www.w3.org/2000/svg" width="20" height="20" fill="none" data-fui-icon="true" viewBox="0 0 20 20"><path fill="currentColor" d="M12.45 1A2.55 2.55 0 0 1 15 3.55v4.077c0 .204.05.406.145.586l1.615 3.042c.9 1.698-.33 3.745-2.253 3.745H10.75v3.25a.75.75 0 0 1-1.5 0V15H5.493c-1.923 0-3.154-2.047-2.253-3.745l1.614-3.042C4.95 8.033 5 7.83 5 7.627V3.55A2.55 2.55 0 0 1 7.55 1zm-4.9 1.5c-.58 0-1.05.47-1.05 1.05v4.077c0 .45-.11.892-.32 1.289l-1.615 3.042a1.05 1.05 0 0 0 .928 1.542h9.014a1.05 1.05 0 0 0 .927-1.542L13.82 8.916c-.21-.397-.32-.84-.32-1.29V3.551c0-.58-.47-1.05-1.05-1.05z"/></svg>