<svg xmlns="http://www.w3.org/2000/svg" width="20" height="20" fill="none" data-fui-icon="true" viewBox="0 0 20 20"><path fill="currentColor" d="M7.209 1C8.391 1 9.443 1.645 10 2.628A3.21 3.21 0 0 1 12.791 1h.459a2.75 2.75 0 0 1 2.438 4.018h1.552c.972 0 1.76.788 1.76 1.76v1.471c0 .883-.651 1.612-1.5 1.738v6.453A2.56 2.56 0 0 1 14.94 19H5.06a2.56 2.56 0 0 1-2.56-2.56V9.987A1.76 1.76 0 0 1 1 8.25V6.777c0-.971.788-1.76 1.76-1.76h1.552A2.75 2.75 0 0 1 6.75 1zM4 16.44c0 .585.474 1.06 1.06 1.06h4.19v-7.491H4zm6.75 1.06h4.19A1.06 1.06 0 0 0 16 16.44V10.01h-5.25zM2.76 6.518a.26.26 0 0 0-.26.26v1.471c0 .143.116.26.26.26h6.49V6.518zm7.99 1.99h6.49a.26.26 0 0 0 .26-.259V6.777a.26.26 0 0 0-.26-.26h-6.49zm-4-6.008a1.25 1.25 0 1 0 0 2.5h2.346l-.207-1.105A1.71 1.71 0 0 0 7.209 2.5zm6.041 0a1.71 1.71 0 0 0-1.68 1.395L10.904 5h2.346a1.25 1.25 0 1 0 0-2.5z"/></svg>