<svg xmlns="http://www.w3.org/2000/svg" width="12" height="12" fill="none" data-fui-icon="true" viewBox="0 0 12 12"><path fill="currentColor" d="M10.493 1.87a.6.6 0 0 1 .357.106.4.4 0 0 1 .131.249c.011.07.027.234.015.36-.139 1.452-.74 4.975-1.044 6.6-.128.688-.383.918-.63.94-.534.05-.94-.351-1.458-.69-.81-.529-1.267-.859-2.054-1.375-.91-.598-.32-.926.198-1.462.138-.143 2.49-2.274 2.536-2.47.006-.024.012-.115-.043-.162-.053-.048-.131-.032-.189-.019q-.122.028-3.885 2.559-.55.377-.999.368c-.328-.007-.961-.186-1.431-.338-.576-.187-1.035-.286-.995-.603q.031-.249.685-.507a448 448 0 0 1 5.37-2.306c2.558-1.06 3.089-1.244 3.436-1.25"/></svg>