<svg xmlns="http://www.w3.org/2000/svg" width="20" height="20" fill="none" data-fui-icon="true" viewBox="0 0 20 20"><path fill="currentColor" d="M15.208 2.375a2.417 2.417 0 0 1 2.417 2.417v10.416a2.417 2.417 0 0 1-2.417 2.417H4.792a2.417 2.417 0 0 1-2.417-2.417V4.792a2.417 2.417 0 0 1 2.417-2.417zm-10.416 1.5a.917.917 0 0 0-.917.917v10.416c0 .506.41.917.917.917h10.416c.506 0 .917-.41.917-.917V4.792a.917.917 0 0 0-.917-.917zm2.013 6.5c.752 0 1.55.55 1.55 1.444 0 .478-.23.83-.472 1.069a.75.75 0 0 1-.133 1.487H5.875a.75.75 0 0 1-.746-.673l-.004-.077c0-.515.31-.857.543-1.05.226-.187.515-.343.703-.449.176-.1.298-.175.385-.242a.5.5 0 0 0-.14.06 1 1 0 0 0-.09.059l-.018.016q0 0 .002-.003a.75.75 0 0 1-1.025-1.096l.23.243-.229-.243v-.001h.001l.001-.002.004-.003.009-.008a2 2 0 0 1 .1-.084c.062-.048.149-.11.256-.174a1.9 1.9 0 0 1 .948-.273m7.32 1.25a.75.75 0 0 1 0 1.5h-4.25a.75.75 0 0 1 0-1.5zm-7.43-5.864a.75.75 0 0 1 1.18.614v2.5a.75.75 0 0 1-1.5 0v-1.06l-.07.05a.75.75 0 1 1-.86-1.23zm7.43 1.114a.75.75 0 0 1 0 1.5h-4.25a.75.75 0 0 1 0-1.5z"/></svg>