<svg xmlns="http://www.w3.org/2000/svg" width="24" height="24" fill="none" data-fui-icon="true" viewBox="0 0 24 24"><path fill="currentColor" d="M19.01 1.75a3.24 3.24 0 0 1 3.24 3.24v14.02a3.24 3.24 0 0 1-3.24 3.24H4.99a3.24 3.24 0 0 1-3.24-3.24V4.99a3.24 3.24 0 0 1 3.24-3.24zm-9.76 19h9.76c.96 0 1.74-.78 1.74-1.74v-9.7H9.25zm-6-1.74c0 .96.78 1.74 1.74 1.74h2.76V9.31h-4.5zM9.204 3.25a.7.7 0 0 1 .046.25v4.31h11.5V4.99c0-.96-.78-1.74-1.74-1.74zm-4.214 0c-.96 0-1.74.78-1.74 1.74v2.82h4.5V3.5q.002-.132.046-.25z"/></svg>