<svg xmlns="http://www.w3.org/2000/svg" width="24" height="24" fill="none" data-fui-icon="true" viewBox="0 0 24 24"><path fill="currentColor" d="M6.251 9.938A.75.75 0 1 1 7.311 11L4.68 13.633a4.023 4.023 0 1 0 5.688 5.688l2.634-2.633a.75.75 0 1 1 1.06 1.061l-2.632 2.634a5.524 5.524 0 0 1-7.812-7.812zM14.72 8.22a.75.75 0 1 1 1.06 1.06l-6.5 6.5a.75.75 0 1 1-1.06-1.06zM16.477 2a5.524 5.524 0 0 1 3.906 9.429l-2.634 2.633A.75.75 0 1 1 16.689 13l2.632-2.634a4.022 4.022 0 1 0-5.688-5.688l-2.634 2.633a.75.75 0 1 1-1.06-1.061l2.632-2.634A5.52 5.52 0 0 1 16.477 2"/></svg>