<svg xmlns="http://www.w3.org/2000/svg" width="12" height="12" fill="none" data-fui-icon="true" viewBox="0 0 12 12"><path fill="currentColor" d="M5.111.563c.547 0 1.037.249 1.36.64a1.763 1.763 0 0 1 2.438 1.63v.169L9 3c.448 0 .895.163 1.224.525.323.357.463.831.463 1.334v1.9c0 2.665-2.109 4.679-4.687 4.679S1.313 9.424 1.313 6.76V3.34a1.765 1.765 0 0 1 2.176-1.715A1.77 1.77 0 0 1 5.111.563m0 1.5a.265.265 0 0 0-.266.263V4.86a.75.75 0 0 1-1.5 0V3.34l-.005-.052a.266.266 0 0 0-.26-.21.265.265 0 0 0-.268.263v3.42C2.813 8.575 4.23 9.938 6 9.938S9.188 8.575 9.188 6.76v-1.9c0-.232-.063-.312-.077-.327C9.103 4.524 9.081 4.5 9 4.5a1 1 0 0 0-.081.004 1 1 0 0 0-.01.148c0 .42-.067.765-.182 1.065a3.2 3.2 0 0 1-.374.674c-.205.295-.29.41-.29.734a.75.75 0 0 1-1.5 0c0-.821.337-1.27.556-1.587.102-.147.163-.245.208-.362.043-.111.082-.27.082-.524V2.833a.265.265 0 0 0-.265-.264.265.265 0 0 0-.267.264v1.52a.75.75 0 0 1-1.5 0V2.327a.265.265 0 0 0-.266-.264"/></svg>