<svg xmlns="http://www.w3.org/2000/svg" width="20" height="20" fill="none" data-fui-icon="true" viewBox="0 0 20 20"><path fill="currentColor" d="M5.519 15.742a.75.75 0 1 1 1.075 1.046l-1.389 1.429A.75.75 0 0 1 4.13 17.17zm-1.852-1.904a.75.75 0 1 1 1.076 1.045l-2.315 2.38a.75.75 0 0 1-1.076-1.044zM17.248 1.562a1.49 1.49 0 0 1 1.607 1.607c-.25 3.162-1.827 5.604-4.132 7.781v3.332c0 .58-.316 1.112-.824 1.39h-.001l-.359-.658-.359-.659a.08.08 0 0 0 .043-.073v-2.101l-3.083 2.448v1.244q.001.03.01.042.009.015.031.03.024.012.041.012c.01 0 .023 0 .041-.01l2.917-1.591.718 1.316-2.916 1.59a1.584 1.584 0 0 1-2.342-1.389v-1.295l-2.802-2.802H4.544a1.583 1.583 0 0 1-1.39-2.34l.658.358.66.36a.1.1 0 0 0-.013.04.1.1 0 0 0 .013.041.1.1 0 0 0 .03.032q.012.009.042.01h1.243l2.449-3.084h-2.1a.08.08 0 0 0-.074.043l-1.59 2.917-1.318-.718 1.59-2.916a1.59 1.59 0 0 1 1.391-.826h3.33c2.178-2.305 4.621-3.882 7.783-4.131m.11 1.495c-2.75.22-4.921 1.612-7.001 3.877l-3.204 4.035 2.294 2.295 4.03-3.2c2.268-2.082 3.662-4.254 3.882-7.007m-3.39 1.948a1.407 1.407 0 1 1-.002 2.813 1.407 1.407 0 0 1 .001-2.813"/></svg>