<svg xmlns="http://www.w3.org/2000/svg" width="17" height="16" fill="none" data-fui-icon="true" viewBox="0 0 17 16"><path fill="currentColor" d="M10.886 1.35c.93 0 1.784.337 2.438.894a5.6 5.6 0 0 0 1.177-.443l.114-.048a.78.78 0 0 1 .748.148.76.76 0 0 1 .205.87c.45.047.766.583.468 1.019a6.8 6.8 0 0 1-1.414 1.518l.002.074c0 4.292-3.321 9.268-9.407 9.268a9.46 9.46 0 0 1-4.556-1.163.77.77 0 0 1-.364-.91.78.78 0 0 1 .77-.548l.168.002c.76 0 1.483-.151 2.142-.423a3.7 3.7 0 0 1-1.724-1.884.73.73 0 0 1 .062-.707A3.65 3.65 0 0 1 .454 6.259c0-.28.163-.502.382-.607a3.639 3.639 0 0 1 .044-3.24c.252-.49.859-.527 1.206-.214l.066.068.27.297A8.13 8.13 0 0 0 7.16 4.995c.019-2.026 1.69-3.645 3.727-3.645m0 1.3c-1.35 0-2.427 1.075-2.427 2.38q0 .279.062.543l.194.838-.859-.042a9.44 9.44 0 0 1-6.059-2.594q-.018.15-.018.302c0 .82.424 1.55 1.076 1.979L4.78 7.322l-2.303-.074a4 4 0 0 1-.527-.056 2.42 2.42 0 0 0 1.718 1.393l.034.007L5.713 9l-1.88.823c-.1.044-.21.067-.277.08a4 4 0 0 1-.25.037c.434.476 1.06.781 1.763.793l1.853.033-1.467 1.131a6.9 6.9 0 0 1-2.35 1.176 8.2 8.2 0 0 0 2.112.276c5.237 0 8.107-4.255 8.107-7.968q0-.18-.01-.362l-.015-.354.288-.206.04-.03a.73.73 0 0 1-.324-.375.73.73 0 0 1-.003-.471l-.045.01-.348.067-.244-.256a2.45 2.45 0 0 0-1.777-.755"/></svg>