<svg xmlns="http://www.w3.org/2000/svg" width="12" height="12" fill="none" data-fui-icon="true" viewBox="0 0 12 12"><path fill="currentColor" d="M5.957.75C2.756.75.75 3.208.75 6s2.006 5.25 5.207 5.25a5.27 5.27 0 0 0 4.39-2.333.751.751 0 0 0-1.248-.834A3.77 3.77 0 0 1 5.957 9.75C3.673 9.75 2.25 8.055 2.25 6s1.423-3.75 3.707-3.75c1.782 0 2.765 1.047 3.184 2.048H8.5a.75.75 0 0 0 0 1.5h1.485c.705 0 1.265-.575 1.265-1.269V2a.75.75 0 0 0-1.5 0v.446C8.964 1.501 7.735.75 5.957.75m.043 3a.75.75 0 0 0-.75.75V6c0 .15.044.294.126.416l.094.114 1 1a.75.75 0 1 0 1.06-1.06l-.78-.78V4.5A.75.75 0 0 0 6 3.75"/></svg>