<svg xmlns="http://www.w3.org/2000/svg" width="20" height="20" fill="none" data-fui-icon="true" viewBox="0 0 20 20"><path fill="currentColor" d="M13.125.813a4.81 4.81 0 0 1 4.813 4.812v8.75a4.81 4.81 0 0 1-4.813 4.813h-6.25a4.81 4.81 0 0 1-4.812-4.813v-8.75A4.813 4.813 0 0 1 6.875.813zm-6.25 1.5a3.313 3.313 0 0 0-3.312 3.312v8.75a3.313 3.313 0 0 0 3.312 3.313h6.25a3.313 3.313 0 0 0 3.313-3.313v-8.75a3.313 3.313 0 0 0-3.313-3.312zM10 8.125a3.75 3.75 0 1 1 0 7.5 3.75 3.75 0 0 1 0-7.5m0 1.5a2.25 2.25 0 1 0 0 4.5 2.25 2.25 0 0 0 0-4.5m0-5.25a1.25 1.25 0 1 1 0 2.5 1.25 1.25 0 0 1 0-2.5"/></svg>