<svg xmlns="http://www.w3.org/2000/svg" width="32" height="32" fill="none" data-fui-icon="true" viewBox="0 0 32 32"><path fill="currentColor" d="M11.145 2.536a.75.75 0 0 1 .974.62l.003.02.019.1a4.706 4.706 0 0 0 .632 1.57C13.3 5.669 14.236 6.5 16 6.5s2.7-.831 3.227-1.654a4.7 4.7 0 0 0 .65-1.67l.004-.02a.75.75 0 0 1 1.058-.588l9.936 4.57a1.75 1.75 0 0 1 .835 2.37l-2.28 4.57a1.75 1.75 0 0 1-2.078.89L26 14.555V27.75a1.75 1.75 0 0 1-1.75 1.75H7.75A1.75 1.75 0 0 1 6 27.75V14.554l-1.352.415a1.75 1.75 0 0 1-2.079-.892L.29 9.51a1.75 1.75 0 0 1 .835-2.371l9.937-4.57z"/></svg>