<svg xmlns="http://www.w3.org/2000/svg" width="12" height="12" fill="none" data-fui-icon="true" viewBox="0 0 12 12"><path fill="currentColor" d="M9.72 1.22a.75.75 0 0 1 1.06 1.06L7.842 5.22A2 2 0 0 1 5.22 7.84l-2.938 2.94A.75.75 0 0 1 1.22 9.72l2.938-2.94A2 2 0 0 1 6.78 4.158zm.554 3.011a.75.75 0 0 1 1.03.25c.314.512.51.935.595 1.127a.98.98 0 0 1 0 .782 9.9 9.9 0 0 1-1.613 2.51C9.348 9.946 7.925 11 6 11q-.401 0-.778-.06a.75.75 0 1 1 .228-1.482q.265.041.55.042c1.332 0 2.381-.721 3.168-1.6A8.4 8.4 0 0 0 10.425 6a8 8 0 0 0-.4-.738.75.75 0 0 1 .249-1.03M6 1q.402 0 .779.06a.75.75 0 0 1-.229 1.482A3.6 3.6 0 0 0 6 2.5c-1.331 0-2.38.721-3.168 1.6A8.4 8.4 0 0 0 1.574 6c.089.183.22.443.402.74a.75.75 0 0 1-1.28.78 10 10 0 0 1-.594-1.127A.97.97 0 0 1 .1 5.61 9.9 9.9 0 0 1 1.714 3.1C2.652 2.054 4.076 1 6 1"/></svg>