<svg xmlns="http://www.w3.org/2000/svg" width="24" height="24" fill="none" data-fui-icon="true" viewBox="0 0 24 24"><path fill="currentColor" d="M3.75 16a.75.75 0 0 1 .75.75v3.5a.75.75 0 0 1-1.5 0v-3.5a.75.75 0 0 1 .75-.75m4-6a.75.75 0 0 1 .75.75v9.5a.75.75 0 0 1-1.5 0v-9.5a.75.75 0 0 1 .75-.75m4-4a.75.75 0 0 1 .75.75v13.5a.75.75 0 0 1-1.5 0V6.75a.75.75 0 0 1 .75-.75m4 5a.75.75 0 0 1 .75.75v8.5a.75.75 0 0 1-1.5 0v-8.5a.75.75 0 0 1 .75-.75m4-9a.75.75 0 0 1 .75.75v17.5a.75.75 0 0 1-1.5 0V2.75a.75.75 0 0 1 .75-.75"/></svg>