<svg xmlns="http://www.w3.org/2000/svg" width="16" height="16" fill="none" data-fui-icon="true" viewBox="0 0 16 16"><path fill="currentColor" d="M5.25 0a.75.75 0 0 1 0 1.5h-1A2.75 2.75 0 0 0 1.5 4.25v7.5a2.75 2.75 0 0 0 2.75 2.75h7.5a2.75 2.75 0 0 0 2.75-2.75v-1a.75.75 0 0 1 1.5 0v1A4.25 4.25 0 0 1 11.75 16h-7.5A4.25 4.25 0 0 1 0 11.75v-7.5A4.25 4.25 0 0 1 4.25 0zm5.875.813a2.75 2.75 0 0 1 3.89 0l.172.172a2.75 2.75 0 0 1 0 3.889l-5.32 5.32A2.75 2.75 0 0 1 7.921 11H6.25C5.56 11 5 10.44 5 9.75V8.078c0-.73.29-1.429.806-1.944L9.54 2.399zM6.866 7.194a1.25 1.25 0 0 0-.366.884V9.5h1.422c.331 0 .65-.132.884-.366L12.01 5.93l-1.94-1.94zm7.088-5.32a1.25 1.25 0 0 0-1.767 0L11.13 2.93l1.938 1.938 1.056-1.055a1.25 1.25 0 0 0 0-1.767z"/></svg>