<svg xmlns="http://www.w3.org/2000/svg" width="16" height="16" fill="none" data-fui-icon="true" viewBox="0 0 16 16"><path fill="currentColor" d="M8.001 8.5c2.591 0 4.577 1.554 5.382 3.731.238.645.074 1.281-.304 1.732a2.02 2.02 0 0 1-1.543.704H4.465a2.02 2.02 0 0 1-1.542-.704 1.73 1.73 0 0 1-.304-1.732C3.425 10.054 5.41 8.5 8.001 8.5m0 1.5c-1.93 0-3.376 1.131-3.976 2.752a.23.23 0 0 0 .046.247c.076.09.217.168.394.168h7.071a.52.52 0 0 0 .394-.168.23.23 0 0 0 .046-.247C11.376 11.132 9.93 10 8 10m0-9a3.25 3.25 0 1 1 0 6.5A3.25 3.25 0 0 1 8 1m0 1.5a1.75 1.75 0 1 0 0 3.5 1.75 1.75 0 0 0 0-3.5"/></svg>