<svg xmlns="http://www.w3.org/2000/svg" width="12" height="12" fill="none" data-fui-icon="true" viewBox="0 0 12 12"><path fill="currentColor" d="M10.324 10.713c-.293.09-.729.142-1.145.178-.44.037-.942.06-1.41.077a57 57 0 0 1-1.234.028L6.146 11 6.04 11h-.078l-.107-.001c-.093 0-.227 0-.39-.003a57 57 0 0 1-1.234-.028c-.467-.016-.968-.04-1.409-.077-.416-.036-.852-.087-1.145-.178l.444-1.434c.117.036.398.08.827.117.405.034.879.057 1.334.073a56 56 0 0 0 1.58.031h.278a61 61 0 0 0 1.58-.031c.455-.016.929-.04 1.334-.073.429-.037.71-.08.827-.117zM1.7 8.753c.07.305.26.477.42.526l-.444 1.434C.93 10.483.41 9.833.239 9.092l.73-.17zm4.446-7.752c.093 0 .227 0 .39.003.323.004.765.012 1.234.028.467.016.968.04 1.409.077.416.036.852.087 1.145.178l.137.049c.672.264 1.139.878 1.3 1.572.126.548.183 1.343.21 1.952A30 30 0 0 1 12 5.907l.001.068v.118l-.004.243c-.003.205-.01.489-.024.804-.028.61-.084 1.403-.211 1.952-.172.74-.691 1.39-1.437 1.62L9.881 9.28c.158-.049.348-.221.419-.525v-.001c.092-.398.146-1.065.174-1.68a28 28 0 0 0 .026-.992V5.92l-.004-.23c-.003-.195-.01-.464-.023-.761-.028-.615-.081-1.283-.173-1.682-.062-.266-.215-.432-.359-.502l-.061-.023V2.72c-.117-.036-.398-.08-.827-.116a28 28 0 0 0-1.334-.073 56 56 0 0 0-1.58-.031H5.86a61 61 0 0 0-1.58.031c-.455.016-.929.04-1.334.073-.429.037-.71.08-.827.116l-.444-1.433c.293-.09.729-.142 1.145-.178.44-.037.942-.06 1.41-.077.468-.016.91-.024 1.234-.028L5.854 1 5.96 1h.078zM1.7 3.247c-.092.398-.146 1.065-.174 1.68a28 28 0 0 0-.026.992v.162a24 24 0 0 0 .026.992c.028.615.082 1.282.174 1.68l-1.46.339C.111 8.543.055 7.749.027 7.14c-.014-.315-.02-.6-.024-.804L0 6.093v-.186l.004-.243c.003-.205.01-.489.024-.804.028-.61.084-1.403.211-1.952zm3.34 1.536a.25.25 0 0 1 .375-.217l2.107 1.217a.25.25 0 0 1 0 .434L5.415 7.434a.25.25 0 0 1-.375-.217zM2.12 2.721c-.16.049-.35.221-.42.525v.001l-.73-.17-.73-.169c.17-.74.69-1.39 1.436-1.62z"/></svg>