<svg xmlns="http://www.w3.org/2000/svg" width="32" height="32" fill="none" data-fui-icon="true" viewBox="0 0 32 32"><path fill="currentColor" d="M5.393 5.393A3.77 3.77 0 0 1 8.057 4.29h15.885a3.767 3.767 0 0 1 3.768 3.767v15.885a3.77 3.77 0 0 1-3.768 3.768H8.057a3.77 3.77 0 0 1-3.767-3.768V8.057c0-.999.397-1.957 1.103-2.664m1.061 1.061a2.27 2.27 0 0 0-.664 1.603v15.885a2.27 2.27 0 0 0 2.267 2.268h15.885a2.27 2.27 0 0 0 2.268-2.268V8.057a2.27 2.27 0 0 0-2.268-2.267H8.057c-.601 0-1.178.239-1.603.664m13.258 13.258a1.75 1.75 0 1 1 2.475 2.475 1.75 1.75 0 0 1-2.475-2.475m-9.9 0a1.75 1.75 0 1 1 2.476 2.475 1.75 1.75 0 0 1-2.475-2.475m4.95-4.95a1.75 1.75 0 1 1 2.475 2.476 1.75 1.75 0 0 1-2.474-2.475m4.95-4.95a1.75 1.75 0 1 1 2.475 2.476 1.75 1.75 0 0 1-2.475-2.475m-9.9 0a1.75 1.75 0 1 1 2.476 2.476 1.75 1.75 0 0 1-2.475-2.475"/></svg>