<svg xmlns="http://www.w3.org/2000/svg" width="20" height="20" fill="none" data-fui-icon="true" viewBox="0 0 20 20"><path fill="currentColor" d="M1.22 1.22a.75.75 0 0 1 1.06 0l16.5 16.5a.75.75 0 0 1-1.06 1.06l-3.693-3.692a.3.3 0 0 0-.212-.088H11.05a.3.3 0 0 0-.3.3v2.95a.75.75 0 0 1-1.5 0V15.3a.3.3 0 0 0-.3-.3H5.493c-1.922 0-3.154-2.047-2.253-3.745l1.614-3.042C4.95 8.033 5 7.83 5 7.627V6.185a.3.3 0 0 0-.088-.212L1.22 2.28a.75.75 0 0 1 0-1.06M12.45 1A2.55 2.55 0 0 1 15 3.55v4.077c0 .204.05.406.146.586l1.614 3.042c.347.654.377 1.36.173 1.98-.063.194-.305.232-.45.089L5.546 2.384a.28.28 0 0 1-.034-.363A2.54 2.54 0 0 1 7.55 1z"/></svg>