<svg xmlns="http://www.w3.org/2000/svg" width="16" height="16" fill="none" data-fui-icon="true" viewBox="0 0 16 16"><path fill="currentColor" d="M12.833 1.75c1.15 0 2.083.933 2.083 2.083v7c0 1.15-.932 2.084-2.083 2.084H10.28l-1.376 1.14a1.42 1.42 0 0 1-1.813-.006l-1.354-1.134H3.166a2.084 2.084 0 0 1-2.083-2.084v-7c0-1.15.933-2.083 2.083-2.083zm-9.667 1.5a.584.584 0 0 0-.583.583v7c0 .322.261.584.583.584h2.602c.29 0 .574.09.811.255l.099.076L8 12.856l1.346-1.114.097-.074c.236-.163.517-.25.806-.251h2.583a.584.584 0 0 0 .583-.584v-7a.583.583 0 0 0-.583-.583zM5 6.48a.958.958 0 1 1 0 1.915.958.958 0 0 1 0-1.916m3 0a.958.958 0 1 1 0 1.915.958.958 0 0 1 0-1.916m3 0a.958.958 0 1 1 0 1.915.958.958 0 0 1 0-1.916"/></svg>