<svg xmlns="http://www.w3.org/2000/svg" width="32" height="32" fill="none" data-fui-icon="true" viewBox="0 0 32 32"><path fill="currentColor" d="M1.22 1.22a.75.75 0 0 1 1.06 0l28.5 28.5a.75.75 0 0 1-1.06 1.06l-6.692-6.692a.3.3 0 0 0-.213-.088H17.05a.3.3 0 0 0-.3.3v5.95a.75.75 0 0 1-1.5 0V24.3a.3.3 0 0 0-.3-.3H8.697c-2.74 0-4.554-2.842-3.403-5.327l2.479-5.348c.15-.322.227-.674.227-1.03v-3.11a.3.3 0 0 0-.088-.212L1.22 2.28a.75.75 0 0 1 0-1.06M20.25 1A3.75 3.75 0 0 1 24 4.75v7.545c0 .356.078.707.228 1.03l2.478 5.348c.657 1.416.348 2.947-.544 4.002a.28.28 0 0 1-.417.01l-.636-.637c-.117-.117-.116-.305-.016-.436.477-.629.627-1.5.252-2.308l-2.479-5.349a3.95 3.95 0 0 1-.366-1.66V4.75a2.25 2.25 0 0 0-2.25-2.25h-8.5A2.25 2.25 0 0 0 9.5 4.75v.965a.3.3 0 0 1-.512.212l-.9-.9A.3.3 0 0 1 8 4.815V4.75A3.75 3.75 0 0 1 11.75 1zM9.5 12.295a3.95 3.95 0 0 1-.366 1.66l-2.478 5.349c-.691 1.49.397 3.196 2.04 3.196h12.02a.3.3 0 0 0 .212-.512L10.012 11.073a.3.3 0 0 0-.512.212z"/></svg>