<svg xmlns="http://www.w3.org/2000/svg" width="16" height="16" fill="none" data-fui-icon="true" viewBox="0 0 16 16"><path fill="currentColor" d="M12.072 2.632a3.296 3.296 0 0 1 3.296 3.296V10a3.296 3.296 0 0 1-3.296 3.296H3.928A3.296 3.296 0 0 1 .632 10V5.928a3.296 3.296 0 0 1 3.296-3.296zm-8.144 1.5c-.992 0-1.796.804-1.796 1.796V7.93l1.03-1.174a2.065 2.065 0 0 1 3.056-.052l4.701 5.004.082.087h1.071c.992 0 1.796-.804 1.796-1.796V5.928c0-.992-.804-1.796-1.796-1.796zm7.322 1.346a1.25 1.25 0 1 1 0 2.5 1.25 1.25 0 0 1 0-2.5"/></svg>