<svg xmlns="http://www.w3.org/2000/svg" width="20" height="20" fill="none" data-fui-icon="true" viewBox="0 0 20 20"><path fill="currentColor" d="M10 1.438c3.011 0 5.182 1.096 6.589 2.766 1.388 1.649 1.974 3.787 1.974 5.796v3.75a1 1 0 0 1-.006.088q.005.112.006.225a4.5 4.5 0 0 1-4.5 4.5 2 2 0 0 1-2-2v-5a2 2 0 0 1 2-2c1.152 0 2.203.433 3 1.146V10c0-1.74-.51-3.51-1.62-4.83-1.094-1.298-2.83-2.232-5.443-2.232-2.614 0-4.349.934-5.442 2.233C3.446 6.49 2.938 8.26 2.938 10v.709a4.48 4.48 0 0 1 3-1.146 2 2 0 0 1 2 2v5a2 2 0 0 1-2 2 4.5 4.5 0 0 1-4.496-4.725 1 1 0 0 1-.004-.088V10c0-2.01.585-4.147 1.973-5.796C4.818 2.534 6.99 1.438 10 1.438m-4.062 9.625a3 3 0 1 0 0 6 .5.5 0 0 0 .5-.5v-5a.5.5 0 0 0-.5-.5m8.125 0a.5.5 0 0 0-.5.5v5a.5.5 0 0 0 .5.5 3 3 0 1 0 0-6"/></svg>