<svg xmlns="http://www.w3.org/2000/svg" width="32" height="32" fill="none" data-fui-icon="true" viewBox="0 0 32 32"><path fill="currentColor" d="M16 1c1.28 0 2.316.706 3.075 1.572.762.87 1.379 2.042 1.867 3.36q.17.458.322.95.503-.113.983-.195c1.386-.237 2.71-.289 3.844-.064 1.13.224 2.259.768 2.9 1.877.64 1.11.546 2.359.175 3.45-.372 1.093-1.079 2.214-1.977 3.296q-.312.376-.663.754.352.378.663.754c.898 1.082 1.605 2.203 1.977 3.297.371 1.09.465 2.34-.176 3.449-.64 1.11-1.77 1.653-2.9 1.877-1.133.225-2.457.173-3.843-.063a19 19 0 0 1-.983-.197 19 19 0 0 1-.322.95c-.488 1.319-1.105 2.491-1.867 3.36C18.316 30.295 17.281 31 16 31c-1.28 0-2.316-.706-3.075-1.572-.762-.87-1.379-2.042-1.867-3.36a19 19 0 0 1-.322-.95q-.503.112-.983.196c-1.386.236-2.71.288-3.844.063-1.13-.224-2.259-.768-2.9-1.877-.64-1.11-.546-2.359-.175-3.45.372-1.093 1.079-2.214 1.977-3.296q.31-.376.662-.754a19 19 0 0 1-.662-.754c-.898-1.082-1.605-2.203-1.977-3.297-.371-1.09-.465-2.34.176-3.449.64-1.11 1.77-1.653 2.9-1.877 1.133-.225 2.457-.173 3.843.064q.48.082.983.195.153-.492.322-.95c.488-1.318 1.105-2.49 1.867-3.36C13.684 1.706 14.719 1 16 1m0 22.3a30 30 0 0 1-3.812 1.435C13.106 27.65 14.473 29.5 16 29.5c1.527 0 2.893-1.85 3.81-4.765A30 30 0 0 1 16 23.3m-9.47-6.234c-2.067 2.252-2.985 4.361-2.221 5.684s3.048 1.58 6.03.917a30 30 0 0 1-.661-4.018 30 30 0 0 1-3.149-2.583m18.94 0a30 30 0 0 1-3.149 2.583 30 30 0 0 1-.662 4.018c2.983.663 5.269.406 6.032-.917.764-1.323-.155-3.432-2.221-5.684M11.32 20.76c.125.89.283 1.737.471 2.527a27 27 0 0 0 2.426-.854 38 38 0 0 1-2.897-1.673m9.359 0q-.696.444-1.429.869-.735.423-1.468.804c.835.338 1.648.622 2.426.854.188-.79.346-1.636.47-2.527M16 10.353a36 36 0 0 0-4.89 2.824A36 36 0 0 0 11 16c0 .968.038 1.912.11 2.822A36 36 0 0 0 16 21.645a36 36 0 0 0 4.89-2.823 36 36 0 0 0 0-5.645A36 36 0 0 0 16 10.354M16 14a2 2 0 1 1 0 4 2 2 0 0 1 0-4m-6.463.328A27 27 0 0 0 7.584 16c.59.558 1.244 1.118 1.953 1.67a38 38 0 0 1 0-3.342m12.925 0q.037.826.038 1.672-.001.847-.038 1.67A27 27 0 0 0 24.415 16a27 27 0 0 0-1.953-1.672M10.34 8.332c-2.983-.663-5.268-.405-6.031.918-.764 1.323.155 3.431 2.22 5.683a30 30 0 0 1 3.149-2.583c.142-1.431.366-2.783.662-4.018m17.351.918c-.763-1.323-3.049-1.581-6.032-.918.296 1.235.52 2.587.662 4.018a30 30 0 0 1 3.149 2.583c2.066-2.252 2.985-4.36 2.221-5.683m-15.9-.538c-.188.79-.346 1.636-.47 2.527a38 38 0 0 1 2.896-1.673 27 27 0 0 0-2.426-.854m8.417 0a27 27 0 0 0-2.426.854 38 38 0 0 1 2.897 1.673 27 27 0 0 0-.471-2.527M16 2.5c-1.527 0-2.894 1.85-3.812 4.764 1.218.361 2.502.843 3.812 1.435a30 30 0 0 1 3.81-1.435C18.894 4.349 17.528 2.5 16 2.5"/></svg>