<svg xmlns="http://www.w3.org/2000/svg" width="24" height="24" fill="none" data-fui-icon="true" viewBox="0 0 24 24"><path fill="currentColor" d="M15.108 1.843a.75.75 0 0 1 .682-.02l7.215 3.421a1.5 1.5 0 0 1 .7 2.026l-1.712 3.43a1.5 1.5 0 0 1-1.793.761l-.7-.222V21a1.5 1.5 0 0 1-1.5 1.5H6A1.5 1.5 0 0 1 4.5 21v-9.76l-.7.221a1.5 1.5 0 0 1-1.793-.762L.296 7.27a1.5 1.5 0 0 1 .7-2.025L8.21 1.822l.083-.033a.75.75 0 0 1 .982.616l.002.011.012.067a3.34 3.34 0 0 0 .448 1.113c.367.573 1.014 1.154 2.263 1.154s1.896-.581 2.263-1.154a3.3 3.3 0 0 0 .448-1.113l.012-.067.002-.01a.75.75 0 0 1 .383-.563m.841 1.715c-.1.259-.234.552-.423.846-.594.927-1.681 1.846-3.526 1.846s-2.933-.919-3.526-1.846a4.7 4.7 0 0 1-.424-.846L1.638 6.6l1.712 3.43 1.674-.528a.75.75 0 0 1 .976.716V21h12V10.218a.752.752 0 0 1 .976-.716l1.674.528 1.712-3.43z"/></svg>