<svg xmlns="http://www.w3.org/2000/svg" width="32" height="32" fill="none" data-fui-icon="true" viewBox="0 0 32 32"><path fill="currentColor" d="M24.25 2A5.75 5.75 0 0 1 30 7.75v16.5q-.002.099-.006.198a.8.8 0 0 1-.009.189A5.75 5.75 0 0 1 24.25 30H7.75A5.75 5.75 0 0 1 2 24.25V7.75A5.75 5.75 0 0 1 7.75 2zM9.299 16c-.738 0-1.44.318-1.928.873L3.5 21.283v2.967a4.25 4.25 0 0 0 4.25 4.25h14.506L11.16 16.8A2.57 2.57 0 0 0 9.3 16m11.78 2c-.743 0-1.447.335-1.915.911l-1.816 2.234 6.971 7.353a4.25 4.25 0 0 0 4.149-3.736l-5.588-5.98A2.47 2.47 0 0 0 21.078 18M7.75 3.5A4.25 4.25 0 0 0 3.5 7.75v11.258l2.743-3.124a4.067 4.067 0 0 1 6.006-.115l4.058 4.279L18 17.965a3.967 3.967 0 0 1 5.976-.207l4.524 4.84V7.75a4.25 4.25 0 0 0-4.25-4.25zM18 6a4 4 0 1 1 0 8 4 4 0 0 1 0-8m0 1.5a2.5 2.5 0 1 0 0 5 2.5 2.5 0 0 0 0-5"/></svg>