<svg xmlns="http://www.w3.org/2000/svg" width="14" height="14" fill="none" data-fui-icon="true" viewBox="0 0 14 14"><path fill="currentColor" fill-rule="evenodd" d="M7 12.5a3.284 3.284 0 1 0 0-6.568A3.284 3.284 0 0 0 7 12.5M7 14a4.784 4.784 0 1 0 0-9.568A4.784 4.784 0 0 0 7 14" clip-rule="evenodd"/><path stroke="currentColor" stroke-linejoin="round" stroke-width="1.5" d="M5.685 5.097S4.732 3.965 4.37 2.141C4.22 1.383 3.606.75 2.833.75H1.728c-.58 0-1.06.475-.956 1.045C1.313 4.735 4 6.14 4 6.14m4.315-1.043s.953-1.132 1.315-2.956C9.78 1.383 10.394.75 11.167.75h1.104c.58 0 1.061.475.956 1.045C12.687 4.735 10 6.14 10 6.14"/><path stroke="currentColor" stroke-linecap="round" stroke-linejoin="round" stroke-width="1.5" d="m5.51 9.464.828.827 2.15-2.15"/></svg>