<svg xmlns="http://www.w3.org/2000/svg" width="32" height="32" fill="none" data-fui-icon="true" viewBox="0 0 32 32"><path fill="currentColor" d="M17.679 3.014c4.072 0 6.233 1.459 7.296 3.245.244.411.423.83.554 1.237 2.01.9 3.058 2.249 3.57 3.54a6.5 6.5 0 0 1 .419 3.017q-.028.252-.06.482l-.002.01c-.106.79-.562 3.194-2.411 5.411-1.876 2.25-5.113 4.219-10.595 4.219H15a.48.48 0 0 0-.47.386l-.833 4.169a1.98 1.98 0 0 1-1.941 1.59H7.83a1.734 1.734 0 0 1-1.696-2.09l.337-1.597H4.158a1.733 1.733 0 0 1-1.691-2.109L6.688 5.525A3.21 3.21 0 0 1 9.82 3.014zm8.176 6.361a7 7 0 0 1-.085 1.446c-.103.688-.558 2.806-2.42 4.758-1.883 1.972-5.113 3.68-10.586 3.68h-1.498a.48.48 0 0 0-.465.364l-1.378 5.512a1.98 1.98 0 0 1-1.404 1.428l-.416 1.975c-.03.145.08.281.228.281l3.926.001a.48.48 0 0 0 .469-.385l.834-4.17a1.98 1.98 0 0 1 1.94-1.59h1.45c5.075 0 7.875-1.8 9.443-3.679 1.593-1.911 1.99-3.997 2.077-4.65v-.01l.056-.441a5 5 0 0 0-.32-2.306c-.294-.738-.836-1.545-1.851-2.214M9.819 4.514c-.8 0-1.493.556-1.667 1.337L3.931 24.85a.233.233 0 0 0 .227.283h3.345c.22 0 .411-.15.465-.363l1.378-5.511a1.98 1.98 0 0 1 1.92-1.5h1.498c5.136 0 7.948-1.59 9.5-3.216 1.572-1.646 1.945-3.427 2.023-3.944a9 9 0 0 0 .045-.346l.02-.226c.039-.62.008-1.867-.666-3.002-.73-1.228-2.331-2.511-6.007-2.511z"/></svg>