<svg xmlns="http://www.w3.org/2000/svg" width="20" height="20" fill="none" data-fui-icon="true" viewBox="0 0 20 20"><g clip-path="url(#a)"><path fill="currentColor" d="m16.983 7.107-.714-.229a.75.75 0 0 0 .372.897zm-.796-3.294-.53.53zm-3.294-.796-.668.343a.75.75 0 0 0 .897.37zm-5.786 0-.229.714a.75.75 0 0 0 .897-.371zm-4.09 4.09.343.668a.75.75 0 0 0 .37-.897zm0 5.786.714.229a.75.75 0 0 0-.371-.896zm.796 3.294-.53.53zm3.294.796.668-.343a.75.75 0 0 0-.897-.37zm5.786 0 .229-.714a.75.75 0 0 0-.896.372zm4.09-4.09-.343-.668a.75.75 0 0 0-.37.897zm-.343-5.118A2.5 2.5 0 0 1 18 10h1.5a4 4 0 0 0-2.174-3.56zm-.983-3.432a2.5 2.5 0 0 1 .612 2.535l1.428.459a4 4 0 0 0-.98-4.055zm-2.535-.612a2.5 2.5 0 0 1 2.535.612l1.06-1.06a4 4 0 0 0-4.054-.98zM10 2a2.5 2.5 0 0 1 2.226 1.36l1.334-.686A4 4 0 0 0 10 .5zM7.775 3.36A2.5 2.5 0 0 1 10 2V.5a4 4 0 0 0-3.56 2.174zm-3.432.983a2.5 2.5 0 0 1 2.535-.612l.459-1.428a4 4 0 0 0-4.055.98zm-.612 2.535a2.5 2.5 0 0 1 .612-2.535l-1.06-1.06a4 4 0 0 0-.98 4.054zM2 10a2.5 2.5 0 0 1 1.36-2.225L2.674 6.44A4 4 0 0 0 .5 10zm1.36 2.226A2.5 2.5 0 0 1 2 10H.5a4 4 0 0 0 2.174 3.56zm.983 3.43a2.5 2.5 0 0 1-.612-2.534l-1.428-.459a4 4 0 0 0 .98 4.055zm2.535.613a2.5 2.5 0 0 1-2.535-.612l-1.06 1.06a4 4 0 0 0 4.054.98zM10 18a2.5 2.5 0 0 1-2.225-1.36l-1.335.686A4 4 0 0 0 10 19.5zm2.226-1.36A2.5 2.5 0 0 1 10 18v1.5a4 4 0 0 0 3.56-2.174zm3.43-.983a2.5 2.5 0 0 1-2.534.612l-.459 1.428a4 4 0 0 0 4.055-.98zm.613-2.535a2.5 2.5 0 0 1-.612 2.535l1.06 1.06a4 4 0 0 0 .98-4.054zM18 10a2.5 2.5 0 0 1-1.36 2.226l.686 1.334A4 4 0 0 0 19.5 10z"/><path stroke="currentColor" stroke-linecap="round" stroke-linejoin="round" stroke-width="1.5" d="m6.25 10 2.5 2.656 5-5.156"/></g><defs><clipPath id="a"><path fill="currentColor" d="M0 0h20v20H0z"/></clipPath></defs></svg>