<svg xmlns="http://www.w3.org/2000/svg" width="24" height="24" fill="none" data-fui-icon="true" viewBox="0 0 24 24"><path fill="currentColor" d="M2.986 17.22a.75.75 0 0 1 .861.62c.051.31.296.827.714 1.331.416.5.905.87 1.345 1.001a.75.75 0 0 1-.426 1.438c-.83-.246-1.553-.853-2.073-1.48-.517-.622-.931-1.383-1.04-2.05a.75.75 0 0 1 .62-.86M8.2 3.514a2.25 2.25 0 0 1 3.182 0l1.721 1.72a3.73 3.73 0 0 1 .93-1.543 1.25 1.25 0 0 1 1.769 0l3.711 3.712A8.25 8.25 0 1 1 7.846 19.07l-4.595-4.596a2.25 2.25 0 0 1 .628-3.623 2.248 2.248 0 0 1 .946-3.633 2.248 2.248 0 0 1 2.837-2.836c.107-.317.285-.615.538-.868m2.121 1.06a.75.75 0 1 0-1.06 1.061l3.536 3.535a.75.75 0 0 1-1.06 1.06L7.492 5.99a.75.75 0 1 0-1.06 1.06l4.242 4.243a.75.75 0 0 1-1.061 1.06L6.079 8.818a.75.75 0 0 0-1.06 1.06l4.242 4.244a.75.75 0 1 1-1.061 1.06l-2.828-2.829a.75.75 0 0 0-1.06 1.062l4.595 4.595a6.75 6.75 0 0 0 9.546-9.546L14.928 4.94a2.25 2.25 0 0 0-.448 1.85c.084.42.288.819.614 1.145l.925.925c.299.299.386.75.219 1.139a2.94 2.94 0 0 0 .624 3.24.75.75 0 0 1-1.06 1.06 4.44 4.44 0 0 1-1.058-4.592l-.71-.711a3.73 3.73 0 0 1-.969-1.676zm7.442-2.118c1.654.178 3.033 1.326 3.486 2.747a.75.75 0 0 1-1.429.456c-.266-.834-1.132-1.594-2.218-1.711a.751.751 0 0 1 .16-1.492"/></svg>