<svg xmlns="http://www.w3.org/2000/svg" width="24" height="24" fill="none" data-fui-icon="true" viewBox="0 0 24 24"><path fill="currentColor" d="M10.222 1.875a2.78 2.78 0 0 1 2.474 1.513 2.78 2.78 0 0 1 4.372 2.278v1.208c.304-.092.623-.124.932-.124.714 0 1.394.258 1.89.806.492.542.735 1.293.735 2.164v3.8c0 4.905-3.872 8.605-8.625 8.605s-8.625-3.7-8.625-8.604V6.679a2.78 2.78 0 0 1 4.099-2.446 2.78 2.78 0 0 1 2.748-2.358m0 1.5a1.28 1.28 0 0 0-1.283 1.277v7.068a.75.75 0 0 1-1.5 0V6.679a1.28 1.28 0 0 0-1.282-1.277A1.28 1.28 0 0 0 4.875 6.68v6.842c0 4.054 3.18 7.104 7.125 7.104 3.946 0 7.125-3.05 7.125-7.104V9.72c0-.599-.165-.957-.346-1.158-.176-.194-.432-.312-.779-.312-.444 0-.629.096-.714.179-.083.08-.218.293-.218.876 0 .757-.119 1.353-.314 1.858-.193.5-.45.88-.665 1.192-.416.603-.714.999-.714 1.895a.75.75 0 0 1-1.5 0c0-1.394.549-2.123.98-2.747.207-.3.375-.558.5-.88.122-.317.213-.728.213-1.318V5.666a1.28 1.28 0 0 0-1.282-1.277 1.28 1.28 0 0 0-1.282 1.277v5.04a.75.75 0 0 1-1.5 0V4.652a1.28 1.28 0 0 0-1.282-1.277"/></svg>