<svg xmlns="http://www.w3.org/2000/svg" width="32" height="32" fill="none" data-fui-icon="true" viewBox="0 0 32 32"><path fill="currentColor" d="M16.937 3.7a3.75 3.75 0 0 1 5.302 0l6.011 6.01a3.75 3.75 0 0 1 0 5.303l-5.335 5.336a2.45 2.45 0 0 0-.567.889l-2.03 5.534c-.943 2.571-4.236 3.298-6.173 1.361l-4.633-4.635-4.596 4.597a.751.751 0 0 1-1.062-1.06l4.597-4.597-4.634-4.634c-1.936-1.937-1.21-5.23 1.36-6.173l5.535-2.028c.334-.123.638-.317.89-.569zm4.242 1.06a2.25 2.25 0 0 0-3.182 0l-5.335 5.335a3.95 3.95 0 0 1-1.433.915l-5.535 2.03c-1.542.566-1.978 2.541-.816 3.703l10.329 10.33c1.162 1.16 3.137.725 3.703-.818l2.03-5.534c.197-.538.51-1.028.915-1.434l5.334-5.335a2.25 2.25 0 0 0 0-3.181z"/></svg>