<svg xmlns="http://www.w3.org/2000/svg" width="12" height="12" fill="none" data-fui-icon="true" viewBox="0 0 12 12"><path fill="currentColor" d="M11.25 6.75a.75.75 0 0 1 .75.75v1.25A3.25 3.25 0 0 1 8.75 12h-5.5A3.25 3.25 0 0 1 0 8.75V7.5a.75.75 0 0 1 1.5 0v1.25c0 .966.784 1.75 1.75 1.75h5.5a1.75 1.75 0 0 0 1.75-1.75V7.5a.75.75 0 0 1 .75-.75M7.22.22a.75.75 0 0 1 1.06 0l2 2a.75.75 0 0 1 0 1.06l-2 2a.75.75 0 1 1-1.06-1.06l.72-.72H6.75c-.69 0-1.25.56-1.25 1.25v2.5a.75.75 0 0 1-1.5 0v-2.5A2.75 2.75 0 0 1 6.75 2h1.19l-.72-.72a.75.75 0 0 1 0-1.06"/></svg>