<svg xmlns="http://www.w3.org/2000/svg" width="32" height="32" fill="none" data-fui-icon="true" viewBox="0 0 32 32"><path fill="currentColor" d="M18 4.25a.75.75 0 0 1 0 1.5H6.334a1.917 1.917 0 0 0-1.917 1.917v14c0 1.058.859 1.916 1.917 1.916h5.202c.49 0 .963.173 1.338.487l2.754 2.308c.216.18.53.181.747.002l2.798-2.318c.374-.31.844-.48 1.329-.48h5.165a1.917 1.917 0 0 0 1.917-1.915V12.5a.75.75 0 0 1 1.5 0v9.167a3.417 3.417 0 0 1-3.417 3.416h-5.165a.6.6 0 0 0-.372.135l-2.798 2.317a2.084 2.084 0 0 1-2.668-.008l-2.753-2.308a.6.6 0 0 0-.375-.136H6.334a3.417 3.417 0 0 1-3.417-3.416v-14A3.417 3.417 0 0 1 6.334 4.25zm-8 9.25a1.167 1.167 0 1 1 0 2.334 1.167 1.167 0 0 1 0-2.334m6 0a1.167 1.167 0 1 1 0 2.334 1.167 1.167 0 0 1 0-2.334m6 0a1.167 1.167 0 1 1 0 2.334 1.167 1.167 0 0 1 0-2.334m3.982-12.286A3.216 3.216 0 0 1 30.53 5.76l-5.837 5.837a2.75 2.75 0 0 1-1.64.788l-2.232.25a1.55 1.55 0 0 1-1.712-1.712l.248-2.233c.07-.62.347-1.199.788-1.64zM21.206 8.11c-.2.2-.328.464-.36.746L20.6 11.09a.05.05 0 0 0 .054.054l2.233-.248c.282-.031.545-.158.746-.358l3.999-4-2.427-2.426zm8.264-5.837a1.716 1.716 0 0 0-2.427 0l-.777.778 2.426 2.426.778-.777c.67-.67.67-1.757 0-2.427"/></svg>