<svg xmlns="http://www.w3.org/2000/svg" width="24" height="24" fill="none" data-fui-icon="true" viewBox="0 0 24 24"><path fill="currentColor" d="M2.5 14.71a.75.75 0 0 1 .75.75V17A3.75 3.75 0 0 0 7 20.75h1.2a.75.75 0 0 1 0 1.5H7A5.25 5.25 0 0 1 1.75 17v-1.54a.75.75 0 0 1 .75-.75m19 0a.75.75 0 0 1 .75.75V17c0 2.9-2.35 5.25-5.25 5.25h-1.2a.75.75 0 0 1 0-1.5H17A3.75 3.75 0 0 0 20.75 17v-1.54a.75.75 0 0 1 .75-.75M8.2 1.75a.75.75 0 0 1 0 1.5H7A3.75 3.75 0 0 0 3.25 7v1.414a.75.75 0 0 1-1.5 0V7C1.75 4.1 4.1 1.75 7 1.75zm8.8 0c2.9 0 5.25 2.35 5.25 5.25v1.414a.75.75 0 0 1-1.5 0V7A3.75 3.75 0 0 0 17 3.25h-1.2a.75.75 0 0 1 0-1.5z"/></svg>