<svg xmlns="http://www.w3.org/2000/svg" width="20" height="20" fill="none" data-fui-icon="true" viewBox="0 0 20 20"><path fill="currentColor" d="M16 12.25a.75.75 0 0 1 .75.75v2.25H19a.75.75 0 0 1 0 1.5h-2.25V19a.75.75 0 0 1-1.5 0v-2.25H13a.75.75 0 0 1 0-1.5h2.25V13a.75.75 0 0 1 .75-.75M10 11c.958 0 1.88.153 2.734.435a.75.75 0 0 1-.468 1.424A7.2 7.2 0 0 0 10 12.5c-3.669 0-6.5 2.65-6.5 5.75a.75.75 0 0 1-1.5 0C2 14.171 5.66 11 10 11m0-10a4.5 4.5 0 1 1 0 9 4.5 4.5 0 0 1 0-9m0 1.5a3 3 0 1 0 0 6 3 3 0 0 0 0-6"/></svg>