<svg xmlns="http://www.w3.org/2000/svg" width="24" height="24" fill="none" data-fui-icon="true" viewBox="0 0 24 24"><path fill="currentColor" d="M9.25 3a.75.75 0 0 1 0 1.5h-2.3c-.572 0-.957 0-1.253.024-.287.024-.424.067-.514.113-.236.12-.426.31-.546.546-.046.09-.09.227-.113.514-.024.296-.024.68-.024 1.253v10.1c0 .572 0 .957.024 1.253.024.287.067.424.113.514.12.235.31.427.546.546.09.046.227.09.514.113.296.024.68.024 1.253.024h10.1c.572 0 .957 0 1.253-.024.287-.024.424-.067.514-.113.235-.12.427-.31.546-.546.046-.09.09-.227.113-.514.024-.296.024-.68.024-1.253v-2.3a.75.75 0 0 1 1.5 0v2.3c0 .547.001 1.004-.03 1.375-.03.38-.098.736-.27 1.073a2.75 2.75 0 0 1-1.202 1.202c-.337.172-.694.24-1.073.27-.371.031-.828.03-1.375.03H6.95c-.547 0-1.004.001-1.375-.03-.38-.03-.736-.098-1.073-.27A2.75 2.75 0 0 1 3.3 19.498c-.172-.337-.24-.694-.27-1.073-.031-.371-.03-.828-.03-1.375V6.95c0-.547-.001-1.004.03-1.375.03-.38.098-.736.27-1.073A2.75 2.75 0 0 1 4.502 3.3c.337-.172.693-.24 1.073-.27.371-.031.828-.03 1.375-.03zm11 0a.75.75 0 0 1 .75.75v6.5a.75.75 0 0 1-1.5 0V5.56l-7.97 7.97a.75.75 0 1 1-1.06-1.06l7.97-7.97h-4.69a.75.75 0 0 1 0-1.5z"/></svg>