<svg xmlns="http://www.w3.org/2000/svg" width="20" height="20" fill="none" data-fui-icon="true" viewBox="0 0 20 20"><path fill="currentColor" d="M13.093 1.25a5.25 5.25 0 0 1 5.216 4.651l.86 7.5a5.25 5.25 0 0 1-5.215 5.849H6.046a5.25 5.25 0 0 1-5.215-5.849l.86-7.5A5.25 5.25 0 0 1 6.908 1.25zm-6.186 1.5a3.75 3.75 0 0 0-3.725 3.322l-.86 7.5a3.75 3.75 0 0 0 3.724 4.178h7.908a3.75 3.75 0 0 0 3.726-4.178l-.861-7.5a3.75 3.75 0 0 0-3.726-3.322zM13 5.25a.75.75 0 0 1 .75.75v.02a2 2 0 0 1-.008.163 4.439 4.439 0 0 1-.446 1.652 3.4 3.4 0 0 1-1.145 1.32c-.559.372-1.27.595-2.15.595-.882 0-1.593-.223-2.151-.595a3.4 3.4 0 0 1-1.146-1.32 4.4 4.4 0 0 1-.454-1.814V6L7 6h-.75a.75.75 0 0 1 1.5-.004v.013l.004.066a2.94 2.94 0 0 0 .292 1.09c.143.286.346.549.636.742.285.19.7.343 1.318.343s1.033-.153 1.319-.343c.29-.193.492-.456.635-.742a3 3 0 0 0 .26-.82 3 3 0 0 0 .036-.336v-.013A.75.75 0 0 1 13 5.25"/></svg>