<svg xmlns="http://www.w3.org/2000/svg" width="20" height="20" fill="none" data-fui-icon="true" viewBox="0 0 20 20"><path fill="currentColor" d="M5 5a1 1 0 1 1-2 0 1 1 0 0 1 2 0m3 0a1 1 0 1 1-2 0 1 1 0 0 1 2 0m2 1a1 1 0 1 0 0-2 1 1 0 0 0 0 2"/><path fill="currentColor" fill-rule="evenodd" d="M.5 3.75A2.75 2.75 0 0 1 3.25 1h13.5a2.75 2.75 0 0 1 2.75 2.75v12.5A2.75 2.75 0 0 1 16.75 19H3.25A2.75 2.75 0 0 1 .5 16.25zM3.25 2.5C2.56 2.5 2 3.06 2 3.75v3.5h16v-3.5c0-.69-.56-1.25-1.25-1.25zm13.5 15c.69 0 1.25-.56 1.25-1.25v-7.5H2v7.5c0 .69.56 1.25 1.25 1.25z" clip-rule="evenodd"/></svg>