<svg xmlns="http://www.w3.org/2000/svg" width="24" height="24" fill="none" data-fui-icon="true" viewBox="0 0 24 24"><path fill="currentColor" d="M7.5 4.5a.75.75 0 0 1 .75.75v13a.75.75 0 0 1-1.5 0v-13a.75.75 0 0 1 .75-.75m6 2a.75.75 0 0 1 .75.75v9a.75.75 0 0 1-1.5 0v-9a.75.75 0 0 1 .75-.75m-9 1a.75.75 0 0 1 .75.75v7a.75.75 0 0 1-1.5 0v-7a.75.75 0 0 1 .75-.75m6 1a.75.75 0 0 1 .75.75v5a.75.75 0 0 1-1.5 0v-5a.75.75 0 0 1 .75-.75m6 .5a.75.75 0 0 1 .75.75v4a.75.75 0 0 1-1.5 0v-4A.75.75 0 0 1 16.5 9m3 1.5a.75.75 0 0 1 .75.75v1a.75.75 0 0 1-1.5 0v-1a.75.75 0 0 1 .75-.75"/></svg>