<svg xmlns="http://www.w3.org/2000/svg" width="16" height="16" fill="none" data-fui-icon="true" viewBox="0 0 16 16"><g clip-path="url(#a)"><path fill="currentColor" d="M12 .5A.75.75 0 0 1 12 2h-1v4.256c0 .117.035.231.1.328l3.852 5.661c.94 1.383-.05 3.255-1.722 3.255H2.77c-1.673 0-2.663-1.872-1.722-3.255l3.851-5.661a.6.6 0 0 0 .1-.328V2H4A.75.75 0 0 1 4 .5zM5.827 10.531c-.55-.102-1.21-.05-2.1.442l-1.44 2.116A.583.583 0 0 0 2.77 14H13.23a.583.583 0 0 0 .482-.911l-1.189-1.746c-.902.561-1.727.784-2.52.748-.932-.043-1.713-.442-2.355-.783-.683-.364-1.216-.664-1.821-.777"/></g><defs><clipPath id="a"><path fill="currentColor" d="M0 0h16v16H0z"/></clipPath></defs></svg>