<svg xmlns="http://www.w3.org/2000/svg" width="20" height="20" fill="none" data-fui-icon="true" viewBox="0 0 20 20"><path fill="currentColor" d="M16.245 1.195a.75.75 0 0 1 1.06.05l2.5 2.75c.26.286.26.724 0 1.01l-2.5 2.75a.75.75 0 0 1-1.11-1.01l1.36-1.495H14.28a1.83 1.83 0 0 0-1.606.954L10.603 10l2.072 3.796c.32.588.937.954 1.606.954h3.274l-1.36-1.495a.75.75 0 0 1 1.11-1.01l2.5 2.75c.26.286.26.724 0 1.01l-2.5 2.75a.75.75 0 0 1-1.11-1.01l1.36-1.495H14.28a3.33 3.33 0 0 1-2.923-1.735L9.305 10.75H6.918a3.5 3.5 0 1 1 0-1.5h2.387l2.053-3.765a3.33 3.33 0 0 1 2.923-1.735h3.274l-1.36-1.495a.75.75 0 0 1 .05-1.06M3.5 8a2 2 0 1 0 0 4 2 2 0 0 0 0-4"/></svg>