<svg xmlns="http://www.w3.org/2000/svg" width="24" height="24" fill="none" data-fui-icon="true" viewBox="0 0 24 24"><path stroke="currentColor" stroke-linecap="round" stroke-linejoin="round" stroke-width="1.5" d="M16.594 3.75h1.781c1.035 0 1.875.84 1.875 1.875v15.75c0 1.035-.84 1.875-1.875 1.875H5.625a1.875 1.875 0 0 1-1.875-1.875V5.625c0-1.036.84-1.875 1.875-1.875h1.781M7.75 9.5h8.5M7.75 14h8.5m-8.5 4.5h8.5"/><path fill="currentColor" d="m13.848 2.75-.706.252a.75.75 0 0 0 .706.498zm-3.696 0v.75c.317 0 .6-.2.706-.498zm.358-1.002-.707-.252zm2.98 0 .707-.253zm.358 1.752h1.65V2h-1.65zm1.65 0h.002q0 .002 0 0H17A1.5 1.5 0 0 0 15.499 2zm.002 0V5H17V3.5zm0 1.5v1.5A1.5 1.5 0 0 0 17 5zm0 0h-7v1.5h7zm-7 0H7a1.5 1.5 0 0 0 1.5 1.5zm0 0V3.5H7V5zm0-1.5q0 .002 0 0h.001V2A1.5 1.5 0 0 0 7 3.5zm.001 0h1.65V2h-1.65zm2.357-.498L11.216 2l-1.413-.504-.358 1.002zM11.216 2V.5a1.5 1.5 0 0 0-1.413.996zm0 0h1.568V.5h-1.568zm1.568 0 1.413-.505A1.5 1.5 0 0 0 12.784.5zm0 0 .358 1.002 1.413-.504-.358-1.003z"/></svg>