<svg xmlns="http://www.w3.org/2000/svg" width="24" height="24" fill="none" data-fui-icon="true" viewBox="0 0 24 24"><path fill="currentColor" d="M21 9.75a.75.75 0 0 1 .75.75c0 5.014-3.785 9.14-8.653 9.685a.386.386 0 0 0-.347.38v.81a.75.75 0 0 1-1.5 0v-.81a.386.386 0 0 0-.346-.38C6.035 19.64 2.25 15.514 2.25 10.5a.75.75 0 0 1 1.5 0 8.25 8.25 0 0 0 16.5 0 .75.75 0 0 1 .75-.75M12 1.5a6 6 0 0 1 6 6v3a6 6 0 0 1-11.992.309L6 10.5v-3a6 6 0 0 1 6-6M12 3a4.5 4.5 0 0 0-4.5 4.5v3a4.5 4.5 0 1 0 9 0v-3A4.5 4.5 0 0 0 12 3"/></svg>