<svg xmlns="http://www.w3.org/2000/svg" width="12" height="12" fill="none" data-fui-icon="true" viewBox="0 0 12 12"><g clip-path="url(#a)"><path fill="currentColor" d="M6 0a6 6 0 0 1 3.913 10.546l-.026.025-.045.036-.07.057a6 6 0 0 1-.711.496l-.087.05q-.067.04-.135.076a6 6 0 0 1-.496.238q-.068.028-.135.054-.054.022-.11.043-.084.032-.172.06l-.09.03-.138.043q-.074.022-.15.043a6 6 0 0 1-.571.122l-.105.016-.21.027-.062.008a6 6 0 0 1-.266.02l-.031.002a6 6 0 0 1-.607 0l-.031-.003a6 6 0 0 1-.266-.02q-.03-.003-.062-.007l-.21-.027-.105-.016a6 6 0 0 1-.711-.162l-.149-.045-.089-.03-.173-.06-.109-.044-.135-.054a6 6 0 0 1-.496-.238q-.067-.037-.135-.076l-.087-.05a6 6 0 0 1-.49-.326l-.07-.05-.151-.12-.07-.057q-.022-.017-.044-.036l-.027-.025A6 6 0 0 1 6 0m0 9.5c-.744 0-1.445.18-2.062.499a4.5 4.5 0 0 0 .89.346q.054.014.11.027.055.014.112.026l.072.015a5 5 0 0 0 .349.055l.086.01.148.011.08.005a4.5 4.5 0 0 0 .657-.017q.044-.004.086-.01a5 5 0 0 0 .349-.054l.072-.015.113-.026.11-.027.107-.03a4.5 4.5 0 0 0 .661-.255q.034-.015.068-.034L8.062 10A4.5 4.5 0 0 0 6 9.5m0-8a4.5 4.5 0 0 0-3.34 7.516A5.97 5.97 0 0 1 6 8c1.235 0 2.384.375 3.339 1.016A4.5 4.5 0 0 0 6 1.5m0 1a2.5 2.5 0 1 1 0 5 2.5 2.5 0 0 1 0-5M6 4a1 1 0 1 0 0 2 1 1 0 0 0 0-2"/></g><defs><clipPath id="a"><path fill="currentColor" d="M0 0h12v12H0z"/></clipPath></defs></svg>