<svg xmlns="http://www.w3.org/2000/svg" width="24" height="24" fill="none" data-fui-icon="true" viewBox="0 0 24 24"><path fill="currentColor" d="M12 1c6.075 0 11 4.925 11 11 0 .93-.116 1.835-.334 2.7-.378 1.498-1.8 2.303-3.182 2.303h-4.416a2.12 2.12 0 0 0-2.01 1.45l-.7 2.1c-.465 1.395-1.913 2.464-3.504 1.99C4.313 21.189 1 16.983 1 12 1 5.925 5.925 1 12 1m0 1.5A9.5 9.5 0 0 0 2.5 12c0 4.3 2.859 7.936 6.781 9.106.64.19 1.381-.212 1.653-1.026l.7-2.101a3.62 3.62 0 0 1 3.434-2.476h4.416c.866 0 1.556-.491 1.728-1.171A9.5 9.5 0 0 0 12 2.5m-4.75 11a1.25 1.25 0 1 1 0 2.5 1.25 1.25 0 0 1 0-2.5m0-5.5a1.25 1.25 0 1 1 0 2.5 1.25 1.25 0 0 1 0-2.5m10.5 0a1.25 1.25 0 1 1 0 2.5 1.25 1.25 0 0 1 0-2.5M12 5a1.25 1.25 0 1 1 0 2.5A1.25 1.25 0 0 1 12 5"/></svg>