<svg xmlns="http://www.w3.org/2000/svg" width="24" height="24" fill="none" data-fui-icon="true" viewBox="0 0 24 24"><path fill="currentColor" d="M10.07 3.319C10.874 2.79 12 3.356 12 4.369v3.388c3.907.093 6.643.935 8.38 2.939 1.818 2.098 2.37 5.289 2.37 9.554a.75.75 0 0 1-1.42.334l.67-.334h-.001l-.67.334c-.766-1.533-1.24-2.5-2.448-3.182-1.179-.666-3.138-1.099-6.881-1.149v3.375c0 1.081-1.279 1.653-2.084.931l-8.502-7.63a1.25 1.25 0 0 1 0-1.86l8.502-7.63zm-7.448 8.68 7.877 7.069v-3.569c0-.413.336-.749.75-.75 4.263 0 6.75.432 8.37 1.347a5.6 5.6 0 0 1 1.518 1.251c-.23-2.614-.82-4.432-1.892-5.669-1.404-1.62-3.806-2.428-7.996-2.428a.75.75 0 0 1-.75-.75V4.93z"/></svg>