<svg xmlns="http://www.w3.org/2000/svg" width="32" height="32" fill="none" data-fui-icon="true" viewBox="0 0 32 32"><g clip-path="url(#a)"><path stroke="currentColor" stroke-linecap="round" stroke-linejoin="round" stroke-width="1.5" d="M5.924 5.924a3.02 3.02 0 0 0-.884 2.134v15.884c0 .8.318 1.568.884 2.134v0a3.02 3.02 0 0 0 2.134.884h15.884c.8 0 1.568-.318 2.134-.884v0a3.02 3.02 0 0 0 .884-2.134V8.058c0-.8-.318-1.568-.884-2.134v0a3.02 3.02 0 0 0-2.134-.884H8.058c-.8 0-1.568.318-2.134.884"/><path fill="currentColor" d="M17.237 14.763a1.75 1.75 0 1 1-2.474 2.474 1.75 1.75 0 0 1 2.474-2.474m-4.95-4.95a1.75 1.75 0 1 1-2.474 2.475 1.75 1.75 0 0 1 2.475-2.475m-2.474 9.9a1.75 1.75 0 1 1 2.475 2.474 1.75 1.75 0 0 1-2.475-2.475m12.374 0a1.75 1.75 0 1 1-2.475 2.474 1.75 1.75 0 0 1 2.475-2.475m-2.475-9.9a1.75 1.75 0 1 1 2.475 2.475 1.75 1.75 0 0 1-2.475-2.475"/></g><defs><clipPath id="a"><path fill="currentColor" d="M0 0h32v32H0z"/></clipPath></defs></svg>