<svg xmlns="http://www.w3.org/2000/svg" width="12" height="12" fill="none" data-fui-icon="true" viewBox="0 0 12 12"><path fill="currentColor" d="M2.188 4.501a.75.75 0 1 1 1.061 1.06L2.16 6.652A2.256 2.256 0 0 0 5.35 9.84L6.438 8.75A.75.75 0 1 1 7.5 9.811l-1.089 1.09A3.756 3.756 0 0 1 1.1 5.59zM10 8a.75.75 0 0 1 .75.75v.5h.5a.75.75 0 0 1 0 1.5h-.5v.5a.75.75 0 0 1-1.5 0v-.5h-.5a.75.75 0 0 1 0-1.5h.5v-.5A.75.75 0 0 1 10 8M6.72 4.22a.75.75 0 1 1 1.06 1.06l-2.5 2.5a.75.75 0 1 1-1.06-1.06zM8.245 0A3.755 3.755 0 0 1 10.9 6.41L9.812 7.5a.75.75 0 1 1-1.061-1.06l1.089-1.09A2.256 2.256 0 0 0 6.65 2.16L5.562 3.25A.75.75 0 1 1 4.5 2.189l1.089-1.09A3.76 3.76 0 0 1 8.245 0"/></svg>