<svg xmlns="http://www.w3.org/2000/svg" width="12" height="12" fill="none" data-fui-icon="true" viewBox="0 0 12 12"><g fill="currentColor" clip-path="url(#a)"><path d="M4.5 3.25a1 1 0 1 1-2 0 1 1 0 0 1 2 0"/><path fill-rule="evenodd" d="M0 2.25A2.25 2.25 0 0 1 2.25 0h7.5A2.25 2.25 0 0 1 12 2.25v7.5A2.25 2.25 0 0 1 9.75 12h-7.5A2.25 2.25 0 0 1 0 9.75zm2.25-.75a.75.75 0 0 0-.75.75V5h9V2.25a.75.75 0 0 0-.75-.75zm7.5 9a.75.75 0 0 0 .75-.75V6.5h-9v3.25c0 .414.336.75.75.75z" clip-rule="evenodd"/></g><defs><clipPath id="a"><path fill="currentColor" d="M0 0h12v12H0z"/></clipPath></defs></svg>