<svg xmlns="http://www.w3.org/2000/svg" width="24" height="24" fill="none" data-fui-icon="true" viewBox="0 0 24 24"><path fill="currentColor" d="M19.636 5.023a18.1 18.1 0 0 0-4.539-1.404q-.321.578-.581 1.188a16.8 16.8 0 0 0-5.037 0 13 13 0 0 0-.582-1.188 18.3 18.3 0 0 0-4.542 1.407C1.483 9.3.705 13.465 1.093 17.572A18.3 18.3 0 0 0 6.66 20.38q.677-.916 1.192-1.933c-.65-.244-1.279-.546-1.877-.9.157-.115.311-.234.46-.349a13.02 13.02 0 0 0 11.13 0q.225.188.46.348-.902.535-1.88.903.513 1.017 1.191 1.93a18.2 18.2 0 0 0 5.57-2.807c.457-4.762-.78-8.89-3.27-12.55M8.346 15.046c-1.086 0-1.982-.99-1.982-2.208 0-1.217.865-2.216 1.978-2.216s2.002.999 1.983 2.216c-.02 1.218-.874 2.208-1.98 2.208m7.309 0c-1.087 0-1.98-.99-1.98-2.208 0-1.217.865-2.216 1.98-2.216s1.996.999 1.977 2.216-.872 2.208-1.978 2.208"/></svg>