<svg xmlns="http://www.w3.org/2000/svg" width="24" height="24" fill="none" data-fui-icon="true" viewBox="0 0 24 24"><path fill="currentColor" d="M12 1.25c2.73 0 4.286-.01 5.56.435a7.75 7.75 0 0 1 4.755 4.755c.446 1.274.435 2.83.435 5.56s.01 4.286-.435 5.56a7.75 7.75 0 0 1-4.755 4.755c-1.274.446-2.83.435-5.56.435s-4.286.01-5.56-.435a7.75 7.75 0 0 1-4.755-4.755c-.446-1.274-.435-2.83-.435-5.56s-.01-4.286.435-5.56A7.75 7.75 0 0 1 6.44 1.685C7.714 1.239 9.27 1.25 12 1.25m0 1.5c-2.856 0-4.092.01-5.064.35A6.25 6.25 0 0 0 3.1 6.937C2.76 7.908 2.75 9.144 2.75 12s.01 4.093.35 5.064A6.25 6.25 0 0 0 6.937 20.9c.972.34 2.208.351 5.064.351s4.092-.01 5.064-.35a6.25 6.25 0 0 0 3.835-3.835c.34-.973.351-2.21.351-5.065s-.01-4.092-.35-5.064A6.25 6.25 0 0 0 17.064 3.1c-.973-.34-2.21-.351-5.065-.351m5.47 6.22a.75.75 0 0 1 1.06 1.06l-3.94 3.94a2.25 2.25 0 0 1-3.18 0l-1.38-1.38a.75.75 0 0 0-1.06 0l-2.44 2.44a.75.75 0 1 1-1.06-1.06l2.44-2.44a2.25 2.25 0 0 1 3.18 0l1.38 1.38a.75.75 0 0 0 1.06 0z"/></svg>