<svg xmlns="http://www.w3.org/2000/svg" width="20" height="20" fill="none" data-fui-icon="true" viewBox="0 0 20 20"><path fill="currentColor" d="M10 0c1.582 0 2.813 0 3.8.078.995.08 1.807.243 2.54.607a6.6 6.6 0 0 1 2.975 2.975c.363.733.527 1.545.607 2.54C20 7.187 20 8.418 20 10s0 2.813-.078 3.8c-.08.995-.244 1.807-.607 2.54a6.6 6.6 0 0 1-2.975 2.975c-.733.363-1.545.527-2.54.607C12.813 20 11.582 20 10 20s-2.813 0-3.8-.078c-.995-.08-1.807-.244-2.54-.607A6.6 6.6 0 0 1 .685 16.34C.32 15.607.158 14.795.078 13.8 0 12.813 0 11.582 0 10s0-2.813.078-3.8c.08-.995.243-1.807.607-2.54A6.6 6.6 0 0 1 3.66.685C4.393.32 5.205.158 6.2.078 7.187 0 8.418 0 10 0M5.938 6.5A2.94 2.94 0 0 0 3 9.438v1.117a2.95 2.95 0 0 0 2.95 2.95h.397a2.25 2.25 0 0 0 2.25-2.25v-.541c0-.69-.56-1.25-1.25-1.25H6.48a.751.751 0 0 0 0 1.5h.617v.29a.75.75 0 0 1-.75.75H5.95c-.8 0-1.45-.649-1.45-1.45V9.439A1.44 1.44 0 0 1 5.938 8c.48 0 .78.188.966.366a1.4 1.4 0 0 1 .252.326l.035.07A.75.75 0 0 0 8.535 8.1l-.618.266c.593-.255.616-.267.617-.267v-.001l-.006-.012-.01-.022q-.01-.025-.03-.062a2.891 2.891 0 0 0-.548-.72C7.527 6.885 6.871 6.5 5.938 6.5m4.496 0a.75.75 0 0 0-.75.75v5.505a.75.75 0 0 0 1.5 0V7.25a.75.75 0 0 0-.75-.75m3.302 0c-.69 0-1.25.56-1.25 1.25v5.005a.75.75 0 0 0 1.5 0v-2.003h1.803a.75.75 0 0 0 0-1.5h-1.803V8h2.266a.75.75 0 0 0 0-1.5z"/></svg>