<svg xmlns="http://www.w3.org/2000/svg" width="20" height="20" fill="none" data-fui-icon="true" viewBox="0 0 20 20"><g clip-path="url(#a)"><path fill="currentColor" d="M7.05 1.25a4.75 4.75 0 0 1 3.273 8.188c2.141.966 3.27 2.697 3.85 4.103.682 1.658.14 3.648-1.605 4.462-1.16.54-2.856.997-5.268.997-2.619 0-4.393-.538-5.553-1.137-1.51-.78-2.045-2.495-1.591-4.013.433-1.453 1.424-3.359 3.634-4.398A4.75 4.75 0 0 1 7.05 1.25m1.653 9.203a4.74 4.74 0 0 1-3.3.003c-2.4.646-3.389 2.411-3.81 3.823-.28.941.073 1.854.843 2.251.923.477 2.456.97 4.864.97 2.219 0 3.695-.419 4.634-.856.901-.42 1.28-1.49.851-2.532-.571-1.387-1.723-3.04-4.082-3.659M13.5 2.25a3.75 3.75 0 0 1 2.827 6.21 5.9 5.9 0 0 1 2.723 2.584c.781 1.457.373 3.319-1.13 4.179a7 7 0 0 1-1.174.529.75.75 0 0 1-.492-1.417c.361-.125.666-.269.92-.414.731-.418.989-1.356.554-2.168-.457-.852-1.3-1.815-2.899-2.247-.413.157-.86.244-1.329.244a.75.75 0 0 1 0-1.5 2.25 2.25 0 1 0-.376-4.469.75.75 0 0 1-.248-1.48q.306-.05.624-.051m-6.45.5a3.25 3.25 0 1 0 0 6.5 3.25 3.25 0 0 0 0-6.5"/></g><defs><clipPath id="a"><path fill="currentColor" d="M0 0h20v20H0z"/></clipPath></defs></svg>