<svg xmlns="http://www.w3.org/2000/svg" width="12" height="12" fill="none" data-fui-icon="true" viewBox="0 0 12 12"><path fill="currentColor" d="M6.098 1.004c.451.036.846.323 1.02.741l.034.092.74 2.271 2.271.74a1.212 1.212 0 0 1 0 2.304l-2.271.74-.74 2.271a1.212 1.212 0 0 1-2.304 0l-.74-2.271-2.271-.74a1.212 1.212 0 0 1 0-2.304l2.271-.74.74-2.271.034-.092A1.21 1.21 0 0 1 6 1zm-.564 3.568a1.5 1.5 0 0 1-.962.962L3.141 6l1.431.466a1.5 1.5 0 0 1 .962.962L6 8.858l.466-1.43a1.5 1.5 0 0 1 .962-.962L8.858 6l-1.43-.466a1.5 1.5 0 0 1-.962-.962L6 3.141z"/></svg>