<svg xmlns="http://www.w3.org/2000/svg" width="12" height="12" fill="none" data-fui-icon="true" viewBox="0 0 12 12"><path fill="currentColor" d="M5.61 1.367c.234-.078.527-.078.761 0l3.906 1.485A1.1 1.1 0 0 1 11 3.887v4.746c0 .469-.293.86-.723 1.035l-3.906 1.484a1.27 1.27 0 0 1-.762 0L1.703 9.668A1.1 1.1 0 0 1 1 8.633V3.887c0-.469.273-.88.703-1.035zm.43.88H5.94l-3.71 1.405L6 5.137l3.75-1.485zM2.034 8.788l3.496 1.328v-4.16L1.938 4.551v4.082c0 .078.039.137.097.156m4.434 1.328L9.945 8.79a.17.17 0 0 0 .117-.156V4.55L6.47 5.957z"/></svg>