<svg xmlns="http://www.w3.org/2000/svg" width="32" height="32" fill="none" data-fui-icon="true" viewBox="0 0 32 32"><path fill="currentColor" d="M29.25 21a.75.75 0 0 1 .75.75v2.5A5.75 5.75 0 0 1 24.25 30H7.75A5.75 5.75 0 0 1 2 24.25v-2.5a.75.75 0 0 1 1.5 0v2.5a4.25 4.25 0 0 0 4.25 4.25h16.5a4.25 4.25 0 0 0 4.25-4.25v-2.5a.75.75 0 0 1 .75-.75M20.22 2.47a.75.75 0 0 1 1.06 0l4.75 4.75a.75.75 0 0 1 0 1.06l-4.75 4.75a.75.75 0 0 1-1.06-1.06l3.47-3.47h-5.94a4.25 4.25 0 0 0-4.25 4.25v8.5a.75.75 0 0 1-1.5 0v-8.5A5.75 5.75 0 0 1 17.75 7h5.94l-3.47-3.47a.75.75 0 0 1 0-1.06"/></svg>