<svg xmlns="http://www.w3.org/2000/svg" width="32" height="32" fill="none" data-fui-icon="true" viewBox="0 0 32 32"><g clip-path="url(#a)"><path fill="currentColor" d="M16 0a4.79 4.79 0 0 1 3.691 1.732c.46.553 1.008 1.055 1.672 1.33.583.24 1.219.292 1.849.256l.27-.02a4.8 4.8 0 0 1 3.841 1.387 4.79 4.79 0 0 1 1.384 3.836l-.02.269c-.035.632.017 1.27.26 1.853.274.663.775 1.21 1.326 1.67A4.79 4.79 0 0 1 32 16a4.79 4.79 0 0 1-1.72 3.68l-.204.178c-.47.425-.886.919-1.128 1.502-.277.67-.306 1.412-.24 2.134a4.79 4.79 0 0 1-1.385 3.831 4.79 4.79 0 0 1-3.837 1.386c-.72-.066-1.459-.038-2.128.238l-.244.113c-.557.288-1.029.733-1.433 1.216A4.79 4.79 0 0 1 16 32a4.79 4.79 0 0 1-3.523-1.541l-.171-.194c-.4-.48-.865-.922-1.417-1.207l-.241-.114c-.662-.273-1.395-.301-2.108-.234l-.258.017a4.78 4.78 0 0 1-3.587-1.4 4.79 4.79 0 0 1-1.402-3.575l.017-.258c.065-.719.036-1.457-.24-2.124-.277-.667-.781-1.216-1.337-1.678A4.79 4.79 0 0 1 0 16c0-1.395.595-2.651 1.546-3.528l.194-.17c.554-.459 1.056-1.005 1.331-1.67.241-.58.294-1.214.26-1.843l-.021-.268a4.8 4.8 0 0 1 1.385-3.837A4.79 4.79 0 0 1 8.545 3.3c.621.059 1.257.045 1.848-.143l.25-.09c.576-.24 1.063-.65 1.48-1.118l.174-.203A4.79 4.79 0 0 1 16 0m0 1.5c-1.024 0-1.94.465-2.547 1.201-.53.642-1.258 1.346-2.236 1.751-.98.406-1.99.42-2.814.341a3.29 3.29 0 0 0-2.647.951 3.29 3.29 0 0 0-.952 2.639c.076.827.062 1.84-.347 2.825-.408.983-1.116 1.716-1.76 2.249a3.3 3.3 0 0 0-1.191 2.353L1.5 16a3.29 3.29 0 0 0 1.192 2.54c.645.535 1.355 1.27 1.763 2.257.409.988.423 2.003.348 2.833a3.3 3.3 0 0 0 .953 2.636 3.29 3.29 0 0 0 2.644.95c.827-.078 1.838-.064 2.82.343.979.404 1.708 1.108 2.24 1.748A3.29 3.29 0 0 0 16 30.5a3.29 3.29 0 0 0 2.53-1.184c.537-.64 1.272-1.347 2.255-1.753.99-.41 2.008-.422 2.839-.345a3.3 3.3 0 0 0 2.639-.953l.13-.138c.628-.703.902-1.61.822-2.496-.076-.832-.063-1.853.348-2.845.407-.983 1.113-1.719 1.754-2.256A3.29 3.29 0 0 0 30.5 16a3.29 3.29 0 0 0-1.187-2.535c-.641-.535-1.346-1.267-1.752-2.248-.41-.988-.424-2.004-.347-2.834a3.29 3.29 0 0 0-.821-2.5l-.13-.138a3.3 3.3 0 0 0-2.643-.953c-.828.077-1.843.064-2.83-.344-.983-.406-1.717-1.114-2.252-1.757A3.29 3.29 0 0 0 16 1.5m0 19.25a1.25 1.25 0 1 1 0 2.5 1.25 1.25 0 0 1 0-2.5M16 8a.75.75 0 0 1 .75.75v8.5a.75.75 0 0 1-1.5 0v-8.5A.75.75 0 0 1 16 8"/></g><defs><clipPath id="a"><path fill="currentColor" d="M0 0h32v32H0z"/></clipPath></defs></svg>