<svg xmlns="http://www.w3.org/2000/svg" width="32" height="32" fill="none" data-fui-icon="true" viewBox="0 0 32 32"><path fill="currentColor" d="M16.736 2a4.25 4.25 0 0 1 4.203 3.62L21.146 7h6.104a.75.75 0 0 1 0 1.5h-1.072L24.39 26.227A4 4 0 0 1 20.398 30h-8.795a4 4 0 0 1-3.994-3.773L5.822 8.5H4.75a.75.75 0 0 1 0-1.5h6.104l.208-1.38A4.25 4.25 0 0 1 15.264 2zM9.103 26.076l.002.04.024.246a2.5 2.5 0 0 0 2.473 2.138h8.796a2.5 2.5 0 0 0 2.497-2.384l.003-.04L24.67 8.5H7.329zM15.263 3.5a2.75 2.75 0 0 0-2.718 2.342L12.37 7h7.258l-.174-1.158A2.75 2.75 0 0 0 16.736 3.5z"/></svg>