<svg xmlns="http://www.w3.org/2000/svg" width="32" height="32" fill="none" data-fui-icon="true" viewBox="0 0 32 32"><path fill="currentColor" d="M15.896 2.917c.906 0 1.775.36 2.415 1.001l7.105 7.105c.64.64 1 1.51 1 2.415v12.229A3.417 3.417 0 0 1 23 29.084H9a3.42 3.42 0 0 1-3.417-3.417V6.334A3.42 3.42 0 0 1 9 2.917zM9 4.417a1.92 1.92 0 0 0-1.917 1.917v19.333c0 1.058.859 1.917 1.917 1.917h14a1.917 1.917 0 0 0 1.916-1.917V13.438q0-.18-.034-.354h-5.216a3.417 3.417 0 0 1-3.416-3.417V4.45a2 2 0 0 0-.354-.033zM21.625 21.75a.75.75 0 0 1 0 1.5h-11.25a.75.75 0 0 1 0-1.5zm-5.312-5.478a.75.75 0 0 1 0 1.5h-5.938a.75.75 0 0 1 0-1.5zm1.437-6.605c0 1.058.858 1.917 1.916 1.917h4.19L17.75 5.479z"/></svg>