<svg xmlns="http://www.w3.org/2000/svg" width="32" height="32" fill="none" data-fui-icon="true" viewBox="0 0 32 32"><path fill="currentColor" d="M26.18 2a4.32 4.32 0 0 1 4.32 4.32v19.36A4.32 4.32 0 0 1 26.18 30H6.82a4.32 4.32 0 0 1-4.32-4.32V6.32A4.32 4.32 0 0 1 6.82 2zM6.82 3.5A2.82 2.82 0 0 0 4 6.32v19.36a2.82 2.82 0 0 0 2.82 2.82h19.36A2.82 2.82 0 0 0 29 25.68V6.32a2.82 2.82 0 0 0-2.82-2.82zM18.25 13a.75.75 0 0 1 .75.75v9.75h1.25a.75.75 0 0 1 0 1.5h-7.5a.75.75 0 0 1 0-1.5H14v-9h-1.25a.75.75 0 0 1 0-1.5zM15.5 23.5h2v-9h-2zm1-16.496a2.5 2.5 0 1 1 0 5 2.5 2.5 0 0 1 0-5m0 1.5a1 1 0 1 0 0 2 1 1 0 0 0 0-2"/></svg>