<svg xmlns="http://www.w3.org/2000/svg" width="20" height="20" fill="none" data-fui-icon="true" viewBox="0 0 20 20"><path fill="currentColor" d="M12.988 2.095c.835 0 1.625.38 2.147 1.032l3.263 4.078a2.75 2.75 0 0 1-.127 3.583l-6.251 6.773a2.75 2.75 0 0 1-4.041 0l-6.251-6.773a2.75 2.75 0 0 1-.127-3.583l3.263-4.078A2.75 2.75 0 0 1 7.01 2.095zm-5.977 1.5c-.38 0-.74.172-.976.468l-3.263 4.08A1.25 1.25 0 0 0 2.83 9.77l6.252 6.773a1.25 1.25 0 0 0 1.836 0L17.17 9.77a1.25 1.25 0 0 0 .058-1.627l-3.263-4.08a1.25 1.25 0 0 0-.976-.468zm2.507 2.183c.137-.485.826-.485.963 0l.532 1.88a.5.5 0 0 0 .345.345l1.879.532c.485.137.485.825 0 .962l-1.88.532a.5.5 0 0 0-.344.345l-.532 1.88c-.137.485-.826.485-.963 0l-.531-1.88a.5.5 0 0 0-.346-.345l-1.879-.532c-.485-.137-.485-.825 0-.962l1.88-.532a.5.5 0 0 0 .345-.345z"/></svg>