<svg xmlns="http://www.w3.org/2000/svg" width="16" height="16" fill="none" data-fui-icon="true" viewBox="0 0 16 16"><path fill="currentColor" d="M11.79 8.035a2.368 2.368 0 0 1 3.347 3.349l-3.221 3.221a2.75 2.75 0 0 1-1.64.789l-.883.097a1.55 1.55 0 0 1-1.712-1.71l.098-.883c.07-.621.347-1.2.788-1.641zM6.235 8.5c.59 0 1.161.075 1.703.217a.75.75 0 0 1-.378 1.451A5.2 5.2 0 0 0 6.236 10C3.553 10 1.5 11.967 1.5 14.25a.75.75 0 0 1-1.5 0C0 11.01 2.86 8.5 6.236 8.5m3.392 3.817c-.2.2-.327.464-.358.745l-.098.883a.05.05 0 0 0 .055.055l.882-.098c.282-.031.546-.157.746-.358l1.832-1.832-1.226-1.228zm4.448-3.221a.87.87 0 0 0-1.226 0l-.328.328 1.226 1.227.328-.328a.87.87 0 0 0 0-1.227M6.75 0a3.75 3.75 0 1 1 0 7.5 3.75 3.75 0 0 1 0-7.5m0 1.5a2.25 2.25 0 1 0 0 4.5 2.25 2.25 0 0 0 0-4.5"/></svg>