<svg xmlns="http://www.w3.org/2000/svg" width="16" height="16" fill="none" data-fui-icon="true" viewBox="0 0 16 16"><path stroke="currentColor" stroke-linecap="round" stroke-linejoin="round" stroke-width="1.5" d="M11.063 3.25H12c.69 0 1.25.56 1.25 1.25V14c0 .69-.56 1.25-1.25 1.25H4c-.69 0-1.25-.56-1.25-1.25V4.5c0-.69.56-1.25 1.25-1.25h.938m.812 5h4.5m-4.5 3.5h4.5"/><path fill="currentColor" d="m6.745 2.23-.63-.406zm.482-.75.631.405zm-.494.77V3a.75.75 0 0 0 .648-.373zm2.534 0-.648.377A.75.75 0 0 0 9.267 3zm-.012-.02.63-.406zm-.482-.75.63-.406zM7.376 2.635l.482-.75-1.261-.811-.483.75zm.005-.008-.005.008-1.262-.81-.03.048zM5.501 3h1.232V1.5H5.5zm.249-.25A.25.25 0 0 1 5.5 3V1.5c-.689 0-1.25.559-1.25 1.25zm0 1.5v-1.5h-1.5v1.5zM5.5 4a.25.25 0 0 1 .25.25h-1.5c0 .69.56 1.25 1.25 1.25zm5 0h-5v1.5h5zm-.25.25A.25.25 0 0 1 10.5 4v1.5c.69 0 1.25-.56 1.25-1.25zm0-1.5v1.5h1.5v-1.5zm.25.25a.25.25 0 0 1-.25-.25h1.5A1.25 1.25 0 0 0 10.5 1.5zM9.266 3H10.5V1.5H9.266zm-.643-.365-.005-.008 1.297-.754-.03-.049zm-.482-.75.482.75 1.262-.81-.482-.751zm.21.115a.25.25 0 0 1-.21-.115l1.261-.811A1.25 1.25 0 0 0 8.353.5zm-.704 0h.704V.5h-.704zm.21-.115a.25.25 0 0 1-.21.115V.5a1.25 1.25 0 0 0-1.051.574z"/></svg>