<svg xmlns="http://www.w3.org/2000/svg" width="32" height="32" fill="none" data-fui-icon="true" viewBox="0 0 32 32"><g clip-path="url(#a)"><path fill="currentColor" fill-rule="evenodd" d="M20.503 32c6.351 0 11.5-5.15 11.5-11.501 0-6.352-5.149-11.501-11.5-11.501H2.54l7.68-7.719A.75.75 0 0 0 9.16.22L.219 9.203a.75.75 0 0 0 0 1.059l8.94 8.982a.75.75 0 0 0 1.062-1.059l-7.649-7.687h17.93c5.524 0 10.002 4.478 10.002 10 0 5.524-4.478 10.002-10.001 10.002h-2.918a.75.75 0 0 0 0 1.5z" clip-rule="evenodd"/></g><defs><clipPath id="a"><path fill="currentColor" d="M0 0h32v32H0z"/></clipPath></defs></svg>