<svg xmlns="http://www.w3.org/2000/svg" width="20" height="20" fill="none" data-fui-icon="true" viewBox="0 0 20 20"><path fill="currentColor" d="M16.75 1a2.75 2.75 0 0 1 2.75 2.75v12.5A2.75 2.75 0 0 1 16.75 19H3.25A2.75 2.75 0 0 1 .5 16.25V3.75A2.75 2.75 0 0 1 3.25 1zM3.25 2.5C2.56 2.5 2 3.06 2 3.75v12.5c0 .69.56 1.25 1.25 1.25h13.5c.69 0 1.25-.56 1.25-1.25V3.75c0-.69-.56-1.25-1.25-1.25zM10 4.25a5.75 5.75 0 1 1 0 11.5 5.75 5.75 0 0 1 0-11.5m-.982 6.5c.032.676.106 1.292.211 1.8l.042.192C9.454 13.517 9.713 14 10 14s.546-.483.729-1.258l.042-.191c.105-.51.18-1.125.211-1.801zm-3.202 0a4.26 4.26 0 0 0 2.188 3.003 6 6 0 0 1-.166-.56c-.172-.688-.283-1.534-.322-2.443zm6.668 0c-.039.91-.15 1.755-.322 2.442a6 6 0 0 1-.166.56 4.26 4.26 0 0 0 2.188-3.002zm-4.48-4.503A4.26 4.26 0 0 0 5.816 9.25h1.7c.039-.91.15-1.754.322-2.442.046-.185.1-.375.166-.56M10 6c-.287 0-.546.483-.729 1.258l-.042.191c-.105.51-.18 1.125-.211 1.801h1.964a12 12 0 0 0-.211-1.8l-.043-.192C10.547 6.483 10.288 6 10 6m1.996.247c.065.186.12.376.166.56.172.689.283 1.534.322 2.443h1.7a4.26 4.26 0 0 0-2.188-3.003"/></svg>