<svg xmlns="http://www.w3.org/2000/svg" width="16" height="16" fill="none" data-fui-icon="true" viewBox="0 0 16 16"><path fill="currentColor" d="M8.777 2.303a.75.75 0 0 1 1.447.394l-3 11a.75.75 0 0 1-1.447-.394zm-5.49 2.35A.75.75 0 0 1 4.38 5.68L2.573 7.6a.583.583 0 0 0 0 .8l1.806 1.92a.75.75 0 0 1-1.092 1.027l-1.806-1.92a2.083 2.083 0 0 1 0-2.855zm8.366-.033a.75.75 0 0 1 1.06.032l1.807 1.92a2.084 2.084 0 0 1 0 2.856l-1.807 1.92a.75.75 0 0 1-1.093-1.029l1.807-1.92a.583.583 0 0 0 0-.799L11.62 5.68a.75.75 0 0 1 .033-1.06"/></svg>