<svg xmlns="http://www.w3.org/2000/svg" width="32" height="32" fill="none" data-fui-icon="true" viewBox="0 0 32 32"><path fill="currentColor" d="M16.009 1.5c.8 0 1.586.228 2.262.657l8.988 5.701a3.75 3.75 0 0 1 1.74 3.166v9.952a3.75 3.75 0 0 1-1.74 3.166l-8.988 5.7a4.22 4.22 0 0 1-4.524 0l-8.988-5.7a3.75 3.75 0 0 1-1.742-3.166v-9.952A3.75 3.75 0 0 1 4.76 7.858l8.988-5.7a4.2 4.2 0 0 1 2.262-.658m0 1.5c-.517 0-1.023.147-1.46.424L5.563 9.125a2.25 2.25 0 0 0-1.045 1.9v9.95c0 .77.395 1.487 1.045 1.9l8.988 5.701a2.72 2.72 0 0 0 2.918 0l8.987-5.701a2.25 2.25 0 0 0 1.045-1.9v-9.95a2.25 2.25 0 0 0-1.045-1.9l-8.987-5.701A2.72 2.72 0 0 0 16.008 3m-7.79 8.468a.75.75 0 0 1 1.017-.302l6.768 3.661 6.768-3.661a.75.75 0 0 1 .714 1.318l-6.737 3.647v7.981a.75.75 0 0 1-1.5 0v-7.987l-6.727-3.64a.75.75 0 0 1-.303-1.017"/></svg>