<svg xmlns="http://www.w3.org/2000/svg" width="32" height="32" fill="none" data-fui-icon="true" viewBox="0 0 32 32"><path fill="currentColor" d="M15.481 2.917c2.095 0 3.706 1.87 3.382 3.943l-.633 4.057h6.116a4.75 4.75 0 0 1 4.696 5.465l-1.116 7.333a4.75 4.75 0 0 1-4.696 4.035H5a2.083 2.083 0 0 1-2.083-2.083v-10c0-1.15.933-2.083 2.083-2.083h3.715l4.913-9.538a2.09 2.09 0 0 1 1.853-1.129M5 15.084a.583.583 0 0 0-.583.583v10c0 .322.261.583.583.583h3.25V15.084zM15.481 4.417c-.22 0-.42.123-.52.316L9.75 14.85v11.4h13.48a3.25 3.25 0 0 0 3.212-2.76l1.117-7.334a3.25 3.25 0 0 0-3.213-3.739h-6.99a.753.753 0 0 1-.742-.865l.768-4.923a1.922 1.922 0 0 0-1.9-2.212"/></svg>