<svg xmlns="http://www.w3.org/2000/svg" width="20" height="20" fill="none" data-fui-icon="true" viewBox="0 0 20 20"><path fill="currentColor" d="M11.75 1a.75.75 0 0 1 0 1.5H8.105a2.25 2.25 0 0 0-1.872 1.002l-.432.648A3.03 3.03 0 0 1 3.28 5.5 1.53 1.53 0 0 0 1.75 7.03v8.22A2.25 2.25 0 0 0 4 17.5h12a2.25 2.25 0 0 0 2.25-2.25V9.5a.75.75 0 0 1 1.5 0v5.75A3.75 3.75 0 0 1 16 19H4a3.75 3.75 0 0 1-3.75-3.75V7.03A3.03 3.03 0 0 1 3.28 4a1.53 1.53 0 0 0 1.273-.682l.432-.648A3.75 3.75 0 0 1 8.105 1zM10 6.5a4.25 4.25 0 1 1 0 8.5 4.25 4.25 0 0 1 0-8.5M10 8a2.75 2.75 0 1 0 0 5.5A2.75 2.75 0 0 0 10 8m6.5-7a.75.75 0 0 1 .75.75V3.5H19A.75.75 0 0 1 19 5h-1.75v1.75a.75.75 0 0 1-1.5 0V5H14a.75.75 0 0 1 0-1.5h1.75V1.75A.75.75 0 0 1 16.5 1"/></svg>