<svg xmlns="http://www.w3.org/2000/svg" width="12" height="12" fill="none" data-fui-icon="true" viewBox="0 0 12 12"><path fill="currentColor" d="M8.135 1.435a1.25 1.25 0 0 1 2.415.646l-.214.798h.405a1.25 1.25 0 1 1 0 2.5H9.666l-.356 1.33h.52a1.25 1.25 0 1 1 0 2.5H8.64l-.338 1.262a1.25 1.25 0 1 1-2.414-.648l.164-.614h-1.79l-.337 1.262a1.25 1.25 0 0 1-2.414-.648l.164-.614h-.417a1.25 1.25 0 0 1 0-2.5h1.087L2.7 5.38H2.17a1.25 1.25 0 0 1 0-2.5H3.37l.387-1.444a1.25 1.25 0 0 1 2.415.646l-.214.798h1.79zM4.933 6.709h1.789l.356-1.33H5.29z"/></svg>