<svg xmlns="http://www.w3.org/2000/svg" width="12" height="12" fill="none" data-fui-icon="true" viewBox="0 0 12 12"><path fill="currentColor" d="M3.997 0c.449 0 .79.255.982.553l.072.129.075.131c.193.292.516.476.874.476.409 0 .773-.24.95-.607l.071-.13C7.212.256 7.554 0 8.003 0H9.5A1.5 1.5 0 0 1 11 1.5v9A1.5 1.5 0 0 1 9.5 12H8.003c-.513 0-.886-.333-1.054-.682A1.06 1.06 0 0 0 6 10.711c-.409 0-.773.24-.95.607-.167.349-.54.682-1.053.682H2.5A1.5 1.5 0 0 1 1 10.5v-9A1.5 1.5 0 0 1 2.5 0zM2.5 10.5h1.288A2.55 2.55 0 0 1 6 9.21c.95 0 1.772.524 2.212 1.29H9.5v-9H8.212A2.55 2.55 0 0 1 6 2.79 2.55 2.55 0 0 1 3.788 1.5H2.5zm4.845-6.905a.75.75 0 1 1 1.06 1.06l-3.75 3.75a.75.75 0 1 1-1.06-1.06zM7.75 6.75a.75.75 0 1 1 0 1.5.75.75 0 0 1 0-1.5m-3.5-3a.75.75 0 1 1 0 1.5.75.75 0 0 1 0-1.5"/></svg>