<svg xmlns="http://www.w3.org/2000/svg" width="16" height="16" fill="none" data-fui-icon="true" viewBox="0 0 16 16"><g clip-path="url(#a)"><path fill="currentColor" d="M9.795.124a4.44 4.44 0 0 1 5.324 3.328l.465 2.012a.395.395 0 0 1-.296.473l-3.948.912a3.453 3.453 0 0 0-2.587 4.141l.91 3.948a.395.395 0 0 1-.295.473l-2.012.465a4.44 4.44 0 0 1-5.325-3.327L.699 6.781a4.44 4.44 0 0 1 3.328-5.326zm5.4 7.375a.378.378 0 0 1 .465.422 9.8 9.8 0 0 1-4.05 6.482.378.378 0 0 1-.584-.234l-.812-3.516a1.953 1.953 0 0 1 1.464-2.343z"/></g><defs><clipPath id="a"><path fill="currentColor" d="M0 0h16v16H0z"/></clipPath></defs></svg>