<svg xmlns="http://www.w3.org/2000/svg" width="32" height="32" fill="none" data-fui-icon="true" viewBox="0 0 32 32"><path fill="currentColor" d="M16 1c8.284 0 15 6.716 15 15 0 4.73-2.19 8.947-5.61 11.696l-.08.064q-.22.174-.448.342l-.083.06q-.227.165-.462.321-.043.03-.087.057-.24.16-.489.31l-.043.025q-.538.322-1.104.6l-.04.02q-.278.135-.564.259l-.045.02q-.274.119-.555.227l-.094.035a15 15 0 0 1-.759.264l-.086.027a15 15 0 0 1-1.311.343l-.059.013-.192.038-.192.036-.13.023a15 15 0 0 1-.75.11l-.174.02-.199.02-.174.015q-.076.008-.153.013-.11.009-.223.014-.087.006-.176.01l-.18.007-.163.006a15 15 0 0 1-.751 0l-.162-.006-.18-.007q-.09-.004-.178-.01l-.222-.014-.153-.013-.174-.015-.199-.02a15 15 0 0 1-.704-.094 15 15 0 0 1-.542-.095l-.192-.038-.059-.013a15 15 0 0 1-1.311-.343l-.086-.027a15 15 0 0 1-.759-.264l-.094-.035a15 15 0 0 1-.555-.228l-.045-.02q-.285-.123-.564-.258l-.04-.02a15 15 0 0 1-1.104-.6l-.043-.025q-.248-.15-.49-.31-.043-.028-.086-.057-.235-.157-.462-.322l-.083-.06a15 15 0 0 1-.449-.341l-.079-.064A14.97 14.97 0 0 1 1 16C1 7.716 7.716 1 16 1m0 23a13.44 13.44 0 0 0-8.163 2.75q.123.095.248.186a13 13 0 0 0 .93.619 13.5 13.5 0 0 0 1.578.817l.066.03q.231.098.465.189l.135.052a13 13 0 0 0 1.688.51 13 13 0 0 0 1.133.21l.088.013q.27.036.541.063l.076.006q.28.026.56.038l.071.003a14 14 0 0 0 1.167 0q.036 0 .07-.003.282-.013.56-.038l.077-.006q.272-.027.541-.063l.088-.013a13.6 13.6 0 0 0 2.821-.72l.135-.052q.234-.09.465-.19l.066-.029a13 13 0 0 0 1.577-.817 14 14 0 0 0 .931-.619q.125-.09.248-.186A13.43 13.43 0 0 0 16 24m0-21.5C8.544 2.5 2.5 8.544 2.5 16c0 3.835 1.6 7.297 4.168 9.755A14.94 14.94 0 0 1 16 22.5a14.94 14.94 0 0 1 9.331 3.255A13.46 13.46 0 0 0 29.5 16c0-7.456-6.044-13.5-13.5-13.5m0 6a5.5 5.5 0 1 1 0 11 5.5 5.5 0 0 1 0-11m0 1.5a4 4 0 1 0 0 8 4 4 0 0 0 0-8"/></svg>