<svg xmlns="http://www.w3.org/2000/svg" width="24" height="24" fill="none" data-fui-icon="true" viewBox="0 0 24 24"><path fill="currentColor" d="M11.913 1.25c.78 0 1.53.303 2.086.848l5.88 5.76a2.9 2.9 0 0 1 .871 2.065v9.915c0 1.623-1.338 2.912-2.957 2.912H6.207c-1.618 0-2.957-1.29-2.957-2.912V4.162c0-1.623 1.339-2.912 2.957-2.912zm.346 9.5a.75.75 0 0 0-.75.75v4.826l-1.085-1.084a.75.75 0 1 0-1.06 1.06l2 2.002c.44.439 1.152.439 1.591 0l2.174-2.175a.75.75 0 1 0-1.06-1.06l-1.06 1.06V11.5a.75.75 0 0 0-.75-.75m1.318-3.885c0 .765.638 1.412 1.457 1.412h3.13l-4.587-4.494z"/></svg>