<svg xmlns="http://www.w3.org/2000/svg" width="20" height="20" fill="none" data-fui-icon="true" viewBox="0 0 20 20"><path fill="currentColor" d="M10.83 1.447a2.3 2.3 0 0 1 2.057 1.892l.118.672q.4.194.767.435l.688-.247.198-.061a2.34 2.34 0 0 1 2.602 1.068h.001l.598 1.014h-.001c.571.968.355 2.2-.518 2.91v.002l-.55.447q.015.208.015.421l-.015.42.55.448v.001c.873.711 1.09 1.943.519 2.911l-.598 1.014h-.001a2.34 2.34 0 0 1-2.8 1.007l-.688-.248q-.367.24-.767.434l-.118.674a2.3 2.3 0 0 1-2.058 1.892l-.207.01H9.366a2.3 2.3 0 0 1-2.264-1.9l-.12-.675a7 7 0 0 1-.769-.435l-.684.247h-.001a2.34 2.34 0 0 1-2.8-1.006l-.598-1.013a2.26 2.26 0 0 1 .519-2.913l.549-.45L3.184 10q0-.213.014-.422l-.55-.447a2.26 2.26 0 0 1-.518-2.912l.599-1.014A2.34 2.34 0 0 1 5.528 4.2l.685.246a7 7 0 0 1 .77-.435l.119-.672a2.3 2.3 0 0 1 2.264-1.9h1.256zm-1.464 1.49a.8.8 0 0 0-.788.662L8.39 4.664l-.071.406-.382.158a5.3 5.3 0 0 0-1.164.658l-.324.24-.378-.136-1.051-.378a.84.84 0 0 0-1 .357L3.42 6.983a.76.76 0 0 0 .175.986l.86.702.324.264-.053.413a5 5 0 0 0 0 1.305l.053.413-.323.264-.86.702-.001.001a.76.76 0 0 0-.175.986l.599 1.013v.001c.2.339.624.492 1 .357l1.05-.378.38-.138.323.241q.4.3.855.52l.309.139.382.157.07.406.19 1.064v.001a.8.8 0 0 0 .787.662h1.256l.143-.013a.8.8 0 0 0 .645-.649l.188-1.064.071-.407.383-.157a5.3 5.3 0 0 0 1.162-.659l.323-.24.38.136 1.051.379a.84.84 0 0 0 1.001-.357l.598-1.013.06-.13a.76.76 0 0 0-.234-.858l-.862-.7-.323-.264.053-.414q.043-.326.044-.653-.001-.327-.044-.653l-.053-.414.323-.264.862-.701a.76.76 0 0 0 .174-.987l-.598-1.013a.84.84 0 0 0-.858-.395l-.143.038-1.052.378-.379.136-.323-.24a5.3 5.3 0 0 0-1.162-.658l-.383-.158-.071-.407L11.41 3.6a.8.8 0 0 0-.645-.649l-.143-.013zM10 7.064a2.938 2.938 0 1 1 0 5.875 2.938 2.938 0 0 1 0-5.876m0 1.5a1.437 1.437 0 1 0 0 2.874 1.437 1.437 0 0 0 0-2.874"/></svg>