<svg xmlns="http://www.w3.org/2000/svg" width="20" height="20" fill="none" data-fui-icon="true" viewBox="0 0 20 20"><g clip-path="url(#a)"><path fill="currentColor" d="M10 0c5.42 0 10 4.58 10 10s-4.58 10-10 10S0 15.42 0 10 4.58 0 10 0m0 1.5c-4.59 0-8.5 3.91-8.5 8.5s3.91 8.5 8.5 8.5 8.5-3.91 8.5-8.5-3.91-8.5-8.5-8.5m2.767 11.165a.75.75 0 0 1 1.341.67l-.487-.243c.487.243.487.245.486.245l-.007.015a2 2 0 0 1-.063.112c-.04.068-.099.16-.177.268-.154.215-.39.495-.715.775-.661.566-1.689 1.118-3.145 1.118s-2.484-.552-3.145-1.118a4.5 4.5 0 0 1-.715-.775 4 4 0 0 1-.24-.38l-.007-.015-.001-.001.487-.244-.487.243a.75.75 0 0 1 1.34-.67v-.003l.02.035q.03.052.104.157c.1.137.256.325.476.514.433.371 1.124.757 2.168.757s1.735-.386 2.168-.757a3 3 0 0 0 .58-.67zM6 8.25a1 1 0 1 1 0 2 1 1 0 0 1 0-2m8 0a1 1 0 1 1 0 2 1 1 0 0 1 0-2"/></g><defs><clipPath id="a"><path fill="currentColor" d="M0 0h20v20H0z"/></clipPath></defs></svg>