<svg xmlns="http://www.w3.org/2000/svg" width="16" height="16" fill="none" data-fui-icon="true" viewBox="0 0 16 16"><path fill="currentColor" d="M7.132.633a1.75 1.75 0 0 1 1.736 0l6 3.427c.545.312.882.892.882 1.52v.753c0 .598-.485 1.084-1.083 1.084h-.417v4.648a1.999 1.999 0 0 1-.5 3.935H2.25a2 2 0 0 1-.5-3.935V7.417h-.417A1.084 1.084 0 0 1 .25 6.333V5.58c0-.628.337-1.208.882-1.52zM2.25 13.5a.5.5 0 0 0 0 1h11.5a.5.5 0 0 0 0-1zm1-6.083V12H4.5V7.417zm2.75 0V12h4V7.417zm5.5 0V12h1.25V7.417zM8.124 1.934a.25.25 0 0 0-.248 0l-6 3.43a.25.25 0 0 0-.126.216v.337h12.5V5.58a.25.25 0 0 0-.126-.217z"/></svg>