<svg xmlns="http://www.w3.org/2000/svg" width="24" height="24" fill="none" data-fui-icon="true" viewBox="0 0 24 24"><path fill="currentColor" d="M13.26 2.072c3.103 0 4.795 1.116 5.633 2.526.175.294.306.594.406.886 1.504.696 2.305 1.727 2.701 2.722a5.1 5.1 0 0 1 .325 2.353q-.021.193-.045.367v.008a8.47 8.47 0 0 1-1.852 4.153c-1.446 1.733-3.927 3.231-8.089 3.231h-1.088a.17.17 0 0 0-.169.138l-.625 3.127a1.67 1.67 0 0 1-1.639 1.344H5.874c-.945 0-1.65-.87-1.455-1.794l.204-.97H3.12a1.488 1.488 0 0 1-1.45-1.811l3.165-14.25a2.594 2.594 0 0 1 2.531-2.03zM19.58 7.4a5 5 0 0 1-.066.744c-.08.536-.433 2.168-1.866 3.67-1.454 1.522-3.93 2.818-8.076 2.818H8.45a.17.17 0 0 0-.167.13L7.25 18.895c-.14.56-.553.993-1.075 1.174l-.285 1.358h2.928a.17.17 0 0 0 .168-.138l.625-3.127a1.67 1.67 0 0 1 1.64-1.344h1.088c3.755 0 5.8-1.329 6.937-2.692a6.97 6.97 0 0 0 1.516-3.392l.001-.007c.016-.117.03-.221.041-.326.03-.275.053-.934-.227-1.64A3.26 3.26 0 0 0 19.58 7.4M7.365 3.572c-.512 0-.956.357-1.067.857L3.136 18.662h2.492a.17.17 0 0 0 .167-.13l1.033-4.134a1.67 1.67 0 0 1 1.622-1.266h1.123c3.81 0 5.867-1.178 6.99-2.355 1.143-1.197 1.413-2.491 1.468-2.857q.019-.125.033-.252c.039-.353.086-1.385-.46-2.304-.507-.85-1.637-1.792-4.344-1.792z"/></svg>