<svg xmlns="http://www.w3.org/2000/svg" width="12" height="12" fill="none" data-fui-icon="true" viewBox="0 0 12 12"><path fill="currentColor" d="M10.667 2.34c.183 0 .333.15.333.333V9.34c0 .183-.15.333-.333.333H1.333A.334.334 0 0 1 1 9.34V2.673c0-.183.15-.333.333-.333zm-9.334-1C.598 1.34 0 1.938 0 2.673V9.34c0 .735.598 1.333 1.333 1.333h9.334c.735 0 1.333-.598 1.333-1.333V2.673c0-.735-.598-1.333-1.333-1.333zm2.834 3.667c.296 0 .562.127.745.333a.5.5 0 0 0 .746-.667 2 2 0 1 0 0 2.667.5.5 0 0 0-.746-.667 1 1 0 1 1-.746-1.667m3 1a1 1 0 0 1 1.745-.667.5.5 0 0 0 .746-.667 2 2 0 1 0 0 2.667.5.5 0 0 0-.745-.667 1 1 0 0 1-1.746-.667"/></svg>