<svg xmlns="http://www.w3.org/2000/svg" width="12" height="12" fill="none" data-fui-icon="true" viewBox="0 0 12 12"><path fill="currentColor" d="M4.625 1.125a.75.75 0 0 1 0 1.5h-1.15c-.293 0-.467 0-.596.01-.12.01-.134.026-.117.017a.25.25 0 0 0-.11.11c.009-.017-.006-.003-.016.117-.01.129-.011.303-.011.596v5.05c0 .293 0 .467.01.596.01.12.026.134.017.117a.3.3 0 0 0 .046.064l.064.046h.008q.022.007.109.016c.129.01.303.011.596.011h5.05c.293 0 .467 0 .596-.01.12-.01.134-.026.117-.017a.25.25 0 0 0 .11-.11c-.009.017.006.003.016-.117.01-.129.011-.303.011-.596v-1.15a.75.75 0 0 1 1.5 0v1.15c0 .268 0 .514-.017.718a1.8 1.8 0 0 1-.173.677c-.168.329-.436.597-.765.765-.23.117-.464.156-.677.173-.204.017-.45.017-.718.017h-5.05c-.268 0-.514 0-.718-.017a1.8 1.8 0 0 1-.677-.173 1.75 1.75 0 0 1-.765-.765 1.8 1.8 0 0 1-.173-.677c-.017-.204-.017-.45-.017-.718v-5.05c0-.268 0-.514.017-.718.017-.213.056-.447.173-.677a1.75 1.75 0 0 1 .765-.765c.23-.117.464-.156.677-.173.204-.017.45-.017.718-.017zm5.5 0a.75.75 0 0 1 .75.75v3.25a.75.75 0 0 1-1.5 0v-1.44L6.03 7.03a.75.75 0 1 1-1.06-1.06l3.344-3.345H6.875a.75.75 0 0 1 0-1.5z"/></svg>