<svg xmlns="http://www.w3.org/2000/svg" width="16" height="16" fill="none" data-fui-icon="true" viewBox="0 0 16 16"><path fill="currentColor" fill-rule="evenodd" d="M11.5 2.5a2 2 0 1 0 0 4 2 2 0 0 0 0-4m-.5 2a.5.5 0 1 1 1 0 .5.5 0 0 1-1 0" clip-rule="evenodd"/><path fill="currentColor" fill-rule="evenodd" d="M6.75 0A3.25 3.25 0 0 0 3.5 3.25v6a3.25 3.25 0 0 0 3.25 3.25h6A3.25 3.25 0 0 0 16 9.25v-6A3.25 3.25 0 0 0 12.75 0zM5 3.25c0-.966.784-1.75 1.75-1.75h6c.966 0 1.75.784 1.75 1.75v6c0 .528-.233 1-.603 1.322L8.16 4.613a2 2 0 0 0-3.01.146l-.15.19zm2.08 2.403L12.227 11H6.75A1.75 1.75 0 0 1 5 9.25V7.365l.02-.025 1.307-1.65a.5.5 0 0 1 .753-.037" clip-rule="evenodd"/><path fill="currentColor" d="M2 3.75a.75.75 0 0 0-1.5 0v8.5a3.25 3.25 0 0 0 3.25 3.25h8.5a.75.75 0 0 0 0-1.5h-8.5A1.75 1.75 0 0 1 2 12.25z"/></svg>