<svg xmlns="http://www.w3.org/2000/svg" width="20" height="20" fill="none" data-fui-icon="true" viewBox="0 0 20 20"><path fill="currentColor" d="M9.924.25c.713 0 1.396.286 1.898.792l5.144 5.184c.503.506.784 1.19.784 1.904v8.924a2.69 2.69 0 0 1-2.68 2.696H4.93a2.69 2.69 0 0 1-2.68-2.696V2.946A2.69 2.69 0 0 1 4.93.25zM4.93 1.75c-.647 0-1.181.53-1.181 1.196v14.108c0 .666.534 1.196 1.18 1.196h10.14c.646 0 1.18-.53 1.18-1.196V8.13q0-.028-.003-.056h-3.592a2.69 2.69 0 0 1-2.68-2.696V1.752l-.051-.002zm5.296 7a.75.75 0 0 1 .75.75v4.66l1.091-1.092a.75.75 0 0 1 1.06 1.06l-2.173 2.175c-.44.44-1.151.439-1.59 0l-2.002-2a.75.75 0 0 1 1.06-1.06l1.054 1.052V9.5a.75.75 0 0 1 .75-.75m1.248-3.372c0 .666.533 1.196 1.18 1.196H15.2L11.475 2.82z"/></svg>