<svg xmlns="http://www.w3.org/2000/svg" width="16" height="16" fill="none" data-fui-icon="true" viewBox="0 0 16 16"><path fill="currentColor" d="M8 0c1.892 0 3.372.51 4.514 1.307 1.136.792 1.897 1.839 2.407 2.858.508 1.017.776 2.025.918 2.773a11 11 0 0 1 .155 1.179l.004.075v.028l.002.003v.001l-.01.149a.75.75 0 0 1-.194.39L12.5 12.278v2.26A1.46 1.46 0 0 1 11.04 16H4.96a1.46 1.46 0 0 1-1.46-1.46v-2.26L.203 8.762A.75.75 0 0 1 0 8.224l.001-.004v-.007l.001-.021.004-.075q.006-.095.023-.264C.05 7.63.09 7.314.16 6.938c.142-.748.41-1.756.918-2.773.51-1.019 1.272-2.066 2.407-2.858C4.628.51 6.108 0 8 0M5 14.5h6V13H5zM4.375 7c-1.103 0-1.84.414-2.306.817-.144.125-.263.25-.358.361L4.824 11.5H7.25V8.462q-.025-.04-.057-.086a3.3 3.3 0 0 0-.511-.558C6.216 7.414 5.478 7 4.375 7m7.25 0c-1.103 0-1.841.414-2.307.817a3.3 3.3 0 0 0-.511.558q-.032.046-.057.086v3.038h2.426l3.112-3.32a3.3 3.3 0 0 0-.357-.362C13.466 7.414 12.728 7 11.625 7M8 1.5c-1.607 0-2.784.428-3.657 1.037-.88.614-1.494 1.442-1.922 2.298a8.6 8.6 0 0 0-.51 1.274c.636-.35 1.451-.61 2.464-.61 1.521 0 2.596.586 3.287 1.183q.188.165.338.325.15-.16.338-.325c.69-.597 1.766-1.182 3.287-1.182 1.012 0 1.827.26 2.463.61a8.6 8.6 0 0 0-.51-1.275c-.427-.856-1.04-1.684-1.92-2.298C10.783 1.927 9.607 1.5 8 1.5"/></svg>