<svg xmlns="http://www.w3.org/2000/svg" width="24" height="24" fill="none" data-fui-icon="true" viewBox="0 0 24 24"><path fill="currentColor" d="M15.25 1a.75.75 0 0 1 0 1.5h-2.5v2.018c4.231.192 6.8 2.02 8.294 4.505 1.54 2.561 1.88 5.727 1.943 8.208A1.73 1.73 0 0 1 21.25 19h-8.5v2.5h9.5a.75.75 0 0 1 0 1.5H1.75a.75.75 0 0 1 0-1.5h9.5V19h-8.5a1.73 1.73 0 0 1-1.737-1.769c.063-2.481.404-5.647 1.943-8.208C4.45 6.538 7.02 4.71 11.25 4.518V2.5h-2.5a.75.75 0 0 1 0-1.5zM12 6C7.805 6 5.53 7.652 4.242 9.796c-1.33 2.212-1.669 5.047-1.73 7.474a.23.23 0 0 0 .238.23h18.5a.23.23 0 0 0 .238-.23c-.061-2.427-.4-5.262-1.73-7.474C18.469 7.652 16.195 6 12 6"/></svg>