<svg xmlns="http://www.w3.org/2000/svg" width="12" height="12" fill="none" data-fui-icon="true" viewBox="0 0 12 12"><path fill="currentColor" d="M2.344.375c.98 0 1.813.629 2.12 1.504A2.19 2.19 0 0 1 6.318 3.13l1.001 2.12h1.86l-.712-.723a.75.75 0 0 1 1.068-1.053l1.969 2a.75.75 0 0 1 0 1.053l-1.97 2a.75.75 0 0 1-1.067-1.053l.711-.724H7.318l-1 2.12a2.19 2.19 0 0 1-1.853 1.25 2.25 2.25 0 1 1-.007-1.507.69.69 0 0 0 .504-.383L6.014 6 4.962 3.771a.69.69 0 0 0-.504-.385 2.248 2.248 0 0 1-4.364-.76 2.25 2.25 0 0 1 2.25-2.25m0 8.25a.75.75 0 1 0 0 1.5.75.75 0 0 0 0-1.5m0-6.75a.75.75 0 1 0 0 1.5.75.75 0 0 0 0-1.5"/></svg>