<svg xmlns="http://www.w3.org/2000/svg" width="32" height="32" fill="none" data-fui-icon="true" viewBox="0 0 32 32"><path fill="currentColor" d="M8.462 25.524a.75.75 0 0 1 1.076 1.046l-2.222 2.286A.75.75 0 0 1 6.24 27.81zM5.5 22.477a.75.75 0 0 1 1.075 1.045l-3.703 3.81a.75.75 0 0 1-1.077-1.046zM26.942 2.97a1.938 1.938 0 0 1 2.088 2.088c-.393 4.974-2.896 8.821-6.613 12.293v5.523c0 .715-.367 1.377-.963 1.757l-.123.072-4.666 2.546c-1.389.757-3.081-.247-3.081-1.829v-2.259l-4.746-4.745H6.58c-1.582 0-2.586-1.692-1.83-3.08l2.546-4.668a2.09 2.09 0 0 1 1.83-1.086h5.524c3.471-3.716 7.319-6.219 12.292-6.612M15.084 23.213v2.207c0 .443.474.724.863.512l4.666-2.545a.59.59 0 0 0 .305-.513V18.58zM27.06 4.466c-4.563.361-8.142 2.677-11.52 6.357l-5.39 6.785 4.241 4.24 6.785-5.39c3.68-3.377 5.998-6.955 6.359-11.518a.437.437 0 0 0-.475-.474M9.125 11.082a.59.59 0 0 0-.512.305l-2.545 4.666a.584.584 0 0 0 .512.863h2.206l4.633-5.834zm12.532-3.05a2.25 2.25 0 1 1-.001 4.5 2.25 2.25 0 0 1 0-4.5"/></svg>