<svg xmlns="http://www.w3.org/2000/svg" width="12" height="12" fill="none" data-fui-icon="true" viewBox="0 0 12 12"><path fill="currentColor" d="M10.44 0C11.302 0 12 .698 12 1.56v3.594c0 .426-.174.833-.481 1.127L6.597 10.99a2.744 2.744 0 0 1-3.836-.043L1.054 9.24a2.744 2.744 0 0 1-.043-3.836L5.719.481A1.56 1.56 0 0 1 6.846 0zM6.846 1.5a.06.06 0 0 0-.043.019L2.095 6.44a1.244 1.244 0 0 0 .02 1.739L3.82 9.886a1.244 1.244 0 0 0 1.739.02l4.921-4.709a.06.06 0 0 0 .019-.043V1.56a.06.06 0 0 0-.06-.06zM8 3a1 1 0 1 1 0 2 1 1 0 0 1 0-2"/></svg>