<svg xmlns="http://www.w3.org/2000/svg" width="16" height="16" fill="none" data-fui-icon="true" viewBox="0 0 16 16"><path fill="currentColor" d="M8.54 1.834c.801-.8 2.1-.8 2.9 0l2.758 2.757c.8.8.8 2.098 0 2.899l-2.143 2.142a.8.8 0 0 0-.211.369l-.724 2.716c-.407 1.526-2.314 2.038-3.43.921L5.57 11.521 3.273 13.82a.75.75 0 0 1-1.06-1.06L4.51 10.46 2.392 8.342c-1.116-1.116-.604-3.023.921-3.43l2.718-.725a.8.8 0 0 0 .368-.212zm1.839 1.06a.55.55 0 0 0-.778 0L7.46 5.036a2.3 2.3 0 0 1-1.042.6L3.7 6.361a.55.55 0 0 0-.247.92l5.297 5.297c.3.3.81.163.92-.246l.725-2.718c.105-.394.312-.754.6-1.042l2.143-2.143a.55.55 0 0 0 0-.777z"/></svg>