<svg xmlns="http://www.w3.org/2000/svg" width="20" height="20" fill="none" data-fui-icon="true" viewBox="0 0 20 20"><path fill="currentColor" fill-rule="evenodd" d="M5.275 11.792h-2.15a1.583 1.583 0 0 1-1.583-1.584v-6.25c0-.874.709-1.583 1.583-1.583h11.393a3.25 3.25 0 0 1 3.213 2.761l.698 4.583a3.25 3.25 0 0 1-3.213 3.74h-3.493l.344 2.21a2.42 2.42 0 0 1-2.391 2.79c-.592 0-1.137-.33-1.409-.859zm-.4-7.917v6.417h-1.75a.083.083 0 0 1-.083-.084v-6.25c0-.046.037-.083.083-.083z" clip-rule="evenodd"/></svg>