<svg xmlns="http://www.w3.org/2000/svg" width="24" height="24" fill="none" data-fui-icon="true" viewBox="0 0 24 24"><path fill="currentColor" d="M11.914 2.25c4.556 0 7.16 2.65 8.336 5.242V3.904a.75.75 0 0 1 1.5 0v5.154c0 .98-.79 1.788-1.778 1.788h-5.115a.75.75 0 0 1 0-1.5h4.468c-.632-2.464-2.845-5.596-7.41-5.596C6.886 3.75 3.75 7.522 3.75 12s3.137 8.25 8.164 8.25c3.57 0 6.405-2.129 7.566-4.799a.75.75 0 0 1 1.375.598c-1.39 3.202-4.757 5.701-8.94 5.701-5.945 0-9.665-4.535-9.665-9.75s3.72-9.75 9.664-9.75"/></svg>