<svg xmlns="http://www.w3.org/2000/svg" width="24" height="24" fill="none" data-fui-icon="true" viewBox="0 0 24 24"><g clip-path="url(#a)"><path fill="currentColor" d="M12 0a3.59 3.59 0 0 1 2.77 1.303c.344.414.753.789 1.25.995s1.047.227 1.584.176a3.6 3.6 0 0 1 2.89 1.039 3.6 3.6 0 0 1 1.036 2.883c-.05.538-.03 1.09.178 1.588.206.496.58.904.993 1.247A3.6 3.6 0 0 1 24 12c0 1.11-.503 2.1-1.292 2.76-.414.347-.791.759-.998 1.258-.208.501-.229 1.056-.179 1.597a3.6 3.6 0 0 1-1.038 2.88 3.6 3.6 0 0 1-2.886 1.037c-.538-.05-1.091-.03-1.591.178-.498.207-.908.582-1.253.995A3.59 3.59 0 0 1 12 24a3.6 3.6 0 0 1-2.772-1.305c-.34-.41-.747-.783-1.24-.988-.494-.206-1.042-.226-1.575-.175a3.6 3.6 0 0 1-2.892-1.038 3.6 3.6 0 0 1-1.039-2.88c.05-.538.03-1.09-.178-1.59-.208-.498-.586-.909-1.001-1.254A3.6 3.6 0 0 1 0 12c0-1.118.51-2.117 1.309-2.777.414-.343.79-.75.996-1.246s.227-1.046.177-1.58a3.6 3.6 0 0 1 1.04-2.884 3.6 3.6 0 0 1 2.893-1.037c.53.05 1.076.03 1.568-.175.493-.205.898-.577 1.237-.989A3.6 3.6 0 0 1 12 0m4.283 8.48a.75.75 0 0 0-1.06 0L9.75 13.95l-1.72-1.72a.75.75 0 0 0-1.06 1.061l2.25 2.251a.75.75 0 0 0 1.061 0l6.001-6.002a.75.75 0 0 0 0-1.06"/></g><defs><clipPath id="a"><path fill="currentColor" d="M0 0h24v24H0z"/></clipPath></defs></svg>