<svg xmlns="http://www.w3.org/2000/svg" width="12" height="12" fill="none" data-fui-icon="true" viewBox="0 0 12 12"><path fill="currentColor" d="M5.05.25a.75.75 0 0 1 0 1.5h-1A2.25 2.25 0 0 0 1.8 4v4a2.25 2.25 0 0 0 2.25 2.25h4A2.25 2.25 0 0 0 10.3 8V7a.75.75 0 0 1 1.5 0v1a3.75 3.75 0 0 1-3.75 3.75h-4A3.75 3.75 0 0 1 .3 8V4A3.75 3.75 0 0 1 4.05.25zm2.908.684a2.251 2.251 0 0 1 3.183 3.182L8.016 7.24a2.75 2.75 0 0 1-1.556.779l-.759.108a1.55 1.55 0 0 1-1.753-1.754l.108-.759a2.75 2.75 0 0 1 .778-1.555zM5.895 5.119c-.191.191-.315.44-.354.707l-.108.759a.1.1 0 0 0 0 .023.06.06 0 0 0 .033.033.1.1 0 0 0 .023 0l.76-.108a1.25 1.25 0 0 0 .706-.353l1.68-1.68-1.06-1.06zm4.185-3.124a.75.75 0 0 0-1.06 0l-.385.384 1.062 1.06.383-.383a.75.75 0 0 0 0-1.06"/></svg>