<svg xmlns="http://www.w3.org/2000/svg" width="16" height="16" fill="none" data-fui-icon="true" viewBox="0 0 16 16"><path fill="currentColor" d="M3.125 8.43A1.38 1.38 0 0 0 1.75 9.814v3.529a.75.75 0 0 0 1.5 0v-1.47c.905 1.29 2.44 2.383 4.772 2.383 2.537 0 4.475-1.315 5.457-3.222a.75.75 0 0 0-1.334-.686c-.728 1.412-2.154 2.408-4.123 2.408-2.38 0-3.635-1.493-4.106-2.824h2.705a.75.75 0 0 0 0-1.5zm4.86-6.68c-2.536 0-4.474 1.315-5.456 3.222a.75.75 0 0 0 1.334.686C4.59 4.246 6.017 3.25 7.985 3.25c2.382 0 3.636 1.492 4.107 2.824H9.387a.75.75 0 0 0 0 1.5h3.496a1.38 1.38 0 0 0 1.375-1.383V2.663a.75.75 0 0 0-1.5 0v1.47c-.906-1.29-2.44-2.383-4.773-2.383"/></svg>