<svg xmlns="http://www.w3.org/2000/svg" width="16" height="16" fill="none" data-fui-icon="true" viewBox="0 0 16 16"><path fill="currentColor" d="M12.51 0A3.49 3.49 0 0 1 16 3.49v9.02A3.49 3.49 0 0 1 12.51 16H3.49A3.49 3.49 0 0 1 0 12.51V3.49A3.49 3.49 0 0 1 3.49 0zM5.5 8.75c-.489 0-.951.224-1.255.607l-2.658 3.359a1 1 0 0 1-.067.071 1.99 1.99 0 0 0 1.97 1.713h8.227L6.654 9.24a1.6 1.6 0 0 0-1.153-.49M3.491 1.5A1.99 1.99 0 0 0 1.5 3.49v6.92l1.57-1.984A3.1 3.1 0 0 1 7.735 8.2l5.793 6.017c.582-.348.972-.98.972-1.707V3.49a1.99 1.99 0 0 0-1.99-1.99zM10.5 3a2.5 2.5 0 1 1 0 5 2.5 2.5 0 0 1 0-5m0 1.5a1 1 0 1 0 0 2 1 1 0 0 0 0-2"/></svg>