<svg xmlns="http://www.w3.org/2000/svg" width="12" height="12" fill="none" data-fui-icon="true" viewBox="0 0 12 12"><g clip-path="url(#a)"><path fill="currentColor" d="M.782.97a.75.75 0 0 1 1.06 0l.57.568.004.001.004.001 1.27 1.27-.001.003a.001.001 0 0 0-.001.002l4.427 4.428h.008l2.546 2.547v.006l.549.549a.75.75 0 0 1-1.06 1.06l-1.59-1.589a.197.197 0 0 0-.278.004c-.54.535-1.28.868-2.102.868H3.563A3 3 0 0 1 .566 7.842l-.003-.154V4.313c0-.642.202-1.235.545-1.723a.196.196 0 0 0-.018-.252l-.308-.307a.75.75 0 0 1 0-1.061m1.67 2.73c-.086-.086-.23-.069-.277.043a1.5 1.5 0 0 0-.112.57v3.375l.007.153a1.5 1.5 0 0 0 1.493 1.347h2.625c.418 0 .796-.172 1.068-.45.066-.067.059-.175-.008-.242zm3.736-2.387c1.02 0 1.917.51 2.458 1.288.068.098.207.12.295.04l.236-.215.083-.07c.87-.682 2.178-.07 2.178 1.067v4.561c0 .167-.203.25-.32.133L9.991 6.992a.19.19 0 0 1-.055-.133V4.187a.188.188 0 0 0-.314-.138l-.633.58c-.494.45-1.244.118-1.315-.493a1.5 1.5 0 0 0-1.487-1.323H5.89a.2.2 0 0 1-.132-.055L4.634 1.633a.188.188 0 0 1 .132-.32z"/></g><defs><clipPath id="a"><path fill="currentColor" d="M0 0h12v12H0z"/></clipPath></defs></svg>