<svg xmlns="http://www.w3.org/2000/svg" width="20" height="20" fill="none" data-fui-icon="true" viewBox="0 0 20 20"><path fill="currentColor" d="M16.315 7a1 1 0 0 1 .992 1.132l-1.202 9.064A3.02 3.02 0 0 1 13.095 20h-6.19a3.02 3.02 0 0 1-3.01-2.804L2.694 8.132A1 1 0 0 1 3.685 7zm-5.89-7a3.25 3.25 0 0 1 3.194 2.651L13.872 4H18a.75.75 0 0 1 0 1.5H2A.75.75 0 0 1 2 4h4.128l.253-1.349A3.25 3.25 0 0 1 9.575 0zm-.85 1.5c-.842 0-1.565.6-1.72 1.428L7.652 4h4.694l-.201-1.072A1.75 1.75 0 0 0 10.425 1.5z"/></svg>