<svg xmlns="http://www.w3.org/2000/svg" width="16" height="16" fill="none" data-fui-icon="true" viewBox="0 0 16 16"><path fill="currentColor" d="M13.21 1.5A2.79 2.79 0 0 1 16 4.29v7.42a2.79 2.79 0 0 1-2.79 2.79H2.79A2.79 2.79 0 0 1 0 11.71V4.29A2.79 2.79 0 0 1 2.79 1.5zm-2.895 7.75a3.95 3.95 0 0 1-4.63 0L1.5 6.219v5.491c0 .712.578 1.29 1.29 1.29h10.42a1.29 1.29 0 0 0 1.29-1.29V6.219zM2.79 3A1.29 1.29 0 0 0 1.5 4.29v.077l5.065 3.668a2.45 2.45 0 0 0 2.87 0L14.5 4.367V4.29A1.29 1.29 0 0 0 13.21 3z"/></svg>