<svg xmlns="http://www.w3.org/2000/svg" width="16" height="16" fill="none" data-fui-icon="true" viewBox="0 0 16 16"><path fill="currentColor" d="M8.194 1.584a76.68 76.68 0 0 1 2.157.042c.622.021 1.285.053 1.867.103.557.047 1.112.114 1.473.226l.165.058c.81.318 1.383 1.063 1.582 1.92.163.706.237 1.744.274 2.558a39 39 0 0 1 .037 1.387l.001.089v.065l-.001.09a35 35 0 0 1-.036 1.387c-.037.813-.112 1.851-.275 2.557-.2.858-.773 1.602-1.582 1.92l-.165.058c-.36.112-.916.18-1.473.226-.582.05-1.245.083-1.866.104a76 76 0 0 1-2.158.042h-.388a78 78 0 0 1-2.158-.042 39 39 0 0 1-1.866-.104c-.488-.04-.974-.097-1.33-.186l-.143-.04C1.413 13.767.775 12.98.562 12.066l-.057-.279C.38 11.104.319 10.221.287 9.51A39 39 0 0 1 .251 8.12L.25 8.032v-.065l.001-.09.004-.321c.005-.272.013-.648.032-1.065C.324 5.677.4 4.64.563 3.934l.043-.17c.249-.842.863-1.549 1.703-1.809l.143-.04c.356-.089.842-.145 1.33-.186.582-.05 1.245-.082 1.866-.103.623-.021 1.211-.033 1.642-.038.216-.003.392-.003.516-.004l.142-.001h.104zm-.38 1.5a75.107 75.107 0 0 0-2.113.041 38 38 0 0 0-1.793.099c-.57.048-.97.106-1.155.164h-.001c-.31.095-.618.406-.729.884-.128.556-.2 1.468-.237 2.287a38 38 0 0 0-.035 1.33l-.001.084v.053l.001.083a33 33 0 0 0 .035 1.332c.032.717.09 1.504.192 2.062l.045.224.051.171c.138.382.407.63.678.713.186.058.587.117 1.156.165.546.046 1.182.077 1.792.098a75 75 0 0 0 2.113.042h.374a75 75 0 0 0 2.113-.042c.61-.02 1.246-.052 1.792-.098.57-.048.97-.107 1.155-.165h.001c.31-.096.618-.405.729-.884l.046-.224c.1-.558.159-1.345.19-2.062a38 38 0 0 0 .036-1.332l.001-.083v-.053l-.001-.083-.004-.309a38 38 0 0 0-.031-1.022c-.032-.717-.091-1.505-.191-2.063l-.046-.225c-.111-.478-.42-.788-.729-.883-.186-.058-.587-.116-1.156-.164a38 38 0 0 0-1.792-.099 75 75 0 0 0-1.609-.037c-.211-.003-.384-.003-.504-.004l-.14-.001h-.095zM5.781 6.089a.917.917 0 0 1 1.259-.85l.116.056 3.31 1.911a.917.917 0 0 1 0 1.588l-3.31 1.911a.917.917 0 0 1-1.375-.794zm1.5 2.81 1.56-.9-1.56-.9z"/></svg>