<svg xmlns="http://www.w3.org/2000/svg" width="32" height="32" fill="none" data-fui-icon="true" viewBox="0 0 32 32"><path fill="currentColor" d="M14.023 5.155c1.262-1.095 3.227-.198 3.227 1.473v18.744c0 1.671-1.965 2.568-3.227 1.474l-4.386-3.802a3.25 3.25 0 0 0-2.13-.794H5.5a2.75 2.75 0 0 1-2.75-2.75v-7A2.75 2.75 0 0 1 5.5 9.75h2.008c.782 0 1.538-.282 2.129-.794zm1.727 1.473a.45.45 0 0 0-.745-.34l-4.386 3.802a4.75 4.75 0 0 1-3.111 1.16H5.5c-.69 0-1.25.56-1.25 1.25v7c0 .69.56 1.25 1.25 1.25h2.008a4.75 4.75 0 0 1 3.111 1.16l4.386 3.802a.45.45 0 0 0 .745-.34zm9.693 1.87a.75.75 0 0 1 1.06-.054l-.46.508.46-.507.003.002.004.002.01.01.03.029.098.098c.08.085.192.207.323.366.26.319.601.789.94 1.415.677 1.254 1.339 3.126 1.339 5.633s-.662 4.38-1.34 5.634a9 9 0 0 1-.94 1.414 6 6 0 0 1-.42.465l-.03.028-.01.01-.004.003-.003.003a.75.75 0 0 1-1.006-1.113l.01-.01q.019-.016.06-.06.086-.086.244-.276c.207-.253.492-.645.779-1.177.572-1.06 1.16-2.689 1.16-4.92 0-2.233-.588-3.861-1.16-4.922a7.4 7.4 0 0 0-.78-1.176 5 5 0 0 0-.243-.277l-.06-.06-.012-.011a.75.75 0 0 1-.052-1.058M21.441 11.5a.75.75 0 0 1 1.059-.058l-.321.359.322-.36v.002h.002l.01.01.021.02.067.065q.08.083.208.23c.166.199.382.488.595.868.428.763.846 1.888.846 3.364s-.418 2.602-.846 3.364c-.213.38-.429.67-.595.868a4 4 0 0 1-.275.296l-.021.02-.01.009H22.5v.002L22 20l.5.559a.75.75 0 0 1-1.001-1.117l.03-.03q.044-.043.131-.145c.115-.136.274-.35.436-.637.321-.573.654-1.448.654-2.63s-.333-2.057-.654-2.63a4 4 0 0 0-.436-.636 3 3 0 0 0-.132-.146l-.033-.033h.002l-.052-.05a.75.75 0 0 1-.004-1.005"/></svg>