<svg xmlns="http://www.w3.org/2000/svg" width="24" height="24" fill="none" data-fui-icon="true" viewBox="0 0 24 24"><path fill="currentColor" d="M15.75 1.125a5.625 5.625 0 0 1 5.625 5.625v10.5a5.625 5.625 0 0 1-5.625 5.625h-7.5a5.625 5.625 0 0 1-5.625-5.625V6.75A5.625 5.625 0 0 1 8.25 1.125zm-7.5 1.5A4.125 4.125 0 0 0 4.125 6.75v10.5a4.125 4.125 0 0 0 4.125 4.125h7.5a4.125 4.125 0 0 0 4.125-4.125V6.75a4.125 4.125 0 0 0-4.125-4.125zM12 9.75a4.5 4.5 0 1 1 0 9 4.5 4.5 0 0 1 0-9m0 1.5a3 3 0 1 0 0 6 3 3 0 0 0 0-6m0-6a1.5 1.5 0 1 1 0 3 1.5 1.5 0 0 1 0-3"/></svg>