<svg xmlns="http://www.w3.org/2000/svg" width="16" height="16" fill="none" data-fui-icon="true" viewBox="0 0 16 16"><path fill="currentColor" d="M10.176 1.765a2.5 2.5 0 0 1 1.96.948l2.327 2.939a2.5 2.5 0 0 1-.114 3.238l-4.502 4.928a2.5 2.5 0 0 1-3.691 0L1.654 8.89a2.5 2.5 0 0 1-.115-3.238l2.327-2.939a2.5 2.5 0 0 1 1.96-.948zm-4.35 1.5a1 1 0 0 0-.784.379l-2.327 2.94a1 1 0 0 0 .046 1.294l4.502 4.928a1 1 0 0 0 1.476 0l4.502-4.928a1 1 0 0 0 .045-1.295l-2.326-2.94a1 1 0 0 0-.784-.378zm1.686 1.538c.111-.53.867-.53.978 0l.244 1.162c.06.29.288.518.578.58l1.176.251c.527.113.527.865 0 .978l-1.176.25a.75.75 0 0 0-.578.58L8.49 9.767c-.11.53-.867.53-.978 0l-.244-1.163a.75.75 0 0 0-.577-.58l-1.176-.25c-.528-.113-.528-.865 0-.978l1.176-.25a.75.75 0 0 0 .577-.58z"/></svg>