<svg xmlns="http://www.w3.org/2000/svg" width="32" height="32" fill="none" data-fui-icon="true" viewBox="0 0 32 32"><path fill="currentColor" d="M23.53 5A4.47 4.47 0 0 1 28 9.47v4.78a.75.75 0 0 1-1.5 0v-2.442l-9.179 6.178a5.95 5.95 0 0 1-6.642 0L1.5 11.808V22.53a2.97 2.97 0 0 0 2.97 2.97h18.78a.75.75 0 0 1 0 1.5H4.47A4.47 4.47 0 0 1 0 22.53V9.47A4.47 4.47 0 0 1 4.47 5zm2.675 11.985a.75.75 0 0 1 1.06-.03l4.5 4.25a.75.75 0 0 1 0 1.09l-4.5 4.25a.75.75 0 1 1-1.03-1.09l3.13-2.955H19.75a.75.75 0 0 1 0-1.5h9.614l-3.129-2.955a.75.75 0 0 1-.03-1.06M4.47 6.5A2.97 2.97 0 0 0 1.5 9.47V10l10.017 6.742a4.45 4.45 0 0 0 4.966 0L26.5 10v-.53a2.97 2.97 0 0 0-2.97-2.97z"/></svg>