<svg xmlns="http://www.w3.org/2000/svg" width="20" height="20" fill="none" data-fui-icon="true" viewBox="0 0 20 20"><path fill="currentColor" d="m10.404 2.013.071.004q.195.012.385.036l.067.009q.394.051.774.142l.061.016a8 8 0 0 1 .83.256q.196.071.388.152.072.03.142.063.103.045.204.091l.04.022c1.388.668 2.575 1.665 3.523 2.66.375.394.717.793 1.027 1.18l.061.076q.076.097.149.193.16.207.308.407.085.116.164.229a22 22 0 0 1 .568.835l.133.21q.07.112.134.217l.105.173c.147.247.253.437.314.551a.97.97 0 0 1 0 .93c-.06.111-.162.296-.304.535l-.113.185-.13.213a21 21 0 0 1-.328.503l-.135.203q-.116.168-.243.345l-.165.23q-.134.181-.28.37-.086.114-.177.23l-.061.075c-.31.388-.652.788-1.027 1.181-.948.995-2.135 1.992-3.523 2.66l-.04.023q-.101.046-.204.09-.07.034-.142.064a8.5 8.5 0 0 1-1.218.408l-.061.016q-.38.09-.774.143l-.067.008a7 7 0 0 1-.385.036l-.07.004a7.112 7.112 0 0 1-.809 0l-.072-.004a7 7 0 0 1-.384-.036l-.07-.008a8 8 0 0 1-.771-.143l-.062-.016a8 8 0 0 1-.363-.1q-.03-.007-.059-.017a8 8 0 0 1-.79-.289l-.162-.072q-.095-.041-.19-.084-.02-.01-.037-.022c-1.389-.668-2.577-1.665-3.525-2.66-.373-.393-.715-.791-1.024-1.178l-.065-.079q-.09-.116-.177-.23a20 20 0 0 1-.28-.37l-.204-.285-.184-.262a21 21 0 0 1-.612-.947L.453 11c-.142-.24-.246-.424-.306-.535a.97.97 0 0 1 0-.93l.041-.072c.063-.115.154-.277.273-.477q.056-.095.122-.2l.1-.165.185-.29q.06-.095.127-.192a21 21 0 0 1 .394-.574l.176-.245q.148-.199.31-.407c.363-.47.775-.964 1.236-1.448.949-.996 2.136-1.994 3.525-2.662q.018-.012.038-.02.094-.044.189-.085l.162-.072a9 9 0 0 1 .79-.29q.03-.007.059-.017.18-.054.363-.1l.062-.015a7.4 7.4 0 0 1 1.225-.187l.071-.004Q9.796 2 10 2t.404.013m-.718 1.496a5 5 0 0 0-.377.034l-.027.003q-.104.014-.207.032-.12.02-.24.044-.07.014-.137.03a6 6 0 0 0-.277.07C6.803 4.177 5.37 5.269 4.197 6.5a17 17 0 0 0-.947 1.089l-.051.062q-.094.12-.184.239-.122.159-.237.314l-.148.207q-.115.16-.22.312-.086.125-.164.244-.068.1-.13.197l-.145.228-.123.2q-.143.238-.24.409c.064.112.143.25.237.405l.119.193.132.208a20 20 0 0 0 .92 1.304q.09.119.183.239l.031.039c.292.365.614.742.967 1.113 1.173 1.231 2.606 2.323 4.224 2.775q.138.039.277.072l.137.029q.12.024.24.044.104.017.207.032l.027.003q.155.02.312.03l.065.004a6 6 0 0 0 .69-.004q.159-.01.313-.03l.028-.003q.102-.014.205-.031a6 6 0 0 0 .669-.15c1.613-.454 3.043-1.543 4.213-2.771.352-.37.675-.748.966-1.113l.03-.04q.084-.106.163-.211.145-.188.28-.37.058-.08.113-.159a20 20 0 0 0 .563-.827l.093-.148.155-.248c.09-.147.163-.278.224-.385q-.096-.171-.239-.41l-.14-.224q-.044-.073-.093-.148a19 19 0 0 0-.563-.827q-.058-.082-.118-.165-.131-.179-.275-.364-.08-.105-.163-.212l-.05-.062q-.191-.24-.399-.484l-.002-.001a16 16 0 0 0-.546-.604c-1.17-1.228-2.6-2.318-4.212-2.772a6 6 0 0 0-.67-.15q-.101-.017-.204-.031l-.028-.003a5.7 5.7 0 0 0-1.003-.034M10 6a4 4 0 1 1 0 8 4 4 0 0 1 0-8m0 1.5a2.5 2.5 0 1 0 0 5 2.5 2.5 0 0 0 0-5"/></svg>