<svg xmlns="http://www.w3.org/2000/svg" width="20" height="20" fill="none" data-fui-icon="true" viewBox="0 0 20 20"><path fill="currentColor" d="M10 .917c2.265 0 3.589-.01 4.675.37a6.58 6.58 0 0 1 4.039 4.04c.38 1.085.37 2.409.37 4.673s.01 3.589-.37 4.675a6.58 6.58 0 0 1-4.04 4.039c-1.085.38-2.41.37-4.674.37s-3.588.01-4.674-.37a6.58 6.58 0 0 1-4.04-4.04C.906 13.59.917 12.265.917 10s-.01-3.588.37-4.674a6.59 6.59 0 0 1 4.04-4.04C6.411.906 7.735.917 10 .917m0 1.5c-2.39 0-3.394.01-4.179.285a5.08 5.08 0 0 0-3.119 3.12c-.274.784-.285 1.788-.285 4.178s.01 3.395.285 4.18a5.09 5.09 0 0 0 3.12 3.119c.784.274 1.788.285 4.178.285s3.395-.01 4.18-.285a5.09 5.09 0 0 0 3.119-3.12c.274-.784.285-1.79.285-4.179s-.01-3.394-.285-4.179a5.09 5.09 0 0 0-3.12-3.119c-.784-.274-1.789-.285-4.179-.285m4.47 4.97a.75.75 0 1 1 1.06 1.06l-3.577 3.577a1.584 1.584 0 0 1-2.24 0l-1.737-1.738a.084.084 0 0 0-.119 0L5.53 12.614a.75.75 0 0 1-1.06-1.06l2.327-2.328a1.584 1.584 0 0 1 2.24 0l1.737 1.738a.084.084 0 0 0 .119 0z"/></svg>