<svg xmlns="http://www.w3.org/2000/svg" width="20" height="20" fill="none" data-fui-icon="true" viewBox="0 0 20 20"><path fill="currentColor" d="M6.948 1.535a.753.753 0 0 1 .972.62l.001.004.01.049a2.571 2.571 0 0 0 .344.855c.275.43.76.87 1.716.87s1.44-.44 1.716-.87a2.6 2.6 0 0 0 .343-.855l.01-.049v-.004a.75.75 0 0 1 1.055-.588l6.032 2.741a1.45 1.45 0 0 1 .695 1.971L18.527 8.9a1.45 1.45 0 0 1-1.736.73l-.291-.094v7.59c0 .76-.616 1.375-1.376 1.375H4.871a1.376 1.376 0 0 1-1.375-1.375v-7.59l-.288.093a1.45 1.45 0 0 1-1.736-.73L.156 6.278A1.45 1.45 0 0 1 .85 4.31l6.016-2.742zm6.327 1.752a4 4 0 0 1-.305.584c-.503.785-1.427 1.562-2.98 1.562s-2.477-.777-2.98-1.562c-.128-.2-.227-.4-.305-.583L1.519 5.65l1.274 2.535 1.225-.39a.752.752 0 0 1 .978.716V17h10.003V8.51a.752.752 0 0 1 .978-.714l1.228.39 1.274-2.535z"/></svg>