<svg xmlns="http://www.w3.org/2000/svg" width="16" height="16" fill="none" data-fui-icon="true" viewBox="0 0 16 16"><path fill="currentColor" d="M8 1.083a6.917 6.917 0 1 1-.002 13.834A6.917 6.917 0 0 1 8 1.083m0 1.5a5.417 5.417 0 1 0 0 10.832A5.417 5.417 0 0 0 8 2.583M5.428 7.088a.917.917 0 1 1-1.006 1.006L4.417 8l.005-.094a.917.917 0 0 1 .912-.823zm2.666 0a.917.917 0 1 1-1.006 1.006L7.083 8l.005-.094A.92.92 0 0 1 8 7.083zm2.667 0a.917.917 0 1 1-1.006 1.006L9.75 8l.005-.094a.917.917 0 0 1 .912-.823z"/></svg>