<svg xmlns="http://www.w3.org/2000/svg" width="20" height="20" fill="none" data-fui-icon="true" viewBox="0 0 20 20"><path fill="currentColor" d="M15 1.25c.956 0 1.783.79 1.717 1.803-.098 1.515-.412 2.64-.858 3.507a5.7 5.7 0 0 1-1.544 1.868c-.259.208-.514.385-.725.534-.22.156-.387.275-.52.395-.232.209-.32.37-.32.643 0 .274.088.434.32.643.133.12.3.24.52.395.21.149.466.326.725.534a5.7 5.7 0 0 1 1.544 1.868c.446.867.76 1.992.858 3.507.066 1.012-.76 1.803-1.717 1.803H5c-.956 0-1.782-.79-1.717-1.803.099-1.515.412-2.64.859-3.507a5.7 5.7 0 0 1 1.544-1.868c.259-.208.514-.385.724-.534.221-.155.387-.275.52-.395.232-.209.32-.37.32-.643 0-.274-.088-.434-.32-.643-.133-.12-.299-.24-.52-.395-.21-.149-.465-.326-.724-.534A5.7 5.7 0 0 1 4.142 6.56c-.447-.867-.76-1.992-.859-3.507C3.218 2.04 4.044 1.25 5 1.25zM5 2.75c-.148 0-.226.115-.22.205.088 1.357.363 2.272.696 2.917.33.639.735 1.054 1.15 1.387.213.172.425.319.649.476.213.151.45.32.66.508.454.41.815.947.815 1.757s-.361 1.348-.815 1.757c-.21.188-.447.357-.66.508-.224.157-.436.304-.65.476-.414.334-.82.748-1.15 1.387-.332.645-.607 1.56-.695 2.917-.006.09.072.205.22.205h10c.148 0 .226-.115.22-.205-.087-1.357-.363-2.272-.695-2.917a4.2 4.2 0 0 0-1.15-1.387c-.214-.172-.426-.319-.65-.476a7 7 0 0 1-.66-.508c-.453-.41-.815-.947-.815-1.757s.361-1.348.816-1.757c.209-.188.446-.357.66-.508.223-.157.435-.304.65-.476.414-.333.82-.748 1.149-1.387.332-.645.608-1.56.696-2.917.005-.09-.073-.205-.22-.205zm7.998 1.688c.276 0 .506.227.432.493-.302 1.08-1.536 2.112-2.88 2.764a1.26 1.26 0 0 1-1.099 0c-1.345-.652-2.58-1.684-2.881-2.764-.074-.266.155-.493.431-.494z"/></svg>