<svg xmlns="http://www.w3.org/2000/svg" width="32" height="32" fill="none" data-fui-icon="true" viewBox="0 0 32 32"><path fill="currentColor" d="M16 1.25c2.164 0 3.826 0 5.159.091 1.34.092 2.403.278 3.367.677a10.09 10.09 0 0 1 5.457 5.457c.4.964.585 2.028.677 3.367.09 1.333.09 2.995.09 5.158s0 3.826-.09 5.159c-.092 1.34-.278 2.403-.677 3.367a10.08 10.08 0 0 1-5.457 5.457c-.964.4-2.028.585-3.367.677-1.333.09-2.995.09-5.158.09s-3.826 0-5.159-.09c-1.34-.092-2.403-.278-3.367-.677a10.09 10.09 0 0 1-5.457-5.457c-.4-.964-.585-2.028-.677-3.367-.09-1.333-.091-2.995-.091-5.158s0-3.826.091-5.159c.092-1.34.278-2.403.677-3.367a10.08 10.08 0 0 1 5.457-5.457c.964-.4 2.028-.585 3.367-.677 1.333-.09 2.995-.09 5.158-.09M10.25 11a3.75 3.75 0 0 0-3.75 3.75v2.497a3.75 3.75 0 0 0 3.75 3.75h.563a3.25 3.25 0 0 0 3.25-3.25v-.921c0-.69-.56-1.25-1.25-1.25h-1.52a.75.75 0 0 0 0 1.5h1.27v.67c0 .967-.784 1.75-1.75 1.75h-.562A2.25 2.25 0 0 1 8 17.247v-2.495a2.25 2.25 0 0 1 2.25-2.25h.239c.809 0 1.333.333 1.667.665a2.5 2.5 0 0 1 .449.613l.015.031.002.003a.75.75 0 0 0 1.383-.58v-.002l-.003-.003-.004-.01-.05-.107a4.032 4.032 0 0 0-.733-1.007c-.555-.553-1.443-1.103-2.726-1.103zm6.35 0a.75.75 0 0 0-.75.75v8.497a.751.751 0 0 0 1.5 0V11.75a.75.75 0 0 0-.75-.75m4.15 0c-.69 0-1.25.56-1.25 1.25v7.997a.75.75 0 0 0 1.5 0v-3.498h3.029a.751.751 0 0 0 0-1.5H21V12.5h3.714a.75.75 0 0 0 0-1.5z"/></svg>