<svg xmlns="http://www.w3.org/2000/svg" width="24" height="24" fill="none" data-fui-icon="true" viewBox="0 0 24 24"><path fill="currentColor" d="M18.25 3A2.75 2.75 0 0 1 21 5.75v12.5A2.75 2.75 0 0 1 18.25 21H5.75A2.75 2.75 0 0 1 3 18.25V5.75A2.75 2.75 0 0 1 5.75 3zM5.75 4.5c-.69 0-1.25.56-1.25 1.25v12.5c0 .69.56 1.25 1.25 1.25h12.5c.69 0 1.25-.56 1.25-1.25V5.75c0-.69-.56-1.25-1.25-1.25zm1.99 8.25c.9 0 1.818.654 1.818 1.677 0 .574-.289.996-.597 1.287-.148.14-.316.262-.482.37H9a.75.75 0 0 1 0 1.5H6.5a.75.75 0 0 1-.746-.674l-.004-.076c0-.578.345-.97.633-1.208.28-.231.641-.426.901-.573.298-.169.508-.298.649-.43.123-.117.125-.171.125-.196 0-.011-.003-.045-.054-.09a.4.4 0 0 0-.265-.087.8.8 0 0 0-.379.125 1.3 1.3 0 0 0-.18.127v-.001c0-.001-.02-.023-.513-.546l-.515-.547h.001l.002-.002.004-.004.01-.008.028-.026.092-.075c.075-.059.183-.136.315-.213.253-.148.655-.33 1.135-.33m9.76 1.667a.75.75 0 0 1 0 1.5h-5.667a.75.75 0 0 1 0-1.5zm-10.32.084a.75.75 0 0 1-1.028-1.092zm.556-7.948a.75.75 0 0 1 1.181.614V10.5a.75.75 0 0 1-1.5 0V8.606l-.487.342a.75.75 0 0 1-.86-1.23zM17.5 8.084a.75.75 0 0 1 0 1.5h-5.667a.75.75 0 0 1 0-1.5z"/></svg>