<svg xmlns="http://www.w3.org/2000/svg" width="16" height="16" fill="none" data-fui-icon="true" viewBox="0 0 16 16"><path stroke="currentColor" stroke-linecap="round" stroke-width="1.5" d="M5.333 8v-.007M5.5 8a.167.167 0 1 1-.333 0A.167.167 0 0 1 5.5 8zM8 8v-.007M8.167 8a.167.167 0 1 1-.334 0 .167.167 0 0 1 .334 0zm2.5 0v-.007m.166.007a.167.167 0 1 1-.333 0 .167.167 0 0 1 .333 0z"/><path stroke="currentColor" stroke-width="1.5" d="M14.167 8A6.167 6.167 0 1 1 1.833 8a6.167 6.167 0 0 1 12.334 0Z"/></svg>