<svg xmlns="http://www.w3.org/2000/svg" width="32" height="32" fill="none" data-fui-icon="true" viewBox="0 0 32 32"><path fill="currentColor" d="M17.974 1.002 18 1q.04 0 .077.005a4.47 4.47 0 0 1 3.058 1.354l5.605 5.787A4.47 4.47 0 0 1 28 11.244l.001.006v15.28A4.47 4.47 0 0 1 23.53 31H8.47A4.47 4.47 0 0 1 4 26.53V5.47A4.47 4.47 0 0 1 8.47 1h9.455zM8.47 2.5A2.97 2.97 0 0 0 5.5 5.47v21.06a2.97 2.97 0 0 0 2.97 2.97h15.06a2.97 2.97 0 0 0 2.97-2.97V12h-4.78a4.47 4.47 0 0 1-4.47-4.47V2.5zm10.28 5.03a2.97 2.97 0 0 0 2.97 2.97h4.68a2.97 2.97 0 0 0-.737-1.31l-5.605-5.787a2.97 2.97 0 0 0-1.308-.784z"/></svg>