<svg xmlns="http://www.w3.org/2000/svg" width="12" height="12" fill="none" data-fui-icon="true" viewBox="0 0 12 12"><path fill="currentColor" d="M9.5 7.91a2.25 2.25 0 0 1 2.25 2.25v.227a.75.75 0 0 1-1.5 0v-.228a.75.75 0 0 0-.75-.75h-7a.75.75 0 0 0-.75.75v.228a.75.75 0 0 1-1.5 0v-.228A2.25 2.25 0 0 1 2.5 7.91zM9.5 1a2.25 2.25 0 0 1 2.25 2.25v1.09A2.25 2.25 0 0 1 9.5 6.59h-7A2.25 2.25 0 0 1 .25 4.34V3.25A2.25 2.25 0 0 1 2.5 1zm-7 1.5a.75.75 0 0 0-.75.75v1.09c0 .415.336.75.75.75h7a.75.75 0 0 0 .75-.75V3.25a.75.75 0 0 0-.75-.75z"/></svg>