<svg xmlns="http://www.w3.org/2000/svg" width="32" height="32" fill="none" data-fui-icon="true" viewBox="0 0 32 32"><path fill="currentColor" d="M10.5 7.674c0-3.657 3.369-6.384 6.945-5.624l10 2.125A5.75 5.75 0 0 1 32 9.799V22.2a5.75 5.75 0 0 1-4.555 5.624l-10 2.125c-3.576.76-6.945-1.968-6.945-5.624V20a.75.75 0 0 1 1.5 0v4.326a4.25 4.25 0 0 0 5.134 4.157l10-2.125a4.25 4.25 0 0 0 3.366-4.157V9.799a4.25 4.25 0 0 0-3.366-4.158l-10-2.125A4.25 4.25 0 0 0 12 7.674v4.576a.75.75 0 0 1-1.5 0zm7.97 3.295a.75.75 0 0 1 1.06 0l4.5 4.5a.75.75 0 0 1 0 1.061l-4.5 4.5a.75.75 0 0 1-1.06-1.06l3.22-3.22H7.25c-.575 0-.94.187-1.157.405A1.2 1.2 0 0 0 5.75 18c0 .314.118.62.343.845.218.218.582.406 1.157.406a.75.75 0 1 1 0 1.5c-.925 0-1.686-.314-2.218-.846A2.7 2.7 0 0 1 4.25 18c0-.686.257-1.38.782-1.905.532-.532 1.293-.845 2.218-.845h14.44l-3.22-3.22a.75.75 0 0 1 0-1.06"/></svg>