<svg xmlns="http://www.w3.org/2000/svg" width="16" height="16" fill="none" data-fui-icon="true" viewBox="0 0 16 16"><path fill="currentColor" d="M11.42 1.416a3.165 3.165 0 0 1 3.164 3.164v6.84a3.165 3.165 0 0 1-3.164 3.164H4.58a3.165 3.165 0 0 1-3.164-3.164V4.58A3.165 3.165 0 0 1 4.58 1.416zm-6.84 1.5A1.665 1.665 0 0 0 2.916 4.58v6.84a1.665 1.665 0 0 0 1.664 1.664h6.84a1.665 1.665 0 0 0 1.664-1.664V4.58a1.666 1.666 0 0 0-1.664-1.664zm-.115 7.205a1 1 0 1 1 1.414 1.415 1 1 0 0 1-1.414-1.415m5.656 0a1 1 0 1 1 1.414 1.415 1 1 0 0 1-1.414-1.415M7.293 7.293a1 1 0 1 1 1.414 1.414 1 1 0 0 1-1.414-1.414M4.465 4.465a1 1 0 1 1 1.414 1.414 1 1 0 0 1-1.414-1.414m5.656 0a1 1 0 1 1 1.414 1.414 1 1 0 0 1-1.414-1.414"/></svg>