<svg xmlns="http://www.w3.org/2000/svg" width="20" height="20" fill="none" data-fui-icon="true" viewBox="0 0 20 20"><path fill="currentColor" fill-rule="evenodd" d="M18.807 7.072a1.37 1.37 0 0 0-1.136-.944l-4.479-.587-1.945-4.051A1.38 1.38 0 0 0 10 .708c-.536 0-1.014.299-1.247.782L6.807 5.542l-4.478.586a1.37 1.37 0 0 0-1.137.944 1.37 1.37 0 0 0 .366 1.427l3.272 3.086-.82 4.406c-.099.527.11 1.05.543 1.367a1.38 1.38 0 0 0 1.471.099L10 15.315l3.974 2.142a1.37 1.37 0 0 0 1.473-.1c.434-.315.642-.84.544-1.367l-.82-4.406 3.271-3.085c.391-.37.531-.916.366-1.427m-4.717 3.467a1.38 1.38 0 0 0-.409 1.255l.788 4.227-3.813-2.055A1.4 1.4 0 0 0 10 13.8V2.36l1.87 3.892c.202.421.601.708 1.065.77l4.291.562z" clip-rule="evenodd"/></svg>