<svg xmlns="http://www.w3.org/2000/svg" width="16" height="16" fill="none" data-fui-icon="true" viewBox="0 0 16 16"><path fill="currentColor" d="M16 11.867c0 1.399-1.134 2.533-2.533 2.533H2.533A2.533 2.533 0 0 1 0 11.867V6.25h16zM6.7 7.96a.25.25 0 0 0-.375.217v3.968a.25.25 0 0 0 .373.218l3.493-1.974a.25.25 0 0 0 .001-.435zm-5.423-2.96H0v-.868A2.533 2.533 0 0 1 2.533 1.6h2.145zm4.5 0H3.045L6.4 1.644q.02-.022.037-.045h2.74zm7.801-3.396L10.184 5h-2.64L10.9 1.645q.02-.022.037-.045h2.53q.056.001.111.005m1.325.442A2.53 2.53 0 0 1 16 4.133V5h-4.049z"/></svg>