<svg xmlns="http://www.w3.org/2000/svg" width="24" height="24" fill="none" data-fui-icon="true" viewBox="0 0 24 24"><path stroke="currentColor" stroke-linecap="round" stroke-linejoin="round" stroke-width="1.5" d="m3.84 17.68 6.75 4.17a2.68 2.68 0 0 0 2.82 0l6.75-4.17a2.3 2.3 0 0 0 1.09-1.955v-7.45c0-.796-.412-1.536-1.09-1.955l-6.75-4.17a2.68 2.68 0 0 0-2.82 0L3.84 6.32a2.3 2.3 0 0 0-1.09 1.955v7.45c0 .796.412 1.536 1.09 1.955m8.153-5.923v6.373M12 11.757l5.38-2.912m-5.388 2.912-5.38-2.912"/></svg>