<svg xmlns="http://www.w3.org/2000/svg" width="24" height="24" fill="none" data-fui-icon="true" viewBox="0 0 24 24"><path fill="currentColor" d="M12 12.5q.851.001 1.64.151a.75.75 0 0 1-.278 1.474 7.3 7.3 0 0 0-1.495-.124 7 7 0 0 0-.396.018l-.082.006q-.192.016-.378.04l-.028.004a7 7 0 0 0-.365.06l-.045.009c-2.344.467-4.089 2.081-4.886 4.235a.72.72 0 0 0 .133.741c.186.222.504.386.877.386h5.554a.75.75 0 0 1 0 1.5H6.697a2.65 2.65 0 0 1-2.026-.922 2.21 2.21 0 0 1-.39-2.226c.932-2.521 2.962-4.457 5.666-5.112l.205-.047.09-.018a8 8 0 0 1 .698-.113q.096-.011.193-.021l.072-.006q.127-.01.255-.018l.065-.004a9 9 0 0 1 .315-.012zm7.47 2.97a.75.75 0 0 1 1.061 1.06L19.061 18l1.47 1.47a.75.75 0 1 1-1.06 1.06L18 19.06l-1.47 1.47a.75.75 0 0 1-1.06-1.06L16.94 18l-1.47-1.47a.75.75 0 0 1 1.06-1.06l1.47 1.47zM12 2a4.5 4.5 0 1 1 0 9 4.5 4.5 0 0 1 0-9m0 1.5a3 3 0 1 0 .001 6 3 3 0 0 0 0-6"/></svg>