<svg xmlns="http://www.w3.org/2000/svg" width="24" height="24" fill="none" data-fui-icon="true" viewBox="0 0 24 24"><path fill="currentColor" d="M12 1c6.075 0 11 4.925 11 11s-4.925 11-11 11S1 18.075 1 12 5.925 1 12 1M8.849 16c.205 1.121.491 2.124.838 2.96.363.874.775 1.532 1.194 1.96.417.425.795.58 1.119.58s.702-.155 1.12-.58c.418-.428.83-1.086 1.193-1.96.347-.836.633-1.839.838-2.96zm-5.466 0a9.52 9.52 0 0 0 5.698 5.041 9.4 9.4 0 0 1-.78-1.506c-.42-1.014-.752-2.213-.976-3.535zm13.292 0c-.224 1.322-.556 2.521-.977 3.535a9.4 9.4 0 0 1-.78 1.506 9.52 9.52 0 0 0 5.7-5.041zm.201-6.5a25 25 0 0 1 0 5h4.289a9.5 9.5 0 0 0 0-5zm-8.244 0A23 23 0 0 0 8.5 12c0 .867.046 1.705.132 2.5h6.736A23 23 0 0 0 15.5 12c0-.867-.046-1.705-.132-2.5zm-5.797 0a9.5 9.5 0 0 0 0 5h4.289a25 25 0 0 1 0-5zm6.246-6.542A9.53 9.53 0 0 0 3.383 8h3.942c.224-1.322.556-2.521.977-3.535.229-.552.49-1.06.779-1.507M12 2.5c-.324 0-.702.155-1.12.58-.418.428-.83 1.086-1.193 1.96-.347.836-.633 1.839-.838 2.96h6.302c-.205-1.121-.491-2.124-.838-2.96-.363-.874-.775-1.532-1.194-1.96-.417-.425-.795-.58-1.119-.58m2.918.458c.29.448.551.955.78 1.507.42 1.014.753 2.213.977 3.535h3.942a9.53 9.53 0 0 0-5.699-5.042"/></svg>