<svg xmlns="http://www.w3.org/2000/svg" width="12" height="12" fill="none" data-fui-icon="true" viewBox="0 0 12 12"><path fill="currentColor" d="M10.236 5.466c.062-.051.154-.028.202.036l.3.4A2.406 2.406 0 0 1 8.812 9.75H8.55c-.166 0-.298.135-.317.3a2.15 2.15 0 0 1-.704 1.385A2.3 2.3 0 0 1 6 12a2.3 2.3 0 0 1-1.53-.565 2.1 2.1 0 0 1-.484-.642.276.276 0 0 1 .082-.334l2.647-2.142a.3.3 0 0 1 .189-.067h1.91a.906.906 0 0 0 .725-1.448l-.3-.4c-.034-.045-.022-.111.022-.147zm.542-4.299a.75.75 0 0 1 .944 1.166l-10.5 8.5a.75.75 0 0 1-.944-1.166zM5.55 9.75c-.166 0-.309.138-.257.296.04.123.106.208.174.269a.8.8 0 0 0 .533.185.8.8 0 0 0 .533-.185.6.6 0 0 0 .174-.27c.052-.157-.091-.295-.257-.295zM5.999 0c1.01 0 1.8.277 2.406.71.152.108.147.328.002.445l-.747.605a.33.33 0 0 1-.362.026C6.961 1.608 6.538 1.5 6 1.5c-.64 0-1.098.154-1.436.368-.34.217-.6.525-.797.889-.406.749-.51 1.67-.526 2.262a3 3 0 0 1-.016.23.28.28 0 0 1-.106.187L1.288 6.92c-.198.16-.475.015-.404-.23.081-.278.215-.546.401-.789l.28-.362a.95.95 0 0 0 .175-.56c.018-.673.133-1.876.706-2.935A3.85 3.85 0 0 1 3.758.603C4.36.22 5.105 0 5.999 0"/></svg>