<svg xmlns="http://www.w3.org/2000/svg" width="16" height="16" fill="none" data-fui-icon="true" viewBox="0 0 16 16"><path fill="currentColor" d="m8.89 2.224.53-.53zm3.553 3.552-.53.53zM5.687 10.5a.75.75 0 0 0 0 1.5zm4.626 1.5a.75.75 0 0 0 0-1.5zM5.687 7.76a.75.75 0 1 0 0 1.5zM8 9.26a.75.75 0 0 0 0-1.5zm-.25-7.093v2.666h1.5V2.167zm0 2.666c0 1.15.933 2.084 2.083 2.084v-1.5a.583.583 0 0 1-.583-.584zm2.083 2.084H12.5v-1.5H9.833zM4.5 2.583h3.448v-1.5H4.5zm3.448 0c.154 0 .303.062.412.171l1.06-1.06c-.39-.391-.92-.61-1.472-.61zm.412.171 3.553 3.552 1.06-1.06-3.552-3.552zm3.553 3.552c.109.11.17.258.17.413h1.5c0-.553-.22-1.082-.61-1.473zm.17.413v6.114h1.5V6.72zm0 6.114a.583.583 0 0 1-.583.584v1.5c1.15 0 2.083-.933 2.083-2.084zm-.583.584h-7v1.5h7zm-7 0a.583.583 0 0 1-.583-.584h-1.5c0 1.151.932 2.084 2.083 2.084zm-.583-.584V3.167h-1.5v9.666zm0-9.666c0-.322.26-.584.583-.584v-1.5c-1.15 0-2.083.933-2.083 2.084zM5.687 12h4.626v-1.5H5.687zm0-2.74H8v-1.5H5.687z"/></svg>