<svg xmlns="http://www.w3.org/2000/svg" width="16" height="16" fill="none" data-fui-icon="true" viewBox="0 0 16 16"><path fill="currentColor" d="M9.086.25c.464 0 .91.185 1.237.513l2.914 2.914c.329.328.513.773.513 1.237v8.572c0 1.183-.89 2.264-2.129 2.264H4.38c-1.24 0-2.129-1.08-2.129-2.264V2.514C2.25 1.33 3.14.25 4.379.25zm-.924 5.5a.75.75 0 0 0-.75.75v2.898l-.929-.928a.75.75 0 0 0-1.06 1.06l1.953 1.953a1 1 0 0 0 1.414 0l2.116-2.116a.75.75 0 0 0-1.06-1.06l-.934.933V6.5a.75.75 0 0 0-.75-.75"/></svg>