<svg xmlns="http://www.w3.org/2000/svg" width="32" height="32" fill="none" data-fui-icon="true" viewBox="0 0 32 32"><path fill="currentColor" d="M16 1c8.284 0 15 6.716 15 15s-6.716 15-15 15S1 24.284 1 16 7.716 1 16 1m0 1.5C8.544 2.5 2.5 8.544 2.5 16S8.544 29.5 16 29.5 29.5 23.456 29.5 16 23.456 2.5 16 2.5m2.75 3.75a.75.75 0 0 1 .75.75v1.781A4 4 0 0 1 21.33 16a4 4 0 0 1-1.83 7.218V25a.75.75 0 0 1-1.5 0v-1.75h-4V25a.75.75 0 0 1-1.5 0v-1.75H9.75a.75.75 0 0 1 0-1.5h1.288l-.036-11.5H9.75a.75.75 0 0 1 0-1.5h2.75V7A.75.75 0 0 1 14 7v1.75h4V7a.75.75 0 0 1 .75-.75m-6.213 15.5H19a2.5 2.5 0 0 0 0-5h-6.478zm-.02-6.5H19a2.5 2.5 0 0 0 0-5h-6.498z"/></svg>