<svg xmlns="http://www.w3.org/2000/svg" width="16" height="16" fill="none" data-fui-icon="true" viewBox="0 0 16 16"><path fill="currentColor" d="M8 0a.75.75 0 0 1 .75.75v.54c2.68.276 3.768 2.02 3.984 3.058a.75.75 0 1 1-1.469.304c-.089-.426-.647-1.6-2.515-1.853V7.38c.808.16 1.668.37 2.368.763.458.257.877.608 1.177 1.1q.454.74.454 1.756c0 1.64-1.403 3.419-3.999 3.708v.542a.75.75 0 0 1-1.5 0v-.541c-1.204-.13-2.092-.57-2.73-1.132a4.35 4.35 0 0 1-1.256-1.923.751.751 0 0 1 1.43-.456c.1.316.333.826.818 1.253.368.324.916.63 1.738.747V8.62c-.807-.16-1.669-.37-2.368-.763-.458-.257-.878-.608-1.179-1.1Q3.25 6.017 3.25 5c0-1.64 1.407-3.42 4.001-3.709V.75A.75.75 0 0 1 8 0m.75 13.197c1.836-.263 2.5-1.478 2.5-2.197 0-.447-.098-.752-.234-.974-.137-.223-.342-.412-.634-.576-.433-.243-.985-.4-1.632-.538zM7.25 2.802c-1.835.263-2.5 1.48-2.5 2.198 0 .447.097.752.233.974.137.223.343.412.635.576.433.243.985.399 1.632.537z"/></svg>