<svg xmlns="http://www.w3.org/2000/svg" width="32" height="32" fill="none" data-fui-icon="true" viewBox="0 0 32 32"><g clip-path="url(#a)"><path fill="currentColor" d="M16 0c8.914 0 16 7.086 16 16s-7.086 16-16 16S0 24.914 0 16 7.086 0 16 0m0 1.5C7.914 1.5 1.5 7.914 1.5 16S7.914 30.5 16 30.5 30.5 24.086 30.5 16 24.086 1.5 16 1.5m0 18.75c2.206 0 3.75.833 4.738 1.68.49.421.843.842 1.073 1.162a5 5 0 0 1 .33.515l.02.038.006.012.003.006v.001l-.574.288.575-.287a.75.75 0 0 1-1.34.674v-.001l-.002-.002v-.002l-.006-.009-.04-.07a4 4 0 0 0-.188-.284 5.2 5.2 0 0 0-.833-.902C19 22.417 17.794 21.75 16 21.75s-3 .667-3.762 1.32c-.384.329-.657.658-.833.9a4 4 0 0 0-.228.355l-.006.01h-.001v.003h-.001a.75.75 0 0 1-1.34-.673l.575.287-.575-.288h.001l.003-.007.007-.012.02-.038q.024-.045.068-.12c.059-.099.145-.235.26-.395.231-.32.583-.741 1.074-1.161.989-.848 2.532-1.681 4.738-1.681M9.375 13.4a1.375 1.375 0 1 1 0 2.75 1.375 1.375 0 0 1 0-2.75m13.25 0a1.375 1.375 0 1 1 0 2.75 1.375 1.375 0 0 1 0-2.75"/></g><defs><clipPath id="a"><path fill="currentColor" d="M0 0h32v32H0z"/></clipPath></defs></svg>