<svg xmlns="http://www.w3.org/2000/svg" width="32" height="32" fill="none" data-fui-icon="true" viewBox="0 0 32 32"><path fill="currentColor" d="M21.454 5.25c4.06 0 7.296 3.534 7.296 7.75 0 1.961-.838 3.86-2.007 5.564-1.173 1.712-2.723 3.29-4.249 4.625a44.5 44.5 0 0 1-5.972 4.372q-.068.042-.105.064l-.028.017-.008.003-.002.003h-.001a.75.75 0 0 1-.758-.002q-.002 0-.004-.002l-.008-.004-.027-.017-.105-.063-.391-.243a43 43 0 0 1-1.384-.91 45 45 0 0 1-4.196-3.24c-1.526-1.339-3.075-2.918-4.248-4.626C4.088 16.84 3.25 14.948 3.25 13c0-4.216 3.235-7.75 7.296-7.75 2.181 0 4.134.995 5.454 2.604 1.32-1.61 3.273-2.604 5.454-2.604m0 1.5c-2.012 0-3.792 1.073-4.81 2.783L16 9.15l-.645.384c-1.017-1.71-2.797-2.783-4.81-2.783C7.408 6.75 4.75 9.516 4.75 13c0 1.523.662 3.117 1.743 4.691 1.077 1.568 2.528 3.055 4.002 4.348a44 44 0 0 0 4.054 3.13c.553.38 1.014.678 1.335.88l.117.072.117-.071c.321-.2.782-.497 1.335-.873a43 43 0 0 0 4.053-3.116c1.474-1.29 2.924-2.774 4-4.344C26.589 16.14 27.25 14.539 27.25 13c0-3.484-2.657-6.25-5.796-6.25m-4.81 2.783a.75.75 0 0 1-1.288 0L16 9.15z"/></svg>