<svg xmlns="http://www.w3.org/2000/svg" width="24" height="24" fill="none" data-fui-icon="true" viewBox="0 0 24 24"><path fill="currentColor" d="M11.611 22a2.754 2.754 0 0 0 2.722-3.174L13.892 16h4.367a3.75 3.75 0 0 0 3.707-4.315l-.837-5.5A3.75 3.75 0 0 0 17.422 3H3.75A1.75 1.75 0 0 0 2 4.75v7.5c0 .966.784 1.75 1.75 1.75h2.67l3.634 7.052c.3.583.903.948 1.557.948M3.75 12.5a.25.25 0 0 1-.25-.25v-7.5a.25.25 0 0 1 .25-.25H6v8zm7.861 8a.25.25 0 0 1-.223-.136L7.5 12.818V4.5h9.922a2.25 2.25 0 0 1 2.224 1.911l.837 5.5A2.25 2.25 0 0 1 18.26 14.5h-5.243a.75.75 0 0 0-.74.865l.74-.115v.001l-.74.114.575 3.693a1.253 1.253 0 0 1-1.24 1.442"/></svg>