<svg xmlns="http://www.w3.org/2000/svg" width="16" height="16" fill="none" data-fui-icon="true" viewBox="0 0 16 16"><path fill="currentColor" d="M12.68 10.25q.07.354.07.75c0 1.64-1.405 3.419-4 3.708v.542a.75.75 0 0 1-1.5 0v-.541c-1.204-.13-2.091-.57-2.729-1.132a4.35 4.35 0 0 1-1.256-1.923.751.751 0 0 1 1.43-.456c.1.316.333.826.818 1.253.368.324.915.63 1.737.747V10.25h1.5v2.947c1.836-.263 2.5-1.478 2.5-2.197 0-.313-.049-.556-.124-.75zM8 0a.75.75 0 0 1 .75.75v.538c2.68.277 3.769 2.023 3.984 3.06a.75.75 0 0 1-1.468.304c-.09-.426-.648-1.6-2.516-1.853V7.25h6.5a.75.75 0 0 1 .076 1.496l-.076.004H.75a.75.75 0 0 1 0-1.5h3.335a3 3 0 0 1-.38-.493Q3.25 6.016 3.25 5c0-1.64 1.406-3.418 4-3.708V.75A.75.75 0 0 1 8 0m-.75 2.802c-1.835.263-2.5 1.48-2.5 2.198 0 .447.098.752.233.974.137.223.344.412.635.576.433.243.985.399 1.632.537z"/></svg>