<svg xmlns="http://www.w3.org/2000/svg" width="12" height="12" fill="none" data-fui-icon="true" viewBox="0 0 12 12"><g clip-path="url(#a)"><path fill="currentColor" d="M4.4.45A3.15 3.15 0 0 1 7.55 3.6c0 .749-.263 1.435-.7 1.975A4.6 4.6 0 0 1 8.328 6.89c1.265 1.732.31 4.065-1.767 4.478-.561.112-1.226.182-2.01.182-.935 0-1.7-.1-2.323-.251C.383 10.852-.52 8.825.426 7.162A4.24 4.24 0 0 1 1.959 5.59 3.15 3.15 0 0 1 4.4.45m1.003 6.136a3.15 3.15 0 0 1-2 .002c-.866.257-1.367.777-1.673 1.315-.445.782-.04 1.722.85 1.938.496.12 1.142.209 1.97.209.694 0 1.26-.062 1.717-.153 1.029-.204 1.452-1.297.848-2.123a3.13 3.13 0 0 0-1.712-1.188M8.31 1.649a.75.75 0 0 1 .982-.398 2.55 2.55 0 0 1 1.558 2.35c0 .645-.242 1.232-.636 1.68.81.79 1.52 1.893 1.298 3.511a.75.75 0 0 1-1.486-.204c.164-1.198-.458-1.945-1.345-2.653a.75.75 0 0 1 .027-1.366 1.051 1.051 0 0 0 0-1.937.75.75 0 0 1-.398-.983M4.4 1.95a1.65 1.65 0 1 0 .001 3.302 1.65 1.65 0 0 0 0-3.302"/></g><defs><clipPath id="a"><path fill="currentColor" d="M0 0h12v12H0z"/></clipPath></defs></svg>