<svg xmlns="http://www.w3.org/2000/svg" width="20" height="20" fill="none" data-fui-icon="true" viewBox="0 0 20 20"><path fill="currentColor" d="M12 18.5a.75.75 0 0 1 0 1.5H8a.75.75 0 0 1 0-1.5zM10 4.25c3.462 0 5.75 2.885 5.75 5.75 0 1.16-.446 2.191-.948 2.99a9.3 9.3 0 0 1-1.461 1.766.26.26 0 0 0-.091.18 2.565 2.565 0 0 1-2.565 2.564h-1.37a2.565 2.565 0 0 1-2.565-2.565.26.26 0 0 0-.09-.18 9.3 9.3 0 0 1-1.462-1.765c-.502-.799-.948-1.83-.948-2.99 0-2.865 2.288-5.75 5.75-5.75m0 1.5c-2.538 0-4.25 2.115-4.25 4.25 0 .776.302 1.53.719 2.192.414.66.91 1.18 1.221 1.474.333.314.56.765.56 1.27 0 .587.477 1.064 1.064 1.064h1.371c.588 0 1.065-.477 1.065-1.065 0-.504.227-.955.56-1.269a7.8 7.8 0 0 0 1.221-1.474c.417-.662.719-1.416.719-2.192 0-2.135-1.712-4.25-4.25-4.25"/></svg>