<svg xmlns="http://www.w3.org/2000/svg" width="12" height="12" fill="none" data-fui-icon="true" viewBox="0 0 12 12"><path fill="currentColor" d="M7.25 0a1.5 1.5 0 0 1 1.5 1.5H9c.932 0 1.688.756 1.688 1.688v7.124C10.688 11.246 9.932 12 9 12H3a1.687 1.687 0 0 1-1.687-1.687V3.186C1.313 2.257 2.068 1.5 3 1.5h.25A1.5 1.5 0 0 1 4.75 0zM3 3a.19.19 0 0 0-.187.188v7.124c0 .104.083.188.187.188h6a.187.187 0 0 0 .188-.187V3.186A.19.19 0 0 0 9 3h-.337A1.5 1.5 0 0 1 7.25 4h-2.5a1.5 1.5 0 0 1-1.413-1zm4.25 5a.75.75 0 0 1 0 1.5h-2.5a.75.75 0 0 1 0-1.5zm0-3a.75.75 0 0 1 0 1.5h-2.5a.75.75 0 0 1 0-1.5zm-2.5-2.5h2.5v-1h-2.5z"/></svg>