<svg xmlns="http://www.w3.org/2000/svg" width="24" height="24" fill="none" data-fui-icon="true" viewBox="0 0 24 24"><path stroke="currentColor" stroke-linecap="round" stroke-linejoin="round" stroke-width="1.5" d="m8.75 12.75 2.5 2.5 5-5.5"/><path stroke="currentColor" stroke-linecap="round" stroke-linejoin="round" stroke-width="1.5" d="M10.89 2.354C9.23 4.644 6.205 5.887 4.503 6.435c-.724.233-1.253.893-1.253 1.653v1.035c0 5.623 3.054 11.345 8.41 13.056q.218.07.34.071.122-.001.34-.07c5.356-1.712 8.41-7.434 8.41-13.057V8.088c0-.76-.529-1.42-1.252-1.653-1.703-.548-4.727-1.79-6.388-4.081-.261-.36-.665-.604-1.11-.604s-.849.244-1.11.604"/></svg>