<svg xmlns="http://www.w3.org/2000/svg" width="24" height="24" fill="none" data-fui-icon="true" viewBox="0 0 24 24"><path fill="currentColor" d="M12 0c1.105 0 2.185.165 3.214.47a.75.75 0 0 1-.428 1.44A9.8 9.8 0 0 0 12 1.5C6.408 1.5 1.5 6.408 1.5 12S6.408 22.5 12 22.5 22.5 17.592 22.5 12c0-.955-.143-1.89-.41-2.786a.75.75 0 0 1 1.44-.428c.305 1.03.47 2.109.47 3.214 0 6.42-5.58 12-12 12S0 18.42 0 12 5.58 0 12 0M7.54 15.33a.75.75 0 0 1 .968.268l.035.061.001.001v.005l.003.002.026.046q.04.068.133.2c.125.171.32.407.595.643.542.464 1.405.944 2.699.944s2.157-.48 2.7-.944a3.7 3.7 0 0 0 .727-.843l.026-.046.001-.002.002-.005h.001l.035-.062a.75.75 0 0 1 1.304.737l-.566-.282c.566.282.565.284.565.284l-.003.006-.005.01-.017.03-.055.098a4 4 0 0 1-.204.31c-.18.25-.454.577-.835.903-.77.66-1.97 1.306-3.676 1.306s-2.906-.645-3.676-1.306a5.3 5.3 0 0 1-.835-.903 4 4 0 0 1-.26-.407l-.016-.03-.005-.011-.003-.006v-.001l.565-.283-.566.282a.75.75 0 0 1 .336-1.006M7.2 10.3a1.2 1.2 0 1 1 0 2.4 1.2 1.2 0 0 1 0-2.4m9.6 0a1.2 1.2 0 1 1 0 2.4 1.2 1.2 0 0 1 0-2.4M20.25 0a.75.75 0 0 1 .75.75V3h2.25a.75.75 0 0 1 0 1.5H21v2.25a.75.75 0 0 1-1.5 0V4.5h-2.25a.75.75 0 0 1 0-1.5h2.25V.75a.75.75 0 0 1 .75-.75"/></svg>