<svg xmlns="http://www.w3.org/2000/svg" width="16" height="16" fill="none" data-fui-icon="true" viewBox="0 0 16 16"><path fill="currentColor" d="M7.946.25a2.07 2.07 0 0 1 1.53.688l3.674 4.033c.391.428.6.996.6 1.575v6.94c0 1.183-.89 2.264-2.129 2.264H4.38c-1.24 0-2.129-1.08-2.129-2.264V2.514C2.25 1.33 3.14.25 4.379.25zM4.38 1.75c-.284 0-.629.275-.629.764v10.972c0 .489.345.764.629.764h7.242c.284 0 .629-.275.629-.764V6.67H9.896c-1.24 0-2.128-1.08-2.128-2.264V1.75zm3.783 5a.75.75 0 0 1 .75.75v3.04l.933-.934a.75.75 0 0 1 1.06 1.061L8.79 12.783a1 1 0 0 1-1.414 0L5.423 10.83a.75.75 0 1 1 1.06-1.06l.93.928V7.5a.75.75 0 0 1 .75-.75m1.106-2.345c0 .489.345.764.628.764h1.407L9.268 2.936z"/></svg>