<svg xmlns="http://www.w3.org/2000/svg" width="32" height="32" fill="none" data-fui-icon="true" viewBox="0 0 32 32"><path fill="currentColor" d="M16 1.25c2.164 0 3.826 0 5.159.091 1.34.092 2.403.278 3.367.677a10.09 10.09 0 0 1 5.457 5.457c.4.964.585 2.028.677 3.367.09 1.333.09 2.995.09 5.158s0 3.826-.09 5.159c-.092 1.34-.278 2.403-.677 3.367a10.08 10.08 0 0 1-5.457 5.457c-.964.4-2.028.585-3.367.677-1.333.09-2.995.09-5.158.09s-3.826 0-5.159-.09c-1.34-.092-2.403-.278-3.367-.677a10.09 10.09 0 0 1-5.457-5.457c-.4-.964-.585-2.028-.677-3.367-.09-1.333-.091-2.995-.091-5.158s0-3.826.091-5.159c.092-1.34.278-2.403.677-3.367a10.08 10.08 0 0 1 5.457-5.457c.964-.4 2.028-.585 3.367-.677 1.333-.09 2.995-.09 5.158-.09m0 1.5c-2.184 0-3.785 0-5.055.087-1.263.087-2.145.256-2.896.567a8.58 8.58 0 0 0-4.645 4.645c-.311.751-.48 1.633-.567 2.896-.086 1.27-.087 2.871-.087 5.055 0 2.185 0 3.786.087 5.056.087 1.263.256 2.145.567 2.896a8.59 8.59 0 0 0 4.645 4.645c.751.311 1.633.48 2.896.567 1.27.086 2.871.086 5.055.086 2.185 0 3.786 0 5.056-.086 1.263-.087 2.145-.256 2.896-.567a8.59 8.59 0 0 0 4.645-4.645c.311-.751.48-1.633.567-2.896.086-1.27.086-2.871.086-5.056s0-3.785-.086-5.055c-.087-1.263-.256-2.145-.567-2.896a8.59 8.59 0 0 0-4.645-4.645c-.751-.311-1.633-.48-2.896-.567-1.27-.086-2.871-.087-5.056-.087M10.49 11c1.283 0 2.17.551 2.725 1.104a4 4 0 0 1 .734 1.007l.05.107.004.01.002.003v.002h.001a.751.751 0 0 1-1.383.58l-.002-.003-.015-.031a2.53 2.53 0 0 0-.45-.612c-.333-.333-.857-.666-1.666-.666h-.24A2.25 2.25 0 0 0 8 14.75v2.496a2.25 2.25 0 0 0 2.25 2.25h.563c.966 0 1.75-.784 1.75-1.75v-.671h-1.27a.75.75 0 0 1 0-1.5h1.52c.69 0 1.25.56 1.25 1.25v.92a3.25 3.25 0 0 1-3.25 3.25h-.562a3.75 3.75 0 0 1-3.75-3.75v-2.495A3.75 3.75 0 0 1 10.25 11zm6.11 0a.75.75 0 0 1 .75.75v8.497a.751.751 0 0 1-1.5 0V11.75a.75.75 0 0 1 .75-.75m8.114 0a.75.75 0 0 1 0 1.5h-3.713v2.749h3.028a.75.75 0 0 1 0 1.5H21v3.498a.751.751 0 0 1-1.5 0V12.25c0-.69.56-1.25 1.25-1.25z"/></svg>