<svg xmlns="http://www.w3.org/2000/svg" width="12" height="12" fill="none" data-fui-icon="true" viewBox="0 0 12 12"><path fill="currentColor" d="M6 0c.474 0 .935.16 1.309.452l4.014 3.152c.428.335.677.849.677 1.392v5.744A1.26 1.26 0 0 1 10.74 12H8.37a.87.87 0 0 1-.87-.87V8.75a1.5 1.5 0 1 0-3 0v2.38a.87.87 0 0 1-.87.87H1.26A1.26 1.26 0 0 1 0 10.74V4.996c0-.543.25-1.057.677-1.392L4.69.452A2.12 2.12 0 0 1 6 0m0 1.5a.62.62 0 0 0-.382.132L1.604 4.783a.27.27 0 0 0-.104.213V10.5H3V8.75a3 3 0 0 1 6 0v1.75h1.5V4.996a.27.27 0 0 0-.104-.213L6.382 1.632A.62.62 0 0 0 6 1.5"/></svg>