<svg xmlns="http://www.w3.org/2000/svg" width="20" height="20" fill="none" data-fui-icon="true" viewBox="0 0 20 20"><path fill="currentColor" d="M2 12.729a.75.75 0 0 1 .75.75v.771a3 3 0 0 0 3 3H6.8a.75.75 0 0 1 0 1.5H5.75a4.5 4.5 0 0 1-4.5-4.5v-.771a.75.75 0 0 1 .75-.75m16 0a.75.75 0 0 1 .75.75v.771a4.5 4.5 0 0 1-4.5 4.5H13.2a.75.75 0 0 1 0-1.5h1.05a3 3 0 0 0 3-3v-.771a.75.75 0 0 1 .75-.75M6.8 1.25a.75.75 0 1 1 0 1.5H5.75a3 3 0 0 0-3 3v.771a.75.75 0 1 1-1.5 0V5.75a4.5 4.5 0 0 1 4.5-4.5zm7.45 0a4.5 4.5 0 0 1 4.5 4.5v.771a.75.75 0 0 1-1.5 0V5.75a3 3 0 0 0-3-3H13.2a.75.75 0 0 1 0-1.5z"/></svg>