<svg xmlns="http://www.w3.org/2000/svg" width="16" height="16" fill="none" data-fui-icon="true" viewBox="0 0 16 16"><path fill="currentColor" d="M5.334 7.75c1.38 0 2.51.555 3.33 1.474.807.902 1.292 2.123 1.497 3.449.136.878-.574 1.577-1.378 1.577H1.885c-.805 0-1.515-.699-1.38-1.577l.092-.492c.24-1.135.7-2.168 1.406-2.957.822-.92 1.95-1.474 3.33-1.474m6 0c1.218 0 2.223.475 2.962 1.27.724.78 1.163 1.834 1.357 2.974.152.89-.57 1.589-1.37 1.589h-2.45a.75.75 0 1 1 0-1.5h2.31c-.171-.862-.5-1.561-.947-2.042-.46-.495-1.068-.79-1.862-.791q-.36.001-.662.076a.75.75 0 0 1-.356-1.457q.486-.119 1.018-.119m-6 1.5c-.94 0-1.667.363-2.213.974-.536.6-.92 1.468-1.105 2.526h6.635c-.185-1.058-.569-1.927-1.104-2.526C7 9.613 6.274 9.25 5.334 9.25m0-7.5a2.917 2.917 0 1 1-.002 5.834 2.917 2.917 0 0 1 .002-5.834m6 .667a2.583 2.583 0 1 1 0 5.166 2.583 2.583 0 0 1 0-5.166m-6 .833a1.417 1.417 0 1 0 0 2.834 1.417 1.417 0 0 0 0-2.834m6 .667a1.084 1.084 0 1 0 0 2.167 1.084 1.084 0 0 0 0-2.167"/></svg>