<svg xmlns="http://www.w3.org/2000/svg" width="20" height="20" fill="none" data-fui-icon="true" viewBox="0 0 20 20"><path stroke="currentColor" stroke-width="1.5" d="M15.554 4.926a13.2 13.2 0 0 0-3.301-1.021q-.234.42-.423.864a12.2 12.2 0 0 0-3.664 0 9 9 0 0 0-.422-.864c-1.141.195-2.252.54-3.304 1.023-2.089 3.107-2.655 6.137-2.372 9.124a13.3 13.3 0 0 0 4.048 2.043q.493-.666.867-1.405a8.6 8.6 0 0 1-1.365-.656c.115-.083.227-.17.335-.253a9.47 9.47 0 0 0 8.094 0q.165.136.335.253a8.6 8.6 0 0 1-1.368.657q.374.74.867 1.404a13.2 13.2 0 0 0 4.051-2.042c.332-3.464-.568-6.466-2.378-9.127Z"/><path fill="currentColor" d="M5.902 10.61c0 .885.652 1.605 1.441 1.605.805 0 1.426-.72 1.44-1.605.014-.886-.633-1.612-1.442-1.612-.81 0-1.439.726-1.439 1.612m5.318 0c0 .885.649 1.605 1.44 1.605.803 0 1.424-.72 1.438-1.605.013-.886-.628-1.612-1.439-1.612-.81 0-1.44.726-1.44 1.612"/></svg>