<svg xmlns="http://www.w3.org/2000/svg" width="32" height="32" fill="none" data-fui-icon="true" viewBox="0 0 32 32"><path fill="currentColor" fill-rule="evenodd" d="M16.342 2.754C23.502 2.936 29.25 8.797 29.25 16s-5.747 13.064-12.907 13.246L16 29.25c-1.05 0-2.071-.123-3.051-.355-1.614-.381-3.115-.65-4.515-.283-.862.226-1.692.476-2.45.721-1.006.327-1.995-.053-2.63-.686-.633-.634-1.012-1.623-.686-2.63a45 45 0 0 0 .721-2.453c.366-1.4.099-2.9-.283-4.512A13.2 13.2 0 0 1 2.749 16C2.75 8.682 8.682 2.75 16 2.75zM16 4.25C9.51 4.25 4.25 9.51 4.25 16c0 .932.11 1.839.316 2.707.38 1.604.745 3.438.274 5.237a46 46 0 0 1-.745 2.536c-.119.366 0 .785.32 1.105s.74.44 1.107.32c.779-.253 1.637-.51 2.532-.744 1.8-.471 3.635-.105 5.24.274.868.206 1.774.315 2.706.315 6.49 0 11.75-5.26 11.75-11.75 0-6.388-5.097-11.585-11.446-11.746zM10.5 14.5a1.5 1.5 0 1 1 0 3 1.5 1.5 0 0 1 0-3m5.75 0a1.5 1.5 0 1 1 0 3 1.5 1.5 0 0 1 0-3m5.75 0a1.5 1.5 0 1 1 0 3 1.5 1.5 0 0 1 0-3" clip-rule="evenodd"/></svg>