<svg xmlns="http://www.w3.org/2000/svg" width="32" height="32" fill="none" data-fui-icon="true" viewBox="0 0 32 32"><path fill="currentColor" d="M22.5 3.75a6.75 6.75 0 0 1 6.75 6.75v11a6.75 6.75 0 0 1-6.75 6.75h-13a6.75 6.75 0 0 1-6.75-6.75v-11A6.75 6.75 0 0 1 9.5 3.75zm-13 1.5a5.25 5.25 0 0 0-5.25 5.25v11c0 2.9 2.35 5.25 5.25 5.25h13c2.9 0 5.25-2.35 5.25-5.25v-11c0-2.9-2.35-5.25-5.25-5.25zm5.498 5.191a1.42 1.42 0 0 1 1.897-.097l.107.097 4.028 4.029a.75.75 0 0 1-1.06 1.06l-3.22-3.22V21a.75.75 0 0 1-1.5 0v-8.69l-3.22 3.22a.75.75 0 0 1-1.06-1.06z"/></svg>