<svg xmlns="http://www.w3.org/2000/svg" width="24" height="24" fill="none" data-fui-icon="true" viewBox="0 0 24 24"><path fill="currentColor" d="M12.75 3a.75.75 0 0 1 0 1.5h-8c-.69 0-1.25.56-1.25 1.25v10.5c0 .69.56 1.25 1.25 1.25h3.901c.411 0 .81.145 1.125.41l2.065 1.73a.25.25 0 0 0 .32 0l2.099-1.738a1.75 1.75 0 0 1 1.116-.402h3.874c.69 0 1.25-.56 1.25-1.25v-4a.75.75 0 0 1 1.5 0v4A2.75 2.75 0 0 1 19.25 19h-3.874a.25.25 0 0 0-.16.058l-2.098 1.738a1.75 1.75 0 0 1-2.24-.007l-2.065-1.73A.25.25 0 0 0 8.65 19H4.75A2.75 2.75 0 0 1 2 16.25V5.75A2.75 2.75 0 0 1 4.75 3zM7.5 10.125a.875.875 0 1 1 0 1.75.875.875 0 0 1 0-1.75m4.5 0a.875.875 0 1 1 0 1.75.875.875 0 0 1 0-1.75m4.5 0a.875.875 0 1 1 0 1.75.875.875 0 0 1 0-1.75M19 2a4 4 0 1 1 0 8 4 4 0 0 1 0-8m0 1.5a2.5 2.5 0 1 0 0 5 2.5 2.5 0 0 0 0-5"/></svg>