<svg xmlns="http://www.w3.org/2000/svg" width="20" height="20" fill="none" data-fui-icon="true" viewBox="0 0 20 20"><path fill="currentColor" d="M16.67 2A3.33 3.33 0 0 1 20 5.33v9.34A3.33 3.33 0 0 1 16.67 18H3.33A3.33 3.33 0 0 1 0 14.67V5.33A3.33 3.33 0 0 1 3.33 2zm-4.06 10.194a4.63 4.63 0 0 1-5.22 0L1.5 8.17v6.5c0 1.01.82 1.83 1.83 1.83h13.34c1.01 0 1.83-.82 1.83-1.83v-6.5zM3.33 3.5c-1.01 0-1.83.82-1.83 1.83v1.024l6.737 4.601a3.13 3.13 0 0 0 3.526 0L18.5 6.354V5.33c0-1.01-.82-1.83-1.83-1.83z"/></svg>