<svg xmlns="http://www.w3.org/2000/svg" width="32" height="32" fill="none" data-fui-icon="true" viewBox="0 0 32 32"><path fill="currentColor" fill-rule="evenodd" d="M19 7a3.5 3.5 0 1 0 0 7 3.5 3.5 0 0 0 0-7m-2 3.5a2 2 0 1 1 4 0 2 2 0 0 1-4 0" clip-rule="evenodd"/><path fill="currentColor" fill-rule="evenodd" d="M4.5 6.75A4.25 4.25 0 0 1 8.75 2.5h18.5a4.25 4.25 0 0 1 4.25 4.25v14.5a4.25 4.25 0 0 1-4.25 4.25H8.75a4.25 4.25 0 0 1-4.25-4.25zM8.75 4A2.75 2.75 0 0 0 6 6.75v10.62l1.744-1.987a4.066 4.066 0 0 1 6.005-.115l4.058 4.28 1.693-2.083a3.966 3.966 0 0 1 5.976-.207l4.423 4.733q.1-.355.101-.741V6.75A2.75 2.75 0 0 0 27.25 4zm13.28 20-3.182-3.355 1.817-2.234a2.466 2.466 0 0 1 3.715-.129l4.696 5.025A2.74 2.74 0 0 1 27.25 24zm-2.068 0-7.301-7.7a2.566 2.566 0 0 0-3.79.073L6.074 19.56a1 1 0 0 1-.074.073v1.618A2.75 2.75 0 0 0 8.75 24z" clip-rule="evenodd"/><path fill="currentColor" d="M1.25 5.5a.75.75 0 0 1 .75.75v19A2.75 2.75 0 0 0 4.75 28h22a.75.75 0 0 1 0 1.5h-22A4.25 4.25 0 0 1 .5 25.25v-19a.75.75 0 0 1 .75-.75"/></svg>