<svg xmlns="http://www.w3.org/2000/svg" width="24" height="24" fill="none" data-fui-icon="true" viewBox="0 0 24 24"><path fill="currentColor" d="M12.096 1.25c-5.238 0-8.136 3.176-9.346 6.145V5.227a.75.75 0 0 0-1.5 0V8.73c0 1.045.84 1.905 1.893 1.905h2.35a.75.75 0 0 0 0-1.5h-1.74c.675-2.78 3.156-6.385 8.343-6.385 5.636 0 9.154 4.234 9.154 9.25s-3.518 9.25-9.154 9.25c-4 0-7.182-2.386-8.484-5.382a.75.75 0 1 0-1.375.598c1.533 3.528 5.244 6.284 9.859 6.284 6.553 0 10.654-4.997 10.654-10.75S18.65 1.25 12.096 1.25m-.088 3.836a.75.75 0 0 0-.75.75v.596c-2.141.278-3.351 1.734-3.352 3.146 0 .577.134 1.084.404 1.512.267.425.637.724 1.034.941.57.312 1.264.486 1.914.614v3.453c-.594-.106-.992-.328-1.262-.559a2.2 2.2 0 0 1-.644-.959.751.751 0 0 0-1.426.468 3.7 3.7 0 0 0 1.095 1.63c.534.458 1.264.816 2.237.938v.544a.75.75 0 0 0 1.5 0v-.546c2.143-.277 3.351-1.734 3.351-3.146 0-.578-.133-1.085-.403-1.513a2.75 2.75 0 0 0-1.034-.94c-.57-.312-1.264-.486-1.914-.615V7.944c1.41.235 1.81 1.11 1.868 1.384a.75.75 0 0 0 1.467-.314c-.192-.897-1.126-2.32-3.335-2.586v-.592a.75.75 0 0 0-.75-.75m.75 7.85c.474.105.876.22 1.194.394.232.127.385.267.485.424.096.154.172.375.172.714 0 .474-.458 1.386-1.851 1.63zm-1.5-1.827c-.475-.104-.876-.22-1.194-.393-.232-.127-.386-.268-.485-.425-.097-.154-.173-.374-.173-.713 0-.474.46-1.384 1.852-1.63z"/></svg>