<svg xmlns="http://www.w3.org/2000/svg" width="32" height="32" fill="none" data-fui-icon="true" viewBox="0 0 32 32"><path fill="currentColor" d="M23.458 18.25c.085 0 .167.036.222.1q.28.324.509.704c.53.886.814 1.961.814 3.257 0 3.212-2.99 7.059-8.978 7.06-3.107-.001-5.226-.993-6.641-2.266a8.34 8.34 0 0 1-2.35-3.675.75.75 0 0 1 1.432-.448 6.84 6.84 0 0 0 1.92 3.007c1.124 1.011 2.88 1.881 5.64 1.881 5.288 0 7.477-3.3 7.477-5.56 0-1.07-.233-1.869-.602-2.486-.37-.618-.907-1.103-1.594-1.498-.037-.02-.022-.076.02-.076zM16.025 2.629c6.256 0 8.554 3.854 8.962 5.86a.75.75 0 0 1-1.47.3c-.28-1.375-2.015-4.659-7.492-4.66-5.29.001-7.482 3.302-7.482 5.561 0 1.07.231 1.87.6 2.487.37.618.909 1.102 1.595 1.497 1.39.799 3.272 1.176 5.329 1.57a.3.3 0 0 0 .056.006H31.25a.75.75 0 0 1 .077 1.496l-.077.004H.75a.75.75 0 0 1 0-1.5h9.172c.145 0 .193-.203.068-.275-.856-.493-1.604-1.143-2.134-2.028-.53-.886-.813-1.962-.813-3.257 0-3.213 2.995-7.06 8.982-7.061"/></svg>