<svg xmlns="http://www.w3.org/2000/svg" width="16" height="16" fill="none" data-fui-icon="true" viewBox="0 0 16 16"><path fill="currentColor" fill-rule="evenodd" d="M2.75 0a.75.75 0 0 1 .75.75q0 .127.004.25h8.992Q12.5.877 12.5.75a.75.75 0 0 1 1.5 0c0 4.006-2.727 5.886-4.668 7.224-.314.216-.608.42-.867.614l-.026.02c-.33.25-.674.491-1.02.734-.529.371-1.062.745-1.558 1.158h4.285a13 13 0 0 0-.447-.357.75.75 0 0 1 .914-1.19C12.291 10.243 14 12.056 14 15.25a.75.75 0 0 1-1.5 0q0-.127-.004-.25H3.504a7 7 0 0 0-.004.25.75.75 0 0 1-1.5 0c0-4.006 2.727-5.886 4.668-7.224L6.706 8l-.038-.026C4.727 6.636 2 4.756 2 .75A.75.75 0 0 1 2.75 0m8.795 12H4.451a5.3 5.3 0 0 0-.715 1.5h8.523a5.3 5.3 0 0 0-.716-1.5M7.418 6.658C6.89 6.287 6.357 5.913 5.861 5.5h4.278c-.496.413-1.029.787-1.558 1.158q-.293.205-.581.41-.288-.205-.58-.41M3.737 2.5c.166.565.412 1.059.715 1.5h7.096c.303-.441.549-.935.715-1.5z" clip-rule="evenodd"/></svg>