<svg xmlns="http://www.w3.org/2000/svg" width="16" height="16" fill="none" data-fui-icon="true" viewBox="0 0 16 16"><path fill="currentColor" d="M14.22.72a.75.75 0 1 1 1.06 1.06l-.792.791c.268.35.429.786.429 1.263v7c0 1.15-.933 2.083-2.084 2.083H10.28l-1.376 1.14v-.001a1.414 1.414 0 0 1-1.813-.004l-1.354-1.135H4.144L1.78 15.28a.75.75 0 1 1-1.06-1.06zM5.644 11.417h.124c.33 0 .654.116.91.331L8 12.857l1.347-1.115c.255-.21.574-.325.904-.325h2.582a.584.584 0 0 0 .584-.583v-7a.6.6 0 0 0-.025-.166zm.351 1.145.102-.12.236-.283zM10.25 3.25H3.167a.583.583 0 0 0-.584.583v6.48a.75.75 0 0 1-1.5 0v-6.48c0-1.15.933-2.083 2.084-2.083h7.083z"/></svg>