<svg xmlns="http://www.w3.org/2000/svg" width="32" height="32" fill="none" data-fui-icon="true" viewBox="0 0 32 32"><path fill="currentColor" d="M16 1c3.56 0 6.311.946 8.422 2.397 2.104 1.447 3.532 3.368 4.5 5.261.967 1.893 1.485 3.777 1.761 5.182.138.704.217 1.292.262 1.707a14 14 0 0 1 .054.657v.016l-.749.03.75-.03a.75.75 0 0 1-.202.542l-6.814 7.3q.016.092.016.188v4.61A2.14 2.14 0 0 1 21.86 31H10.14A2.14 2.14 0 0 1 8 28.86v-4.61q.001-.096.016-.189l-6.813-7.3a.75.75 0 0 1-.202-.54l.75.029-.75-.03v-.016l.011-.17c.008-.114.022-.28.044-.487.044-.415.123-1.003.262-1.707.276-1.405.793-3.29 1.76-5.182.969-1.893 2.397-3.814 4.5-5.26C9.69 1.945 12.441 1 16 1M9.5 28.86c0 .354.287.64.64.64h11.72a.64.64 0 0 0 .64-.64V24.5h-13zM8.875 13.5c-2.323 0-3.95.806-4.993 1.598a7.2 7.2 0 0 0-1.15 1.088l-.008.008 6.362 6.818Q9.167 23 9.25 23h6v-6.519a5 5 0 0 0-.231-.296 7 7 0 0 0-1.15-1.087c-1.044-.792-2.67-1.598-4.994-1.598m14.25 0c-2.323 0-3.95.806-4.993 1.598a7 7 0 0 0-1.15 1.088c-.1.118-.176.219-.232.295V23h6q.084 0 .163.012l6.363-6.818-.007-.008a7 7 0 0 0-1.15-1.088c-1.044-.792-2.67-1.598-4.994-1.598M16 2.5c-3.278 0-5.728.867-7.57 2.134C6.578 5.906 5.3 7.61 4.413 9.342c-.863 1.69-1.342 3.388-1.605 4.69l.167-.13c1.263-.958 3.2-1.902 5.9-1.902 2.699 0 4.636.944 5.899 1.902.523.397.928.797 1.225 1.128a8.8 8.8 0 0 1 1.226-1.128c1.263-.958 3.2-1.902 5.9-1.902 2.699 0 4.636.944 5.899 1.902l.166.13c-.263-1.302-.74-3-1.605-4.69-.884-1.731-2.164-3.436-4.014-4.708C21.729 3.366 19.279 2.5 16 2.5"/></svg>