<svg xmlns="http://www.w3.org/2000/svg" width="32" height="32" fill="none" data-fui-icon="true" viewBox="0 0 32 32"><path fill="currentColor" d="M1.22 1.22a.75.75 0 0 1 1.06 0l28.5 28.5a.75.75 0 0 1-1.06 1.06l-7.623-7.623a.3.3 0 0 0-.494.11l-1.285 3.505c-.943 2.571-4.236 3.297-6.173 1.36L9.724 23.71a.3.3 0 0 0-.424 0l-4.384 4.385a.751.751 0 0 1-1.062-1.06L8.24 22.65a.3.3 0 0 0 0-.425l-4.422-4.421c-1.936-1.937-1.21-5.23 1.36-6.173l3.505-1.286a.3.3 0 0 0 .109-.493L1.22 2.28a.75.75 0 0 1 0-1.06m4.474 11.82c-1.542.566-1.978 2.541-.816 3.703l10.329 10.33c1.162 1.16 3.137.725 3.703-.818l1.62-4.419a.3.3 0 0 0-.07-.315L10.428 11.488a.3.3 0 0 0-.316-.07zM16.937 3.7a3.75 3.75 0 0 1 5.302 0l6.011 6.01a3.75 3.75 0 0 1 0 5.303l-4.877 4.876a.3.3 0 0 1-.424 0l-.636-.637a.3.3 0 0 1 0-.424l4.877-4.876a2.25 2.25 0 0 0 0-3.181L21.179 4.76a2.25 2.25 0 0 0-3.182 0L13.12 9.636a.3.3 0 0 1-.424 0l-.636-.637a.3.3 0 0 1 0-.424z"/></svg>