<svg xmlns="http://www.w3.org/2000/svg" width="20" height="20" fill="none" data-fui-icon="true" viewBox="0 0 20 20"><path fill="currentColor" d="M14.5 10a.86.86 0 0 0-.819.596l-.755 2.33-2.33.754a.861.861 0 0 0 0 1.639l2.33.755.755 2.33a.86.86 0 0 0 1.639 0l.754-2.33 2.33-.755a.862.862 0 0 0 0-1.639l-2.33-.754-.754-2.33A.86.86 0 0 0 14.5 10M7.029 1a1.16 1.16 0 0 0-1.103.8l-.923 2.84a.57.57 0 0 1-.363.362L1.8 5.925a1.16 1.16 0 0 0 0 2.205l2.84.924c.171.056.306.19.362.363l.923 2.839a1.16 1.16 0 0 0 2.205 0l.924-2.84a.56.56 0 0 1 .363-.362l2.839-.924a1.158 1.158 0 0 0 0-2.205l-2.84-.923a.56.56 0 0 1-.362-.363L8.13 1.8c-.156-.477-.6-.8-1.102-.8"/></svg>