<svg xmlns="http://www.w3.org/2000/svg" width="32" height="32" fill="none" data-fui-icon="true" viewBox="0 0 32 32"><path fill="currentColor" d="M10 6.25a.75.75 0 0 1 .75.75v17.5a.75.75 0 0 1-1.5 0V7a.75.75 0 0 1 .75-.75M13 8a.75.75 0 0 1 .75.75v14a.75.75 0 0 1-1.5 0v-14A.75.75 0 0 1 13 8m-6 3a.75.75 0 0 1 .75.75v8a.75.75 0 0 1-1.5 0v-8A.75.75 0 0 1 7 11m15 0a.75.75 0 0 1 .75.75v8a.75.75 0 0 1-1.5 0v-8A.75.75 0 0 1 22 11m-3 1a.75.75 0 0 1 .75.75v6a.75.75 0 0 1-1.5 0v-6A.75.75 0 0 1 19 12m-3 1a.75.75 0 0 1 .75.75v4a.75.75 0 0 1-1.5 0v-4A.75.75 0 0 1 16 13m9 0a.75.75 0 0 1 .75.75v4a.75.75 0 0 1-1.5 0v-4A.75.75 0 0 1 25 13M4 14a.75.75 0 0 1 .75.75v2a.75.75 0 0 1-1.5 0v-2A.75.75 0 0 1 4 14m24 .5a.75.75 0 0 1 .75.75v1a.75.75 0 0 1-1.5 0v-1a.75.75 0 0 1 .75-.75"/></svg>