<svg xmlns="http://www.w3.org/2000/svg" width="12" height="12" fill="none" data-fui-icon="true" viewBox="0 0 12 12"><path fill="currentColor" d="M9.75 0A2.25 2.25 0 0 1 12 2.25v7.5A2.25 2.25 0 0 1 9.75 12h-7.5A2.25 2.25 0 0 1 0 9.75v-7.5A2.25 2.25 0 0 1 2.25 0zm-7.5 1.5a.75.75 0 0 0-.75.75v7.5c0 .414.336.75.75.75h7.5a.75.75 0 0 0 .75-.75v-7.5a.75.75 0 0 0-.75-.75zM6 4.5a.75.75 0 0 1 .75.75V7.5h.5a.75.75 0 0 1 0 1.5h-2.5a.75.75 0 0 1 0-1.5h.5V6h-.5a.75.75 0 0 1 0-1.5zm-.25-1.996a.75.75 0 1 1 0 1.5.75.75 0 0 1 0-1.5"/></svg>