<svg xmlns="http://www.w3.org/2000/svg" width="20" height="20" fill="none" data-fui-icon="true" viewBox="0 0 20 20"><path fill="currentColor" d="M1.22 1.22a.75.75 0 0 1 1.06 0l16.5 16.5a.75.75 0 0 1-1.06 1.06l-3.567-3.567a.3.3 0 0 0-.5.125l-.249.816c-.564 1.838-2.881 2.415-4.24 1.056l-2.445-2.444a.3.3 0 0 0-.424 0l-2.661 2.66a.75.75 0 0 1-1.06-1.06l2.66-2.66a.3.3 0 0 0 0-.425l-2.445-2.445c-1.36-1.36-.782-3.678 1.056-4.241l.815-.251a.3.3 0 0 0 .124-.5L1.22 2.28a.75.75 0 0 1 0-1.06m9.317 1.17a2.55 2.55 0 0 1 3.606 0l3.465 3.466a2.55 2.55 0 0 1 0 3.606l-2.28 2.28a.3.3 0 0 1-.425 0L8.256 5.097a.3.3 0 0 1 0-.424z"/></svg>