<svg xmlns="http://www.w3.org/2000/svg" width="20" height="20" fill="none" data-fui-icon="true" viewBox="0 0 20 20"><path fill="currentColor" d="M8.75 11.438c1.95 0 3.42.404 4.522 1.045a5.65 5.65 0 0 1 2.219 2.324c.66 1.285-.187 2.618-1.38 2.97a19.2 19.2 0 0 1-5.36.785c-2.228 0-4.133-.422-5.361-.785-1.194-.352-2.04-1.685-1.38-2.97a5.65 5.65 0 0 1 2.219-2.324c1.101-.64 2.572-1.046 4.521-1.046m0 1.5c-1.74 0-2.938.36-3.766.842a4.15 4.15 0 0 0-1.64 1.712.5.5 0 0 0-.001.473c.08.158.243.306.472.374 1.134.335 2.892.724 4.935.724 2.044 0 3.802-.39 4.936-.724a.77.77 0 0 0 .472-.374.5.5 0 0 0-.002-.473 4.15 4.15 0 0 0-1.64-1.712c-.828-.482-2.026-.842-3.766-.842m4.913-3.175a.75.75 0 0 1 .95-.475c1.946.649 3.348 1.336 4.723 3.056a.75.75 0 0 1-1.172.937c-1.124-1.405-2.223-1.968-4.026-2.57a.75.75 0 0 1-.475-.948M8.75 1.438a4.188 4.188 0 1 1 0 8.375 4.188 4.188 0 0 1 0-8.375m0 1.5a2.688 2.688 0 1 0 0 5.375 2.688 2.688 0 0 0 0-5.376m4.688-2.75a4.188 4.188 0 0 1 3.425 6.596.75.75 0 0 1-1.226-.864 2.688 2.688 0 0 0-2.2-4.232.75.75 0 0 1 0-1.5"/></svg>