<svg xmlns="http://www.w3.org/2000/svg" width="24" height="24" fill="none" data-fui-icon="true" viewBox="0 0 24 24"><path fill="currentColor" d="M8.893 2c1.24 0 2.446.613 3.44 1.105 1.082.536 1.953.95 2.774.95.84 0 1.708-.193 2.42-.414C18.648 3.29 20 4.069 20 5.387v9.075c0 .66-.378 1.3-1.04 1.565-.787.316-2.305.834-3.853.834-1.24 0-2.446-.613-3.44-1.105-1.082-.536-1.953-.95-2.774-.95-.919 0-1.869.23-2.61.475-.312.103-.58.207-.783.291v5.678a.75.75 0 0 1-1.5 0V4.4c0-.66.378-1.3 1.04-1.566C5.827 2.519 7.345 2 8.893 2m0 1.5c-1.26 0-2.564.434-3.295.727-.045.018-.098.072-.098.172v9.569q.149-.055.313-.11c.814-.27 1.936-.552 3.08-.552 1.24 0 2.446.613 3.44 1.105 1.082.536 1.953.95 2.774.95 1.26 0 2.565-.433 3.295-.726.045-.018.098-.072.098-.173V5.387c0-.086-.044-.18-.153-.253a.45.45 0 0 0-.374-.062c-.789.246-1.817.484-2.866.484-1.24 0-2.446-.614-3.44-1.106-1.082-.535-1.953-.95-2.774-.95"/></svg>