<svg xmlns="http://www.w3.org/2000/svg" width="24" height="24" fill="none" data-fui-icon="true" viewBox="0 0 24 24"><path fill="currentColor" d="M16.536 3.25a6.75 6.75 0 0 1 6.72 6.12l.683 7.28a3.75 3.75 0 0 1-3.733 4.1H20a3.75 3.75 0 0 1-2-.578L17.75 20l-2.4-1.8a2.25 2.25 0 0 0-1.35-.45h-4c-.487 0-.96.158-1.35.45L6.25 20a3.75 3.75 0 0 1-2.25.75h-.206a3.75 3.75 0 0 1-3.733-4.1l.682-7.28a6.75 6.75 0 0 1 6.72-6.12zM15 11.6a1.2 1.2 0 1 0 0 2.402 1.2 1.2 0 0 0 0-2.401M8 8a.75.75 0 0 0-.75.75v1.5h-1.5a.75.75 0 0 0 0 1.5h1.5v1.5a.75.75 0 0 0 1.5 0v-1.5h1.5a.75.75 0 0 0 0-1.5h-1.5v-1.5A.75.75 0 0 0 8 8m9.4.001a1.2 1.2 0 1 0 0 2.399A1.2 1.2 0 0 0 17.4 8"/></svg>