<svg xmlns="http://www.w3.org/2000/svg" width="24" height="24" fill="none" data-fui-icon="true" viewBox="0 0 24 24"><path fill="currentColor" d="M6.25 8a.75.75 0 0 1 0 1.5h-2.5c-.69 0-1.25.56-1.25 1.25v9.5c0 .69.56 1.25 1.25 1.25h8.5c.69 0 1.25-.56 1.25-1.25v-1.5a.75.75 0 0 1 1.5 0v1.5A2.75 2.75 0 0 1 12.25 23h-8.5A2.75 2.75 0 0 1 1 20.25v-9.5A2.75 2.75 0 0 1 3.75 8zm14-7A2.75 2.75 0 0 1 23 3.75v9.5A2.75 2.75 0 0 1 20.25 16h-8.5A2.75 2.75 0 0 1 9 13.25v-9.5A2.75 2.75 0 0 1 11.75 1zm-8.5 1.5c-.69 0-1.25.56-1.25 1.25v9.5c0 .69.56 1.25 1.25 1.25h8.5c.69 0 1.25-.56 1.25-1.25v-9.5c0-.69-.56-1.25-1.25-1.25z"/></svg>