<svg xmlns="http://www.w3.org/2000/svg" width="12" height="12" fill="none" data-fui-icon="true" viewBox="0 0 12 12"><path stroke="currentColor" stroke-linecap="round" stroke-linejoin="round" stroke-width="1.5" d="M5.433 1.06C4.6 2.23 3.163 2.865 2.353 3.147c-.35.121-.603.443-.603.812v.567c0 2.828 1.377 5.797 4.062 6.683q.121.04.188.041a.7.7 0 0 0 .188-.04c2.685-.887 4.062-3.856 4.062-6.684V3.96c0-.369-.254-.69-.602-.812-.811-.282-2.249-.918-3.08-2.087A.7.7 0 0 0 6 .75a.7.7 0 0 0-.567.31"/><path stroke="currentColor" stroke-linecap="round" stroke-linejoin="round" d="m4.516 6.516 1.023.984 1.975-1.998"/></svg>