<svg xmlns="http://www.w3.org/2000/svg" width="16" height="16" fill="none" data-fui-icon="true" viewBox="0 0 16 16"><path fill="currentColor" d="M13.964 1H2.034A1.02 1.02 0 0 0 1 2.009v11.98C1 14.545 1.462 15 2.034 15h11.93c.571 0 1.036-.454 1.036-1.009V2.009C15 1.451 14.535 1 13.964 1m-8.81 11.93H3.075V6.247h2.079zm-1.04-7.593a1.204 1.204 0 1 1-.004-2.408 1.204 1.204 0 0 1 .004 2.408m8.816 7.593h-2.075V9.682c0-.774-.014-1.772-1.08-1.772-1.08 0-1.245.845-1.245 1.717v3.303H6.458V6.247h1.99v.914h.028c.276-.525.954-1.08 1.963-1.08 2.103 0 2.491 1.383 2.491 3.182z"/></svg>