<svg xmlns="http://www.w3.org/2000/svg" width="16" height="16" fill="none" data-fui-icon="true" viewBox="0 0 16 16"><path fill="currentColor" d="M8.226 1.005q.044.002.086.006.024 0 .047.002a5.7 5.7 0 0 1 1.26.224l.024.008.166.054a6 6 0 0 1 .591.23q.057.024.114.05.004 0 .009.002.009.006.018.01c1.239.587 2.267 1.529 3.058 2.452.33.386.628.778.891 1.155l.015.02a17 17 0 0 1 .697 1.089 17 17 0 0 1 .465.841c.099.192.173.341.217.435v.003l.043.104a1 1 0 0 1 .037.158l.007.044a1 1 0 0 1 .006.108l-.003.057-.003.047-.007.047a1 1 0 0 1-.08.267 15 15 0 0 1-.217.433 16 16 0 0 1-.467.845l-.1.165q-.096.16-.203.33l-.082.126q-.146.228-.31.466l-.017.02c-.263.376-.56.769-.89 1.154-.79.923-1.818 1.865-3.057 2.451q-.009.006-.018.01l-.01.005-.085.037q-.127.058-.257.11-.073.03-.148.056-.106.039-.214.075-.082.028-.166.054l-.025.008a6 6 0 0 1-1.259.224l-.046.002Q8.156 15 8 15a6 6 0 0 1-.313-.01l-.047-.003a5.6 5.6 0 0 1-1.26-.224l-.024-.008-.166-.054a6 6 0 0 1-.591-.23q-.057-.024-.114-.05-.004 0-.007-.002l-.02-.01c-1.239-.587-2.266-1.529-3.057-2.452a15 15 0 0 1-.905-1.174 17 17 0 0 1-.869-1.386 17 17 0 0 1-.51-.979l-.003-.004a1 1 0 0 1-.078-.263L.03 8.104l-.003-.047Q.024 8.027.023 8q0-.045.004-.09l.002-.018.007-.044a1 1 0 0 1 .078-.262l.045-.09q.064-.135.171-.344c.09-.173.201-.382.335-.617l.132-.228q.06-.104.129-.213.077-.13.162-.263l.099-.154.038-.059.27-.4c.267-.383.57-.782.906-1.175.791-.923 1.818-1.865 3.057-2.451l.02-.011.007-.003.114-.05a7 7 0 0 1 .384-.157q.103-.038.207-.072.083-.028.166-.054l.025-.008q.294-.087.602-.143l.033-.006a6 6 0 0 1 .624-.075l.047-.002Q7.842 1 8 1zM8 2.5a4 4 0 0 0-.624.049 4.4 4.4 0 0 0-.91.242l-.068.026a5 5 0 0 0-.236.101C5.172 3.37 4.29 4.145 3.54 5.02c-.466.543-.86 1.104-1.179 1.605q-.1.159-.191.308l-.068.115c-.188.316-.337.593-.447.806L1.583 8l.072.145c.107.208.253.478.435.787l.08.134q.073.12.152.246c.325.517.733 1.102 1.218 1.668.75.875 1.632 1.649 2.622 2.101a5 5 0 0 0 .545.212 4.4 4.4 0 0 0 .907.187l.1.008q.142.011.286.012.143 0 .285-.012l.1-.008a4.2 4.2 0 0 0 .892-.182q.138-.043.272-.096l.055-.02q.117-.049.233-.1c.99-.453 1.874-1.227 2.623-2.102a14 14 0 0 0 1.372-1.92l.078-.128c.182-.308.327-.579.434-.787L14.416 8l-.072-.146a16 16 0 0 0-.729-1.265c-.314-.492-.7-1.039-1.155-1.57-.75-.874-1.632-1.649-2.623-2.101a5 5 0 0 0-.236-.1l-.068-.027q-.12-.046-.241-.085a4.4 4.4 0 0 0-.907-.186l-.1-.01A4 4 0 0 0 8 2.5M8 4a4 4 0 1 1 0 8 4 4 0 0 1 0-8m0 1.5a2.5 2.5 0 1 0 0 5 2.5 2.5 0 0 0 0-5"/></svg>