<svg xmlns="http://www.w3.org/2000/svg" width="20" height="20" fill="none" data-fui-icon="true" viewBox="0 0 20 20"><path fill="currentColor" d="M4.674 11.125c1.047 0 2.086.757 2.086 1.907 0 .65-.324 1.132-.687 1.473-.346.326-.784.58-1.136.778l-.013.008H6.25a.75.75 0 0 1 0 1.5H3.125a.75.75 0 0 1-.75-.75c0-.64.38-1.082.723-1.364.334-.276.767-.511 1.1-.7.37-.209.652-.38.847-.564.178-.168.215-.28.215-.38 0-.075-.034-.167-.133-.253a.7.7 0 0 0-.453-.155c-.184 0-.385.074-.569.182a2 2 0 0 0-.253.178l-.005.003a.75.75 0 1 1-1.028-1.091l.001-.001.002-.001.004-.004.043-.04.108-.087c.088-.07.215-.16.372-.252.302-.177.77-.387 1.325-.387m12.201 2.083a.75.75 0 0 1 0 1.5H9.792a.75.75 0 0 1 0-1.5zM3.848 12.99h-.001v.001l-.001.001-.002.001.003-.004zm1.02-9.699a.75.75 0 0 1 1.09.668v4.167a.75.75 0 0 1-1.5 0V5.4l-.903.632a.75.75 0 0 1-.86-1.23l2.083-1.457zm12.007 2.001a.75.75 0 0 1 0 1.5H9.792a.75.75 0 0 1 0-1.5z"/></svg>