<svg xmlns="http://www.w3.org/2000/svg" width="16" height="16" fill="none" data-fui-icon="true" viewBox="0 0 16 16"><path fill="currentColor" d="M7.572 1.75a.75.75 0 0 1 0 1.5H3.166a.584.584 0 0 0-.583.583v7c0 .322.261.584.583.584h2.602c.29 0 .574.09.811.255l.099.076L8 12.857l1.346-1.114.097-.075c.236-.163.517-.25.806-.25h2.583a.584.584 0 0 0 .583-.585V8a.75.75 0 0 1 1.5 0v2.833c0 1.15-.933 2.084-2.083 2.084H10.28l-1.376 1.14a1.42 1.42 0 0 1-1.813-.006l-1.354-1.134H3.166a2.084 2.084 0 0 1-2.083-2.084v-7c0-1.15.933-2.082 2.083-2.083zM5 6.5a.833.833 0 1 1 0 1.666A.833.833 0 0 1 5 6.5m3 0a.833.833 0 1 1 0 1.666A.833.833 0 0 1 8 6.5M12.326.814a1.943 1.943 0 1 1 2.748 2.748l-2.246 2.246c-.441.441-1.02.72-1.64.789l-.209.021a1.55 1.55 0 0 1-1.71-1.711L9.29 4.7c.069-.62.348-1.2.79-1.641zm1.688 1.06a.444.444 0 0 0-.627 0L11.14 4.12c-.201.201-.327.465-.359.747l-.023.208a.05.05 0 0 0 .056.054l.207-.023c.281-.032.545-.158.746-.359l2.246-2.245a.444.444 0 0 0 0-.627"/></svg>