<svg xmlns="http://www.w3.org/2000/svg" width="16" height="16" fill="none" data-fui-icon="true" viewBox="0 0 16 16"><path fill="currentColor" d="M1.22 1.22a.75.75 0 0 1 1.06 0l12.5 12.5a.75.75 0 0 1-1.06 1.06l-2.177-2.177a.252.252 0 0 0-.423.114c-.407 1.525-2.314 2.038-3.43.922l-1.907-1.906a.3.3 0 0 0-.424 0l-2.086 2.085a.75.75 0 0 1-1.06-1.06l2.086-2.086a.3.3 0 0 0 0-.424L2.393 8.342c-1.117-1.117-.605-3.024.92-3.43a.253.253 0 0 0 .114-.424L1.22 2.28a.75.75 0 0 1 0-1.06m7.321.613c.8-.8 2.099-.8 2.9 0l2.757 2.758c.8.8.8 2.099 0 2.9l-1.562 1.56a.3.3 0 0 1-.424 0L6.98 3.819a.3.3 0 0 1 0-.425z"/></svg>