<svg xmlns="http://www.w3.org/2000/svg" width="32" height="32" fill="none" data-fui-icon="true" viewBox="0 0 32 32"><path fill="currentColor" d="M16 18.583c.199 0 .39.08.53.22l4.667 4.667a.75.75 0 0 1-1.06 1.06l-3.387-3.386V29.5a.75.75 0 0 1-1.5 0v-8.355l-3.386 3.385a.75.75 0 0 1-1.06-1.06l4.666-4.667c.14-.14.331-.22.53-.22m11-3.333a.75.75 0 0 1 0 1.5H5a.75.75 0 0 1 0-1.5zM16 1.75a.75.75 0 0 1 .75.75v8.356l3.386-3.386a.75.75 0 0 1 1.06 1.06l-4.666 4.667a.75.75 0 0 1-1.06 0L10.803 8.53a.75.75 0 0 1 1.06-1.06l3.387 3.386V2.5a.75.75 0 0 1 .75-.75"/></svg>