<svg xmlns="http://www.w3.org/2000/svg" width="20" height="20" fill="none" data-fui-icon="true" viewBox="0 0 20 20"><path fill="currentColor" d="M15.937 5.9c.805 0 1.627.6 2.063 1.2h-.007l-6.3 6.3a2.406 2.406 0 0 1-3.393 0l-.603-.603L13.393 7.1c.007-.01.21-.207.218-.216.549-.522 1.274-.983 2.326-.983m-5.705 0c.806 0 1.628.6 2.064 1.2l-5.148 5.148-2.3-2.3L7.697 7.1c.012-.015.204-.209.211-.216.549-.522 1.274-.983 2.325-.983m-5.688 0c.805 0 1.627.6 2.063 1.2L4.304 9.403 2 7.1c.001-.01.213-.21.219-.216.548-.522 1.273-.983 2.325-.983"/></svg>