<svg xmlns="http://www.w3.org/2000/svg" width="20" height="20" fill="none" data-fui-icon="true" viewBox="0 0 20 20"><path fill="currentColor" d="M5.702 2c.69 0 1.325.378 1.653.984l.984 1.817A.38.38 0 0 0 8.673 5h9.287A2.04 2.04 0 0 1 20 7.04v2.21a.75.75 0 0 1-1.5 0V7.04a.54.54 0 0 0-.54-.54H8.673a1.88 1.88 0 0 1-1.653-.984l-.984-1.817a.38.38 0 0 0-.334-.199H2.04a.54.54 0 0 0-.54.54v11.92c0 .298.242.54.54.54h9.21a.75.75 0 0 1 0 1.5H2.04A2.04 2.04 0 0 1 0 15.96V4.04A2.04 2.04 0 0 1 2.04 2zM16 10a.75.75 0 0 1 .75.75v2.5h2.5a.75.75 0 0 1 0 1.5h-2.5v2.5a.75.75 0 0 1-1.5 0v-2.5h-2.5a.75.75 0 0 1 0-1.5h2.5v-2.5A.75.75 0 0 1 16 10"/></svg>