<svg xmlns="http://www.w3.org/2000/svg" width="24" height="24" fill="none" data-fui-icon="true" viewBox="0 0 24 24"><path fill="currentColor" d="M17.5 12c-.456 0-.861.294-1.002.729l-.92 2.848-2.85.921a1.053 1.053 0 0 0 0 2.004l2.85.92.92 2.85a1.053 1.053 0 0 0 2.004 0l.92-2.85 2.85-.92a1.053 1.053 0 0 0 0-2.004l-2.85-.92-.92-2.85A1.05 1.05 0 0 0 17.5 12M8.517 1c-.626 0-1.18.403-1.374.998l-1.154 3.54a.7.7 0 0 1-.45.452l-3.54 1.153a1.445 1.445 0 0 0-.001 2.748l3.54 1.153c.214.07.381.237.451.451l1.154 3.54a1.445 1.445 0 0 0 2.748 0l1.152-3.54a.7.7 0 0 1 .452-.451l3.54-1.153a1.445 1.445 0 0 0 0-2.748l-3.54-1.153a.7.7 0 0 1-.452-.452l-1.152-3.54A1.445 1.445 0 0 0 8.517 1"/></svg>