<svg xmlns="http://www.w3.org/2000/svg" width="32" height="32" fill="none" data-fui-icon="true" viewBox="0 0 32 32"><path fill="currentColor" d="M20.8 29.65a.75.75 0 0 1 0 1.5h-9.6a.75.75 0 0 1 0-1.5zM16 .45c3.677 0 6.708 1.264 8.821 3.368 2.11 2.102 3.263 4.999 3.263 8.182 0 4.072-2.538 6.968-4.357 8.526-.99.848-1.643 1.99-1.643 3.162v.646a2.75 2.75 0 0 1-2.75 2.75h-6.667a2.75 2.75 0 0 1-2.75-2.75v-.646c0-1.173-.653-2.314-1.643-3.162C6.455 18.968 3.917 16.072 3.917 12c0-3.183 1.152-6.08 3.263-8.182C9.293 1.715 12.323.45 16 .45m0 1.5c-3.322 0-5.958 1.136-7.762 2.932C6.432 6.68 5.417 9.184 5.417 12c0 3.418 2.138 5.935 3.833 7.387 1.216 1.042 2.167 2.567 2.167 4.3v.647c0 .69.56 1.25 1.25 1.25h6.667c.69 0 1.25-.56 1.25-1.25v-.646c0-1.734.95-3.26 2.167-4.301 1.695-1.452 3.833-3.969 3.833-7.387 0-2.816-1.015-5.32-2.821-7.118C21.959 3.086 19.323 1.95 16 1.95M19.25 13a.75.75 0 0 1 0 1.5h-2.5v5.75a.75.75 0 0 1-1.5 0V14.5h-2.5a.75.75 0 0 1 0-1.5z"/></svg>