<svg xmlns="http://www.w3.org/2000/svg" width="24" height="24" fill="none" data-fui-icon="true" viewBox="0 0 24 24"><path fill="currentColor" d="M10.01 1.895c.905-1.578 3.255-1.525 4.064.158l2.332 4.854 5.369.703c1.912.25 2.697 2.612 1.28 3.947l-3.92 3.696.985 5.278c.356 1.913-1.668 3.351-3.355 2.441L12 20.403l-4.764 2.57c-1.687.909-3.71-.529-3.354-2.442l.983-5.28-3.92-3.694C-.47 10.222.315 7.861 2.226 7.61l5.368-.703 2.333-4.854zM17.58 21.7a1 1 0 0 0-.104-.048zm-5.713-2.879-.03.006zm5.71-3.771a1 1 0 0 0 0-.1z"/></svg>