<svg xmlns="http://www.w3.org/2000/svg" width="24" height="24" fill="none" data-fui-icon="true" viewBox="0 0 24 24"><path fill="currentColor" d="M7.813.5c.695 0 1.218.464 1.45.98a3 3 0 0 0 5.474 0c.232-.516.755-.98 1.45-.98h3.063a2.25 2.25 0 0 1 2.25 2.25v18.5a2.25 2.25 0 0 1-2.25 2.25h-3.064c-.694 0-1.217-.464-1.449-.98a3 3 0 0 0-5.474 0c-.232.516-.755.98-1.45.98H4.75a2.25 2.25 0 0 1-2.25-2.25V2.75A2.25 2.25 0 0 1 4.75.5zM4.75 2a.75.75 0 0 0-.75.75v18.5c0 .414.336.75.75.75h3.063c-.005 0 0 .003.017-.01a.2.2 0 0 0 .065-.085 4.5 4.5 0 0 1 8.21 0c.02.042.045.07.065.085.017.013.022.01.016.01h3.064a.75.75 0 0 0 .75-.75V2.75a.75.75 0 0 0-.75-.75h-3.064c.006 0 .001-.003-.016.01a.2.2 0 0 0-.065.085 4.5 4.5 0 0 1-8.21 0 .2.2 0 0 0-.065-.085C7.813 1.997 7.808 2 7.813 2zM15 13a2 2 0 1 1 0 4 2 2 0 0 1 0-4m.246-5.307a.75.75 0 0 1 1.06 1.06l-7.552 7.554a.75.75 0 1 1-1.06-1.06zM15 14.5a.5.5 0 1 0 0 1 .5.5 0 0 0 0-1M9 7a2 2 0 1 1 0 4 2 2 0 0 1 0-4m0 1.5a.5.5 0 1 0 0 1 .5.5 0 0 0 0-1"/></svg>