<svg xmlns="http://www.w3.org/2000/svg" width="20" height="20" fill="none" data-fui-icon="true" viewBox="0 0 20 20"><path fill="currentColor" d="M14.063 2.063a4.5 4.5 0 0 1 4.5 4.5v6.875a4.5 4.5 0 0 1-4.5 4.5H5.937a4.5 4.5 0 0 1-4.5-4.5V6.562a4.5 4.5 0 0 1 4.5-4.5zm-8.126 1.5a3 3 0 0 0-3 3v6.875a3 3 0 0 0 3 3h8.125a3 3 0 0 0 3-3V6.562a3 3 0 0 0-3-3zm3.238 2.764a1.167 1.167 0 0 1 1.561-.08l.09.08 2.517 2.518a.75.75 0 0 1-1.06 1.06L10.75 8.373v4.752a.75.75 0 0 1-1.5 0V8.373L7.718 9.905a.75.75 0 0 1-1.06-1.06z"/></svg>