<svg xmlns="http://www.w3.org/2000/svg" width="20" height="20" fill="none" data-fui-icon="true" viewBox="0 0 20 20"><path stroke="currentColor" stroke-linecap="round" stroke-linejoin="round" stroke-width="1.5" d="m2.663 15.042 6.083 3.845a2.35 2.35 0 0 0 2.508 0l6.083-3.845a1.96 1.96 0 0 0 .913-1.657v-6.77a1.96 1.96 0 0 0-.913-1.657l-6.083-3.845a2.35 2.35 0 0 0-2.508 0L2.663 4.958a1.96 1.96 0 0 0-.913 1.657v6.77c0 .672.345 1.298.913 1.657m7.33-5.259v5.684m.008-5.684 4.798-2.597M9.994 9.783 5.195 7.186"/></svg>