<svg xmlns="http://www.w3.org/2000/svg" width="12" height="12" fill="none" data-fui-icon="true" viewBox="0 0 12 12"><path fill="currentColor" d="M9.3.15a.75.75 0 0 1 1.05.15l1.5 2c.2.267.2.634 0 .9l-1.5 2a.75.75 0 0 1-1.2-.9l.6-.8H8.44a.72.72 0 0 0-.653.418L6.825 6l.962 2.082a.72.72 0 0 0 .653.418h1.31l-.6-.8a.75.75 0 0 1 1.2-.9l1.5 2c.2.267.2.634 0 .9l-1.5 2a.75.75 0 0 1-1.2-.9l.6-.8H8.44a2.22 2.22 0 0 1-2.015-1.29L5.52 6.75h-.636a2.5 2.5 0 1 1 0-1.5h.636l.904-1.96A2.22 2.22 0 0 1 8.44 2h1.31l-.6-.8A.75.75 0 0 1 9.3.15M2.5 5a1 1 0 1 0 0 2 1 1 0 0 0 0-2"/></svg>