<svg xmlns="http://www.w3.org/2000/svg" width="24" height="24" fill="none" data-fui-icon="true" viewBox="0 0 24 24"><path fill="currentColor" d="M11.611 2a2.754 2.754 0 0 1 2.722 3.174L13.892 8h4.367a3.75 3.75 0 0 1 3.707 4.315l-.837 5.5A3.75 3.75 0 0 1 17.422 21H3.75A1.75 1.75 0 0 1 2 19.25v-7.5c0-.966.784-1.75 1.75-1.75h2.67l3.634-7.052c.3-.583.903-.948 1.557-.948M3.75 11.5a.25.25 0 0 0-.25.25v7.5c0 .138.112.25.25.25H6v-8zm7.861-8a.25.25 0 0 0-.223.136L7.5 11.182V19.5h9.922a2.25 2.25 0 0 0 2.224-1.911l.837-5.5A2.25 2.25 0 0 0 18.26 9.5h-5.243a.75.75 0 0 1-.74-.865l.74.115v-.001l-.74-.114.575-3.693A1.253 1.253 0 0 0 11.61 3.5"/></svg>