<svg xmlns="http://www.w3.org/2000/svg" width="24" height="24" fill="none" data-fui-icon="true" viewBox="0 0 24 24"><path fill="currentColor" d="M11.922 2c.73 0 1.428.29 1.944.806l5.328 5.328A2.75 2.75 0 0 1 20 10.078v9.172A2.75 2.75 0 0 1 17.25 22H6.75A2.75 2.75 0 0 1 4 19.25V4.75A2.75 2.75 0 0 1 6.75 2zM6.75 3.5c-.69 0-1.25.56-1.25 1.25v14.5c0 .69.56 1.25 1.25 1.25h10.5c.69 0 1.25-.56 1.25-1.25v-9.172q0-.039-.004-.078H14.75A2.75 2.75 0 0 1 12 7.25V3.503l-.078-.003zm9.469 12.625a.75.75 0 0 1 0 1.5H7.78a.75.75 0 0 1 0-1.5zm-3.985-4.11a.75.75 0 0 1 0 1.5H7.781a.75.75 0 0 1 0-1.5zM13.5 7.25c0 .69.56 1.25 1.25 1.25h2.69L13.5 4.56z"/></svg>