<svg xmlns="http://www.w3.org/2000/svg" width="24" height="24" fill="none" data-fui-icon="true" viewBox="0 0 24 24"><path fill="currentColor" d="M12 0c1.971 0 3.495 0 4.714.1 1.228.102 2.213.31 3.093.764a7.75 7.75 0 0 1 3.329 3.33c.454.88.662 1.865.763 3.092C24 8.505 24 10.03 24 12s0 3.495-.1 4.714c-.102 1.228-.31 2.213-.764 3.093a7.75 7.75 0 0 1-3.33 3.329c-.88.454-1.864.662-3.092.763C15.495 24 13.97 24 12 24s-3.495 0-4.714-.1c-1.227-.102-2.213-.31-3.093-.764a7.75 7.75 0 0 1-3.329-3.33c-.454-.88-.662-1.864-.763-3.092C0 15.495 0 13.97 0 12s0-3.495.1-4.714C.203 6.06.41 5.073.865 4.193A7.75 7.75 0 0 1 4.194.864C5.073.41 6.058.202 7.285.101 8.505 0 10.03 0 12 0m0 1.5c-1.996 0-3.448 0-4.59.095-1.134.093-1.897.276-2.528.602a6.25 6.25 0 0 0-2.685 2.685c-.326.631-.509 1.394-.602 2.527C1.5 8.552 1.5 10.004 1.5 12s0 3.448.095 4.59c.093 1.134.276 1.897.602 2.528a6.25 6.25 0 0 0 2.685 2.685c.631.326 1.394.509 2.527.602 1.143.095 2.595.095 4.591.095s3.448 0 4.59-.095c1.134-.093 1.897-.276 2.528-.602a6.25 6.25 0 0 0 2.685-2.685c.326-.631.509-1.394.602-2.527.095-1.143.095-2.595.095-4.591s0-3.448-.095-4.59c-.093-1.134-.276-1.897-.602-2.528a6.25 6.25 0 0 0-2.685-2.685c-.631-.326-1.394-.509-2.527-.602C15.448 1.5 13.996 1.5 12 1.5M7.288 8c1.05 0 1.784.442 2.244.89a3.3 3.3 0 0 1 .609.815l.044.092.002.009.003.003v.002l.027.073a.75.75 0 0 1-1.374.58l-.03-.06-.01-.018a1.765 1.765 0 0 0-.317-.42c-.235-.23-.61-.466-1.198-.466H7.25a1.75 1.75 0 0 0-1.75 1.75v1.499c0 .966.784 1.75 1.75 1.75h.55a.95.95 0 0 0 .95-.95V13h-.833a.75.75 0 0 1 0-1.5H9c.69 0 1.25.56 1.25 1.25v.799a2.45 2.45 0 0 1-2.45 2.45h-.55A3.25 3.25 0 0 1 4 12.749V11.25A3.25 3.25 0 0 1 7.25 8zM12.5 8a.75.75 0 0 1 .75.75v6.499a.75.75 0 0 1-1.5 0V8.75A.75.75 0 0 1 12.5 8m6.747 0a.75.75 0 0 1 0 1.5H16.5v1.749h2.21a.75.75 0 0 1 0 1.5H16.5v2.5a.75.75 0 0 1-1.5 0V9.25c0-.69.56-1.25 1.25-1.25z"/></svg>