<svg xmlns="http://www.w3.org/2000/svg" width="20" height="20" fill="none" data-fui-icon="true" viewBox="0 0 20 20"><path fill="currentColor" d="M7.107.5a.75.75 0 0 1 .703.487A2.34 2.34 0 0 0 10 2.5c1.004 0 1.86-.63 2.19-1.513l.05-.104A.75.75 0 0 1 12.892.5H16a2 2 0 0 1 2 2v15a2 2 0 0 1-2 2h-3.107a.75.75 0 0 1-.703-.487A2.34 2.34 0 0 0 10 17.5c-1.004 0-1.86.63-2.19 1.513a.75.75 0 0 1-.703.487H4a2 2 0 0 1-2-2v-15a2 2 0 0 1 2-2zM4 2a.5.5 0 0 0-.5.5v15a.5.5 0 0 0 .5.5h2.629c.65-1.191 1.915-2 3.371-2s2.722.809 3.371 2H16a.5.5 0 0 0 .5-.5v-15A.5.5 0 0 0 16 2h-2.629A3.84 3.84 0 0 1 10 4a3.84 3.84 0 0 1-3.371-2zm8.625 8.5a1.875 1.875 0 1 1 0 3.75 1.875 1.875 0 0 1 0-3.75m.095-4.28a.75.75 0 1 1 1.06 1.06l-6.5 6.5a.75.75 0 1 1-1.06-1.06zM12.625 12a.375.375 0 1 0 0 .75.375.375 0 0 0 0-.75m-5.25-6.25a1.875 1.875 0 1 1 0 3.75 1.875 1.875 0 0 1 0-3.75m0 1.5a.375.375 0 1 0 0 .75.375.375 0 0 0 0-.75"/></svg>