<svg xmlns="http://www.w3.org/2000/svg" width="24" height="24" fill="none" data-fui-icon="true" viewBox="0 0 24 24"><path fill="currentColor" d="M12 .5a9 9 0 0 1 5.344 16.242c-.433.32-.694.747-.726 1.175l-.072.978a2.81 2.81 0 0 1-1.8 2.418 2.747 2.747 0 0 1-5.493 0 2.81 2.81 0 0 1-1.799-2.418l-.072-.978c-.032-.428-.293-.855-.726-1.175A9 9 0 0 1 12 .5m-1.225 21a1.25 1.25 0 0 0 2.45 0zM12 2a7.5 7.5 0 0 0-4.452 13.536c.692.512 1.258 1.304 1.33 2.27l.072.978C9.001 19.47 9.572 20 10.26 20h.117L8.821 9.863a.75.75 0 0 1 1.027-.807l.865.355.894-.55a.75.75 0 0 1 .787 0l.893.55.866-.355a.75.75 0 0 1 1.026.807L13.624 20h.117c.687 0 1.258-.53 1.309-1.216l.072-.977c.072-.967.638-1.76 1.33-2.27A7.5 7.5 0 0 0 12 2m-.825 8.889a.75.75 0 0 1-.67.058L11.894 20h.212l1.39-9.053a.75.75 0 0 1-.67-.058L12 10.38z"/></svg>