<svg xmlns="http://www.w3.org/2000/svg" width="24" height="24" fill="none" data-fui-icon="true" viewBox="0 0 24 24"><path fill="currentColor" d="M12.691 2.777a2.95 2.95 0 0 1 4.172 0l4.314 4.313a2.95 2.95 0 0 1 0 4.172l-3.7 3.701a1.65 1.65 0 0 0-.4.645l-1.346 4.04c-.693 2.08-3.334 2.704-4.884 1.153l-3.318-3.316-3.535 3.535a.75.75 0 0 1-1.06-1.06l3.535-3.536-3.317-3.316c-1.55-1.551-.927-4.192 1.154-4.885l4.04-1.346c.243-.08.464-.218.645-.4zm3.112 1.061a1.45 1.45 0 0 0-2.051 0l-3.7 3.7a3.15 3.15 0 0 1-1.232.76L4.78 9.646a1.45 1.45 0 0 0-.567 2.401l7.694 7.694a1.45 1.45 0 0 0 2.4-.567l1.348-4.04a3.15 3.15 0 0 1 .76-1.231l3.701-3.702a1.45 1.45 0 0 0 0-2.05z"/></svg>