<svg xmlns="http://www.w3.org/2000/svg" width="24" height="24" fill="none" data-fui-icon="true" viewBox="0 0 24 24"><path fill="currentColor" d="M7.704 5.121a.75.75 0 0 1 .818 1.258c-1.61 1.047-2.9 1.956-3.776 3.164a6 6 0 0 0-.775 1.436c.724-.487 1.6-.771 2.539-.771 2.462 0 4.49 1.95 4.49 4.397C11 17.05 8.972 19 6.51 19c-2.454 0-4.478-1.94-4.49-4.375-.137-2.604.429-4.47 1.512-5.963 1.06-1.461 2.578-2.504 4.172-3.54m11 0a.75.75 0 0 1 .818 1.258c-1.61 1.047-2.9 1.956-3.776 3.164a6 6 0 0 0-.775 1.436c.724-.487 1.6-.771 2.539-.771 2.462 0 4.49 1.95 4.49 4.397C22 17.05 19.971 19 17.51 19c-2.454 0-4.478-1.94-4.49-4.375-.136-2.604.429-4.47 1.513-5.963 1.06-1.461 2.577-2.504 4.171-3.54"/></svg>