<svg xmlns="http://www.w3.org/2000/svg" width="12" height="12" fill="none" data-fui-icon="true" viewBox="0 0 12 12"><path fill="currentColor" d="M8.651 1.5c1.127 0 2.041.913 2.041 2.04V5a.75.75 0 0 1-1.487.136l-2.45 1.473a2.74 2.74 0 0 1-2.817 0L1.5 5.144V8.46c0 .298.242.54.54.54H7.5a.75.75 0 0 1 0 1.5H2.04A2.04 2.04 0 0 1 0 8.46V3.54A2.04 2.04 0 0 1 2.04 1.5zM10 6.624a.25.25 0 0 1 .426-.178l1.393 1.376c.1.098.1.258 0 .356l-1.393 1.376A.25.25 0 0 1 10 9.376V8.75H8a.75.75 0 0 1 0-1.5h2zM2.04 3a.54.54 0 0 0-.521.405L4.71 5.323a1.24 1.24 0 0 0 1.271 0l3.192-1.918A.54.54 0 0 0 8.65 3z"/></svg>