<svg xmlns="http://www.w3.org/2000/svg" width="12" height="12" fill="none" data-fui-icon="true" viewBox="0 0 12 12"><g clip-path="url(#a)"><path fill="currentColor" d="M9.25 0a.75.75 0 0 1 0 1.5H8.5v3.192c0 .05.015.1.043.141l3.014 4.433c.79 1.162-.042 2.734-1.447 2.734H1.89C.58 12-.234 10.633.303 9.506l-.014.007.038-.054q.05-.098.114-.193l3.015-4.433a.25.25 0 0 0 .043-.14V1.5h-.75a.75.75 0 0 1 0-1.5zM4.462 8.14c-.377-.06-.882-.031-1.636.287l-1.144 1.682a.25.25 0 0 0 .207.391h8.221c.2 0 .32-.225.207-.39l-.975-1.435c-.728.343-1.362.482-1.953.457-.72-.031-1.283-.302-1.725-.524-.465-.232-.793-.404-1.202-.468"/></g><defs><clipPath id="a"><path fill="currentColor" d="M0 0h12v12H0z"/></clipPath></defs></svg>