<svg xmlns="http://www.w3.org/2000/svg" width="20" height="20" fill="none" data-fui-icon="true" viewBox="0 0 20 20"><path fill="currentColor" d="M11.874 1.542c.875 0 1.584.709 1.584 1.583v7.584h2.091c.998 0 1.535 1.172.884 1.928L11.2 18.715a1.584 1.584 0 0 1-2.4 0l-5.234-6.078c-.651-.756-.114-1.928.884-1.928H6.54V3.125c0-.874.71-1.583 1.583-1.583zm-3.75 1.5a.084.084 0 0 0-.083.083v8.334a.75.75 0 0 1-.75.75H5.177l4.76 5.527a.084.084 0 0 0 .126 0l4.76-5.527h-2.115a.75.75 0 0 1-.75-.75V3.125a.084.084 0 0 0-.084-.083z"/></svg>