<svg xmlns="http://www.w3.org/2000/svg" width="32" height="32" fill="none" data-fui-icon="true" viewBox="0 0 32 32"><path fill="currentColor" d="M14.42 2.35a2.084 2.084 0 0 1 3.158 0l8.374 9.726c.79.918.139 2.341-1.073 2.341h-3.796V27c0 1.15-.933 2.084-2.083 2.084h-6A2.085 2.085 0 0 1 10.916 27V14.417H7.12c-1.212 0-1.864-1.423-1.073-2.34zm2.021.98a.583.583 0 0 0-.788-.089l-.096.089-8.255 9.587h4.364a.75.75 0 0 1 .75.75V27c0 .322.262.584.584.584h6a.584.584 0 0 0 .583-.584V13.667a.75.75 0 0 1 .75-.75h4.364z"/></svg>