<svg xmlns="http://www.w3.org/2000/svg" width="16" height="16" fill="none" data-fui-icon="true" viewBox="0 0 16 16"><path fill="currentColor" d="M8 0a8 8 0 0 1 7.981 8.546c-.094 1.395-1.346 2.204-2.54 2.204h-2.856c-.587 0-1.1.4-1.242.97l-.574 2.298c-.28 1.12-1.38 2.073-2.694 1.749A8 8 0 0 1 8 0m0 1.5a6.5 6.5 0 0 0-1.565 12.81c.325.081.749-.138.878-.657l.575-2.298a2.78 2.78 0 0 1 2.697-2.105h2.855c.618 0 1.017-.392 1.045-.805A6.5 6.5 0 0 0 8 1.5M5 10a1 1 0 1 1 0 2 1 1 0 0 1 0-2m-.5-4.5a1 1 0 1 1 0 2 1 1 0 0 1 0-2m7 0a1 1 0 1 1 0 2 1 1 0 0 1 0-2M8 3a1 1 0 1 1 0 2 1 1 0 0 1 0-2"/></svg>