<svg xmlns="http://www.w3.org/2000/svg" width="12" height="12" fill="none" data-fui-icon="true" viewBox="0 0 12 12"><path fill="currentColor" d="M6 .375a.75.75 0 0 1 0 1.5H4.805c-.38 0-.73.206-.916.537l-.183.325A1.98 1.98 0 0 1 1.979 3.75a.48.48 0 0 0-.479.48v4.845c0 .58.47 1.05 1.05 1.05h6.9c.58 0 1.05-.47 1.05-1.05V6.5a.75.75 0 0 1 1.5 0v2.575a2.55 2.55 0 0 1-2.55 2.55h-6.9A2.55 2.55 0 0 1 0 9.075V4.23A1.98 1.98 0 0 1 1.98 2.25a.48.48 0 0 0 .417-.245l.183-.326A2.55 2.55 0 0 1 4.805.375zm0 3.188a2.75 2.75 0 1 1 0 5.5 2.75 2.75 0 0 1 0-5.5m0 1.5a1.25 1.25 0 1 0 0 2.5 1.25 1.25 0 0 0 0-2.5M9.75.25a.75.75 0 0 1 .75.75v.75h.75a.75.75 0 0 1 0 1.5h-.75V4A.75.75 0 0 1 9 4v-.75h-.75a.75.75 0 0 1 0-1.5H9V1a.75.75 0 0 1 .75-.75"/></svg>