<svg xmlns="http://www.w3.org/2000/svg" width="20" height="20" fill="none" data-fui-icon="true" viewBox="0 0 20 20"><path fill="currentColor" d="M17.383 2.651q.116.012.245.042c.124.03.285.082.444.176l.158.11.004.003c.363.297.445.689.473.844v.008l.003.007c.023.147.057.475.028.767l.001.001c-.225 2.361-1.191 8.028-1.679 10.626-.218 1.175-.745 2.03-1.674 2.115-.649.059-1.187-.164-1.625-.42a9 9 0 0 1-.618-.409c-.198-.14-.379-.27-.57-.396-.655-.427-1.166-.774-1.669-1.115-.503-.342-.996-.678-1.62-1.087-.403-.264-.743-.562-.934-.927-.219-.42-.2-.842-.039-1.208.139-.314.376-.574.564-.765.1-.1.208-.204.307-.298q.151-.146.292-.29c.029-.03.107-.1.22-.206q-.819.548-1.788 1.199c-.656.45-1.342.734-2.037.72-.353-.008-.808-.101-1.226-.206-.217-.054-.44-.115-.658-.178l-.622-.193c-.402-.13-.908-.272-1.26-.442a1.7 1.7 0 0 1-.588-.439A1.16 1.16 0 0 1 1.26 9.8c.056-.44.36-.735.596-.91.253-.187.579-.35.945-.495C7.095 6.529 9.966 5.297 11.404 4.7c2.044-.847 3.295-1.352 4.108-1.645.799-.29 1.252-.406 1.664-.413zm-.182 1.49c-.143.003-.394.04-1.179.324-.774.28-1.994.772-4.044 1.62q-2.136.886-8.58 3.685l-.01.004-.012.005a5 5 0 0 0-.291.126q.045.016.098.034c.222.074.366.116.643.206l.581.178c.2.059.404.115.6.164.408.102.723.158.894.161.262.006.64-.102 1.157-.457l.006-.004a636 636 0 0 1 4.57-3.052q.78-.514 1.202-.78.21-.135.342-.212.065-.04.125-.07c.007-.005.11-.063.231-.09.04-.009.174-.04.325-.04.162.002.42.041.645.244h-.001a.98.98 0 0 1 .312.592c.02.138.013.278-.013.393a.9.9 0 0 1-.103.253q-.044.072-.083.123c-.05.066-.11.138-.17.206-.125.139-.29.31-.477.497-.376.376-.868.846-1.359 1.308a245 245 0 0 1-1.852 1.725l-.149.14-.055.053-.001.002c-.114.118-.229.228-.331.327-.106.102-.197.188-.279.271-.128.13-.194.216-.23.27.05.06.16.169.394.322.635.417 1.137.759 1.639 1.1.502.34 1.004.68 1.646 1.1.223.145.435.3.618.429.19.134.353.245.508.337.301.176.513.236.717.22a.3.3 0 0 0 .057-.058c.08-.107.203-.349.294-.837v-.001c.488-2.604 1.443-8.207 1.66-10.491v-.005c.005-.047.006-.12 0-.204q-.004-.066-.012-.114l-.008-.001zm-3.436 2.876.095.425h.001l-.096-.426"/></svg>