<svg xmlns="http://www.w3.org/2000/svg" width="32" height="32" fill="none" data-fui-icon="true" viewBox="0 0 32 32"><path fill="currentColor" d="M16 2.75c7.318 0 13.25 5.932 13.25 13.25S23.318 29.25 16 29.25 2.75 23.318 2.75 16 8.682 2.75 16 2.75m0 1.5C9.51 4.25 4.25 9.51 4.25 16S9.51 27.75 16 27.75 27.75 22.49 27.75 16 22.49 4.25 16 4.25m-4.75 7.938c0-1.973 2.178-3.168 3.842-2.109l5.991 3.812c1.544.982 1.544 3.236 0 4.218l-5.991 3.812c-1.664 1.059-3.842-.136-3.842-2.108zm3.037-.843a1 1 0 0 0-1.537.842v7.626a1 1 0 0 0 1.537.842l5.99-3.811a1 1 0 0 0 0-1.688z"/></svg>