<svg xmlns="http://www.w3.org/2000/svg" width="32" height="32" fill="none" data-fui-icon="true" viewBox="0 0 32 32"><path fill="currentColor" d="M31 6.842a12.5 12.5 0 0 1-3.534.953 6.1 6.1 0 0 0 2.706-3.353c-1.19.695-2.507 1.2-3.909 1.47A6.2 6.2 0 0 0 21.771 4c-3.398 0-6.154 2.713-6.154 6.06q.002.711.158 1.379A17.57 17.57 0 0 1 3.09 5.109a6 6 0 0 0-.833 3.045c0 2.102 1.088 3.957 2.738 5.043a6.2 6.2 0 0 1-2.788-.758v.078c0 2.936 2.12 5.384 4.938 5.941a6.3 6.3 0 0 1-2.78.104c.783 2.406 3.056 4.16 5.75 4.206a12.48 12.48 0 0 1-7.645 2.595q-.746-.001-1.469-.085A17.6 17.6 0 0 0 10.434 28c11.323 0 17.513-9.231 17.513-17.237q0-.392-.019-.783a12.4 12.4 0 0 0 3.07-3.134z"/></svg>