<svg xmlns="http://www.w3.org/2000/svg" width="32" height="32" fill="none" data-fui-icon="true" viewBox="0 0 32 32"><path fill="currentColor" d="M15.876 2.25c7.43 0 11.173 4.994 12.374 9.08V5.75a.75.75 0 0 1 1.5 0v6c0 1.236-.994 2.25-2.235 2.25H21.57a.75.75 0 0 1 0-1.5h5.431c-.794-3.718-4.077-8.75-11.126-8.75C8.411 3.75 3.75 9.369 3.75 16s4.66 12.25 12.126 12.25c5.116 0 9.234-3.016 11.062-6.824a.75.75 0 1 1 1.351.648c-2.063 4.3-6.688 7.676-12.413 7.676C7.494 29.75 2.25 23.369 2.25 16S7.494 2.25 15.876 2.25"/></svg>