<svg xmlns="http://www.w3.org/2000/svg" width="12" height="12" fill="none" data-fui-icon="true" viewBox="0 0 12 12"><path fill="currentColor" d="M4.432 1.603C5.122.4 6.879.4 7.568 1.603l.066.124.692 1.445 1.598.21c1.507.197 2.122 2.059 1.008 3.111L9.769 7.591l.291 1.567c.28 1.507-1.311 2.642-2.641 1.924L6 10.315l-1.419.767c-1.33.718-2.922-.417-2.642-1.924l.291-1.567-1.162-1.098C-.046 5.441.57 3.579 2.076 3.382l1.597-.21.693-1.445zm1.85.774a.312.312 0 0 0-.563 0L4.747 4.4v.001a.31.31 0 0 1-.24.174l-1.86.243-.376.05a.31.31 0 0 0-.173.533l1.634 1.543a.31.31 0 0 1 .092.282l-.41 2.205a.31.31 0 0 0 .454.33l1.984-1.07a.31.31 0 0 1 .296 0l1.984 1.07a.312.312 0 0 0 .458-.237l-.004-.093-.071-.38.33-.61-.006-.003.005.003-.33.609-.338-1.824a.31.31 0 0 1 .092-.282l1.356-1.281.278-.262a.31.31 0 0 0-.173-.533l-.376-.05-1.86-.243a.31.31 0 0 1-.24-.174z"/></svg>