<svg xmlns="http://www.w3.org/2000/svg" width="32" height="32" fill="none" data-fui-icon="true" viewBox="0 0 32 32"><path fill="currentColor" d="M16.75 11.5a.75.75 0 0 0 0 1.5h5.5a.75.75 0 0 0 0-1.5zM16 18.25a.75.75 0 0 1 .75-.75h5.5a.75.75 0 0 1 0 1.5h-5.5a.75.75 0 0 1-.75-.75m.75 5.25a.75.75 0 0 0 0 1.5h5.5a.75.75 0 0 0 0-1.5zm-2.998-13.307a.75.75 0 0 1 .055 1.059l-2.25 2.5a.75.75 0 0 1-1.133-.022l-1.25-1.5a.75.75 0 1 1 1.152-.96l.696.835 1.67-1.857a.75.75 0 0 1 1.06-.055m.055 7.059a.75.75 0 1 0-1.114-1.004l-1.671 1.857-.696-.835a.75.75 0 0 0-1.152.96l1.25 1.5a.75.75 0 0 0 1.133.022zm-.055 4.94a.75.75 0 0 1 .055 1.06l-2.25 2.5a.75.75 0 0 1-1.133-.022l-1.25-1.5a.75.75 0 1 1 1.152-.96l.696.835 1.67-1.857a.75.75 0 0 1 1.06-.056"/><path fill="currentColor" fill-rule="evenodd" d="M14.955.5c-.74 0-1.4.465-1.648 1.161l-.3.839h-1.756c-.88 0-1.612.651-1.733 1.5H7.75A3.25 3.25 0 0 0 4.5 7.25v20.5A3.25 3.25 0 0 0 7.75 31h16.5a3.25 3.25 0 0 0 3.25-3.25V7.25A3.25 3.25 0 0 0 24.25 4h-1.768a1.75 1.75 0 0 0-1.733-1.5h-1.756l-.3-.839A1.75 1.75 0 0 0 17.045.5zm-.236 1.666A.25.25 0 0 1 14.955 2h2.09c.106 0 .2.066.236.166l.477 1.336a.75.75 0 0 0 .706.498h2.285c.139 0 .251.113.251.25v1.5a.25.25 0 0 1-.25.25h-9.5a.25.25 0 0 1-.25-.25v-1.5c0-.137.112-.25.251-.25h2.285c.317 0 .6-.2.706-.498zM26 7.25a1.75 1.75 0 0 0-1.75-1.75H22.5v.25a1.75 1.75 0 0 1-1.75 1.75h-9.5A1.75 1.75 0 0 1 9.5 5.75V5.5H7.75A1.75 1.75 0 0 0 6 7.25v20.5c0 .966.784 1.75 1.75 1.75h16.5A1.75 1.75 0 0 0 26 27.75z" clip-rule="evenodd"/></svg>