<svg xmlns="http://www.w3.org/2000/svg" width="24" height="24" fill="none" data-fui-icon="true" viewBox="0 0 24 24"><g clip-path="url(#a)"><path fill="currentColor" d="M12 0c6.42 0 12 5.58 12 12s-5.58 12-12 12S0 18.42 0 12 5.58 0 12 0m0 15.25c-1.706 0-2.906.646-3.676 1.306a5.3 5.3 0 0 0-.835.903 4 4 0 0 0-.26.407l-.016.03-.005.011-.003.006v.001l.565.283-.566-.282a.75.75 0 0 0 1.304.737l.035-.061.001-.001v-.005l.003-.002.026-.046q.04-.068.133-.2c.125-.171.32-.407.595-.643.542-.464 1.405-.944 2.699-.944s2.157.48 2.7.944a3.7 3.7 0 0 1 .727.843l.026.046.001.002.002.005h.001l.035.062a.75.75 0 0 0 1.304-.737l-.566.282c.566-.282.565-.284.565-.284l-.003-.006-.005-.01-.017-.03-.055-.098a4 4 0 0 0-.204-.31 5.3 5.3 0 0 0-.835-.903c-.77-.66-1.97-1.306-3.676-1.306M7.2 10.3a1.2 1.2 0 1 0 0 2.4 1.2 1.2 0 0 0 0-2.4m9.6 0a1.2 1.2 0 1 0 0 2.4 1.2 1.2 0 0 0 0-2.4"/></g><defs><clipPath id="a"><path fill="currentColor" d="M0 0h24v24H0z"/></clipPath></defs></svg>