<svg xmlns="http://www.w3.org/2000/svg" width="16" height="16" fill="none" data-fui-icon="true" viewBox="0 0 16 16"><path fill="currentColor" d="M7.453.914c.328-.11.738-.11 1.067 0l5.468 2.078A1.54 1.54 0 0 1 15 4.442v6.644c0 .656-.41 1.203-1.012 1.45L8.52 14.612c-.329.11-.739.11-1.067 0l-5.469-2.078A1.54 1.54 0 0 1 1 11.085V4.442c0-.656.383-1.23.984-1.449zm.602 1.23h-.137l-5.195 1.97L8 6.19l5.25-2.078zm-5.606 9.16 4.895 1.86V7.34L2.313 5.37v5.715c0 .11.054.191.136.219m6.207 1.86 4.867-1.86a.24.24 0 0 0 .165-.218V5.37L8.656 7.34z"/></svg>