<svg xmlns="http://www.w3.org/2000/svg" width="20" height="20" fill="none" data-fui-icon="true" viewBox="0 0 20 20"><path fill="currentColor" d="M14.582 3.208a2.21 2.21 0 0 1 2.209 2.208l-.001.01a2.42 2.42 0 0 1 1.626 2.282v6.667a2.417 2.417 0 0 1-2.417 2.416H3.916a2.417 2.417 0 0 1-2.417-2.416V5c0-.99.803-1.792 1.792-1.792zM2.999 14.375c0 .506.411.916.917.916h12.083c.506 0 .917-.41.917-.916V7.708a.917.917 0 0 0-.917-.917H3.291q-.15-.001-.292-.026zm10.75-4.709a1.375 1.375 0 1 1-.001 2.751 1.375 1.375 0 0 1 .001-2.751m0 1.25a.126.126 0 0 0-.125.125.125.125 0 1 0 .125-.125M3.291 4.708a.292.292 0 1 0 0 .583h11.987a.71.71 0 0 0-.696-.583z"/></svg>