<svg xmlns="http://www.w3.org/2000/svg" width="32" height="32" fill="none" data-fui-icon="true" viewBox="0 0 32 32"><path fill="currentColor" d="M24.727 5.359a6.204 6.204 0 0 1 6.204 6.204v8.728c0 1.694-.68 3.23-1.781 4.35a4.44 4.44 0 0 1-3.867 2.246h-8.465a.82.82 0 0 1-.65-.323H7.272A6.274 6.274 0 0 1 1 20.292v-1.377a1 1 0 0 1 .012-.126l.002-.015a1 1 0 0 1 .035-.128l.003-.007.016-.039v-7.037A6.205 6.205 0 0 1 7.272 5.36zm-17.455 1.5a4.705 4.705 0 0 0-4.704 4.704v5.27l3.064-3.49a4.4 4.4 0 0 1 2.428-1.414q.44-.09.898-.093l.228.006a4.42 4.42 0 0 1 2.995 1.39l4.451 4.735 1.697-2.103a4.09 4.09 0 0 1 3.18-1.523h.002a4.1 4.1 0 0 1 3.017 1.33l4.853 5.306a5 5 0 0 0 .05-.686v-8.728a4.704 4.704 0 0 0-4.704-4.704z"/></svg>