<svg xmlns="http://www.w3.org/2000/svg" width="12" height="12" fill="none" data-fui-icon="true" viewBox="0 0 12 12"><path fill="currentColor" d="M9.125 10.875a1.75 1.75 0 0 0 1.75-1.75v-6.25a1.75 1.75 0 0 0-1.75-1.75h-6.25a1.75 1.75 0 0 0-1.75 1.75v6.25c0 .966.783 1.75 1.75 1.75zm-6.25-1.5a.25.25 0 0 1-.25-.25v-6.25a.25.25 0 0 1 .25-.25h6.25a.25.25 0 0 1 .25.25v6.25a.25.25 0 0 1-.25.25zm1.72-1.345a.75.75 0 1 0 1.06-1.06L4.685 6l.97-.97a.75.75 0 1 0-1.06-1.06L3.448 5.116a1.25 1.25 0 0 0 0 1.768zm1.75 0a.75.75 0 0 0 1.06 0l1.147-1.146a1.25 1.25 0 0 0 0-1.768L7.405 3.97a.75.75 0 1 0-1.06 1.06l.97.97-.97.97a.75.75 0 0 0 0 1.06"/></svg>