<svg xmlns="http://www.w3.org/2000/svg" width="32" height="32" fill="none" data-fui-icon="true" viewBox="0 0 32 32"><path fill="currentColor" d="M26.18 2a4.32 4.32 0 0 1 4.32 4.32v19.36A4.32 4.32 0 0 1 26.18 30H6.82a4.32 4.32 0 0 1-4.32-4.32V6.32A4.32 4.32 0 0 1 6.82 2zM6.82 3.5A2.82 2.82 0 0 0 4 6.32v19.36a2.82 2.82 0 0 0 2.82 2.82h19.36A2.82 2.82 0 0 0 29 25.68V6.32a2.82 2.82 0 0 0-2.82-2.82zm2.24 16.56a2 2 0 1 1 0 4 2 2 0 0 1 0-4m10.19 1.25a.75.75 0 0 1 0 1.5h-5.5a.75.75 0 0 1 0-1.5zm-10.19.25a.5.5 0 1 0 0 1 .5.5 0 0 0 0-1m0-7.5a2 2 0 1 1 0 4 2 2 0 0 1 0-4m13.19 1.25a.75.75 0 0 1 0 1.5h-8.5a.75.75 0 0 1 0-1.5zm-13.19.25a.5.5 0 1 0 0 1 .5.5 0 0 0 0-1m0-7.5a2 2 0 1 1 0 4 2 2 0 0 1 0-4m16.19 1.25a.75.75 0 0 1 0 1.5h-11.5a.75.75 0 0 1 0-1.5zm-16.19.25a.5.5 0 1 0 0 1 .5.5 0 0 0 0-1"/></svg>