<svg xmlns="http://www.w3.org/2000/svg" width="12" height="12" fill="none" data-fui-icon="true" viewBox="0 0 12 12"><path fill="currentColor" d="M4 1.125a2.373 2.373 0 0 1 .84 4.594 3.4 3.4 0 0 1 1.797 1.074c.636.71 1.011 1.663 1.168 2.683.121.782-.51 1.399-1.218 1.399H1.413c-.707 0-1.34-.617-1.219-1.4.157-1.019.533-1.971 1.168-2.682A3.4 3.4 0 0 1 3.16 5.719a2.374 2.374 0 0 1 .84-4.594m4.5.5a2.125 2.125 0 0 1 .797 4.093c.616.148 1.143.47 1.561.92.575.618.916 1.446 1.067 2.327.134.794-.51 1.41-1.214 1.41H8.875a.75.75 0 0 1 0-1.5h1.497c-.132-.516-.345-.929-.612-1.217-.31-.333-.718-.533-1.26-.533q-.25.001-.452.052a.75.75 0 0 1-.356-1.457l.008-.002a2.125 2.125 0 0 1 .8-4.093M4 7.125c-.65 0-1.145.248-1.52.667-.336.376-.595.916-.741 1.583h4.522c-.147-.667-.405-1.207-.742-1.583-.375-.42-.869-.667-1.52-.667m0-4.5a.875.875 0 1 0 0 1.75.875.875 0 0 0 0-1.75m4.5.5a.625.625 0 1 0 0 1.25.625.625 0 0 0 0-1.25"/></svg>