<svg xmlns="http://www.w3.org/2000/svg" width="16" height="16" fill="none" data-fui-icon="true" viewBox="0 0 16 16"><path fill="currentColor" d="M6.167 3.083a.75.75 0 0 1 0 1.5H4.583c-.361 0-.59 0-.764.014a.7.7 0 0 0-.235.043.58.58 0 0 0-.278.277.7.7 0 0 0-.042.236c-.014.174-.014.403-.014.764v5.45c0 .385 0 .63.016.815.014.175.038.23.047.25a.6.6 0 0 0 .177.207l.078.048.067.022c.038.009.096.018.183.025.185.015.43.016.816.016h5.4c.385 0 .629 0 .814-.016.174-.014.23-.037.25-.047.11-.056.2-.146.255-.255.01-.02.034-.075.048-.25.015-.185.016-.43.016-.816V9.333a.75.75 0 0 1 1.5 0v2.033c0 .361 0 .678-.02.938a2.1 2.1 0 0 1-.207.808c-.2.392-.519.71-.91.91-.267.136-.542.185-.81.207-.26.022-.576.021-.937.021h-5.4c-.36 0-.677 0-.937-.02a2.1 2.1 0 0 1-.808-.207c-.392-.2-.71-.519-.91-.91a2.1 2.1 0 0 1-.207-.81c-.022-.26-.021-.576-.021-.937V5.917c0-.338 0-.635.019-.879.019-.252.062-.51.181-.762.206-.435.557-.787.992-.993.253-.12.511-.162.763-.181.244-.02.54-.019.878-.019zM13.5 1.75a.75.75 0 0 1 .75.75v4.333a.75.75 0 0 1-1.5 0V4.311L7.863 9.197a.75.75 0 0 1-1.06-1.06L11.69 3.25H9.167a.75.75 0 0 1 0-1.5z"/></svg>