<svg xmlns="http://www.w3.org/2000/svg" width="32" height="32" fill="none" data-fui-icon="true" viewBox="0 0 32 32"><path fill="currentColor" d="M28.58 4.435c.214-.003.689.05 1 .3.257.21.33.495.366.695.032.2.076.656.04 1.011-.386 4.064-2.066 13.926-2.92 18.478-.36 1.926-1.072 2.572-1.761 2.634-1.499.138-2.635-.986-4.085-1.933-2.268-1.483-3.55-2.406-5.753-3.853-2.546-1.672-.895-2.59.556-4.092.378-.393 6.974-6.372 7.102-6.917.016-.068.033-.321-.12-.454-.15-.134-.371-.09-.532-.053-.23.051-3.852 2.44-10.878 7.166q-1.54 1.056-2.796 1.03c-.919-.02-2.69-.52-4.008-.946-1.611-.523-2.897-.8-2.784-1.689q.085-.694 1.918-1.42Q15.202 9.496 18.96 7.936c7.162-2.968 8.65-3.483 9.62-3.5"/></svg>