<svg xmlns="http://www.w3.org/2000/svg" width="25" height="24" fill="none" data-fui-icon="true" viewBox="0 0 25 24"><path stroke="currentColor" stroke-width="1.5" d="M5.358 13.844c-.178.078-.813.148-1.233.148-.187 0-.364-.007-.54-.025-.141-.015-.257.12-.204.251a4.62 4.62 0 0 0 4.204 2.858 9.36 9.36 0 0 1-6.014 1.942c-.2-.006-.287.262-.112.358A13.2 13.2 0 0 0 7.825 21c8.493 0 13.135-6.923 13.135-12.928q0-.294-.014-.587a9.3 9.3 0 0 0 2.302-2.35q0-.003-.001-.002c-.722.314-1.49.54-2.295.665-.08.012-.12-.098-.053-.144A4.6 4.6 0 0 0 22.45 3.79c.071-.157-.1-.3-.254-.221-.775.4-1.615.694-2.5.865A4.65 4.65 0 0 0 16.329 3c-2.548 0-4.615 2.035-4.615 4.545q.001.533.119 1.034a13.18 13.18 0 0 1-9.343-4.544c-.085-.098-.242-.086-.301.03a4.5 4.5 0 0 0-.496 2.05c0 1.577.816 2.969 2.054 3.783a4.66 4.66 0 0 1-2.04-.54.035.035 0 0 0-.051.03c0 2.184 1.565 4.01 3.653 4.445m.05.01-.05-.01m.05.01-.05-.01"/></svg>