<svg xmlns="http://www.w3.org/2000/svg" width="24" height="24" fill="none" data-fui-icon="true" viewBox="0 0 24 24"><path fill="currentColor" d="M20.14 2.5A3.86 3.86 0 0 1 24 6.36v11.28a3.86 3.86 0 0 1-3.86 3.86H3.86A3.86 3.86 0 0 1 0 17.64V6.36A3.86 3.86 0 0 1 3.86 2.5zm-5.255 11.638a5.26 5.26 0 0 1-5.77 0l-7.615-5v8.502A2.36 2.36 0 0 0 3.86 20h16.28a2.36 2.36 0 0 0 2.36-2.36V9.139zM3.86 4A2.36 2.36 0 0 0 1.5 6.36v.985l8.438 5.539a3.76 3.76 0 0 0 4.124 0l8.438-5.54V6.36A2.36 2.36 0 0 0 20.14 4z"/></svg>