<svg xmlns="http://www.w3.org/2000/svg" width="12" height="12" fill="none" data-fui-icon="true" viewBox="0 0 12 12"><path fill="currentColor" d="M1.687 5.426a449 449 0 0 1 5.37-2.306c2.558-1.06 3.09-1.244 3.436-1.25a.6.6 0 0 1 .357.106.4.4 0 0 1 .13.249c.012.071.028.234.015.361-.138 1.452-.738 4.974-1.043 6.6-.128.687-.383.918-.629.94-.535.05-.94-.352-1.459-.69-.81-.53-1.267-.86-2.054-1.376-.91-.597-.32-.926.198-1.462.135-.14 2.492-2.277 2.537-2.47.006-.025.011-.115-.043-.163-.054-.047-.133-.031-.19-.018q-.122.027-3.885 2.559-.55.377-.999.368c-.328-.007-.96-.186-1.431-.338-.576-.187-1.035-.286-.995-.603q.031-.247.685-.507"/></svg>