<svg xmlns="http://www.w3.org/2000/svg" width="20" height="20" fill="none" data-fui-icon="true" viewBox="0 0 20 20"><path fill="currentColor" d="M7.15 2.84c.781-.78 2.048-.78 2.83 0l1.291 1.293a3.2 3.2 0 0 1 .74-1.145 1.17 1.17 0 0 1 1.651 0l3.094 3.094a7 7 0 0 1-9.9 9.899l-3.83-3.83a2 2 0 0 1 .417-3.147 2 2 0 0 1 .831-3.066A1.998 1.998 0 0 1 6.712 3.5c.098-.24.244-.465.438-.66M2.35 13.5a.75.75 0 0 1 .86.618c.038.228.227.64.568 1.051.338.407.726.695 1.06.794a.75.75 0 0 1-.426 1.438c-.724-.215-1.346-.741-1.788-1.273-.439-.53-.799-1.183-.895-1.768a.75.75 0 0 1 .62-.86M8.919 3.9a.5.5 0 0 0-.707.707l2.946 2.946a.75.75 0 0 1-1.06 1.06L6.562 5.08a.5.5 0 0 0-.708.707l3.537 3.535a.751.751 0 0 1-1.062 1.061L5.383 7.436a.5.5 0 0 0-.707.707l3.536 3.536a.75.75 0 0 1-1.062 1.06l-2.356-2.356a.5.5 0 1 0-.707.707l3.83 3.83a5.5 5.5 0 0 0 7.778-7.778L12.862 4.31a1.746 1.746 0 0 0 .211 2.215l.77.77c.25.25.345.611.258.946l-.048.14a2.33 2.33 0 0 0 .494 2.563.75.75 0 0 1-1.062 1.06 3.83 3.83 0 0 1-.934-3.88l-.54-.539a3.24 3.24 0 0 1-.83-1.421zm5.593-2.74c1.425.154 2.617 1.144 3.01 2.377a.75.75 0 0 1-1.428.455c-.206-.646-.885-1.247-1.742-1.34a.75.75 0 0 1 .16-1.491"/></svg>