<svg xmlns="http://www.w3.org/2000/svg" width="32" height="32" fill="none" data-fui-icon="true" viewBox="0 0 32 32"><path fill="currentColor" d="M16.05 3.93a.75.75 0 0 1 .567.407l4.108 8.216h5.578a3.448 3.448 0 0 1 0 6.893h-5.578l-4.108 8.217-.054.09a.75.75 0 0 1-.617.324H12.71a.75.75 0 0 1-.728-.932l1.925-7.699H9.245l-3.018 3.018a.75.75 0 0 1-.53.22H3a.75.75 0 0 1-.705-1.007l2.064-5.678-2.064-5.677-.026-.087A.75.75 0 0 1 3 9.316h2.698l.147.015c.144.029.278.1.383.205l3.017 3.017h4.663l-1.925-7.7a.75.75 0 0 1 .728-.931h3.236zm-.455 9.191a.75.75 0 0 1-.728.932H8.933a.75.75 0 0 1-.53-.22l-3.016-3.017H4.07l1.791 4.927c.06.166.06.347 0 .513L4.07 21.184h1.317l3.016-3.018.114-.093a.75.75 0 0 1 .416-.127h5.934a.75.75 0 0 1 .728.933l-1.924 7.698h1.811l4.109-8.216a.75.75 0 0 1 .67-.415h6.042a1.947 1.947 0 1 0 0-3.893h-6.041a.75.75 0 0 1-.671-.415l.67-.335v-.001l-.67.336-4.108-8.216H13.67z"/></svg>