<svg xmlns="http://www.w3.org/2000/svg" width="17" height="16" fill="none" data-fui-icon="true" viewBox="0 0 17 16"><path fill="currentColor" d="M6.28 1.48c.767-1.306 2.689-1.306 3.457 0l.073.134 1.34 2.715 3.107.397c1.616.206 2.41 2.24 1.107 3.435l-2.24 2.054.56 2.922c.335 1.749-1.522 2.857-2.908 2.13v.002l-2.768-1.453L5.24 15.27c-1.385.726-3.243-.383-2.908-2.132l.56-2.922L.652 8.16C-.65 6.965.143 4.931 1.76 4.726l3.106-.397 1.341-2.715zm7.787 4.734a.5.5 0 0 1 .107.026q-.015-.006-.03-.01zl-3.634-.463zM8.24 2.054a.5.5 0 0 1 .224.224h.001a.5.5 0 0 0-.194-.209zm-.003-.001"/></svg>