<svg xmlns="http://www.w3.org/2000/svg" width="12" height="12" fill="none" data-fui-icon="true" viewBox="0 0 12 12"><path fill="currentColor" d="M4.446.625c.726 0 1.412.356 1.887.592.563.278.915.435 1.22.435.368 0 .762-.085 1.1-.19l.145-.036c.737-.136 1.577.38 1.577 1.267v4.538c0 .47-.27.936-.756 1.13-.407.164-1.22.445-2.065.445-.726 0-1.412-.357-1.887-.592-.563-.279-.915-.437-1.22-.437-.404 0-.836.104-1.188.22l-.134.047v2.581a.75.75 0 0 1-1.5 0V2.199c0-.47.27-.936.756-1.13L2.756.93c.44-.148 1.056-.306 1.69-.306"/></svg>