<svg xmlns="http://www.w3.org/2000/svg" width="24" height="24" fill="none" data-fui-icon="true" viewBox="0 0 24 24"><path fill="currentColor" d="M11.219 2.734a2.53 2.53 0 0 1 1.523 0l7.813 2.97A2.2 2.2 0 0 1 22 7.773v9.492c0 .937-.586 1.718-1.445 2.07l-7.813 2.969a2.54 2.54 0 0 1-1.523 0l-7.813-2.97C2.546 18.986 2 18.204 2 17.266V7.774c0-.937.547-1.757 1.406-2.07zm.86 1.758h-.196L4.46 7.305 12 10.273l7.5-2.968zM4.07 17.578l6.993 2.656v-8.32L3.875 9.102v8.164c0 .156.078.273.195.312m8.868 2.656 6.953-2.656a.34.34 0 0 0 .234-.312V9.102l-7.187 2.812z"/></svg>