<svg xmlns="http://www.w3.org/2000/svg" width="16" height="16" fill="none" data-fui-icon="true" viewBox="0 0 16 16"><path fill="currentColor" d="M9.95 1A2.05 2.05 0 0 1 12 3.05v3.03a.8.8 0 0 0 .11.41l1.41 2.433c.79 1.366-.196 3.077-1.774 3.077H8.75v2.25a.75.75 0 0 1-1.5 0V12H4.255c-1.579 0-2.565-1.71-1.774-3.077l1.41-2.434A.8.8 0 0 0 4 6.08V3.05A2.05 2.05 0 0 1 6.05 1zm-3.9 1.5a.55.55 0 0 0-.55.55v3.03c0 .407-.108.807-.312 1.16l-1.41 2.435a.55.55 0 0 0 .477.825h7.49a.55.55 0 0 0 .477-.825L10.813 7.24a2.3 2.3 0 0 1-.312-1.16V3.05a.55.55 0 0 0-.55-.55z"/></svg>