<svg xmlns="http://www.w3.org/2000/svg" width="20" height="20" fill="none" data-fui-icon="true" viewBox="0 0 20 20"><path fill="currentColor" d="M5.408 4.167c2.046 0 3.732 1.616 3.741 3.646.115 2.17-.356 3.724-1.26 4.968C7.007 14 5.743 14.87 4.414 15.732a.625.625 0 0 1-.682-1.047c1.343-.873 2.417-1.632 3.147-2.638.257-.355.477-.747.646-1.196a3.8 3.8 0 0 1-2.116.642c-2.051 0-3.74-1.625-3.741-3.663s1.69-3.663 3.741-3.663m9.167 0c2.046 0 3.732 1.616 3.741 3.646.115 2.17-.356 3.724-1.26 4.968-.883 1.218-2.147 2.088-3.476 2.951a.626.626 0 0 1-.682-1.047c1.343-.873 2.417-1.632 3.147-2.638.257-.355.477-.748.646-1.196a3.8 3.8 0 0 1-2.116.642c-2.051 0-3.742-1.625-3.742-3.663s1.69-3.663 3.742-3.663"/></svg>