<svg xmlns="http://www.w3.org/2000/svg" width="32" height="32" fill="none" data-fui-icon="true" viewBox="0 0 32 32"><path fill="currentColor" d="M25.135 3.56a.75.75 0 0 1 1.449.39l-1.622 6.052h5.028a.75.75 0 0 1 0 1.5h-5.43l-2.626 9.803h5.365a.75.75 0 0 1 0 1.5H21.53L19.95 28.71a.75.75 0 0 1-1.449-.389l1.477-5.516H8.613L7.031 28.71a.751.751 0 0 1-1.449-.389l1.478-5.516H2a.75.75 0 1 1 0-1.5h5.462l2.627-9.803H4.69a.75.75 0 0 1 0-1.5h5.8l1.726-6.442a.75.75 0 0 1 1.449.39l-1.622 6.052h11.365zM9.015 21.306H20.38l2.627-9.804H11.643z"/></svg>