<svg xmlns="http://www.w3.org/2000/svg" width="24" height="24" fill="none" data-fui-icon="true" viewBox="0 0 24 24"><path fill="currentColor" d="M14.148 1.25a4.35 4.35 0 0 1 3.54 1.821l.534.75c.417.583 1.09.929 1.807.929a3.72 3.72 0 0 1 3.721 3.72v9.93a4.35 4.35 0 0 1-4.35 4.35H4.6A4.35 4.35 0 0 1 .25 18.4V8.47a3.72 3.72 0 0 1 3.72-3.72c.718 0 1.391-.346 1.808-.93l.535-.749a4.35 4.35 0 0 1 3.54-1.821zM12 7.5A5.25 5.25 0 1 0 12 18a5.25 5.25 0 0 0 0-10.5M12 9a3.75 3.75 0 1 1 0 7.5A3.75 3.75 0 0 1 12 9"/></svg>