<svg xmlns="http://www.w3.org/2000/svg" width="32" height="32" fill="none" data-fui-icon="true" viewBox="0 0 32 32"><path fill="currentColor" d="M11.856 2.917c1.585 0 3.136.785 4.476 1.448 1.427.707 2.646 1.293 3.81 1.293 1.155 0 2.339-.266 3.301-.565 1.357-.423 2.973.526 2.973 2.09v12.1c0 .787-.45 1.542-1.23 1.855-1.04.416-3.028 1.093-5.043 1.093-1.585 0-3.136-.784-4.476-1.448-1.428-.707-2.645-1.292-3.81-1.292-1.262 0-2.558.317-3.558.648-.495.163-.909.327-1.196.449l-.02.008v7.738a.75.75 0 0 1-1.5 0V5.866c0-.787.45-1.543 1.23-1.855 1.04-.417 3.028-1.094 5.043-1.094m0 1.5c-1.726 0-3.502.592-4.486.986a.48.48 0 0 0-.287.463V18.98q.334-.129.745-.265c1.074-.355 2.541-.723 4.028-.723 1.585 0 3.136.785 4.476 1.448 1.427.707 2.646 1.292 3.81 1.292 1.727 0 3.503-.59 4.487-.985l.058-.03a.49.49 0 0 0 .229-.433v-12.1c0-.411-.496-.823-1.026-.658-1.039.324-2.384.633-3.747.633-1.585 0-3.136-.785-4.476-1.448-1.428-.707-2.645-1.293-3.81-1.293"/></svg>