<svg xmlns="http://www.w3.org/2000/svg" width="16" height="16" fill="none" data-fui-icon="true" viewBox="0 0 16 16"><path fill="currentColor" d="M6.972.25a.75.75 0 0 1 0 1.5h-2A3.25 3.25 0 0 0 1.722 5v6a3.25 3.25 0 0 0 3.25 3.25h6a3.25 3.25 0 0 0 3.25-3.25V9a.75.75 0 0 1 1.5 0v2a4.75 4.75 0 0 1-4.75 4.75h-6A4.75 4.75 0 0 1 .222 11V5A4.75 4.75 0 0 1 4.972.25zm4.255.634a2.75 2.75 0 1 1 3.89 3.89l-4.101 4.1a2.75 2.75 0 0 1-1.641.788l-1.491.165a1.55 1.55 0 0 1-1.711-1.711l.165-1.49c.069-.62.348-1.2.789-1.641zm-3.04 5.162c-.2.2-.326.463-.358.745l-.166 1.49a.05.05 0 0 0 .056.057l1.491-.166a1.25 1.25 0 0 0 .745-.359L12.44 5.33 10.672 3.56zm5.869-4.101a1.25 1.25 0 0 0-1.768 0l-.556.555L13.5 4.268l.556-.555a1.25 1.25 0 0 0 0-1.768"/></svg>