<svg xmlns="http://www.w3.org/2000/svg" width="32" height="32" fill="none" data-fui-icon="true" viewBox="0 0 32 32"><path fill="currentColor" d="M8.93 4a2.5 2.5 0 0 1 2.09 1.128l1.588 2.42a1 1 0 0 0 .836.452H28.25A2.75 2.75 0 0 1 31 10.75v6.5a.75.75 0 0 1-1.5 0v-6.5c0-.69-.56-1.25-1.25-1.25H13.444a2.5 2.5 0 0 1-2.09-1.128l-1.587-2.42A1 1 0 0 0 8.93 5.5H3.75c-.69 0-1.25.56-1.25 1.25v18.5c0 .69.56 1.25 1.25 1.25h16.5a.75.75 0 0 1 0 1.5H3.75A2.75 2.75 0 0 1 1 25.25V6.75A2.75 2.75 0 0 1 3.75 4zM26 18a.75.75 0 0 1 .75.75v3.5h3.5a.75.75 0 0 1 0 1.5h-3.5v3.5a.75.75 0 0 1-1.5 0v-3.5h-3.5a.75.75 0 0 1 0-1.5h3.5v-3.5A.75.75 0 0 1 26 18"/></svg>