<svg xmlns="http://www.w3.org/2000/svg" width="21" height="20" fill="none" data-fui-icon="true" viewBox="0 0 21 20"><path stroke="currentColor" stroke-width="1.3" d="M4.465 11.536c-.149.065-.677.124-1.027.124q-.232 0-.45-.021c-.118-.012-.215.1-.17.21A3.85 3.85 0 0 0 6.32 14.23a7.8 7.8 0 0 1-5.012 1.618c-.166-.005-.239.219-.093.299A11 11 0 0 0 6.52 17.5c7.077 0 10.946-5.77 10.946-10.773q0-.245-.012-.49a7.8 7.8 0 0 0 1.918-1.959 7.8 7.8 0 0 1-1.913.554c-.067.01-.1-.082-.044-.12a3.8 3.8 0 0 0 1.293-1.553c.06-.131-.084-.251-.211-.185a7.8 7.8 0 0 1-2.083.72A3.87 3.87 0 0 0 13.607 2.5c-2.124 0-3.846 1.696-3.846 3.788q0 .444.099.861a10.98 10.98 0 0 1-7.786-3.787c-.07-.081-.201-.07-.25.026a3.7 3.7 0 0 0-.414 1.708c0 1.314.68 2.474 1.711 3.152a3.9 3.9 0 0 1-1.7-.45.03.03 0 0 0-.042.025c0 1.82 1.305 3.341 3.044 3.705m.042.008-.042-.008m.042.008-.042-.008"/></svg>