<svg xmlns="http://www.w3.org/2000/svg" width="12" height="12" fill="none" data-fui-icon="true" viewBox="0 0 12 12"><path fill="currentColor" d="M10.26 1H1.738A.73.73 0 0 0 1 1.72v8.557c0 .399.33.723.738.723h8.522c.408 0 .74-.324.74-.72V1.72a.73.73 0 0 0-.74-.72M3.967 9.521H2.482V4.748h1.485zm-.742-5.423a.86.86 0 1 1-.003-1.72.86.86 0 0 1 .003 1.72M9.52 9.52H8.04v-2.32c0-.553-.01-1.265-.771-1.265-.772 0-.89.603-.89 1.226v2.36h-1.48V4.747H6.32V5.4h.02c.197-.375.681-.771 1.402-.771 1.502 0 1.78.988 1.78 2.273z"/></svg>