<svg xmlns="http://www.w3.org/2000/svg" width="20" height="20" fill="none" data-fui-icon="true" viewBox="0 0 20 20"><path fill="currentColor" d="M18.25 13a.75.75 0 0 1 .75.75v1A4.25 4.25 0 0 1 14.75 19h-9.5A4.25 4.25 0 0 1 1 14.75v-1a.75.75 0 0 1 1.5 0v1a2.75 2.75 0 0 0 2.75 2.75h9.5a2.75 2.75 0 0 0 2.75-2.75v-1a.75.75 0 0 1 .75-.75M12.72 1.47a.75.75 0 0 1 1.06 0l2.75 2.75a.75.75 0 0 1 0 1.06l-2.75 2.75a.75.75 0 0 1-1.06-1.06l1.47-1.47h-2.44A2.75 2.75 0 0 0 9 8.25v5a.75.75 0 0 1-1.5 0v-5A4.25 4.25 0 0 1 11.75 4h2.44l-1.47-1.47a.75.75 0 0 1 0-1.06"/></svg>