<svg xmlns="http://www.w3.org/2000/svg" width="32" height="32" fill="none" data-fui-icon="true" viewBox="0 0 32 32"><path fill="currentColor" d="M16 1a3.98 3.98 0 0 1 2.47.86l10.73 8.497a3.43 3.43 0 0 1 1.3 2.689V27.91A2.09 2.09 0 0 1 28.41 30h-5.32A2.09 2.09 0 0 1 21 27.91V23a5 5 0 0 0-10 0v4.91A2.09 2.09 0 0 1 8.91 30H3.59a2.09 2.09 0 0 1-2.09-2.09V13.046a3.43 3.43 0 0 1 1.3-2.689L13.53 1.86A3.98 3.98 0 0 1 16 1m0 1.5a2.48 2.48 0 0 0-1.54.535L3.732 11.533A1.93 1.93 0 0 0 3 13.046V27.91c0 .326.264.59.59.59h5.32a.59.59 0 0 0 .59-.59V23a6.5 6.5 0 0 1 13 0v4.91c0 .326.264.59.59.59h5.32a.59.59 0 0 0 .59-.59V13.046c0-.59-.27-1.147-.731-1.513l-10.73-8.498A2.48 2.48 0 0 0 16 2.5"/></svg>