<svg xmlns="http://www.w3.org/2000/svg" width="16" height="16" fill="none" data-fui-icon="true" viewBox="0 0 16 16"><path fill="currentColor" d="M12.983 10.527c.976 0 1.767.791 1.767 1.767 0 1.568-1.278 2.722-2.784 2.722H4.034c-1.506 0-2.784-1.154-2.784-2.722 0-.976.791-1.766 1.766-1.767zm-9.967 1.5a.267.267 0 0 0-.266.267c0 .679.544 1.221 1.284 1.222h7.932c.74 0 1.284-.543 1.284-1.222a.267.267 0 0 0-.267-.267zm7.436-3.898a1.973 1.973 0 0 1 3.282 0c.084.125.24.206.406.21a.75.75 0 1 1-.03 1.5 2 2 0 0 1-1.624-.878.473.473 0 0 0-.786 0 1.973 1.973 0 0 1-3.282 0 .472.472 0 0 0-.785 0 1.973 1.973 0 0 1-3.283 0 .473.473 0 0 0-.786 0c-.406.61-1.085.89-1.705.878a.75.75 0 0 1 .032-1.5.5.5 0 0 0 .425-.21 1.973 1.973 0 0 1 3.283 0c.186.28.599.28.786 0 .78-1.171 2.5-1.171 3.28 0 .188.28.6.28.787 0M10.949 1a3.8 3.8 0 0 1 3.8 3.8c0 .473-.185.931-.47 1.274-.285.344-.734.645-1.296.645H3.016c-.56 0-1.01-.301-1.295-.645a2.03 2.03 0 0 1-.471-1.273A3.8 3.8 0 0 1 5.05 1zM5.051 2.5A2.3 2.3 0 0 0 2.75 4.8c0 .09.042.216.125.316a.4.4 0 0 0 .102.09.1.1 0 0 0 .04.013h9.966a.1.1 0 0 0 .04-.014.4.4 0 0 0 .102-.089.53.53 0 0 0 .125-.315 2.3 2.3 0 0 0-2.3-2.301z"/></svg>