<svg xmlns="http://www.w3.org/2000/svg" width="12" height="12" fill="none" data-fui-icon="true" viewBox="0 0 12 12"><g clip-path="url(#a)"><path fill="currentColor" d="M7.875.188a3.187 3.187 0 0 1 3.188 3.187v5.25a3.19 3.19 0 0 1-3.188 3.188h-3.75A3.19 3.19 0 0 1 .938 8.625v-5.25A3.187 3.187 0 0 1 4.124.188zm-3.75 1.5c-.932 0-1.687.755-1.687 1.687v5.25c0 .932.755 1.688 1.687 1.688h3.75c.932 0 1.688-.756 1.688-1.688v-5.25c0-.932-.756-1.687-1.688-1.687zM6 4.874a2.25 2.25 0 1 1 0 4.5 2.25 2.25 0 0 1 0-4.5m0 1.5a.75.75 0 1 0 0 1.5.75.75 0 0 0 0-1.5m0-3.75a.75.75 0 1 1 0 1.5.75.75 0 0 1 0-1.5"/></g><defs><clipPath id="a"><path fill="currentColor" d="M0 0h12v12H0z"/></clipPath></defs></svg>