<svg xmlns="http://www.w3.org/2000/svg" width="17" height="16" fill="none" data-fui-icon="true" viewBox="0 0 17 16"><path fill="currentColor" d="M6.28 1.48c.767-1.306 2.689-1.306 3.457 0l.073.134 1.34 2.715 3.107.397c1.616.206 2.41 2.24 1.107 3.435l-2.24 2.054.56 2.922c.335 1.749-1.522 2.857-2.908 2.13v.002l-2.768-1.453L5.24 15.27c-1.385.726-3.243-.383-2.908-2.132l.56-2.922L.652 8.16C-.65 6.965.143 4.931 1.76 4.726l3.106-.397 1.341-2.715zm2.185.798a.514.514 0 0 0-.914 0L5.973 5.477l-.031.053a.5.5 0 0 1-.36.221l-3.079.392-.555.07a.486.486 0 0 0-.28.843l2.655 2.436a.48.48 0 0 1 .15.445L3.93 12.77l-.124.649c-.073.38.31.678.667.552l.071-.031 3.223-1.691a.52.52 0 0 1 .482 0l3.223 1.69c.374.197.816-.115.738-.52l-.667-3.482a.48.48 0 0 1 .15-.445l2.656-2.436a.484.484 0 0 0-.205-.827l-.076-.015-3.634-.463a.5.5 0 0 1-.36-.22l-.03-.054z"/></svg>