<svg xmlns="http://www.w3.org/2000/svg" width="20" height="20" fill="none" data-fui-icon="true" viewBox="0 0 20 20"><path fill="currentColor" d="M8.276 2.242c.773-1.314 2.673-1.314 3.447 0l7.814 13.285c.784 1.334-.177 3.014-1.723 3.014H2.184c-1.546 0-2.507-1.68-1.723-3.014zm1.902 4.262a3.25 3.25 0 1 1-.358 0c-1.896.051-3.371.912-4.413 1.84a9.9 9.9 0 0 0-1.705 2.013l-.26.432c-.193.345-.19.766.011 1.11.25.425.905 1.434 1.975 2.345C6.503 15.16 8.032 16 9.999 16c1.968 0 3.496-.84 4.571-1.756a9.5 9.5 0 0 0 1.975-2.345c.202-.344.204-.765.01-1.11a9.9 9.9 0 0 0-1.964-2.444c-1.041-.929-2.516-1.79-4.413-1.841M9.999 8a1.75 1.75 0 1 0 0 3.5A1.75 1.75 0 0 0 10 8"/></svg>