<svg xmlns="http://www.w3.org/2000/svg" width="16" height="16" fill="none" data-fui-icon="true" viewBox="0 0 16 16"><path fill="currentColor" d="M7.947 1.75C4.137 1.75 1.75 4.67 1.75 8s2.387 6.25 6.197 6.25c2.472 0 4.503-1.354 5.504-3.132a.75.75 0 0 0-1.307-.736c-.745 1.322-2.285 2.368-4.197 2.368-2.893 0-4.697-2.157-4.697-4.75s1.804-4.75 4.697-4.75c2.4 0 3.66 1.5 4.134 2.837H11a.75.75 0 0 0 0 1.5h1.871c.768 0 1.379-.627 1.379-1.385V3a.75.75 0 0 0-1.5 0v1.15c-.909-1.298-2.452-2.4-4.803-2.4m.053 3a.75.75 0 0 0-.75.75v3c0 .22.096.426.26.567l.074.057 1.5 1a.75.75 0 1 0 .832-1.248L8.75 8.099V5.5A.75.75 0 0 0 8 4.75"/></svg>