<svg xmlns="http://www.w3.org/2000/svg" width="12" height="12" fill="none" data-fui-icon="true" viewBox="0 0 12 12"><g clip-path="url(#a)"><path fill="currentColor" d="M6 .25a5.75 5.75 0 1 1 0 11.5A5.75 5.75 0 0 1 6 .25m0 1.5a4.25 4.25 0 1 0 0 8.5 4.25 4.25 0 0 0 0-8.5m1.033 2.158c.686-.213 1.346.51 1.004 1.196L7.32 6.537c-.169.339-.444.614-.783.783l-1.433.717c-.73.365-1.506-.41-1.141-1.14L4.53 5.76a2.75 2.75 0 0 1 1.23-1.23l1.135-.568z"/></g><defs><clipPath id="a"><path fill="currentColor" d="M0 0h12v12H0z"/></clipPath></defs></svg>