<svg xmlns="http://www.w3.org/2000/svg" width="20" height="20" fill="none" data-fui-icon="true" viewBox="0 0 20 20"><path fill="currentColor" d="M9.966 2.17a.75.75 0 0 1 .67.415l2.49 4.98h3.313a2.436 2.436 0 0 1 0 4.87h-3.312l-2.49 4.98-.671-.336v.001l.67.335a.75.75 0 0 1-.67.415H7.943a.75.75 0 0 1-.727-.932l1.115-4.462H5.894l-1.803 1.802a.75.75 0 0 1-.53.22H1.874a.75.75 0 0 1-.705-1.006L2.425 10 1.17 6.548a.75.75 0 0 1 .705-1.007H3.56c.2 0 .39.08.53.22l1.804 1.803h2.438L7.216 3.102a.75.75 0 0 1 .727-.932zm.053 5.962-.727.181v.001za.75.75 0 0 1-.727.932H5.584a.75.75 0 0 1-.531-.22l.53-.53-.53.53L3.25 7.042h-.304l.983 2.702c.06.166.06.347 0 .513l-.983 2.702h.304l1.803-1.803c.14-.14.332-.22.53-.22h3.709a.75.75 0 0 1 .727.932L8.903 16.33h.6l2.49-4.98a.75.75 0 0 1 .67-.415h3.776a.936.936 0 0 0 0-1.87h-3.776a.75.75 0 0 1-.67-.416l-2.49-4.98h-.599z"/></svg>