<svg xmlns="http://www.w3.org/2000/svg" width="16" height="16" fill="none" data-fui-icon="true" viewBox="0 0 16 16"><path fill="currentColor" d="M11.92 1.073c.677-.088 1.618-.031 2.328.68.71.71.767 1.65.679 2.327-.092.703-.372 1.442-.732 2.15-.295.58-.675 1.192-1.122 1.817.446.625.826 1.236 1.121 1.816.36.708.64 1.446.732 2.15.088.676.032 1.617-.678 2.328s-1.652.767-2.33.679c-.702-.092-1.441-.372-2.148-.732a14.5 14.5 0 0 1-1.817-1.122c-.625.447-1.236.826-1.816 1.122-.708.36-1.446.64-2.15.732-.676.088-1.618.033-2.329-.678-.71-.71-.766-1.652-.678-2.33.092-.703.372-1.441.732-2.149.296-.58.675-1.191 1.121-1.816A14.5 14.5 0 0 1 1.711 6.23c-.36-.708-.64-1.447-.732-2.15-.088-.677-.031-1.618.68-2.329.71-.71 1.65-.766 2.327-.678.704.092 1.442.372 2.15.732.58.295 1.192.675 1.817 1.12a14.5 14.5 0 0 1 1.818-1.12c.707-.36 1.446-.64 2.149-.732M3.798 9.288c-1.222 1.817-1.698 3.374-1.08 3.993.62.62 2.176.141 3.993-1.08a24 24 0 0 1-1.52-1.391 24 24 0 0 1-1.393-1.522m8.31 0c-.429.51-.893 1.022-1.392 1.522-.5.499-1.012.963-1.522 1.391 1.818 1.222 3.374 1.698 3.993 1.08.619-.62.142-2.176-1.08-3.993M7.952 4.81a22 22 0 0 0-1.702 1.535 22 22 0 0 0-1.535 1.702c.456.563.97 1.136 1.535 1.701a22 22 0 0 0 1.702 1.534 22 22 0 0 0 3.237-3.235A22 22 0 0 0 7.953 4.81M8 7a1 1 0 1 1 0 2 1 1 0 0 1 0-2M6.712 3.892C4.894 2.67 3.338 2.194 2.719 2.812c-.619.62-.143 2.176 1.079 3.993a23.7 23.7 0 0 1 2.914-2.913m6.476-1.08c-.62-.618-2.176-.142-3.994 1.08.51.428 1.023.892 1.522 1.391.499.5.963 1.012 1.391 1.522 1.222-1.817 1.7-3.373 1.08-3.992"/></svg>