<svg xmlns="http://www.w3.org/2000/svg" width="32" height="32" fill="none" data-fui-icon="true" viewBox="0 0 32 32"><path fill="currentColor" d="M28.444 6.217c.49 0 .89.4.89.889v17.777c0 .49-.4.89-.89.89H3.556a.89.89 0 0 1-.89-.89V7.106c0-.49.4-.89.89-.89zM3.556 3.55A3.56 3.56 0 0 0 0 7.106v17.777a3.56 3.56 0 0 0 3.556 3.556h24.888A3.56 3.56 0 0 0 32 24.883V7.106a3.56 3.56 0 0 0-3.556-3.556zm7.555 9.778c.789 0 1.5.339 1.989.889a1.335 1.335 0 0 0 1.989-1.778 5.32 5.32 0 0 0-3.972-1.778 5.335 5.335 0 0 0-5.334 5.333 5.335 5.335 0 0 0 5.334 5.334c1.577 0 3-.69 3.972-1.778a1.335 1.335 0 0 0-1.989-1.778 2.667 2.667 0 1 1-1.989-4.444m8 2.666a2.667 2.667 0 0 1 4.656-1.777 1.335 1.335 0 0 0 1.989-1.778 5.32 5.32 0 0 0-3.973-1.778 5.335 5.335 0 0 0-5.333 5.333 5.335 5.335 0 0 0 5.333 5.334c1.578 0 3-.69 3.973-1.778a1.335 1.335 0 0 0-.106-1.883 1.33 1.33 0 0 0-1.883.105 2.667 2.667 0 0 1-4.656-1.778"/></svg>