<svg xmlns="http://www.w3.org/2000/svg" width="32" height="32" fill="none" data-fui-icon="true" viewBox="0 0 32 32"><path fill="currentColor" d="M22 11c.586 0 1.16.166 1.655.48l6.082 3.844A2.71 2.71 0 0 1 31 17.615v6.77a2.71 2.71 0 0 1-1.263 2.29l-6.082 3.845a3.1 3.1 0 0 1-3.31 0l-6.082-3.844A2.71 2.71 0 0 1 13 24.385v-6.77c0-.93.477-1.794 1.263-2.29l6.082-3.845A3.1 3.1 0 0 1 22 11m0 1.5c-.302 0-.598.086-.854.247l-6.083 3.845a1.21 1.21 0 0 0-.563 1.023v6.77c0 .415.213.801.563 1.023l6.083 3.845a1.6 1.6 0 0 0 1.707 0l6.083-3.845a1.21 1.21 0 0 0 .564-1.023v-6.77a1.21 1.21 0 0 0-.564-1.023l-6.082-3.845A1.6 1.6 0 0 0 22 12.5m-5.465 5.33a.75.75 0 0 1 1.017-.304l4.444 2.406 4.445-2.406a.75.75 0 0 1 .715 1.32l-4.413 2.388v5.233a.75.75 0 0 1-1.5 0V21.23l-4.405-2.384a.75.75 0 0 1-.303-1.017M26.25 2A4.75 4.75 0 0 1 31 6.75v5.5a.75.75 0 0 1-1.5 0v-5.5a3.25 3.25 0 0 0-3.25-3.25H5.75A3.25 3.25 0 0 0 2.5 6.75v14.5a3.25 3.25 0 0 0 3.25 3.25h4.5a.75.75 0 0 1 0 1.5h-4.5A4.75 4.75 0 0 1 1 21.25V6.75A4.75 4.75 0 0 1 5.75 2zM6.5 6a1.5 1.5 0 1 1 0 3 1.5 1.5 0 0 1 0-3m5 0a1.5 1.5 0 1 1 0 3 1.5 1.5 0 0 1 0-3m5 0a1.5 1.5 0 1 1 0 3 1.5 1.5 0 0 1 0-3"/></svg>