<svg xmlns="http://www.w3.org/2000/svg" width="32" height="32" fill="none" data-fui-icon="true" viewBox="0 0 32 32"><path fill="currentColor" d="M26.181 6.697a24.2 24.2 0 0 0-6.051-1.872 17 17 0 0 0-.775 1.584 22.4 22.4 0 0 0-6.717 0q-.346-.812-.775-1.584c-2.091.359-4.127.99-6.056 1.877-3.83 5.696-4.868 11.25-4.35 16.727a24.3 24.3 0 0 0 7.423 3.746c.601-.813 1.133-1.675 1.59-2.577a16 16 0 0 1-2.504-1.202q.316-.231.614-.463a17.36 17.36 0 0 0 14.84 0c.2.164.406.322.613.463-.799.475-1.638.877-2.507 1.204a18 18 0 0 0 1.59 2.574 24.2 24.2 0 0 0 7.426-3.743c.609-6.35-1.04-11.854-4.36-16.734M11.127 20.061c-1.446 0-2.642-1.32-2.642-2.943 0-1.624 1.154-2.955 2.638-2.955s2.669 1.331 2.644 2.955c-.026 1.624-1.165 2.943-2.64 2.943m9.746 0c-1.45 0-2.64-1.32-2.64-2.943 0-1.624 1.154-2.955 2.64-2.955 1.485 0 2.662 1.331 2.637 2.955-.026 1.624-1.163 2.943-2.637 2.943"/></svg>