<svg xmlns="http://www.w3.org/2000/svg" width="32" height="32" fill="none" data-fui-icon="true" viewBox="0 0 32 32"><path fill="currentColor" d="M14.906 2.828a3.55 3.55 0 0 1 2.133 0l10.938 4.156A3.08 3.08 0 0 1 30 9.883v13.289c0 1.312-.82 2.406-2.023 2.898l-10.938 4.157a3.55 3.55 0 0 1-2.133 0L3.97 26.07C2.766 25.578 2 24.484 2 23.172V9.882c0-1.312.766-2.46 1.969-2.898zM16.11 5.29h-.273L5.446 9.227 16 13.383l10.5-4.156zM4.9 23.61l9.789 3.72v-11.65L4.624 11.743v11.43c0 .219.11.383.273.437m12.414 3.72 9.734-3.72a.48.48 0 0 0 .328-.437v-11.43L17.313 15.68z"/></svg>