<svg xmlns="http://www.w3.org/2000/svg" width="12" height="12" fill="none" data-fui-icon="true" viewBox="0 0 12 12"><circle cx="6" cy="7.5" r="2.75" stroke="currentColor" stroke-miterlimit="16" stroke-width="1.5"/><path stroke="currentColor" stroke-linejoin="round" stroke-width="1.5" d="M5.038 4.5s-.7-.817-.963-2.131c-.109-.542-.547-.994-1.1-.994h-.85c-.414 0-.758.34-.682.746.394 2.117 2.362 3.129 2.362 3.129m3.157-.75s.7-.817.963-2.131c.109-.542.547-.994 1.1-.994h.85c.414 0 .758.34.682.746-.394 2.117-2.362 3.129-2.362 3.129"/><path stroke="currentColor" stroke-linecap="round" stroke-linejoin="round" d="m5.25 7.575.45.45 1.05-1.05"/></svg>