<svg xmlns="http://www.w3.org/2000/svg" width="32" height="32" fill="none" data-fui-icon="true" viewBox="0 0 32 32"><path fill="currentColor" d="M27 2a3 3 0 0 1 3 3v21a3 3 0 0 1-5.95.553L14 23.106V26.5a2.5 2.5 0 0 1-5 0v-4.75c0-.12.03-.231.08-.331l-1.25-.429A2.998 2.998 0 0 1 2 20v-8a2.998 2.998 0 0 1 5.828-.992L24 5.464V5a3 3 0 0 1 3-3M10.5 26.5a1 1 0 1 0 2 0v-3.75q0-.078.016-.152l-2.016-.692zM27 3.5A1.5 1.5 0 0 0 25.5 5v21a1.5 1.5 0 0 0 3 0V5A1.5 1.5 0 0 0 27 3.5M8 12.535v6.929l16 5.485V7.05zM5 10.5A1.5 1.5 0 0 0 3.5 12v8a1.5 1.5 0 0 0 3 0v-8A1.5 1.5 0 0 0 5 10.5"/></svg>