<svg xmlns="http://www.w3.org/2000/svg" width="16" height="16" fill="none" data-fui-icon="true" viewBox="0 0 16 16"><path fill="currentColor" d="M8.441.25c.373 0 .723.165.958.446l.094.128.435.676h.571c.604 0 1.11.429 1.226 1H12a2 2 0 0 1 2 2V14a2 2 0 0 1-2 2H4a2 2 0 0 1-2-2V4.5a2 2 0 0 1 2-2h.275c.116-.571.622-1 1.226-1h.571l.435-.676A1.25 1.25 0 0 1 7.559.25zM4 4a.5.5 0 0 0-.5.5V14a.5.5 0 0 0 .5.5h8a.5.5 0 0 0 .5-.5V4.5A.5.5 0 0 0 12 4h-.25v.25c0 .69-.56 1.25-1.25 1.25h-5c-.69 0-1.25-.56-1.25-1.25V4zm6.25 7a.75.75 0 0 1 0 1.5h-4.5a.75.75 0 0 1 0-1.5zm0-3.5a.75.75 0 0 1 0 1.5h-4.5a.75.75 0 0 1 0-1.5zM7.126 2.635A.75.75 0 0 1 6.482 3H5.75v1h4.5V3h-.732a.75.75 0 0 1-.644-.365l-.568-.885h-.612z"/></svg>