<svg xmlns="http://www.w3.org/2000/svg" width="32" height="32" fill="none" data-fui-icon="true" viewBox="0 0 32 32"><path fill="currentColor" d="M16 1c8.285 0 15 6.715 15 15s-6.715 15-15 15S1 24.284 1 16C1 7.714 7.716 1 16 1m.186 5.097q-2.291 0-4.17.713-1.867.702-3.22 2.022a8.9 8.9 0 0 0-2.064 3.138q-.723 1.816-.723 4.056 0 2.23.723 4.046a8.9 8.9 0 0 0 2.074 3.116q1.353 1.311 3.23 2.013 1.88.712 4.191.712 1.857 0 3.2-.36.844-.226 1.426-.424a.626.626 0 0 0 .37-.83l-.395-1.01a.71.71 0 0 0-.88-.403q-.464.147-1.1.313-1.146.3-2.632.3-2.332 0-4.035-.92A6.4 6.4 0 0 1 9.561 20q-.93-1.682-.93-3.983t.93-3.984a6.43 6.43 0 0 1 2.63-2.601q1.704-.918 4.036-.919 2.199 0 3.809.847a5.9 5.9 0 0 1 2.487 2.415q.877 1.569.877 3.777 0 1.662-.516 2.611-.506.94-1.404.939-.424 0-.67-.247-.239-.258-.238-.857v-6.27a.666.666 0 0 0-.666-.665h-1.011a.51.51 0 0 0-.51.51v.505a.01.01 0 0 1-.008.006q-.003 0-.005-.003-.29-.503-1.03-.874-.743-.381-1.775-.381-1.26 0-2.322.619-1.064.609-1.714 1.764t-.65 2.797q0 1.507.578 2.704.578 1.187 1.63 1.878 1.053.692 2.488.692 1.248 0 2.012-.495.762-.504 1.02-1.163a.01.01 0 0 1 .007-.003q.005 0 .007.004.124.617.783 1.172.66.558 2.013.557 2.156 0 3.364-1.527 1.208-1.538 1.208-4.314 0-2.838-1.218-4.954t-3.427-3.282q-2.198-1.177-5.16-1.177m-.33 6.987q1.166 0 1.785.764.63.753.63 2.157 0 1.393-.63 2.157-.62.754-1.785.753-1.208 0-1.868-.753-.65-.753-.65-2.157t.65-2.157q.66-.764 1.868-.764"/></svg>