<svg xmlns="http://www.w3.org/2000/svg" width="20" height="20" fill="none" data-fui-icon="true" viewBox="0 0 20 20"><g clip-path="url(#a)"><path fill="currentColor" d="M10 0c2.908 0 4.674 1.358 5.689 3.05.983 1.64 1.244 3.556 1.307 4.74.034.624.23 1.191.59 1.605l.376.435A4.333 4.333 0 0 1 14.688 17H13.24c-.058.92-.44 1.665-1.024 2.185-.623.554-1.432.815-2.217.815s-1.594-.261-2.217-.815c-.584-.52-.966-1.264-1.025-2.185H5.313a4.333 4.333 0 0 1-3.275-7.17l.377-.435c.358-.413.556-.981.59-1.605.063-1.184.322-3.1 1.306-4.74C5.326 1.358 7.093 0 10 0M8.264 17c.052.492.256.834.516 1.064.314.28.755.436 1.22.436s.906-.156 1.22-.436c.26-.23.464-.572.516-1.064zM10 1.5c-2.339 0-3.636 1.044-4.402 2.322C4.8 5.152 4.56 6.778 4.502 7.87c-.047.875-.329 1.786-.954 2.508l-.376.434a2.833 2.833 0 0 0 2.14 4.688h9.376a2.834 2.834 0 0 0 2.14-4.688l-.376-.434c-.625-.722-.907-1.633-.954-2.508-.058-1.092-.298-2.718-1.095-4.048C13.636 2.544 12.339 1.5 10 1.5"/></g><defs><clipPath id="a"><path fill="currentColor" d="M0 0h20v20H0z"/></clipPath></defs></svg>