<svg xmlns="http://www.w3.org/2000/svg" width="32" height="32" fill="none" data-fui-icon="true" viewBox="0 0 32 32"><path fill="currentColor" d="M10.666 22.917a2.417 2.417 0 1 1 0 4.834 2.417 2.417 0 0 1 0-4.834m12 0a2.417 2.417 0 1 1 0 4.834 2.417 2.417 0 0 1 0-4.834m-12 1.5a.917.917 0 1 0 .002 1.834.917.917 0 0 0-.002-1.834m12 0a.917.917 0 1 0 .002 1.834.917.917 0 0 0-.002-1.834m-19.64-21.5c1.311 0 2.44.926 2.698 2.21l2.583 12.916c.179.896.965 1.54 1.878 1.541H23.78c.925 0 1.717-.66 1.885-1.57l1.932-10.483a.75.75 0 0 1 1.474.272l-1.93 10.483a3.42 3.42 0 0 1-3.36 2.798H10.184a3.42 3.42 0 0 1-3.35-2.747L4.254 5.422a1.25 1.25 0 0 0-1.227-1.005h-.693a.75.75 0 0 1 0-1.5zm16.507 2.822a.75.75 0 0 1 1.06 1.06L18.06 9.334l2.534 2.534a.75.75 0 0 1-1.06 1.06l-2.535-2.533-2.533 2.534a.75.75 0 0 1-1.06-1.06l2.532-2.535L13.406 6.8a.75.75 0 0 1 1.06-1.06L17 8.271z"/></svg>