<svg xmlns="http://www.w3.org/2000/svg" width="20" height="20" fill="none" data-fui-icon="true" viewBox="0 0 20 20"><path fill="currentColor" d="M9.47 11.553a.75.75 0 0 1 1.06 0l2.917 2.917a.75.75 0 0 1-1.06 1.06l-1.637-1.636v4.544a.75.75 0 0 1-1.5 0v-4.543L7.614 15.53a.75.75 0 0 1-1.06-1.06zm7.405-2.303a.75.75 0 0 1 0 1.5H3.125a.75.75 0 0 1 0-1.5zM10 .813a.75.75 0 0 1 .75.75v4.542l1.636-1.635a.75.75 0 0 1 1.06 1.06L10.53 8.447a.75.75 0 0 1-1.06 0L6.553 5.53a.75.75 0 0 1 1.06-1.06L9.25 6.106V1.563a.75.75 0 0 1 .75-.75"/></svg>