<svg xmlns="http://www.w3.org/2000/svg" width="20" height="20" fill="none" data-fui-icon="true" viewBox="0 0 20 20"><path fill="currentColor" d="M10 1c2.14 0 3.808.572 5.091 1.462 1.277.886 2.132 2.058 2.705 3.203.57 1.143.87 2.277 1.027 3.12a12 12 0 0 1 .17 1.324l.005.083v.024l.002.008v.003l-.01.143a.75.75 0 0 1-.18.378l-3.828 4.306q.016.097.018.196v2.2A1.55 1.55 0 0 1 13.45 19h-6.9A1.55 1.55 0 0 1 5 17.45v-2.2q0-.1.016-.196L1.19 10.748a.75.75 0 0 1-.19-.52v-.004l.002-.008v-.024l.004-.083q.007-.106.025-.296c.024-.252.068-.606.146-1.029.157-.842.456-1.976 1.028-3.119.572-1.145 1.428-2.317 2.704-3.203C6.19 1.572 7.858 1 10 1M6.5 17.45c0 .027.022.05.05.05h6.9a.05.05 0 0 0 .05-.05V15.5h-7zM5.875 9c-1.527 0-2.387.448-2.853.83a2.5 2.5 0 0 0-.342.339l3.415 3.84q.075-.008.155-.009h3v-3.571q-.02-.035-.047-.08a2.4 2.4 0 0 0-.476-.519C8.262 9.448 7.402 9 5.875 9m8.25 0c-1.527 0-2.387.448-2.853.83a2.4 2.4 0 0 0-.476.519q-.028.045-.046.08V14h3q.077 0 .153.01l3.415-3.841a2.5 2.5 0 0 0-.34-.339c-.466-.382-1.326-.83-2.853-.83M10 2.5c-1.86 0-3.223.491-4.237 1.194-1.02.708-1.727 1.661-2.217 2.641a10 10 0 0 0-.688 1.82c.73-.38 1.713-.655 3.017-.655 1.847 0 3.05.552 3.803 1.17.12.098.226.2.322.297a4 4 0 0 1 .32-.297c.754-.618 1.957-1.17 3.805-1.17 1.303 0 2.285.276 3.015.654a10 10 0 0 0-.686-1.819c-.49-.98-1.198-1.933-2.218-2.64C13.222 2.99 11.858 2.5 10 2.5"/></svg>