<svg xmlns="http://www.w3.org/2000/svg" width="20" height="20" fill="none" data-fui-icon="true" viewBox="0 0 20 20"><path fill="currentColor" d="M3 14a.75.75 0 0 1 .75.75v2.5a.75.75 0 0 1-1.5 0v-2.5A.75.75 0 0 1 3 14m3.5-4a.75.75 0 0 1 .75.75v6.5a.75.75 0 0 1-1.5 0v-6.5A.75.75 0 0 1 6.5 10M10 6a.75.75 0 0 1 .75.75v10.5a.75.75 0 0 1-1.5 0V6.75A.75.75 0 0 1 10 6m3.5 5a.75.75 0 0 1 .75.75v5.5a.75.75 0 0 1-1.5 0v-5.5a.75.75 0 0 1 .75-.75M17 2a.75.75 0 0 1 .75.75v14.5a.75.75 0 0 1-1.5 0V2.75A.75.75 0 0 1 17 2"/></svg>