<svg xmlns="http://www.w3.org/2000/svg" width="16" height="16" fill="none" data-fui-icon="true" viewBox="0 0 16 16"><path fill="currentColor" d="M6.146 1.25c1.42 0 2.719.803 3.354 2.073l.17.342a.75.75 0 0 1-1.34.67l-.172-.34A2.25 2.25 0 0 0 6.146 2.75H4A2.25 2.25 0 0 0 1.75 5v6A2.25 2.25 0 0 0 4 13.25h2.438a1.89 1.89 0 0 0 1.834-1.432.75.75 0 0 1 1.456.364 3.39 3.39 0 0 1-3.29 2.568H4A3.75 3.75 0 0 1 .25 11V5A3.75 3.75 0 0 1 4 1.25zm5.885 3.04a.75.75 0 0 1 1.055.116l2.5 3.125a.75.75 0 0 1 0 .938l-2.5 3.125a.75.75 0 0 1-1.172-.938L13.44 8.75H6.188a.75.75 0 0 1 0-1.5h7.252l-1.526-1.906a.75.75 0 0 1 .117-1.055"/></svg>