<svg xmlns="http://www.w3.org/2000/svg" width="32" height="32" fill="none" data-fui-icon="true" viewBox="0 0 32 32"><path fill="currentColor" d="M16 0c5.523 0 10 4.477 10 10v3.61c2.285.483 4 2.51 4 4.94v8.4A5.05 5.05 0 0 1 24.95 32H7.05A5.05 5.05 0 0 1 2 26.95v-8.4a5.05 5.05 0 0 1 4-4.94V10C6 4.477 10.477 0 16 0M7.05 15a3.55 3.55 0 0 0-3.55 3.55v8.4a3.55 3.55 0 0 0 3.55 3.55h17.9a3.55 3.55 0 0 0 3.55-3.55v-8.4A3.55 3.55 0 0 0 24.95 15zM16 1.5A8.5 8.5 0 0 0 7.5 10v3.5h17V10A8.5 8.5 0 0 0 16 1.5"/></svg>