<svg xmlns="http://www.w3.org/2000/svg" width="24" height="24" fill="none" data-fui-icon="true" viewBox="0 0 24 24"><path fill="currentColor" d="M3.375 10.852q8.055-3.498 10.74-4.612c5.116-2.12 6.177-2.488 6.87-2.5.153-.003.493.034.715.213.184.15.236.354.262.497.023.143.054.468.028.723-.276 2.902-1.476 9.946-2.086 13.198-.256 1.375-.765 1.837-1.258 1.882-1.07.098-1.882-.705-2.918-1.381-1.62-1.06-2.535-1.719-4.109-2.752-1.818-1.195-.639-1.851.397-2.924.27-.28 4.984-4.553 5.074-4.94.011-.05.023-.23-.087-.325-.106-.096-.265-.063-.38-.037-.164.036-2.75 1.743-7.77 5.118q-1.1.755-1.996.735c-.656-.014-1.923-.37-2.864-.675-1.15-.374-2.069-.571-1.988-1.206q.061-.496 1.37-1.014"/></svg>