<svg xmlns="http://www.w3.org/2000/svg" width="20" height="20" fill="none" data-fui-icon="true" viewBox="0 0 20 20"><path stroke="currentColor" stroke-linecap="round" stroke-linejoin="round" stroke-width="1.5" d="M9.99 4.684c-2.509 0-2.813-2.434-2.813-2.434L1.162 4.99a.7.7 0 0 0-.335.952l1.316 2.619a.7.7 0 0 0 .838.353l1.265-.403v8.614c0 .345.28.625.625.625h10.254c.345 0 .625-.28.625-.625V8.511l1.27.403a.7.7 0 0 0 .837-.353l1.316-2.618a.7.7 0 0 0-.336-.952L12.805 2.25S12.5 4.684 9.99 4.684"/></svg>