<svg xmlns="http://www.w3.org/2000/svg" width="32" height="32" fill="none" data-fui-icon="true" viewBox="0 0 32 32"><path fill="currentColor" d="M6.322.063c2.208 0 3.857 1.787 4.235 3.792a17.2 17.2 0 0 0 1.785 4.995c.256.47.496.855.69 1.147.945-.259 1.94-.397 2.968-.397 1.027 0 2.023.138 2.968.397.194-.292.434-.677.69-1.147a17.2 17.2 0 0 0 1.784-4.995C21.821 1.85 23.47.063 25.68.063h2.375c1.698 0 3.252 1.414 2.943 3.263-.62 3.71-2.525 6.44-4.257 8.234-.83.86-1.626 1.51-2.232 1.955A11.16 11.16 0 0 1 27.2 20.8C27.2 26.985 22.186 32 16 32S4.8 26.985 4.8 20.8c0-2.782 1.015-5.328 2.694-7.286a17.7 17.7 0 0 1-2.228-1.954c-1.728-1.793-3.63-4.525-4.248-8.234C.71 1.476 2.264.063 3.963.063zM16 11.1c-5.357 0-9.7 4.343-9.7 9.7s4.343 9.7 9.7 9.7 9.7-4.343 9.7-9.7-4.343-9.7-9.7-9.7m3.47 6.37a.75.75 0 0 1 1.06 1.06l-5.6 5.6a.75.75 0 0 1-1.06 0l-2.4-2.4a.75.75 0 0 1 1.06-1.06l1.87 1.87zm6.209-15.907c-1.327 0-2.486 1.103-2.763 2.57a18.7 18.7 0 0 1-1.94 5.434q-.296.538-.551.94a11.2 11.2 0 0 1 3.02 1.926l.104-.076a16 16 0 0 0 2.112-1.84c1.592-1.647 3.302-4.115 3.856-7.438.128-.765-.511-1.516-1.463-1.517zm-21.716 0c-.953 0-1.593.752-1.465 1.517.554 3.323 2.26 5.791 3.849 7.439.792.822 1.55 1.434 2.107 1.838l.103.075a11.2 11.2 0 0 1 3.019-1.924 17 17 0 0 1-.552-.94 18.7 18.7 0 0 1-1.94-5.434c-.277-1.468-1.436-2.571-2.762-2.572z"/></svg>