<svg xmlns="http://www.w3.org/2000/svg" width="24" height="24" fill="none" data-fui-icon="true" viewBox="0 0 24 24"><path fill="currentColor" d="M12 1.25c5.937 0 10.75 4.813 10.75 10.75 0 5.496-4.124 10.027-9.447 10.672l-.841.102v-8.468h2.829l.285-1.556h-3.118v-1.831c0-.877.166-1.69.745-2.259.576-.566 1.393-.726 2.278-.726q.211.001.406.004V6.573a11 11 0 0 0-1.423-.12c-1.565 0-2.55.37-3.156.988-.61.622-.974 1.638-.974 3.243v2.066H8.271v1.556h2.063v8.359l-.93-.231C4.72 21.272 1.25 17.043 1.25 12 1.25 6.063 6.063 1.25 12 1.25m0 1.5a9.25 9.25 0 0 0-3.166 17.941v-4.885H6.771V11.25h2.063v-.566c0-1.8.405-3.274 1.401-4.291 1-1.021 2.454-1.44 4.229-1.44.676 0 1.84.128 2.372.276l.55.15v4.17l-.825-.083c-.196-.02-.575-.032-1.08-.032-.756 0-1.076.149-1.226.296-.147.145-.297.451-.297 1.189v.331h3.418l-.162.885-.56 3.055-.113.616h-2.58v5.236A9.25 9.25 0 0 0 12 2.75"/></svg>