<svg xmlns="http://www.w3.org/2000/svg" width="32" height="32" fill="none" data-fui-icon="true" viewBox="0 0 32 32"><path fill="currentColor" d="M23.25 2a.75.75 0 0 1 0 1.5H21v8.962c0 .407.13.803.37 1.132l8.03 10.971c1.652 2.258.04 5.435-2.757 5.435H5.356c-2.797 0-4.41-3.178-2.758-5.435l8.032-10.971c.24-.329.37-.725.37-1.132V3.5H8.75a.75.75 0 0 1 0-1.5zM11.61 20.327c-1.332-.239-2.846-.098-4.737.936L3.809 25.45c-.926 1.266-.022 3.049 1.547 3.049h21.287c1.57 0 2.473-1.783 1.546-3.049l-2.744-3.749c-1.933 1.326-3.632 1.8-5.222 1.73-1.718-.076-3.207-.786-4.561-1.471-1.396-.706-2.644-1.381-4.05-1.634"/></svg>