<svg xmlns="http://www.w3.org/2000/svg" width="32" height="32" fill="none" data-fui-icon="true" viewBox="0 0 32 32"><path fill="currentColor" d="M15.896 2.917a3.42 3.42 0 0 1 2.416 1l7.104 7.105a3.4 3.4 0 0 1 .598.807c.262.49.402 1.043.402 1.61v12.228q.001.088-.004.175A3.417 3.417 0 0 1 23 29.084H9a3.417 3.417 0 0 1-3.417-3.417V6.334A3.41 3.41 0 0 1 9 2.917zm.417 11.833a.75.75 0 0 0-.75.75v6.002l-1.033-1.033a.75.75 0 0 0-1.06 1.06l1.889 1.89a1.25 1.25 0 0 0 1.767 0l2.06-2.06a.75.75 0 1 0-1.06-1.06l-1.063 1.063V15.5a.75.75 0 0 0-.75-.75m1.437-5.083a1.918 1.918 0 0 0 1.916 1.917h4.19L17.75 5.478z"/></svg>