<svg xmlns="http://www.w3.org/2000/svg" width="16" height="16" fill="none" data-fui-icon="true" viewBox="0 0 16 16"><path fill="currentColor" fill-rule="evenodd" d="M13.865 1.262a.75.75 0 0 1 .873.873l-.002.007-.003.02-.014.074-.054.28a66.457 66.457 0 0 1-.965 4.202c-.32 1.204-.706 2.486-1.139 3.598-.42 1.08-.927 2.11-1.53 2.714a5.7 5.7 0 0 1-7.496.496L2.53 14.53a.75.75 0 1 1-1.06-1.06l1.004-1.005A5.7 5.7 0 0 1 2.97 4.97c.603-.604 1.634-1.11 2.714-1.531C6.796 3.006 8.078 2.62 9.282 2.3a67 67 0 0 1 4.482-1.019l.074-.014.02-.003zM9.97 11.97a4.2 4.2 0 0 1-5.362.483L6.81 10.25H9.5a.75.75 0 1 0 0-1.5H8.31l3.22-3.22a.75.75 0 0 0-1.06-1.06L8.75 6.19v-.298a.75.75 0 0 0-1.5 0v1.797L5.713 9.227l.037-1.204a.75.75 0 0 0-1.5-.046l-.086 2.798-.617.617A4.2 4.2 0 0 1 4.03 6.03c.363-.363 1.129-.777 2.198-1.194 1.039-.404 2.26-.773 3.44-1.086a65 65 0 0 1 3.378-.796 67 67 0 0 1-.796 3.378c-.313 1.18-.682 2.401-1.086 3.44-.417 1.07-.832 1.835-1.194 2.198" clip-rule="evenodd"/></svg>