<svg xmlns="http://www.w3.org/2000/svg" width="24" height="24" fill="none" data-fui-icon="true" viewBox="0 0 24 24"><path fill="currentColor" d="M15.6 22.05a.75.75 0 0 1 0 1.5H8.4a.75.75 0 0 1 0-1.5zM12 .15c2.802 0 5.125.965 6.748 2.581C20.368 4.345 21.25 6.567 21.25 9c0 3.135-1.953 5.355-3.333 6.537-.714.612-1.167 1.42-1.167 2.229v.484a2.25 2.25 0 0 1-2.25 2.25h-5a2.25 2.25 0 0 1-2.25-2.25v-.484c0-.81-.453-1.617-1.167-2.229C4.703 14.355 2.75 12.135 2.75 9c0-2.433.881-4.655 2.502-6.269C6.875 1.115 9.198.151 12 .151m0 1.5c-2.447 0-4.375.836-5.69 2.144C4.995 5.104 4.25 6.934 4.25 9c0 2.482 1.554 4.323 2.81 5.398.94.806 1.69 1.998 1.69 3.368v.484c0 .414.336.75.75.75h5a.75.75 0 0 0 .75-.75v-.484c0-1.37.75-2.562 1.69-3.368 1.256-1.075 2.81-2.916 2.81-5.398 0-2.066-.744-3.895-2.06-5.206C16.374 2.486 14.446 1.65 12 1.65M14.25 10a.75.75 0 0 1 0 1.5h-1.5v3.75a.75.75 0 0 1-1.5 0V11.5h-1.5a.75.75 0 0 1 0-1.5z"/></svg>