<svg xmlns="http://www.w3.org/2000/svg" width="16" height="16" fill="none" data-fui-icon="true" viewBox="0 0 16 16"><g clip-path="url(#a)"><path fill="currentColor" d="M10.794.25a4.25 4.25 0 0 1 4.223 3.773l.79 7a4.25 4.25 0 0 1-4.224 4.727H4.417a4.25 4.25 0 0 1-4.224-4.727l.79-7A4.25 4.25 0 0 1 5.206.25zm-5.588 1.5a2.75 2.75 0 0 0-2.732 2.441l-.79 7a2.75 2.75 0 0 0 2.733 3.059h7.166a2.75 2.75 0 0 0 2.732-3.059l-.789-7a2.75 2.75 0 0 0-2.732-2.441zm5.294 2.5a.75.75 0 0 1 .75.75h-.75l.75.001v.019l-.001.033q0 .041-.006.108a3.83 3.83 0 0 1-.385 1.424c-.2.401-.513.826-.997 1.148-.488.326-1.105.517-1.861.517s-1.373-.191-1.861-.517a2.95 2.95 0 0 1-.997-1.148 3.8 3.8 0 0 1-.391-1.532L4.75 5.02V5L5.5 5h-.75a.75.75 0 0 1 1.5-.005v.008l.003.05q.004.077.026.215c.031.185.091.42.204.647.112.223.268.424.488.57.215.144.535.265 1.029.265s.814-.121 1.03-.265c.219-.146.375-.347.487-.57a2.3 2.3 0 0 0 .233-.912v-.008a.75.75 0 0 1 .75-.745"/></g><defs><clipPath id="a"><path fill="currentColor" d="M0 0h16v16H0z"/></clipPath></defs></svg>