<svg xmlns="http://www.w3.org/2000/svg" width="32" height="32" fill="none" data-fui-icon="true" viewBox="0 0 32 32"><path stroke="currentColor" stroke-width="1.5" d="M7.144 18.458c-.238.104-1.084.198-1.644.198a7 7 0 0 1-.72-.034c-.188-.02-.343.16-.272.336.894 2.2 3.062 3.766 5.606 3.81a12.48 12.48 0 0 1-8.02 2.59c-.266-.009-.382.35-.149.477A17.6 17.6 0 0 0 10.434 28c11.323 0 17.513-9.231 17.513-17.237q0-.392-.019-.783a12.4 12.4 0 0 0 3.07-3.134q0-.003-.002-.002c-.963.419-1.987.72-3.06.887-.107.016-.16-.13-.07-.193a6.1 6.1 0 0 0 2.069-2.484c.094-.21-.134-.401-.338-.296a12.4 12.4 0 0 1-3.334 1.154A6.2 6.2 0 0 0 21.771 4c-3.398 0-6.154 2.713-6.154 6.06q.002.711.158 1.379A17.57 17.57 0 0 1 3.32 5.38c-.113-.131-.323-.114-.402.04a6 6 0 0 0-.66 2.734c0 2.102 1.087 3.957 2.737 5.043a6.2 6.2 0 0 1-2.719-.72.047.047 0 0 0-.069.04c0 2.913 2.088 5.346 4.871 5.928m.067.013-.067-.013m.067.013-.067-.013"/></svg>