<svg xmlns="http://www.w3.org/2000/svg" width="12" height="12" fill="none" data-fui-icon="true" viewBox="0 0 12 12"><path fill="currentColor" d="M3.998 0c.449 0 .79.256.98.553l.073.129.075.131c.193.292.516.476.874.476.41 0 .773-.24.95-.607l.071-.13C7.212.256 7.553 0 8.002 0H9.5l.153.008A1.5 1.5 0 0 1 11 1.5v9a1.5 1.5 0 0 1-1.347 1.492L9.5 12H8.002c-.513 0-.885-.333-1.053-.682A1.06 1.06 0 0 0 6 10.711c-.41 0-.773.24-.95.607-.167.349-.54.682-1.052.682H2.5A1.5 1.5 0 0 1 1 10.5v-9A1.5 1.5 0 0 1 2.5 0zM2.5 10.5h1.288A2.55 2.55 0 0 1 6 9.21c.95 0 1.772.524 2.212 1.29H9.5v-9H8.212A2.55 2.55 0 0 1 6 2.79 2.55 2.55 0 0 1 3.788 1.5H2.5zm4.845-6.905a.75.75 0 1 1 1.06 1.06L7.061 6l1.344 1.345a.75.75 0 1 1-1.06 1.06L6 7.061 4.655 8.405a.75.75 0 1 1-1.06-1.06L4.939 6 3.595 4.655a.75.75 0 1 1 1.06-1.06L6 4.939z"/></svg>