<svg xmlns="http://www.w3.org/2000/svg" width="12" height="12" fill="none" data-fui-icon="true" viewBox="0 0 12 12"><path fill="currentColor" d="M1.135.625c.715 0 1.331.505 1.471 1.206l.968 4.843a.25.25 0 0 0 .245.201h5.098a.25.25 0 0 0 .246-.205l.725-3.93a.75.75 0 1 1 1.474.27l-.723 3.932a1.75 1.75 0 0 1-1.396 1.402 1.373 1.373 0 0 1-.743 2.531 1.375 1.375 0 0 1-.79-2.5H4.79a1.375 1.375 0 1 1-1.465-.072 1.75 1.75 0 0 1-1.221-1.335l-.97-4.843H.876a.75.75 0 0 1 0-1.5zM4 9.375a.125.125 0 1 0 0 .25.125.125 0 0 0 0-.25m4.5 0a.125.125 0 1 0 0 .25.125.125 0 0 0 0-.25M6.994 1.82a.75.75 0 0 1 1.06 1.06l-.618.62.619.62a.75.75 0 0 1-1.06 1.06l-.62-.62-.62.62a.75.75 0 0 1-1.06-1.06l.62-.62-.62-.62a.75.75 0 0 1 1.06-1.06l.62.62z"/></svg>