<svg xmlns="http://www.w3.org/2000/svg" width="16" height="16" fill="none" data-fui-icon="true" viewBox="0 0 16 16"><g clip-path="url(#a)"><path fill="currentColor" fill-rule="evenodd" d="M13.823.853A.75.75 0 0 0 12.557.47L8.99 4.037l-.53.53 1.06 1.06.53-.53 2.124-2.123c-.157.38-.388.731-.687 1.03l-1.28 1.28-.53.53 1.06 1.062.53-.53 1.28-1.28A4.66 4.66 0 0 0 13.822.852M3.55 8.243a.75.75 0 0 1 1.061 0l.084.084.087-.088.528-.532 1.065 1.057-.528.532-.091.092.171.172.088-.088.528-.533 1.065 1.057-.529.532-.156.157a3.075 3.075 0 0 1-.463 3.754l-.411.41a3.074 3.074 0 0 1-4.347 0L.47 13.618a.75.75 0 0 1 0-1.06L3.636 9.39l-.086-.086a.75.75 0 0 1 0-1.06m-1.49 4.844 2.637-2.636.702.702c.614.614.614 1.61 0 2.225l-.41.411a1.574 1.574 0 0 1-2.226 0zm13.47.53-.007.008-1.225 1.225a3.074 3.074 0 0 1-4.347 0l-.41-.411a3.074 3.074 0 0 1-.151-4.185L6.613 7.477c-1.955-1.955-4.12-4.2-3.578-6.911l8.016 8.016.338-.338a.75.75 0 1 1 1.06 1.06l-.085.086 3.166 3.167a.75.75 0 0 1 0 1.06m-4.929-2.464.702-.702 2.636 2.636-.702.702a1.574 1.574 0 0 1-2.225 0l-.41-.41a1.574 1.574 0 0 1 0-2.226" clip-rule="evenodd"/></g><defs><clipPath id="a"><path fill="currentColor" d="M0 0h16v16H0z"/></clipPath></defs></svg>