<svg xmlns="http://www.w3.org/2000/svg" width="24" height="24" fill="none" data-fui-icon="true" viewBox="0 0 24 24"><path fill="currentColor" d="M12.746 1.875c1.267 0 2.35.91 2.57 2.157l.156.883q.542.256 1.036.587l.895-.321.225-.07a2.655 2.655 0 0 1 2.954 1.211l.719 1.217v.001a2.565 2.565 0 0 1-.588 3.302l-.72.586q.023.28.024.572l-.005.254a8 8 0 0 1-.02.317l.72.587a2.566 2.566 0 0 1 .589 3.302l-.719 1.218a2.655 2.655 0 0 1-3.179 1.141l-.895-.323q-.494.33-1.036.587l-.156.885a2.61 2.61 0 0 1-2.57 2.157H11.24a2.61 2.61 0 0 1-2.57-2.156l-.155-.885a8 8 0 0 1-1.038-.588l-.893.322v.001a2.656 2.656 0 0 1-3.18-1.141v-.001l-.718-1.217v-.001a2.564 2.564 0 0 1 .587-3.3l.721-.588a8 8 0 0 1-.02-.318L3.97 12q0-.29.022-.572l-.72-.586v-.001a2.565 2.565 0 0 1-.587-3.301l.718-1.218a2.656 2.656 0 0 1 3.18-1.141l.894.32q.494-.33 1.037-.587l.156-.883a2.61 2.61 0 0 1 2.57-2.156zm-1.507 1.5c-.538 0-.999.387-1.093.917v.001l-.225 1.276-.071.407-.383.157c-.513.21-.993.483-1.43.808l-.323.24-.379-.135-1.26-.453a1.16 1.16 0 0 0-1.38.493l-.718 1.216a1.066 1.066 0 0 0 .242 1.376l1.034.84.323.264-.053.414A6 6 0 0 0 5.47 12q.002.404.053.803l.053.414-.323.262-1.033.842a1.065 1.065 0 0 0-.29 1.29l.047.087.716 1.216h.001c.26.44.79.653 1.283.524l.098-.03 1.259-.454.38-.137.323.24c.437.326.916.599 1.43.81l.383.156.07.407.226 1.277v.001c.094.53.555.917 1.093.917h1.507c.539 0 1-.387 1.094-.917l.225-1.277.07-.408.384-.157c.513-.21.993-.483 1.43-.808l.322-.24.38.135 1.26.454a1.156 1.156 0 0 0 1.38-.493l.719-1.217a1.065 1.065 0 0 0-.244-1.375l-1.034-.842-.323-.263.053-.414q.054-.402.055-.803-.001-.402-.055-.804l-.054-.414.324-.263 1.034-.841.073-.066c.35-.341.426-.877.17-1.31l-.718-1.216c-.26-.44-.79-.654-1.282-.524l-.098.03-1.26.454-.38.136-.323-.24a6.6 6.6 0 0 0-1.43-.81l-.382-.156-.071-.408-.225-1.276a1.11 1.11 0 0 0-1.094-.917zM12 8.625a3.375 3.375 0 1 1 0 6.75 3.375 3.375 0 0 1 0-6.75m0 1.5a1.875 1.875 0 1 0 0 3.75 1.875 1.875 0 0 0 0-3.75"/></svg>