<svg xmlns="http://www.w3.org/2000/svg" width="24" height="24" fill="none" data-fui-icon="true" viewBox="0 0 24 24"><path fill="currentColor" d="M10.972 1.25a.75.75 0 0 1 0 1.5h-3A5.25 5.25 0 0 0 2.722 8v8c0 2.9 2.35 5.25 5.25 5.25h8c2.899 0 5.25-2.35 5.25-5.25v-3a.75.75 0 0 1 1.5 0v3a6.75 6.75 0 0 1-6.75 6.75h-8A6.75 6.75 0 0 1 1.222 16V8a6.75 6.75 0 0 1 6.75-6.75zm6.754.634a2.75 2.75 0 0 1 3.888 0l.707.707a2.75 2.75 0 0 1 0 3.889l-8.205 8.206a2.75 2.75 0 0 1-1.944.805h-1.907a1.55 1.55 0 0 1-1.55-1.55v-1.907c0-.73.289-1.43.805-1.945zM10.58 11.15a1.25 1.25 0 0 0-.365.884v1.908a.05.05 0 0 0 .05.049h1.907c.331 0 .65-.131.884-.366l5.918-5.918-2.476-2.475zm9.974-8.205a1.25 1.25 0 0 0-1.768 0L17.56 4.17l2.475 2.476 1.227-1.228a1.25 1.25 0 0 0 0-1.767z"/></svg>