<svg xmlns="http://www.w3.org/2000/svg" width="24" height="24" fill="none" data-fui-icon="true" viewBox="0 0 24 24"><path fill="currentColor" d="M18 1.65c1.066 0 1.984.882 1.91 2.004-.116 1.802-.49 3.131-1.014 4.149a6.7 6.7 0 0 1-1.813 2.194c-.306.246-.608.456-.862.635-.264.186-.47.335-.638.486-.3.27-.434.5-.434.882s.134.613.434.883c.168.15.373.3.638.486.254.18.556.389.862.635a6.7 6.7 0 0 1 1.813 2.194c.525 1.018.898 2.347 1.015 4.149.073 1.122-.845 2.003-1.911 2.004H6c-1.067 0-1.984-.882-1.911-2.004.117-1.802.49-3.131 1.014-4.149a6.7 6.7 0 0 1 1.813-2.194c.306-.246.608-.456.862-.635a7 7 0 0 0 .639-.486c.3-.27.432-.501.432-.883s-.132-.612-.432-.882a7 7 0 0 0-.639-.486c-.254-.18-.556-.389-.862-.635a6.7 6.7 0 0 1-1.813-2.194C4.58 6.785 4.206 5.456 4.09 3.654c-.073-1.122.844-2.003 1.91-2.004zM6 3.15c-.259 0-.427.207-.414.407.106 1.643.44 2.762.85 3.558.408.79.911 1.304 1.42 1.713.261.21.52.389.787.577.257.181.533.379.777.598.523.47.93 1.079.93 1.997s-.407 1.526-.93 1.997c-.244.22-.52.417-.777.598-.267.188-.526.368-.787.578-.509.41-1.013.923-1.42 1.713-.41.796-.744 1.915-.85 3.558-.013.2.155.406.414.407h12c.258 0 .426-.207.414-.407-.107-1.643-.441-2.762-.852-3.558a5.2 5.2 0 0 0-1.419-1.713c-.26-.21-.52-.39-.787-.578a8 8 0 0 1-.777-.598c-.523-.47-.93-1.08-.93-1.997 0-.918.407-1.526.93-1.997.243-.22.52-.417.777-.598.267-.188.526-.367.787-.577a5.2 5.2 0 0 0 1.42-1.713c.41-.796.744-1.915.85-3.558.014-.2-.155-.407-.413-.407zm9.598 2.175c.332 0 .607.273.518.592-.362 1.297-1.843 2.535-3.458 3.317a1.51 1.51 0 0 1-1.316 0c-1.615-.782-3.097-2.02-3.458-3.317-.09-.319.186-.592.517-.592z"/></svg>