<svg xmlns="http://www.w3.org/2000/svg" width="32" height="32" fill="none" data-fui-icon="true" viewBox="0 0 32 32"><path fill="currentColor" d="M12.333 4.25a.75.75 0 0 1 0 1.5H9.267c-.76 0-1.284 0-1.69.034-.399.033-.618.093-.78.175-.36.184-.654.477-.838.838-.082.162-.142.381-.175.78-.033.406-.034.93-.034 1.69v13.466c0 .76 0 1.284.034 1.69.033.399.093.618.175.78.184.36.477.654.838.838.162.082.381.142.78.175.406.033.93.034 1.69.034h13.466c.76 0 1.284 0 1.69-.034.399-.033.618-.093.78-.175.36-.184.654-.477.838-.838.082-.162.142-.381.175-.78.033-.406.034-.93.034-1.69v-3.066a.75.75 0 0 1 1.5 0v3.066c0 .735 0 1.33-.04 1.813-.04.49-.124.93-.332 1.339a3.4 3.4 0 0 1-1.493 1.493c-.409.208-.848.293-1.34.333-.481.04-1.077.039-1.812.039H9.267c-.735 0-1.33 0-1.813-.04-.49-.04-.93-.124-1.339-.332a3.4 3.4 0 0 1-1.493-1.493c-.208-.409-.293-.848-.333-1.34-.04-.481-.039-1.077-.039-1.812V9.267c0-.735 0-1.33.04-1.813.04-.49.124-.93.332-1.339a3.4 3.4 0 0 1 1.493-1.493c.409-.208.848-.293 1.34-.333.481-.04 1.077-.039 1.812-.039zM27 4.25a.75.75 0 0 1 .75.75v8.667a.75.75 0 0 1-1.5 0V6.811L15.197 17.863a.75.75 0 1 1-1.06-1.06L25.189 5.75h-6.856a.75.75 0 0 1 0-1.5z"/></svg>