<svg xmlns="http://www.w3.org/2000/svg" width="24" height="24" fill="none" data-fui-icon="true" viewBox="0 0 24 24"><path fill="currentColor" d="M1.22 1.22a.75.75 0 0 1 1.06 0l20.5 20.5a.75.75 0 0 1-1.06 1.06l-4.693-4.692a.3.3 0 0 0-.212-.088H13.05a.3.3 0 0 0-.3.3v3.95a.75.75 0 0 1-1.5 0V18.3a.3.3 0 0 0-.3-.3H6.56c-2.193 0-3.62-2.308-2.64-4.27l1.906-3.808c.115-.23.174-.482.174-.738v-2a.3.3 0 0 0-.088-.211L1.22 2.28a.75.75 0 0 1 0-1.06M15.05 1A2.95 2.95 0 0 1 18 3.95v5.234c0 .256.06.509.174.738l1.905 3.808a2.92 2.92 0 0 1-.02 2.673c-.086.167-.308.188-.44.055l-.702-.701a.34.34 0 0 1-.077-.335 1.43 1.43 0 0 0-.103-1.02l-1.904-3.81a3.15 3.15 0 0 1-.333-1.408V3.95c0-.8-.65-1.45-1.45-1.45h-6.1c-.8 0-1.45.65-1.45 1.45a.161.161 0 0 1-.275.114l-.934-.934a.28.28 0 0 1-.066-.307A2.95 2.95 0 0 1 8.95 1zM7.5 9.184c0 .488-.114.97-.333 1.408l-1.904 3.81A1.45 1.45 0 0 0 6.56 16.5h8.155a.3.3 0 0 0 .212-.512L7.941 9a.258.258 0 0 0-.441.183"/></svg>