<svg xmlns="http://www.w3.org/2000/svg" width="12" height="12" fill="none" data-fui-icon="true" viewBox="0 0 12 12"><g clip-path="url(#a)"><path fill="currentColor" d="M9.75 0A2.25 2.25 0 0 1 12 2.25v7.5A2.25 2.25 0 0 1 9.75 12h-7.5A2.25 2.25 0 0 1 0 9.75v-7.5A2.25 2.25 0 0 1 2.25 0zm-7.5 1.5a.75.75 0 0 0-.75.75v7.5a.75.75 0 0 0 .673.746l.077.004h7.5a.75.75 0 0 0 .75-.75v-7.5a.75.75 0 0 0-.75-.75zM6 2.25a3.75 3.75 0 1 1 0 7.5 3.75 3.75 0 0 1 0-7.5m-2.122 4.5c.226.64.733 1.146 1.372 1.372V6.75zm2.872 0v1.372A2.26 2.26 0 0 0 8.122 6.75zm-1.5-2.872A2.26 2.26 0 0 0 3.878 5.25H5.25zm1.5 1.372h1.372A2.26 2.26 0 0 0 6.75 3.878z"/></g><defs><clipPath id="a"><path fill="currentColor" d="M0 0h12v12H0z"/></clipPath></defs></svg>