<svg xmlns="http://www.w3.org/2000/svg" width="20" height="20" fill="none" data-fui-icon="true" viewBox="0 0 20 20"><path fill="currentColor" d="m11.832 19.205.118.603a10 10 0 0 1-3.901 0l.119-.603.172-.867a8.55 8.55 0 0 0 3.32 0zm-8.901-4.483a8.6 8.6 0 0 0 2.347 2.347l-.418.622.001.001-.182.273-.236.349a10.1 10.1 0 0 1-2.757-2.758zm14.76.417h.001l.555.372.067.045a10.1 10.1 0 0 1-2.758 2.758l-.235-.35-.182-.272-.417-.623a8.6 8.6 0 0 0 2.347-2.347zm-16.029-6.8a8.55 8.55 0 0 0 0 3.321l-1.47.29a10.05 10.05 0 0 1 0-3.901zm18.146-.29a10 10 0 0 1 0 3.901l-1.47-.29a8.55 8.55 0 0 0 0-3.32zM4.86 2.308l.417.623a8.6 8.6 0 0 0-2.347 2.347l-.623-.418v.001l-.622-.418a10.1 10.1 0 0 1 2.757-2.757zm10.695-.622c1.09.73 2.028 1.667 2.758 2.757l-.622.418-.623.417a8.6 8.6 0 0 0-2.347-2.347l.417-.623zM10 0c.667 0 1.32.067 1.95.191l-.29 1.471a8.6 8.6 0 0 0-3.32 0L8.049.192A10 10 0 0 1 10 0"/></svg>