<svg xmlns="http://www.w3.org/2000/svg" width="24" height="24" fill="none" data-fui-icon="true" viewBox="0 0 24 24"><path fill="currentColor" d="M12 1a8.5 8.5 0 0 1 8.5 8.5c0 3.535-2.08 6.896-4.044 9.299a31.3 31.3 0 0 1-3.633 3.74q-.165.142-.257.217l-.07.058-.019.014-.005.005-.002.002a.75.75 0 0 1-.831.072l-.109-.072-.002-.002-.005-.005-.02-.014q-.024-.02-.07-.058-.091-.075-.256-.218a31.302 31.302 0 0 1-3.633-3.74C5.58 16.397 3.5 13.036 3.5 9.5A8.5 8.5 0 0 1 12 1m0 1.5a7 7 0 0 0-7 7c0 2.995 1.794 6.01 3.706 8.35A30 30 0 0 0 12 21.264a29.82 29.82 0 0 0 3.294-3.414C17.206 15.51 19 12.495 19 9.5a7 7 0 0 0-7-7M12 5a4.5 4.5 0 1 1 0 9 4.5 4.5 0 0 1 0-9m0 1.5a3 3 0 1 0 0 6 3 3 0 0 0 0-6"/></svg>