<svg xmlns="http://www.w3.org/2000/svg" width="20" height="20" fill="none" data-fui-icon="true" viewBox="0 0 20 20"><path fill="currentColor" d="M17.778 3.887c.305 0 .555.25.555.555v11.111c0 .306-.25.556-.555.556H2.222a.557.557 0 0 1-.555-.556V4.443c0-.306.25-.556.555-.556zM2.222 2.22A2.224 2.224 0 0 0 0 4.442v11.111c0 1.226.997 2.223 2.222 2.223h15.556A2.224 2.224 0 0 0 20 15.553V4.443a2.224 2.224 0 0 0-2.222-2.223zm4.722 6.111c.494 0 .938.212 1.244.556A.834.834 0 0 0 9.43 7.776a3.334 3.334 0 1 0-2.483 5.556c.986 0 1.875-.431 2.483-1.112a.834.834 0 0 0-1.243-1.111A1.667 1.667 0 1 1 6.945 8.33m5 1.667a1.667 1.667 0 0 1 2.91-1.111.834.834 0 0 0 1.243-1.111 3.334 3.334 0 1 0-2.483 5.556c.987 0 1.876-.431 2.483-1.112a.834.834 0 0 0-1.243-1.111 1.667 1.667 0 0 1-2.91-1.111"/></svg>