<svg xmlns="http://www.w3.org/2000/svg" width="12" height="12" fill="none" data-fui-icon="true" viewBox="0 0 12 12"><path fill="currentColor" d="M5.96.625c.465 0 .91.185 1.238.513l2.664 2.664c.329.328.513.773.513 1.237v4.586a1.75 1.75 0 0 1-1.75 1.75h-5.25a1.75 1.75 0 0 1-1.75-1.75v-7.25c0-.966.784-1.75 1.75-1.75zm-2.585 1.5a.25.25 0 0 0-.25.25v7.25c0 .138.112.25.25.25h5.25a.25.25 0 0 0 .25-.25v-4.25h-1.5a1.75 1.75 0 0 1-1.75-1.75v-1.5zm3.938 5.563a.75.75 0 0 1 0 1.5H4.688a.75.75 0 0 1 0-1.5zm-1.24-2.055a.75.75 0 0 1 0 1.5H4.687a.75.75 0 1 1 0-1.5zm1.052-2.008c0 .138.112.25.25.25h.44l-.69-.69z"/></svg>