<svg xmlns="http://www.w3.org/2000/svg" width="12" height="12" fill="none" data-fui-icon="true" viewBox="0 0 12 12"><path fill="currentColor" d="M6 0a6 6 0 1 1 0 12A6 6 0 0 1 6 0m0 1.5a4.5 4.5 0 1 0 0 9 4.5 4.5 0 0 0 0-9M6.004 3c.342 0 1.578-.036 2.173 1.206a.75.75 0 0 1-1.354.647.52.52 0 0 0-.317-.298c-.147-.05-.309-.055-.502-.055-.327 0-.517.107-.62.202a.5.5 0 0 0-.112.149.2.2 0 0 0-.022.07c0 .094.02.126.022.132.005.007.021.032.08.067.157.093.4.155.81.246.34.076.847.18 1.253.422.22.131.44.318.6.584.161.27.235.576.235.902C8.25 8.371 7.202 9 6.004 9c-.29 0-.656-.068-.997-.186-.337-.115-.745-.312-1.049-.63a.75.75 0 0 1 1.084-1.036c.07.074.226.17.452.248.221.077.42.104.51.104.39 0 .595-.095.682-.158.044-.033.06-.057.064-.068 0-.092-.02-.125-.022-.13a.2.2 0 0 0-.08-.068c-.157-.093-.4-.154-.81-.245-.34-.075-.847-.18-1.253-.423a1.7 1.7 0 0 1-.6-.584 1.73 1.73 0 0 1-.235-.902C3.75 3.97 4.632 3 6.004 3"/></svg>