<svg xmlns="http://www.w3.org/2000/svg" width="12" height="12" fill="none" data-fui-icon="true" viewBox="0 0 12 12"><path fill="currentColor" d="M4.832 1.345c.643-.423 1.543.03 1.543.84v1.332c1.81.09 3.186.534 4.098 1.585 1.006 1.161 1.277 2.883 1.277 5.023a.75.75 0 0 1-1.42.335l.67-.335-.67.335c-.392-.784-.585-1.157-1.074-1.433-.468-.264-1.278-.47-2.88-.517v1.304c0 .865-1.025 1.322-1.669.745L.457 6.744a1 1 0 0 1 0-1.488l4.25-3.816zM1.872 6l3.003 2.693V7.75a.75.75 0 0 1 .75-.75c2.138 0 3.468.212 4.37.722l.069.042c-.15-.751-.388-1.29-.725-1.68C8.747 5.403 7.691 5 5.625 5a.75.75 0 0 1-.75-.75v-.944z"/></svg>