<svg xmlns="http://www.w3.org/2000/svg" width="24" height="24" fill="none" data-fui-icon="true" viewBox="0 0 24 24"><path fill="currentColor" d="M19.475 15.947a2.275 2.275 0 0 1 2.275 2.276c0 2.13-1.733 3.707-3.8 3.707H6.05c-2.067 0-3.8-1.578-3.8-3.707a2.275 2.275 0 0 1 2.275-2.276zm-14.95 1.5a.776.776 0 0 0-.775.776c0 1.24 1 2.207 2.3 2.207h11.9c1.3 0 2.3-.967 2.3-2.207a.775.775 0 0 0-.776-.776zm11.465-5.046c1.023-1.533 3.276-1.533 4.299 0 .202.303.559.476.914.483a.75.75 0 1 1-.031 1.499c-.782-.016-1.623-.388-2.131-1.15a1.083 1.083 0 0 0-1.803 0c-1.023 1.534-3.276 1.534-4.299 0a1.083 1.083 0 0 0-1.802 0c-1.023 1.534-3.277 1.534-4.3 0a1.083 1.083 0 0 0-1.802 0c-.53.795-1.42 1.166-2.238 1.15a.75.75 0 0 1 .031-1.5c.37.008.747-.165.959-.482 1.023-1.533 3.276-1.533 4.299 0a1.084 1.084 0 0 0 1.803 0c1.022-1.533 3.276-1.533 4.298 0a1.084 1.084 0 0 0 1.803 0m.434-10.292a5.326 5.326 0 0 1 5.326 5.327c0 .612-.243 1.216-.62 1.67-.376.455-.953.831-1.655.832H4.525c-.702 0-1.279-.377-1.656-.832a2.67 2.67 0 0 1-.62-1.67 5.326 5.326 0 0 1 5.327-5.327zm-8.848 1.5A3.826 3.826 0 0 0 3.75 7.436c0 .23.099.501.274.712s.36.29.501.29h14.95c.14 0 .325-.079.5-.29.176-.21.275-.483.275-.712a3.826 3.826 0 0 0-3.826-3.827z"/></svg>