<svg xmlns="http://www.w3.org/2000/svg" width="32" height="32" fill="none" data-fui-icon="true" viewBox="0 0 32 32"><path fill="currentColor" d="M16 4c4.927 0 8.766 2.66 11.405 5.378 2.642 2.722 4.16 5.583 4.463 6.18a.97.97 0 0 1 0 .884c-.303.596-1.821 3.458-4.463 6.18C24.766 25.34 20.927 28 16 28s-8.765-2.66-11.404-5.378C1.954 19.9.435 17.038.132 16.442a.97.97 0 0 1 0-.884l.171-.325c.53-.983 1.981-3.473 4.293-5.855C7.235 6.659 11.074 4 16 4m0 1.5c-4.355 0-7.83 2.35-10.328 4.923A26 26 0 0 0 1.594 16c.46.863 1.847 3.278 4.078 5.577C8.17 24.15 11.645 26.5 16 26.5c4.356 0 7.831-2.35 10.329-4.923A25.9 25.9 0 0 0 30.406 16a25.9 25.9 0 0 0-4.077-5.577C23.83 7.85 20.356 5.5 16 5.5M16 9a7 7 0 1 1 0 14 7 7 0 0 1 0-14m0 1.5a5.5 5.5 0 1 0 0 11 5.5 5.5 0 0 0 0-11"/></svg>