<svg xmlns="http://www.w3.org/2000/svg" width="24" height="24" fill="none" data-fui-icon="true" viewBox="0 0 24 24"><path fill="currentColor" d="M12 1.25c5.937 0 10.75 4.813 10.75 10.75S17.937 22.75 12 22.75 1.25 17.937 1.25 12 6.063 1.25 12 1.25m0 1.5a9.25 9.25 0 1 0 0 18.5 9.25 9.25 0 0 0 0-18.5m2.864 4.258c1.33-.504 2.632.798 2.128 2.128l-1.722 4.539a2.75 2.75 0 0 1-1.595 1.595l-4.54 1.722c-1.33.504-2.631-.798-2.127-2.128l1.721-4.539a2.75 2.75 0 0 1 1.596-1.596zm.531 1.402-4.538 1.722a1.25 1.25 0 0 0-.725.725L8.41 15.396a.15.15 0 0 0 .194.194l4.539-1.722c.334-.127.598-.391.725-.725l1.722-4.539a.15.15 0 0 0-.194-.194"/></svg>