<svg xmlns="http://www.w3.org/2000/svg" width="12" height="12" fill="none" data-fui-icon="true" viewBox="0 0 12 12"><path fill="currentColor" d="M7.103 7.329a.5.5 0 0 0-.707-.708l-.696.697-.097-.097a.5.5 0 1 0-.707.708l.45.45a.5.5 0 0 0 .707 0z"/><path fill="currentColor" fill-rule="evenodd" d="M2.125.625c-.782 0-1.599.67-1.42 1.634.236 1.262.937 2.177 1.548 2.762.287.275.562.484.775.63a3.5 3.5 0 1 0 5.944 0c.213-.146.488-.355.775-.63.611-.585 1.312-1.5 1.547-2.762.18-.964-.638-1.634-1.42-1.634h-.85c-.994 0-1.673.794-1.834 1.596a4.6 4.6 0 0 1-.724 1.693q-.043.06-.063.084l-.013.016.001-.001.013.01a3.5 3.5 0 0 0-.808 0l.012-.01h.001l-.012-.015-.063-.084a4.579 4.579 0 0 1-.724-1.693C4.65 1.419 3.97.625 2.976.625zm5.778 3.93-.006.003-.04-.026q.067-.106.14-.236a6.1 6.1 0 0 0 .663-1.78.57.57 0 0 1 .162-.3c.071-.068.14-.091.202-.091h.766c-.183.784-.635 1.387-1.08 1.812a4.7 4.7 0 0 1-.807.617m-3.76-.023a6.079 6.079 0 0 1-.804-2.016.57.57 0 0 0-.161-.3.3.3 0 0 0-.202-.091H2.21c.183.784.635 1.387 1.08 1.812a4.7 4.7 0 0 0 .807.617l.006.004zM8 7.5a2 2 0 1 1-4 0 2 2 0 0 1 4 0" clip-rule="evenodd"/></svg>