<svg xmlns="http://www.w3.org/2000/svg" width="20" height="20" fill="none" data-fui-icon="true" viewBox="0 0 20 20"><path fill="currentColor" d="M1.657 1.658a.75.75 0 0 1 .985-.066l15.765 15.765a.75.75 0 0 1-1.125.986l-2.875-2.875c-.142-.142-.38-.114-.5.046a4.48 4.48 0 0 1-3.594 1.8H5.937a4.5 4.5 0 0 1-4.494-4.27l-.006-.23V7.187c0-1.175.452-2.244 1.19-3.045a.33.33 0 0 0-.002-.457l-.968-.967a.75.75 0 0 1 0-1.061m2.47 3.53a.29.29 0 0 0-.422 0 2.98 2.98 0 0 0-.768 2v5.625l.004.154a3 3 0 0 0 2.997 2.846h4.375a2.99 2.99 0 0 0 2.611-1.532.29.29 0 0 0-.055-.35zm6.186-2.5c1.719 0 3.211.964 3.968 2.38.103.192.36.25.52.103l.832-.758c1.123-1.025 2.929-.229 2.93 1.292v8.59q-.001.263-.07.492c-.057.198-.303.232-.448.087l-.891-.891a.31.31 0 0 1-.091-.221V5.705a.25.25 0 0 0-.418-.185l-1.997 1.823c-.51.464-1.284.123-1.358-.508a3 3 0 0 0-2.977-2.647H7.489a.31.31 0 0 1-.221-.091L5.915 2.744c-.02-.02-.006-.056.022-.056z"/></svg>