<svg xmlns="http://www.w3.org/2000/svg" width="32" height="32" fill="none" data-fui-icon="true" viewBox="0 0 32 32"><path fill="currentColor" d="M20.044 2.25a4.75 4.75 0 0 1 3.749 1.834l1.509 1.94c.357.458.905.726 1.486.726a4.96 4.96 0 0 1 4.962 4.962V24.7a5.55 5.55 0 0 1-5.55 5.55H5.8A5.55 5.55 0 0 1 .25 24.7V11.712A4.96 4.96 0 0 1 5.212 6.75c.58 0 1.13-.268 1.486-.727l1.509-1.939a4.75 4.75 0 0 1 3.75-1.834zm-8.088 1.5a3.25 3.25 0 0 0-2.565 1.255l-1.508 1.94A3.38 3.38 0 0 1 5.212 8.25a3.46 3.46 0 0 0-3.462 3.462V24.7a4.05 4.05 0 0 0 4.05 4.05h20.4a4.05 4.05 0 0 0 4.05-4.05V11.712a3.46 3.46 0 0 0-3.462-3.462 3.38 3.38 0 0 1-2.67-1.306l-1.509-1.94a3.25 3.25 0 0 0-2.565-1.254zm4.044 6a7.25 7.25 0 1 1 0 14.5 7.25 7.25 0 0 1 0-14.5m0 1.5a5.75 5.75 0 1 0 0 11.5 5.75 5.75 0 0 0 0-11.5"/></svg>