<svg xmlns="http://www.w3.org/2000/svg" width="16" height="16" fill="none" data-fui-icon="true" viewBox="0 0 16 16"><path fill="currentColor" d="M8 0a8 8 0 1 1 0 16A8 8 0 0 1 8 0m.099 2.719q-1.222 0-2.224.38a4.9 4.9 0 0 0-1.717 1.079 4.75 4.75 0 0 0-1.1 1.673q-.386.968-.386 2.163 0 1.189.386 2.158.391.969 1.106 1.662a4.9 4.9 0 0 0 1.723 1.073q1 .38 2.234.38.991 0 1.706-.192.465-.124.781-.233a.315.315 0 0 0 .186-.417l-.228-.578a.355.355 0 0 0-.439-.201q-.255.081-.607.174-.612.159-1.405.159-1.243 0-2.151-.49a3.4 3.4 0 0 1-1.399-1.376q-.495-.897-.495-2.124t.495-2.125A3.43 3.43 0 0 1 5.97 4.497q.908-.49 2.152-.49 1.173 0 2.031.451a3.14 3.14 0 0 1 1.327 1.288q.467.837.467 2.015 0 .886-.275 1.392-.27.501-.748.501a.48.48 0 0 1-.358-.132q-.127-.137-.127-.457V5.7a.334.334 0 0 0-.333-.334h-.561a.273.273 0 0 0-.273.273v.27l-.003.002-.003-.002q-.154-.268-.55-.466-.396-.203-.946-.203-.671 0-1.239.33-.567.325-.913.942-.346.616-.347 1.49 0 .806.308 1.443.309.633.87 1.002.562.369 1.326.368.666 0 1.074-.263.406-.27.544-.62 0-.003.004-.002.002 0 .002.003.068.328.418.624.353.297 1.074.297 1.15 0 1.794-.815.644-.82.644-2.3 0-1.514-.65-2.642a4.47 4.47 0 0 0-1.826-1.75q-1.173-.628-2.753-.628m-.176 3.726q.622 0 .952.408.336.4.336 1.15 0 .743-.336 1.15-.33.402-.952.402-.644 0-.996-.402-.347-.402-.347-1.15 0-.75.347-1.15.352-.408.996-.408"/></svg>