<svg xmlns="http://www.w3.org/2000/svg" width="16" height="16" fill="none" data-fui-icon="true" viewBox="0 0 16 16"><path fill="currentColor" d="M14.25 8a.75.75 0 0 1 .75.75v2.537a3.75 3.75 0 0 1-3.75 3.75h-6.5A3.75 3.75 0 0 1 1 11.287V8.75a.75.75 0 0 1 1.5 0v2.537a2.25 2.25 0 0 0 2.25 2.25h6.5a2.25 2.25 0 0 0 2.25-2.25V8.75a.75.75 0 0 1 .75-.75M7.234 1.318a1.084 1.084 0 0 1 1.45-.075l.083.074 3.152 3.153a.75.75 0 0 1-1.06 1.06L8.75 3.422 8.749 9.25a.75.75 0 0 1-1.5 0l.001-5.827L5.142 5.53A.75.75 0 0 1 4.08 4.47z"/></svg>