<svg xmlns="http://www.w3.org/2000/svg" width="24" height="24" fill="none" data-fui-icon="true" viewBox="0 0 24 24"><path fill="currentColor" d="M8 12c1.961 0 3.553.783 4.717 2.085 1.149 1.285 1.854 3.041 2.153 4.981.165 1.07-.698 1.934-1.696 1.934H2.825c-.997 0-1.861-.864-1.696-1.934.3-1.94 1.006-3.696 2.154-4.981C4.447 12.783 6.04 12 8 12m9 0c1.722 0 3.13.667 4.168 1.785 1.024 1.103 1.659 2.61 1.942 4.27.184 1.08-.692 1.945-1.687 1.945H17.75a.75.75 0 0 1 0-1.5h3.673a.23.23 0 0 0 .172-.072.14.14 0 0 0 .036-.121c-.248-1.458-.789-2.667-1.562-3.5-.76-.818-1.772-1.307-3.069-1.307q-.584.002-1.082.125a.75.75 0 0 1-.355-1.457A6 6 0 0 1 17 12m-9 1.5c-1.521 0-2.71.592-3.599 1.585-.903 1.01-1.52 2.47-1.79 4.21a.15.15 0 0 0 .041.132.23.23 0 0 0 .173.073h10.349a.23.23 0 0 0 .173-.073.15.15 0 0 0 .04-.132c-.268-1.74-.885-3.2-1.788-4.21C10.71 14.092 9.52 13.5 8 13.5M8 3a4 4 0 1 1 0 8 4 4 0 0 1 0-8m9 1a3.5 3.5 0 1 1 0 7 3.5 3.5 0 0 1 0-7m-9 .5a2.5 2.5 0 1 0 0 5 2.5 2.5 0 0 0 0-5m9 1a2 2 0 1 0 0 4 2 2 0 0 0 0-4"/></svg>