<svg xmlns="http://www.w3.org/2000/svg" width="12" height="12" fill="none" data-fui-icon="true" viewBox="0 0 12 12"><g clip-path="url(#a)"><path stroke="currentColor" stroke-linecap="round" stroke-linejoin="round" stroke-width="1.5" d="M9.942 5V3.54a1.29 1.29 0 0 0-1.29-1.29H2.04A1.29 1.29 0 0 0 .75 3.54v4.92c0 .712.578 1.29 1.29 1.29H7.5"/><path stroke="currentColor" stroke-linecap="round" stroke-linejoin="round" stroke-width="1.5" d="m.75 3.818 3.574 2.149c.309.185.662.283 1.022.283v0c.36 0 .713-.098 1.022-.283l3.574-2.149"/><path fill="currentColor" d="m11.82 7.822-1.394-1.376a.25.25 0 0 0-.426.178v2.752a.25.25 0 0 0 .426.178l1.394-1.376a.25.25 0 0 0 0-.356"/><path stroke="currentColor" stroke-linecap="round" stroke-linejoin="round" stroke-width="1.5" d="M8 8h2.25"/></g><defs><clipPath id="a"><path fill="currentColor" d="M0 0h12v12H0z"/></clipPath></defs></svg>