<svg xmlns="http://www.w3.org/2000/svg" width="20" height="20" fill="none" data-fui-icon="true" viewBox="0 0 20 20"><path fill="currentColor" d="M8.276 2.242c.773-1.314 2.674-1.314 3.447 0l7.815 13.285c.784 1.334-.177 3.014-1.724 3.014H2.185c-1.547 0-2.508-1.68-1.723-3.014zm7.803 10.364a9.5 9.5 0 0 1-1.508 1.638C13.495 15.16 11.967 16 10 16c-1.968 0-3.496-.84-4.572-1.756a9.5 9.5 0 0 1-1.508-1.638l-2.165 3.682a.5.5 0 0 0 .43.753h15.63a.5.5 0 0 0 .43-.753zM13.19 9.133q.06.3.06.617a3.25 3.25 0 1 1-6.443-.617 7 7 0 0 0-.4.332 8.4 8.4 0 0 0-1.54 1.864A8 8 0 0 0 6.4 13.102c.89.757 2.087 1.398 3.6 1.398s2.709-.64 3.6-1.398a8 8 0 0 0 1.532-1.773 8.4 8.4 0 0 0-1.54-1.864 7 7 0 0 0-.402-.332M10 8a1.75 1.75 0 1 0 0 3.5A1.75 1.75 0 0 0 10 8m.43-4.997a.5.5 0 0 0-.861 0L7.11 7.183A6.45 6.45 0 0 1 10 6.5l.167.004h.02a6.45 6.45 0 0 1 2.701.679z"/></svg>