<svg xmlns="http://www.w3.org/2000/svg" width="12" height="12" fill="none" data-fui-icon="true" viewBox="0 0 12 12"><path fill="currentColor" d="M8.25 5.46c.222 0 .44.063.628.182L10.52 6.68c.31.196.5.538.5.905v1.829c0 .367-.19.71-.5.905l-1.643 1.04a1.18 1.18 0 0 1-1.256 0l-1.644-1.04a1.07 1.07 0 0 1-.499-.905v-1.83c0-.366.189-.708.499-.904l1.644-1.04c.188-.118.406-.181.628-.181M9.75 1A2.25 2.25 0 0 1 12 3.25v2a.75.75 0 0 1-1.5 0v-2a.75.75 0 0 0-.75-.75h-7.5a.75.75 0 0 0-.75.75v5.5c0 .414.336.75.75.75H4A.75.75 0 0 1 4 11H2.25A2.25 2.25 0 0 1 0 8.75v-5.5A2.25 2.25 0 0 1 2.25 1zM6.98 7.822v1.356l1.269.803 1.272-.803V7.823L8.249 7.02zM2.874 3.25a.625.625 0 1 1 0 1.25.625.625 0 0 1 0-1.25m1.75 0a.625.625 0 1 1 0 1.25.625.625 0 0 1 0-1.25m1.75 0a.625.625 0 1 1 0 1.25.625.625 0 0 1 0-1.25"/></svg>