<svg xmlns="http://www.w3.org/2000/svg" width="16" height="16" fill="none" data-fui-icon="true" viewBox="0 0 16 16"><path fill="currentColor" d="M10.829 2a4.75 4.75 0 0 1 4.732 4.344l.4 4.67A2.75 2.75 0 0 1 13.221 14h-.056c-.593 0-1.17-.191-1.646-.546l-1.435-1.072a1.25 1.25 0 0 0-.748-.248H6.665c-.27 0-.533.087-.748.248L4.48 13.454A2.75 2.75 0 0 1 2.836 14H2.78a2.75 2.75 0 0 1-2.74-2.986l.4-4.67A4.75 4.75 0 0 1 5.172 2zM5.172 3.5a3.25 3.25 0 0 0-3.238 2.972l-.4 4.671A1.25 1.25 0 0 0 2.779 12.5h.057c.27 0 .532-.087.748-.248l1.435-1.073a2.75 2.75 0 0 1 1.646-.546h2.671c.593 0 1.17.193 1.645.547l1.435 1.072c.216.16.48.248.749.248h.056a1.25 1.25 0 0 0 1.246-1.357l-.4-4.67A3.25 3.25 0 0 0 10.829 3.5zM5.5 5a.75.75 0 0 1 .75.75v.75H7A.75.75 0 0 1 7 8h-.75v.75a.75.75 0 1 1-1.5 0V8H4a.75.75 0 0 1 0-1.5h.75v-.75A.75.75 0 0 1 5.5 5m4.25 2.25a1 1 0 1 1 0 2 1 1 0 0 1 0-2m2-2a1 1 0 1 1 0 2 1 1 0 0 1 0-2"/></svg>