<svg xmlns="http://www.w3.org/2000/svg" width="12" height="12" fill="none" data-fui-icon="true" viewBox="0 0 12 12"><path fill="currentColor" d="M8.618 1.564a.75.75 0 0 1 1.45.389l-.383 1.426h1.056a.75.75 0 0 1 0 1.5H9.283L8.66 7.21h1.17a.75.75 0 0 1 0 1.5H8.257l-.438 1.632a.75.75 0 0 1-1.449-.388l.334-1.245H3.88l-.438 1.633a.75.75 0 0 1-1.449-.388l.334-1.245h-1.07a.75.75 0 0 1 0-1.5H2.73l.624-2.329H2.17a.75.75 0 0 1 0-1.5h1.585l.486-1.815a.75.75 0 0 1 1.45.389l-.383 1.426h2.824zM4.282 7.208h2.823L7.73 4.88H4.906z"/></svg>