<svg xmlns="http://www.w3.org/2000/svg" width="12" height="12" fill="none" data-fui-icon="true" viewBox="0 0 12 12"><path fill="currentColor" d="M9 4a1 1 0 1 0 0-2 1 1 0 0 0 0 2"/><path fill="currentColor" fill-rule="evenodd" d="M5 0a2 2 0 0 0-2 2v5a2 2 0 0 0 2 2h5a2 2 0 0 0 2-2V2a2 2 0 0 0-2-2zm-.5 2a.5.5 0 0 1 .5-.5h5a.5.5 0 0 1 .5.5v5a.5.5 0 0 1-.024.153l-2.84-2.557a1.35 1.35 0 0 0-1.926.124L4.5 6.128z" clip-rule="evenodd"/><path fill="currentColor" d="M1.5 3.75a.75.75 0 0 0-1.5 0V10a2 2 0 0 0 2 2h6.25a.75.75 0 0 0 0-1.5H2a.5.5 0 0 1-.5-.5z"/></svg>