<svg xmlns="http://www.w3.org/2000/svg" width="32" height="32" fill="none" data-fui-icon="true" viewBox="0 0 32 32"><path fill="currentColor" d="M28.704 3.687c.148.006.327.028.514.073.244.058.558.17.832.39l.004.003c.473.388.586.902.63 1.143l.001.007.001.008c.038.232.09.756.046 1.2-.39 4.103-2.076 13.996-2.93 18.546-.372 2-1.204 3.132-2.43 3.244-.969.089-1.789-.24-2.507-.66-.357-.21-.704-.451-1.039-.688l-.507-.358-.51-.347a190 190 0 0 1-2.912-1.947c-.88-.597-1.745-1.187-2.841-1.906-.676-.444-1.176-.901-1.445-1.414a1.81 1.81 0 0 1-.052-1.626c.198-.449.548-.84.873-1.17.168-.17.35-.345.526-.513.178-.172.354-.342.524-.519.207-.214 1.991-1.844 3.673-3.427.545-.513 1.083-1.027 1.567-1.496l-.727.477a1106 1106 0 0 0-7.977 5.327c-1.096.752-2.18 1.184-3.235 1.161-.55-.012-1.294-.16-2.02-.341a32 32 0 0 1-1.681-.475l-.523-.165c-.747-.243-1.563-.47-2.133-.745-.294-.142-.608-.335-.84-.617a1.46 1.46 0 0 1-.323-1.134c.068-.54.446-.935.82-1.211.39-.289.916-.553 1.543-.803l5.169-2.24q7.05-3.046 9.877-4.22c3.58-1.484 5.758-2.362 7.165-2.87 1.394-.505 2.11-.678 2.73-.69zm-.111 1.498c-.352.006-.865.1-2.245.6-1.028.37-2.492.95-4.672 1.843l-2.43 1Q15.5 10.186 4.225 15.08l-.012.005-.01.004c-.584.231-.982.443-1.227.624a1 1 0 0 0-.216.2c.036.039.124.111.319.205.447.216 1.08.389 1.944.67.648.209 1.403.435 2.104.61.718.18 1.32.29 1.69.298.62.014 1.397-.241 2.355-.898l.006-.004q5.27-3.545 7.993-5.339 1.36-.898 2.093-1.361.365-.232.584-.36.108-.065.194-.11c.023-.012.139-.076.267-.104l.177-.036c.077-.012.168-.022.264-.021.2.001.492.05.747.274l.005.004.005.004h-.001c.258.23.339.522.365.7.026.175.014.35-.016.48h.002a1 1 0 0 1-.116.281 2 2 0 0 1-.111.164 5 5 0 0 1-.27.323c-.207.232-.488.523-.812.848-.65.652-1.506 1.47-2.364 2.276-.858.809-1.725 1.612-2.399 2.237l-1.186 1.106-.025.025-.008.006-.002.002v.002c-.192.199-.386.386-.565.558-.183.176-.348.332-.498.485-.313.318-.489.543-.568.721-.055.126-.056.204.008.326.093.177.341.463.939.856 1.107.726 1.983 1.322 2.861 1.919.879.596 1.762 1.195 2.89 1.932.377.247.737.506 1.062.736.333.236.635.445.93.619.588.343 1.085.508 1.614.46.153-.014.747-.174 1.092-2.026.855-4.555 2.529-14.386 2.912-18.41v-.006a4 4 0 0 0-.032-.802c-.029-.157-.061-.213-.103-.248a.7.7 0 0 0-.236-.096 1.2 1.2 0 0 0-.276-.034"/></svg>