<svg xmlns="http://www.w3.org/2000/svg" width="24" height="24" fill="none" data-fui-icon="true" viewBox="0 0 24 24"><path fill="currentColor" d="M17.813 1c1.199 0 2.349.476 3.197 1.324l.666.666a4.52 4.52 0 0 1 0 6.395L9.281 21.78a.75.75 0 0 1-.424.212l-7 1a.75.75 0 0 1-.849-.848l1-7 .026-.118a.75.75 0 0 1 .186-.306L14.614 2.324A4.52 4.52 0 0 1 17.813 1M3.456 15.604l-.823 5.762 5.763-.823L17.44 11.5 12.5 6.56zM17.813 2.5c-.802 0-1.57.318-2.137.885L13.561 5.5l4.94 4.94 2.114-2.116a3.02 3.02 0 0 0 0-4.273l-.665-.666a3.02 3.02 0 0 0-2.137-.885"/></svg>