<svg xmlns="http://www.w3.org/2000/svg" width="20" height="20" fill="none" data-fui-icon="true" viewBox="0 0 20 20"><g clip-path="url(#a)"><g clip-path="url(#b)"><path fill="currentColor" fill-rule="evenodd" d="M.149 2.38C-.106 1.01 1.054 0 2.249 0h1.702c1.547 0 2.664 1.246 2.934 2.59a9.9 9.9 0 0 0 1.08 2.896c.164.292.316.526.436.698a7 7 0 0 1 3.198 0c.12-.172.272-.406.437-.698a9.9 9.9 0 0 0 1.08-2.897C13.384 1.246 14.501 0 16.048 0h1.701c1.196 0 2.356 1.01 2.101 2.38-.431 2.32-1.723 4.018-2.876 5.12-.542.52-1.061.913-1.461 1.187a7 7 0 1 1-11.028 0c-.4-.274-.919-.668-1.461-1.186C1.872 6.398.58 4.7.149 2.38m14.299 5.214.152-.1a10 10 0 0 0 1.338-1.078c1.013-.968 2.083-2.399 2.439-4.31a.44.44 0 0 0-.123-.4.7.7 0 0 0-.504-.206H16.05c-.663 0-1.298.562-1.463 1.385a11.4 11.4 0 0 1-1.53 3.816c.5.243.967.543 1.392.893m-7.79-1.37q.15.264.286.477c-.5.243-.967.544-1.392.893l-.152-.1a10 10 0 0 1-1.338-1.078c-1.013-.968-2.083-2.399-2.439-4.31a.44.44 0 0 1 .123-.4.7.7 0 0 1 .504-.206H3.95c.663 0 1.298.562 1.463 1.385.283 1.41.799 2.55 1.244 3.338M10 18.5a5.5 5.5 0 1 0 0-11 5.5 5.5 0 0 0 0 11" clip-rule="evenodd"/><path stroke="currentColor" stroke-linecap="round" stroke-linejoin="round" stroke-width="1.5" d="M7.5 13.5 9 15l3.5-3.5"/></g></g><defs><clipPath id="a"><path fill="currentColor" d="M0 0h20v20H0z"/></clipPath><clipPath id="b"><path fill="currentColor" d="M0 0h20v20H0z"/></clipPath></defs></svg>