<svg xmlns="http://www.w3.org/2000/svg" width="12" height="12" fill="none" data-fui-icon="true" viewBox="0 0 12 12"><g clip-path="url(#a)"><path fill="currentColor" d="M6.134.004a2.32 2.32 0 0 1 1.651.834c.114.137.201.2.26.225.059.023.16.04.34.023a2.32 2.32 0 0 1 1.861.67l.092.098c.443.497.635 1.138.578 1.757-.017.182 0 .285.024.344.026.06.09.148.226.263C11.674 4.642 12 5.283 12 6l-.004.134a2.32 2.32 0 0 1-.827 1.644c-.138.116-.202.204-.228.266-.025.06-.042.165-.025.349a2.32 2.32 0 0 1-.578 1.756l-.092.098c-.51.51-1.197.73-1.858.669-.181-.017-.284 0-.343.024-.061.026-.15.09-.264.226a2.32 2.32 0 0 1-1.647.83L6 12c-.72 0-1.363-.329-1.787-.84-.112-.135-.198-.197-.257-.222-.056-.023-.156-.04-.334-.023a2.32 2.32 0 0 1-1.765-.576l-.097-.093a2.32 2.32 0 0 1-.67-1.853c.016-.182-.001-.285-.026-.344-.025-.061-.09-.15-.227-.265a2.32 2.32 0 0 1-.833-1.65L0 6c0-.72.33-1.365.842-1.79.136-.112.199-.199.223-.258s.041-.16.025-.339a2.32 2.32 0 0 1 .67-1.856l.097-.093a2.32 2.32 0 0 1 1.767-.577c.176.017.275 0 .33-.023.058-.024.144-.086.255-.22A2.32 2.32 0 0 1 6 0zM6 1.5a.82.82 0 0 0-.635.3c-.187.227-.459.493-.834.65-.378.157-.758.158-1.049.13a.82.82 0 0 0-.591.175l-.07.062a.82.82 0 0 0-.237.659c.027.291.024.672-.133 1.051s-.425.65-.652.84A.82.82 0 0 0 1.5 6l.005.094a.82.82 0 0 0 .292.537c.227.19.495.463.652.84.159.381.16.765.134 1.057a.82.82 0 0 0 .237.658l.07.062a.82.82 0 0 0 .59.174c.292-.028.674-.026 1.053.132.375.156.646.422.834.648A.82.82 0 0 0 6 10.5l.094-.005a.82.82 0 0 0 .536-.29c.19-.227.463-.494.84-.65.38-.158.765-.16 1.057-.132a.82.82 0 0 0 .659-.236l.062-.07a.82.82 0 0 0 .174-.588c-.027-.293-.024-.677.134-1.058.156-.378.423-.652.65-.842a.82.82 0 0 0-.001-1.26c-.227-.19-.494-.462-.65-.839-.158-.38-.16-.763-.133-1.055a.82.82 0 0 0-.174-.588l-.062-.07a.82.82 0 0 0-.66-.237c-.293.027-.675.025-1.055-.133-.377-.156-.65-.422-.84-.65a.82.82 0 0 0-.537-.292zm0 5.75a.75.75 0 1 1 0 1.5.75.75 0 0 1 0-1.5M6 3a.75.75 0 0 1 .75.75v2a.75.75 0 0 1-1.5 0v-2A.75.75 0 0 1 6 3"/></g><defs><clipPath id="a"><path fill="currentColor" d="M0 0h12v12H0z"/></clipPath></defs></svg>