<svg xmlns="http://www.w3.org/2000/svg" width="20" height="20" fill="none" data-fui-icon="true" viewBox="0 0 20 20"><path fill="currentColor" d="M4.792 11.542a2.416 2.416 0 1 1 0 4.832 2.416 2.416 0 0 1 0-4.832m0 1.5a.917.917 0 1 0 0 1.833.917.917 0 0 0 0-1.833m12.083.166a.75.75 0 0 1 0 1.5H9.792a.75.75 0 0 1 0-1.5zM4.792 3.625a2.417 2.417 0 1 1-.001 4.833 2.417 2.417 0 0 1 .001-4.833m0 1.5a.917.917 0 1 0 0 1.834.917.917 0 0 0 0-1.834m12.083.167a.75.75 0 0 1 0 1.5H9.792a.75.75 0 0 1 0-1.5z"/></svg>