<svg xmlns="http://www.w3.org/2000/svg" width="12" height="12" fill="none" data-fui-icon="true" viewBox="0 0 12 12"><path fill="currentColor" d="M9.063 0c.718 0 1.408.286 1.916.794l.227.226a2.71 2.71 0 0 1 0 3.834L4.78 11.28a.75.75 0 0 1-.423.212l-3.5.5a.75.75 0 0 1-.849-.849l.5-3.5A.75.75 0 0 1 .72 7.22L7.146.794A2.7 2.7 0 0 1 9.063 0M1.956 8.103l-.323 2.263 2.263-.323L8.19 5.75 6.25 3.81zM9.063 1.5c-.322 0-.63.128-.857.354l-.895.896 1.94 1.94.895-.896a1.21 1.21 0 0 0 0-1.713l-.227-.227a1.2 1.2 0 0 0-.856-.354"/></svg>