<svg xmlns="http://www.w3.org/2000/svg" width="32" height="32" fill="none" data-fui-icon="true" viewBox="0 0 32 32"><path fill="currentColor" d="M28.22 2.72a.75.75 0 1 1 1.06 1.06L27.94 5.121c.7.624 1.145 1.53 1.145 2.546v13.998a3.417 3.417 0 0 1-3.417 3.417h-5.165a.6.6 0 0 0-.372.135l-2.799 2.317a2.08 2.08 0 0 1-2.667-.008l-2.753-2.307a.6.6 0 0 0-.375-.136H7.978L3.78 29.28a.75.75 0 1 1-1.06-1.06zM9.478 23.583h2.058c.488 0 .963.172 1.339.486l2.753 2.308v.001c.215.18.529.182.746.002h.001l2.798-2.318c.373-.31.843-.48 1.329-.48h5.165a1.917 1.917 0 0 0 1.917-1.917V7.667c0-.597-.276-1.13-.709-1.482zM23.266 4.25a.75.75 0 0 1 0 1.5H6.333a1.917 1.917 0 0 0-1.917 1.917v14c0 .484.178.926.475 1.264a.75.75 0 1 1-1.127.988 3.4 3.4 0 0 1-.848-2.252v-14A3.417 3.417 0 0 1 6.333 4.25z"/></svg>