<svg xmlns="http://www.w3.org/2000/svg" width="16" height="16" fill="none" data-fui-icon="true" viewBox="0 0 16 16"><path fill="currentColor" d="M9 .75a.75.75 0 0 1 0 1.5H6.406a1.65 1.65 0 0 0-1.44.844l-.242.434A2.39 2.39 0 0 1 2.64 4.75a.89.89 0 0 0-.89.89v6.46c0 .91.74 1.65 1.65 1.65h9.2c.91 0 1.65-.74 1.65-1.65V7.625a.75.75 0 0 1 1.5 0V12.1a3.15 3.15 0 0 1-3.15 3.15H3.4A3.15 3.15 0 0 1 .25 12.1V5.64a2.39 2.39 0 0 1 2.39-2.39.89.89 0 0 0 .775-.455l.243-.434A3.15 3.15 0 0 1 6.406.75zM8 5a3.5 3.5 0 1 1 0 7 3.5 3.5 0 0 1 0-7m0 1.5a2 2 0 1 0 0 4 2 2 0 0 0 0-4m5-5.75a.75.75 0 0 1 .75.75v1.25H15a.75.75 0 0 1 0 1.5h-1.25V5.5a.75.75 0 0 1-1.5 0V4.25H11a.75.75 0 0 1 0-1.5h1.25V1.5A.75.75 0 0 1 13 .75"/></svg>