<svg xmlns="http://www.w3.org/2000/svg" width="20" height="20" fill="none" data-fui-icon="true" viewBox="0 0 20 20"><path fill="currentColor" d="M14.479 1.077c1.789.008 3.589.597 4.9 1.626.426.334.621.836.621 1.312v13.753a.96.96 0 0 1-.575.876.98.98 0 0 1-1.005-.131c-1.017-.82-2.573-1.245-4.133-1.196-1.568.05-2.962.572-3.727 1.432a.75.75 0 0 1-1.12 0c-.765-.86-2.159-1.382-3.727-1.432-1.56-.05-3.116.376-4.133 1.196a.98.98 0 0 1-1.005.13.96.96 0 0 1-.575-.875V4.012c0-.479.196-.976.62-1.309 1.312-1.03 3.112-1.618 4.901-1.626 1.57-.006 3.187.436 4.479 1.486 1.292-1.05 2.91-1.492 4.479-1.486m-8.95 1.5c-1.49.006-2.958.503-3.983 1.307-.016.012-.046.049-.046.128V16.77c1.26-.695 2.8-1 4.26-.953 1.22.04 2.462.326 3.49.9V3.897c-1-.908-2.339-1.325-3.722-1.319m8.943 0c-1.383-.006-2.721.41-3.722 1.319v12.822c1.028-.575 2.27-.862 3.49-.9 1.46-.047 3 .257 4.26.952V4.015c0-.082-.032-.12-.046-.131-1.025-.804-2.493-1.3-3.982-1.307"/></svg>