<svg xmlns="http://www.w3.org/2000/svg" width="32" height="32" fill="none" data-fui-icon="true" viewBox="0 0 32 32"><path fill="currentColor" d="M27 2.5A3.5 3.5 0 0 1 30.5 6v20a3.5 3.5 0 0 1-3.5 3.5H5A3.5 3.5 0 0 1 1.5 26V6A3.5 3.5 0 0 1 5 2.5zM5 4a2 2 0 0 0-2 2v20l.01.204a2 2 0 0 0 1.786 1.785L5 28h22l.204-.01A2 2 0 0 0 29 26V6a2 2 0 0 0-2-2zm11 3.75a8.25 8.25 0 1 1 0 16.5 8.25 8.25 0 0 1 0-16.5m-2.234 9c.07 1.692.373 3.184.81 4.274.25.627.529 1.084.801 1.371.27.287.481.355.623.355s.352-.068.623-.355c.272-.287.551-.744.802-1.37.436-1.09.74-2.583.81-4.275zm-4.475 0a6.76 6.76 0 0 0 4.203 5.52 8 8 0 0 1-.311-.688c-.518-1.293-.848-2.982-.918-4.832zm10.444 0c-.07 1.85-.4 3.539-.918 4.832q-.144.36-.311.688a6.76 6.76 0 0 0 4.203-5.52zm-6.24-7.02a6.76 6.76 0 0 0-4.204 5.52h2.974c.07-1.85.4-3.539.918-4.832q.144-.36.311-.688M16 9.25c-.142 0-.352.068-.623.354-.272.288-.551.745-.802 1.372-.436 1.09-.74 2.582-.81 4.274h4.47c-.07-1.692-.374-3.184-.81-4.274-.25-.627-.53-1.084-.802-1.372-.27-.286-.482-.354-.623-.354m2.506.48q.167.328.311.688c.518 1.293.848 2.982.918 4.832h2.974a6.76 6.76 0 0 0-4.203-5.52"/></svg>