<svg xmlns="http://www.w3.org/2000/svg" width="32" height="32" fill="none" data-fui-icon="true" viewBox="0 0 32 32"><path fill="currentColor" d="M16 2.75c4.698 0 8.042 1.706 10.198 4.267 2.139 2.54 3.052 5.849 3.052 8.983v6a1 1 0 0 1-.012.122q.011.188.012.378a6.75 6.75 0 0 1-6.75 6.75 2.75 2.75 0 0 1-2.75-2.75v-8a2.75 2.75 0 0 1 2.75-2.75c2.12 0 4.012.978 5.25 2.508V16c0-2.866-.837-5.806-2.698-8.017C23.208 5.794 20.302 4.25 16 4.25S8.792 5.794 6.948 7.983C5.087 10.193 4.25 13.134 4.25 16v2.258A6.74 6.74 0 0 1 9.5 15.75a2.75 2.75 0 0 1 2.75 2.75v8a2.75 2.75 0 0 1-2.75 2.75 6.75 6.75 0 0 1-6.74-7.128A1 1 0 0 1 2.75 22v-6c0-3.134.913-6.444 3.052-8.983C7.958 4.457 11.302 2.75 16 2.75m-6.5 14.5a5.25 5.25 0 1 0 0 10.5c.69 0 1.25-.56 1.25-1.25v-8c0-.69-.56-1.25-1.25-1.25m13 0c-.69 0-1.25.56-1.25 1.25v8c0 .69.56 1.25 1.25 1.25a5.25 5.25 0 1 0 0-10.5"/></svg>