<svg xmlns="http://www.w3.org/2000/svg" width="24" height="24" fill="none" data-fui-icon="true" viewBox="0 0 24 24"><path fill="currentColor" fill-rule="evenodd" d="M12 6a.75.75 0 0 1 .75.75v5.5a.75.75 0 0 1-1.5 0v-5.5A.75.75 0 0 1 12 6" clip-rule="evenodd"/><path fill="currentColor" d="M13 16a1 1 0 1 1-2 0 1 1 0 0 1 2 0"/><path fill="currentColor" fill-rule="evenodd" d="M12 2.5a9.5 9.5 0 1 0 0 19 9.5 9.5 0 0 0 0-19M1 12C1 5.925 5.925 1 12 1s11 4.925 11 11-4.925 11-11 11S1 18.075 1 12" clip-rule="evenodd"/></svg>