<svg xmlns="http://www.w3.org/2000/svg" width="20" height="20" fill="none" data-fui-icon="true" viewBox="0 0 20 20"><path fill="currentColor" d="M9.934 2.25c3.258 0 5.264 1.706 6.316 3.55V3.48a.75.75 0 0 1 1.5 0v4.232c0 .853-.687 1.557-1.55 1.558H12a.75.75 0 0 1 0-1.5h3.479c-.546-1.826-2.219-4.02-5.545-4.02C6.125 3.75 3.75 6.6 3.75 10s2.375 6.25 6.184 6.25c2.718 0 4.891-1.728 5.757-3.79a.75.75 0 0 1 1.383.58c-1.08 2.57-3.767 4.71-7.14 4.71-4.726 0-7.684-3.612-7.684-7.75s2.958-7.75 7.684-7.75"/></svg>