<svg xmlns="http://www.w3.org/2000/svg" width="16" height="16" fill="none" data-fui-icon="true" viewBox="0 0 16 16"><path fill="currentColor" d="M8 8.083q.59 0 1.14.104a.75.75 0 0 1-.279 1.475 4.6 4.6 0 0 0-.945-.078h-.001a5 5 0 0 0-.625.054q-.055.007-.11.017a4 4 0 0 0-.221.046c-1.405.329-2.448 1.32-2.934 2.634-.034.093-.019.17.046.247.075.09.217.168.394.168h3.702a.75.75 0 0 1 0 1.5H4.465a2.02 2.02 0 0 1-1.543-.704 1.73 1.73 0 0 1-.303-1.731c.639-1.727 2.02-3.064 3.86-3.542l.017-.004a6 6 0 0 1 1.082-.171q.154-.01.31-.014zm2.137 2.053a.75.75 0 0 1 1.061 0l.803.803.803-.803a.75.75 0 0 1 1.06 1.06L13.06 12l.804.804a.75.75 0 0 1-1.06 1.06L12 13.06l-.803.803a.751.751 0 0 1-1.062-1.06l.803-.804-.803-.803a.75.75 0 0 1 0-1.06M8 1.083A3.25 3.25 0 1 1 8 7.583a3.25 3.25 0 0 1 0-6.5m0 1.5a1.75 1.75 0 1 0 0 3.5 1.75 1.75 0 0 0 0-3.5"/></svg>