<svg xmlns="http://www.w3.org/2000/svg" width="12" height="12" fill="none" data-fui-icon="true" viewBox="0 0 12 12"><path fill="currentColor" d="M7.25.5a.75.75 0 0 1 0 1.5h-.5v1.035c1.565.151 2.62.782 3.288 1.674.736.983.908 2.166.95 3.005C11.022 8.445 10.426 9 9.75 9h-3v1.5h3.5a.75.75 0 0 1 0 1.5h-8.5a.75.75 0 0 1 0-1.5h3.5V9h-3c-.677 0-1.273-.555-1.237-1.286l.022-.33c.071-.802.283-1.815.927-2.675.667-.892 1.723-1.523 3.288-1.674V2h-.5a.75.75 0 0 1 0-1.5zM6 4.5c-1.609 0-2.405.53-2.837 1.107-.406.543-.572 1.234-.632 1.893H9.47c-.06-.659-.226-1.35-.632-1.893C8.405 5.03 7.609 4.5 6 4.5"/></svg>