<svg xmlns="http://www.w3.org/2000/svg" width="16" height="16" fill="none" data-fui-icon="true" viewBox="0 0 16 16"><path fill="currentColor" d="M8 0a8 8 0 1 1 0 16A8 8 0 0 1 8 0m.004 3.25a.75.75 0 0 0-.75.75v.339C6.014 4.616 5.25 5.56 5.25 6.5c0 .39.093.748.286 1.057.191.304.452.517.717.669.497.284 1.126.409 1.592.507.534.114.906.2 1.158.344a.5.5 0 0 1 .19.162c.024.04.057.114.057.261 0 .032-.013.128-.175.242-.17.12-.504.252-1.07.252a2.8 2.8 0 0 1-.77-.147c-.323-.107-.573-.246-.705-.377a.75.75 0 0 0-1.06 1.06c.368.369.87.6 1.297.742.161.053.327.095.488.13v.44a.75.75 0 0 0 1.5 0v-.415c1.144-.206 1.995-.888 1.995-1.927 0-.39-.093-.748-.286-1.057a2 2 0 0 0-.717-.669c-.497-.283-1.126-.41-1.592-.508-.534-.114-.906-.2-1.158-.343a.5.5 0 0 1-.19-.163.47.47 0 0 1-.057-.26c0-.129.237-.745 1.255-.745.536 0 1.05.032 1.324.58a.75.75 0 0 0 1.342-.67c-.48-.96-1.29-1.265-1.917-1.363V4a.75.75 0 0 0-.75-.75"/></svg>