<svg xmlns="http://www.w3.org/2000/svg" width="12" height="12" fill="none" data-fui-icon="true" viewBox="0 0 12 12"><path fill="currentColor" d="M9.899 4.038a.75.75 0 0 1 .75.75v2.816c0 .107.035.21.097.29l.291.381c.497.65.072 1.656-.81 1.657h-1.97c-.14 1.015-.993 1.818-2.058 1.818-1.166 0-2.081-.963-2.082-2.113v-.455a.75.75 0 0 1 .75-.75h4.464a2 2 0 0 1-.182-.828V4.788a.75.75 0 0 1 .75-.75M5.693 9.932a.58.58 0 0 0 .506.318c.211 0 .406-.125.508-.318zm4.31-9.493a.75.75 0 0 1 .995 1.122l-9 8a.75.75 0 0 1-.996-1.122zM6.198.25q.498.001.966.107a.75.75 0 0 1-.33 1.463 3 3 0 0 0-.636-.07c-1.612 0-2.949 1.344-2.949 3.038V5a.75.75 0 0 1-1.5 0v-.212C1.75 2.298 3.725.25 6.2.25"/></svg>