<svg xmlns="http://www.w3.org/2000/svg" width="12" height="12" fill="none" data-fui-icon="true" viewBox="0 0 12 12"><path fill="currentColor" d="M6 9.5a.75.75 0 0 1-.75-.75v-2h-2a.75.75 0 0 1 0-1.5h2v-2a.75.75 0 0 1 1.5 0v2h2a.75.75 0 0 1 0 1.5h-2v2A.75.75 0 0 1 6 9.5"/><path fill="currentColor" fill-rule="evenodd" d="M0 3.25A3.25 3.25 0 0 1 3.25 0h5.5A3.25 3.25 0 0 1 12 3.25v5.5A3.25 3.25 0 0 1 8.75 12h-5.5A3.25 3.25 0 0 1 0 8.75zM3.25 1.5A1.75 1.75 0 0 0 1.5 3.25v5.5c0 .966.784 1.75 1.75 1.75h5.5a1.75 1.75 0 0 0 1.75-1.75v-5.5A1.75 1.75 0 0 0 8.75 1.5z" clip-rule="evenodd"/></svg>