<svg xmlns="http://www.w3.org/2000/svg" width="24" height="24" fill="none" data-fui-icon="true" viewBox="0 0 24 24"><path fill="currentColor" d="M7.5 5.15c0-2.87 2.65-5.006 5.453-4.398l7.5 1.625A4.5 4.5 0 0 1 24 6.774v10.451a4.5 4.5 0 0 1-3.547 4.398l-7.5 1.625C10.15 23.855 7.5 21.719 7.5 18.85V16A.75.75 0 1 1 9 16v2.85a3 3 0 0 0 3.636 2.932l7.5-1.625a3 3 0 0 0 2.364-2.932V6.775a3 3 0 0 0-2.364-2.932l-7.5-1.625A3 3 0 0 0 9 5.149v3.1a.75.75 0 0 1-1.5 0zm5.97 2.82a.75.75 0 0 1 1.06 0l3.5 3.5a.75.75 0 0 1 0 1.06l-3.5 3.5a.75.75 0 1 1-1.06-1.06l2.22-2.22H3.25c-.575 0-.94.187-1.157.405A1.2 1.2 0 0 0 1.75 14c0 .314.118.62.343.845.218.218.582.406 1.157.406a.75.75 0 0 1 0 1.5c-.925 0-1.686-.314-2.218-.846A2.7 2.7 0 0 1 .25 14c0-.686.257-1.38.782-1.905.532-.532 1.293-.845 2.218-.845h12.44l-2.22-2.22a.75.75 0 0 1 0-1.06"/></svg>