<svg xmlns="http://www.w3.org/2000/svg" width="16" height="16" fill="none" data-fui-icon="true" viewBox="0 0 16 16"><g clip-path="url(#a)"><path fill="currentColor" d="M8.003-.007a2.39 2.39 0 0 1 1.843.865c.23.277.504.528.837.666.333.139.703.153 1.062.12a2.39 2.39 0 0 1 1.918.69 2.39 2.39 0 0 1 .69 1.916c-.033.36-.018.73.12 1.063.139.333.39.607.666.837a2.392 2.392 0 0 1 .004 3.677c-.277.232-.529.508-.667.842-.14.336-.155.708-.122 1.07a2.39 2.39 0 0 1-2.607 2.603c-.36-.034-.732-.019-1.066.12-.333.138-.608.39-.84.666a2.39 2.39 0 0 1-3.682-.007c-.228-.275-.5-.524-.83-.661-.332-.138-.7-.152-1.057-.118a2.39 2.39 0 0 1-2.61-2.603c.032-.36.017-.73-.122-1.065s-.392-.61-.67-.841a2.393 2.393 0 0 1 .005-3.688c.277-.23.528-.504.666-.836.138-.333.153-.7.12-1.059a2.394 2.394 0 0 1 2.614-2.606c.356.033.721.02 1.051-.118s.602-.385.83-.66a2.39 2.39 0 0 1 1.847-.873M8 9.5a1 1 0 1 0 0 2 1 1 0 0 0 0-2m0-5.75a.75.75 0 0 0-.75.75v3a.75.75 0 0 0 1.5 0v-3A.75.75 0 0 0 8 3.75"/></g><defs><clipPath id="a"><path fill="currentColor" d="M0 0h16v16H0z"/></clipPath></defs></svg>