<svg xmlns="http://www.w3.org/2000/svg" width="12" height="12" fill="none" data-fui-icon="true" viewBox="0 0 12 12"><path fill="currentColor" d="M6 0c.805 0 1.446 0 1.966.035.526.036.982.111 1.41.288a4.25 4.25 0 0 1 2.3 2.301c.178.428.253.884.289 1.41C12 4.554 12 5.195 12 6s0 1.446-.035 1.966c-.036.526-.111.982-.288 1.41a4.25 4.25 0 0 1-2.301 2.3c-.428.178-.884.253-1.41.289C7.446 12 6.805 12 6 12s-1.446 0-1.966-.035c-.526-.036-.982-.111-1.41-.288a4.25 4.25 0 0 1-2.3-2.301C.145 8.948.07 8.492.034 7.966 0 7.446 0 6.805 0 6s0-1.446.035-1.966c.036-.526.111-.982.288-1.41a4.25 4.25 0 0 1 2.301-2.3c.428-.178.884-.253 1.41-.289C4.554 0 5.195 0 6 0M3.86 4.25c-.751 0-1.36.61-1.361 1.361v.74c0 .77.626 1.396 1.396 1.396.672 0 1.217-.545 1.217-1.217v-.064a.81.81 0 0 0-.727-.806l-.083-.004a.5.5 0 0 0-.206.953.22.22 0 0 1-.2.138.397.397 0 0 1-.397-.396v-.74c0-.2.162-.36.361-.361a.55.55 0 0 1 .31.073q.03.022.035.029l-.003-.003-.006-.008-.004-.007.062.076a.5.5 0 0 0 .782-.612v-.002l-.003-.003-.003-.005-.008-.01a1 1 0 0 0-.082-.103 1.2 1.2 0 0 0-.22-.186 1.54 1.54 0 0 0-.86-.239m2.31 0a.5.5 0 0 0-.5.5v2.497a.5.5 0 0 0 1 0V4.75a.5.5 0 0 0-.5-.5m2.079 0a1 1 0 0 0-1 1v1.997a.5.5 0 0 0 1 0v-.749h.506a.5.5 0 0 0 0-1H8.25V5.25h.688a.5.5 0 0 0 0-1z"/></svg>