<svg xmlns="http://www.w3.org/2000/svg" width="16" height="16" fill="none" data-fui-icon="true" viewBox="0 0 16 16"><path fill="currentColor" d="M5.136 3.414a.5.5 0 0 1 .545.838c-1.074.698-1.933 1.305-2.517 2.11a4 4 0 0 0-.516.958 3.03 3.03 0 0 1 1.692-.514c1.641 0 2.993 1.3 2.993 2.93s-1.352 2.931-2.993 2.931c-1.636 0-2.985-1.293-2.993-2.917-.092-1.736.285-2.98 1.008-3.975.706-.975 1.718-1.67 2.78-2.36m7.334 0a.5.5 0 0 1 .545.838c-1.074.698-1.934 1.305-2.518 2.11a4 4 0 0 0-.516.958 3.03 3.03 0 0 1 1.692-.514c1.641 0 2.993 1.3 2.993 2.93s-1.352 2.931-2.993 2.931c-1.636 0-2.985-1.293-2.993-2.917-.092-1.736.285-2.98 1.008-3.975.707-.975 1.719-1.67 2.782-2.36"/></svg>