<svg xmlns="http://www.w3.org/2000/svg" width="16" height="16" fill="none" data-fui-icon="true" viewBox="0 0 16 16"><path fill="currentColor" d="M6.85 2.226C7.724 1.576 9 2.194 9 3.314v9.371c0 1.157-1.36 1.778-2.234 1.02l-2.194-1.9a1.25 1.25 0 0 0-.818-.305H2.75A1.75 1.75 0 0 1 1 9.75v-3.5c0-.967.784-1.75 1.75-1.75h1.004c.3 0 .591-.11.818-.306l2.194-1.9zM5.555 5.328A2.75 2.75 0 0 1 3.754 6H2.75a.25.25 0 0 0-.25.25v3.5c0 .138.112.25.25.25h1.004c.661 0 1.3.238 1.8.672L7.5 12.356V3.642zm4.886.172A.75.75 0 0 1 11.5 5.44l-.46.515c.45-.505.46-.515.461-.515v.001l.001.001.003.002.006.006.015.013a2 2 0 0 1 .165.18c.097.114.219.278.338.49.24.429.47 1.055.471 1.866 0 .81-.23 1.436-.47 1.865a3.2 3.2 0 0 1-.462.628l-.042.042-.015.014-.006.005-.003.002-.001.001v.001L11 10l.5.558a.75.75 0 0 1-1.009-1.11l.005-.005.047-.052c.044-.053.11-.14.178-.26C10.855 8.89 11 8.516 11 8c0-.518-.145-.892-.28-1.131a1.7 1.7 0 0 0-.224-.313l-.003-.004.005.005h.001l-.054-.052a.75.75 0 0 1-.004-1.005"/></svg>