<svg xmlns="http://www.w3.org/2000/svg" width="16" height="16" fill="none" data-fui-icon="true" viewBox="0 0 16 16"><path fill="currentColor" d="M14.625 6.492h-.027c-1.258 0-2.407-.383-3.336-1.066v4.894c0 2.461-1.996 4.43-4.457 4.43a4.41 4.41 0 0 1-4.43-4.43c0-2.46 1.969-4.457 4.43-4.457.218 0 .41.028.629.055v2.46a1.7 1.7 0 0 0-.63-.108c-1.12 0-2.05.93-2.05 2.05 0 1.121.93 2.051 2.05 2.051 1.122 0 2.051-.93 2.051-2.05V.75h2.407v.055c0 .191 0 .382.054.574.164.902.711 1.695 1.477 2.187.52.356 1.148.547 1.805.547h.027z"/></svg>