<svg xmlns="http://www.w3.org/2000/svg" width="32" height="32" fill="none" data-fui-icon="true" viewBox="0 0 32 32"><path fill="currentColor" d="M24.5 20a.75.75 0 0 1 .75.75v3h3a.75.75 0 0 1 0 1.5h-3v3a.75.75 0 0 1-1.5 0v-3h-3a.75.75 0 0 1 0-1.5h3v-3a.75.75 0 0 1 .75-.75M7.751 12.438a.75.75 0 1 1 1.06 1.061l-3.718 3.719a5.438 5.438 0 0 0 7.69 7.69l3.718-3.72a.75.75 0 1 1 1.06 1.061l-3.718 3.719a6.938 6.938 0 1 1-9.81-9.81zM19.72 9.22a.75.75 0 1 1 1.06 1.06l-10.5 10.5a.75.75 0 1 1-1.06-1.06zM21.063 2a6.938 6.938 0 0 1 4.905 11.843l-3.719 3.718a.75.75 0 1 1-1.06-1.06l3.718-3.719a5.438 5.438 0 0 0-7.69-7.69L13.5 8.813a.75.75 0 1 1-1.06-1.061l3.718-3.719A6.94 6.94 0 0 1 21.063 2"/></svg>