<svg xmlns="http://www.w3.org/2000/svg" width="32" height="32" fill="none" data-fui-icon="true" viewBox="0 0 32 32"><path fill="currentColor" d="M17.287 2.763a3.23 3.23 0 0 1 2.89 2.657l.23 1.305c.55.252 1.076.55 1.57.89l1.312-.472a3.29 3.29 0 0 1 3.939 1.415l.959 1.62v.002a3.17 3.17 0 0 1-.508 3.887l-.219.196-1.063.864q.039.429.04.873l-.005.33q-.012.273-.035.541l1.063.866a3.17 3.17 0 0 1 .727 4.083v.001l-.958 1.621h-.001a3.29 3.29 0 0 1-3.939 1.415l-1.313-.472q-.741.508-1.57.888l-.229 1.307a3.23 3.23 0 0 1-3.18 2.67h-2.011a3.23 3.23 0 0 1-3.181-2.669l-.232-1.308a10.5 10.5 0 0 1-1.568-.888l-1.311.472a3.29 3.29 0 0 1-3.94-1.416l-.958-1.62a3.17 3.17 0 0 1 .727-4.084l1.061-.865q-.025-.27-.035-.543L5.543 16q.002-.443.041-.873l-1.061-.864a3.17 3.17 0 0 1-.727-4.083l.957-1.621a3.29 3.29 0 0 1 3.94-1.416l1.311.471a10.5 10.5 0 0 1 1.57-.888l.23-1.307a3.23 3.23 0 0 1 3.182-2.669h2.01zM14.83 4.257a1.73 1.73 0 0 0-1.547 1.423l-.301 1.703-.073.406-.381.157a9 9 0 0 0-1.96 1.109l-.323.24-.379-.136-1.68-.604h-.001a1.79 1.79 0 0 0-2.14.765l-.957 1.621A1.67 1.67 0 0 0 5.47 13.1l1.377 1.12.324.264-.054.415A9 9 0 0 0 7.043 16c0 .37.027.738.073 1.102l.054.414-.323.262L5.47 18.9l-.001.001a1.67 1.67 0 0 0-.38 2.158l.956 1.62a1.79 1.79 0 0 0 2.14.766l1.68-.605.38-.136.323.24c.524.39 1.093.726 1.698.997l.262.112.381.157.073.406.3 1.703v.001c.146.827.865 1.43 1.705 1.43h2.008c.84 0 1.558-.603 1.704-1.43l.3-1.703.072-.407.382-.157a9 9 0 0 0 1.961-1.109l.323-.24.38.136 1.681.605a1.79 1.79 0 0 0 2.139-.766l.958-1.621a1.67 1.67 0 0 0-.381-2.157l-1.379-1.122-.324-.263.053-.414q.073-.549.074-1.102-.001-.555-.073-1.102l-.054-.415.324-.263 1.379-1.121a1.67 1.67 0 0 0 .38-2.158l-.957-1.62a1.79 1.79 0 0 0-2.139-.766l-1.682.604-.38.136-.322-.24a9 9 0 0 0-1.96-1.109l-.383-.157L19 7.382l-.3-1.702a1.73 1.73 0 0 0-1.547-1.423l-.157-.007h-2.008zM16 11.75a4.25 4.25 0 1 1 0 8.5 4.25 4.25 0 0 1 0-8.5m0 1.5a2.75 2.75 0 1 0 0 5.5 2.75 2.75 0 0 0 0-5.5"/></svg>