<svg xmlns="http://www.w3.org/2000/svg" width="32" height="32" fill="none" data-fui-icon="true" viewBox="0 0 32 32"><path fill="currentColor" d="M15.896 2.917c.906 0 1.775.36 2.416 1l7.104 7.105c.64.64 1 1.51 1 2.416v12.229A3.417 3.417 0 0 1 23 29.084H9a3.417 3.417 0 0 1-3.417-3.417V6.334A3.417 3.417 0 0 1 9 2.917zM9 4.417a1.917 1.917 0 0 0-1.917 1.917v19.333c0 1.058.859 1.917 1.917 1.917h14a1.917 1.917 0 0 0 1.916-1.917V13.438q0-.18-.034-.354h-5.216a3.417 3.417 0 0 1-3.416-3.417V4.45a2 2 0 0 0-.354-.033zm7.313 10.333a.75.75 0 0 1 .75.75v5.862l1.063-1.063a.75.75 0 0 1 1.06 1.06l-2.06 2.06a1.25 1.25 0 0 1-1.767 0l-1.889-1.89a.75.75 0 1 1 1.06-1.06l1.033 1.033V15.5a.75.75 0 0 1 .75-.75m1.437-5.083c0 1.058.858 1.916 1.916 1.917h4.19L17.75 5.478z"/></svg>