<svg xmlns="http://www.w3.org/2000/svg" width="20" height="20" fill="none" data-fui-icon="true" viewBox="0 0 20 20"><path stroke="currentColor" stroke-linecap="round" stroke-linejoin="round" stroke-width="1.5" d="M13.828 3.75h1.328c.863 0 1.563.7 1.563 1.563v12.03c0 .864-.7 1.563-1.563 1.563H4.844c-.863 0-1.563-.7-1.563-1.562V5.312c0-.862.7-1.562 1.563-1.562h1.328m.547 6h6.562m-6.562 4.5h6.562"/><path fill="currentColor" d="m8.423 2.602-.706-.252zm.335-.937-.706-.252zM8.39 2.75v.75a.75.75 0 0 0 .746-.673zm3.22 0-.746.077a.75.75 0 0 0 .746.673zm-.033-.148.706-.252zm-.335-.937-.706.252zM9.13 2.855l.334-.938-1.412-.504-.335.937zm.006-.028-.006.028-1.413-.505a1.4 1.4 0 0 0-.073.323zm-2.26.673H8.39V2H6.876zM7 3.375c0 .07-.056.125-.124.125V2C6.117 2 5.5 2.615 5.5 3.375zm0 1.5v-1.5H5.5v1.5zm-.125-.125c.069 0 .125.056.125.125H5.5c0 .76.616 1.375 1.375 1.375zm6.25 0h-6.25v1.5h6.25zM13 4.875c0-.069.056-.125.125-.125v1.5c.76 0 1.375-.616 1.375-1.375zm0-1.5v1.5h1.5v-1.5zm.124.125A.124.124 0 0 1 13 3.375h1.5c0-.76-.617-1.375-1.376-1.375zm-1.514 0h1.514V2H11.61zm-.74-.645-.006-.028 1.492-.154a1.4 1.4 0 0 0-.073-.323zm-.334-.938.334.938 1.413-.505-.335-.937zm.117.083a.125.125 0 0 1-.117-.083l1.412-.504A1.375 1.375 0 0 0 10.653.5zM9.347 2h1.306V.5H9.347zm.117-.083A.125.125 0 0 1 9.347 2V.5c-.581 0-1.1.365-1.295.913z"/></svg>