<svg xmlns="http://www.w3.org/2000/svg" width="12" height="12" fill="none" data-fui-icon="true" viewBox="0 0 12 12"><path fill="currentColor" d="M3.5 2.25a.75.75 0 0 1 .75.75v6a.75.75 0 0 1-1.5 0V3a.75.75 0 0 1 .75-.75m5 0a.75.75 0 0 1 .75.75v6a.75.75 0 0 1-1.5 0V3a.75.75 0 0 1 .75-.75m2.5 1.5a.75.75 0 0 1 .75.75v3a.75.75 0 0 1-1.5 0v-3a.75.75 0 0 1 .75-.75M1 4a.75.75 0 0 1 .75.75v2.5a.75.75 0 0 1-1.5 0v-2.5A.75.75 0 0 1 1 4m5 0a.75.75 0 0 1 .75.75v2.5a.75.75 0 0 1-1.5 0v-2.5A.75.75 0 0 1 6 4"/></svg>