<svg xmlns="http://www.w3.org/2000/svg" width="16" height="16" fill="none" data-fui-icon="true" viewBox="0 0 16 16"><path fill="currentColor" d="M7.973 1.586a.75.75 0 0 1 .67.415l1.952 3.9h2.556a2.099 2.099 0 0 1 0 4.198h-2.557l-1.95 3.9-.671-.336v.001l.67.335a.75.75 0 0 1-.67.415H6.354a.75.75 0 0 1-.727-.933l.846-3.382H4.777L3.38 11.497a.75.75 0 0 1-.53.22h-1.35a.75.75 0 0 1-.704-1.007l.985-2.711-.985-2.71-.026-.087a.75.75 0 0 1 .73-.919h1.35l.146.015a.75.75 0 0 1 .384.205L4.777 5.9h1.696l-.846-3.383a.75.75 0 0 1 .727-.932zM8.16 6.47a.75.75 0 0 1-.728.931H4.467a.75.75 0 0 1-.53-.22L2.588 5.835l.694 1.91a.75.75 0 0 1 0 .512l-.694 1.909 1.347-1.347.115-.093a.75.75 0 0 1 .416-.126h2.966a.75.75 0 0 1 .728.931l-.846 3.384h.194l1.95-3.901.055-.091a.75.75 0 0 1 .617-.323h3.02a.599.599 0 0 0 0-1.198h-3.02a.75.75 0 0 1-.671-.415l.67-.335-.67.335-1.95-3.9h-.195z"/></svg>