<svg xmlns="http://www.w3.org/2000/svg" width="24" height="24" fill="none" data-fui-icon="true" viewBox="0 0 24 24"><path fill="currentColor" fill-rule="evenodd" d="M12.572 3.618a5.523 5.523 0 0 1 7.81 7.81l-2.532 2.533a.75.75 0 0 1-1.06-1.06l2.532-2.533a4.023 4.023 0 1 0-5.69-5.69L11.1 7.211a.75.75 0 0 1-1.06-1.06zM7.21 10.039a.75.75 0 0 1 0 1.06l-2.533 2.533a4.023 4.023 0 1 0 5.69 5.69l2.532-2.533a.75.75 0 0 1 1.06 1.06l-2.532 2.533a5.523 5.523 0 0 1-7.81-7.81l2.532-2.533a.75.75 0 0 1 1.06 0" clip-rule="evenodd"/><path fill="currentColor" fill-rule="evenodd" d="M10.409 13.591a.75.75 0 0 1 0 1.06l-1.129 1.13a.75.75 0 0 1-1.06-1.061l1.128-1.129a.75.75 0 0 1 1.061 0M15.78 8.22a.75.75 0 0 1 0 1.06l-1.128 1.129a.75.75 0 0 1-1.061-1.06l1.129-1.13a.75.75 0 0 1 1.06 0m-12.56-5a.75.75 0 0 1 1.06 0l16.5 16.5a.75.75 0 1 1-1.06 1.06L3.22 4.28a.75.75 0 0 1 0-1.06" clip-rule="evenodd"/></svg>