<svg xmlns="http://www.w3.org/2000/svg" width="20" height="20" fill="none" data-fui-icon="true" viewBox="0 0 20 20"><path fill="currentColor" d="M7.41 1.542c1.07 0 2.1.528 2.922.935.909.45 1.608.778 2.257.778.682 0 1.392-.157 1.98-.34 1.002-.312 2.222.38 2.222 1.574v7.563c0 .596-.342 1.178-.945 1.42-.66.265-1.944.704-3.257.704-1.069 0-2.1-.527-2.922-.934-.909-.45-1.607-.78-2.257-.78-.746.001-1.523.19-2.135.392a10 10 0 0 0-.567.208v4.647a.75.75 0 0 1-1.5 0V3.666c0-.596.343-1.178.945-1.42l.276-.106c.706-.262 1.832-.598 2.981-.598m0 1.5c-1.023 0-2.091.352-2.696.594a.1.1 0 0 0-.006.03v7.798q.048-.017.097-.034c.685-.226 1.633-.467 2.605-.467 1.07 0 2.1.528 2.922.935.909.45 1.608.778 2.257.778 1.023 0 2.09-.353 2.695-.595a.1.1 0 0 0 .007-.03V4.49c0-.024-.01-.066-.072-.107a.25.25 0 0 0-.204-.035c-.664.206-1.535.408-2.426.408-1.07 0-2.1-.528-2.922-.935-.909-.45-1.607-.778-2.257-.778"/></svg>