<svg xmlns="http://www.w3.org/2000/svg" width="12" height="12" fill="none" data-fui-icon="true" viewBox="0 0 12 12"><path fill="currentColor" d="M9.125 1.125c.966 0 1.75.784 1.75 1.75v6.25a1.75 1.75 0 0 1-1.75 1.75h-6.25a1.75 1.75 0 0 1-1.75-1.75v-6.25c0-.966.784-1.75 1.75-1.75zm-6.25 1.5a.25.25 0 0 0-.25.25v6.25c0 .138.112.25.25.25h6.25a.25.25 0 0 0 .25-.25v-6.25a.25.25 0 0 0-.25-.25zM4.67 6.427a.75.75 0 1 1 1.2.9l-.936 1.247a.75.75 0 0 1-1.016.174l-.563-.375a.75.75 0 0 1 .803-1.266zm3.455.323a.75.75 0 0 1 0 1.5h-1.25a.75.75 0 0 1 0-1.5zM4.67 3.426a.75.75 0 0 1 1.2.9l-.936 1.248a.75.75 0 0 1-1.016.174l-.563-.375a.75.75 0 0 1 .803-1.266zm3.484.324a.75.75 0 0 1 0 1.5h-1.25a.75.75 0 1 1 0-1.5z"/></svg>