<svg xmlns="http://www.w3.org/2000/svg" width="12" height="12" fill="none" data-fui-icon="true" viewBox="0 0 12 12"><path fill="currentColor" d="M6 0a6 6 0 0 1 5.94 6.847C11.788 7.922 10.811 8.5 9.912 8.5H8.27a.72.72 0 0 0-.674.467l-.637 1.698c-.29.772-1.09 1.413-2.057 1.234A6 6 0 0 1 6 0m0 1.5a4.5 4.5 0 0 0-.826 8.925c.06.011.125 0 .193-.044a.5.5 0 0 0 .186-.242L6.19 8.44A2.22 2.22 0 0 1 8.27 7h1.643c.347 0 .52-.205.543-.363Q10.5 6.325 10.5 6A4.5 4.5 0 0 0 6 1.5M4.5 7.25a.75.75 0 1 1 0 1.5.75.75 0 0 1 0-1.5m-1-3a.75.75 0 1 1 0 1.5.75.75 0 0 1 0-1.5m5 0a.75.75 0 1 1 0 1.5.75.75 0 0 1 0-1.5M6 2.5A.75.75 0 1 1 6 4a.75.75 0 0 1 0-1.5"/></svg>