<svg xmlns="http://www.w3.org/2000/svg" width="20" height="20" fill="none" data-fui-icon="true" viewBox="0 0 20 20"><path fill="currentColor" d="M9.235 1.756a2.42 2.42 0 0 1 1.53 0l5.208 1.736a2.42 2.42 0 0 1 1.652 2.292v4.143c0 2.323-1.006 4.037-2.42 5.38-1.387 1.315-3.198 2.302-4.849 3.193a.75.75 0 0 1-.712 0c-1.651-.89-3.462-1.878-4.848-3.193-1.415-1.343-2.421-3.058-2.421-5.38V5.784c0-1.04.666-1.963 1.652-2.292zm1.055 1.423a.9.9 0 0 0-.58 0L4.502 4.915a.92.92 0 0 0-.627.87v4.142c0 1.82.765 3.163 1.954 4.292C6.96 15.292 8.446 16.14 10 16.984c1.554-.843 3.04-1.692 4.17-2.765 1.19-1.129 1.955-2.472 1.955-4.292V5.784a.92.92 0 0 0-.627-.869zm1.472 4.208a.75.75 0 1 1 1.06 1.06l-3.125 3.125a.75.75 0 0 1-1.06 0l-1.46-1.459a.75.75 0 0 1 1.061-1.06l.929.928z"/></svg>