<svg xmlns="http://www.w3.org/2000/svg" width="16" height="16" fill="none" data-fui-icon="true" viewBox="0 0 16 16"><g clip-path="url(#a)"><path fill="currentColor" d="M13.3 0A2.7 2.7 0 0 1 16 2.7v10.6a2.7 2.7 0 0 1-2.7 2.7H2.7A2.7 2.7 0 0 1 0 13.3V2.7A2.7 2.7 0 0 1 2.7 0zM6.75 14.5h6.55a1.2 1.2 0 0 0 1.2-1.2V6.25H6.75zM1.5 13.3a1.2 1.2 0 0 0 1.2 1.2h2.55V6.25H1.5zm5.25-8.55h7.75V2.7a1.2 1.2 0 0 0-1.2-1.2H6.75zM2.7 1.5a1.2 1.2 0 0 0-1.2 1.2v2.05h3.75V1.5z"/></g><defs><clipPath id="a"><path fill="currentColor" d="M0 0h16v16H0z"/></clipPath></defs></svg>