<svg xmlns="http://www.w3.org/2000/svg" width="16" height="16" fill="none" data-fui-icon="true" viewBox="0 0 16 16"><path fill="currentColor" d="M8 0a.75.75 0 0 1 .75.75v1.348a2.999 2.999 0 0 1 1.367 5.027l1.602 3.281q.281-.182.522-.37a7.2 7.2 0 0 0 1.051-1.012c.115-.136.2-.248.254-.323l.058-.083.012-.016V8.6a.75.75 0 0 1 1.269.797L14.25 9c.614.385.634.399.635.4l-.001.001q0 .003-.003.005l-.008.012-.024.036q-.03.046-.086.124a7 7 0 0 1-.324.413 8.7 8.7 0 0 1-2.058 1.77l1.543 3.16a.75.75 0 0 1-1.348.658l-1.536-3.144A8.3 8.3 0 0 1 8 13a8.3 8.3 0 0 1-3.04-.565l-1.536 3.144a.75.75 0 0 1-1.348-.658l1.542-3.16a8.7 8.7 0 0 1-2.38-2.183l-.086-.124-.025-.036-.008-.012-.003-.005v-.002L1.75 9l-.635.398a.75.75 0 1 1 1.27-.796l.012.016q.016.026.057.083c.054.075.14.187.254.323a7.2 7.2 0 0 0 1.573 1.382l1.602-3.281A2.998 2.998 0 0 1 7.25 2.098V.75A.75.75 0 0 1 8 0m.818 7.884A3 3 0 0 1 8 8a3 3 0 0 1-.818-.116l-1.56 3.195A6.8 6.8 0 0 0 8 11.5c.904 0 1.695-.168 2.378-.42zM8 3.5a1.5 1.5 0 1 0 0 3 1.5 1.5 0 0 0 0-3"/></svg>