<svg xmlns="http://www.w3.org/2000/svg" width="16" height="16" fill="none" data-fui-icon="true" viewBox="0 0 16 16"><path fill="currentColor" fill-rule="evenodd" d="M8.382 1.307a4.462 4.462 0 1 1 6.311 6.31l-1.77 1.77a.75.75 0 0 1-1.06-1.06l1.77-1.77a2.962 2.962 0 0 0-4.19-4.19l-1.77 1.77a.75.75 0 1 1-1.06-1.06zM4.138 6.612a.75.75 0 0 1 0 1.061l-1.77 1.77a2.962 2.962 0 1 0 4.189 4.19l1.77-1.77a.75.75 0 1 1 1.06 1.06l-1.77 1.77a4.462 4.462 0 1 1-6.31-6.31l1.77-1.77a.75.75 0 0 1 1.06 0" clip-rule="evenodd"/><path fill="currentColor" fill-rule="evenodd" d="M6.763 9.237a.75.75 0 0 1 0 1.061l-.586.586a.75.75 0 1 1-1.06-1.06l.585-.587a.75.75 0 0 1 1.06 0m4.12-4.12a.75.75 0 0 1 0 1.06l-.585.586a.75.75 0 0 1-1.06-1.061l.585-.586a.75.75 0 0 1 1.06 0M2.183 2.181a.75.75 0 0 1 1.06 0l10.576 10.575a.75.75 0 0 1-1.06 1.061L2.181 3.243a.75.75 0 0 1 0-1.061" clip-rule="evenodd"/></svg>