<svg xmlns="http://www.w3.org/2000/svg" width="24" height="24" fill="none" data-fui-icon="true" viewBox="0 0 24 24"><path fill="currentColor" d="M16.5 8c.478 0 .946.136 1.35.392l4.616 2.917a2.22 2.22 0 0 1 1.034 1.877v5.144c0 .762-.39 1.47-1.034 1.877l-4.615 2.917a2.53 2.53 0 0 1-2.702 0l-4.615-2.917A2.22 2.22 0 0 1 9.5 18.33v-5.144c0-.762.39-1.47 1.034-1.877l4.615-2.917A2.53 2.53 0 0 1 16.5 8m0 1.5a1.03 1.03 0 0 0-.55.16l-4.614 2.916a.72.72 0 0 0-.336.61v5.144a.72.72 0 0 0 .336.609l4.614 2.917a1.03 1.03 0 0 0 1.1 0l4.614-2.918A.72.72 0 0 0 22 18.33v-5.144a.72.72 0 0 0-.336-.61L17.05 9.66a1.03 1.03 0 0 0-.55-.159m-4.3 3.769a.75.75 0 0 1 1.017-.303l3.28 1.775 3.281-1.775a.75.75 0 0 1 .714 1.32l-3.247 1.757v3.856a.75.75 0 0 1-1.5 0v-3.86l-3.242-1.754a.75.75 0 0 1-.303-1.016M19.75 1.5a3.75 3.75 0 0 1 3.75 3.75v3.5a.75.75 0 0 1-1.5 0v-3.5A2.25 2.25 0 0 0 19.75 3H4.25A2.25 2.25 0 0 0 2 5.25V16a2.25 2.25 0 0 0 2.25 2.25h3a.75.75 0 0 1 0 1.5h-3A3.75 3.75 0 0 1 .5 16V5.25A3.75 3.75 0 0 1 4.25 1.5zm-14.875 3a1.125 1.125 0 1 1 0 2.25 1.125 1.125 0 0 1 0-2.25m3.75 0a1.125 1.125 0 1 1 0 2.25 1.125 1.125 0 0 1 0-2.25m3.75 0a1.125 1.125 0 1 1 0 2.25 1.125 1.125 0 0 1 0-2.25"/></svg>