<svg xmlns="http://www.w3.org/2000/svg" width="16" height="16" fill="none" data-fui-icon="true" viewBox="0 0 16 16"><g clip-path="url(#a)"><path fill="currentColor" d="M8 13a.75.75 0 0 1 .75.75v1.5a.75.75 0 0 1-1.5 0v-1.5A.75.75 0 0 1 8 13m3.535-1.465a.75.75 0 0 1 1.062 0l1.06 1.062a.75.75 0 0 1-1.06 1.06l-1.062-1.06a.75.75 0 0 1 0-1.062m-8.13 0a.75.75 0 0 1 1.06 1.06l-1.06 1.062a.751.751 0 0 1-1.062-1.061zM8 4a4 4 0 1 1 0 8 4 4 0 0 1 0-8m0 1.5a2.5 2.5 0 1 0 0 5 2.5 2.5 0 0 0 0-5M2.25 7.25a.75.75 0 0 1 0 1.5H.75a.75.75 0 0 1 0-1.5zm13 0a.75.75 0 0 1 0 1.5h-1.5a.75.75 0 0 1 0-1.5zM2.343 2.343a.75.75 0 0 1 1.061 0l1.06 1.061a.75.75 0 0 1-1.06 1.06l-1.061-1.06a.75.75 0 0 1 0-1.061m10.254 0a.75.75 0 0 1 1.06 1.06l-1.06 1.062a.751.751 0 0 1-1.062-1.062zM8 0a.75.75 0 0 1 .75.75v1.5a.75.75 0 0 1-1.5 0V.75A.75.75 0 0 1 8 0"/></g><defs><clipPath id="a"><path fill="currentColor" d="M0 0h16v16H0z"/></clipPath></defs></svg>