<svg xmlns="http://www.w3.org/2000/svg" width="12" height="12" fill="none" data-fui-icon="true" viewBox="0 0 12 12"><path fill="currentColor" d="M6.2 1.004q.06.002.121.007l.05.003q.051.004.104.01.143.014.282.034.01 0 .021.002.029.004.056.011c1.507.249 2.655 1.14 3.452 2.03a9.5 9.5 0 0 1 1.019 1.38l.035.059a10 10 0 0 1 .313.56l.042.08c.096.189.164.336.204.428l.001.002.037.098a.971.971 0 0 1-.037.68v.002c-.04.091-.109.24-.205.428l-.028.057a11 11 0 0 1-.316.566l-.046.079-.024.033a9.5 9.5 0 0 1-.995 1.346c-.797.89-1.945 1.781-3.452 2.03l-.056.011q-.01.002-.021.002a5 5 0 0 1-.282.034q-.053.006-.105.01-.025.002-.049.003a5 5 0 0 1-.642 0l-.05-.003q-.051-.004-.104-.01a5 5 0 0 1-.282-.034q-.01 0-.02-.002-.03-.004-.057-.011c-1.507-.25-2.654-1.14-3.451-2.03A9.5 9.5 0 0 1 .72 7.553L.696 7.52.65 7.44a10 10 0 0 1-.316-.566l-.028-.057A9 9 0 0 1 .1 6.39a.97.97 0 0 1-.068-.544 1 1 0 0 1 .068-.236v-.002c.04-.092.11-.24.205-.427L.348 5.1a10 10 0 0 1 .313-.56l.035-.06.032-.046c.254-.412.581-.88.987-1.333.797-.89 1.944-1.78 3.451-2.03l.057-.011.02-.002q.14-.02.282-.034.053-.006.105-.01l.049-.003A5 5 0 0 1 6 1zM5.742 2.51q-.068.006-.135.013c-1.147.126-2.068.787-2.776 1.578a8.2 8.2 0 0 0-1.066 1.526l-.04.075q-.09.17-.15.298.04.087.095.194a9 9 0 0 0 .164.302c.23.405.562.917.997 1.403.708.791 1.63 1.451 2.776 1.577q.068.007.135.013.128.01.258.011.13-.001.256-.01l.135-.014C7.539 9.35 8.46 8.69 9.169 7.899a8.2 8.2 0 0 0 1.065-1.527q.053-.094.096-.178.054-.107.095-.194-.06-.127-.15-.298l-.04-.075-.07-.124A8.2 8.2 0 0 0 9.169 4.1c-.708-.792-1.63-1.453-2.777-1.578q-.068-.007-.135-.013a4 4 0 0 0-.514 0M6 4a2 2 0 1 1 0 4 2 2 0 0 1 0-4"/></svg>