<svg xmlns="http://www.w3.org/2000/svg" width="12" height="12" fill="none" data-fui-icon="true" viewBox="0 0 12 12"><path fill="currentColor" d="M5.446.769c.36-.12.749-.12 1.108 0L9.679 1.81a1.75 1.75 0 0 1 1.196 1.66v2.485c0 1.494-.652 2.597-1.546 3.445-.866.822-1.988 1.431-2.973 1.962l-.085.04a.75.75 0 0 1-.627-.04c-.985-.53-2.107-1.14-2.973-1.962-.894-.848-1.546-1.95-1.546-3.445V3.471a1.75 1.75 0 0 1 1.196-1.66zm.475 1.423L2.796 3.233a.25.25 0 0 0-.171.238v2.485c0 .992.41 1.723 1.08 2.358.613.582 1.418 1.054 2.295 1.534.877-.48 1.682-.952 2.296-1.534.668-.635 1.079-1.366 1.079-2.358V3.471a.25.25 0 0 0-.17-.238L6.078 2.192A.3.3 0 0 0 6 2.179zm.924 2.028a.75.75 0 0 1 1.06 1.06L6.03 7.155a.75.75 0 0 1-1.06 0l-.875-.875a.75.75 0 0 1 1.06-1.06l.345.345z"/></svg>