<svg xmlns="http://www.w3.org/2000/svg" width="32" height="32" fill="none" data-fui-icon="true" viewBox="0 0 32 32"><path fill="currentColor" d="M14.691.355a2.75 2.75 0 0 1 2.618 0l13 7.035a2.75 2.75 0 0 1 1.441 2.42v1.523c0 .782-.635 1.417-1.417 1.417H28.35v13.31a3 3 0 0 1-.6 5.94H4.25a3 3 0 0 1-.6-5.94V12.75H1.667A1.417 1.417 0 0 1 .25 11.333V9.809c0-1.01.554-1.938 1.441-2.419zM4.25 27.5a1.5 1.5 0 0 0 0 3h23.5a1.5 1.5 0 0 0 0-3zm.9-14.75V26H9V12.75zm5.35 0V26h11V12.75zm12.5 0V26h3.85V12.75zM16.595 1.675a1.25 1.25 0 0 0-1.19 0l-13 7.035c-.403.218-.655.64-.655 1.1v1.44h28.5V9.81c0-.46-.252-.882-.655-1.1z"/></svg>