<svg xmlns="http://www.w3.org/2000/svg" width="20" height="20" fill="none" data-fui-icon="true" viewBox="0 0 20 20"><path fill="currentColor" d="M1.22 1.22a.75.75 0 0 1 1.06 0l16.5 16.5a.75.75 0 0 1-1.06 1.06l-3.567-3.567a.3.3 0 0 0-.5.125l-.249.816c-.564 1.838-2.881 2.414-4.24 1.055l-2.445-2.444a.3.3 0 0 0-.424 0l-2.661 2.66a.75.75 0 1 1-1.06-1.06l2.66-2.66a.3.3 0 0 0 0-.425l-2.445-2.445c-1.359-1.36-.782-3.678 1.056-4.241l.815-.25a.3.3 0 0 0 .124-.5L1.22 2.28a.75.75 0 0 1 0-1.06m3.064 6.808a1.05 1.05 0 0 0-.434 1.746l6.374 6.374a1.05 1.05 0 0 0 1.746-.434l.577-1.881a.3.3 0 0 0-.075-.3L6.465 7.526a.3.3 0 0 0-.3-.075zm6.253-5.638a2.55 2.55 0 0 1 3.606 0l3.465 3.465a2.55 2.55 0 0 1 0 3.606l-2.28 2.281a.3.3 0 0 1-.425 0l-.637-.637a.3.3 0 0 1 0-.425l2.282-2.28a1.05 1.05 0 0 0 0-1.484l-3.466-3.465a1.05 1.05 0 0 0-1.484 0l-2.281 2.28a.3.3 0 0 1-.425 0l-.636-.636a.3.3 0 0 1 0-.424z"/></svg>