<svg xmlns="http://www.w3.org/2000/svg" width="16" height="16" fill="none" data-fui-icon="true" viewBox="0 0 16 16"><path fill="currentColor" d="M9.594.75a3.15 3.15 0 0 1 2.748 1.611l.243.434a.89.89 0 0 0 .775.455 2.39 2.39 0 0 1 2.39 2.39v6.46a3.15 3.15 0 0 1-3.15 3.15H3.4A3.15 3.15 0 0 1 .25 12.1V5.64a2.39 2.39 0 0 1 2.39-2.39.89.89 0 0 0 .775-.455l.243-.434A3.15 3.15 0 0 1 6.406.75zm-3.188 1.5a1.65 1.65 0 0 0-1.44.844l-.242.434A2.39 2.39 0 0 1 2.64 4.75a.89.89 0 0 0-.89.89v6.46c0 .91.74 1.65 1.65 1.65h9.2c.91 0 1.65-.74 1.65-1.65V5.64a.89.89 0 0 0-.89-.89 2.39 2.39 0 0 1-2.084-1.222l-.243-.434a1.65 1.65 0 0 0-1.44-.844zM8 5a3.5 3.5 0 1 1 0 7 3.5 3.5 0 0 1 0-7m0 1.5a2 2 0 1 0 0 4 2 2 0 0 0 0-4"/></svg>