<svg xmlns="http://www.w3.org/2000/svg" width="16" height="16" fill="none" data-fui-icon="true" viewBox="0 0 16 16"><path fill="currentColor" d="M8.99.001 9 0q.044 0 .086.006a2.64 2.64 0 0 1 1.789.792l2.874 2.947c.481.494.75 1.156.751 1.845v7.767A2.643 2.643 0 0 1 11.857 16H4.143A2.643 2.643 0 0 1 1.5 13.357V2.643A2.643 2.643 0 0 1 4.143 0h4.84zM4.143 1.5C3.512 1.5 3 2.012 3 2.643v10.714c0 .631.512 1.143 1.143 1.143h7.714c.631 0 1.143-.512 1.143-1.143V6.5h-2.107A2.643 2.643 0 0 1 8.25 3.857V1.5zM9.75 3.857c0 .631.512 1.143 1.143 1.143h1.941a1.1 1.1 0 0 0-.158-.207L9.8 1.845l-.051-.048z"/></svg>