<svg xmlns="http://www.w3.org/2000/svg" width="24" height="24" fill="none" data-fui-icon="true" viewBox="0 0 24 24"><path fill="currentColor" d="M12 1c6.075 0 11 4.925 11 11s-4.925 11-11 11S1 18.075 1 12 5.925 1 12 1m.137 3.738q-1.68 0-3.058.523a6.7 6.7 0 0 0-2.361 1.483 6.5 6.5 0 0 0-1.514 2.3q-.53 1.333-.53 2.976 0 1.635.53 2.966.537 1.332 1.52 2.285.992.962 2.37 1.476 1.377.522 3.073.523 1.362 0 2.346-.265a17 17 0 0 0 1.036-.307.47.47 0 0 0 .277-.623l-.281-.72a.535.535 0 0 0-.661-.302q-.337.105-.795.226-.84.22-1.93.22-1.71 0-2.959-.674a4.7 4.7 0 0 1-1.923-1.892q-.68-1.234-.68-2.921 0-1.688.68-2.922a4.7 4.7 0 0 1 1.93-1.907q1.25-.674 2.96-.673 1.611 0 2.792.62A4.3 4.3 0 0 1 16.783 8.9q.644 1.15.644 2.77 0 1.218-.38 1.915-.37.688-1.028.688-.31 0-.492-.181-.174-.19-.175-.628V8.879a.5.5 0 0 0-.5-.5h-.729a.375.375 0 0 0-.375.374v.37a.01.01 0 0 1-.005.005q-.002 0-.004-.002-.212-.369-.755-.642-.545-.279-1.301-.279-.924 0-1.704.454-.78.447-1.256 1.294-.477.848-.477 2.05 0 1.107.424 1.984.424.87 1.196 1.377t1.824.507q.916 0 1.476-.363.557-.369.747-.852.001-.003.005-.003.003 0 .005.004.092.452.575.859.484.409 1.476.409 1.581 0 2.466-1.12.886-1.128.886-3.164 0-2.082-.892-3.633a6.15 6.15 0 0 0-2.513-2.406q-1.612-.864-3.784-.864m-.242 5.124q.854 0 1.308.56.462.553.462 1.582 0 1.022-.462 1.582-.455.553-1.308.553-.886 0-1.37-.553-.478-.553-.477-1.582 0-1.03.476-1.582.485-.56 1.37-.56"/></svg>