<svg xmlns="http://www.w3.org/2000/svg" width="20" height="20" fill="none" data-fui-icon="true" viewBox="0 0 20 20"><path stroke="currentColor" stroke-linecap="round" stroke-linejoin="round" stroke-width="1.5" d="M3.46 3.46a3.02 3.02 0 0 0-.885 2.133v8.814c0 .8.318 1.568.884 2.134v0a3.02 3.02 0 0 0 2.134.884h8.814c.8 0 1.568-.318 2.134-.884v0a3.02 3.02 0 0 0 .884-2.134V5.593c0-.8-.318-1.568-.884-2.134v0a3.02 3.02 0 0 0-2.134-.884H5.593c-.8 0-1.568.318-2.134.884"/><path fill="currentColor" d="M10.707 9.293a1 1 0 1 1-1.414 1.414 1 1 0 0 1 1.414-1.414M7.172 5.757a1 1 0 1 1-1.415 1.415 1 1 0 0 1 1.415-1.415m-1.415 7.071a1 1 0 1 1 1.415 1.415 1 1 0 0 1-1.415-1.415m8.486 0a1 1 0 1 1-1.414 1.415 1 1 0 0 1 1.414-1.415m-1.415-7.07a1 1 0 1 1 1.415 1.414 1 1 0 0 1-1.415-1.415"/></svg>