<svg xmlns="http://www.w3.org/2000/svg" width="12" height="12" fill="none" data-fui-icon="true" viewBox="0 0 12 12"><path fill="currentColor" d="M7.195.375A2.55 2.55 0 0 1 9.42 1.679l.183.326a.48.48 0 0 0 .418.245A1.98 1.98 0 0 1 12 4.23v4.845a2.55 2.55 0 0 1-2.55 2.55h-6.9a2.55 2.55 0 0 1-2.537-2.29L0 9.076V4.23A1.98 1.98 0 0 1 1.98 2.25a.48.48 0 0 0 .417-.245l.183-.326A2.55 2.55 0 0 1 4.805.375zm-2.39 1.5c-.38 0-.73.206-.916.537l-.183.325A1.98 1.98 0 0 1 1.979 3.75a.48.48 0 0 0-.479.48v4.845l.006.108c.054.529.5.942 1.044.942h6.9c.58 0 1.05-.47 1.05-1.05V4.23a.48.48 0 0 0-.48-.479 1.98 1.98 0 0 1-1.726-1.013l-.183-.325a1.05 1.05 0 0 0-.916-.537zM6 3.563a2.75 2.75 0 1 1 0 5.5 2.75 2.75 0 0 1 0-5.5m0 1.5a1.25 1.25 0 1 0 0 2.5 1.25 1.25 0 0 0 0-2.5"/></svg>