<svg xmlns="http://www.w3.org/2000/svg" width="20" height="20" fill="none" data-fui-icon="true" viewBox="0 0 20 20"><path fill="currentColor" d="M7.41 1.542c1.07 0 2.1.528 2.922.935.909.45 1.608.778 2.257.778.682 0 1.392-.157 1.98-.34 1.002-.312 2.222.38 2.222 1.574v7.563c0 .596-.342 1.178-.945 1.42-.66.265-1.944.704-3.257.704-1.069 0-2.1-.527-2.922-.934-.909-.45-1.607-.78-2.257-.78-.746.001-1.523.19-2.135.392a10 10 0 0 0-.567.208v4.647a.75.75 0 0 1-1.5 0V3.666c0-.596.343-1.178.945-1.42l.276-.106c.706-.262 1.832-.598 2.981-.598"/></svg>