<svg xmlns="http://www.w3.org/2000/svg" width="12" height="12" fill="none" data-fui-icon="true" viewBox="0 0 12 12"><path fill="currentColor" d="M8.347 1.2q.007.075.02.152a2.02 2.02 0 0 0 1.99 1.669l.375-.001V5.48h-.375a4.5 4.5 0 0 1-2.01-.476v2.83a3.54 3.54 0 0 1-7.081 0A3.54 3.54 0 0 1 5.29 4.332l.324.044v2.59l-.488-.155a1.073 1.073 0 1 0 .747 1.026V.625h2.473zM6.624 7.837a1.823 1.823 0 1 1-1.823-1.83l.064.003V5.05l-.058-.002h-.001a2.79 2.79 0 1 0 2.79 2.788v-4.22l.593.422a3.7 3.7 0 0 0 1.793.672v-.965a2.773 2.773 0 0 1-2.324-2.117l-.03-.147q-.008-.052-.015-.106h-.989z"/></svg>