<svg xmlns="http://www.w3.org/2000/svg" width="20" height="20" fill="none" data-fui-icon="true" viewBox="0 0 20 20"><path fill="currentColor" d="M8.325 2.66c.75-.493 1.8.036 1.8.982v2.702c3.205.092 5.49.799 6.953 2.487 1.547 1.786 2.005 4.487 2.005 8.043a.75.75 0 0 1-1.42.335c-.642-1.283-1.022-2.051-1.99-2.598-.94-.532-2.516-.89-5.548-.939v2.685c0 1.009-1.195 1.543-1.946.869l-7.084-6.359a1.166 1.166 0 0 1 0-1.736L8.18 2.773zM2.373 10l6.252 5.61v-2.694a.75.75 0 0 1 .75-.75c3.555 0 5.655.359 7.035 1.139.413.233.753.5 1.043.792-.212-1.966-.69-3.338-1.51-4.283-1.133-1.308-3.086-1.982-6.568-1.982a.75.75 0 0 1-.75-.75V4.388z"/></svg>