<svg xmlns="http://www.w3.org/2000/svg" width="20" height="20" fill="none" data-fui-icon="true" viewBox="0 0 20 20"><path fill="currentColor" d="M15.13 1A3.87 3.87 0 0 1 19 4.87v10.26A3.87 3.87 0 0 1 15.13 19H4.87A3.87 3.87 0 0 1 1 15.13V4.87A3.87 3.87 0 0 1 4.87 1zM5.84 9.75a.73.73 0 0 0-.553.255L2.5 13.276v1.854a2.37 2.37 0 0 0 2.37 2.37h8.421L6.375 9.984a.73.73 0 0 0-.535-.234M4.87 2.5A2.37 2.37 0 0 0 2.5 4.87v6.093l1.646-1.93a2.226 2.226 0 0 1 3.333-.064l7.84 8.52a2.367 2.367 0 0 0 2.181-2.36V4.87a2.37 2.37 0 0 0-2.37-2.37zM12.5 5a2.5 2.5 0 1 1 0 5 2.5 2.5 0 0 1 0-5m0 1.5a1 1 0 1 0 0 2 1 1 0 0 0 0-2"/></svg>