<svg xmlns="http://www.w3.org/2000/svg" width="16" height="16" fill="none" data-fui-icon="true" viewBox="0 0 16 16"><path fill="currentColor" d="M8.062.75c-2.95 0-4.803 1.496-5.812 3.156V3a.75.75 0 0 0-1.5 0v2.875c0 .822.662 1.5 1.493 1.5h1.43a.75.75 0 0 0 0-1.5h-.688c.522-1.664 2.06-3.625 5.077-3.625 3.503 0 5.688 2.619 5.688 5.75 0 3.132-2.185 5.75-5.688 5.75-2.31 0-4.175-1.264-5.078-2.868a.75.75 0 0 0-1.307.736c1.16 2.06 3.515 3.632 6.385 3.632 4.42 0 7.188-3.382 7.188-7.25 0-3.869-2.768-7.25-7.188-7.25M8 2.97a.75.75 0 0 0-.75.75v.614c-1.238.278-2 1.223-2 2.161 0 .39.092.748.286 1.057.191.304.451.517.717.669.497.284 1.126.409 1.592.508.534.113.906.2 1.158.343a.5.5 0 0 1 .19.162c.024.04.057.114.057.261 0 .032-.013.128-.175.242-.17.12-.504.252-1.07.252a2.8 2.8 0 0 1-.77-.147c-.323-.107-.573-.246-.705-.377a.75.75 0 1 0-1.06 1.06c.368.369.87.601 1.297.742q.242.077.483.128V12a.75.75 0 0 0 1.5 0v-.577c1.146-.205 2-.888 2-1.928 0-.39-.093-.748-.286-1.057a2 2 0 0 0-.717-.668c-.497-.284-1.126-.41-1.592-.51-.534-.112-.906-.198-1.158-.342a.5.5 0 0 1-.19-.163.47.47 0 0 1-.057-.26c0-.128.236-.745 1.255-.745.536 0 1.05.032 1.324.58a.75.75 0 1 0 1.342-.67c-.48-.962-1.294-1.267-1.921-1.364V3.72A.75.75 0 0 0 8 2.97"/></svg>