<svg xmlns="http://www.w3.org/2000/svg" width="32" height="32" fill="none" data-fui-icon="true" viewBox="0 0 32 32"><path fill="currentColor" d="M17.669 4.25a6.084 6.084 0 0 1 6.084 6.083v.334a6.07 6.07 0 0 1-2.592 4.979 6.08 6.08 0 0 1 3.925 5.687v.334a6.083 6.083 0 0 1-6.083 6.083H8.989a2.083 2.083 0 0 1-2.083-2.083V6.333c0-1.15.933-2.083 2.083-2.083zM8.406 25.667c0 .322.261.583.583.583h10.014a4.583 4.583 0 0 0 4.583-4.583v-.334a4.583 4.583 0 0 0-4.583-4.583H8.406zM8.99 5.75a.583.583 0 0 0-.583.583v8.917h9.263a4.584 4.584 0 0 0 4.584-4.583v-.334a4.584 4.584 0 0 0-4.584-4.583z"/></svg>