<svg xmlns="http://www.w3.org/2000/svg" width="32" height="32" fill="none" data-fui-icon="true" viewBox="0 0 32 32"><path fill="currentColor" d="M25.6 20.05a.75.75 0 0 1 .75.75v4.05h4.05a.75.75 0 0 1 0 1.5h-4.05v4.05a.75.75 0 0 1-1.5 0v-4.05H20.8a.75.75 0 0 1 0-1.5h4.05V20.8a.75.75 0 0 1 .75-.75m-9.6-2c1.43 0 3.105.001 5.702.728a.751.751 0 0 1-.404 1.445c-2.402-.673-3.917-.672-5.298-.672-6.071 0-10.85 4.396-10.85 9.65a.751.751 0 0 1-1.5 0c0-6.233 5.609-11.15 12.35-11.15m0-16.3a7.25 7.25 0 1 1 0 14.5 7.25 7.25 0 0 1 0-14.5m0 1.5a5.75 5.75 0 1 0 0 11.5 5.75 5.75 0 0 0 0-11.5"/></svg>