<svg xmlns="http://www.w3.org/2000/svg" width="16" height="16" fill="none" data-fui-icon="true" viewBox="0 0 16 16"><path fill="currentColor" d="M1.344 11.73a.75.75 0 0 1 .86.619c.024.147.16.453.422.77.26.312.547.518.775.586a.75.75 0 0 1-.426 1.439c-.618-.184-1.14-.629-1.503-1.068-.361-.434-.666-.981-.748-1.485a.75.75 0 0 1 .62-.861M4.64 2.52a2.084 2.084 0 0 1 2.947 0l.641.641c.131-.274.31-.532.537-.76l.107-.096a1.42 1.42 0 0 1 1.896.097l2.121 2.122a5.917 5.917 0 0 1-8.367 8.367L1.342 9.709a2.084 2.084 0 0 1 .564-3.347A2.08 2.08 0 0 1 4.13 3.358c.098-.306.268-.595.511-.838m1.886 1.06a.584.584 0 0 0-.825.825L7.116 5.82a.751.751 0 0 1-1.06 1.062L4.17 4.994a.584.584 0 0 0-.825.825l2.357 2.358a.75.75 0 0 1-1.06 1.06L3.226 7.823a.584.584 0 0 0-.825.825l3.182 3.182a4.417 4.417 0 0 0 6.246-6.246L9.771 3.526a1.245 1.245 0 0 0 .056 1.705c.479.478.67 1.173.506 1.83l-.066.268c-.087.346.015.714.267.966a.75.75 0 0 1-1.06 1.06 2.52 2.52 0 0 1-.663-2.39l.067-.268a.43.43 0 0 0-.112-.406 2.74 2.74 0 0 1-.69-1.162zm4.693-2.32a.75.75 0 0 1 .936-.497c.454.139.938.387 1.353.696.403.301.816.717 1.023 1.223a.75.75 0 0 1-1.389.567c-.061-.15-.234-.366-.53-.588a3.1 3.1 0 0 0-.896-.465.75.75 0 0 1-.497-.936"/></svg>