<svg xmlns="http://www.w3.org/2000/svg" width="16" height="16" fill="none" data-fui-icon="true" viewBox="0 0 16 16"><path fill="currentColor" d="M10.37 0c.9 0 1.63.73 1.63 1.63v2.16a1.63 1.63 0 0 1-1.288 1.593l-2.129.455a28 28 0 0 0 0 4.323l2.129.456A1.63 1.63 0 0 1 12 12.211v2.16c0 .9-.73 1.629-1.63 1.629H7.432c-.653 0-1.33-.302-1.703-.94C5.1 13.979 4 11.582 4 8S5.098 2.021 5.73.94C6.101.302 6.78 0 7.431 0zM7.432 1.5c-.21 0-.345.092-.407.197C6.5 2.597 5.5 4.736 5.5 8s1 5.403 1.525 6.303c.062.105.198.197.407.197h2.938a.13.13 0 0 0 .13-.13v-2.16a.13.13 0 0 0-.102-.126l-2.672-.572a.75.75 0 0 1-.59-.661l.747-.073-.747.073A30 30 0 0 1 7 8c0-1.043.053-1.997.136-2.85l.021-.12a.75.75 0 0 1 .569-.542l2.672-.572a.13.13 0 0 0 .102-.127V1.63a.13.13 0 0 0-.13-.129z"/></svg>