<svg xmlns="http://www.w3.org/2000/svg" width="20" height="20" fill="none" data-fui-icon="true" viewBox="0 0 20 20"><path fill="currentColor" d="M14.835 6.25c2.141 0 3.986 1.325 4.651 3.212.174.485.264 1.006.264 1.538a.75.75 0 0 1-1.5 0c0-.364-.062-.713-.176-1.032v-.004l-.095-.235c-.513-1.153-1.718-1.979-3.144-1.979-1.377 0-2.552.778-3.09 1.876a7.4 7.4 0 0 1 1.888 2.01.75.75 0 0 1-1.266.805c-1.073-1.684-2.956-2.772-5.079-2.686-3.087.124-5.538 2.872-5.538 6.118 0 .774.611 1.377 1.34 1.377h8.584a.75.75 0 0 1 0 1.5H3.09c-1.582 0-2.841-1.3-2.841-2.877 0-3.958 2.997-7.457 6.978-7.617a7.14 7.14 0 0 1 3.215.616c.812-1.564 2.484-2.622 4.392-2.622m1.165 5a.75.75 0 0 1 .75.75v2.25H19a.75.75 0 0 1 0 1.5h-2.25V18a.75.75 0 0 1-1.5 0v-2.25H13a.75.75 0 0 1 0-1.5h2.25V12a.75.75 0 0 1 .75-.75m-8.5-10a3.25 3.25 0 1 1 0 6.5 3.25 3.25 0 0 1 0-6.5m0 1.5a1.75 1.75 0 1 0 0 3.5 1.75 1.75 0 0 0 0-3.5m7-1.5a2.25 2.25 0 1 1 0 4.5 2.25 2.25 0 0 1 0-4.5m0 1.5a.75.75 0 1 0 0 1.5.75.75 0 0 0 0-1.5"/></svg>