<svg xmlns="http://www.w3.org/2000/svg" width="32" height="32" fill="none" data-fui-icon="true" viewBox="0 0 32 32"><path fill="currentColor" d="M16 1c8.284 0 15 6.716 15 15s-6.716 15-15 15S1 24.284 1 16 7.716 1 16 1m0 1.5C8.544 2.5 2.5 8.544 2.5 16S8.544 29.5 16 29.5 29.5 23.456 29.5 16 23.456 2.5 16 2.5m.012 3.5a.75.75 0 0 1 .75.75v.872c3.541.274 4.946 2.48 5.218 3.755a.751.751 0 0 1-1.468.313c-.135-.634-.982-2.303-3.75-2.561v6.247c1.105.209 2.276.47 3.21.981.572.315 1.09.74 1.46 1.329.372.593.565 1.304.565 2.14 0 2.024-1.818 4.259-5.235 4.545v.876a.75.75 0 0 1-1.5 0v-.874c-1.632-.133-2.81-.695-3.64-1.408a5.33 5.33 0 0 1-1.584-2.363.75.75 0 0 1 1.426-.466c.139.424.46 1.112 1.134 1.69.557.478 1.395.914 2.664 1.04v-6.247c-1.105-.209-2.276-.468-3.21-.98-.572-.313-1.09-.737-1.46-1.326-.372-.593-.564-1.305-.564-2.141 0-2.024 1.818-4.259 5.234-4.546V6.75a.75.75 0 0 1 .75-.75m.75 16.865c2.71-.268 3.735-1.98 3.735-3.039 0-.598-.136-1.024-.336-1.343-.202-.322-.503-.586-.911-.81-.66-.362-1.513-.578-2.488-.77zm-1.5-13.734c-2.71.27-3.734 1.982-3.734 3.04 0 .6.135 1.025.335 1.344.203.321.503.585.911.81.66.36 1.513.575 2.488.768z"/></svg>