<svg xmlns="http://www.w3.org/2000/svg" width="32" height="32" fill="none" data-fui-icon="true" viewBox="0 0 32 32"><path fill="currentColor" d="M26.25 4A4.75 4.75 0 0 1 31 8.75v14.5A4.75 4.75 0 0 1 26.25 28H5.75A4.75 4.75 0 0 1 1 23.25V8.75A4.75 4.75 0 0 1 5.75 4zm-6.71 13.914a6.31 6.31 0 0 1-7.08 0l-9.96-6.75V23.25a3.25 3.25 0 0 0 3.25 3.25h20.5a3.25 3.25 0 0 0 3.25-3.25V11.164zM5.75 5.5A3.25 3.25 0 0 0 2.5 8.75v.602l10.802 7.32a4.81 4.81 0 0 0 5.396 0L29.5 9.352V8.75a3.25 3.25 0 0 0-3.25-3.25z"/></svg>