<svg xmlns="http://www.w3.org/2000/svg" width="20" height="20" fill="none" data-fui-icon="true" viewBox="0 0 20 20"><path fill="currentColor" d="M3.281 1.75c1.19 0 2.192.79 2.515 1.875h1.433a3.15 3.15 0 0 1 2.848 1.805l1.804 3.82h4.656l-1.613-1.703a.75.75 0 0 1 1.09-1.031l2.812 2.968a.75.75 0 0 1 0 1.032l-2.812 2.968a.75.75 0 0 1-1.09-1.03l1.613-1.704h-4.656l-1.804 3.82a3.15 3.15 0 0 1-2.848 1.805H5.796a2.625 2.625 0 1 1 0-1.5h1.433a1.65 1.65 0 0 0 1.493-.945L10.577 10 8.722 6.07a1.65 1.65 0 0 0-1.493-.945H5.796A2.625 2.625 0 1 1 3.28 1.75m0 12.75a1.125 1.125 0 1 0 0 2.25 1.125 1.125 0 0 0 0-2.25m0-11.25a1.125 1.125 0 1 0 0 2.25 1.125 1.125 0 0 0 0-2.25"/></svg>