<svg xmlns="http://www.w3.org/2000/svg" width="32" height="32" fill="none" data-fui-icon="true" viewBox="0 0 32 32"><path fill="currentColor" d="M24.25 2A5.75 5.75 0 0 1 30 7.75v16.5q-.002.096-.006.192.004.03.006.058a5.07 5.07 0 0 1-1.38 3.483A5.73 5.73 0 0 1 24.25 30H7.75A5.75 5.75 0 0 1 2 24.25V7.75A5.75 5.75 0 0 1 7.75 2zM7.75 3.5A4.25 4.25 0 0 0 3.5 7.75v11.258l2.743-3.124a4.067 4.067 0 0 1 6.006-.115l4.058 4.279L18 17.965a3.96 3.96 0 0 1 3.078-1.465c1.098 0 2.148.455 2.898 1.258l4.524 4.84V7.75a4.25 4.25 0 0 0-4.25-4.25zM18 6a4 4 0 1 1 0 8 4 4 0 0 1 0-8"/></svg>