<svg xmlns="http://www.w3.org/2000/svg" width="24" height="24" fill="none" data-fui-icon="true" viewBox="0 0 24 24"><path fill="currentColor" d="M22.72.22a.75.75 0 1 1 1.06 1.06l-22.5 22.5a.75.75 0 1 1-1.06-1.06zm-2.893 7.133a.292.292 0 0 1 .494.138c.245 1.065.352 2.042.399 2.758.041.64.272 1.226.672 1.645l.347.364A4.579 4.579 0 0 1 18.43 20h-2.125a.315.315 0 0 0-.31.3c-.07 1.145-.542 2.06-1.258 2.696-.763.678-1.76 1.001-2.732 1.001s-1.969-.323-2.733-1c-.728-.648-1.204-1.583-1.261-2.756A.25.25 0 0 0 7.763 20a.24.24 0 0 1-.17-.411l1-1.001a.3.3 0 0 1 .213-.088h9.623a3.08 3.08 0 0 0 2.227-5.206l-.348-.364c-.685-.717-1.025-1.656-1.085-2.583a16 16 0 0 0-.247-1.954.3.3 0 0 1 .083-.271zM9.804 20a.28.28 0 0 0-.287.3c.065.718.361 1.23.75 1.575.456.404 1.084.622 1.737.622s1.281-.218 1.736-.622c.39-.346.686-.857.75-1.575a.28.28 0 0 0-.286-.3zM12 .088c2.698 0 4.589 1.017 5.896 2.44a.29.29 0 0 1-.012.405l-.634.633a.31.31 0 0 1-.45-.015c-1.056-1.156-2.574-1.963-4.8-1.963-3.013 0-4.732 1.476-5.76 3.297-1.056 1.868-1.375 4.1-1.464 5.462-.06.927-.399 1.866-1.084 2.583l-.347.364a3.08 3.08 0 0 0-.223 3.994.324.324 0 0 1-.018.425l-.64.639a.285.285 0 0 1-.422-.013 4.58 4.58 0 0 1 .218-6.081l.347-.364c.4-.42.632-1.004.673-1.644.094-1.444.432-3.943 1.653-6.104C6.18 1.94 8.358.088 12 .088"/></svg>