<svg xmlns="http://www.w3.org/2000/svg" width="16" height="16" fill="none" data-fui-icon="true" viewBox="0 0 16 16"><path fill="currentColor" d="M3.688 6.001a.75.75 0 1 1 1.061 1.06L2.367 9.444a2.963 2.963 0 0 0 4.19 4.19l2.381-2.382A.75.75 0 1 1 10 12.311l-2.382 2.382a4.463 4.463 0 0 1-6.31-6.31zM13.5 11a.75.75 0 0 1 .75.75v1h1a.75.75 0 0 1 0 1.5h-1v1a.75.75 0 0 1-1.5 0v-1h-1a.75.75 0 0 1 0-1.5h1v-1a.75.75 0 0 1 .75-.75M9.72 5.22a.75.75 0 1 1 1.06 1.06l-4.5 4.5a.75.75 0 1 1-1.06-1.06zM11.538 0a4.462 4.462 0 0 1 3.155 7.617L12.312 10a.75.75 0 1 1-1.061-1.06l2.382-2.382a2.963 2.963 0 0 0-4.19-4.19L7.062 4.75A.75.75 0 1 1 6 3.689l2.382-2.382A4.46 4.46 0 0 1 11.538 0"/></svg>