<svg xmlns="http://www.w3.org/2000/svg" width="32" height="32" fill="none" data-fui-icon="true" viewBox="0 0 32 32"><path fill="currentColor" d="M16 1c8.284 0 15 6.716 15 15s-6.716 15-15 15S1 24.284 1 16 7.716 1 16 1m-5.004 20.5c.306 1.618.741 3.066 1.272 4.275.54 1.233 1.165 2.183 1.82 2.815.652.628 1.297.91 1.912.91.616 0 1.26-.282 1.912-.91.655-.632 1.28-1.582 1.82-2.815.53-1.209.966-2.657 1.272-4.275zm-7.328 0a13.53 13.53 0 0 0 8.794 7.53c-.595-.73-1.12-1.63-1.568-2.652-.612-1.394-1.096-3.05-1.422-4.878zm18.86 0c-.326 1.829-.81 3.484-1.422 4.878-.448 1.023-.974 1.923-1.569 2.652a13.53 13.53 0 0 0 8.795-7.53zM3.104 12a13.5 13.5 0 0 0-.604 4c0 1.393.213 2.736.604 4h6.141A32 32 0 0 1 9 16c0-1.383.086-2.725.245-4zm7.653 0a31 31 0 0 0-.257 4c0 1.395.09 2.738.257 4h10.486c.166-1.262.257-2.605.257-4s-.09-2.738-.257-4zm11.998 0c.159 1.275.245 2.617.245 4s-.086 2.725-.245 4h6.14c.392-1.264.605-2.607.605-4s-.213-2.736-.605-4zM12.462 2.969A13.53 13.53 0 0 0 3.668 10.5h5.804c.326-1.829.81-3.484 1.422-4.878.448-1.023.973-1.924 1.568-2.653M16 2.5c-.616 0-1.26.282-1.912.91-.655.632-1.28 1.582-1.82 2.815-.53 1.209-.966 2.657-1.272 4.275h10.008c-.306-1.618-.741-3.066-1.272-4.275-.54-1.233-1.165-2.183-1.82-2.815-.652-.628-1.296-.91-1.912-.91m3.537.469c.595.73 1.12 1.63 1.57 2.653.61 1.394 1.095 3.05 1.421 4.878h5.804a13.53 13.53 0 0 0-8.795-7.531"/></svg>