<svg xmlns="http://www.w3.org/2000/svg" width="32" height="32" fill="none" data-fui-icon="true" viewBox="0 0 32 32"><path fill="currentColor" d="M16 .5c6.49 0 11.75 5.26 11.75 11.75 0 3.868-1.87 7.3-4.751 9.44-.62.46-1.017 1.09-1.064 1.751l-.13 1.808a3.5 3.5 0 0 1-2.32 3.049 3.499 3.499 0 0 1-6.971 0 3.5 3.5 0 0 1-2.32-3.049l-.129-1.808c-.047-.66-.444-1.291-1.064-1.751a11.74 11.74 0 0 1-4.751-9.44C4.25 5.76 9.51.5 16 .5m-1.935 28a1.999 1.999 0 0 0 3.87 0zM16 2C10.34 2 5.75 6.59 5.75 12.25c0 3.373 1.628 6.366 4.146 8.235.878.653 1.58 1.65 1.665 2.849l.13 1.809A2 2 0 0 0 13.684 27h.445l-2.121-14.139a.75.75 0 0 1 .962-.828l1.35.416 1.364-.63c.2-.092.43-.092.63 0l1.364.63 1.35-.416a.75.75 0 0 1 .963.828L17.872 27h.442a2 2 0 0 0 1.996-1.857l.129-1.809c.085-1.2.787-2.196 1.666-2.849a10.24 10.24 0 0 0 4.145-8.235C26.25 6.59 21.66 2 16 2m-1.31 11.93a.75.75 0 0 1-.536.037l-.485-.15L15.646 27h.709l1.976-13.183-.485.15a.75.75 0 0 1-.535-.036L16 13.326z"/></svg>