<svg xmlns="http://www.w3.org/2000/svg" width="32" height="32" fill="none" data-fui-icon="true" viewBox="0 0 32 32"><path fill="currentColor" d="M20.814 2.993a4.5 4.5 0 0 1 3.514 1.688l5.13 6.413a4.5 4.5 0 0 1-.207 5.864L19.306 27.73a4.5 4.5 0 0 1-6.612 0L2.75 16.958a4.5 4.5 0 0 1-.207-5.864l5.13-6.413a4.5 4.5 0 0 1 3.513-1.688zm-9.628 1.5a3 3 0 0 0-2.342 1.126l-5.13 6.413a3 3 0 0 0 .138 3.908l9.944 10.772a3 3 0 0 0 4.409 0l9.943-10.772a3 3 0 0 0 .139-3.908l-5.13-6.413a3 3 0 0 0-2.343-1.126zm4.024 3.546c.143-.898 1.437-.898 1.58 0l.455 2.86a2.25 2.25 0 0 0 1.853 1.867l2.906.482c.899.15.888 1.447-.013 1.582l-2.857.425a2.25 2.25 0 0 0-1.89 1.878l-.453 2.902c-.142.9-1.44.9-1.581 0l-.454-2.902a2.25 2.25 0 0 0-1.891-1.878l-2.856-.426c-.901-.134-.911-1.431-.012-1.58l2.905-.483a2.25 2.25 0 0 0 1.853-1.866z"/></svg>