<svg xmlns="http://www.w3.org/2000/svg" width="32" height="32" fill="none" data-fui-icon="true" viewBox="0 0 32 32"><path fill="currentColor" fill-rule="evenodd" d="M28.25 16a.75.75 0 0 1 .75.75v6.5A6.75 6.75 0 0 1 22.25 30H9.75A6.75 6.75 0 0 1 3 23.25v-6.5a.75.75 0 0 1 1.5 0v6.5c0 2.9 2.35 5.25 5.25 5.25h12.5c2.9 0 5.25-2.35 5.25-5.25v-6.5a.75.75 0 0 1 .75-.75M14.998 3.442a1.42 1.42 0 0 1 1.897-.098l.107.098 6.528 6.528a.75.75 0 0 1-1.06 1.06L16.75 5.31v14.024a.75.75 0 0 1-1.5 0V5.31l-5.72 5.72a.75.75 0 1 1-1.06-1.06z" clip-rule="evenodd"/></svg>