<svg xmlns="http://www.w3.org/2000/svg" width="12" height="12" fill="none" data-fui-icon="true" viewBox="0 0 12 12"><g clip-path="url(#a)"><path fill="currentColor" d="M9.737 8.052c.836 0 1.513.677 1.513 1.512 0 1.287-1.05 2.229-2.275 2.229h-5.95C1.8 11.793.75 10.851.75 9.564c0-.835.677-1.512 1.513-1.512zm-7.48 1.5-.003.004-.003.004-.001.004c0 .398.316.729.775.729h5.95c.459 0 .775-.33.775-.729l-.001-.004-.003-.004-.004-.003-.005-.001H2.258m7.993-3.708a.75.75 0 0 1 0 1.5h-8.5a.75.75 0 0 1 0-1.5zM8.212.336a3.04 3.04 0 0 1 3.038 3.038c0 .402-.158.788-.396 1.075-.24.288-.625.551-1.117.551H2.263c-.492 0-.877-.263-1.117-.55A1.7 1.7 0 0 1 .75 3.373 3.04 3.04 0 0 1 3.788.336zm-4.424 1.5c-.85 0-1.538.689-1.538 1.538q-.002.009.012.049.016.04.039.068l.009.009h7.38l.01-.009a.25.25 0 0 0 .05-.117c0-.85-.689-1.538-1.538-1.538z"/></g><defs><clipPath id="a"><path fill="currentColor" d="M0 0h12v12H0z"/></clipPath></defs></svg>