<svg xmlns="http://www.w3.org/2000/svg" width="32" height="32" fill="none" data-fui-icon="true" viewBox="0 0 32 32"><path stroke="currentColor" stroke-linecap="round" stroke-width="2" d="M10.667 16v-.013M11 16a.333.333 0 1 1-.667 0A.333.333 0 0 1 11 16zm5 0v-.013m.333.013a.333.333 0 1 1-.666 0 .333.333 0 0 1 .666 0zm5 0v-.013m.334.013A.333.333 0 1 1 21 16a.333.333 0 0 1 .667 0z"/><path stroke="currentColor" stroke-width="1.5" d="M28.333 16c0 6.811-5.521 12.333-12.333 12.333S3.667 22.812 3.667 16 9.189 3.667 16 3.667 28.333 9.188 28.333 16Z"/></svg>