<svg xmlns="http://www.w3.org/2000/svg" width="16" height="16" fill="none" data-fui-icon="true" viewBox="0 0 16 16"><path fill="currentColor" d="M8 1.75c1.785 0 2.018.007 2.734.04a4.5 4.5 0 0 1 1.48.277h.002c.39.143.742.372 1.034.667l.11.114c.25.271.446.59.574.936h-.001c.174.471.268.969.277 1.47l.02.483c.016.454.02.917.02 2.263 0 1.794-.007 2.02-.04 2.745-.009.503-.103 1-.277 1.472l-.003.01a2.97 2.97 0 0 1-1.703 1.703l-.01.004v-.001c-.475.176-.976.27-1.483.277-.716.033-.949.04-2.734.04s-2.018-.007-2.735-.04a4.5 4.5 0 0 1-1.482-.277 2.8 2.8 0 0 1-1.049-.683v-.001a2.8 2.8 0 0 1-.668-1.033l.001-.001a4.5 4.5 0 0 1-.277-1.47c-.033-.725-.04-.95-.04-2.745 0-1.794.007-2.02.04-2.745.009-.502.103-1 .277-1.47a2.8 2.8 0 0 1 .683-1.05 2.8 2.8 0 0 1 1.034-.669v.001a4.5 4.5 0 0 1 1.48-.277c.718-.033.95-.04 2.736-.04m0 1.5c-1.788 0-1.987.007-2.677.038l-.025.001c-.34.004-.675.067-.993.185h-.001a1.3 1.3 0 0 0-.51.337 1.3 1.3 0 0 0-.32.493c-.118.319-.18.655-.185.994v.025c-.032.69-.039.889-.039 2.677 0 1.341.003 1.788.019 2.219l.02.458v.025c.004.34.067.675.185.993v.001q.078.211.22.385l.1.109.017.015c.138.143.306.253.492.321.32.118.655.18.995.185h.025c.69.032.889.039 2.677.039s1.987-.007 2.677-.038l.025-.001c.34-.004.675-.067.993-.185a1.47 1.47 0 0 0 .831-.83c.118-.319.18-.655.185-.994v-.025c.032-.69.039-.889.039-2.677s-.007-1.987-.038-2.677l-.001-.025a3 3 0 0 0-.185-.993v-.001l-.06-.137a1.3 1.3 0 0 0-.276-.372 1.3 1.3 0 0 0-.494-.321 3 3 0 0 0-.994-.185h-.025C9.987 3.256 9.788 3.25 8 3.25m-.624 1.611a3.201 3.201 0 0 1 2.887 5.402A3.201 3.201 0 1 1 7.376 4.86M8.65 6.43A1.702 1.702 0 0 0 6.43 8.65 1.7 1.7 0 0 0 9.7 8a1.7 1.7 0 0 0-1.05-1.57zm2.73-2.57a.813.813 0 1 1 .001 1.626.813.813 0 0 1 0-1.626"/></svg>