<svg xmlns="http://www.w3.org/2000/svg" width="32" height="32" fill="none" data-fui-icon="true" viewBox="0 0 32 32"><path fill="currentColor" d="M16 2.75c7.318 0 13.25 5.932 13.25 13.25S23.318 29.25 16 29.25 2.75 23.318 2.75 16 8.682 2.75 16 2.75m0 1.5C9.51 4.25 4.25 9.51 4.25 16S9.51 27.75 16 27.75 27.75 22.49 27.75 16 22.49 4.25 16 4.25m3.97 6.72a.75.75 0 1 1 1.06 1.06L17.06 16l3.97 3.97a.75.75 0 1 1-1.06 1.06L16 17.06l-3.97 3.97a.75.75 0 1 1-1.06-1.06L14.94 16l-3.97-3.97a.75.75 0 1 1 1.06-1.06L16 14.94z"/></svg>