<svg xmlns="http://www.w3.org/2000/svg" width="16" height="16" fill="none" data-fui-icon="true" viewBox="0 0 16 16"><path fill="currentColor" d="M10.5 14.5a.75.75 0 0 1 0 1.5h-5a.75.75 0 0 1 0-1.5zM8 0c1.915 0 3.492.62 4.593 1.72C13.69 2.818 14.25 4.33 14.25 6c0 1.857-.838 3.079-1.622 3.802-.547.504-.878 1.05-.878 1.553v.145A1.75 1.75 0 0 1 10 13.25H6a1.75 1.75 0 0 1-1.75-1.75v-.146c0-.502-.33-1.048-.878-1.552C2.588 9.079 1.75 7.857 1.75 6c0-1.669.559-3.182 1.657-4.28C4.507.62 6.085 0 8 0m0 1.5c-1.585 0-2.758.506-3.532 1.28C3.69 3.557 3.25 4.67 3.25 6c0 1.351.592 2.194 1.139 2.698.655.604 1.361 1.524 1.361 2.656v.146c0 .138.112.25.25.25h4a.25.25 0 0 0 .25-.25v-.146c0-1.132.706-2.052 1.361-2.656.547-.504 1.139-1.347 1.139-2.698 0-1.331-.441-2.443-1.218-3.22C10.758 2.006 9.585 1.5 8 1.5M9.5 6a.75.75 0 0 1 0 1.5h-.75v2a.75.75 0 0 1-1.5 0v-2H6.5a.75.75 0 0 1 0-1.5z"/></svg>