<svg xmlns="http://www.w3.org/2000/svg" width="12" height="12" fill="none" data-fui-icon="true" viewBox="0 0 12 12"><path stroke="currentColor" stroke-linecap="round" stroke-linejoin="round" stroke-width="1.5" d="M2.288 2.288a1.66 1.66 0 0 0-.486 1.173V8.54c0 .44.174.862.486 1.173v0a1.66 1.66 0 0 0 1.173.486H8.54c.44 0 .862-.174 1.173-.486v0a1.66 1.66 0 0 0 .486-1.173V3.46c0-.44-.174-.862-.486-1.173v0a1.66 1.66 0 0 0-1.173-.486H3.46c-.44 0-.862.174-1.173.486"/><path fill="currentColor" d="M5.293 3.879a1 1 0 1 1-1.414 1.414 1 1 0 0 1 1.414-1.414M3.879 6.707a1 1 0 1 1 1.414 1.414 1 1 0 0 1-1.414-1.414m4.242 0a1 1 0 1 1-1.414 1.414 1 1 0 0 1 1.414-1.414M6.707 3.88a1 1 0 1 1 1.414 1.414 1 1 0 0 1-1.414-1.414"/></svg>