<svg xmlns="http://www.w3.org/2000/svg" width="32" height="32" fill="none" data-fui-icon="true" viewBox="0 0 32 32"><path fill="currentColor" d="M8.653 6.667c3.273 0 5.971 2.585 5.987 5.833.183 3.473-.571 5.959-2.016 7.95-1.414 1.949-3.437 3.34-5.563 4.722a1 1 0 0 1-1.09-1.677c2.147-1.396 3.865-2.61 5.034-4.22a8.1 8.1 0 0 0 1.034-1.914 6.06 6.06 0 0 1-3.386 1.028c-3.282 0-5.986-2.6-5.986-5.862 0-3.26 2.704-5.86 5.986-5.86m14.667 0c3.273 0 5.971 2.585 5.987 5.833.183 3.473-.572 5.959-2.017 7.95-1.414 1.949-3.436 3.34-5.562 4.722a1 1 0 0 1-1.09-1.677c2.147-1.396 3.865-2.61 5.034-4.22a8.1 8.1 0 0 0 1.034-1.914 6.06 6.06 0 0 1-3.386 1.028c-3.282 0-5.987-2.6-5.987-5.862 0-3.26 2.705-5.86 5.987-5.86"/></svg>