<svg xmlns="http://www.w3.org/2000/svg" width="20" height="20" fill="none" data-fui-icon="true" viewBox="0 0 20 20"><path fill="currentColor" d="M15.208 2.375a2.417 2.417 0 0 1 2.417 2.417v10.416a2.417 2.417 0 0 1-2.417 2.417H4.792a2.417 2.417 0 0 1-2.417-2.417V4.792a2.417 2.417 0 0 1 2.417-2.417zm-10.416 1.5a.917.917 0 0 0-.917.917v10.416c0 .506.41.917.917.917h10.416c.506 0 .917-.41.917-.917V4.792a.917.917 0 0 0-.917-.917zm3.39 7.136a.75.75 0 0 1 1.2.9l-1.559 2.08-.098.108a.75.75 0 0 1-.917.066l-.938-.625a.75.75 0 1 1 .832-1.248l.346.23zm5.36.739a.75.75 0 0 1 0 1.5h-2.084a.75.75 0 0 1 0-1.5zm-5.36-5.74a.75.75 0 0 1 1.2.9L7.824 8.99l-.098.108a.75.75 0 0 1-.917.066L5.87 8.54a.75.75 0 0 1 .832-1.248l.346.23zm5.408.74a.75.75 0 1 1 0 1.5h-2.083a.75.75 0 0 1 0-1.5z"/></svg>