<svg xmlns="http://www.w3.org/2000/svg" width="32" height="32" fill="none" data-fui-icon="true" viewBox="0 0 32 32"><path fill="currentColor" d="M20.044 2.25c1.186 0 2.316.444 3.182 1.226C23.44 3.67 23.29 4 23 4a2.5 2.5 0 0 0 0 5h.5a1 1 0 0 1 1 1v.5a2.5 2.5 0 0 0 5 0v-.563c0-.517.42-.937.936-.937.316 0 .616.156.761.437.353.681.553 1.455.553 2.275V24.7a5.55 5.55 0 0 1-5.55 5.55H5.8A5.55 5.55 0 0 1 .25 24.7V11.712A4.96 4.96 0 0 1 5.212 6.75c.58 0 1.13-.268 1.486-.727l1.509-1.939a4.75 4.75 0 0 1 3.75-1.834zM16 9.75a7.25 7.25 0 1 0 0 14.5 7.25 7.25 0 0 0 0-14.5m0 1.5a5.75 5.75 0 1 1 0 11.5 5.75 5.75 0 0 1 0-11.5M27 1.5a1 1 0 0 1 1 1v3h3a1 1 0 1 1 0 2h-3v3a1 1 0 1 1-2 0v-3h-3a1 1 0 1 1 0-2h3v-3a1 1 0 0 1 1-1"/></svg>