<svg xmlns="http://www.w3.org/2000/svg" width="20" height="20" fill="none" data-fui-icon="true" viewBox="0 0 20 20"><path fill="currentColor" d="M18.25 10a.75.75 0 0 1 .75.75v3.5A4.75 4.75 0 0 1 14.25 19h-8.5A4.75 4.75 0 0 1 1 14.25v-3.5a.75.75 0 0 1 1.5 0v3.5a3.25 3.25 0 0 0 3.25 3.25h8.5a3.25 3.25 0 0 0 3.25-3.25v-3.5a.75.75 0 0 1 .75-.75M9.175 1.342a1.167 1.167 0 0 1 1.561-.08l.09.08 3.892 3.892a.75.75 0 0 1-1.06 1.061L10.75 3.388v7.862a.75.75 0 0 1-1.5 0V3.388L6.343 6.295a.75.75 0 0 1-1.06-1.06z"/></svg>