<svg xmlns="http://www.w3.org/2000/svg" width="32" height="32" fill="none" data-fui-icon="true" viewBox="0 0 32 32"><path fill="currentColor" d="M17 4.25a.75.75 0 0 1 0 1.5H6.334a1.917 1.917 0 0 0-1.917 1.917v14c0 1.058.859 1.916 1.917 1.916h5.202c.49 0 .963.173 1.338.487l2.754 2.308c.216.18.53.182.747.002l2.798-2.317c.374-.31.844-.48 1.329-.48h5.165a1.917 1.917 0 0 0 1.917-1.916v-5.334a.75.75 0 0 1 1.5 0v5.334a3.417 3.417 0 0 1-3.417 3.416h-5.165a.6.6 0 0 0-.372.135l-2.798 2.317a2.084 2.084 0 0 1-2.668-.008l-2.753-2.307a.6.6 0 0 0-.375-.137H6.334a3.417 3.417 0 0 1-3.417-3.416v-14A3.417 3.417 0 0 1 6.334 4.25zm-7 9.25a1.167 1.167 0 1 1 0 2.335 1.167 1.167 0 0 1 0-2.335m6 0a1.167 1.167 0 1 1 0 2.335 1.167 1.167 0 0 1 0-2.335m6 0a1.167 1.167 0 1 1 0 2.335 1.167 1.167 0 0 1 0-2.335m3.333-10.583a5.084 5.084 0 1 1 0 10.168 5.084 5.084 0 0 1 0-10.168m0 1.5a3.583 3.583 0 1 0 0 7.167 3.583 3.583 0 0 0 0-7.167"/></svg>