<svg xmlns="http://www.w3.org/2000/svg" width="20" height="20" fill="none" data-fui-icon="true" viewBox="0 0 20 20"><path fill="currentColor" d="M6.71 11A2.29 2.29 0 0 1 9 13.29v2.42A2.29 2.29 0 0 1 6.71 18H4.29A2.29 2.29 0 0 1 2 15.71v-2.42A2.29 2.29 0 0 1 4.29 11zm9 0A2.29 2.29 0 0 1 18 13.29v2.42A2.29 2.29 0 0 1 15.71 18h-2.42A2.29 2.29 0 0 1 11 15.71v-2.42A2.29 2.29 0 0 1 13.29 11zM4.29 12.5a.79.79 0 0 0-.79.79v2.42c0 .436.354.79.79.79h2.42a.79.79 0 0 0 .79-.79v-2.42a.79.79 0 0 0-.79-.79zm9 0a.79.79 0 0 0-.79.79v2.42c0 .436.354.79.79.79h2.42a.79.79 0 0 0 .79-.79v-2.42a.79.79 0 0 0-.79-.79zM6.71 2A2.29 2.29 0 0 1 9 4.29v2.42A2.29 2.29 0 0 1 6.71 9H4.29A2.29 2.29 0 0 1 2 6.71V4.29A2.29 2.29 0 0 1 4.29 2zm9 0A2.29 2.29 0 0 1 18 4.29v2.42A2.29 2.29 0 0 1 15.71 9h-2.42A2.29 2.29 0 0 1 11 6.71V4.29A2.29 2.29 0 0 1 13.29 2zM4.29 3.5a.79.79 0 0 0-.79.79v2.42c0 .436.354.79.79.79h2.42a.79.79 0 0 0 .79-.79V4.29a.79.79 0 0 0-.79-.79zm9 0a.79.79 0 0 0-.79.79v2.42c0 .436.354.79.79.79h2.42a.79.79 0 0 0 .79-.79V4.29a.79.79 0 0 0-.79-.79z"/></svg>