<svg xmlns="http://www.w3.org/2000/svg" width="12" height="12" fill="none" data-fui-icon="true" viewBox="0 0 12 12"><g clip-path="url(#a)"><path fill="currentColor" d="M10.75 4.1a.75.75 0 0 1 .75.75 5.25 5.25 0 0 1-4.58 5.205.193.193 0 0 0-.17.19v.068c0 .103.084.187.188.187H8.25a.75.75 0 0 1 0 1.5h-4.5a.75.75 0 0 1 0-1.5h1.313a.187.187 0 0 0 .187-.187v-.068a.193.193 0 0 0-.17-.19A5.25 5.25 0 0 1 .5 4.85a.75.75 0 0 1 1.5 0A3.75 3.75 0 0 0 5.75 8.6h.5A3.75 3.75 0 0 0 10 4.85a.75.75 0 0 1 .75-.75M6 0a3 3 0 0 1 3 3v1.5a3 3 0 0 1-5.996.154L3 4.5V3a3 3 0 0 1 3-3m0 1.5A1.5 1.5 0 0 0 4.5 3v1.5a1.5 1.5 0 0 0 3 0V3A1.5 1.5 0 0 0 6 1.5"/></g><defs><clipPath id="a"><path fill="currentColor" d="M0 0h12v12H0z"/></clipPath></defs></svg>