<svg xmlns="http://www.w3.org/2000/svg" width="12" height="12" fill="none" data-fui-icon="true" viewBox="0 0 12 12"><path fill="currentColor" d="M6.043.75c-1.778 0-3.007.75-3.793 1.696V2a.75.75 0 0 0-1.5 0v2.53c0 .693.56 1.268 1.265 1.268H3.5a.75.75 0 1 0 0-1.5h-.64c.418-1 1.401-2.048 3.183-2.048C8.327 2.25 9.75 3.946 9.75 6S8.327 9.75 6.043 9.75a3.77 3.77 0 0 1-3.142-1.667.751.751 0 0 0-1.248.834 5.27 5.27 0 0 0 4.39 2.333c3.201 0 5.207-2.458 5.207-5.25S9.244.75 6.043.75M6 3.75a.75.75 0 0 0-.75.75V6c0 .15.044.294.126.416l.094.114 1 1a.75.75 0 1 0 1.06-1.06l-.78-.78V4.5A.75.75 0 0 0 6 3.75"/></svg>