<svg xmlns="http://www.w3.org/2000/svg" width="32" height="32" fill="none" data-fui-icon="true" viewBox="0 0 32 32"><path fill="currentColor" fill-rule="evenodd" d="M26.327 6.318 16.66 3.097a2.07 2.07 0 0 0-1.32-.002L5.676 6.317c-.126.042-.232.116-.345.179-.65.363-1.08 1.032-1.08 1.798v7.589c0 3.566 1.538 6.197 3.734 8.28.834.793 1.769 1.508 2.754 2.171.114.078.232.15.347.227q.286.19.58.377c1.324.832 2.692 1.57 3.98 2.265a.75.75 0 0 0 .712 0c5.076-2.738 11.394-6.146 11.394-13.32v-7.59c0-.898-.574-1.692-1.425-1.976m-.077 9.566c0 6.13-5.37 9.171-10.25 11.808V4.49q.095 0 .184.03l9.668 3.222c.238.08.398.302.398.554z" clip-rule="evenodd"/></svg>