<svg xmlns="http://www.w3.org/2000/svg" width="32" height="32" fill="none" data-fui-icon="true" viewBox="0 0 32 32"><path fill="currentColor" d="m24.65 1 .248.005a6.75 6.75 0 0 1 5.904 3.967l.675 1.493c.345.764.523 1.592.523 2.43v.096a5.81 5.81 0 0 1-3.114 5.147V24.82a5.356 5.356 0 0 1-5.357 5.357H8.456a5.357 5.357 0 0 1-5.357-5.357V14.13A5.81 5.81 0 0 1 0 8.99v-.095c0-.839.178-1.667.523-2.431l.675-1.493a6.75 6.75 0 0 1 5.905-3.967L7.35 1zm-3.724 10.441a5.3 5.3 0 0 1-4.934 3.359l-.292-.008a5.3 5.3 0 0 1-4.635-3.335A5.81 5.81 0 0 1 5.81 14.8l-.3-.008a6 6 0 0 1-.91-.121v10.15a3.857 3.857 0 0 0 3.856 3.856h2.371v-7.738c0-.909.737-1.645 1.645-1.645h7.043c.908 0 1.644.736 1.644 1.645v7.738h2.371a3.856 3.856 0 0 0 3.857-3.857V14.675a6 6 0 0 1-.896.117l-.299.008a5.81 5.81 0 0 1-5.265-3.359m-8.455 9.353a.145.145 0 0 0-.145.145v7.738h7.332v-7.738a.145.145 0 0 0-.144-.145zm.284-17.167-.546 5.495a3.802 3.802 0 1 0 7.567 0l-.562-5.652-.186-.97h-6.056zM7.35 2.5a5.25 5.25 0 0 0-4.786 3.089l-.674 1.493A4.4 4.4 0 0 0 1.5 8.896v.095a4.309 4.309 0 0 0 8.54.815l1.227-6.381.092-.925zm13.35.76 1.26 6.546A4.309 4.309 0 0 0 30.5 8.99v-.095c0-.626-.133-1.244-.39-1.814l-.675-1.493A5.25 5.25 0 0 0 24.649 2.5h-4.023z"/></svg>