<svg xmlns="http://www.w3.org/2000/svg" width="20" height="20" fill="none" data-fui-icon="true" viewBox="0 0 20 20"><g clip-path="url(#a)"><path fill="currentColor" fill-rule="evenodd" d="M9.146 1.747a1.6 1.6 0 0 1 1.708 0l6.082 3.845c.351.222.564.608.564 1.023v6.77c0 .415-.213.801-.564 1.023l-6.082 3.845a1.6 1.6 0 0 1-1.708 0l-6.082-3.845a1.21 1.21 0 0 1-.564-1.023v-6.77c0-.415.213-.801.564-1.023zM10 0c-.586 0-1.16.166-1.655.48L2.262 4.323A2.71 2.71 0 0 0 1 6.615v6.77c0 .93.476 1.794 1.262 2.291l6.083 3.845a3.1 3.1 0 0 0 3.31 0l6.083-3.845A2.71 2.71 0 0 0 19 13.385v-6.77a2.71 2.71 0 0 0-1.262-2.291L11.655.479A3.1 3.1 0 0 0 10 0m5.156 7.846-4.412 2.388v5.233a.75.75 0 1 1-1.5 0V10.23L4.838 7.846a.75.75 0 0 1 .714-1.32l4.445 2.406 4.445-2.405a.75.75 0 1 1 .714 1.32" clip-rule="evenodd"/></g><defs><clipPath id="a"><path fill="currentColor" d="M0 0h20v20H0z"/></clipPath></defs></svg>