<svg xmlns="http://www.w3.org/2000/svg" width="12" height="12" fill="none" data-fui-icon="true" viewBox="0 0 12 12"><path fill="currentColor" d="M6.378 1.368a1.75 1.75 0 0 1 2.475 0l1.768 1.768a1.75 1.75 0 0 1 0 2.474L8.91 7.32a.45.45 0 0 0-.118.21L8.24 9.734c-.33 1.32-1.974 1.776-2.936.814L3.903 9.146l-1.59 1.591a.75.75 0 0 1-1.061-1.061l1.59-1.59L1.44 6.682c-.962-.962-.507-2.606.813-2.936l2.206-.552a.45.45 0 0 0 .21-.118zm1.415 1.06a.25.25 0 0 0-.354 0l-1.71 1.71c-.25.25-.563.427-.906.513l-2.206.551a.25.25 0 0 0-.116.42l3.865 3.865a.25.25 0 0 0 .42-.115l.552-2.207a1.95 1.95 0 0 1 .512-.905l1.71-1.71a.25.25 0 0 0 0-.354z"/></svg>