<svg xmlns="http://www.w3.org/2000/svg" width="24" height="24" fill="none" data-fui-icon="true" viewBox="0 0 24 24"><path fill="currentColor" fill-rule="evenodd" d="M18.166 2.125a3.916 3.916 0 0 0-3.825 4.757L8.435 9.506a3.916 3.916 0 1 0 0 4.987l5.906 2.625q-.09.408-.091.841a3.916 3.916 0 1 0 .688-2.217l-5.785-2.57a3.9 3.9 0 0 0 0-2.344l5.785-2.57a3.916 3.916 0 1 0 3.228-6.133M15.75 6.041a2.416 2.416 0 1 1 4.832 0 2.416 2.416 0 0 1-4.832 0M3 12a2.416 2.416 0 1 1 4.832 0A2.416 2.416 0 0 1 3 12m15.166 3.543a2.416 2.416 0 1 0 0 4.832 2.416 2.416 0 0 0 0-4.832" clip-rule="evenodd"/></svg>