<svg xmlns="http://www.w3.org/2000/svg" width="24" height="24" fill="none" data-fui-icon="true" viewBox="0 0 24 24"><path fill="currentColor" fill-rule="evenodd" d="M2.7.031C1.337.031.043 1.176.32 2.707c.504 2.782 2.031 4.822 3.403 6.152a14 14 0 0 0 1.756 1.444 8.4 8.4 0 1 0 13.039 0c.479-.33 1.104-.81 1.757-1.444 1.372-1.33 2.898-3.37 3.403-6.152.277-1.531-1.016-2.676-2.38-2.676h-2.04c-1.768 0-3.062 1.427-3.369 2.991a12.3 12.3 0 0 1-1.314 3.59c-.194.348-.374.631-.518.842A8.4 8.4 0 0 0 12 7.2c-.71 0-1.4.088-2.058.254a11 11 0 0 1-.518-.842 12.3 12.3 0 0 1-1.315-3.59C7.803 1.458 6.51.032 4.741.032zM17.6 9.114l-.147.098a8.4 8.4 0 0 0-1.94-1.244q.175-.275.373-.627c.53-.952 1.142-2.33 1.475-4.03.203-1.037 1.013-1.78 1.897-1.78h2.04c.626 0 .98.483.904.908-.431 2.377-1.74 4.15-2.971 5.344-.614.595-1.2 1.038-1.631 1.33M8.485 7.968A13.803 13.803 0 0 1 6.637 3.31c-.203-1.036-1.012-1.779-1.896-1.779H2.7c-.626 0-.98.483-.903.908.43 2.377 1.74 4.15 2.971 5.344a12.3 12.3 0 0 0 1.777 1.429 8.4 8.4 0 0 1 1.94-1.244M18.9 15.6a6.9 6.9 0 1 1-13.8 0 6.9 6.9 0 0 1 13.8 0m-3.37-1.27a.75.75 0 1 0-1.06-1.06l-3.67 3.67-1.27-1.27a.75.75 0 0 0-1.06 1.06l1.8 1.8a.75.75 0 0 0 1.06 0z" clip-rule="evenodd"/></svg>