<svg xmlns="http://www.w3.org/2000/svg" width="32" height="32" fill="none" data-fui-icon="true" viewBox="0 0 32 32"><path fill="currentColor" d="M16.277 2.25a.75.75 0 0 1 0 1.5h-5A7.25 7.25 0 0 0 4.027 11v10a7.25 7.25 0 0 0 7.25 7.25h10a7.25 7.25 0 0 0 7.25-7.25v-5a.75.75 0 0 1 1.5 0v5a8.75 8.75 0 0 1-8.75 8.75h-10A8.75 8.75 0 0 1 2.527 21V11a8.75 8.75 0 0 1 8.75-8.75zm6.828 1.368a3.75 3.75 0 0 1 5.304 5.304l-10.471 10.47a2.75 2.75 0 0 1-1.406.753l-2.945.588a1.95 1.95 0 0 1-2.294-2.294l.59-2.944a2.75 2.75 0 0 1 .752-1.405zm-9.41 11.532a1.25 1.25 0 0 0-.341.64l-.59 2.944a.45.45 0 0 0 .529.529l2.945-.59a1.25 1.25 0 0 0 .639-.341l8.526-8.526-3.181-3.183zM27.35 4.68a2.25 2.25 0 0 0-3.183 0l-.884.883 3.183 3.183.884-.884a2.25 2.25 0 0 0 0-3.182"/></svg>