<svg xmlns="http://www.w3.org/2000/svg" width="16" height="16" fill="none" data-fui-icon="true" viewBox="0 0 16 16"><path fill="currentColor" d="M11.833 9.083a.75.75 0 0 1 .75.75v1.417H14a.75.75 0 0 1 0 1.5h-1.417v1.416a.75.75 0 0 1-1.5 0V12.75H9.667a.75.75 0 0 1 0-1.5h1.416V9.833a.75.75 0 0 1 .75-.75m-1-8a.75.75 0 0 1 .75.75v.583h.584c1.15 0 2.083.934 2.083 2.084v3a.75.75 0 0 1-1.5 0v-.584h-9.5v5.25c0 .322.261.584.583.584H7.5a.75.75 0 0 1 0 1.5H3.833a2.084 2.084 0 0 1-2.083-2.084V4.5c0-1.15.933-2.084 2.083-2.084h.584v-.583a.75.75 0 0 1 1.5 0v.583h4.166v-.583a.75.75 0 0 1 .75-.75m-7 2.833a.584.584 0 0 0-.583.584v.916h9.5V4.5a.584.584 0 0 0-.583-.584z"/></svg>