<svg xmlns="http://www.w3.org/2000/svg" width="12" height="12" fill="none" data-fui-icon="true" viewBox="0 0 12 12"><g clip-path="url(#a)"><path fill="currentColor" fill-rule="evenodd" d="M5.25 6.563c1.211 0 2.148.252 2.863.669A3.7 3.7 0 0 1 9.56 8.747c.5.973-.152 1.954-1.01 2.207-.755.224-1.928.484-3.3.484-1.373 0-2.545-.26-3.301-.484-.857-.253-1.51-1.234-1.01-2.207a3.7 3.7 0 0 1 1.448-1.515c.715-.417 1.652-.67 2.863-.67m0 1.5c-1.002 0-1.667.207-2.11.465a2.2 2.2 0 0 0-.867.905q-.005.012-.003.004l.003.007c.01.018.04.054.1.072.662.195 1.687.422 2.877.422s2.214-.227 2.876-.422a.17.17 0 0 0 .1-.072l.003-.007c0 .005.002.005-.003-.004a2.2 2.2 0 0 0-.867-.905c-.442-.258-1.107-.465-2.11-.465m2.663-2.3a.75.75 0 0 1 .95-.475c1.196.4 2.097.837 2.973 1.931a.75.75 0 0 1-1.172.938c-.624-.781-1.223-1.094-2.277-1.445a.75.75 0 0 1-.474-.949M5.25.563a2.813 2.813 0 1 1 0 5.625 2.813 2.813 0 0 1 0-5.625m3.14.079a.75.75 0 0 1 1.016-.3 2.812 2.812 0 0 1 .957 4.089.75.75 0 0 1-1.226-.864 1.313 1.313 0 0 0-.447-1.908.75.75 0 0 1-.3-1.017m-3.14 1.42a1.313 1.313 0 1 0 0 2.626 1.313 1.313 0 0 0 0-2.625" clip-rule="evenodd"/></g><defs><clipPath id="a"><path fill="currentColor" d="M0 0h12v12H0z"/></clipPath></defs></svg>