<svg xmlns="http://www.w3.org/2000/svg" width="20" height="20" fill="none" data-fui-icon="true" viewBox="0 0 20 20"><path fill="currentColor" d="M14.472 2.075a1.5 1.5 0 0 1 2.897.777l-.619 2.311h1.65a1.5 1.5 0 0 1 0 3h-2.454l-1.013 3.785h1.852a1.501 1.501 0 0 1 0 3H14.13l-.741 2.764a1.5 1.5 0 0 1-2.899-.776l.534-1.988H6.375l-.741 2.764a1.5 1.5 0 0 1-2.899-.776l.534-1.988H1.6a1.5 1.5 0 1 1 0-3h2.471l1.014-3.785h-1.87a1.5 1.5 0 0 1 0-3H5.89l.828-3.088a1.5 1.5 0 0 1 2.897.777l-.619 2.311h4.648zm-7.293 9.873h4.647l1.014-3.785H8.192z"/></svg>