<svg xmlns="http://www.w3.org/2000/svg" width="32" height="32" fill="none" data-fui-icon="true" viewBox="0 0 32 32"><path fill="currentColor" d="M16.124 2.25c-7.43 0-11.173 4.994-12.374 9.08V7.75a.75.75 0 0 0-1.5 0v4c0 1.236.994 2.25 2.235 2.25H8.43a.75.75 0 0 0 0-1.5H4.998c.794-3.718 4.077-8.75 11.126-8.75C23.589 3.75 28.25 9.369 28.25 16s-4.66 12.25-12.126 12.25c-5.116 0-9.234-3.016-11.061-6.824a.75.75 0 1 0-1.352.648c2.063 4.3 6.688 7.676 12.413 7.676 8.382 0 13.626-6.381 13.626-13.75S24.506 2.25 16.124 2.25m-.098 4.308a.75.75 0 0 0-.75.75v.885c-3.1.292-4.752 2.372-4.752 4.257q.002 1.169.52 2.005c.342.556.82.956 1.35 1.251.843.471 1.893.713 2.882.905v5.672c-1.093-.124-1.816-.513-2.3-.935a3.5 3.5 0 0 1-1.012-1.54.75.75 0 0 0-1.428.459c.18.56.588 1.453 1.453 2.21.756.66 1.821 1.18 3.287 1.314v.886a.75.75 0 0 0 1.5 0v-.887c3.102-.29 4.752-2.37 4.752-4.256q-.002-1.169-.52-2.005c-.341-.555-.82-.955-1.349-1.25-.843-.472-1.894-.715-2.883-.907V9.696c2.413.26 3.15 1.752 3.268 2.318a.75.75 0 0 0 1.469-.308c-.25-1.188-1.528-3.238-4.737-3.517v-.881a.75.75 0 0 0-.75-.75m.75 10.341c.848.174 1.581.37 2.152.689.362.202.626.44.803.727.176.286.297.671.297 1.22 0 .946-.888 2.48-3.252 2.75zm-1.5-1.816c-.846-.174-1.58-.368-2.15-.687-.362-.202-.627-.439-.805-.727-.176-.286-.296-.67-.297-1.219 0-.946.89-2.48 3.252-2.75z"/></svg>