<svg xmlns="http://www.w3.org/2000/svg" width="32" height="32" fill="none" data-fui-icon="true" viewBox="0 0 32 32"><path fill="currentColor" d="M16 0c1.452 0 2.857.189 4.192.543a.75.75 0 1 1-.384 1.45A14.8 14.8 0 0 0 16 1.5C7.914 1.5 1.5 7.914 1.5 16S7.914 30.5 16 30.5 30.5 24.086 30.5 16c0-1.322-.171-2.598-.492-3.808a.75.75 0 1 1 1.449-.384c.354 1.335.543 2.74.543 4.192 0 8.914-7.086 16-16 16S0 24.914 0 16 7.086 0 16 0m4.831 20.661a.75.75 0 0 1 1.34.674l-.575-.287.575.288h-.001l-.003.007-.007.012-.02.038q-.023.045-.068.12c-.059.099-.145.235-.26.395-.232.32-.583.741-1.074 1.161-.989.848-2.532 1.681-4.738 1.681s-3.75-.833-4.738-1.68a6.7 6.7 0 0 1-1.074-1.162 5 5 0 0 1-.329-.515l-.02-.038-.006-.012-.003-.006v-.001l.574-.288-.575.287a.75.75 0 0 1 1.34-.674v.004h.002l.006.01q.01.021.04.07c.038.065.1.163.188.284.176.243.449.572.833.902.761.652 1.968 1.319 3.762 1.319s3-.667 3.762-1.32c.384-.329.657-.658.833-.9a4 4 0 0 0 .228-.355l.006-.009v-.001l.002-.003m-.002.004.001-.003h.001zM9.375 13.4a1.375 1.375 0 1 1 0 2.75 1.375 1.375 0 0 1 0-2.75m13.25 0a1.375 1.375 0 1 1 0 2.75 1.375 1.375 0 0 1 0-2.75M27.25 0a.75.75 0 0 1 .75.75V4h3.25a.75.75 0 0 1 0 1.5H28v3.25a.75.75 0 0 1-1.5 0V5.5h-3.25a.75.75 0 0 1 0-1.5h3.25V.75a.75.75 0 0 1 .75-.75"/></svg>