<svg xmlns="http://www.w3.org/2000/svg" width="12" height="12" fill="none" data-fui-icon="true" viewBox="0 0 12 12"><path fill="currentColor" d="M6 0a5 5 0 0 1 5 5c0 1.97-1.233 3.715-2.325 4.89a15.4 15.4 0 0 1-2.046 1.832l-.148.106-.04.03-.012.007-.004.003-.001.001L6 11.25l.423.62a.75.75 0 0 1-.846 0L6 11.25l-.424.62v-.002q-.002 0-.005-.003l-.011-.008-.041-.029-.148-.106A15.377 15.377 0 0 1 3.325 9.89C2.233 8.715 1 6.97 1 5a5 5 0 0 1 5-5m0 1.5A3.5 3.5 0 0 0 2.5 5c0 1.377.892 2.758 1.925 3.87.501.54 1.005.983 1.385 1.292q.102.08.19.148.088-.067.19-.148c.38-.309.884-.752 1.385-1.292C8.608 7.758 9.5 6.377 9.5 5A3.5 3.5 0 0 0 6 1.5M6 3a2 2 0 1 1 0 4 2 2 0 0 1 0-4"/></svg>