<svg xmlns="http://www.w3.org/2000/svg" width="12" height="12" fill="none" data-fui-icon="true" viewBox="0 0 12 12"><g clip-path="url(#a)"><path fill="currentColor" d="m7.801 1.651-.6.45a.75.75 0 0 0 .706.293zm1.911.637-.53.53zm.637 1.91-.743-.105a.75.75 0 0 0 .293.706zm0 3.603-.45-.6a.75.75 0 0 0-.293.706zm-.637 1.911.53.53zm-1.91.637.105-.743a.75.75 0 0 0-.706.293zm-3.603 0 .6-.45a.75.75 0 0 0-.706-.293zm-1.911-.637.53-.53zm-.637-1.91.743.105a.75.75 0 0 0-.293-.706zm0-3.603.45.6a.75.75 0 0 0 .293-.706zM4.2 1.65l-.106.743a.75.75 0 0 0 .706-.293zm4.202-.45A3 3 0 0 0 6 0v1.5c.49 0 .926.235 1.201.601zm1.842.556A3 3 0 0 0 7.695.91l.212 1.485c.454-.065.928.077 1.275.424zm.848 2.548a3 3 0 0 0-.848-2.548L9.182 2.818c.347.347.489.821.424 1.275zM12 6c0-.983-.473-1.855-1.201-2.401l-.9 1.2c.366.275.601.71.601 1.201zm-1.201 2.401A3 3 0 0 0 12 6h-1.5c0 .49-.235.926-.601 1.201zm-.556 1.842a3 3 0 0 0 .848-2.548l-1.485.212c.065.454-.077.928-.424 1.275zm-2.548.848c.901.129 1.853-.153 2.548-.848L9.182 9.182a1.5 1.5 0 0 1-1.275.424zM6 12c.983 0 1.855-.473 2.401-1.201l-1.2-.9c-.275.366-.71.601-1.201.601zm-2.401-1.201A3 3 0 0 0 6 12v-1.5c-.49 0-.926-.235-1.201-.601zm-1.842-.556a3 3 0 0 0 2.548.848l-.212-1.485a1.5 1.5 0 0 1-1.275-.424zM.91 7.695c-.129.901.153 1.853.848 2.548l1.061-1.061a1.5 1.5 0 0 1-.424-1.275zM0 6c0 .983.473 1.855 1.201 2.401l.9-1.2A1.5 1.5 0 0 1 1.5 6zm1.201-2.401A3 3 0 0 0 0 6h1.5c0-.49.235-.926.601-1.201zm.556-1.842A3 3 0 0 0 .91 4.305l1.485-.212a1.5 1.5 0 0 1 .424-1.275zM4.305.91a3 3 0 0 0-2.548.848l1.061 1.061a1.5 1.5 0 0 1 1.275-.424zM6 0c-.983 0-1.855.473-2.401 1.201l1.2.9C5.074 1.735 5.509 1.5 6 1.5z"/><path stroke="currentColor" stroke-linecap="round" stroke-linejoin="round" stroke-width="1.5" d="m3.75 6 1.5 1.594 3-3.094"/></g><defs><clipPath id="a"><path fill="currentColor" d="M0 0h12v12H0z"/></clipPath></defs></svg>