<svg xmlns="http://www.w3.org/2000/svg" width="20" height="20" fill="none" data-fui-icon="true" viewBox="0 0 20 20"><path fill="currentColor" d="M15.51 12.25c.123 0 .235.074.274.19q.211.625.212 1.386c0 1.968-1.72 4.136-4.959 4.517a.31.31 0 0 0-.275.303v.6a.751.751 0 0 1-1.5 0v-.597a.31.31 0 0 0-.275-.304c-1.49-.17-2.582-.708-3.366-1.381a5.33 5.33 0 0 1-1.583-2.362.75.75 0 0 1 1.426-.467 3.83 3.83 0 0 0 1.133 1.69c.508.436 1.249.836 2.337.999a.29.29 0 0 0 .328-.29v-3.985a.3.3 0 0 1 .3-.3h.9a.3.3 0 0 1 .3.3v3.984a.29.29 0 0 0 .33.29c2.463-.369 3.404-1.982 3.404-2.998 0-.598-.136-1.023-.336-1.342-.06-.097.004-.234.118-.234zM10.013 0a.75.75 0 0 1 .75.75v.595c0 .157.122.287.277.304 3.337.365 4.676 2.487 4.94 3.728a.751.751 0 0 1-1.468.313c-.129-.608-.914-2.17-3.42-2.523a.29.29 0 0 0-.329.291V8.95a.3.3 0 0 0 .3.3h8.188a.75.75 0 0 1 0 1.5H.75a.75.75 0 0 1 0-1.5h3.824c.287 0 .43-.39.25-.612a3 3 0 0 1-.231-.326c-.373-.593-.565-1.304-.565-2.14 0-1.97 1.721-4.138 4.96-4.518a.31.31 0 0 0 .274-.304v-.6a.75.75 0 0 1 .75-.75m-.75 3.462a.29.29 0 0 0-.33-.29c-2.463.37-3.404 1.985-3.404 3 0 .598.135 1.024.335 1.342.202.322.503.586.911.81.578.317 1.304.52 2.13.695a.297.297 0 0 0 .358-.292z"/></svg>