<svg xmlns="http://www.w3.org/2000/svg" width="32" height="32" fill="none" data-fui-icon="true" viewBox="0 0 32 32"><path stroke="currentColor" stroke-linecap="round" stroke-linejoin="round" stroke-width="1.5" d="M27.25 14.25V9.47a3.72 3.72 0 0 0-3.72-3.72H4.47A3.72 3.72 0 0 0 .75 9.47v13.06a3.72 3.72 0 0 0 3.72 3.72h18.78"/><path stroke="currentColor" stroke-linecap="round" stroke-linejoin="round" stroke-width="1.5" d="m.75 10.4 10.347 6.964A5.2 5.2 0 0 0 14 18.25v0a5.2 5.2 0 0 0 2.903-.886L27.25 10.4m-7.5 11.351h11.5m0 0-4.5-4.25m4.5 4.25L26.75 26"/></svg>