<svg xmlns="http://www.w3.org/2000/svg" width="32" height="32" fill="none" data-fui-icon="true" viewBox="0 0 32 32"><path fill="currentColor" d="M22.31 4.76a8.75 8.75 0 0 1 8.275 7.706l1.127 9.473a4.75 4.75 0 0 1-4.716 5.311h-.261a4.75 4.75 0 0 1-2.676-.825l-3.462-2.36a3.25 3.25 0 0 0-1.83-.565h-5.532c-.653 0-1.292.197-1.831.564l-3.461 2.36a4.75 4.75 0 0 1-2.676.826h-.262a4.75 4.75 0 0 1-4.717-5.311l1.128-9.473a8.75 8.75 0 0 1 8.689-7.716h11.792zM10.5 10.75a.75.75 0 0 0-.75.75v2.25H7.5a.75.75 0 0 0 0 1.5h2.25v2.25a.75.75 0 1 0 1.5 0v-2.25h2.25a.75.75 0 0 0 0-1.5h-2.25V11.5a.75.75 0 0 0-.75-.75m9.25 4.75a1.25 1.25 0 1 0 .001 2.501 1.25 1.25 0 0 0 0-2.501m3.1-4.5a1.25 1.25 0 1 0 .001 2.501A1.25 1.25 0 0 0 22.85 11"/></svg>