<svg xmlns="http://www.w3.org/2000/svg" width="20" height="20" fill="none" data-fui-icon="true" viewBox="0 0 20 20"><g clip-path="url(#a)"><path fill="currentColor" d="M11.685.488A5.7 5.7 0 0 1 18.52 4.76l.522 2.26a.507.507 0 0 1-.38.608l-4.417 1.02-.222.057a4.434 4.434 0 0 0-3.1 5.26l1.019 4.417a.507.507 0 0 1-.38.608l-2.26.522a5.7 5.7 0 0 1-6.836-4.272L.982 8.81a5.7 5.7 0 0 1 4.272-6.837zm6.855 8.708a.485.485 0 0 1 .599.534 11.91 11.91 0 0 1-5.098 8.158.485.485 0 0 1-.743-.304l-.913-3.956a2.934 2.934 0 0 1 2.198-3.519z"/></g><defs><clipPath id="a"><path fill="currentColor" d="M0 0h20v20H0z"/></clipPath></defs></svg>