<svg xmlns="http://www.w3.org/2000/svg" width="24" height="24" fill="none" data-fui-icon="true" viewBox="0 0 24 24"><path fill="currentColor" d="M16.924 19c.547 0 1.004.001 1.375-.03.38-.03.736-.098 1.073-.27a2.75 2.75 0 0 0 1.202-1.202c.172-.337.24-.694.27-1.073.031-.371.03-.828.03-1.375V6.875c0-.513 0-.94-.026-1.289-.028-.356-.086-.692-.238-1.012a2.75 2.75 0 0 0-1.31-1.31c-.32-.152-.656-.21-1.012-.238C17.94 3 17.512 3 17 3h-.904a.75.75 0 0 0 0 1.5h.904c.536 0 .896 0 1.174.021.27.021.4.059.485.1.262.123.472.333.596.595.04.085.078.216.098.485.022.278.022.638.022 1.174v8.175c0 .572 0 .957-.024 1.253-.024.287-.067.424-.113.514-.12.235-.31.427-.546.546-.09.046-.228.09-.514.113-.296.024-.681.024-1.253.024h-8.1c-.572 0-.957 0-1.253-.024-.286-.024-.424-.067-.514-.113a1.25 1.25 0 0 1-.546-.546c-.046-.09-.09-.227-.113-.514-.024-.296-.024-.68-.024-1.253v-2.59a.75.75 0 0 0-1.5 0v2.59c0 .547-.001 1.004.03 1.375.03.38.098.736.27 1.073.263.517.685.939 1.202 1.202.337.172.694.24 1.073.27.371.031.828.03 1.375.03zm-9.215-7.85a.87.87 0 0 0 1.008-.5l2.734-6.706a.645.645 0 0 0-.441-.888.87.87 0 0 0-1.008.5L7.268 10.26a.645.645 0 0 0 .441.888M5.122 9.824a.75.75 0 0 0 1.005-1.113L4.565 7.304c-.06-.055-.065-.098-.065-.115s.006-.06.065-.113l1.562-1.408a.75.75 0 0 0-1.005-1.113L3.561 5.963a1.623 1.623 0 0 0 0 2.454zm7.416-.054a.75.75 0 0 0 1.059.054l1.561-1.408a1.623 1.623 0 0 0 0-2.454l-1.561-1.408a.75.75 0 0 0-1.004 1.113l1.56 1.408c.06.054.066.096.067.113 0 .017-.006.06-.067.115l-1.56 1.408a.75.75 0 0 0-.055 1.059"/></svg>