<svg xmlns="http://www.w3.org/2000/svg" width="12" height="12" fill="none" data-fui-icon="true" viewBox="0 0 12 12"><g clip-path="url(#a)"><path fill="currentColor" d="M8.116.25a3.25 3.25 0 0 1 3.228 2.876l.578 5a3.25 3.25 0 0 1-3.228 3.624H3.307A3.25 3.25 0 0 1 .08 8.126l.578-5A3.25 3.25 0 0 1 3.885.25zm-4.23 1.5a1.75 1.75 0 0 0-1.739 1.549l-.58 5a1.75 1.75 0 0 0 1.74 1.951h5.387c1.046 0 1.86-.912 1.74-1.951l-.58-5A1.75 1.75 0 0 0 8.116 1.75zM8 3.25a.75.75 0 0 1 .75.75H8l.75.001v.047l-.005.092a3.213 3.213 0 0 1-.323 1.195c-.17.339-.436.701-.85.977-.417.278-.94.438-1.572.438-.63 0-1.154-.16-1.572-.438a2.5 2.5 0 0 1-.848-.977 3.2 3.2 0 0 1-.329-1.287V4L4 4h-.75a.75.75 0 0 1 1.5-.007v.004l.001.035q.004.054.02.157c.023.139.067.312.15.476.08.16.189.299.338.398.145.097.372.187.74.187.369 0 .596-.09.74-.187.15-.1.26-.237.34-.398a1.7 1.7 0 0 0 .17-.672A.75.75 0 0 1 8 3.25"/></g><defs><clipPath id="a"><path fill="currentColor" d="M0 0h12v12H0z"/></clipPath></defs></svg>