<svg xmlns="http://www.w3.org/2000/svg" width="24" height="24" fill="none" data-fui-icon="true" viewBox="0 0 24 24"><path fill="currentColor" d="M14.34 23.77a12.1 12.1 0 0 1-4.682 0l.291-1.47a10.6 10.6 0 0 0 4.102 0zM3.269 17.833a10.6 10.6 0 0 0 2.899 2.9l-.834 1.244a12.1 12.1 0 0 1-3.312-3.311zm18.71.833a12.1 12.1 0 0 1-3.312 3.311l-.833-1.245a10.6 10.6 0 0 0 2.9-2.899zM1.7 9.949a10.6 10.6 0 0 0 0 4.102l-1.471.29a12.1 12.1 0 0 1 0-4.683zm22.07-.29a12.1 12.1 0 0 1 0 4.682l-1.47-.29a10.6 10.6 0 0 0 0-4.102zM6.167 3.267a10.6 10.6 0 0 0-2.9 2.899l-1.246-.834a12.1 12.1 0 0 1 3.312-3.312zM18.666 2.02a12.1 12.1 0 0 1 3.311 3.312l-1.245.834a10.6 10.6 0 0 0-2.899-2.9zM12 0c.801 0 1.584.079 2.34.229L14.05 1.7a10.6 10.6 0 0 0-4.1 0L9.657.23C10.416.079 11.198 0 12 0"/></svg>