<svg xmlns="http://www.w3.org/2000/svg" width="24" height="24" fill="none" data-fui-icon="true" viewBox="0 0 24 24"><path fill="currentColor" d="M18.68 2A3.32 3.32 0 0 1 22 5.32v13.36A3.32 3.32 0 0 1 18.68 22H5.32A3.32 3.32 0 0 1 2 18.68V5.32A3.32 3.32 0 0 1 5.32 2zM5.32 3.5A1.82 1.82 0 0 0 3.5 5.32v13.36a1.82 1.82 0 0 0 1.82 1.82h13.36a1.82 1.82 0 0 0 1.82-1.82V5.32a1.82 1.82 0 0 0-1.82-1.82zM12 9a.75.75 0 0 1 .75.75v6.75h1.5a.75.75 0 0 1 0 1.5h-4.5a.75.75 0 0 1 0-1.5h1.5v-6h-1.5a.75.75 0 0 1 0-1.5zm0-2.996a1 1 0 1 1 0 2 1 1 0 0 1 0-2"/></svg>