<svg xmlns="http://www.w3.org/2000/svg" width="32" height="32" fill="none" data-fui-icon="true" viewBox="0 0 32 32"><path fill="currentColor" d="M8.25 11a.75.75 0 0 1 0 1.5H5.34a1.84 1.84 0 0 0-1.84 1.84v12.32a1.84 1.84 0 0 0 1.84 1.84h10.82A1.84 1.84 0 0 0 18 26.66v-1.91a.75.75 0 0 1 1.5 0v1.91A3.34 3.34 0 0 1 16.16 30H5.34A3.34 3.34 0 0 1 2 26.66V14.34A3.34 3.34 0 0 1 5.34 11zm18.41-9A3.34 3.34 0 0 1 30 5.34v12.32A3.34 3.34 0 0 1 26.66 21H15.84a3.34 3.34 0 0 1-3.34-3.34V5.34A3.34 3.34 0 0 1 15.84 2zM15.84 3.5A1.84 1.84 0 0 0 14 5.34v12.32a1.84 1.84 0 0 0 1.84 1.84h10.82a1.84 1.84 0 0 0 1.84-1.84V5.34a1.84 1.84 0 0 0-1.84-1.84z"/></svg>