<svg xmlns="http://www.w3.org/2000/svg" width="20" height="20" fill="none" data-fui-icon="true" viewBox="0 0 20 20"><path fill="currentColor" d="M7.25 1a.75.75 0 0 1 0 1.5h-1.5A3.25 3.25 0 0 0 2.5 5.75v8.5a3.25 3.25 0 0 0 3.25 3.25h8.5a3.25 3.25 0 0 0 3.25-3.25v-1.5a.75.75 0 0 1 1.5 0v1.5A4.75 4.75 0 0 1 14.25 19h-8.5A4.75 4.75 0 0 1 1 14.25v-8.5A4.75 4.75 0 0 1 5.75 1zm6.29.9a3.225 3.225 0 0 1 4.56 4.56l-6.734 6.734A2.75 2.75 0 0 1 9.422 14H7.25C6.56 14 6 13.44 6 12.75v-2.172c0-.73.29-1.429.806-1.944zM7.866 9.693a1.25 1.25 0 0 0-.366.884V12.5h1.922c.331 0 .65-.132.884-.366l4.393-4.394-2.44-2.44zM17.04 2.96a1.725 1.725 0 0 0-2.44 0l-1.28 1.28 2.44 2.44 1.28-1.28a1.725 1.725 0 0 0 0-2.44"/></svg>