<svg xmlns="http://www.w3.org/2000/svg" width="32" height="32" fill="none" data-fui-icon="true" viewBox="0 0 32 32"><path fill="currentColor" d="M27 22.25a.75.75 0 0 1 .75.75v3.25H31a.75.75 0 0 1 0 1.5h-3.25V31a.75.75 0 0 1-1.5 0v-3.25H23a.75.75 0 0 1 0-1.5h3.25V23a.75.75 0 0 1 .75-.75M23.813 3.438a4.75 4.75 0 0 1 4.75 4.75v9.78a.75.75 0 0 1-1.5 0v-9.78a3.25 3.25 0 0 0-3.25-3.25H8.375a3.25 3.25 0 0 0-3.25 3.25v15.625a3.25 3.25 0 0 0 3.25 3.25h9.672a.75.75 0 0 1 0 1.5H8.375a4.75 4.75 0 0 1-4.75-4.75V8.188a4.75 4.75 0 0 1 4.75-4.75zM16 20.583a.75.75 0 0 1 0 1.5H9.333a.75.75 0 0 1 0-1.5zm6.666-5.333a.75.75 0 0 1 0 1.5H9.333a.75.75 0 0 1 0-1.5zm0-5.333a.75.75 0 0 1 0 1.5H9.333a.75.75 0 0 1 0-1.5z"/></svg>