<svg xmlns="http://www.w3.org/2000/svg" width="12" height="12" fill="none" data-fui-icon="true" viewBox="0 0 12 12"><path fill="currentColor" d="M6 9.5a.75.75 0 0 1 .75.75v1a.75.75 0 0 1-1.5 0v-1A.75.75 0 0 1 6 9.5M2.465 8.475a.75.75 0 0 1 1.06 1.06l-.707.708a.75.75 0 0 1-1.06-1.061zm6.01 0a.75.75 0 0 1 1.06 0l.707.707a.75.75 0 1 1-1.06 1.06l-.707-.707a.75.75 0 0 1 0-1.06M6 3a3 3 0 1 1 0 6 3 3 0 0 1 0-6m0 1.5a1.5 1.5 0 1 0 0 3 1.5 1.5 0 0 0 0-3m-4.25.75a.75.75 0 0 1 0 1.5h-1a.75.75 0 0 1 0-1.5zm9.5 0a.75.75 0 0 1 0 1.5h-1a.75.75 0 0 1 0-1.5zM1.757 1.757a.75.75 0 0 1 1.061 0l.707.708a.75.75 0 0 1-1.06 1.06l-.708-.707a.75.75 0 0 1 0-1.061m7.425 0a.75.75 0 1 1 1.06 1.061l-.707.707a.75.75 0 0 1-1.06-1.06zM6 0a.75.75 0 0 1 .75.75v1a.75.75 0 0 1-1.5 0v-1A.75.75 0 0 1 6 0"/></svg>