<svg xmlns="http://www.w3.org/2000/svg" width="24" height="24" fill="none" data-fui-icon="true" viewBox="0 0 24 24"><path fill="currentColor" fill-rule="evenodd" d="M10.395 3.724c1.068-.926 2.73-.167 2.73 1.247v14.058c0 1.414-1.662 2.173-2.73 1.248l-3.29-2.852a2.25 2.25 0 0 0-1.474-.55H4.125a2.25 2.25 0 0 1-2.25-2.25v-5.25a2.25 2.25 0 0 1 2.25-2.25h1.506a2.25 2.25 0 0 0 1.473-.55zm1.23 1.247a.15.15 0 0 0-.248-.113l-3.29 2.851a3.75 3.75 0 0 1-2.456.916H4.125a.75.75 0 0 0-.75.75v5.25c0 .414.336.75.75.75h1.506a3.75 3.75 0 0 1 2.456.916l3.29 2.852a.15.15 0 0 0 .248-.114zM21.22 9.22a.75.75 0 1 1 1.06 1.06L20.56 12l1.72 1.72a.75.75 0 0 1-1.06 1.06l-1.72-1.72-1.72 1.72a.75.75 0 0 1-1.06-1.06L18.44 12l-1.72-1.72a.75.75 0 0 1 1.06-1.06l1.72 1.72z" clip-rule="evenodd"/></svg>