<svg xmlns="http://www.w3.org/2000/svg" width="20" height="20" fill="none" data-fui-icon="true" viewBox="0 0 20 20"><g clip-path="url(#a)"><path fill="currentColor" d="M10.005-.009c.926 0 1.752.421 2.302 1.081.288.346.63.66 1.047.833s.877.19 1.327.149a2.99 2.99 0 0 1 3.261 3.258c-.041.45-.024.913.15 1.33.173.416.486.759.832 1.047a2.99 2.99 0 0 1 .005 4.594c-.347.29-.661.636-.835 1.053-.175.42-.193.885-.152 1.338a2.988 2.988 0 0 1-3.259 3.255c-.45-.042-.914-.025-1.332.15-.417.172-.76.485-1.05.831a2.99 2.99 0 0 1-4.603-.008c-.284-.343-.624-.655-1.037-.827-.414-.172-.873-.19-1.32-.147a2.99 2.99 0 0 1-3.265-3.254c.041-.45.023-.914-.151-1.331-.174-.418-.49-.763-.837-1.052A2.99 2.99 0 0 1 .007 9.989a2.99 2.99 0 0 1 1.085-2.307c.346-.288.66-.63.834-1.045.173-.416.192-.875.15-1.324a2.99 2.99 0 0 1 .864-2.395 2.99 2.99 0 0 1 2.403-.863c.445.042.902.024 1.315-.148s.753-.483 1.037-.827a2.99 2.99 0 0 1 2.31-1.089M10 12.5a1 1 0 1 0 0 2 1 1 0 0 0 0-2m0-7a.75.75 0 0 0-.75.75v4a.75.75 0 0 0 1.5 0v-4A.75.75 0 0 0 10 5.5"/></g><defs><clipPath id="a"><path fill="currentColor" d="M0 0h20v20H0z"/></clipPath></defs></svg>