<svg xmlns="http://www.w3.org/2000/svg" width="24" height="24" fill="none" data-fui-icon="true" viewBox="0 0 24 24"><path fill="currentColor" d="M12 1c6.075 0 11 4.925 11 11a10.97 10.97 0 0 1-3.765 8.281q-.017.018-.036.035-.043.036-.088.073a11 11 0 0 1-.417.337l-.166.126a11 11 0 0 1-.667.455l-.175.11q-.443.268-.913.494-.027.015-.055.026-.2.096-.404.183l-.2.081q-.127.052-.254.1-.136.052-.276.098-.102.036-.205.07-.126.04-.253.077a11 11 0 0 1-1.3.3q-.11.019-.223.036-.15.022-.303.039-.115.014-.232.026-.187.017-.377.029l-.142.01a11 11 0 0 1-1.099 0q-.071-.006-.142-.01a11 11 0 0 1-.377-.029q-.117-.012-.232-.026a11 11 0 0 1-.303-.04q-.113-.016-.223-.035a11 11 0 0 1-1.291-.297q-.133-.039-.264-.08-.101-.033-.203-.07-.139-.047-.276-.097-.128-.05-.253-.1l-.2-.082q-.205-.088-.405-.183l-.055-.026q-.465-.224-.904-.488-.092-.058-.183-.116-.12-.074-.237-.153-.095-.064-.188-.13l-.243-.172-.165-.126a11 11 0 0 1-.418-.337q-.044-.036-.087-.073l-.037-.035A10.97 10.97 0 0 1 1 12C1 5.925 5.925 1 12 1m0 17a9.45 9.45 0 0 0-5.492 1.749c.071.05.143.103.216.151q.117.079.237.153l.139.087q.14.084.285.164l.094.052q.193.105.391.202l.096.044q.15.07.305.137.091.038.185.075.106.044.214.084.093.035.186.067.126.045.253.086l.18.054a10 10 0 0 0 .422.116 9 9 0 0 0 .724.148l.173.029q.148.02.295.037l.163.018q.2.02.404.03l.046.004q.24.012.484.013a10 10 0 0 0 .933-.047l.163-.018a10 10 0 0 0 .295-.037l.174-.029q.14-.023.278-.05l.159-.033a9 9 0 0 0 .709-.181q.09-.026.179-.054.13-.043.26-.09.086-.029.171-.06l.242-.094.164-.067q.155-.066.306-.138l.096-.044q.199-.096.391-.202l.094-.052q.145-.08.285-.164l.14-.087q.12-.074.236-.153.11-.073.216-.151A9.45 9.45 0 0 0 12 18m0-15.5a9.5 9.5 0 0 0-6.675 16.259A10.95 10.95 0 0 1 12 16.5c2.51 0 4.823.844 6.674 2.259A9.5 9.5 0 0 0 12 2.5m0 4a4 4 0 1 1 0 8 4 4 0 0 1 0-8M12 8a2.5 2.5 0 1 0 0 5 2.5 2.5 0 0 0 0-5"/></svg>