<svg xmlns="http://www.w3.org/2000/svg" width="16" height="16" fill="none" data-fui-icon="true" viewBox="0 0 16 16"><path fill="currentColor" d="M12.75 0A3.25 3.25 0 0 1 16 3.25v9.5A3.25 3.25 0 0 1 12.75 16h-9.5A3.25 3.25 0 0 1 0 12.75v-9.5A3.25 3.25 0 0 1 3.25 0zm-9.5 1.5A1.75 1.75 0 0 0 1.5 3.25v9.5c0 .966.784 1.75 1.75 1.75h9.5a1.75 1.75 0 0 0 1.75-1.75v-9.5a1.75 1.75 0 0 0-1.75-1.75zM8 7a.75.75 0 0 1 .75.75v2.75h.5a.75.75 0 0 1 0 1.5h-2.5a.75.75 0 0 1 0-1.5h.5v-2h-.5a.75.75 0 0 1 0-1.5zm0-2.996a1 1 0 1 1 0 2 1 1 0 0 1 0-2"/></svg>