<svg xmlns="http://www.w3.org/2000/svg" width="32" height="32" fill="none" data-fui-icon="true" viewBox="0 0 32 32"><path fill="currentColor" d="M12.333 6.917a.75.75 0 0 1 0 1.5H9.167c-.711 0-1.203 0-1.585.03-.374.028-.581.081-.734.154-.401.19-.725.512-.914.913-.073.153-.125.36-.154.735-.029.382-.03.873-.03 1.584v10.9c0 .76 0 1.284.034 1.69.033.399.093.618.175.78.184.36.477.654.838.838.162.082.381.142.78.175.406.033.93.034 1.69.034h10.8c.758 0 1.283 0 1.69-.034.398-.033.618-.093.78-.175.36-.184.653-.477.837-.838.082-.162.143-.381.176-.78.033-.406.033-.93.033-1.69v-4.066a.75.75 0 0 1 1.5 0v4.066c0 .735.001 1.33-.038 1.813-.035.43-.106.82-.262 1.184l-.072.155a3.4 3.4 0 0 1-1.493 1.493c-.409.208-.848.293-1.34.333-.481.04-1.077.039-1.812.039h-10.8c-.734 0-1.33 0-1.812-.04-.49-.04-.93-.124-1.339-.332a3.4 3.4 0 0 1-1.493-1.493c-.208-.409-.293-.848-.333-1.34-.04-.481-.039-1.077-.039-1.812v-10.9c0-.688 0-1.247.034-1.7.036-.46.11-.873.294-1.26a3.4 3.4 0 0 1 1.628-1.628c.388-.183.801-.259 1.262-.294.453-.035 1.011-.034 1.699-.034zM27 4.25a.75.75 0 0 1 .75.75v8.667a.75.75 0 0 1-1.5 0V6.811L15.197 17.863a.75.75 0 1 1-1.06-1.06L25.189 5.75h-6.856a.75.75 0 0 1 0-1.5z"/></svg>