<svg xmlns="http://www.w3.org/2000/svg" width="32" height="32" fill="none" data-fui-icon="true" viewBox="0 0 32 32"><path stroke="currentColor" stroke-linecap="round" stroke-linejoin="round" stroke-width="1.5" d="M22.125 4.75h2.125a2.5 2.5 0 0 1 2.5 2.5v20.5a2.5 2.5 0 0 1-2.5 2.5H7.75a2.5 2.5 0 0 1-2.5-2.5V7.25a2.5 2.5 0 0 1 2.5-2.5h2.125m-.094 7.5H22.25m-12.469 6H22.25m-12.469 6H22.25"/><path fill="currentColor" d="m18.464 3.25-.706.252a.75.75 0 0 0 .706.498zm-4.928 0V4c.317 0 .6-.2.706-.498zm.477-1.336-.706-.253zm3.974 0-.706.252zM18.464 4h2.285V2.5h-2.285zm2.285 0c.139 0 .251.113.251.25h1.5c0-.968-.786-1.75-1.751-1.75zm.251.25v1.5h1.5v-1.5zm0 1.5a.25.25 0 0 1-.25.25v1.5a1.75 1.75 0 0 0 1.75-1.75zm-.25.25h-9.5v1.5h9.5zm-9.5 0a.25.25 0 0 1-.25-.25H9.5c0 .966.784 1.75 1.75 1.75zM11 5.75v-1.5H9.5v1.5zm0-1.5c0-.137.112-.25.251-.25V2.5c-.965 0-1.751.782-1.751 1.75zm.251-.25h2.285V2.5H11.25zm2.991-.498.477-1.336-1.412-.505-.478 1.337zm.477-1.336A.25.25 0 0 1 14.955 2V.5c-.74 0-1.4.465-1.648 1.161zM14.955 2h2.09V.5h-2.09zm2.09 0c.106 0 .2.066.236.166l1.412-.505A1.75 1.75 0 0 0 17.045.5zm.236.166.477 1.336 1.413-.504-.478-1.337z"/></svg>