<svg xmlns="http://www.w3.org/2000/svg" width="12" height="12" fill="none" data-fui-icon="true" viewBox="0 0 12 12"><path fill="currentColor" d="M7.818 2c1.685 0 2.932 1.498 2.932 3.167 0 .808-.332 1.557-.75 2.188-.422.637-.97 1.213-1.496 1.69a15.4 15.4 0 0 1-2.1 1.587l-.011.007q-.003 0-.003.002h-.002a.75.75 0 0 1-.779 0v-.001l-.005-.002-.01-.007-.038-.025-.137-.087a15.584 15.584 0 0 1-1.924-1.481C2.97 8.558 2.422 7.982 2 7.347c-.418-.63-.75-1.377-.75-2.181C1.25 3.497 2.497 2 4.182 2c.694 0 1.324.255 1.818.679A2.78 2.78 0 0 1 7.818 2m0 1.5c-.472 0-.908.258-1.168.71L6 3.838l-.65.374c-.26-.453-.696-.711-1.168-.711-.716 0-1.432.678-1.432 1.667 0 .394.168.85.5 1.352.328.495.78.977 1.255 1.408.471.428.945.789 1.304 1.043q.103.071.192.13.088-.058.192-.128c.359-.253.832-.612 1.303-1.038.474-.43.926-.911 1.254-1.407.332-.5.5-.96.5-1.36 0-.989-.716-1.667-1.432-1.667m-1.168.71a.75.75 0 0 1-1.3 0L6 3.839z"/></svg>