<svg xmlns="http://www.w3.org/2000/svg" width="32" height="32" fill="none" data-fui-icon="true" viewBox="0 0 32 32"><path fill="currentColor" fill-rule="evenodd" d="M14.55 3.424a2.72 2.72 0 0 1 2.917 0l8.988 5.7a2.25 2.25 0 0 1 1.045 1.9v9.951a2.25 2.25 0 0 1-1.045 1.9l-8.988 5.701a2.72 2.72 0 0 1-2.917 0l-8.988-5.7a2.25 2.25 0 0 1-1.045-1.9v-9.951c0-.77.395-1.488 1.045-1.9zM16.009 1.5c-.802 0-1.586.228-2.263.657L4.76 7.858a3.75 3.75 0 0 0-1.742 3.167v9.95a3.75 3.75 0 0 0 1.742 3.167l8.987 5.701a4.22 4.22 0 0 0 4.525 0l8.988-5.701a3.75 3.75 0 0 0 1.74-3.167v-9.95a3.75 3.75 0 0 0-1.74-3.167L18.27 2.157a4.2 4.2 0 0 0-2.262-.657m7.477 10.985L16.75 16.13v7.981a.75.75 0 0 1-1.5 0v-7.986l-6.727-3.641a.75.75 0 0 1 .714-1.32l6.768 3.664 6.768-3.663a.75.75 0 1 1 .714 1.319" clip-rule="evenodd"/></svg>