<svg xmlns="http://www.w3.org/2000/svg" width="32" height="32" fill="none" data-fui-icon="true" viewBox="0 0 32 32"><path fill="currentColor" fill-rule="evenodd" d="M28.865 2.262a.75.75 0 0 1 .873.873v.001l-.003.013-.008.041-.03.159a140.24 140.24 0 0 1-.56 2.773 143 143 0 0 1-1.633 6.875c-.69 2.595-1.515 5.338-2.437 7.704-.909 2.334-1.953 4.412-3.12 5.58-4.303 4.302-11.173 4.473-15.68.513L3.53 29.53a.75.75 0 1 1-1.06-1.06l2.736-2.737c-3.96-4.507-3.79-11.377.514-15.68 1.167-1.168 3.245-2.211 5.58-3.12 2.365-.922 5.108-1.747 7.703-2.437a143 143 0 0 1 9.648-2.194l.159-.03.04-.007zM20.886 25.22c-3.716 3.717-9.637 3.887-13.556.51L13.06 20h6.19a.75.75 0 1 0 0-1.5h-4.69l8.47-8.47a.75.75 0 0 0-1.06-1.06l-5.22 5.22v-2.757a.75.75 0 0 0-1.5 0v4.256l-5.149 5.15.149-4.816a.75.75 0 1 0-1.5-.046l-.197 6.41L6.27 24.67c-3.377-3.92-3.207-9.84.51-13.556.927-.927 2.74-1.878 5.064-2.784 2.292-.893 4.975-1.701 7.544-2.384a142 142 0 0 1 8.666-2 141.91 141.91 0 0 1-2 8.666c-.683 2.569-1.491 5.252-2.384 7.544-.906 2.324-1.857 4.137-2.784 5.064" clip-rule="evenodd"/></svg>