<svg xmlns="http://www.w3.org/2000/svg" width="16" height="16" fill="none" data-fui-icon="true" viewBox="0 0 16 16"><path fill="currentColor" d="M6.814 1c.72 0 1.357.362 1.737.914a2.103 2.103 0 0 1 3.078 1.863v.498q.192-.025.371-.025c.537 0 1.062.195 1.446.62.38.418.554.984.554 1.61v2.534C14 12.424 11.303 15 8 15s-6-2.575-6-5.986v-4.56a2.103 2.103 0 0 1 2.805-1.981A2.11 2.11 0 0 1 6.815 1m0 1.5a.603.603 0 0 0-.604.602v4.377a.75.75 0 0 1-1.5 0V4.453l-.013-.121a.604.604 0 0 0-1.197.121v4.56C3.5 11.576 5.504 13.5 8 13.5s4.5-1.925 4.5-4.486V6.479c0-.353-.097-.527-.166-.603-.064-.07-.164-.126-.334-.126a1 1 0 0 0-.255.028.2.2 0 0 0-.04.016l-.005.004q0 0-.003.002l-.006.008a.3.3 0 0 0-.022.054c-.02.062-.04.169-.04.341 0 .532-.084.96-.227 1.33-.14.361-.325.635-.47.846-.275.398-.432.606-.432 1.121a.75.75 0 0 1-1.5 0c0-1.012.408-1.554.697-1.974.137-.198.234-.349.306-.535.07-.18.126-.422.126-.788V3.777a.603.603 0 0 0-.605-.601.604.604 0 0 0-.605.601v3.027a.75.75 0 0 1-1.5 0V3.102a.603.603 0 0 0-.605-.602"/></svg>