<svg xmlns="http://www.w3.org/2000/svg" width="20" height="20" fill="none" data-fui-icon="true" viewBox="0 0 20 20"><path fill="currentColor" d="M16.042 2.375a2.42 2.42 0 0 1 2.417 2.417v7.916a2.42 2.42 0 0 1-2.417 2.417h-2.96v1.886H14a.75.75 0 0 1 0 1.5H6a.75.75 0 0 1 0-1.5h.92v-1.886H3.959a2.417 2.417 0 0 1-2.417-2.417V4.792a2.417 2.417 0 0 1 2.417-2.417zM8.42 17.011h3.161v-1.886H8.42zm-5.378-4.303c0 .506.41.917.917.917h12.083c.506 0 .917-.41.917-.917v-.697H3.042zm.917-8.833a.917.917 0 0 0-.917.917v5.719h13.917V4.792a.92.92 0 0 0-.917-.917z"/></svg>