<svg xmlns="http://www.w3.org/2000/svg" width="12" height="12" fill="none" data-fui-icon="true" viewBox="0 0 12 12"><g stroke="currentColor" stroke-linecap="round" stroke-linejoin="round" stroke-width="1.5" clip-path="url(#a)"><path d="m1.775 8.894 3.5 2.151a1.38 1.38 0 0 0 1.45 0l3.5-2.151c.326-.201.525-.557.525-.94V4.046c0-.383-.199-.739-.525-.94L6.725.955a1.38 1.38 0 0 0-1.45 0l-3.5 2.151c-.326.201-.525.557-.525.94v3.908c0 .383.199.739.525.94m4.222-2.938v2.976M6 5.956l2.513-1.36m-2.516 1.36-2.514-1.36"/></g><defs><clipPath id="a"><path fill="currentColor" d="M0 0h12v12H0z"/></clipPath></defs></svg>