<svg xmlns="http://www.w3.org/2000/svg" width="24" height="24" fill="none" data-fui-icon="true" viewBox="0 0 24 24"><g clip-path="url(#a)"><path fill="currentColor" d="M19.542.25a4.21 4.21 0 0 1 4.208 4.208v15.084a4.21 4.21 0 0 1-4.208 4.208H4.458A4.21 4.21 0 0 1 .25 19.542V4.458A4.21 4.21 0 0 1 4.458.25zM1.75 19.542a2.71 2.71 0 0 0 2.708 2.708h15.084a2.71 2.71 0 0 0 2.708-2.708V14.95h-5.727c-.376 2.092-2.298 3.666-4.523 3.666s-4.147-1.574-4.523-3.666H1.75zM4.458 1.75A2.71 2.71 0 0 0 1.75 4.458v8.992h6.41a.75.75 0 0 1 .75.75c0 1.561 1.368 2.916 3.09 2.916s3.09-1.355 3.09-2.916a.75.75 0 0 1 .75-.75h6.41V4.458a2.71 2.71 0 0 0-2.708-2.708z"/></g><defs><clipPath id="a"><path fill="currentColor" d="M0 0h24v24H0z"/></clipPath></defs></svg>