<svg xmlns="http://www.w3.org/2000/svg" width="20" height="20" fill="none" data-fui-icon="true" viewBox="0 0 20 20"><path fill="currentColor" d="M7.708 2.375a.75.75 0 0 1 0 1.5H5.792c-.48 0-.794 0-1.034.02-.23.02-.327.052-.382.08a.92.92 0 0 0-.401.401c-.028.055-.06.151-.08.382-.02.24-.02.555-.02 1.034v8.416c0 .48 0 .794.02 1.034.02.23.052.327.08.382a.9.9 0 0 0 .4.401h.001c.055.028.151.06.382.08.24.02.555.02 1.034.02h8.416c.48 0 .794 0 1.034-.02.23-.02.327-.052.382-.08h.001a.9.9 0 0 0 .4-.4l1.336.68a2.4 2.4 0 0 1-1.055 1.056c-.302.154-.618.212-.942.239-.315.025-.702.025-1.156.025H5.792c-.454 0-.84 0-1.156-.025-.324-.027-.64-.085-.942-.239a2.4 2.4 0 0 1-1.055-1.055c-.154-.302-.212-.618-.239-.942-.025-.315-.025-.702-.025-1.156V5.792c0-.454 0-.84.025-1.156.027-.324.085-.64.239-.942A2.4 2.4 0 0 1 3.694 2.64c.302-.154.618-.212.942-.239.315-.025.702-.025 1.156-.025zm9.167 9.167a.75.75 0 0 1 .75.75v1.916c0 .454 0 .84-.025 1.156-.027.324-.085.64-.239.942l-1.336-.682c.028-.055.06-.151.08-.382.02-.24.02-.555.02-1.034v-1.916a.75.75 0 0 1 .75-.75m0-9.167a.75.75 0 0 1 .75.75v5.417a.75.75 0 0 1-1.5 0V4.936l-6.428 6.427a.75.75 0 1 1-1.06-1.06l6.428-6.428h-3.607a.75.75 0 0 1 0-1.5z"/></svg>