<svg xmlns="http://www.w3.org/2000/svg" width="24" height="24" fill="none" data-fui-icon="true" viewBox="0 0 24 24"><path fill="currentColor" fill-rule="evenodd" d="M12 1.875c5.592 0 10.125 4.533 10.125 10.125S17.592 22.125 12 22.125c-.802 0-1.583-.094-2.332-.271-1.211-.287-2.295-.475-3.295-.213a33 33 0 0 0-1.827.538c-.836.27-1.648-.047-2.163-.562s-.833-1.327-.562-2.163c.184-.565.37-1.185.539-1.828.261-1 .072-2.083-.214-3.294-.177-.75-.27-1.53-.27-2.332C1.875 6.408 6.407 1.875 12 1.875m0 1.5A8.625 8.625 0 0 0 3.375 12l.015.51q.046.759.216 1.476c.284 1.202.57 2.62.205 4.019a35 35 0 0 1-.562 1.912c-.063.195-.006.439.195.64.2.2.445.257.64.194.586-.19 1.234-.385 1.91-.562 1.399-.366 2.817-.08 4.019.205A8.625 8.625 0 1 0 12 3.375M7.75 10.75a1.25 1.25 0 1 1 0 2.5 1.25 1.25 0 0 1 0-2.5m4.25 0a1.25 1.25 0 1 1 0 2.5 1.25 1.25 0 0 1 0-2.5m4.25 0a1.25 1.25 0 1 1 0 2.5 1.25 1.25 0 0 1 0-2.5" clip-rule="evenodd"/></svg>