<svg xmlns="http://www.w3.org/2000/svg" width="16" height="16" fill="none" data-fui-icon="true" viewBox="0 0 16 16"><path fill="currentColor" fill-rule="evenodd" d="M15.19 5.611a1.25 1.25 0 0 0-1.034-.858l-3.5-.458-1.523-3.167A1.25 1.25 0 0 0 8 .418c-.488 0-.922.271-1.133.71l-1.52 3.167-3.502.458a1.25 1.25 0 0 0-1.034.858c-.15.465-.02.962.334 1.297L3.703 9.32l-.643 3.446c-.089.48.101.954.495 1.241a1.25 1.25 0 0 0 1.337.091L8 12.422l3.108 1.675c.43.231.943.197 1.337-.09.395-.288.584-.764.495-1.243l-.643-3.445 2.557-2.41c.356-.335.485-.834.335-1.298m-4.022 2.711a1.24 1.24 0 0 0-.369 1.14l.573 3.073-2.775-1.496A1.25 1.25 0 0 0 8 10.89V2.232l1.36 2.832c.185.382.546.644.968.7l3.12.408z" clip-rule="evenodd"/></svg>