<svg xmlns="http://www.w3.org/2000/svg" width="20" height="20" fill="none" data-fui-icon="true" viewBox="0 0 20 20"><path fill="currentColor" fill-rule="evenodd" d="M15.75 1a.75.75 0 0 0-.75.75q0 .387-.042.75H5.042A7 7 0 0 1 5 1.75a.75.75 0 0 0-1.5 0c0 4.128 3.032 6.586 5.25 8.25-2.218 1.664-5.25 4.122-5.25 8.25a.75.75 0 0 0 1.5 0q0-.387.042-.75h9.916q.041.364.042.75a.75.75 0 0 0 1.5 0c0-3.205-1.818-5.383-3.638-6.963a.75.75 0 0 0-.983 1.133q.325.281.633.58H7.49c.802-.777 1.703-1.454 2.548-2.09l.4-.302q.003 0 .005-.003l.022-.017q.221-.168.462-.346C13.159 8.576 16.5 6.082 16.5 1.75a.75.75 0 0 0-.75-.75M6.198 14.5a7 7 0 0 0-.795 1.5h9.192a7 7 0 0 0-.794-1.5zM5.403 4h9.193a7 7 0 0 1-.794 1.5H6.198A7 7 0 0 1 5.403 4m2.088 3h5.018c-.79.765-1.675 1.433-2.509 2.06C9.166 8.434 8.28 7.766 7.49 7" clip-rule="evenodd"/></svg>