<svg xmlns="http://www.w3.org/2000/svg" width="20" height="20" fill="none" data-fui-icon="true" viewBox="0 0 20 20"><path fill="currentColor" d="M6.406 9.407a.87.87 0 0 0 1.008-.5l2.28-5.588a.645.645 0 0 0-.442-.888.87.87 0 0 0-1.008.5L5.966 8.519a.645.645 0 0 0 .44.888m8.043 6.93c.454 0 .841.002 1.156-.023.325-.027.64-.085.942-.239a2.4 2.4 0 0 0 1.055-1.056c.154-.302.212-.618.239-.942.026-.315.025-.701.025-1.155V6.109c0-.425 0-.787-.022-1.084a2.5 2.5 0 0 0-.21-.886 2.42 2.42 0 0 0-1.152-1.152 2.5 2.5 0 0 0-.886-.21c-.296-.022-.659-.022-1.084-.022h-.753a.75.75 0 0 0 0 1.5h.753c.448 0 .743 0 .968.017.218.017.31.046.362.07.191.091.346.246.436.437.025.052.054.144.07.362.018.225.018.52.018.968v6.813c0 .478 0 .793-.02 1.033-.02.231-.051.328-.08.383a.9.9 0 0 1-.4.4c-.056.028-.152.062-.383.08-.24.02-.555.02-1.034.02H7.7c-.478 0-.793 0-1.033-.02-.231-.018-.328-.052-.383-.08l-.123-.075a.9.9 0 0 1-.277-.325l-.022-.05a1.3 1.3 0 0 1-.058-.333c-.02-.24-.02-.555-.02-1.033v-2.036a.75.75 0 0 0-1.5 0v2.036c0 .454-.001.84.025 1.155.026.324.084.64.238.942a2.42 2.42 0 0 0 1.057 1.056c.301.154.617.212.941.239.315.025.701.024 1.155.024zM4.185 8.282a.75.75 0 0 0 1.004-1.114l-1.3-1.174-.002-.002h.002l1.3-1.175a.75.75 0 1 0-1.004-1.113L2.884 4.876a1.478 1.478 0 0 0 0 2.231zm6.23-.054a.75.75 0 0 0 1.059.054l1.301-1.174a1.478 1.478 0 0 0 0-2.231l-1.301-1.173a.75.75 0 1 0-1.004 1.113l1.3 1.174.002.001-.002.002-1.3 1.174a.75.75 0 0 0-.055 1.06"/></svg>