<svg xmlns="http://www.w3.org/2000/svg" width="32" height="32" fill="none" data-fui-icon="true" viewBox="0 0 32 32"><path fill="currentColor" d="M24.234 2.205a.75.75 0 0 1 1.06.03l4.5 4.75a.75.75 0 0 1 0 1.03l-4.5 4.75a.75.75 0 0 1-1.089-1.03l3.3-3.485h-4.943a3.09 3.09 0 0 0-2.73 1.645L16.598 16l3.232 6.105a3.09 3.09 0 0 0 2.73 1.645h4.945l-3.3-3.484a.75.75 0 0 1 1.089-1.032l4.5 4.75a.75.75 0 0 1 0 1.032l-4.5 4.75a.75.75 0 0 1-1.09-1.032l3.3-3.484h-4.943c-1.7 0-3.26-.94-4.056-2.442l-3.207-6.058h-3.855A5.001 5.001 0 0 1 1.5 16a5 5 0 0 1 9.944-.75H15.3l3.207-6.058A4.59 4.59 0 0 1 22.56 6.75h4.945l-3.3-3.484a.75.75 0 0 1 .028-1.06M6.5 12.5a3.5 3.5 0 1 0 0 7 3.5 3.5 0 0 0 0-7"/></svg>