<svg xmlns="http://www.w3.org/2000/svg" width="20" height="20" fill="none" data-fui-icon="true" viewBox="0 0 20 20"><path fill="currentColor" d="M1.75 2.219a.75.75 0 0 1 .75.75v12.094c0 .793.644 1.437 1.438 1.437H18.28a.75.75 0 1 1 0 1.5H3.938A2.94 2.94 0 0 1 1 15.063V2.969a.75.75 0 0 1 .75-.75M16.25 6a.75.75 0 0 1 .75.75v3a.75.75 0 0 1-1.5 0V8.56l-4.032 4.033a.75.75 0 0 1-1.06 0L8.124 10.31l-3.282 3.283a.75.75 0 1 1-1.06-1.06L7.594 8.72l.056-.052a.75.75 0 0 1 1.004.052l2.283 2.282L14.44 7.5h-1.19a.75.75 0 0 1 0-1.5z"/></svg>