<svg xmlns="http://www.w3.org/2000/svg" width="12" height="12" fill="none" data-fui-icon="true" viewBox="0 0 12 12"><g clip-path="url(#a)"><path fill="currentColor" d="M7.37.112a3.3 3.3 0 0 1 3.79 2.507l.27 1.17.067.328a6.5 6.5 0 0 1-4.938 7.467l-1.17.27a3.3 3.3 0 0 1-3.915-2.308l-.042-.165-.99-4.288a3.3 3.3 0 0 1 2.473-3.957l4.288-.99zM3.252 2.597a1.8 1.8 0 0 0-1.35 2.159l.99 4.288a1.8 1.8 0 0 0 2.16 1.348l1.169-.27q.247-.057.481-.137L6.275 8.13A2.57 2.57 0 0 1 8.2 5.047l1.856-.429a5 5 0 0 0-.088-.492l-.27-1.17A1.8 1.8 0 0 0 7.54 1.608zM8.538 6.51a1.07 1.07 0 0 0-.802 1.283l.34 1.474a5.02 5.02 0 0 0 1.936-3.098z"/></g><defs><clipPath id="a"><path fill="currentColor" d="M0 0h12v12H0z"/></clipPath></defs></svg>