<svg xmlns="http://www.w3.org/2000/svg" width="16" height="16" fill="none" data-fui-icon="true" viewBox="0 0 16 16"><path fill="currentColor" d="M6.502 2.03a1.75 1.75 0 0 1 2.996 0l6.228 10.316C16.43 13.512 15.59 15 14.228 15H1.771C.41 15-.429 13.512.273 12.346zM8 5.5a2.5 2.5 0 1 1 0 5 2.5 2.5 0 0 1 0-5c-3.296 0-5.126 2.61-5.541 3.272-.217.346-.213.784.013 1.126C2.902 10.547 4.732 13 8 13c3.266 0 5.096-2.453 5.527-3.102.227-.343.23-.78.014-1.126-.402-.64-2.132-3.111-5.237-3.265zM8 7a1 1 0 1 0 0 2 1 1 0 0 0 0-2"/></svg>