<svg xmlns="http://www.w3.org/2000/svg" width="32" height="32" fill="none" data-fui-icon="true" viewBox="0 0 32 32"><path fill="currentColor" d="M16.023.001a.75.75 0 0 1 .75.75v1.9c5.693.293 7.823 3.914 8.215 5.837a.75.75 0 0 1-1.47.3c-.266-1.31-1.856-4.352-6.745-4.636v11.23c1.844.359 3.775.778 5.282 1.644.856.493 1.605 1.143 2.134 2.028.531.886.815 1.961.815 3.257 0 3.076-2.742 6.73-8.23 7.035v1.904a.75.75 0 0 1-1.5 0v-1.903c-2.702-.147-4.591-1.075-5.89-2.242a8.34 8.34 0 0 1-2.349-3.675.75.75 0 0 1 1.432-.448 6.84 6.84 0 0 0 1.92 3.007c1.019.916 2.555 1.712 4.886 1.855V16.615c-1.844-.357-3.775-.774-5.282-1.64-.856-.493-1.604-1.143-2.134-2.028-.53-.886-.813-1.961-.813-3.257 0-3.076 2.743-6.73 8.23-7.038V.751a.75.75 0 0 1 .75-.75m.75 27.843c4.749-.295 6.73-3.383 6.73-5.533 0-1.071-.232-1.87-.6-2.487-.37-.618-.909-1.103-1.595-1.498-1.21-.695-2.79-1.068-4.535-1.414zm-1.5-23.69c-4.746.297-6.73 3.387-6.73 5.536 0 1.07.232 1.87.601 2.487.37.618.908 1.102 1.595 1.497 1.209.695 2.79 1.067 4.534 1.413z"/></svg>