<svg xmlns="http://www.w3.org/2000/svg" width="32" height="32" fill="none" data-fui-icon="true" viewBox="0 0 32 32"><path fill="currentColor" d="M24.893 17.09a.75.75 0 0 1 .96 1.106l-9.25 12.5a.75.75 0 0 1-1.206 0l-9.25-12.5a.75.75 0 0 1 .96-1.106L16 21.897zm-8.537 6.32a.75.75 0 0 1-.713 0l-6.287-3.398L16 28.989l6.642-8.977zM16 1a.75.75 0 0 1 .593.292l9.25 12a.75.75 0 0 1-.265 1.133l-9.25 4.5c-.207.1-.45.1-.656 0l-9.25-4.5-.074-.041a.75.75 0 0 1-.192-1.092l9.25-12A.75.75 0 0 1 16 1M7.906 13.479 16 17.416l8.093-3.937L16 2.979z"/></svg>