<svg xmlns="http://www.w3.org/2000/svg" width="24" height="24" fill="none" data-fui-icon="true" viewBox="0 0 24 24"><path fill="currentColor" d="M6.49 5c2.455 0 4.478 1.94 4.49 4.375.137 2.604-.429 4.47-1.512 5.963-1.06 1.461-2.577 2.504-4.172 3.54a.75.75 0 1 1-.817-1.257c1.61-1.047 2.899-1.956 3.775-3.164.309-.426.572-.897.775-1.436-.724.487-1.6.77-2.539.771-2.461 0-4.49-1.95-4.49-4.396S4.029 5 6.49 5m11 0c2.455 0 4.478 1.94 4.49 4.375.137 2.604-.429 4.47-1.512 5.963-1.06 1.461-2.577 2.504-4.172 3.54a.75.75 0 0 1-.817-1.257c1.61-1.047 2.899-1.956 3.775-3.164a6 6 0 0 0 .775-1.436c-.724.487-1.6.77-2.539.771-2.461 0-4.49-1.95-4.49-4.396S15.029 5 17.49 5"/></svg>