<svg xmlns="http://www.w3.org/2000/svg" width="12" height="12" fill="none" data-fui-icon="true" viewBox="0 0 12 12"><path fill="currentColor" d="m6.668 1.668.53-.53zm2.664 2.664-.53.53zM4.687 7.688a.75.75 0 0 0 0 1.5zm2.625 1.5a.75.75 0 0 0 0-1.5zM4.688 5.633a.75.75 0 0 0 0 1.5zm1.386 1.5a.75.75 0 1 0 0-1.5zm-.448-5.508v2h1.5v-2zm0 2c0 .966.783 1.75 1.75 1.75v-1.5a.25.25 0 0 1-.25-.25zm1.75 1.75h2v-1.5h-2zm-4-3.25h2.586v-1.5H3.375zm2.586 0a.25.25 0 0 1 .177.073l1.06-1.06A1.75 1.75 0 0 0 5.961.625zm.177.073 2.664 2.664 1.06-1.06-2.664-2.664zm2.664 2.664a.25.25 0 0 1 .073.177h1.5c0-.464-.184-.909-.513-1.237zm.073.177v4.586h1.5V5.039zm0 4.586a.25.25 0 0 1-.25.25v1.5a1.75 1.75 0 0 0 1.75-1.75zm-.25.25h-5.25v1.5h5.25zm-5.25 0a.25.25 0 0 1-.25-.25h-1.5c0 .966.784 1.75 1.75 1.75zm-.25-.25v-7.25h-1.5v7.25zm0-7.25a.25.25 0 0 1 .25-.25v-1.5a1.75 1.75 0 0 0-1.75 1.75zm1.563 6.813h2.625v-1.5H4.688zm0-2.055h1.385v-1.5H4.687z"/></svg>