<svg xmlns="http://www.w3.org/2000/svg" width="12" height="12" fill="none" data-fui-icon="true" viewBox="0 0 12 12"><g clip-path="url(#a)"><path fill="currentColor" d="M9.25 0a2.75 2.75 0 1 1 0 5.5H8v1h1.25A2.75 2.75 0 1 1 6.5 9.25V8h-1v1.25A2.75 2.75 0 1 1 2.75 6.5H4v-1H2.75A2.75 2.75 0 1 1 5.5 2.75V4h1V2.75A2.75 2.75 0 0 1 9.25 0m-6.5 8A1.25 1.25 0 1 0 4 9.25V8zM8 9.25A1.25 1.25 0 1 0 9.25 8H8zM5.5 6.5h1v-1h-1zm-2.75-5a1.25 1.25 0 1 0 0 2.5H4V2.75c0-.69-.56-1.25-1.25-1.25m6.5 0C8.56 1.5 8 2.06 8 2.75V4h1.25a1.25 1.25 0 1 0 0-2.5"/></g><defs><clipPath id="a"><path fill="currentColor" d="M0 0h12v12H0z"/></clipPath></defs></svg>