<svg xmlns="http://www.w3.org/2000/svg" width="16" height="16" fill="none" data-fui-icon="true" viewBox="0 0 16 16"><path fill="currentColor" d="M14.72.22a.75.75 0 1 1 1.06 1.06l-14.5 14.5a.75.75 0 1 1-1.06-1.06zm-1.542 5.783a.289.289 0 0 1 .495.165c.025.208.042.399.054.564.023.34.131.64.31.862l.322.403A3.081 3.081 0 0 1 11.955 13h-.654a.32.32 0 0 0-.313.3C10.844 14.903 9.55 16 8 16c-1.243 0-2.319-.704-2.772-1.809a.28.28 0 0 1 .067-.306l2.298-2.297a.3.3 0 0 1 .212-.088h4.15a1.581 1.581 0 0 0 1.233-2.565l-.324-.404a3 3 0 0 1-.608-1.45.29.29 0 0 1 .084-.241zM6.8 13c-.166 0-.303.136-.275.299.127.732.72 1.201 1.475 1.201s1.348-.47 1.475-1.201c.028-.163-.11-.299-.275-.299zm1.2-13c1.4 0 2.472.435 3.285 1.09a.286.286 0 0 1 .016.426l-.64.64a.32.32 0 0 1-.418.022c-.563-.417-1.29-.678-2.243-.678-1.744 0-2.733.873-3.342 1.978-.632 1.148-.83 2.527-.888 3.357a3.04 3.04 0 0 1-.634 1.695l-.324.405a1.58 1.58 0 0 0-.33 1.2.34.34 0 0 1-.087.287l-.745.744c-.14.14-.375.108-.45-.075a3.08 3.08 0 0 1 .442-3.094l.323-.403c.178-.223.285-.522.308-.862.063-.907.282-2.546 1.072-3.98C4.16 1.276 5.6 0 8 0"/></svg>