<svg xmlns="http://www.w3.org/2000/svg" width="16" height="16" fill="none" data-fui-icon="true" viewBox="0 0 16 16"><path fill="currentColor" d="M11.38.25a.75.75 0 0 1 .75.75v1.332a3.346 3.346 0 0 1 3.12 3.335v6.74a3.346 3.346 0 0 1-3.35 3.343H4.1a3.346 3.346 0 0 1-3.35-3.343v-6.74a3.346 3.346 0 0 1 3.12-3.335V1a.75.75 0 1 1 1.5 0v1.324h5.26V1a.75.75 0 0 1 .75-.75M2.25 12.407c0 1.016.826 1.843 1.85 1.843h7.8c1.024 0 1.85-.827 1.85-1.843V7.973H2.25zM4.1 3.824c-1.024 0-1.85.828-1.85 1.843v.806h11.5v-.806a1.846 1.846 0 0 0-1.85-1.843z"/></svg>