<svg xmlns="http://www.w3.org/2000/svg" width="32" height="32" fill="none" data-fui-icon="true" viewBox="0 0 32 32"><path fill="currentColor" fill-rule="evenodd" d="M7 30.25a.75.75 0 0 1-1.5 0c0-7.2 5.385-11.341 9.254-14.25C10.884 13.091 5.5 8.95 5.5 1.75a.75.75 0 1 1 1.5 0c0 .977.11 1.892.312 2.75h17.376c.201-.858.312-1.773.312-2.75a.75.75 0 0 1 1.5 0c0 7.295-5.529 11.45-9.407 14.365l-.627.473-.027.02-.536.405-.004.003c-1.723 1.3-3.63 2.738-5.235 4.484h10.673a24 24 0 0 0-2.008-1.933.75.75 0 1 1 .982-1.134c3.136 2.715 6.189 6.388 6.189 11.817a.75.75 0 0 1-1.5 0c0-.976-.11-1.89-.313-2.75H7.312A12 12 0 0 0 7 30.25M7.775 26a13 13 0 0 1 1.654-3H22.57c.667.916 1.235 1.91 1.654 3zm16.45-20H7.775a13 13 0 0 0 1.654 3H22.57a13 13 0 0 0 1.654-3m-2.89 4.5h-10.67c1.604 1.746 3.51 3.184 5.234 4.483l.101.077.101-.076c1.723-1.3 3.63-2.738 5.235-4.484" clip-rule="evenodd"/></svg>