<svg xmlns="http://www.w3.org/2000/svg" width="24" height="24" fill="none" data-fui-icon="true" viewBox="0 0 24 24"><path fill="currentColor" d="M18.238 1.202a.75.75 0 0 1 1.06.037l3.5 3.75a.75.75 0 0 1 0 1.023l-3.5 3.75a.75.75 0 0 1-1.096-1.023l2.322-2.489h-3.982c-.828 0-1.589.455-1.982 1.184L12.103 12l2.458 4.567a2.25 2.25 0 0 0 1.982 1.183h3.982l-2.322-2.488a.75.75 0 0 1 1.096-1.024l3.5 3.75a.75.75 0 0 1 0 1.024l-3.5 3.75a.75.75 0 0 1-1.096-1.024l2.322-2.488h-3.982a3.75 3.75 0 0 1-3.302-1.971l-2.437-4.529H7.929a4 4 0 1 1 0-1.5h2.874l2.437-4.528a3.75 3.75 0 0 1 3.302-1.972h3.982l-2.322-2.488a.75.75 0 0 1 .036-1.06M4 9.5a2.5 2.5 0 1 0 0 5 2.5 2.5 0 0 0 0-5"/></svg>