<svg xmlns="http://www.w3.org/2000/svg" width="20" height="20" fill="none" data-fui-icon="true" viewBox="0 0 20 20"><path fill="currentColor" d="M16.042 2.375a2.42 2.42 0 0 1 2.417 2.417v8.75a2.417 2.417 0 0 1-2.417 2.416h-3.229a.1.1 0 0 0-.052.02l-1.75 1.448a1.584 1.584 0 0 1-2.027-.006l-1.72-1.443a.1.1 0 0 0-.054-.019H3.959a2.417 2.417 0 0 1-2.417-2.416v-8.75a2.417 2.417 0 0 1 2.417-2.417zm-12.083 1.5a.917.917 0 0 0-.917.917v8.75c0 .506.41.916.917.916H7.21c.372 0 .733.131 1.018.37l1.72 1.442c.03.026.076.027.107.002l1.749-1.45a1.6 1.6 0 0 1 1.01-.364h3.228c.506 0 .917-.41.917-.916v-8.75a.92.92 0 0 0-.917-.917zM6.25 8.063a1.105 1.105 0 1 1 0 2.209 1.105 1.105 0 0 1 0-2.21m3.75 0a1.105 1.105 0 1 1 0 2.209 1.105 1.105 0 0 1 0-2.21m3.75 0a1.105 1.105 0 1 1 0 2.209 1.105 1.105 0 0 1 0-2.21"/></svg>