<svg xmlns="http://www.w3.org/2000/svg" width="32" height="32" fill="none" data-fui-icon="true" viewBox="0 0 32 32"><path fill="currentColor" fill-rule="evenodd" d="M4.501 18a2.25 2.25 0 0 0-2.25 2.25v6a.75.75 0 0 0 1.5 0v-5.63c1.196 4.098 4.978 9.13 12.506 9.13 7.307 0 12.282-4.77 13.478-10.855a.751.751 0 0 0-1.473-.29c-1.065 5.418-5.45 9.645-12.005 9.645-7.129 0-10.443-5.036-11.245-8.75h5.492a.75.75 0 0 0 0-1.5zm11.24-15.75c-7.307 0-12.282 4.77-13.478 10.856a.751.751 0 0 0 1.473.289C4.8 7.977 9.187 3.75 15.74 3.75c7.129 0 10.443 5.036 11.245 8.75h-5.492a.75.75 0 0 0 0 1.5h6.003a2.25 2.25 0 0 0 2.25-2.25v-6a.75.75 0 0 0-1.5 0v5.63c-1.196-4.098-4.978-9.13-12.506-9.13" clip-rule="evenodd"/></svg>