<svg xmlns="http://www.w3.org/2000/svg" width="20" height="20" fill="none" data-fui-icon="true" viewBox="0 0 20 20"><path fill="currentColor" d="M11.895 1a3.75 3.75 0 0 1 3.12 1.67l.432.648A1.53 1.53 0 0 0 16.72 4a3.03 3.03 0 0 1 3.03 3.03v8.22A3.75 3.75 0 0 1 16 19H4a3.75 3.75 0 0 1-3.75-3.75V7.03A3.03 3.03 0 0 1 3.28 4a1.53 1.53 0 0 0 1.273-.682l.432-.648A3.75 3.75 0 0 1 8.105 1zm-3.79 1.5a2.25 2.25 0 0 0-1.872 1.002l-.432.648A3.03 3.03 0 0 1 3.28 5.5 1.53 1.53 0 0 0 1.75 7.03v8.22A2.25 2.25 0 0 0 4 17.5h12a2.25 2.25 0 0 0 2.25-2.25V7.03a1.53 1.53 0 0 0-1.53-1.53 3.03 3.03 0 0 1-2.52-1.35l-.433-.648A2.25 2.25 0 0 0 11.895 2.5zM10 6.5a4.25 4.25 0 1 1 0 8.5 4.25 4.25 0 0 1 0-8.5M10 8a2.75 2.75 0 1 0 0 5.5A2.75 2.75 0 0 0 10 8"/></svg>