<svg xmlns="http://www.w3.org/2000/svg" width="24" height="24" fill="none" data-fui-icon="true" viewBox="0 0 24 24"><path fill="currentColor" d="M11.96 2.754a.75.75 0 0 1 .67.415l3.03 6.058h4.067a2.774 2.774 0 0 1 0 5.546H15.66l-3.03 6.058-.67-.336v.001l.67.335a.75.75 0 0 1-.67.415H9.532a.75.75 0 0 1-.727-.932l.727.182-.727-.182 1.384-5.541H7.011L4.803 16.98a.75.75 0 0 1-.53.22H2.25a.75.75 0 0 1-.705-1.007L3.069 12 1.545 7.806l-.026-.087a.75.75 0 0 1 .73-.92h2.023l.148.015a.75.75 0 0 1 .383.206L7.01 9.227h3.178L8.805 3.686a.75.75 0 0 1 .727-.932zm-.082 7.04a.75.75 0 0 1-.728.933H6.7a.75.75 0 0 1-.53-.22L3.962 8.3h-.64l1.251 3.443c.06.166.06.347 0 .513L3.321 15.7h.64l2.209-2.208.114-.094a.75.75 0 0 1 .416-.125h4.45a.75.75 0 0 1 .728.931l-1.386 5.542h1.004l3.03-6.058a.75.75 0 0 1 .67-.415h4.531a1.273 1.273 0 0 0 0-2.546h-4.53a.75.75 0 0 1-.618-.324l-.054-.09-3.029-6.06h-1.003z"/></svg>