<svg xmlns="http://www.w3.org/2000/svg" width="32" height="32" fill="none" data-fui-icon="true" viewBox="0 0 32 32"><path fill="currentColor" d="M23.332 5.583a3.083 3.083 0 0 1 3.083 3.083c0 .119-.03.23-.08.33a3.42 3.42 0 0 1 2.68 3.337V23a3.417 3.417 0 0 1-3.416 3.416H6.266A3.417 3.417 0 0 1 2.849 23V8a2.42 2.42 0 0 1 2.417-2.417zM4.349 23c0 1.058.858 1.916 1.917 1.916h19.333A1.917 1.917 0 0 0 27.516 23V12.333a1.917 1.917 0 0 0-1.917-1.917H5.266c-.325 0-.635-.065-.917-.18zm17.65-7.084a1.75 1.75 0 1 1-.002 3.502A1.75 1.75 0 0 1 22 15.916m0 1.5a.25.25 0 1 0 0 .5.25.25 0 0 0 0-.5M5.266 7.083a.917.917 0 1 0 0 1.833h19.696a.8.8 0 0 1-.047-.25c0-.874-.709-1.583-1.583-1.583z"/></svg>