<svg xmlns="http://www.w3.org/2000/svg" width="32" height="32" fill="none" data-fui-icon="true" viewBox="0 0 32 32"><path stroke="currentColor" stroke-linecap="round" stroke-linejoin="round" stroke-width="1.5" d="M12.5 24c0-3.105-4.395-7.5-7.5-7.5 3.105 0 7.5-3.839 7.5-7.5 0 3.661 3.839 7.5 7.5 7.5-3.661 0-7.5 4.395-7.5 7.5M21 13c0-1.242-1.758-3-3-3 1.242 0 3-1.536 3-3 0 1.464 1.536 3 3 3-1.464 0-3 1.758-3 3m0 13c0-1.242-1.758-3-3-3 1.242 0 3-1.536 3-3 0 1.464 1.536 3 3 3-1.464 0-3 1.758-3 3"/></svg>