<svg xmlns="http://www.w3.org/2000/svg" width="16" height="16" fill="none" data-fui-icon="true" viewBox="0 0 16 16"><path fill="currentColor" d="M2.825 7.311a539 539 0 0 1 6.443-2.767c3.07-1.272 3.707-1.493 4.124-1.5.091-.002.295.02.428.128.11.09.141.212.157.298.014.086.033.281.017.434-.165 1.741-.886 5.968-1.252 7.918-.153.826-.459 1.103-.754 1.13-.643.058-1.13-.423-1.75-.83-.973-.635-1.522-1.03-2.466-1.65-1.092-.717-.384-1.11.238-1.754.162-.169 2.99-2.732 3.044-2.965.007-.029.014-.137-.052-.195-.064-.057-.159-.037-.228-.022q-.146.033-4.662 3.071-.66.453-1.198.441c-.394-.008-1.153-.222-1.718-.405-.69-.224-1.241-.343-1.193-.724q.037-.297.822-.608"/></svg>