<svg xmlns="http://www.w3.org/2000/svg" width="24" height="24" fill="none" data-fui-icon="true" viewBox="0 0 24 24"><path fill="currentColor" d="M9.324 13a.75.75 0 0 1 0 1.5H4.818c.579 2.485 2.788 5.75 7.45 5.75 4.354 0 7.281-2.908 7.996-6.64a.75.75 0 1 1 1.472.28c-.835 4.368-4.323 7.86-9.468 7.86-4.556 0-7.16-2.65-8.336-5.242v3.442a.75.75 0 0 1-1.5 0v-5.16c0-.98.788-1.79 1.778-1.79zm2.59-10.75c4.556 0 7.16 2.65 8.336 5.242V4.05a.75.75 0 0 1 1.5 0v5.16c0 .98-.788 1.79-1.778 1.79h-5.115a.75.75 0 0 1 0-1.5h4.506c-.578-2.485-2.787-5.75-7.449-5.75-4.354 0-7.282 2.908-7.996 6.64a.75.75 0 1 1-1.473-.28c.836-4.368 4.323-7.86 9.47-7.86"/></svg>