<svg xmlns="http://www.w3.org/2000/svg" width="12" height="12" fill="none" data-fui-icon="true" viewBox="0 0 12 12"><g clip-path="url(#a)"><path fill="currentColor" d="M8.592.941a3 3 0 0 1 2.845 2.997v4.124a3 3 0 0 1-3 3H3.564a3 3 0 0 1-3-3V3.939a3 3 0 0 1 3-3h4.874zM6.937 6.75a.19.19 0 0 0-.187.188v2.625h1.688a1.5 1.5 0 0 0 1.5-1.5V6.75zM3.563 2.438a1.5 1.5 0 0 0-1.5 1.5v4.124a1.5 1.5 0 0 0 1.5 1.5H5.25V6.938c0-.932.756-1.688 1.688-1.688h3V3.938A1.5 1.5 0 0 0 8.59 2.444l-.153-.007z"/></g><defs><clipPath id="a"><path fill="currentColor" d="M0 0h12v12H0z"/></clipPath></defs></svg>