<svg xmlns="http://www.w3.org/2000/svg" width="16" height="16" fill="none" data-fui-icon="true" viewBox="0 0 16 16"><g clip-path="url(#a)"><path fill="currentColor" d="M10.019.078a4.44 4.44 0 0 1 5.1 3.374l.333 1.441a8.88 8.88 0 0 1-6.655 10.65l-1.441.333-.224.046a4.44 4.44 0 0 1-5.044-3.152l-.057-.22L.699 6.78a4.44 4.44 0 0 1 3.106-5.268l.222-.058L9.795.124zm-5.66 2.82a2.96 2.96 0 0 0-2.218 3.55l1.332 5.768a2.96 2.96 0 0 0 3.55 2.218l1.442-.332q.488-.115.945-.288l-.649-2.813a3.46 3.46 0 0 1 2.593-4.15l2.813-.649a7.5 7.5 0 0 0-.156-.976l-.333-1.441a2.96 2.96 0 0 0-3.55-2.219zm7.328 5.396a1.98 1.98 0 0 0-1.483 2.374l.569 2.466a7.42 7.42 0 0 0 3.38-5.41z"/></g><defs><clipPath id="a"><path fill="currentColor" d="M0 0h16v16H0z"/></clipPath></defs></svg>