<svg xmlns="http://www.w3.org/2000/svg" width="24" height="24" fill="none" data-fui-icon="true" viewBox="0 0 24 24"><path fill="currentColor" d="M13.49 0c1.01 0 1.976.415 2.672 1.147L20.486 5.7A3.7 3.7 0 0 1 21.5 8.24v12.075A3.687 3.687 0 0 1 17.814 24H6.187A3.687 3.687 0 0 1 2.5 20.314V3.687A3.687 3.687 0 0 1 6.187 0zM6.186 1.5A2.187 2.187 0 0 0 4 3.687v16.627c0 1.207.979 2.186 2.187 2.186h11.627A2.187 2.187 0 0 0 20 20.314V9h-3.814A3.687 3.687 0 0 1 12.5 5.313V1.5zM14 5.313c0 1.208.979 2.187 2.186 2.187h3.683a2.2 2.2 0 0 0-.47-.768l-4.325-4.551A2.2 2.2 0 0 0 14 1.563z"/></svg>