<svg xmlns="http://www.w3.org/2000/svg" width="16" height="16" fill="none" data-fui-icon="true" viewBox="0 0 16 16"><path fill="currentColor" d="M4.92 9A2.08 2.08 0 0 1 7 11.08v1.84A2.08 2.08 0 0 1 4.92 15H3.08A2.08 2.08 0 0 1 1 12.92v-1.84A2.08 2.08 0 0 1 3.08 9zm8 0A2.08 2.08 0 0 1 15 11.08v1.84A2.08 2.08 0 0 1 12.92 15h-1.84A2.08 2.08 0 0 1 9 12.92v-1.84A2.08 2.08 0 0 1 11.08 9zm-9.84 1.5a.58.58 0 0 0-.58.58v1.84c0 .32.26.58.58.58h1.84c.32 0 .58-.26.58-.58v-1.84a.58.58 0 0 0-.58-.58zm8 0a.58.58 0 0 0-.58.58v1.84c0 .32.26.58.58.58h1.84c.32 0 .58-.26.58-.58v-1.84a.58.58 0 0 0-.58-.58zM4.92 1A2.08 2.08 0 0 1 7 3.08v1.84A2.08 2.08 0 0 1 4.92 7H3.08A2.08 2.08 0 0 1 1 4.92V3.08A2.08 2.08 0 0 1 3.08 1zm8 0A2.08 2.08 0 0 1 15 3.08v1.84A2.08 2.08 0 0 1 12.92 7h-1.84A2.08 2.08 0 0 1 9 4.92V3.08A2.08 2.08 0 0 1 11.08 1zM3.08 2.5a.58.58 0 0 0-.58.58v1.84c0 .32.26.58.58.58h1.84c.32 0 .58-.26.58-.58V3.08a.58.58 0 0 0-.58-.58zm8 0a.58.58 0 0 0-.58.58v1.84c0 .32.26.58.58.58h1.84c.32 0 .58-.26.58-.58V3.08a.58.58 0 0 0-.58-.58z"/></svg>