<svg xmlns="http://www.w3.org/2000/svg" width="16" height="16" fill="none" data-fui-icon="true" viewBox="0 0 16 16"><path fill="currentColor" d="M12.833 1.75c1.15 0 2.083.933 2.083 2.083v6.334c0 1.15-.933 2.083-2.083 2.083h-2.219v1.208H11a.75.75 0 0 1 0 1.5H5a.75.75 0 0 1 0-1.5h.385V12.25H3.166a2.084 2.084 0 0 1-2.083-2.083V3.833c0-1.15.933-2.083 2.083-2.083zM6.885 13.458h2.23V12.25h-2.23zm6.49-3.875H2.583v.584c0 .322.261.583.583.583h9.667a.583.583 0 0 0 .583-.583V9.58q-.02.001-.041.003M3.166 3.25a.584.584 0 0 0-.583.583v4.25h10.792l.041.002V3.833a.583.583 0 0 0-.583-.583z"/></svg>