<svg xmlns="http://www.w3.org/2000/svg" width="16" height="16" fill="none" data-fui-icon="true" viewBox="0 0 16 16"><path fill="currentColor" d="M15.5 3.42a6.2 6.2 0 0 1-1.767.477 3.05 3.05 0 0 0 1.353-1.676c-.595.347-1.253.6-1.954.735A3.1 3.1 0 0 0 10.886 2c-1.7 0-3.078 1.356-3.078 3.03q.001.356.08.69a8.79 8.79 0 0 1-6.344-3.166 3 3 0 0 0-.416 1.523c0 1.05.544 1.979 1.37 2.522a3.1 3.1 0 0 1-1.395-.38v.04c0 1.467 1.06 2.692 2.469 2.97a3.15 3.15 0 0 1-1.39.052 3.07 3.07 0 0 0 2.875 2.103 6.24 6.24 0 0 1-3.822 1.297q-.374 0-.735-.042A8.8 8.8 0 0 0 5.217 14c5.661 0 8.756-4.616 8.756-8.619q0-.196-.009-.391A6.2 6.2 0 0 0 15.5 3.423z"/></svg>