<svg xmlns="http://www.w3.org/2000/svg" width="12" height="12" fill="none" data-fui-icon="true" viewBox="0 0 12 12"><path fill="currentColor" d="M9.625 1.125c.966 0 1.75.784 1.75 1.75v4.75a1.75 1.75 0 0 1-1.75 1.75H8.148v.546A.75.75 0 0 1 8 11.406H4a.75.75 0 0 1-.148-1.485v-.546H2.375a1.75 1.75 0 0 1-1.75-1.75v-4.75c0-.966.784-1.75 1.75-1.75zM5.352 9.906h1.296v-.531H5.352zM2.125 7.625c0 .138.112.25.25.25h7.25a.25.25 0 0 0 .25-.25v-.14h-7.75zm.25-5a.25.25 0 0 0-.25.25v3.11h7.75v-3.11a.25.25 0 0 0-.25-.25z"/></svg>