<svg xmlns="http://www.w3.org/2000/svg" width="20" height="20" fill="none" data-fui-icon="true" viewBox="0 0 20 20"><path fill="currentColor" d="M15.425 1a4.21 4.21 0 0 1 3.889 2.595l.397.955c.191.46.29.955.289 1.453l-.005.194a3.77 3.77 0 0 1-1.502 2.822v6.675a3.867 3.867 0 0 1-3.866 3.867H5.372a3.867 3.867 0 0 1-3.866-3.867V9.018a3.77 3.77 0 0 1-1.501-2.82L0 6.002c0-.498.098-.993.29-1.453l.397-.955A4.21 4.21 0 0 1 4.575 1zM6.874 8.146a3.77 3.77 0 0 1-3.103 1.63l-.194-.005a4 4 0 0 1-.571-.074v5.997a2.367 2.367 0 0 0 2.366 2.367H6.41v-4.324c0-.748.607-1.355 1.356-1.355h4.467c.749 0 1.356.607 1.356 1.355v4.324h1.038a2.367 2.367 0 0 0 2.366-2.367V9.697a4 4 0 0 1-.57.074l-.194.005a3.77 3.77 0 0 1-3.101-1.627 3.81 3.81 0 0 1-3.126 1.627l-.217-.005a3.8 3.8 0 0 1-2.911-1.625m1.036 9.915h4.179v-4.18H7.91zM7.893 4.37l-.185 1.245a2.32 2.32 0 1 0 4.588 0l-.166-1.113-.357-2.003H8.227zM4.575 2.5c-1.095 0-2.083.66-2.504 1.67l-.397.956a2.276 2.276 0 0 0 2.098 3.15c1.1 0 2.043-.79 2.236-1.874L6.41 4.14 6.654 2.5zm9.041 1.794.376 2.108a2.27 2.27 0 0 0 2.236 1.874 2.276 2.276 0 0 0 2.098-3.15l-.397-.955A2.71 2.71 0 0 0 15.425 2.5H13.35z"/></svg>