<svg xmlns="http://www.w3.org/2000/svg" width="12" height="12" fill="none" data-fui-icon="true" viewBox="0 0 12 12"><path fill="currentColor" d="M9.339 3.694c.453 0 .916.337 1.161.675h-.004L6.952 7.913a1.354 1.354 0 0 1-1.908 0l-.34-.34 3.204-3.204.123-.122c.309-.294.717-.553 1.308-.553m-3.208 0c.453 0 .915.337 1.16.675L4.396 7.264 3.103 5.97 4.704 4.37c.005-.007.12-.122.12-.122.308-.294.716-.553 1.307-.553m-3.2 0c.452 0 .915.337 1.16.675L2.797 5.665 1.5 4.369c-.002-.004.123-.122.123-.122.309-.294.716-.553 1.308-.553"/></svg>