<svg xmlns="http://www.w3.org/2000/svg" width="20" height="20" fill="none" data-fui-icon="true" viewBox="0 0 20 20"><path fill="currentColor" d="M7.708 4.042a.75.75 0 0 1 0 1.5H5.729c-.448 0-.743 0-.968.018-.218.016-.31.045-.362.07a.92.92 0 0 0-.436.436c-.025.052-.054.143-.07.36-.018.226-.018.52-.018.97v6.812c0 .48 0 .794.02 1.034.02.23.052.327.08.382a.9.9 0 0 0 .4.401h.001c.055.028.151.06.382.08.24.02.555.02 1.034.02h6.75c.479 0 .793 0 1.033-.02.232-.02.328-.052.383-.08a.9.9 0 0 0 .4-.4v-.001c.028-.055.062-.15.08-.382.02-.24.02-.555.02-1.034v-2.541a.75.75 0 0 1 1.5 0v2.541c0 .454.001.84-.024 1.156-.027.324-.085.64-.239.942a2.4 2.4 0 0 1-1.056 1.055c-.302.154-.617.212-.942.239-.315.025-.7.025-1.155.025h-6.75c-.454 0-.84 0-1.156-.025-.324-.027-.64-.085-.942-.239a2.4 2.4 0 0 1-1.055-1.055c-.154-.302-.212-.618-.239-.942-.025-.315-.025-.702-.025-1.156V7.396c0-.426 0-.787.022-1.083a2.5 2.5 0 0 1 .21-.888c.24-.505.646-.913 1.152-1.152.286-.135.583-.186.887-.21.296-.022.658-.021 1.083-.021zm9.167-1.667a.75.75 0 0 1 .75.75v5.417a.75.75 0 0 1-1.5 0V4.936l-6.428 6.427a.75.75 0 1 1-1.06-1.06l6.428-6.428h-3.607a.75.75 0 0 1 0-1.5z"/></svg>