<svg xmlns="http://www.w3.org/2000/svg" width="24" height="24" fill="none" data-fui-icon="true" viewBox="0 0 24 24"><path fill="currentColor" d="M3.435 14.943c2.16-1.951 5.312-2.72 9.258-1.668a.75.75 0 0 1-.386 1.45c-3.553-.948-6.152-.216-7.867 1.332C2.7 17.629 1.75 20.153 1.75 23a.75.75 0 0 1-1.5 0c0-3.152 1.05-6.129 3.185-8.057m14.803-2.807a3.217 3.217 0 0 1 4.55 4.548l-5.839 5.836a2.75 2.75 0 0 1-1.64.789l-2.232.249a1.55 1.55 0 0 1-1.712-1.712l.248-2.233c.07-.62.347-1.199.788-1.64zm-4.776 6.897c-.2.2-.327.464-.358.746l-.248 2.233a.05.05 0 0 0 .054.054l2.234-.248c.281-.031.544-.158.745-.358l3.999-4-2.427-2.426zm8.264-5.837a1.715 1.715 0 0 0-2.426 0l-.779.778 2.427 2.426.778-.777c.67-.67.67-1.757 0-2.427M10.5.25a5.25 5.25 0 1 1 0 10.5 5.25 5.25 0 0 1 0-10.5m0 1.5a3.75 3.75 0 1 0 0 7.5 3.75 3.75 0 0 0 0-7.5"/></svg>