<svg xmlns="http://www.w3.org/2000/svg" width="32" height="32" fill="none" data-fui-icon="true" viewBox="0 0 32 32"><path fill="currentColor" d="M28 13.25a.75.75 0 0 1 .75.75c0 6.63-5.06 12.076-11.53 12.69a.516.516 0 0 0-.47.508V28a.5.5 0 0 0 .5.5H21a.75.75 0 0 1 0 1.5H11a.75.75 0 0 1 0-1.5h3.75a.5.5 0 0 0 .5-.5v-.802a.516.516 0 0 0-.472-.508C8.31 26.077 3.25 20.63 3.25 14a.75.75 0 0 1 1.5 0c0 6.213 5.037 11.25 11.25 11.25S27.25 20.213 27.25 14a.75.75 0 0 1 .75-.75M16 2a8 8 0 0 1 8 8v4a8 8 0 0 1-15.99.412L8 14v-4a8 8 0 0 1 8-8m0 1.5A6.5 6.5 0 0 0 9.5 10v4a6.5 6.5 0 0 0 13 0v-4A6.5 6.5 0 0 0 16 3.5"/></svg>