<svg xmlns="http://www.w3.org/2000/svg" width="16" height="16" fill="none" data-fui-icon="true" viewBox="0 0 16 16"><path fill="currentColor" d="M12.667 9.917a.75.75 0 0 1 .75.75v1.25h1.25a.75.75 0 0 1 0 1.5h-1.25v1.25a.75.75 0 0 1-1.5 0v-1.25h-1.25a.75.75 0 0 1 0-1.5h1.25v-1.25a.75.75 0 0 1 .75-.75m-.48-8.886c1.52 0 2.75 1.234 2.75 2.752V9.02a.75.75 0 0 1-1.5 0V3.783c0-.691-.56-1.252-1.25-1.252H3.813c-.69 0-1.25.56-1.25 1.25v8.407c0 .69.56 1.25 1.25 1.25H9.03a.75.75 0 0 1 0 1.5H3.812a2.75 2.75 0 0 1-2.75-2.75V3.78a2.75 2.75 0 0 1 2.75-2.75zM8.046 8.583a.75.75 0 0 1 0 1.5H4.776a.75.75 0 1 1 0-1.5zm3.268-2.666a.75.75 0 0 1 0 1.5H4.776a.75.75 0 0 1 0-1.5z"/></svg>