<svg xmlns="http://www.w3.org/2000/svg" width="12" height="12" fill="none" data-fui-icon="true" viewBox="0 0 12 12"><path fill="currentColor" d="M9.878 5.5a.5.5 0 0 1 .496.567l-.556 4.075A2.04 2.04 0 0 1 7.788 12H4.212a2.04 2.04 0 0 1-2.03-1.858l-.556-4.075a.5.5 0 0 1 .496-.567zM6.756 0a1.75 1.75 0 0 1 1.677 1.247L8.809 2.5h2.441a.75.75 0 0 1 0 1.5H.75a.75.75 0 0 1 0-1.5h2.441l.376-1.253A1.75 1.75 0 0 1 5.244 0zM5.244 1.5a.25.25 0 0 0-.24.178L4.76 2.5H7.24l-.246-.822a.25.25 0 0 0-.24-.178z"/></svg>