<svg xmlns="http://www.w3.org/2000/svg" width="20" height="20" fill="none" data-fui-icon="true" viewBox="0 0 20 20"><path fill="currentColor" d="M11.152 2.928a.75.75 0 0 1 1.447.394l-3.75 13.75a.75.75 0 0 1-1.447-.394zM4.246 5.944a.75.75 0 0 1 1.092 1.029L3.08 9.372a.916.916 0 0 0 0 1.256l2.258 2.4a.75.75 0 0 1-1.092 1.027l-2.258-2.399a2.417 2.417 0 0 1 0-3.312zm10.449-.032a.75.75 0 0 1 1.06.032l2.258 2.4c.876.93.876 2.382 0 3.312l-2.259 2.4a.75.75 0 1 1-1.091-1.029l2.257-2.4a.916.916 0 0 0 0-1.255l-2.257-2.4a.75.75 0 0 1 .032-1.06"/></svg>