<svg xmlns="http://www.w3.org/2000/svg" width="16" height="16" fill="none" data-fui-icon="true" viewBox="0 0 16 16"><path fill="currentColor" d="M8.25 2c1.49 0 2.774.868 3.379 2.126l.775-.707C13.4 2.511 15 3.216 15 4.563v6.874c0 1.346-1.6 2.053-2.596 1.144l-.775-.708A3.75 3.75 0 0 1 8.25 14h-3.5A3.75 3.75 0 0 1 1 10.25v-4.5A3.75 3.75 0 0 1 4.75 2zm-3.5 1.5A2.25 2.25 0 0 0 2.5 5.75v4.5l.012.23A2.25 2.25 0 0 0 4.75 12.5h3.5a2.25 2.25 0 0 0 2.233-1.985l.022-.114c.136-.51.753-.779 1.218-.463l.096.077 1.597 1.459q.012.01.017.011l.007.002q.008.003.03-.005a.1.1 0 0 0 .024-.018l.003-.007.003-.02V4.563l-.002-.02q0-.004-.004-.007a.1.1 0 0 0-.024-.018.1.1 0 0 0-.03-.005q-.004 0-.007.002l-.017.011-1.597 1.458c-.502.459-1.263.122-1.336-.5A2.25 2.25 0 0 0 8.25 3.5z"/></svg>