<svg xmlns="http://www.w3.org/2000/svg" width="32" height="32" fill="none" data-fui-icon="true" viewBox="0 0 32 32"><path fill="currentColor" d="M14.129 3.25a3.46 3.46 0 0 1 3.204 2.151c.6-.5 1.374-.8 2.216-.8a3.456 3.456 0 0 1 3.459 3.453v1.972c.46-.206.977-.276 1.492-.276.89 0 1.728.32 2.336.991.603.666.914 1.603.914 2.718v5.068c0 6.398-5.048 11.223-11.25 11.223S5.25 24.925 5.25 18.527V9.405a3.456 3.456 0 0 1 3.46-3.452c.728 0 1.404.225 1.962.61a3.457 3.457 0 0 1 3.457-3.313m0 1.5c-1.084 0-1.96.877-1.96 1.953v8.756a.75.75 0 0 1-1.5 0V9.405A1.956 1.956 0 0 0 8.71 7.453c-1.084 0-1.96.876-1.96 1.952v9.122c0 5.548 4.355 9.723 9.75 9.723s9.75-4.175 9.75-9.723V13.46c0-.843-.232-1.387-.525-1.711-.289-.318-.702-.498-1.225-.498-.621 0-.946.134-1.127.31-.156.153-.318.45-.356 1.064l-.01.283-.006.358c-.033.812-.18 1.467-.396 2.029-.246.636-.572 1.123-.859 1.538-.557.806-.996 1.39-.996 2.668a.75.75 0 0 1-1.5 0c0-1.776.69-2.692 1.262-3.52.278-.403.516-.767.694-1.227.175-.453.302-1.031.302-1.846V8.054a1.956 1.956 0 0 0-1.96-1.952c-1.083 0-1.959.875-1.96 1.952v6.054a.75.75 0 0 1-1.5 0V6.703a1.957 1.957 0 0 0-1.96-1.953"/></svg>