<svg xmlns="http://www.w3.org/2000/svg" width="16" height="16" fill="none" data-fui-icon="true" viewBox="0 0 16 16"><path fill="currentColor" d="M5.935 1c.857 0 1.63.449 2.065 1.147A2.43 2.43 0 0 1 10.065 1h.185a2.25 2.25 0 0 1 2.25 2.25c0 .27-.05.528-.138.768h1.128c.834 0 1.51.676 1.51 1.51v1.471c0 .655-.418 1.21-1 1.419v4.462c0 1.17-.95 2.12-2.12 2.12H4.12A2.12 2.12 0 0 1 2 12.88V8.418c-.583-.21-1-.764-1-1.419V5.527c0-.833.676-1.51 1.51-1.51h1.128A2.2 2.2 0 0 1 3.5 3.25 2.25 2.25 0 0 1 5.75 1zM3.5 12.88c0 .342.278.62.62.62h3.13V8.509H3.5zm5.25.62h3.13a.62.62 0 0 0 .62-.62V8.509H8.75zM2.5 5.523v1.48l.006.006H7.25V5.518H2.506zM8.75 7.01h4.744l.006-.006v-1.48l-.006-.005H8.75zm-3-4.509a.75.75 0 0 0 0 1.5h1.29l-.198-.792a.935.935 0 0 0-.907-.708zm4.315 0a.935.935 0 0 0-.907.708L8.96 4h1.29a.75.75 0 0 0 0-1.5z"/></svg>