<svg xmlns="http://www.w3.org/2000/svg" width="32" height="32" fill="none" data-fui-icon="true" viewBox="0 0 32 32"><path fill="currentColor" d="M16 1c8.284 0 15 6.716 15 15s-6.716 15-15 15S1 24.284 1 16 7.716 1 16 1m0 1.5C8.544 2.5 2.5 8.544 2.5 16S8.544 29.5 16 29.5 29.5 23.456 29.5 16 23.456 2.5 16 2.5M16 23a1.25 1.25 0 1 1 0 2.5 1.25 1.25 0 0 1 0-2.5m0-16a6 6 0 0 1 2.231 11.571c-.903.362-1.481 1.025-1.481 1.679a.75.75 0 0 1-1.5 0c0-1.555 1.277-2.611 2.424-3.071A4.502 4.502 0 0 0 16 8.5a4.5 4.5 0 0 0-4.5 4.5v.25a.75.75 0 0 1-1.5 0V13a6 6 0 0 1 6-6"/></svg>