<svg xmlns="http://www.w3.org/2000/svg" width="24" height="24" fill="none" data-fui-icon="true" viewBox="0 0 24 24"><path fill="currentColor" d="M17.146 2.632a5.25 5.25 0 0 1 4.979 5.243v8.25c0 2.9-2.35 5.25-5.25 5.25h-9.75a5.25 5.25 0 0 1-5.25-5.25v-8.25c0-2.9 2.35-5.25 5.25-5.25h9.75zM7.124 4.125a3.75 3.75 0 0 0-3.75 3.75v8.25a3.75 3.75 0 0 0 3.75 3.75h9.75a3.75 3.75 0 0 0 3.75-3.75v-8.25a3.75 3.75 0 0 0-3.557-3.745l-.193-.005zm4.086 3.487a1.25 1.25 0 0 1 1.673.086l3.021 3.022a.75.75 0 1 1-1.06 1.06L12.75 9.686v6.064a.75.75 0 0 1-1.5 0V9.686L9.155 11.78a.75.75 0 0 1-1.06-1.06l3.021-3.022z"/></svg>