<svg xmlns="http://www.w3.org/2000/svg" width="12" height="12" fill="none" data-fui-icon="true" viewBox="0 0 12 12"><path fill="currentColor" d="M4.5 6.2a.75.75 0 0 1 0 1.5H2.86c.418 1 1.402 2.048 3.183 2.048 1.64 0 2.8-.86 3.35-2.061a.75.75 0 1 1 1.363.623c-.79 1.725-2.477 2.938-4.713 2.938-1.777 0-3.007-.75-3.793-1.696v.446a.75.75 0 0 1-1.5 0v-2.53c0-.693.56-1.267 1.264-1.268zM5.957.75c1.777 0 3.007.75 3.793 1.696V2a.75.75 0 0 1 1.5 0v2.53c0 .693-.56 1.268-1.264 1.268H7.5a.75.75 0 0 1 0-1.5h1.64c-.418-1-1.402-2.048-3.183-2.048-1.64 0-2.8.86-3.35 2.062a.75.75 0 1 1-1.363-.624C2.034 1.963 3.721.75 5.957.75"/></svg>