<svg xmlns="http://www.w3.org/2000/svg" width="16" height="16" fill="none" data-fui-icon="true" viewBox="0 0 16 16"><path fill="currentColor" d="m11.128 1.595.028.207.029.142a2.7 2.7 0 0 0 2.625 2.082h.5v3.283h-.5c-.963 0-1.875-.23-2.682-.635v3.774a4.719 4.719 0 0 1-7.348 3.92 4.72 4.72 0 0 1 3.274-8.595l.433.06v3.452l-.651-.206a1.43 1.43 0 1 0 .996 1.37V.832h3.296zM8.832 10.45a2.43 2.43 0 1 1-2.43-2.438l.085.003V6.732l-.079-.002a3.72 3.72 0 0 0-2.071 6.808 3.7 3.7 0 0 0 2.071.628 3.72 3.72 0 0 0 3.72-3.718V4.82l.79.565a4.95 4.95 0 0 0 2.393.898v-1.29a3.696 3.696 0 0 1-3.14-3.017l-.019-.142h-1.32z"/></svg>