<svg xmlns="http://www.w3.org/2000/svg" width="16" height="16" fill="none" data-fui-icon="true" viewBox="0 0 16 16"><path stroke="currentColor" stroke-linecap="round" stroke-linejoin="round" stroke-width="1.5" d="M2.873 2.873a2.41 2.41 0 0 0-.707 1.708v6.838c0 .64.255 1.255.707 1.707v0a2.41 2.41 0 0 0 1.708.708h6.838c.64 0 1.255-.255 1.707-.707v0a2.41 2.41 0 0 0 .708-1.708V4.581c0-.64-.255-1.255-.707-1.708v0a2.41 2.41 0 0 0-1.708-.707H4.581c-.64 0-1.255.255-1.708.707"/><path fill="currentColor" d="M8.707 7.293a1 1 0 1 1-1.414 1.414 1 1 0 0 1 1.414-1.414M5.88 4.464A1 1 0 1 1 4.464 5.88 1 1 0 0 1 5.88 4.464m-1.415 5.657a1 1 0 1 1 1.415 1.415 1 1 0 0 1-1.415-1.415m7.072 0a1 1 0 1 1-1.414 1.414 1 1 0 0 1 1.414-1.414M10.12 4.464a1 1 0 1 1 1.415 1.415 1 1 0 0 1-1.415-1.415"/></svg>