<svg xmlns="http://www.w3.org/2000/svg" width="12" height="12" fill="none" data-fui-icon="true" viewBox="0 0 12 12"><path fill="currentColor" d="M4.25 0a.75.75 0 0 1 0 1.5h-1A1.75 1.75 0 0 0 1.5 3.25v5.5c0 .966.784 1.75 1.75 1.75h5.5a1.75 1.75 0 0 0 1.75-1.75v-1a.75.75 0 0 1 1.5 0v1A3.25 3.25 0 0 1 8.75 12h-5.5A3.25 3.25 0 0 1 0 8.75v-5.5A3.25 3.25 0 0 1 3.25 0zm5.188 0c.639 0 1.252.254 1.704.706l.152.152a2.41 2.41 0 0 1 0 3.409L7.28 8.28a.75.75 0 0 1-.53.22h-2.5a.75.75 0 0 1-.75-.75v-2.5c0-.199.08-.39.22-.53L7.733.706A2.4 2.4 0 0 1 9.438 0M5 5.56V7h1.44l2.093-2.094-1.44-1.44zM9.438 1.5a.9.9 0 0 0-.644.267l-.64.64 1.44 1.439.64-.64a.91.91 0 0 0 0-1.287l-.153-.152a.9.9 0 0 0-.643-.267"/></svg>