<svg xmlns="http://www.w3.org/2000/svg" width="20" height="20" fill="none" data-fui-icon="true" viewBox="0 0 20 20"><path fill="currentColor" d="M14.792 11.542a.75.75 0 0 1 .75.75v1.958H17.5a.75.75 0 0 1 0 1.5h-1.958v1.959a.75.75 0 0 1-1.5 0V15.75h-1.959a.75.75 0 0 1 0-1.5h1.959v-1.958a.75.75 0 0 1 .75-.75m-1.25-10a.75.75 0 0 1 .75.75v.917h.916a2.417 2.417 0 0 1 2.417 2.416v3.75a.75.75 0 0 1-1.5 0v-.916H3.875v6.75c0 .506.41.916.917.916h4.583a.75.75 0 0 1 0 1.5H4.792a2.417 2.417 0 0 1-2.417-2.416V5.625a2.417 2.417 0 0 1 2.417-2.416h.916v-.917a.75.75 0 0 1 1.5 0v.917h5.584v-.917a.75.75 0 0 1 .75-.75m-8.75 3.167a.917.917 0 0 0-.917.916v1.334h12.25V5.625a.917.917 0 0 0-.917-.916z"/></svg>