<svg xmlns="http://www.w3.org/2000/svg" width="12" height="12" fill="none" data-fui-icon="true" viewBox="0 0 12 12"><path fill="currentColor" d="M8.125.625a.75.75 0 0 1 .75.75v.25h.25c.966 0 1.75.784 1.75 1.75v5.75a1.75 1.75 0 0 1-1.75 1.75h-6.25a1.75 1.75 0 0 1-1.75-1.75v-5.75c0-.966.784-1.75 1.75-1.75h.25v-.25a.75.75 0 0 1 1.5 0v.25h2.75v-.25a.75.75 0 0 1 .75-.75m-5.25 2.5a.25.25 0 0 0-.25.25v5.75c0 .138.112.25.25.25h6.25a.25.25 0 0 0 .25-.25v-5.75a.25.25 0 0 0-.25-.25zM6.721 4.47a.75.75 0 0 1 1.06 1.06l-.72.721.72.72A.75.75 0 0 1 6.72 8.03L6 7.311l-.72.72a.75.75 0 0 1-1.06-1.06l.72-.72-.721-.72a.75.75 0 1 1 1.06-1.061L6 5.19z"/></svg>