<svg xmlns="http://www.w3.org/2000/svg" width="16" height="16" fill="none" data-fui-icon="true" viewBox="0 0 16 16"><path stroke="currentColor" stroke-linecap="round" stroke-linejoin="round" stroke-width="1.5" d="M5 11c0-1.426-1.574-3-3-3 1.426 0 3-1.574 3-3 0 1.426 1.574 3 3 3-1.426 0-3 1.574-3 3m5.5-5c0-.713-.787-1.5-1.5-1.5.713 0 1.5-.787 1.5-1.5 0 .713.787 1.5 1.5 1.5-.713 0-1.5.787-1.5 1.5m0 7c0-.713-.787-1.5-1.5-1.5.713 0 1.5-.787 1.5-1.5 0 .713.787 1.5 1.5 1.5-.713 0-1.5.787-1.5 1.5"/></svg>