<svg xmlns="http://www.w3.org/2000/svg" width="24" height="24" fill="none" data-fui-icon="true" viewBox="0 0 24 24"><path fill="currentColor" d="M8.4 1.65a5.55 5.55 0 0 1 5.55 5.55 5.54 5.54 0 0 1-1.894 4.172c2.792 1.173 4.18 3.433 4.85 5.182.69 1.795.044 3.876-1.833 4.69-1.364.59-3.407 1.106-6.373 1.106-3.184 0-5.303-.596-6.66-1.238-1.65-.78-2.284-2.593-1.828-4.246.494-1.784 1.691-4.235 4.544-5.482A5.55 5.55 0 0 1 8.4 1.65m1.976 10.736a5.53 5.53 0 0 1-3.944.003c-3.082.808-4.289 3.12-4.774 4.877-.293 1.058.13 2.068 1.023 2.49 1.13.535 3.025 1.094 6.019 1.094 2.79 0 4.626-.486 5.777-.984 1.03-.446 1.475-1.613 1.03-2.775-.668-1.74-2.088-3.926-5.131-4.705M16.2 2.85a4.35 4.35 0 0 1 4.35 4.35c0 1.165-.46 2.222-1.206 3.003 1.954.852 3.017 2.301 3.578 3.513.68 1.467.303 3.259-1.118 4.191a8 8 0 0 1-1.759.854.75.75 0 0 1-.49-1.417 6.4 6.4 0 0 0 1.426-.69c.731-.48.982-1.438.58-2.307-.525-1.134-1.586-2.522-3.776-3.097-.492.193-1.026.3-1.585.3a.75.75 0 0 1 0-1.5 2.851 2.851 0 1 0-.476-5.661.75.75 0 1 1-.248-1.479q.355-.06.724-.06m-7.8.3a4.05 4.05 0 1 0 0 8.1 4.05 4.05 0 0 0 0-8.1"/></svg>