<svg xmlns="http://www.w3.org/2000/svg" width="32" height="32" fill="none" data-fui-icon="true" viewBox="0 0 32 32"><path fill="currentColor" d="M2.75 4a.75.75 0 0 1 .75.75v19a2.75 2.75 0 0 0 2.75 2.75h23a.75.75 0 0 1 0 1.5h-23A4.25 4.25 0 0 1 2 23.75v-19A.75.75 0 0 1 2.75 4m23.5 5a.75.75 0 0 1 .75.75v4.5a.75.75 0 0 1-1.5 0v-2.69l-7.22 7.22a.75.75 0 0 1-1.06 0l-3.97-3.97-5.97 5.97a.75.75 0 1 1-1.06-1.06l6.5-6.5.056-.052a.75.75 0 0 1 1.004.052l3.97 3.97 6.69-6.69h-2.69a.75.75 0 0 1 0-1.5z"/></svg>