<svg xmlns="http://www.w3.org/2000/svg" width="12" height="12" fill="none" data-fui-icon="true" viewBox="0 0 12 12"><path fill="currentColor" d="M6 0a6 6 0 1 1 0 12A6 6 0 0 1 6 0m-.774 8.5c.07.362.152.69.248.976.143.43.299.725.434.897q.058.072.092.1a1 1 0 0 0 .092-.1c.135-.172.29-.466.434-.897.096-.286.178-.614.248-.976zm-2.967 0a4.5 4.5 0 0 0 1.839 1.578q-.025-.064-.047-.129A10 10 0 0 1 3.7 8.5zm6.04 0a10 10 0 0 1-.35 1.45q-.023.064-.048.128A4.5 4.5 0 0 0 9.741 8.5zM8.468 5q.031.49.032 1-.001.51-.032 1h1.919a4.5 4.5 0 0 0 0-2zM5.033 5a15 15 0 0 0 0 2h1.934a15 15 0 0 0 0-2zm-3.42 0a4.5 4.5 0 0 0 0 2h1.92Q3.5 6.51 3.5 6q.001-.51.032-1zm2.485-3.08a4.5 4.5 0 0 0-1.84 1.58h1.443c.09-.531.207-1.02.35-1.45q.022-.064.047-.13m1.81-.293c-.135.172-.29.466-.434.897a8 8 0 0 0-.248.976h1.548a8 8 0 0 0-.248-.976c-.143-.43-.299-.725-.434-.897a1 1 0 0 0-.092-.1 1 1 0 0 0-.092.1m2.041.424c.143.43.26.918.35 1.449H9.74a4.5 4.5 0 0 0-1.84-1.58q.026.066.048.13"/></svg>