<svg xmlns="http://www.w3.org/2000/svg" width="32" height="32" fill="none" data-fui-icon="true" viewBox="0 0 32 32"><path fill="currentColor" d="M26.72 4.22a.75.75 0 0 1 1.06 1.06l-6.33 6.33a7 7 0 0 1-9.84 9.84l-6.33 6.33a.75.75 0 0 1-1.06-1.06l6.328-6.33a7 7 0 0 1 9.84-9.84zm-1.015 4.55a.75.75 0 0 1 1.06-.025c3.038 2.897 4.777 6.172 5.102 6.813a.97.97 0 0 1 0 .884c-.303.597-1.822 3.458-4.463 6.18C24.765 25.34 20.926 28 16 28c-2.437 0-4.613-.652-6.506-1.64a.751.751 0 0 1 .694-1.33c1.712.893 3.651 1.47 5.811 1.47 4.356 0 7.832-2.35 10.329-4.923A25.9 25.9 0 0 0 30.405 16c-.501-.94-2.094-3.708-4.675-6.169a.75.75 0 0 1-.025-1.06M16 4c2.436 0 4.612.652 6.505 1.64a.75.75 0 0 1-.694 1.33c-1.712-.893-3.651-1.47-5.812-1.47-4.355 0-7.83 2.35-10.328 4.923A26 26 0 0 0 1.593 16c.5.938 2.094 3.708 4.676 6.17a.75.75 0 1 1-1.035 1.085C2.196 20.357.456 17.082.13 16.442a.97.97 0 0 1 0-.884l.171-.325a27.4 27.4 0 0 1 4.293-5.855C7.234 6.659 11.073 4 16 4m-3.323 16.382a5.5 5.5 0 0 0 7.704-7.704zM16 10.5a5.5 5.5 0 0 0-4.383 8.821l7.704-7.704a5.48 5.48 0 0 0-3.322-1.117"/></svg>