<svg xmlns="http://www.w3.org/2000/svg" width="24" height="24" fill="none" data-fui-icon="true" viewBox="0 0 24 24"><path fill="currentColor" d="M11.13 2.25a2.75 2.75 0 0 1 1.74 0l6.25 2.083A2.75 2.75 0 0 1 21 6.94v4.97c0 2.738-1.183 4.759-2.858 6.348-1.647 1.563-3.801 2.738-5.786 3.809a.75.75 0 0 1-.712 0c-1.985-1.07-4.139-2.246-5.786-3.809C4.183 16.67 3 14.65 3 11.912V6.94a2.75 2.75 0 0 1 1.88-2.608zm1.265 1.422a1.25 1.25 0 0 0-.79 0l-6.25 2.083A1.25 1.25 0 0 0 4.5 6.941v4.97c0 2.236.942 3.885 2.392 5.26 1.39 1.32 3.218 2.36 5.108 3.383 1.89-1.024 3.718-2.063 5.108-3.383 1.45-1.375 2.392-3.024 2.392-5.26v-4.97a1.25 1.25 0 0 0-.855-1.186zM14.22 8.97a.75.75 0 0 1 1.06 1.06l-3.75 3.75a.75.75 0 0 1-1.06 0l-1.75-1.75a.75.75 0 0 1 1.06-1.06L11 12.19z"/></svg>