<svg xmlns="http://www.w3.org/2000/svg" width="12" height="12" fill="none" data-fui-icon="true" viewBox="0 0 12 12"><g clip-path="url(#a)"><path fill="currentColor" d="M10.75 5a.75.75 0 0 1 .75.75 5.25 5.25 0 0 1-4.58 5.206.193.193 0 0 0-.17.19v.104a.75.75 0 0 1-1.5 0v-.105a.193.193 0 0 0-.17-.19A5.25 5.25 0 0 1 .5 5.75a.75.75 0 0 1 1.5 0A3.75 3.75 0 0 0 5.75 9.5h.5A3.75 3.75 0 0 0 10 5.75a.75.75 0 0 1 .75-.75M6 .9a3 3 0 0 1 3 3v1.5a3 3 0 0 1-5.996.155L3 5.4V3.9a3 3 0 0 1 3-3m0 1.5a1.5 1.5 0 0 0-1.5 1.5v1.5a1.5 1.5 0 0 0 3 0V3.9A1.5 1.5 0 0 0 6 2.4"/></g><defs><clipPath id="a"><path fill="currentColor" d="M0 0h12v12H0z"/></clipPath></defs></svg>