<svg xmlns="http://www.w3.org/2000/svg" width="12" height="12" fill="none" data-fui-icon="true" viewBox="0 0 12 12"><path fill="currentColor" d="M8.592.941a3 3 0 0 1 2.845 2.997v4.124a3 3 0 0 1-3 3H3.564a3 3 0 0 1-3-3V3.939a3 3 0 0 1 3-3h4.874zm-5.03 1.497a1.5 1.5 0 0 0-1.5 1.5v4.124a1.5 1.5 0 0 0 1.5 1.5h4.876a1.5 1.5 0 0 0 1.5-1.5V3.939A1.5 1.5 0 0 0 8.59 2.444l-.153-.007zM5.37 3.516a1 1 0 0 1 1.338.068l1.51 1.51a.75.75 0 1 1-1.06 1.061l-.407-.407v2.127a.75.75 0 0 1-1.5 0V5.748l-.407.407a.75.75 0 1 1-1.06-1.06l1.51-1.511z"/></svg>