<svg xmlns="http://www.w3.org/2000/svg" width="24" height="24" fill="none" data-fui-icon="true" viewBox="0 0 24 24"><path fill="currentColor" d="M21.22 1.72a.75.75 0 1 1 1.06 1.06l-1.06 1.06c.48.493.779 1.165.779 1.911v10.5a2.75 2.75 0 0 1-2.75 2.75h-3.874q-.092 0-.158.057h-.001l-2.099 1.739a1.75 1.75 0 0 1-2.115.088l-.125-.095-2.065-1.731.34-.406-.34.406a.25.25 0 0 0-.16-.059H6.061l-3.28 3.28a.75.75 0 1 1-1.061-1.06zM7.56 17.5h1.092c.412 0 .81.146 1.124.41l2.064 1.73a.25.25 0 0 0 .32.002l2.097-1.738a1.75 1.75 0 0 1 1.118-.403h3.874c.69 0 1.25-.56 1.25-1.25v-10.5c0-.328-.13-.627-.34-.85zM16.22 3a.75.75 0 0 1 0 1.5H4.75c-.69 0-1.25.56-1.25 1.25v10.5a.75.75 0 0 1-1.5 0V5.75A2.75 2.75 0 0 1 4.75 3z"/></svg>