<svg xmlns="http://www.w3.org/2000/svg" width="20" height="20" fill="none" data-fui-icon="true" viewBox="0 0 20 20"><g clip-path="url(#a)"><path fill="currentColor" fill-rule="evenodd" d="M2.25 0C1.054 0-.106 1.01.149 2.38.58 4.7 1.872 6.398 3.025 7.5c.542.52 1.061.913 1.461 1.187a7 7 0 1 0 11.028 0c.4-.274.919-.668 1.461-1.186 1.153-1.103 2.444-2.8 2.876-5.121C20.106 1.01 18.946 0 17.75 0h-1.701c-1.547 0-2.664 1.246-2.934 2.59a9.9 9.9 0 0 1-1.08 2.896 9 9 0 0 1-.436.698 7 7 0 0 0-3.198 0 9 9 0 0 1-.437-.698 9.9 9.9 0 0 1-1.08-2.897C6.616 1.246 5.498 0 3.952 0zM14.6 7.495l-.152.1a7 7 0 0 0-1.392-.894q.136-.213.286-.478a11.4 11.4 0 0 0 1.244-3.338c.165-.823.8-1.385 1.463-1.385h1.701c.211 0 .392.087.504.206.106.112.15.248.123.4-.356 1.911-1.426 3.342-2.439 4.31-.504.483-.985.842-1.339 1.079M6.943 6.7q-.136-.213-.286-.478a11.4 11.4 0 0 1-1.244-3.338c-.165-.823-.8-1.385-1.463-1.385H2.25a.7.7 0 0 0-.504.206.44.44 0 0 0-.123.4c.356 1.911 1.426 3.342 2.438 4.31a10 10 0 0 0 1.491 1.178c.425-.35.892-.65 1.392-.893M15.5 13a5.5 5.5 0 1 1-11 0 5.5 5.5 0 0 1 11 0m-2.47-.97a.75.75 0 1 0-1.06-1.06L9 13.94l-.97-.97a.75.75 0 0 0-1.06 1.06l1.5 1.5a.75.75 0 0 0 1.06 0z" clip-rule="evenodd"/></g><defs><clipPath id="a"><path fill="currentColor" d="M0 0h20v20H0z"/></clipPath></defs></svg>