<svg xmlns="http://www.w3.org/2000/svg" width="12" height="12" fill="none" data-fui-icon="true" viewBox="0 0 12 12"><path fill="currentColor" d="M2.766 7.802a.75.75 0 0 1 .947.478c.067.204.223.54.55.82.315.269.843.537 1.745.537 1.39 0 1.99-.638 2.173-1.117.056-.147.186-.27.343-.27h.917c.168 0 .305.139.28.305-.201 1.333-1.541 2.582-3.713 2.582-1.23 0-2.112-.377-2.72-.898a3.36 3.36 0 0 1-1-1.491.75.75 0 0 1 .478-.946M6.008.909C8.502.91 9.534 2.4 9.73 3.32a.75.75 0 0 1-1.466.314c-.054-.248-.488-1.225-2.257-1.225-1.738 0-2.242.996-2.242 1.432 0 .29.064.47.141.594.08.126.206.242.404.35.392.215.935.333 1.618.46a.3.3 0 0 0 .055.005h5.266a.75.75 0 0 1 .077 1.496l-.077.004H.75a.75.75 0 0 1 0-1.5h1.88c.008 0 .012-.01.008-.017-.25-.397-.372-.864-.372-1.392 0-1.456 1.38-2.932 3.742-2.932"/></svg>