<svg xmlns="http://www.w3.org/2000/svg" width="12" height="12" fill="none" data-fui-icon="true" viewBox="0 0 12 12"><path fill="currentColor" d="M6 1.125c1.325 0 1.513.006 2.041.03h.027l-.002.001c.397.008.79.08 1.162.218l-.001.001c.316.117.603.301.84.541h.001l.007.008.009.008h-.001c.24.237.426.524.543.84l.093.289q.117.426.126.872l.024.734c.005.28.006.66.006 1.333 0 1.325-.006 1.513-.03 2.041v.001c-.004.405-.078.806-.219 1.186l-.004.01a2.4 2.4 0 0 1-.377.65l-.169.188a2.4 2.4 0 0 1-.839.546l-.28-.727.01.027.27.7-.01.004-.288.093q-.428.117-.873.125h.001-.02l-.005.002-.001-.001c-.528.024-.716.03-2.041.03s-1.514-.006-2.042-.03h-.025v-.001a3.5 3.5 0 0 1-1.162-.218v-.001a2.3 2.3 0 0 1-.84-.542v.001l-.007-.009-.008-.007a2.3 2.3 0 0 1-.542-.84l-.093-.289a3.5 3.5 0 0 1-.127-.897l.001-.001c-.024-.528-.03-.716-.03-2.041 0-1.346.005-1.52.03-2.067.008-.397.081-.789.219-1.16.117-.317.302-.604.542-.841l.016-.016c.237-.24.524-.424.84-.541v-.001c.372-.138.764-.21 1.16-.218h.02l.006-.002v.001c.528-.024.716-.03 2.042-.03M3.292 2.781a.8.8 0 0 0-.315.211.8.8 0 0 0-.196.3v.001l-.053.166a2 2 0 0 0-.074.517V4c-.024.513-.029.659-.029 1.999 0 .67.002 1.042.006 1.31l.022.689.001.025q.003.264.074.517l.053.166-.418.154-.21.078.628-.231a.8.8 0 0 0 .211.315.8.8 0 0 0 .3.196h.001c.219.08.45.124.683.127H4c.513.024.659.029 1.999.029s1.486-.005 1.999-.028l.025-.001c.232-.003.462-.046.68-.126a.9.9 0 0 0 .312-.204l.064-.072a1 1 0 0 0 .14-.24c.08-.218.123-.448.126-.68V8c.024-.513.029-.659.029-1.999s-.005-1.486-.028-1.999l-.001-.025a2 2 0 0 0-.127-.683v-.001a.8.8 0 0 0-.211-.315.8.8 0 0 0-.3-.196h-.001l-.166-.053a2 2 0 0 0-.517-.074H8C7.486 2.63 7.34 2.624 6 2.624s-1.486.005-1.999.028l-.025.001a2 2 0 0 0-.517.074zl-.172-.468-.141-.381zm2.22.767a2.501 2.501 0 1 1 .975 4.906 2.501 2.501 0 0 1-.974-4.906m.293 1.472a1 1 0 1 0 .39 1.96 1 1 0 0 0-.39-1.96"/></svg>