<svg xmlns="http://www.w3.org/2000/svg" width="12" height="12" fill="none" data-fui-icon="true" viewBox="0 0 12 12"><path fill="currentColor" d="M10.617 1.376q.076.007.157.026c.08.02.184.052.287.114l.103.07.002.003c.176.144.25.324.284.446l.022.1.002.01c.015.092.036.3.018.487-.14 1.478-.744 5.021-1.049 6.645-.137.737-.47 1.292-1.074 1.347-.414.038-.758-.105-1.034-.267a5 5 0 0 1-.389-.256c-.124-.088-.236-.17-.355-.247a68 68 0 0 1-1.043-.698l-1.013-.678c-.253-.167-.47-.357-.594-.591a.88.88 0 0 1-.025-.783 1.7 1.7 0 0 1 .358-.487c.063-.063.131-.128.193-.187l.054-.056q-.382.254-.812.543c-.413.283-.848.465-1.291.456a4 4 0 0 1-.774-.129c-.272-.068-.56-.154-.801-.232V7.01c-.25-.081-.57-.17-.792-.278a1.1 1.1 0 0 1-.378-.283.75.75 0 0 1-.166-.578H.506c.035-.289.235-.48.385-.592.161-.119.367-.221.597-.313l3.357-1.451q1.345-.577 2.02-.858l1.573-.644c.419-.168.742-.293.996-.385.5-.18.787-.255 1.05-.26zm-.124.993c-.086.003-.244.029-.719.2-.483.175-1.245.481-2.526 1.012q-1.335.555-5.362 2.303l-.007.004-.007.003q-.057.023-.106.046l.17.055q.102.031.215.068c.228.073.492.153.735.213.255.064.45.098.553.1.155.003.385-.06.705-.28l.003-.002Q6.03 4.825 7.005 4.183q.487-.321.75-.489a9 9 0 0 1 .295-.177.7.7 0 0 1 .152-.058l.077-.016a1 1 0 0 1 .133-.01c.106 0 .275.027.424.16h-.001a.65.65 0 0 1 .205.388.7.7 0 0 1-.009.257l.001.001a.6.6 0 0 1-.068.167 1 1 0 0 1-.054.08q-.05.064-.108.13a8 8 0 0 1-.3.313 41 41 0 0 1-.849.817c-.307.29-.618.577-.858.8l-.3.28-.127.118v.001c-.072.075-.144.144-.208.205q-.098.094-.174.17a1.4 1.4 0 0 0-.126.142c.034.036.1.098.224.18.397.26.712.474 1.025.687.314.213.628.426 1.028.688l.387.268c.119.084.22.153.316.21.18.105.304.138.42.132q.007-.006.022-.023c.046-.062.121-.208.178-.51v-.001c.306-1.628.901-5.13 1.037-6.555v-.003a1 1 0 0 0 0-.122q-.001-.023-.004-.044"/></svg>