<svg xmlns="http://www.w3.org/2000/svg" width="32" height="32" fill="none" data-fui-icon="true" viewBox="0 0 32 32"><path fill="currentColor" d="M23.562 2a5.73 5.73 0 0 1 4.051 1.678l.709.708a5.73 5.73 0 0 1 0 8.102L12.28 28.53a.75.75 0 0 1-.427.213l-9 1.25a.752.752 0 0 1-.846-.846l1.25-9a.75.75 0 0 1 .212-.427L19.511 3.678A5.73 5.73 0 0 1 23.562 2M4.708 20.602l-1.08 7.768 7.77-1.079 11.916-11.916-6.69-6.69zM23.562 3.5a4.23 4.23 0 0 0-2.99 1.238l-2.887 2.887 6.69 6.69 2.887-2.887a4.23 4.23 0 0 0 0-5.98l-.71-.71a4.23 4.23 0 0 0-2.99-1.238"/></svg>