<svg xmlns="http://www.w3.org/2000/svg" width="20" height="20" fill="none" data-fui-icon="true" viewBox="0 0 20 20"><path fill="currentColor" d="M14.75 1a.75.75 0 0 1 0 1.5H13.5v5.29c0 .194.062.383.177.54l4.99 6.827c1.168 1.597.027 3.843-1.95 3.843H3.283c-1.978 0-3.118-2.246-1.951-3.843L6.323 8.33a.9.9 0 0 0 .177-.54V2.5H5.25a.75.75 0 0 1 0-1.5zM7.207 12.981c-.78-.14-1.68-.06-2.841.59l-.01-.01-1.813 2.481a.917.917 0 0 0 .74 1.458h13.434a.917.917 0 0 0 .74-1.458l-1.562-2.135c-1.181.773-2.25 1.064-3.268 1.019-1.141-.05-2.122-.522-2.966-.95-.886-.448-1.625-.846-2.454-.995"/></svg>