<svg xmlns="http://www.w3.org/2000/svg" width="16" height="16" fill="none" data-fui-icon="true" viewBox="0 0 16 16"><path fill="currentColor" d="M10.25 0A5.75 5.75 0 0 1 16 5.75v4.5A5.75 5.75 0 0 1 10.25 16h-4.5A5.75 5.75 0 0 1 0 10.25v-4.5A5.75 5.75 0 0 1 5.75 0zm-4.5 1.5A4.25 4.25 0 0 0 1.5 5.75v4.5a4.25 4.25 0 0 0 4.25 4.25h4.5a4.25 4.25 0 0 0 4.25-4.25v-4.5a4.25 4.25 0 0 0-4.25-4.25zm0 2.5a.75.75 0 0 1 .75.75v6.5a.75.75 0 0 1-1.5 0v-6.5A.75.75 0 0 1 5.75 4m4.95.241a.75.75 0 0 1 1.1 1.018L9.27 8l2.53 2.741a.75.75 0 0 1-1.1 1.018l-3-3.25a.75.75 0 0 1 0-1.018z"/></svg>