<svg xmlns="http://www.w3.org/2000/svg" width="16" height="16" fill="none" data-fui-icon="true" viewBox="0 0 16 16"><path fill="currentColor" d="M1.22 1.22a.75.75 0 0 1 1.049-.01L14.79 13.73a.75.75 0 0 1-1.07 1.05l-2.182-2.182a.266.266 0 0 0-.392.027A3.73 3.73 0 0 1 8.25 14h-3.5a3.75 3.75 0 0 1-3.745-3.557L1 10.25v-4.5c0-.93.34-1.783.902-2.438a.263.263 0 0 0-.008-.357L1.22 2.28a.75.75 0 0 1 0-1.06m2.09 3.151c-.099-.099-.261-.098-.346.013-.29.379-.464.852-.464 1.366v4.5l.012.231a2.25 2.25 0 0 0 2.238 2.02h3.5c.797 0 1.497-.416 1.896-1.041a.23.23 0 0 0-.037-.29zm4.94-2.37c1.37 0 2.566.734 3.22 1.83.086.143.283.182.407.07l.527-.482C13.4 2.511 15 3.217 15 4.564v6.873l-.005.125c-.007.096-.122.13-.19.063l-1.232-1.232a.25.25 0 0 1-.073-.177V4.564l-.002-.02-.004-.007a.1.1 0 0 0-.024-.019.1.1 0 0 0-.03-.005l-.007.002-.017.012-1.597 1.458c-.502.458-1.263.12-1.336-.5A2.25 2.25 0 0 0 8.25 3.5H6.784a.25.25 0 0 1-.177-.073l-1-1A.25.25 0 0 1 5.784 2z"/></svg>