<svg xmlns="http://www.w3.org/2000/svg" width="32" height="32" fill="none" data-fui-icon="true" viewBox="0 0 32 32"><path fill="currentColor" d="M19.2 30.5a.75.75 0 0 1 0 1.5h-6.4a.75.75 0 0 1 0-1.5zM16 6.75c2.934 0 5.267 1.028 6.861 2.738 1.587 1.702 2.389 4.02 2.389 6.512 0 3.467-2.234 5.737-3.636 6.824-.54.419-.864.999-.864 1.567A3.61 3.61 0 0 1 17.14 28h-2.28a3.61 3.61 0 0 1-3.61-3.61c0-.567-.325-1.147-.864-1.566C8.984 21.737 6.75 19.467 6.75 16c0-2.492.802-4.81 2.389-6.512C10.733 7.778 13.066 6.75 16 6.75m0 1.5c-2.566 0-4.483.889-5.764 2.262C8.948 11.893 8.25 13.825 8.25 16c0 2.774 1.79 4.657 3.055 5.639.81.628 1.445 1.61 1.445 2.752a2.11 2.11 0 0 0 2.11 2.109h2.28a2.11 2.11 0 0 0 2.11-2.11c0-1.14.635-2.123 1.445-2.751 1.265-.982 3.055-2.865 3.055-5.639 0-2.175-.698-4.107-1.986-5.488C20.484 9.139 18.566 8.25 16 8.25"/></svg>