<svg xmlns="http://www.w3.org/2000/svg" width="32" height="32" fill="none" data-fui-icon="true" viewBox="0 0 32 32"><path fill="currentColor" d="M23.457 18.25c.085 0 .167.036.222.1q.28.324.51.704c.53.887.814 1.961.814 3.257 0 3.022-2.646 6.602-7.945 7.016a.307.307 0 0 0-.285.302v1.621a.75.75 0 0 1-1.5 0v-1.62c0-.159-.124-.29-.283-.302-2.551-.194-4.354-1.097-5.606-2.223a8.34 8.34 0 0 1-2.35-3.675.75.75 0 0 1 1.432-.448 6.84 6.84 0 0 0 1.92 3.007c.972.874 2.415 1.638 4.569 1.83a.294.294 0 0 0 .318-.294V18.55a.3.3 0 0 1 .3-.3h.9a.3.3 0 0 1 .3.3v8.974c0 .174.148.311.32.295 4.518-.41 6.41-3.407 6.41-5.508 0-1.071-.232-1.87-.602-2.487-.37-.618-.907-1.103-1.594-1.498-.037-.02-.022-.076.02-.076zM16.023.001a.75.75 0 0 1 .75.75v1.614c0 .16.128.292.287.303 5.478.398 7.542 3.93 7.927 5.82a.75.75 0 0 1-1.47.3c-.26-1.28-1.785-4.219-6.425-4.613a.295.295 0 0 0-.319.295v10.48a.3.3 0 0 0 .3.3H31.25a.75.75 0 0 1 0 1.5H.75a.75.75 0 0 1 0-1.5h9.173c.144 0 .193-.203.067-.275-.856-.493-1.604-1.143-2.134-2.028-.53-.886-.813-1.961-.813-3.257 0-3.022 2.65-6.603 7.946-7.019a.307.307 0 0 0 .284-.302V.75a.75.75 0 0 1 .75-.75m-.75 4.473a.295.295 0 0 0-.32-.295c-4.516.412-6.41 3.411-6.41 5.511 0 1.07.231 1.87.6 2.487.37.618.909 1.102 1.595 1.497 1.126.647 2.575 1.014 4.177 1.341a.3.3 0 0 0 .358-.293z"/></svg>