<svg xmlns="http://www.w3.org/2000/svg" width="20" height="20" fill="none" data-fui-icon="true" viewBox="0 0 20 20"><path fill="currentColor" d="M11.043 2.375a4.084 4.084 0 0 1 4.084 4.083v.209c0 1.21-.528 2.297-1.364 3.045a4.08 4.08 0 0 1 2.197 3.621v.209a4.083 4.083 0 0 1-4.083 4.083H5.618a1.583 1.583 0 0 1-1.583-1.583V3.958c0-.874.709-1.583 1.583-1.583zM5.535 16.042c0 .046.037.083.083.083h6.259a2.583 2.583 0 0 0 2.583-2.583v-.209a2.583 2.583 0 0 0-2.583-2.583H5.535zm.083-12.167a.083.083 0 0 0-.083.083V9.25h5.508a2.584 2.584 0 0 0 2.584-2.583v-.209a2.584 2.584 0 0 0-2.584-2.583z"/></svg>