<svg xmlns="http://www.w3.org/2000/svg" width="20" height="20" fill="none" data-fui-icon="true" viewBox="0 0 20 20"><path fill="currentColor" d="M10 3.51c2.114 0 2.364.008 3.2.046a4.4 4.4 0 0 1 1.469.273c.344.127.655.329.91.592.263.255.465.566.592.91.175.471.267.968.273 1.47.038.835.046 1.085.046 3.199s-.008 2.364-.046 3.2a4.4 4.4 0 0 1-.273 1.469 2.62 2.62 0 0 1-1.502 1.502c-.47.175-.968.267-1.47.273-.835.038-1.085.046-3.199.046s-2.364-.008-3.199-.046c-.502-.006-1-.098-1.47-.273a2.45 2.45 0 0 1-.91-.592 2.45 2.45 0 0 1-.592-.91 4.4 4.4 0 0 1-.273-1.47c-.038-.835-.046-1.085-.046-3.199s.008-2.364.046-3.199a4.4 4.4 0 0 1 .273-1.47c.127-.344.329-.655.592-.91.255-.263.566-.465.91-.592a4.4 4.4 0 0 1 1.47-.273C7.636 3.518 7.886 3.51 10 3.51m0-1.427c-2.15 0-2.42.01-3.264.048a5.8 5.8 0 0 0-1.921.368 3.9 3.9 0 0 0-1.403.914 3.9 3.9 0 0 0-.913 1.402 5.8 5.8 0 0 0-.367 1.921c-.04.844-.049 1.114-.049 3.264s.01 2.42.048 3.264a5.8 5.8 0 0 0 .368 1.921 3.9 3.9 0 0 0 .914 1.403c.395.403.873.714 1.402.913.615.23 1.265.355 1.921.367.844.04 1.114.049 3.264.049s2.42-.01 3.264-.048a5.8 5.8 0 0 0 1.921-.368 4.05 4.05 0 0 0 2.316-2.316c.23-.615.355-1.264.367-1.921.04-.844.049-1.114.049-3.264s-.01-2.42-.048-3.264a5.8 5.8 0 0 0-.368-1.921 3.9 3.9 0 0 0-.914-1.403 3.9 3.9 0 0 0-1.402-.913 5.8 5.8 0 0 0-1.921-.367c-.844-.04-1.114-.049-3.264-.049m0 3.851a4.066 4.066 0 1 0 0 8.131 4.066 4.066 0 0 0 0-8.13m0 6.705a2.64 2.64 0 1 1 0-5.278 2.64 2.64 0 0 1 0 5.278m4.226-7.815a.95.95 0 1 0 0 1.9.95.95 0 0 0 0-1.9"/></svg>