<svg xmlns="http://www.w3.org/2000/svg" width="32" height="32" fill="none" data-fui-icon="true" viewBox="0 0 32 32"><path fill="currentColor" d="M2.97 2.97a.75.75 0 0 1 1.06 0l25 25a.75.75 0 0 1-1.06 1.06l-4.321-4.32a.514.514 0 0 0-.647-.061 12.66 12.66 0 0 1-5.782 2.042.515.515 0 0 0-.471.507V28.5a.75.75 0 0 1-1.5 0v-1.302a.516.516 0 0 0-.471-.508C8.31 26.077 3.249 20.63 3.249 14a.75.75 0 0 1 1.5 0c0 6.213 5.037 11.25 11.25 11.25 2.107 0 4.078-.58 5.763-1.59a.48.48 0 0 0 .083-.754l-1.664-1.664a.52.52 0 0 0-.603-.09A7.95 7.95 0 0 1 16 22a8 8 0 0 1-7.99-7.588L8 14v-4q0-.329.028-.65a.52.52 0 0 0-.147-.41L2.97 4.03a.75.75 0 0 1 0-1.06m25.029 10.28a.75.75 0 0 1 .75.75c0 3.029-1.058 5.808-2.822 7.995a.484.484 0 0 1-.721.031l-.358-.358a.517.517 0 0 1-.032-.686A11.2 11.2 0 0 0 27.249 14a.75.75 0 0 1 .75-.75m-18.5.75a6.5 6.5 0 0 0 8.652 6.133c.325-.114.396-.525.153-.769l-7.951-7.95a.5.5 0 0 0-.854.353zm6.5-12a8 8 0 0 1 8 8v4c0 1.71-.537 3.292-1.45 4.592a.475.475 0 0 1-.727.05l-.365-.364a.53.53 0 0 1-.054-.668A6.47 6.47 0 0 0 22.5 14v-4a6.5 6.5 0 0 0-11.94-3.558c-.186.283-.59.347-.83.107l-.344-.344a.48.48 0 0 1-.069-.603A8 8 0 0 1 16 2"/></svg>