<svg xmlns="http://www.w3.org/2000/svg" width="24" height="24" fill="none" data-fui-icon="true" viewBox="0 0 24 24"><path stroke="currentColor" stroke-width="1.5" d="M20.204 4.008c.904.28 1.615 1.101 1.857 2.147C22.498 8.048 22.5 12 22.5 12s0 3.952-.44 5.845c-.241 1.046-.952 1.867-1.856 2.147C18.567 20.5 12 20.5 12 20.5s-6.567 0-8.204-.508c-.904-.28-1.615-1.101-1.857-2.147C1.5 15.952 1.5 12 1.5 12s0-3.952.44-5.845c.241-1.046.952-1.867 1.856-2.147C5.433 3.5 12 3.5 12 3.5s6.567 0 8.204.508Zm-5.066 7.776a.25.25 0 0 1 0 .433l-4.965 2.866a.25.25 0 0 1-.375-.216V9.134a.25.25 0 0 1 .375-.217z" clip-rule="evenodd"/></svg>