<svg xmlns="http://www.w3.org/2000/svg" width="20" height="20" fill="none" data-fui-icon="true" viewBox="0 0 20 20"><path fill="currentColor" d="M7.111.5a.75.75 0 0 1 .702.487A2.33 2.33 0 0 0 10 2.5l.187-.007a2.33 2.33 0 0 0 2-1.506l.048-.105A.75.75 0 0 1 12.89.5H16l.204.01A2 2 0 0 1 18 2.5v15a2 2 0 0 1-2 2h-3.111a.75.75 0 0 1-.702-.487 2.33 2.33 0 0 0-2-1.506L10 17.5c-1.003 0-1.856.63-2.187 1.513a.75.75 0 0 1-.702.487H4a2 2 0 0 1-2-2v-15a2 2 0 0 1 2-2zM4 2a.5.5 0 0 0-.5.5v15a.5.5 0 0 0 .5.5h2.633A3.83 3.83 0 0 1 10 16a3.83 3.83 0 0 1 3.367 2H16a.5.5 0 0 0 .5-.5v-15a.5.5 0 0 0-.4-.49L16 2h-2.633a3.83 3.83 0 0 1-3.061 1.988L10 4a3.83 3.83 0 0 1-3.367-2zm8.72 4.22a.75.75 0 1 1 1.06 1.06L11.06 10l2.72 2.72a.75.75 0 1 1-1.06 1.06L10 11.06l-2.72 2.72a.75.75 0 1 1-1.06-1.06L8.94 10 6.22 7.28a.75.75 0 1 1 1.06-1.06L10 8.94z"/></svg>