<svg xmlns="http://www.w3.org/2000/svg" width="20" height="20" fill="none" data-fui-icon="true" viewBox="0 0 20 20"><path fill="currentColor" d="M15.196 2.27a.75.75 0 1 1 1.449.388l-.872 3.256H18.4a.75.75 0 0 1 0 1.5h-3.03l-1.415 5.284h2.83a.75.75 0 0 1 0 1.5h-3.232l-.89 3.321a.75.75 0 0 1-1.45-.388L12 14.198H5.799l-.89 3.321a.75.75 0 0 1-1.449-.388l.786-2.933H1.601a.75.75 0 0 1 0-1.5h3.046l1.416-5.284H3.216a.75.75 0 0 1 0-1.5h3.25l.976-3.645a.75.75 0 0 1 1.449.389l-.872 3.256h6.2zM6.201 12.697h6.2l1.416-5.284h-6.2z"/></svg>