<svg xmlns="http://www.w3.org/2000/svg" width="32" height="32" fill="none" data-fui-icon="true" viewBox="0 0 32 32"><g clip-path="url(#a)"><path fill="currentColor" d="M16 0c8.914 0 16 7.086 16 16s-7.086 16-16 16S0 24.914 0 16 7.086 0 16 0m0 20.25c-2.206 0-3.75.833-4.738 1.68-.49.421-.843.842-1.074 1.162a5 5 0 0 0-.329.515l-.02.038-.006.012-.003.006v.001l.574.288-.575-.287a.75.75 0 0 0 1.34.674v-.004h.002l.006-.01q.01-.021.04-.07a4 4 0 0 1 .188-.284c.176-.243.449-.572.833-.902C13 22.417 14.206 21.75 16 21.75s3 .667 3.762 1.32c.384.329.657.658.833.9a4 4 0 0 1 .228.355l.006.009v.002l.001.002h.001a.75.75 0 0 0 1.34-.673l-.575.287.575-.288h-.001l-.003-.007-.007-.012-.02-.038-.068-.12c-.059-.099-.145-.235-.26-.395a6.7 6.7 0 0 0-1.074-1.161c-.989-.848-2.532-1.681-4.738-1.681M9.375 13.4a1.375 1.375 0 1 0 0 2.75 1.375 1.375 0 0 0 0-2.75m13.25 0a1.375 1.375 0 1 0 0 2.75 1.375 1.375 0 0 0 0-2.75"/></g><defs><clipPath id="a"><path fill="currentColor" d="M0 0h32v32H0z"/></clipPath></defs></svg>