<svg xmlns="http://www.w3.org/2000/svg" width="20" height="20" fill="none" data-fui-icon="true" viewBox="0 0 20 20"><path fill="currentColor" d="M16.03 1A2.97 2.97 0 0 1 19 3.97v12.06A2.97 2.97 0 0 1 16.03 19H3.97A2.97 2.97 0 0 1 1 16.03V3.97A2.97 2.97 0 0 1 3.97 1zM3.97 2.5A1.47 1.47 0 0 0 2.5 3.97v12.06c0 .812.658 1.47 1.47 1.47h12.06a1.47 1.47 0 0 0 1.47-1.47V3.97a1.47 1.47 0 0 0-1.47-1.47zm2.34 10.06a1.25 1.25 0 1 1 0 2.5 1.25 1.25 0 0 1 0-2.5m6.94.5a.75.75 0 0 1 0 1.5h-3.5a.75.75 0 0 1 0-1.5zm-6.94-4.5a1.25 1.25 0 1 1 0 2.5 1.25 1.25 0 0 1 0-2.5m7.94.5a.75.75 0 0 1 0 1.5h-4.5a.75.75 0 0 1 0-1.5zm-7.94-4.5a1.25 1.25 0 1 1 0 2.5 1.25 1.25 0 0 1 0-2.5m8.94.5a.75.75 0 0 1 0 1.5h-5.5a.75.75 0 0 1 0-1.5z"/></svg>