<svg xmlns="http://www.w3.org/2000/svg" width="24" height="24" fill="none" data-fui-icon="true" viewBox="0 0 24 24"><path fill="currentColor" d="M18.5 15a.75.75 0 0 1 .75.75v2h2a.75.75 0 0 1 0 1.5h-2v2a.75.75 0 0 1-1.5 0v-2h-2a.75.75 0 0 1 0-1.5h2v-2a.75.75 0 0 1 .75-.75M5.751 9.438a.75.75 0 1 1 1.06 1.061L4.18 13.133a4.023 4.023 0 1 0 5.688 5.688l2.634-2.633a.75.75 0 1 1 1.06 1.061l-2.632 2.634a5.524 5.524 0 0 1-7.812-7.812zM14.22 7.72a.75.75 0 1 1 1.06 1.06l-6.5 6.5a.75.75 0 1 1-1.06-1.06zm1.757-6.22a5.524 5.524 0 0 1 3.906 9.429l-2.634 2.633a.75.75 0 1 1-1.06-1.061l2.632-2.634a4.022 4.022 0 1 0-5.688-5.688l-2.634 2.633a.75.75 0 1 1-1.06-1.061l2.632-2.634A5.52 5.52 0 0 1 15.977 1.5"/></svg>