<svg xmlns="http://www.w3.org/2000/svg" width="13" height="12" fill="none" data-fui-icon="true" viewBox="0 0 13 12"><path fill="currentColor" d="M7.106 1.688a2.247 2.247 0 0 1 2.239 2.437h.457c.641 0 1.227.364 1.511.938l.542 1.093c.152.306.208.65.16.989l-.22 1.53a1.685 1.685 0 0 1-1.444 1.432 1.875 1.875 0 0 1-3.444.018H5.843a1.874 1.874 0 0 1-3.442-.013A2.06 2.06 0 0 1 .583 7.773l.125-.878a.75.75 0 0 1 1.485.21l-.125.878a.56.56 0 0 0 .358.602 1.874 1.874 0 0 1 3.417.04h1.064c.102-.232.248-.44.43-.611l.514-3.98a.75.75 0 0 0-.745-.846H2.25a.75.75 0 0 1 0-1.5zM4.125 9a.375.375 0 1 0 0 .75.375.375 0 0 0 0-.75m4.5 0a.375.375 0 1 0 0 .75.375.375 0 0 0 0-.75m.287-1.477c.603.093 1.11.473 1.379.997a.2.2 0 0 0 .02-.056l.218-1.532a.2.2 0 0 0-.017-.11L9.97 5.73a.19.19 0 0 0-.168-.104h-.645zM4.312 4a.75.75 0 0 1 0 1.5H.75a.75.75 0 0 1 0-1.5z"/></svg>