<svg xmlns="http://www.w3.org/2000/svg" width="24" height="24" fill="none" data-fui-icon="true" viewBox="0 0 24 24"><path fill="currentColor" fill-rule="evenodd" d="M12 8a.75.75 0 0 1 .75.75v5.5a.75.75 0 0 1-1.5 0v-5.5A.75.75 0 0 1 12 8" clip-rule="evenodd"/><path fill="currentColor" d="M13 18a1 1 0 1 1-2 0 1 1 0 0 1 2 0"/><path fill="currentColor" fill-rule="evenodd" d="M12 2.5c-.424 0-.816.229-1.024.598L1.663 19.61a1.267 1.267 0 0 0 1.104 1.89h18.466a1.267 1.267 0 0 0 1.104-1.89L13.024 3.098c-.208-.37-.6-.598-1.024-.598m-2.33-.139a2.676 2.676 0 0 1 4.66 0l9.313 16.513A2.766 2.766 0 0 1 21.233 23H2.767a2.767 2.767 0 0 1-2.41-4.126z" clip-rule="evenodd"/></svg>