<svg xmlns="http://www.w3.org/2000/svg" width="12" height="12" fill="none" data-fui-icon="true" viewBox="0 0 12 12"><path fill="currentColor" d="M6 0c2.836 0 4.376 1.523 5.164 3.027.385.736.592 1.463.703 2.001a8 8 0 0 1 .126.854l.005.056.001.017v.009l-.008.148a.75.75 0 0 1-.186.393L9.5 9.04v1.7A1.26 1.26 0 0 1 8.24 12H3.76a1.26 1.26 0 0 1-1.26-1.26v-1.7L.195 6.505a.75.75 0 0 1-.194-.541v-.009l.001-.018q.001-.02.005-.055.005-.07.018-.194c.02-.162.052-.39.108-.66a7.7 7.7 0 0 1 .703-2C1.624 1.522 3.164 0 6 0M4 10.5h4v-1H4zm-.625-5c-.71 0-1.215.244-1.545.482l-.049.038L3.582 8H5.25V6.272a2.4 2.4 0 0 0-.33-.29A2.6 2.6 0 0 0 3.375 5.5m5.25 0c-.71 0-1.215.244-1.545.482a2.4 2.4 0 0 0-.33.29V8h1.668l1.8-1.98q-.023-.019-.048-.038A2.6 2.6 0 0 0 8.625 5.5M6 1.5c-2.164 0-3.249 1.102-3.836 2.223a6 6 0 0 0-.241.529C2.334 4.102 2.818 4 3.375 4A4.08 4.08 0 0 1 6 4.922q.094-.077.201-.154A4.1 4.1 0 0 1 8.625 4c.556 0 1.04.102 1.451.252a6 6 0 0 0-.24-.53C9.249 2.603 8.164 1.5 6 1.5"/></svg>