<svg xmlns="http://www.w3.org/2000/svg" width="16" height="16" fill="none" data-fui-icon="true" viewBox="0 0 16 16"><g clip-path="url(#a)"><path fill="currentColor" d="M8 .5A7.5 7.5 0 0 1 15.5 8a7.48 7.48 0 0 1-2.586 5.662q-.014.016-.032.032-.04.033-.08.065l-.063.053a8 8 0 0 1-.478.358l-.112.076-.172.111q-.06.038-.117.073l-.186.107q-.06.035-.12.067-.15.081-.302.157-.087.04-.176.078l-.14.062q-.05.022-.102.042-.112.046-.225.09l-.145.05-.173.059q-.08.026-.161.048a7 7 0 0 1-1.273.26l-.113.012q-.142.015-.285.022l-.089.006a8 8 0 0 1-.741 0q-.045-.002-.089-.006a7 7 0 0 1-.285-.022l-.113-.013a8 8 0 0 1-.57-.087 8 8 0 0 1-.703-.172q-.081-.023-.161-.048l-.173-.059-.145-.05-.225-.09q-.051-.02-.103-.042a7 7 0 0 1-.314-.14 8 8 0 0 1-.446-.238q-.083-.045-.163-.093l-.117-.073a7 7 0 0 1-.457-.31l-.105-.078-.183-.145q-.047-.037-.094-.077l-.064-.053-.03-.028A7.5 7.5 0 0 1 8 .5m0 11.75c-1.144 0-2.211.32-3.12.875q.102.06.206.12l.059.032a6 6 0 0 0 .522.252q.118.05.24.094l.132.047q.063.022.125.043a6 6 0 0 0 .657.17 6 6 0 0 0 .506.078l.085.01q.121.012.244.018l.04.003a6 6 0 0 0 .89-.021l.086-.01a6 6 0 0 0 1.163-.248l.125-.043q.066-.022.133-.047.12-.044.24-.094l.006-.003a6 6 0 0 0 .263-.118 6 6 0 0 0 .517-.283A5.97 5.97 0 0 0 8 12.25M8 2a6 6 0 0 0-4.344 10.136A7.47 7.47 0 0 1 8 10.75a7.47 7.47 0 0 1 4.344 1.386A6 6 0 0 0 8 2m0 2a3 3 0 1 1 0 6 3 3 0 0 1 0-6m0 1.5a1.5 1.5 0 1 0 0 3 1.5 1.5 0 0 0 0-3"/></g><defs><clipPath id="a"><path fill="currentColor" d="M0 0h16v16H0z"/></clipPath></defs></svg>