<svg xmlns="http://www.w3.org/2000/svg" width="20" height="20" fill="none" data-fui-icon="true" viewBox="0 0 20 20"><path fill="currentColor" d="M8.58 3.009c.971-.842 2.482-.152 2.483 1.133v11.715c0 1.286-1.512 1.976-2.483 1.134L5.84 14.615a1.75 1.75 0 0 0-1.147-.428H3.437a2 2 0 0 1-2-2V7.812a2 2 0 0 1 2-2h1.255c.421 0 .829-.152 1.147-.427zm-1.759 3.51a3.25 3.25 0 0 1-2.129.793H3.437a.5.5 0 0 0-.5.5v4.375a.5.5 0 0 0 .5.5h1.255c.782 0 1.538.282 2.13.794l2.74 2.376V4.142zm8.872-1.397a.75.75 0 0 1 1.06-.054l-.475.526.476-.525.005.005.008.007.022.021.068.07q.085.087.217.245c.173.211.397.52.617.929.443.82.872 2.035.872 3.654s-.429 2.834-.872 3.654a6 6 0 0 1-.617.929 4 4 0 0 1-.307.336l-.008.007-.006.005a.75.75 0 0 1-1.06-1.058l.05-.05v-.002h.002l.001-.002.03-.031q.046-.046.138-.155c.12-.146.287-.376.457-.69.338-.627.692-1.6.692-2.943 0-1.344-.354-2.316-.692-2.942a4.4 4.4 0 0 0-.457-.69 3 3 0 0 0-.138-.156q-.022-.024-.03-.031V6.18l-.003-.001v-.002l-.05-.05a.75.75 0 0 1 0-1.005M13.191 7a.75.75 0 0 1 1.059-.059l-.332.371c.325-.363.333-.37.333-.37l.001.001.003.002.007.006a1 1 0 0 1 .064.064q.058.057.145.16c.114.135.26.33.402.585.288.512.565 1.262.565 2.24 0 .977-.277 1.728-.565 2.24a3.8 3.8 0 0 1-.547.745l-.064.064-.007.006q-.002 0-.003.002h-.001v.002l-.501-.56.5.56a.75.75 0 0 1-1.001-1.118l.006-.006q.02-.02.067-.075c.062-.073.151-.192.243-.354A3.04 3.04 0 0 0 13.938 10a3.04 3.04 0 0 0-.373-1.506 2.3 2.3 0 0 0-.31-.43l-.007-.007h.001l-.054-.052A.75.75 0 0 1 13.191 7"/></svg>