<svg xmlns="http://www.w3.org/2000/svg" width="12" height="12" fill="none" data-fui-icon="true" viewBox="0 0 12 12"><path fill="currentColor" d="m9.241 0 .206.008c1.02.08 1.906.756 2.246 1.733l.17.488c.091.26.137.536.137.812l-.013.251a2.45 2.45 0 0 1-.487 1.234v4.737A2.737 2.737 0 0 1 8.763 12H3.237A2.737 2.737 0 0 1 .5 9.263V4.526a2.45 2.45 0 0 1-.487-1.234L0 3.041c0-.276.046-.551.137-.812l.17-.488A2.6 2.6 0 0 1 2.553.008L2.759 0zM4.21 4.758A2.45 2.45 0 0 1 2 5.457v3.806c0 .683.554 1.237 1.237 1.237H3.5V8.136C3.5 7.509 4.009 7 4.636 7h2.728C7.991 7 8.5 7.509 8.5 8.136V10.5h.263C9.446 10.5 10 9.946 10 9.263V5.457a2.45 2.45 0 0 1-2.209-.698 2.53 2.53 0 0 1-1.79.741 2.53 2.53 0 0 1-1.792-.742M5 10.5h2v-2H5zm-.042-7.536a1.043 1.043 0 0 0 2.084.008L6.784 1.5H5.216zM2.758 1.5c-.465 0-.88.295-1.034.735l-.17.489A.958.958 0 0 0 2.454 4c.462 0 .859-.333.939-.79l.07-.406q.002-.017.002-.033l.014-.141.147-1.13zm5.764 1.13q.013.097.017.192l.068.389c.08.456.477.789.94.789a.958.958 0 0 0 .9-1.276l-.17-.489A1.1 1.1 0 0 0 9.24 1.5h-.865z"/></svg>