<svg xmlns="http://www.w3.org/2000/svg" width="20" height="20" fill="none" data-fui-icon="true" viewBox="0 0 20 20"><path fill="currentColor" d="M10.625 2.375a.75.75 0 0 1 0 1.5H3.959a.917.917 0 0 0-.917.917v8.75c0 .506.41.916.917.916H7.21c.372 0 .733.131 1.018.37l1.72 1.442c.03.026.076.027.107.002l1.749-1.45a1.6 1.6 0 0 1 1.01-.364h3.228c.506 0 .917-.41.917-.916v-3.334a.75.75 0 0 1 1.5 0v3.334a2.417 2.417 0 0 1-2.417 2.416h-3.229a.1.1 0 0 0-.052.02l-1.75 1.448a1.584 1.584 0 0 1-2.027-.006l-1.72-1.443a.1.1 0 0 0-.054-.019H3.959a2.417 2.417 0 0 1-2.417-2.416v-8.75a2.417 2.417 0 0 1 2.417-2.417zM5.938 8.313a.854.854 0 1 1-.002 1.708.854.854 0 0 1 .002-1.709m4.062 0a.855.855 0 1 1 0 1.71.855.855 0 0 1 0-1.71m5.833-6.771a3.459 3.459 0 1 1 0 6.918 3.459 3.459 0 0 1 0-6.918m0 1.5a1.958 1.958 0 1 0 0 3.917 1.958 1.958 0 0 0 0-3.917"/></svg>