<svg xmlns="http://www.w3.org/2000/svg" width="32" height="32" fill="none" data-fui-icon="true" viewBox="0 0 32 32"><path fill="currentColor" d="M22.75 2a7.75 7.75 0 0 1 7.75 7.75v12.5A7.75 7.75 0 0 1 22.75 30h-12.5a7.75 7.75 0 0 1-7.75-7.75V9.75A7.75 7.75 0 0 1 10.25 2zm-12.5 1.5A6.25 6.25 0 0 0 4 9.75v12.5a6.25 6.25 0 0 0 6.25 6.25h12.5A6.25 6.25 0 0 0 29 22.25V9.75a6.25 6.25 0 0 0-6.25-6.25zm1.5 6a.75.75 0 0 1 .75.75v11.5a.75.75 0 0 1-1.5 0v-11.5a.75.75 0 0 1 .75-.75m10.003.188a.75.75 0 0 1 .994 1.124L16.882 16l5.865 5.189a.75.75 0 0 1-.994 1.122l-6.5-5.75a.75.75 0 0 1 0-1.123z"/></svg>