<svg xmlns="http://www.w3.org/2000/svg" width="32" height="32" fill="none" data-fui-icon="true" viewBox="0 0 32 32"><path fill="currentColor" fill-rule="evenodd" d="M17.158 5.032a6.937 6.937 0 0 1 9.81 9.81l-3.719 3.72a.75.75 0 0 1-1.06-1.061l3.718-3.72a5.437 5.437 0 0 0-7.689-7.688L14.5 9.812a.75.75 0 1 1-1.06-1.061zm-7.346 8.406a.75.75 0 0 1 0 1.061l-3.72 3.72a5.437 5.437 0 0 0 7.69 7.688l3.719-3.719a.75.75 0 0 1 1.06 1.061l-3.719 3.72a6.937 6.937 0 1 1-9.81-9.812l3.719-3.719a.75.75 0 0 1 1.06 0" clip-rule="evenodd"/><path fill="currentColor" fill-rule="evenodd" d="M13.879 18.121a.75.75 0 0 1 0 1.061L11.28 21.78a.75.75 0 1 1-1.06-1.06l2.598-2.599a.75.75 0 0 1 1.06 0m7.901-7.901a.75.75 0 0 1 0 1.06l-2.598 2.599a.75.75 0 0 1-1.06-1.061l2.598-2.598a.75.75 0 0 1 1.06 0m-16.56-5a.75.75 0 0 1 1.06 0l20.5 20.5a.75.75 0 1 1-1.06 1.06L5.22 6.28a.75.75 0 0 1 0-1.06" clip-rule="evenodd"/></svg>