<svg xmlns="http://www.w3.org/2000/svg" width="20" height="20" fill="none" data-fui-icon="true" viewBox="0 0 20 20"><path fill="currentColor" d="M11.958.531a.75.75 0 0 1 .917 0l1.958 1.514L16.791.53A.75.75 0 0 1 18 1.125v17.75a.75.75 0 0 1-1.209.594l-1.958-1.515-1.958 1.515-.105.068a.75.75 0 0 1-.812-.068L10 17.954l-1.958 1.515a.75.75 0 0 1-.812.068l-.105-.068-1.959-1.515-1.957 1.515A.75.75 0 0 1 2 18.875V1.125A.75.75 0 0 1 3.209.53l1.957 1.514L7.125.53a.75.75 0 0 1 .917 0L10 2.045zl.458.594h.001zm-1.499 3.056-.107.068a.75.75 0 0 1-.705 0l-.106-.068-1.958-1.515-1.958 1.515-.105.068a.75.75 0 0 1-.812-.068L3.5 2.652v14.695l1.208-.934a.75.75 0 0 1 .917 0l1.958 1.514 1.958-1.514a.75.75 0 0 1 .918 0l1.957 1.514 1.959-1.514.105-.068a.75.75 0 0 1 .812.068l1.208.934V2.652l-1.208.935a.75.75 0 0 1-.812.068l-.105-.068-1.959-1.515zm.291 9.163a.75.75 0 0 1 0 1.5H6.5a.75.75 0 0 1 0-1.5zm2.75-3.5a.75.75 0 0 1 0 1.5h-7a.75.75 0 0 1 0-1.5zm0-3.5a.75.75 0 0 1 0 1.5h-7a.75.75 0 0 1 0-1.5z"/></svg>