<svg xmlns="http://www.w3.org/2000/svg" width="16" height="16" fill="none" data-fui-icon="true" viewBox="0 0 16 16"><g clip-path="url(#a)"><path fill="currentColor" d="M4.5 7c.407 0 .773.23.954.583l.067.16.667 2.068 2.07.668a1.073 1.073 0 0 1 0 2.042l-2.07.667-.667 2.07a1.073 1.073 0 0 1-2.042 0l-.668-2.07-2.069-.668a1.073 1.073 0 0 1 0-2.04l2.069-.67.668-2.068A1.07 1.07 0 0 1 4.5 7m-.302 3.394a1.25 1.25 0 0 1-.804.804l-.933.302.933.302c.334.108.605.35.75.665l.054.14.302.931.302-.932.053-.14a1.25 1.25 0 0 1 .751-.664l.932-.302-.932-.302a1.25 1.25 0 0 1-.804-.804L4.5 9.46zM10.602.004c.505.04.943.381 1.102.87l.8 2.46a.25.25 0 0 0 .162.161l2.46.8a1.266 1.266 0 0 1 0 2.41l-2.46.8a.25.25 0 0 0-.161.161l-.8 2.46a1.266 1.266 0 0 1-2.41 0l-.8-2.46a.25.25 0 0 0-.161-.161l-2.46-.8a1.266 1.266 0 0 1 0-2.41l2.46-.8a.25.25 0 0 0 .161-.161l.8-2.46.036-.096A1.27 1.27 0 0 1 10.5 0zM9.92 3.799A1.75 1.75 0 0 1 8.799 4.92l-1.78.579 1.78.58c.532.172.949.59 1.122 1.121L10.5 8.98l.58-1.778A1.75 1.75 0 0 1 12.2 6.08L13.98 5.5l-1.778-.58A1.75 1.75 0 0 1 11.08 3.8l-.579-1.78z"/></g><defs><clipPath id="a"><path fill="currentColor" d="M0 0h16v16H0z"/></clipPath></defs></svg>