<svg xmlns="http://www.w3.org/2000/svg" width="32" height="32" fill="none" data-fui-icon="true" viewBox="0 0 32 32"><path fill="currentColor" d="M16 5.616c3.382 0 3.783.012 5.119.073a7 7 0 0 1 2.35.437c.551.203 1.049.527 1.457.947.421.41.745.907.948 1.457.28.753.427 1.549.437 2.352.06 1.335.073 1.736.073 5.118s-.012 3.783-.073 5.119a7 7 0 0 1-.437 2.35 4.2 4.2 0 0 1-2.404 2.405 7 7 0 0 1-2.351.437c-1.336.06-1.737.073-5.119.073s-3.783-.012-5.118-.073a7 7 0 0 1-2.353-.437 3.9 3.9 0 0 1-1.456-.947 3.9 3.9 0 0 1-.947-1.457 7 7 0 0 1-.437-2.351c-.06-1.336-.073-1.737-.073-5.119s.012-3.783.073-5.118a7 7 0 0 1 .437-2.352c.203-.55.527-1.048.947-1.457.41-.42.907-.744 1.457-.947a7 7 0 0 1 2.352-.437c1.335-.06 1.736-.073 5.118-.073m0-2.283c-3.44 0-3.871.015-5.222.076-1.05.021-2.09.22-3.075.589A6.2 6.2 0 0 0 5.46 5.46a6.2 6.2 0 0 0-1.461 2.243 9.3 9.3 0 0 0-.588 3.075c-.063 1.35-.077 1.782-.077 5.222s.015 3.871.076 5.222c.021 1.05.22 2.09.589 3.075A6.2 6.2 0 0 0 5.46 26.54a6.2 6.2 0 0 0 2.243 1.461 9.3 9.3 0 0 0 3.075.588c1.35.063 1.782.077 5.222.077s3.871-.015 5.222-.076a9.3 9.3 0 0 0 3.075-.589 6.48 6.48 0 0 0 3.705-3.705 9.3 9.3 0 0 0 .588-3.075c.063-1.35.077-1.782.077-5.222s-.015-3.871-.076-5.222a9.3 9.3 0 0 0-.589-3.075A6.2 6.2 0 0 0 26.54 5.46a6.2 6.2 0 0 0-2.243-1.461 9.3 9.3 0 0 0-3.075-.588c-1.35-.063-1.782-.077-5.222-.077m0 6.162a6.504 6.504 0 1 0 0 13.009 6.504 6.504 0 0 0 0-13.009m0 10.728a4.223 4.223 0 1 1 0-8.446 4.223 4.223 0 0 1 0 8.446m6.762-12.505a1.52 1.52 0 1 0 0 3.04 1.52 1.52 0 0 0 0-3.04"/></svg>