<svg xmlns="http://www.w3.org/2000/svg" width="20" height="20" fill="none" data-fui-icon="true" viewBox="0 0 20 20"><path fill="currentColor" fill-rule="evenodd" d="M14.5 3a2.5 2.5 0 1 0 0 5 2.5 2.5 0 0 0 0-5m-1 2.5a1 1 0 1 1 2 0 1 1 0 0 1-2 0" clip-rule="evenodd"/><path fill="currentColor" fill-rule="evenodd" d="M6.75 16.5a3.25 3.25 0 0 1-3.25-3.25v-9.5A3.25 3.25 0 0 1 6.75.5h9.5a3.25 3.25 0 0 1 3.25 3.25v9.5a3.25 3.25 0 0 1-3.25 3.25zM5 3.75C5 2.784 5.784 2 6.75 2h9.5c.966 0 1.75.784 1.75 1.75v9.5c0 .328-.09.634-.247.897l-7.775-8.43a2.227 2.227 0 0 0-3.333.066L5 7.713zm3.875 2.984 7.61 8.25Q16.37 15 16.25 15h-9.5A1.75 1.75 0 0 1 5 13.25v-3.224l2.787-3.27a.727.727 0 0 1 1.088-.022" clip-rule="evenodd"/><path fill="currentColor" d="M2 3.75a.75.75 0 0 0-1.5 0v12.5a3.25 3.25 0 0 0 3.25 3.25h12.5a.75.75 0 0 0 0-1.5H3.75A1.75 1.75 0 0 1 2 16.25z"/></svg>