<svg xmlns="http://www.w3.org/2000/svg" width="32" height="32" fill="none" data-fui-icon="true" viewBox="0 0 32 32"><path fill="currentColor" d="M24.333 4.25a3.417 3.417 0 0 1 3.417 3.417v16.666a3.417 3.417 0 0 1-3.417 3.417H7.667a3.417 3.417 0 0 1-3.417-3.417V7.667A3.417 3.417 0 0 1 7.667 4.25zM7.667 5.75A1.917 1.917 0 0 0 5.75 7.667v16.666c0 1.059.858 1.917 1.917 1.917h16.666a1.917 1.917 0 0 0 1.917-1.917V7.667a1.917 1.917 0 0 0-1.917-1.917zm5.786 12.138a.75.75 0 0 1 1.2.9l-2.496 3.327-.098.109a.75.75 0 0 1-.917.065l-1.5-1a.75.75 0 0 1 .832-1.248l.909.605zm8.214 1.362a.75.75 0 0 1 0 1.5h-3.334a.75.75 0 0 1 0-1.5zm-8.214-9.363a.75.75 0 1 1 1.2.9l-2.496 3.326-.6-.45v.001l.6.45a.75.75 0 0 1-1.015.174l-1.5-1a.75.75 0 0 1 .832-1.248l.909.606zm8.291 1.363a.75.75 0 0 1 0 1.5h-3.333a.75.75 0 0 1 0-1.5z"/></svg>