<svg xmlns="http://www.w3.org/2000/svg" width="32" height="32" fill="none" data-fui-icon="true" viewBox="0 0 32 32"><path fill="currentColor" d="M23.667 18.917a.75.75 0 0 1 .75.75v3.583H28a.75.75 0 0 1 0 1.5h-3.583v3.584a.75.75 0 0 1-1.5 0V24.75h-3.584a.75.75 0 0 1 0-1.5h3.584v-3.583a.75.75 0 0 1 .75-.75m-2-16a.75.75 0 0 1 .75.75v1.917h1.916A3.417 3.417 0 0 1 27.75 9v6a.75.75 0 0 1-1.5 0v-1.916H5.75v11.25c0 1.058.859 1.916 1.917 1.916H15a.75.75 0 0 1 0 1.5H7.667a3.417 3.417 0 0 1-3.417-3.416V9a3.417 3.417 0 0 1 3.417-3.416h1.916V3.667a.75.75 0 0 1 1.5 0v1.917h9.834V3.667a.75.75 0 0 1 .75-.75m-14 4.167A1.917 1.917 0 0 0 5.75 9v2.584h20.5V9a1.917 1.917 0 0 0-1.917-1.916z"/></svg>