<svg xmlns="http://www.w3.org/2000/svg" width="20" height="20" fill="none" data-fui-icon="true" viewBox="0 0 20 20"><path fill="currentColor" d="M13.03 10.97a.75.75 0 0 1 0 1.06l-3.5 3.5a.75.75 0 0 1-1.06 0l-1.5-1.5a.75.75 0 1 1 1.06-1.06l.97.97 2.97-2.97a.75.75 0 0 1 1.06 0"/><path fill="currentColor" fill-rule="evenodd" d="M.149 2.38C-.106 1.01 1.054 0 2.249 0h1.702c1.546 0 2.664 1.246 2.934 2.59a9.9 9.9 0 0 0 1.08 2.896c.164.292.316.526.436.698a7 7 0 0 1 3.198 0 9 9 0 0 0 .437-.698 9.9 9.9 0 0 0 1.08-2.897C13.384 1.246 14.501 0 16.048 0h1.701c1.196 0 2.356 1.01 2.101 2.38-.431 2.32-1.723 4.018-2.876 5.12-.542.52-1.061.913-1.461 1.187a7 7 0 1 1-11.028 0c-.4-.274-.919-.668-1.461-1.186C1.872 6.398.58 4.7.149 2.38m14.299 5.214.151-.1c.354-.236.835-.595 1.34-1.078 1.012-.968 2.082-2.399 2.438-4.31a.44.44 0 0 0-.123-.4.7.7 0 0 0-.504-.206h-1.701c-.663 0-1.298.562-1.463 1.385a11.4 11.4 0 0 1-1.53 3.816c.5.243.967.543 1.392.893m-7.79-1.37q.15.264.286.477c-.5.243-.967.544-1.392.893l-.152-.1a10 10 0 0 1-1.339-1.078C3.05 5.448 1.98 4.017 1.623 2.106a.44.44 0 0 1 .123-.4.7.7 0 0 1 .504-.206H3.95c.663 0 1.298.562 1.463 1.385.283 1.41.799 2.55 1.244 3.338M10 18.5a5.5 5.5 0 1 0 0-11 5.5 5.5 0 0 0 0 11" clip-rule="evenodd"/></svg>