<svg xmlns="http://www.w3.org/2000/svg" width="12" height="13" fill="none" data-fui-icon="true" viewBox="0 0 12 13"><path fill="currentColor" d="M8.626 6.214a1.943 1.943 0 1 1 2.748 2.748l-2.245 2.245a2.75 2.75 0 0 1-1.642.79l-.207.022a1.55 1.55 0 0 1-1.712-1.712l.023-.206c.069-.621.347-1.2.789-1.642zM4.669 6.5q.259 0 .51.028a.75.75 0 0 1-.164 1.49A3 3 0 0 0 4.669 8C2.933 8 1.5 9.44 1.5 11.25a.75.75 0 0 1-1.5 0C0 8.641 2.076 6.5 4.669 6.5m5.645.774a.443.443 0 0 0-.627 0L7.44 9.52c-.2.2-.327.464-.358.746l-.023.208a.05.05 0 0 0 .055.054l.207-.023c.282-.032.547-.158.747-.359l2.246-2.245a.444.444 0 0 0 0-.627M5 .25a2.75 2.75 0 1 1 0 5.5 2.75 2.75 0 0 1 0-5.5m0 1.5a1.25 1.25 0 1 0 0 2.5 1.25 1.25 0 0 0 0-2.5"/></svg>