<svg xmlns="http://www.w3.org/2000/svg" width="16" height="16" fill="none" data-fui-icon="true" viewBox="0 0 16 16"><path fill="currentColor" d="M12.245.195a.75.75 0 0 1 1.06.05l2.5 2.75c.26.286.26.724 0 1.01l-2.5 2.75a.75.75 0 0 1-1.11-1.01l1.36-1.495h-2.117c-.46 0-.886.25-1.11.653L8.608 8l1.72 3.097c.224.403.65.653 1.11.653h2.117l-1.36-1.495a.75.75 0 0 1 1.11-1.01l2.5 2.75c.26.286.26.724 0 1.01l-2.5 2.75a.75.75 0 0 1-1.11-1.01l1.36-1.495h-2.117a2.77 2.77 0 0 1-2.42-1.425L7.308 8.75H5.903A2.999 2.999 0 0 1 0 8a3 3 0 0 1 5.902-.75H7.31l1.709-3.075a2.77 2.77 0 0 1 2.42-1.425h2.117l-1.36-1.495a.75.75 0 0 1 .05-1.06M3 6.5a1.5 1.5 0 1 0 0 3 1.5 1.5 0 0 0 0-3"/></svg>