<svg xmlns="http://www.w3.org/2000/svg" width="20" height="20" fill="none" data-fui-icon="true" viewBox="0 0 20 20"><path fill="currentColor" d="M6.666 14.042a1.792 1.792 0 1 1 0 3.584 1.792 1.792 0 0 1 0-3.584m7.5 0a1.792 1.792 0 1 1 0 3.584 1.792 1.792 0 0 1 0-3.584m-7.5 1.5a.292.292 0 1 0 .002.584.292.292 0 0 0-.002-.584m7.5 0a.292.292 0 1 0 .002.584.292.292 0 0 0-.002-.584m-12.274-14a2 2 0 0 1 1.96 1.607l1.615 8.073a.92.92 0 0 0 .9.737h8.495a.92.92 0 0 0 .902-.751l1.207-6.552a.75.75 0 0 1 1.474.272l-1.207 6.552a2.42 2.42 0 0 1-2.376 1.979H6.366a2.42 2.42 0 0 1-2.37-1.943L2.382 3.444a.5.5 0 0 0-.49-.402h-.434a.75.75 0 0 1 0-1.5zM12.01 3.389a.75.75 0 1 1 1.06 1.06l-1.385 1.385 1.385 1.385a.75.75 0 0 1-1.06 1.06l-1.385-1.384L9.24 8.279a.75.75 0 0 1-1.06-1.06l1.384-1.385L8.18 4.449a.75.75 0 0 1 1.06-1.06l1.385 1.384z"/></svg>