<svg xmlns="http://www.w3.org/2000/svg" width="24" height="24" fill="none" data-fui-icon="true" viewBox="0 0 24 24"><path fill="currentColor" d="M14.5 1a2 2 0 0 1 2 2v3.226a2 2 0 0 1-1.607 1.96l-3.1.62A19 19 0 0 0 11.5 12c0 1.08.114 2.161.293 3.193l3.1.62a2 2 0 0 1 1.607 1.961V21a2 2 0 0 1-2 2h-3.523c-.84 0-1.696-.393-2.155-1.2C7.972 20.306 6.5 16.996 6.5 12s1.472-8.306 2.322-9.8c.46-.807 1.315-1.2 2.155-1.2zm-3.523 1.5c-.392 0-.7.178-.851.442C9.38 4.253 8 7.31 8 12s1.38 7.747 2.126 9.058c.15.264.459.442.85.442H14.5a.5.5 0 0 0 .5-.5v-3.226a.5.5 0 0 0-.402-.49L11 16.564a.75.75 0 0 1-.589-.59l-.088-.474A20.3 20.3 0 0 1 10 12c0-1.372.166-2.724.411-3.974a.75.75 0 0 1 .48-.56l.109-.03 3.598-.72a.5.5 0 0 0 .402-.49V3a.5.5 0 0 0-.5-.5z"/></svg>