<svg xmlns="http://www.w3.org/2000/svg" width="20" height="20" fill="none" data-fui-icon="true" viewBox="0 0 20 20"><path fill="currentColor" d="M14.688 1c.959 0 1.879.381 2.557 1.06l.695.695a3.617 3.617 0 0 1 0 5.115L7.78 18.03a.75.75 0 0 1-.428.213l-5.5.75a.75.75 0 0 1-.845-.845l.75-5.5a.75.75 0 0 1 .213-.428L12.13 2.06A3.62 3.62 0 0 1 14.687 1M3.209 13.1l-.583 4.273 4.272-.583 7.167-7.165-3.69-3.69zM14.688 2.5c-.562 0-1.1.223-1.498.62l-1.755 1.755 3.69 3.69L16.88 6.81a2.117 2.117 0 0 0 0-2.995l-.695-.695a2.12 2.12 0 0 0-1.497-.62"/></svg>