<svg xmlns="http://www.w3.org/2000/svg" width="32" height="32" fill="none" data-fui-icon="true" viewBox="0 0 32 32"><path stroke="currentColor" stroke-linecap="round" stroke-linejoin="round" stroke-width="1.5" d="M14.957 2.59c-2.381 3.274-6.8 5.008-9.147 5.736-.902.28-1.56 1.1-1.56 2.044V12c0 7.838 4.315 15.785 11.787 18.154q.295.095.463.096c.11 0 .267-.034.463-.096C24.435 27.785 28.75 19.838 28.75 12v-1.63c0-.944-.658-1.764-1.56-2.044-2.348-.728-6.766-2.462-9.146-5.737-.364-.5-.926-.839-1.544-.839s-1.18.339-1.543.84"/><path stroke="currentColor" stroke-linecap="round" stroke-linejoin="round" stroke-width="1.5" d="m10.75 16.25 4.25 4.5 8.25-8.5"/></svg>