<svg xmlns="http://www.w3.org/2000/svg" width="24" height="24" fill="none" data-fui-icon="true" viewBox="0 0 24 24"><path fill="currentColor" d="M12 0c1.971 0 3.495 0 4.714.1 1.228.102 2.213.31 3.093.764a7.75 7.75 0 0 1 3.329 3.33c.454.88.662 1.865.763 3.092C24 8.505 24 10.03 24 12s0 3.495-.1 4.714c-.102 1.228-.31 2.213-.764 3.093a7.75 7.75 0 0 1-3.33 3.329c-.88.454-1.864.662-3.092.763C15.495 24 13.97 24 12 24s-3.495 0-4.714-.1c-1.227-.102-2.213-.31-3.093-.764a7.75 7.75 0 0 1-3.329-3.33c-.454-.88-.662-1.864-.763-3.092C0 15.495 0 13.97 0 12s0-3.495.1-4.714C.203 6.06.41 5.073.865 4.193A7.75 7.75 0 0 1 4.194.864C5.073.41 6.058.202 7.285.101 8.505 0 10.03 0 12 0M7.25 8A3.25 3.25 0 0 0 4 11.25v1.499a3.25 3.25 0 0 0 3.25 3.25h.55a2.45 2.45 0 0 0 2.45-2.45v-.799c0-.69-.56-1.25-1.25-1.25H7.917a.75.75 0 0 0 0 1.5h.833v.549a.95.95 0 0 1-.95.95h-.55a1.75 1.75 0 0 1-1.75-1.75V11.25c0-.966.784-1.75 1.75-1.75h.038c.589 0 .963.236 1.198.465a1.8 1.8 0 0 1 .318.42q.008.015.008.02v-.002l.03.062a.75.75 0 0 0 1.375-.581l-.027-.072v-.003l-.002-.003q-.002-.004-.003-.01l-.044-.09a3.266 3.266 0 0 0-.608-.815c-.461-.45-1.195-.891-2.245-.891zm5.25 0a.75.75 0 0 0-.75.75v6.499a.75.75 0 0 0 1.5 0V8.75A.75.75 0 0 0 12.5 8m3.75 0C15.56 8 15 8.56 15 9.25v5.999a.75.75 0 0 0 1.5 0v-2.5h2.21a.75.75 0 0 0 0-1.5H16.5V9.5h2.747a.75.75 0 0 0 0-1.5z"/></svg>