<svg xmlns="http://www.w3.org/2000/svg" width="16" height="16" fill="none" data-fui-icon="true" viewBox="0 0 16 16"><path fill="currentColor" d="M9.96 1.089a.75.75 0 0 1 .689-.01l4.567 2.284a1.25 1.25 0 0 1 .577 1.639l-1.052 2.292a1.25 1.25 0 0 1-1.489.678L13 7.898v5.852c0 .69-.56 1.25-1.25 1.25h-7.5C3.56 15 3 14.44 3 13.75V7.898l-.25.074a1.25 1.25 0 0 1-1.49-.678L.208 5.002a1.25 1.25 0 0 1 .577-1.639L5.353 1.08l.083-.035a.75.75 0 0 1 .996.611q0 .01.007.035.01.054.04.159c.041.14.111.321.223.497C6.91 2.669 7.267 3 8 3S9.092 2.67 9.3 2.346a2 2 0 0 0 .264-.656l.005-.036.001-.004a.75.75 0 0 1 .39-.561m.792 1.719q-.08.17-.19.346C10.128 3.831 9.329 4.5 8 4.5s-2.127-.669-2.56-1.346a3 3 0 0 1-.192-.346L1.672 4.596l.86 1.876 1.006-.296a.75.75 0 0 1 .962.72V13.5h7V6.896a.752.752 0 0 1 .962-.72l1.006.296.86-1.876z"/></svg>