<svg xmlns="http://www.w3.org/2000/svg" width="24" height="24" fill="none" data-fui-icon="true" viewBox="0 0 24 24"><path fill="currentColor" d="M14.213 4.125a3.75 3.75 0 0 1 3.719 4.23L17.849 9h1.992c.994 0 1.904.562 2.349 1.452l1.094 2.19c.239.476.326 1.016.25 1.544l-.436 3.06a2.626 2.626 0 0 1-2.599 2.255h-.17a3.501 3.501 0 0 1-6.859 0h-2.94a3.501 3.501 0 0 1-6.88-.114 3.255 3.255 0 0 1-2.35-3.722l.256-1.414H1.2a.75.75 0 0 1 0-1.5h3.6a.75.75 0 0 1 0 1.5H3.08l-.305 1.682c-.147.806.28 1.564.963 1.894a3.501 3.501 0 0 1 6.77.173h2.984a3.5 3.5 0 0 1 1.993-2.402l.96-7.434a2.25 2.25 0 0 0-2.232-2.539H4.5a.75.75 0 0 1 0-1.5zM7.1 16.8a2 2 0 1 0 0 4 2 2 0 0 0 0-4m9.8 0a2 2 0 1 0 0 4 2 2 0 0 0 0-4m.134-1.497A3.5 3.5 0 0 1 20.307 18h.192c.56 0 1.034-.412 1.114-.965l.437-3.06a1.13 1.13 0 0 0-.107-.663l-1.095-2.19a1.13 1.13 0 0 0-1.007-.621h-2.187zM8.401 8.25a.75.75 0 0 1 0 1.5H1.2a.75.75 0 0 1 0-1.5z"/></svg>