<svg xmlns="http://www.w3.org/2000/svg" width="16" height="16" fill="none" data-fui-icon="true" viewBox="0 0 16 16"><path fill="currentColor" d="M12.167 1.75c1.15 0 2.083.933 2.083 2.083V7.5a.75.75 0 0 1-1.5 0V3.833a.583.583 0 0 0-.583-.583H3.833a.583.583 0 0 0-.583.583v8.334c0 .322.261.583.583.583h4.334a.75.75 0 0 1 0 1.5H3.833a2.083 2.083 0 0 1-2.083-2.083V3.833c0-1.15.933-2.083 2.083-2.083zm0 7a.75.75 0 0 1 .75.75v1.25h1.25a.75.75 0 0 1 0 1.5h-1.25v1.25a.75.75 0 0 1-1.5 0v-1.25h-1.25a.75.75 0 0 1 0-1.5h1.25V9.5a.75.75 0 0 1 .75-.75"/></svg>