<svg xmlns="http://www.w3.org/2000/svg" width="24" height="24" fill="none" data-fui-icon="true" viewBox="0 0 24 24"><path fill="currentColor" d="M11.47 13.97a.75.75 0 0 1 1.06 0l3.5 3.5a.75.75 0 1 1-1.06 1.06l-2.22-2.22v5.815a.75.75 0 0 1-1.5 0v-5.814l-2.22 2.22a.75.75 0 1 1-1.06-1.061zm8.78-2.72a.75.75 0 0 1 0 1.5H3.75a.75.75 0 0 1 0-1.5zM12 1.125a.75.75 0 0 1 .75.75v5.814l2.22-2.22a.75.75 0 1 1 1.06 1.061l-3.5 3.5a.75.75 0 0 1-1.06 0l-3.5-3.5a.75.75 0 1 1 1.06-1.06l2.22 2.22V1.874a.75.75 0 0 1 .75-.75"/></svg>