<svg xmlns="http://www.w3.org/2000/svg" width="24" height="24" fill="none" data-fui-icon="true" viewBox="0 0 24 24"><path fill="currentColor" d="M10.276 2.4c.773-1.313 2.674-1.313 3.447 0l9.814 16.685c.785 1.333-.177 3.015-1.723 3.015H2.184c-1.546 0-2.507-1.682-1.723-3.015zM12.2 8.005a3.75 3.75 0 1 1-.4 0c-2.231.057-3.969 1.056-5.203 2.143a11.6 11.6 0 0 0-2.198 2.641l-.133.226c-.21.37-.208.823.012 1.192.558.939 3.111 4.793 7.721 4.793s7.163-3.854 7.721-4.793c.22-.37.222-.821.012-1.192a11.6 11.6 0 0 0-2.33-2.867c-1.235-1.087-2.972-2.086-5.203-2.143M12 9.5a2.25 2.25 0 1 0 0 4.5 2.25 2.25 0 0 0 0-4.5"/></svg>