<svg xmlns="http://www.w3.org/2000/svg" width="16" height="16" fill="none" data-fui-icon="true" viewBox="0 0 16 16"><path fill="currentColor" d="M8 9.854c.199 0 .39.08.53.22l2.333 2.333a.75.75 0 1 1-1.06 1.06L8.75 12.416v2.773a.75.75 0 0 1-1.5 0v-2.773l-1.054 1.053a.75.75 0 0 1-1.06-1.06l2.334-2.334a.75.75 0 0 1 .53-.22m5.5-2.604a.75.75 0 0 1 0 1.5h-11a.75.75 0 0 1 0-1.5zM8 .063a.75.75 0 0 1 .75.75v2.772l1.054-1.053a.75.75 0 0 1 1.06 1.06L8.53 5.927a.75.75 0 0 1-1.06 0L5.137 3.593a.75.75 0 1 1 1.06-1.06L7.25 3.584V.813A.75.75 0 0 1 8 .063"/></svg>