<svg xmlns="http://www.w3.org/2000/svg" width="32" height="32" fill="none" data-fui-icon="true" viewBox="0 0 32 32"><path fill="currentColor" d="M30.72.22a.75.75 0 1 1 1.06 1.06l-30.5 30.5a.75.75 0 1 1-1.06-1.06zm-3.787 8.028c.543 1.786.742 3.51.81 4.758.06 1.117.43 2.168 1.13 2.94l.416.457a6.21 6.21 0 0 1 .09 8.253A6.82 6.82 0 0 1 24.236 27h-2.87c-.063 1.591-.714 2.84-1.7 3.692-1.022.884-2.36 1.308-3.67 1.308s-2.648-.424-3.67-1.308c-.986-.852-1.637-2.101-1.699-3.692H8.182l1.5-1.5h14.553a5.32 5.32 0 0 0 4.013-1.828 4.71 4.71 0 0 0-.07-6.26l-.414-.457c-.982-1.08-1.445-2.487-1.52-3.868a19.5 19.5 0 0 0-.532-3.618zM12.127 27c.059 1.158.528 1.994 1.179 2.558.712.616 1.688.942 2.69.942 1 0 1.976-.326 2.689-.942.65-.564 1.12-1.4 1.178-2.558zm3.874-27c4.278 0 7.054 1.711 8.815 4.001l-1.073 1.073C22.253 3.051 19.88 1.5 16.001 1.5c-4.346 0-6.808 1.945-8.247 4.323-1.47 2.43-1.895 5.359-1.998 7.264-.075 1.381-.537 2.788-1.52 3.868l-.415.457a4.71 4.71 0 0 0-.07 6.26q.33.375.715.68l-1.067 1.066a7 7 0 0 1-.779-.762 6.21 6.21 0 0 1 .09-8.254l.417-.457c.7-.77 1.07-1.822 1.13-2.94.109-1.997.554-5.218 2.214-7.96C8.162 2.253 11.093 0 16 0"/></svg>