<svg xmlns="http://www.w3.org/2000/svg" width="16" height="16" fill="none" data-fui-icon="true" viewBox="0 0 16 16"><path fill="currentColor" d="M7.34 1.262c.428-.142.892-.142 1.32 0l4.165 1.39a2.08 2.08 0 0 1 1.425 1.976v3.314c0 1.908-.83 3.318-1.983 4.413-1.126 1.069-2.593 1.866-3.91 2.577a.75.75 0 0 1-.713 0c-1.318-.71-2.785-1.508-3.91-2.577C2.578 11.26 1.75 9.85 1.75 7.942V4.628c0-.896.574-1.692 1.425-1.976zm.845 1.424a.6.6 0 0 0-.37 0L3.648 4.075a.58.58 0 0 0-.398.553v3.314c0 1.406.588 2.444 1.517 3.325.872.827 2.017 1.487 3.233 2.149 1.216-.662 2.361-1.322 3.233-2.149.93-.881 1.517-1.919 1.517-3.325V4.628c0-.25-.16-.474-.398-.553zm1.118 3.117a.75.75 0 0 1 1.06 1.06l-2.5 2.5a.75.75 0 0 1-1.06 0L5.637 8.199a.751.751 0 0 1 1.06-1.062l.636.636z"/></svg>