<svg xmlns="http://www.w3.org/2000/svg" width="16" height="16" fill="none" data-fui-icon="true" viewBox="0 0 16 16"><path fill="currentColor" d="M2 9.858a.75.75 0 0 1 .75.75V11A2.25 2.25 0 0 0 5 13.25h.6a.75.75 0 0 1 0 1.5H5A3.75 3.75 0 0 1 1.25 11v-.392a.75.75 0 0 1 .75-.75m12 0a.75.75 0 0 1 .75.75V11A3.75 3.75 0 0 1 11 14.75h-.6a.75.75 0 0 1 0-1.5h.6A2.25 2.25 0 0 0 13.25 11v-.392a.75.75 0 0 1 .75-.75M5.6 1.25a.75.75 0 0 1 0 1.5H5A2.25 2.25 0 0 0 2.75 5v.392a.75.75 0 0 1-1.5 0V5A3.75 3.75 0 0 1 5 1.25zm5.4 0A3.75 3.75 0 0 1 14.75 5v.392a.75.75 0 0 1-1.5 0V5A2.25 2.25 0 0 0 11 2.75h-.6a.75.75 0 1 1 0-1.5z"/></svg>