<svg xmlns="http://www.w3.org/2000/svg" width="32" height="32" fill="none" data-fui-icon="true" viewBox="0 0 32 32"><g clip-path="url(#a)"><path fill="currentColor" d="M26.285.25a5.465 5.465 0 0 1 5.465 5.465v20.57a5.465 5.465 0 0 1-5.465 5.465H5.715A5.465 5.465 0 0 1 .25 26.285V5.715A5.465 5.465 0 0 1 5.715.25zM1.75 26.285a3.965 3.965 0 0 0 3.965 3.965h20.57a3.965 3.965 0 0 0 3.965-3.965V19.75h-8.315c-.39 2.828-2.945 5-5.935 5s-5.545-2.172-5.935-5H1.75zM5.715 1.75A3.965 3.965 0 0 0 1.75 5.715V18.25h9.012a.75.75 0 0 1 .75.75c0 2.291 2 4.25 4.488 4.25 2.487 0 4.488-1.959 4.488-4.25a.75.75 0 0 1 .75-.75h9.012V5.715a3.965 3.965 0 0 0-3.965-3.965z"/></g><defs><clipPath id="a"><path fill="currentColor" d="M0 0h32v32H0z"/></clipPath></defs></svg>