<svg xmlns="http://www.w3.org/2000/svg" width="24" height="24" fill="none" data-fui-icon="true" viewBox="0 0 24 24"><path fill="currentColor" d="M8.5 13a2.5 2.5 0 0 1 2.5 2.5v3A2.5 2.5 0 0 1 8.5 21h-3A2.5 2.5 0 0 1 3 18.5v-3A2.5 2.5 0 0 1 5.5 13zm10 0a2.5 2.5 0 0 1 2.5 2.5v3a2.5 2.5 0 0 1-2.5 2.5h-3a2.5 2.5 0 0 1-2.5-2.5v-3a2.5 2.5 0 0 1 2.5-2.5zm-13 1.5a1 1 0 0 0-1 1v3a1 1 0 0 0 1 1h3a1 1 0 0 0 1-1v-3a1 1 0 0 0-1-1zm10 0a1 1 0 0 0-1 1v3a1 1 0 0 0 1 1h3a1 1 0 0 0 1-1v-3a1 1 0 0 0-1-1zM8.5 3A2.5 2.5 0 0 1 11 5.5v3A2.5 2.5 0 0 1 8.5 11h-3A2.5 2.5 0 0 1 3 8.5v-3A2.5 2.5 0 0 1 5.5 3zm10 0A2.5 2.5 0 0 1 21 5.5v3a2.5 2.5 0 0 1-2.5 2.5h-3A2.5 2.5 0 0 1 13 8.5v-3A2.5 2.5 0 0 1 15.5 3zm-13 1.5a1 1 0 0 0-1 1v3a1 1 0 0 0 1 1h3a1 1 0 0 0 1-1v-3a1 1 0 0 0-1-1zm10 0a1 1 0 0 0-1 1v3a1 1 0 0 0 1 1h3a1 1 0 0 0 1-1v-3a1 1 0 0 0-1-1z"/></svg>