<svg xmlns="http://www.w3.org/2000/svg" width="20" height="20" fill="none" data-fui-icon="true" viewBox="0 0 20 20"><path fill="currentColor" d="M16.72 2.22a.75.75 0 0 1 1.06 1.06l-4.472 4.471a4 4 0 0 1-5.557 5.557L3.28 17.78a.75.75 0 0 1-1.06-1.06l4.471-4.473a4 4 0 0 1 5.556-5.556zm-.29 3.827a.75.75 0 0 1 1.058.08 20.3 20.3 0 0 1 2.364 3.408.97.97 0 0 1 0 .93 20.2 20.2 0 0 1-2.963 4.07C15.245 16.261 12.884 18 10 18c-1.204 0-2.32-.305-3.325-.782a.75.75 0 0 1 .643-1.356c.84.4 1.737.638 2.683.638 2.27 0 4.262-1.38 5.804-2.999 1.314-1.38 2.215-2.85 2.587-3.502a19 19 0 0 0-2.04-2.895.75.75 0 0 1 .08-1.057M10 2c1.205 0 2.32.305 3.326.782a.751.751 0 0 1-.644 1.356c-.84-.4-1.736-.638-2.682-.638-2.27 0-4.261 1.38-5.803 2.999C2.882 7.879 1.981 9.347 1.608 10c.318.557 1.022 1.71 2.041 2.896a.75.75 0 0 1-1.138.977 20.3 20.3 0 0 1-2.364-3.408.97.97 0 0 1 0-.93l.34-.593c.48-.804 1.38-2.171 2.624-3.477C4.755 3.739 7.116 2 10 2M8.844 12.215a2.5 2.5 0 0 0 3.37-3.37zM10 7.5a2.5 2.5 0 0 0-2.216 3.654l3.371-3.37A2.5 2.5 0 0 0 10 7.5"/></svg>