<svg xmlns="http://www.w3.org/2000/svg" width="20" height="20" fill="none" data-fui-icon="true" viewBox="0 0 20 20"><path fill="currentColor" d="M9.676 18.458a2.42 2.42 0 0 0 2.391-2.79l-.344-2.21h3.493a3.25 3.25 0 0 0 3.213-3.74l-.698-4.582a3.25 3.25 0 0 0-3.212-2.761H3.125c-.874 0-1.583.709-1.583 1.583v6.25c0 .874.709 1.583 1.583 1.583h2.15L8.268 17.6l1.333-.687-3.226-6.262V3.875h8.144c.864 0 1.6.632 1.73 1.486l.697 4.583a1.75 1.75 0 0 1-1.73 2.014h-4.37a.752.752 0 0 0-.74.865l.74-.115v.001l-.74.114.48 3.077a.92.92 0 0 1-.91 1.058.08.08 0 0 1-.074-.045l-1.334.687c.271.528.816.858 1.408.858m-6.551-8.167a.083.083 0 0 1-.083-.083v-6.25c0-.046.037-.083.083-.083h1.75v6.416z"/></svg>