<svg xmlns="http://www.w3.org/2000/svg" width="20" height="20" fill="none" data-fui-icon="true" viewBox="0 0 20 20"><path fill="currentColor" d="M10.313 2.688a4.5 4.5 0 0 1 4.159 2.783l1.16-1.059c1.124-1.024 2.93-.228 2.93 1.292v8.59c0 1.522-1.806 2.318-2.93 1.293l-1.16-1.06a4.5 4.5 0 0 1-4.16 2.786H5.939a4.5 4.5 0 0 1-4.5-4.5V7.187a4.5 4.5 0 0 1 4.5-4.5zm-4.376 1.5a3 3 0 0 0-3 3v5.625l.004.154a3 3 0 0 0 2.997 2.845h4.375a3 3 0 0 0 2.977-2.647l.023-.115c.137-.52.764-.791 1.236-.47l.099.077 1.997 1.822a.25.25 0 0 0 .418-.184v-8.59a.25.25 0 0 0-.418-.185l-1.997 1.822c-.51.465-1.284.124-1.358-.508a3 3 0 0 0-2.977-2.646z"/></svg>