<svg xmlns="http://www.w3.org/2000/svg" width="20" height="20" fill="none" data-fui-icon="true" viewBox="0 0 20 20"><path fill="currentColor" d="M8.4 3.54q.112.204.215.415a13 13 0 0 1 2.765 0q.104-.21.218-.415l.258-.464.522.089c1.054.18 2.084.48 3.07.895l.42.184.189.087.117.172c1.901 2.795 2.855 5.97 2.505 9.622l-.032.331-.268.2c-1.293.96-2.74 1.69-4.28 2.156l-.506.154-.315-.425q-.488-.661-.869-1.39a10.2 10.2 0 0 1-4.822-.002q-.38.73-.867 1.392l-.316.426-.506-.154a14 14 0 0 1-4.277-2.16l-.268-.198-.032-.333c-.298-3.147.305-6.352 2.496-9.612l.119-.176.191-.088a14 14 0 0 1 3.49-1.081l.524-.09zm4.12 1.523-.228.534-.574-.087c-1.14-.173-2.3-.173-3.44 0l-.574.087-.227-.535a9 9 0 0 0-.144-.313c-.818.177-1.617.437-2.385.774-1.813 2.774-2.351 5.46-2.16 8.12a12.5 12.5 0 0 0 3.03 1.564q.052-.08.103-.16a9 9 0 0 1-.686-.368l-.978-.58.919-.671q.157-.116.32-.24l.363-.282.415.196a8.72 8.72 0 0 0 7.453 0l.428-.202.368.301q.147.12.282.213l.973.664-1.013.6a9 9 0 0 1-.69.37l.104.16a12.5 12.5 0 0 0 3.031-1.563c.221-3.06-.578-5.726-2.162-8.124a12.4 12.4 0 0 0-2.386-.773 9 9 0 0 0-.142.314M7.34 8.998c.81 0 1.457.726 1.443 1.611-.014.886-.635 1.606-1.44 1.606-.788 0-1.44-.72-1.44-1.606 0-.885.629-1.611 1.438-1.611m5.32 0c.81 0 1.451.726 1.438 1.611-.014.886-.635 1.606-1.439 1.606-.79 0-1.44-.72-1.44-1.606.001-.885.63-1.611 1.44-1.611"/></svg>