<svg xmlns="http://www.w3.org/2000/svg" width="32" height="32" fill="none" data-fui-icon="true" viewBox="0 0 32 32"><path fill="currentColor" d="M2.97 2.97a.75.75 0 0 1 1.049-.01L29.04 27.98a.75.75 0 0 1-1.07 1.05l-4.976-4.975c-.24-.24-.645-.176-.83.109A6.73 6.73 0 0 1 16.5 27.25h-7a6.75 6.75 0 0 1-6.741-6.402L2.75 20.5v-9c0-1.904.79-3.625 2.058-4.852a.533.533 0 0 0 .022-.757L2.97 4.03a.75.75 0 0 1 0-1.06M6.6 7.66a.47.47 0 0 0-.649-.027A5.24 5.24 0 0 0 4.25 11.5v9l.007.27A5.25 5.25 0 0 0 9.5 25.75h7a5.24 5.24 0 0 0 4.745-3.012.47.47 0 0 0-.102-.534zm9.9-2.91a6.75 6.75 0 0 1 6.183 4.05c.147.336.588.457.86.209l1.772-1.617c1.509-1.377 3.934-.307 3.935 1.735v13.745a2.3 2.3 0 0 1-.852 1.812c-.176.143-.427.107-.587-.053l-.067-.067c-.313-.313-.076-1.112-.005-1.55a1 1 0 0 0 .011-.142V9.127a.85.85 0 0 0-1.423-.628l-3.194 2.916c-.533.486-1.344.13-1.422-.532A5.25 5.25 0 0 0 16.5 6.25h-7a.16.16 0 0 1-.117-.047l-.651-.651c-.28-.28-.136-.752.259-.782q.252-.02.509-.02z"/></svg>