<svg xmlns="http://www.w3.org/2000/svg" width="20" height="20" fill="none" data-fui-icon="true" viewBox="0 0 20 20"><path fill="currentColor" d="M15.68 1A3.32 3.32 0 0 1 19 4.32v11.36A3.32 3.32 0 0 1 15.68 19H4.32A3.32 3.32 0 0 1 1 15.68V4.32A3.32 3.32 0 0 1 4.32 1zM4.32 2.5A1.82 1.82 0 0 0 2.5 4.32v11.36a1.82 1.82 0 0 0 1.82 1.82h11.36a1.82 1.82 0 0 0 1.82-1.82V4.32a1.82 1.82 0 0 0-1.82-1.82zM10 8a.75.75 0 0 1 .75.75v4.75h1.5a.75.75 0 0 1 0 1.5h-4.5a.75.75 0 0 1 0-1.5h1.5v-4h-1.5a.75.75 0 0 1 0-1.5zm0-2.996a1 1 0 1 1 0 2 1 1 0 0 1 0-2"/></svg>