<svg xmlns="http://www.w3.org/2000/svg" width="24" height="24" fill="none" data-fui-icon="true" viewBox="0 0 24 24"><path fill="currentColor" d="M17.75 14a.75.75 0 0 1 .75.75v2.5H21a.75.75 0 0 1 0 1.5h-2.5v2.5a.75.75 0 0 1-1.5 0v-2.5h-2.5a.75.75 0 0 1 0-1.5H17v-2.5a.75.75 0 0 1 .75-.75m-1.5-12a.75.75 0 0 1 .75.75V4h1.25A2.75 2.75 0 0 1 21 6.75v4.5a.75.75 0 0 1-1.5 0V10h-15v8.25c0 .69.56 1.25 1.25 1.25h5.5a.75.75 0 0 1 0 1.5h-5.5A2.75 2.75 0 0 1 3 18.25V6.75A2.75 2.75 0 0 1 5.75 4H7V2.75a.75.75 0 0 1 1.5 0V4h7V2.75a.75.75 0 0 1 .75-.75M5.75 5.5c-.69 0-1.25.56-1.25 1.25V8.5h15V6.75c0-.69-.56-1.25-1.25-1.25z"/></svg>