<svg xmlns="http://www.w3.org/2000/svg" width="16" height="16" fill="none" data-fui-icon="true" viewBox="0 0 16 16"><path fill="currentColor" d="M1.22 1.22a.75.75 0 0 1 1.06 0l12.5 12.5a.75.75 0 0 1-1.06 1.06l-2.177-2.177a.252.252 0 0 0-.423.114c-.407 1.526-2.314 2.037-3.43.92l-1.907-1.905a.3.3 0 0 0-.424 0l-2.086 2.086a.75.75 0 0 1-1.06-1.06l2.086-2.086a.3.3 0 0 0 0-.424L2.393 8.342c-1.117-1.117-.605-3.024.92-3.43a.253.253 0 0 0 .114-.424L1.22 2.28a.75.75 0 0 1 0-1.06M3.7 6.36a.55.55 0 0 0-.247.921l5.297 5.296c.3.3.81.163.92-.246l.292-1.096a.3.3 0 0 0-.077-.29l-4.8-4.8a.3.3 0 0 0-.29-.077zm4.841-4.527c.8-.8 2.099-.8 2.9 0l2.757 2.758c.8.8.8 2.098 0 2.898l-1.562 1.562a.3.3 0 0 1-.424 0l-.636-.637a.3.3 0 0 1 0-.424l1.562-1.561a.55.55 0 0 0 0-.778l-2.76-2.757a.55.55 0 0 0-.776 0L8.04 4.454a.3.3 0 0 1-.424 0L6.98 3.82a.3.3 0 0 1 0-.425z"/></svg>