<svg xmlns="http://www.w3.org/2000/svg" width="12" height="12" fill="none" data-fui-icon="true" viewBox="0 0 12 12"><path fill="currentColor" d="M1.5 7.206a.75.75 0 0 1 .75.75v.294a1.5 1.5 0 0 0 1.5 1.5h.45a.75.75 0 0 1 0 1.5h-.45a3 3 0 0 1-3-3v-.294a.75.75 0 0 1 .75-.75m9 0a.75.75 0 0 1 .75.75v.294a3 3 0 0 1-3 3H7.8a.75.75 0 0 1 0-1.5h.45a1.5 1.5 0 0 0 1.5-1.5v-.294a.75.75 0 0 1 .75-.75M4.2.75a.75.75 0 0 1 0 1.5h-.45a1.5 1.5 0 0 0-1.5 1.5v.294a.75.75 0 0 1-1.5 0V3.75a3 3 0 0 1 3-3zm4.05 0a3 3 0 0 1 3 3v.294a.75.75 0 0 1-1.5 0V3.75a1.5 1.5 0 0 0-1.5-1.5H7.8a.75.75 0 0 1 0-1.5z"/></svg>