<svg xmlns="http://www.w3.org/2000/svg" width="20" height="20" fill="none" data-fui-icon="true" viewBox="0 0 20 20"><path fill="currentColor" d="M9.935 1.542c.56 0 1.1.195 1.53.547l.179.161 4.44 4.44h-.001c.453.454.708 1.068.708 1.71v7.642a2.417 2.417 0 0 1-2.416 2.417h-8.75a2.42 2.42 0 0 1-2.417-2.417V3.959a2.42 2.42 0 0 1 2.417-2.417zm-4.31 1.5a.92.92 0 0 0-.917.917v12.083c0 .506.411.917.917.917h8.75a.917.917 0 0 0 .916-.917V8.459h-3a2.417 2.417 0 0 1-2.416-2.417v-3zm7.508 10.27a.75.75 0 0 1 0 1.5H6.867a.75.75 0 0 1 0-1.5zM10.578 9.89a.75.75 0 0 1 0 1.5h-3.71a.75.75 0 0 1 0-1.5zm.797-3.847c0 .506.41.917.916.917h1.94l-2.856-2.855z"/></svg>