<svg xmlns="http://www.w3.org/2000/svg" width="16" height="16" fill="none" data-fui-icon="true" viewBox="0 0 16 16"><path fill="currentColor" d="M12.39 1.5A2.61 2.61 0 0 1 15 4.11v2.14a.75.75 0 0 1-1.5 0v-.342L9.397 8.671a3.4 3.4 0 0 1-3.794 0L1.5 5.908v4.982c0 .613.497 1.11 1.11 1.11h7.89a.75.75 0 0 1 0 1.5H2.61A2.61 2.61 0 0 1 0 10.89V4.11A2.61 2.61 0 0 1 2.61 1.5zm.065 6.11a.75.75 0 0 1 1.06-.03l2.25 2.125.006.008a1 1 0 0 1 .093.108l.017.028q.031.047.054.098l.011.028a.75.75 0 0 1 0 .55q-.003.011-.008.022a1 1 0 0 1-.057.103q-.008.014-.017.027a1 1 0 0 1-.093.11l-.006.008-2.25 2.125a.75.75 0 1 1-1.03-1.09l.88-.83H10a.75.75 0 0 1 0-1.5h3.364l-.879-.83a.75.75 0 0 1-.03-1.06M2.61 3A1.11 1.11 0 0 0 1.5 4.1l4.94 3.327a1.9 1.9 0 0 0 2.12 0L13.499 4.1A1.11 1.11 0 0 0 12.389 3z"/></svg>