<svg xmlns="http://www.w3.org/2000/svg" width="16" height="16" fill="none" data-fui-icon="true" viewBox="0 0 16 16"><path fill="currentColor" d="M14.222 3.113c.245 0 .445.2.445.445v8.889c0 .244-.2.444-.445.444H1.778a.446.446 0 0 1-.445-.444v-8.89c0-.244.2-.444.445-.444zM1.778 1.78A1.78 1.78 0 0 0 0 3.558v8.889c0 .98.797 1.777 1.778 1.777h12.444A1.78 1.78 0 0 0 16 12.447v-8.89a1.78 1.78 0 0 0-1.778-1.777zm3.778 4.889c.394 0 .75.17.994.444a.667.667 0 0 0 .994-.889 2.667 2.667 0 1 0-1.986 4.444c.79 0 1.5-.344 1.986-.888a.668.668 0 0 0-.994-.889 1.334 1.334 0 1 1-.994-2.222m4 1.333a1.334 1.334 0 0 1 2.327-.889.667.667 0 0 0 .995-.889 2.667 2.667 0 1 0-1.986 4.444c.789 0 1.5-.344 1.986-.888a.668.668 0 0 0-.995-.889 1.334 1.334 0 0 1-2.328-.889"/></svg>