<svg xmlns="http://www.w3.org/2000/svg" width="24" height="24" fill="none" data-fui-icon="true" viewBox="0 0 24 24"><path fill="currentColor" d="M18.242 14.25c.108 0 .208.057.257.153.33.636.504 1.383.504 2.251 0 2.513-2.382 5.404-6.983 5.405-2.391 0-4.039-.744-5.147-1.715a6.33 6.33 0 0 1-1.837-2.8.75.75 0 1 1 1.428-.458 4.83 4.83 0 0 0 1.398 2.129c.816.714 2.104 1.344 4.158 1.344 3.942 0 5.483-2.38 5.483-3.905 0-.756-.168-1.307-.425-1.725l-.036-.058c-.155-.236-.006-.621.277-.621zM12.02 1.94c4.82 0 6.638 2.901 6.967 4.475a.75.75 0 0 1-1.468.307c-.193-.92-1.43-3.282-5.5-3.283-3.943 0-5.487 2.382-5.487 3.906 0 .756.168 1.306.425 1.724.259.421.64.759 1.14 1.04 1.02.57 2.41.844 3.97 1.136a.3.3 0 0 0 .056.005H23.25a.75.75 0 0 1 .077 1.496l-.077.004H.75a.75.75 0 0 1 0-1.5h5.306c.3 0 .438-.427.225-.638a4 4 0 0 1-.601-.757c-.425-.69-.648-1.522-.648-2.51 0-2.514 2.387-5.406 6.988-5.406"/></svg>