<svg xmlns="http://www.w3.org/2000/svg" width="24" height="24" fill="none" data-fui-icon="true" viewBox="0 0 24 24"><path fill="currentColor" d="M12 4.553c1.64-1.388 3.534-1.8 5.253-1.416 1.89.422 3.498 1.792 4.265 3.709 1.569 3.921-.431 9.66-9.15 14.558a.75.75 0 0 1-.735 0C2.913 16.505.914 10.767 2.483 6.846c.767-1.918 2.375-3.287 4.265-3.71 1.718-.383 3.612.03 5.253 1.417m4.926.048c-1.37-.307-2.977.06-4.39 1.497L12 5.57l-.536.527C10.052 4.66 8.445 4.295 7.075 4.6c-1.39.31-2.61 1.327-3.2 2.802-1.128 2.82-.01 7.783 8.125 12.48 8.135-4.697 9.254-9.66 8.125-12.48-.59-1.475-1.81-2.491-3.199-2.802m-4.39 1.497a.75.75 0 0 1-1.07 0L12 5.572z"/></svg>