<svg xmlns="http://www.w3.org/2000/svg" width="24" height="24" fill="none" data-fui-icon="true" viewBox="0 0 24 24"><path fill="currentColor" d="M12 1c.736 0 1.45.25 2.024.71l7.944 6.353A2.75 2.75 0 0 1 23 10.211V21.25A1.75 1.75 0 0 1 21.25 23h-4a1.75 1.75 0 0 1-1.75-1.75V17.5a3.5 3.5 0 1 0-7 0v3.75A1.75 1.75 0 0 1 6.75 23h-4A1.75 1.75 0 0 1 1 21.25V10.21c0-.834.38-1.625 1.032-2.147L9.976 1.71A3.24 3.24 0 0 1 12 1m0 1.5c-.395 0-.78.135-1.088.382L2.97 9.235a1.25 1.25 0 0 0-.469.976V21.25c0 .138.112.25.25.25h4a.25.25 0 0 0 .25-.25V17.5a5 5 0 0 1 10 0v3.75c0 .138.112.25.25.25h4a.25.25 0 0 0 .25-.25V10.21c0-.379-.172-.738-.469-.975l-7.943-6.353A1.74 1.74 0 0 0 12 2.5"/></svg>