<svg xmlns="http://www.w3.org/2000/svg" width="16" height="16" fill="none" data-fui-icon="true" viewBox="0 0 16 16"><path stroke="currentColor" stroke-width="1.5" d="M13.47 2.672c.602.186 1.076.734 1.237 1.431C15 5.365 15 8 15 8s0 2.635-.293 3.897c-.161.697-.635 1.245-1.238 1.431-1.09.339-5.469.339-5.469.339s-4.378 0-5.47-.339c-.602-.186-1.076-.734-1.237-1.431C1 10.635 1 8 1 8s0-2.635.293-3.897c.161-.697.635-1.245 1.237-1.431C3.622 2.333 8 2.333 8 2.333s4.378 0 5.47.339Zm-3.378 5.184a.167.167 0 0 1 0 .289l-3.31 1.91a.167.167 0 0 1-.25-.144V6.09c0-.128.139-.208.25-.144z" clip-rule="evenodd"/></svg>