<svg xmlns="http://www.w3.org/2000/svg" width="20" height="20" fill="none" data-fui-icon="true" viewBox="0 0 20 20"><path fill="currentColor" d="M10.537 2.39a2.55 2.55 0 0 1 3.605 0l3.466 3.466a2.55 2.55 0 0 1 0 3.605l-2.883 2.883a1.25 1.25 0 0 0-.311.518l-1.01 3.292c-.564 1.838-2.882 2.415-4.241 1.055l-2.656-2.656-2.873 2.872a.75.75 0 1 1-1.061-1.06l2.872-2.872-2.656-2.658c-1.36-1.36-.782-3.677 1.055-4.24l3.292-1.01c.196-.06.374-.167.518-.311zm2.545 1.062a1.05 1.05 0 0 0-1.485 0L8.715 6.334a2.75 2.75 0 0 1-1.138.685l-3.293 1.01a1.05 1.05 0 0 0-.435 1.746l6.374 6.374a1.05 1.05 0 0 0 1.746-.435l1.01-3.292c.132-.43.367-.82.685-1.138L16.548 8.4a1.05 1.05 0 0 0 0-1.485z"/></svg>