<svg xmlns="http://www.w3.org/2000/svg" width="16" height="16" fill="none" data-fui-icon="true" viewBox="0 0 16 16"><path fill="currentColor" d="M8 0a2.5 2.5 0 0 1 1.581.563l5.158 4.21c.482.393.761.982.761 1.604v7.213A1.41 1.41 0 0 1 14.09 15h-2.68A1.41 1.41 0 0 1 10 13.59V11a2 2 0 0 0-4 0v2.59A1.41 1.41 0 0 1 4.59 15H1.91A1.41 1.41 0 0 1 .5 13.59V6.377c0-.622.28-1.211.76-1.605L6.42.563A2.5 2.5 0 0 1 8 0m0 1.5c-.23 0-.454.08-.633.226L2.21 5.935a.57.57 0 0 0-.21.442V13.5h2.5V11a3.5 3.5 0 0 1 7 0v2.5H14V6.377a.57.57 0 0 0-.21-.442l-5.157-4.21A1 1 0 0 0 8 1.5"/></svg>