<svg xmlns="http://www.w3.org/2000/svg" width="20" height="20" fill="none" data-fui-icon="true" viewBox="0 0 20 20"><path stroke="currentColor" stroke-width="1.5" d="M3.1 9.081q6.444-2.798 8.591-3.689c4.093-1.696 4.943-1.99 5.498-2 .122-.003.393.027.57.17.148.12.19.284.21.398s.044.375.023.578c-.22 2.322-1.18 7.958-1.669 10.559-.205 1.1-.612 1.47-1.006 1.505-.856.079-1.505-.563-2.334-1.105-1.296-.847-2.028-1.374-3.288-2.201-1.455-.956-.51-1.481.318-2.34.216-.224 3.987-3.642 4.059-3.952.009-.039.018-.183-.07-.26-.085-.076-.211-.05-.303-.029-.132.03-2.201 1.394-6.216 4.094q-.88.605-1.598.589c-.525-.011-1.537-.297-2.29-.54-.921-.3-1.656-.458-1.591-.965q.049-.397 1.096-.812Z"/></svg>