<svg xmlns="http://www.w3.org/2000/svg" width="24" height="24" fill="none" data-fui-icon="true" viewBox="0 0 24 24"><path fill="currentColor" d="M13.526 3.553a.75.75 0 0 1 1.448.394l-4.5 16.5a.75.75 0 0 1-1.448-.394zM5.203 7.236a.75.75 0 0 1 1.093 1.028l-2.71 2.88a1.25 1.25 0 0 0 0 1.712l2.71 2.88a.75.75 0 1 1-1.093 1.027l-2.71-2.878a2.75 2.75 0 0 1 0-3.77zm12.532-.032a.75.75 0 0 1 1.06.032l2.71 2.88a2.75 2.75 0 0 1 0 3.769l-2.71 2.879a.75.75 0 0 1-1.092-1.028l2.71-2.88a1.25 1.25 0 0 0 0-1.713l-2.71-2.88a.75.75 0 0 1 .032-1.059"/></svg>