<svg xmlns="http://www.w3.org/2000/svg" width="32" height="32" fill="none" data-fui-icon="true" viewBox="0 0 32 32"><path fill="currentColor" d="M3.925 14.392Q15.2 9.496 18.96 7.937c7.163-2.97 8.65-3.485 9.62-3.502.214-.004.69.049 1 .3.257.21.33.495.366.695.032.2.077.656.04 1.012-.386 4.063-2.066 13.925-2.92 18.477-.359 1.926-1.072 2.572-1.761 2.635-1.499.137-2.635-.987-4.085-1.934-2.268-1.483-3.55-2.406-5.753-3.853-2.546-1.672-.895-2.59.556-4.093.378-.393 6.977-6.374 7.102-6.917.017-.068.033-.32-.12-.454-.15-.134-.371-.088-.532-.052-.23.052-3.852 2.44-10.878 7.165q-1.54 1.057-2.796 1.03c-.918-.02-2.69-.519-4.008-.945-1.612-.523-2.897-.8-2.784-1.689q.085-.694 1.918-1.42"/></svg>