<svg xmlns="http://www.w3.org/2000/svg" width="20" height="20" fill="none" data-fui-icon="true" viewBox="0 0 20 20"><path fill="currentColor" d="M16 13a.75.75 0 0 1 .75.75v1.5h1.5a.75.75 0 0 1 0 1.5h-1.5v1.5a.75.75 0 0 1-1.5 0v-1.5h-1.5a.75.75 0 0 1 0-1.5h1.5v-1.5A.75.75 0 0 1 16 13M4.751 7.438A.75.75 0 1 1 5.811 8.5l-2.84 2.84A3.317 3.317 0 0 0 5.316 17c.88 0 1.723-.35 2.345-.972l2.841-2.84a.75.75 0 1 1 1.06 1.061l-2.84 2.84a4.817 4.817 0 0 1-6.81-6.81zM12.22 5.72a.75.75 0 1 1 1.06 1.06l-6.5 6.5a.75.75 0 1 1-1.06-1.06zM13.685.5a4.816 4.816 0 0 1 3.405 8.222l-2.841 2.84a.75.75 0 1 1-1.06-1.061l2.84-2.84a3.316 3.316 0 1 0-4.69-4.69L8.5 5.812a.75.75 0 1 1-1.06-1.06l2.84-2.84A4.82 4.82 0 0 1 13.684.5"/></svg>