<svg xmlns="http://www.w3.org/2000/svg" width="20" height="20" fill="none" data-fui-icon="true" viewBox="0 0 20 20"><path fill="currentColor" d="M6.948 1.535a.752.752 0 0 1 .973.62v-.001l.001.005.009.049c.01.047.025.12.052.209.053.18.145.416.292.645.276.432.76.871 1.716.871.957 0 1.44-.44 1.716-.87a2.6 2.6 0 0 0 .344-.855l.01-.05v-.003a.75.75 0 0 1 1.055-.588l6.032 2.741a1.45 1.45 0 0 1 .695 1.971l-1.315 2.62a1.45 1.45 0 0 1-1.736.73l-.292-.094v7.59c0 .76-.616 1.375-1.375 1.375H4.871c-.759 0-1.375-.616-1.375-1.375v-7.59l-.288.093a1.45 1.45 0 0 1-1.735-.73L.156 6.278a1.45 1.45 0 0 1 .695-1.97l6.015-2.742z"/></svg>