<svg xmlns="http://www.w3.org/2000/svg" width="32" height="32" fill="none" data-fui-icon="true" viewBox="0 0 32 32"><path fill="currentColor" d="M13 3.75a6.75 6.75 0 0 1 6.75 6.75.75.75 0 0 1-1.5 0c0-2.9-2.35-5.25-5.25-5.25H8.5a5.25 5.25 0 0 0-5.25 5.25v11c0 2.9 2.35 5.25 5.25 5.25H13c2.9 0 5.25-2.35 5.25-5.25a.75.75 0 0 1 1.5 0A6.75 6.75 0 0 1 13 28.25H8.5a6.75 6.75 0 0 1-6.75-6.75v-11A6.75 6.75 0 0 1 8.5 3.75zm11.531 6.664a.75.75 0 0 1 1.055.117l4 5a.75.75 0 0 1 0 .938l-4 5a.75.75 0 0 1-1.172-.938l3.025-3.781H11a.75.75 0 0 1 0-1.5h16.44l-3.026-3.781a.75.75 0 0 1 .117-1.055"/></svg>