<svg xmlns="http://www.w3.org/2000/svg" width="24" height="24" fill="none" data-fui-icon="true" viewBox="0 0 24 24"><path fill="currentColor" d="M12 1.875c5.592 0 10.125 4.533 10.125 10.125S17.592 22.125 12 22.125 1.875 17.592 1.875 12 6.408 1.875 12 1.875m0 1.5a8.625 8.625 0 1 0 0 17.25 8.625 8.625 0 0 0 0-17.25m-3.75 5.88c0-1.57 1.728-2.528 3.06-1.695l4.391 2.744a2 2 0 0 1 0 3.392L11.31 16.44c-1.332.833-3.06-.124-3.06-1.695zm2.265-.424a.5.5 0 0 0-.765.424v5.49a.5.5 0 0 0 .765.424l4.391-2.745a.5.5 0 0 0 0-.848z"/></svg>