<svg xmlns="http://www.w3.org/2000/svg" width="24" height="24" fill="none" data-fui-icon="true" viewBox="0 0 24 24"><path fill="currentColor" d="M21.333 4.67c.367 0 .667.3.667.667V18.67c0 .367-.3.667-.667.667H2.667A.67.67 0 0 1 2 18.67V5.337c0-.367.3-.667.667-.667zm-18.666-2A2.67 2.67 0 0 0 0 5.337V18.67a2.67 2.67 0 0 0 2.667 2.667h18.666A2.67 2.67 0 0 0 24 18.67V5.337a2.67 2.67 0 0 0-2.667-2.667zm5.666 7.333c.592 0 1.125.255 1.492.667a1.001 1.001 0 0 0 1.492-1.333 3.99 3.99 0 0 0-2.98-1.334 4.001 4.001 0 0 0 0 8c1.184 0 2.25-.516 2.98-1.333a1.001 1.001 0 0 0-1.492-1.333 2 2 0 1 1-1.492-3.333m6 2a2 2 0 0 1 3.492-1.333 1.001 1.001 0 0 0 1.492-1.333 3.99 3.99 0 0 0-2.98-1.334 4.001 4.001 0 0 0 0 8c1.184 0 2.25-.516 2.98-1.333a1.001 1.001 0 0 0-1.492-1.333 2 2 0 0 1-3.492-1.333"/></svg>