<svg xmlns="http://www.w3.org/2000/svg" width="32" height="32" fill="none" data-fui-icon="true" viewBox="0 0 32 32"><path fill="currentColor" d="M26 20.614a3.75 3.75 0 0 1 3.75 3.75v1.091a.75.75 0 0 1-1.5 0v-1.09a2.25 2.25 0 0 0-2.25-2.25H6a2.25 2.25 0 0 0-2.25 2.25v1.09a.75.75 0 0 1-1.5 0v-1.09A3.75 3.75 0 0 1 6 20.614zM26 5.25A3.75 3.75 0 0 1 29.75 9v4.637a3.75 3.75 0 0 1-3.75 3.75H6a3.75 3.75 0 0 1-3.745-3.558l-.005-.192V9A3.75 3.75 0 0 1 6 5.25zM6 6.75A2.25 2.25 0 0 0 3.75 9v4.637l.012.23A2.25 2.25 0 0 0 6 15.886h20a2.25 2.25 0 0 0 2.25-2.25V9A2.25 2.25 0 0 0 26 6.75z"/></svg>