<svg xmlns="http://www.w3.org/2000/svg" width="12" height="12" fill="none" data-fui-icon="true" viewBox="0 0 12 12"><path fill="currentColor" d="M7.785 1.25a3.75 3.75 0 0 1 3.731 3.377l.365 3.65a2.25 2.25 0 0 1-2.239 2.473H9.61a2.25 2.25 0 0 1-1.57-.638l-.627-.61a.75.75 0 0 0-.523-.214H5.11a.75.75 0 0 0-.524.213l-.626.61c-.42.41-.984.64-1.57.64h-.033A2.25 2.25 0 0 1 .119 8.276l.364-3.65A3.75 3.75 0 0 1 4.214 1.25zm-3.57 1.5a2.25 2.25 0 0 0-2.239 2.027l-.365 3.649a.75.75 0 0 0 .746.824h.033a.75.75 0 0 0 .523-.213l.626-.61a2.25 2.25 0 0 1 1.57-.639H6.89c.587 0 1.15.23 1.57.639l.626.61a.75.75 0 0 0 .524.213h.032a.75.75 0 0 0 .746-.824l-.364-3.65a2.25 2.25 0 0 0-2.24-2.026zm.035 1.5a1.25 1.25 0 1 1 0 2.501 1.25 1.25 0 0 1 0-2.5m3.5 0a1.25 1.25 0 1 1 0 2.501 1.25 1.25 0 0 1 0-2.5"/></svg>