<svg xmlns="http://www.w3.org/2000/svg" width="24" height="24" fill="none" data-fui-icon="true" viewBox="0 0 24 24"><path fill="currentColor" d="M19.25 3A2.75 2.75 0 0 1 22 5.75v9.5A2.75 2.75 0 0 1 19.25 18h-3.703v2.563H17a.75.75 0 0 1 0 1.5H7a.75.75 0 0 1 0-1.5h1.453V18H4.75A2.75 2.75 0 0 1 2 15.25v-9.5A2.75 2.75 0 0 1 4.75 3zM9.953 20.563h4.094V18H9.953zM3.5 15.25c0 .69.56 1.25 1.25 1.25h14.5c.69 0 1.25-.56 1.25-1.25v-.719h-17zM4.75 4.5c-.69 0-1.25.56-1.25 1.25v7.281h17V5.75c0-.69-.56-1.25-1.25-1.25z"/></svg>