<svg xmlns="http://www.w3.org/2000/svg" width="20" height="20" fill="none" data-fui-icon="true" viewBox="0 0 20 20"><path fill="currentColor" d="M11.247.001 11.25 0l.007.001a3.16 3.16 0 0 1 2.27.974l3.593 3.749c.565.589.88 1.373.88 2.19v9.921A3.165 3.165 0 0 1 14.835 20h-9.67A3.165 3.165 0 0 1 2 16.835V3.165A3.165 3.165 0 0 1 5.165 0h6.077zM5.165 1.5c-.92 0-1.665.746-1.665 1.665v13.67c0 .92.746 1.665 1.665 1.665h9.67c.92 0 1.665-.746 1.665-1.665V8h-2.835A3.165 3.165 0 0 1 10.5 4.835V1.5zM12 4.835c0 .92.746 1.665 1.665 1.665h2.781c-.07-.275-.21-.53-.409-.738l-3.594-3.75A1.7 1.7 0 0 0 12 1.686z"/></svg>