<svg xmlns="http://www.w3.org/2000/svg" width="32" height="32" fill="none" data-fui-icon="true" viewBox="0 0 32 32"><path fill="currentColor" d="M16.5 4.75a6.75 6.75 0 0 1 6.457 4.793l2.358-2.151c1.509-1.377 3.935-.307 3.935 1.735v13.745c0 2.043-2.426 3.113-3.935 1.735l-2.357-2.152A6.75 6.75 0 0 1 16.5 27.25h-7a6.75 6.75 0 0 1-6.75-6.75v-9A6.75 6.75 0 0 1 9.5 4.75zm-7 1.5a5.25 5.25 0 0 0-5.25 5.25v9l.007.27A5.25 5.25 0 0 0 9.5 25.75h7a5.25 5.25 0 0 0 5.21-4.634l.024-.12c.145-.545.802-.829 1.295-.494l.104.081 3.194 2.917a.85.85 0 0 0 1.423-.628V9.127a.85.85 0 0 0-1.423-.628l-3.194 2.916c-.533.486-1.344.13-1.422-.532A5.25 5.25 0 0 0 16.5 6.25z"/></svg>