<svg xmlns="http://www.w3.org/2000/svg" width="12" height="12" fill="none" data-fui-icon="true" viewBox="0 0 12 12"><path fill="currentColor" d="M6.001 5.875q.46 0 .89.082a.75.75 0 0 1-.28 1.474 3.3 3.3 0 0 0-.61-.056l-.06.001H5.94a3.4 3.4 0 0 0-.7.088c-.978.237-1.703.93-2.044 1.85l.002.002c.02.024.073.059.151.059h2.777a.75.75 0 0 1 0 1.5H3.35a1.7 1.7 0 0 1-1.3-.595 1.48 1.48 0 0 1-.26-1.484c.513-1.387 1.642-2.452 3.14-2.799a5 5 0 0 1 .551-.093q.051-.006.102-.01a5 5 0 0 1 .332-.018zm3.47 1.595a.75.75 0 0 1 1.06 1.06l-.469.47.47.47a.75.75 0 0 1-1.06 1.06l-.47-.47-.47.47a.75.75 0 0 1-1.06-1.06L7.94 9l-.47-.47a.75.75 0 1 1 1.06-1.06l.47.47zM6.001.625A2.626 2.626 0 1 1 6 5.876 2.626 2.626 0 0 1 6.001.625m0 1.5a1.125 1.125 0 1 0 0 2.25 1.125 1.125 0 0 0 0-2.25"/></svg>