<svg xmlns="http://www.w3.org/2000/svg" width="16" height="16" fill="none" data-fui-icon="true" viewBox="0 0 16 16"><path fill="currentColor" d="M12.8 9.65a.75.75 0 0 1 .75.75v1.65h1.65a.75.75 0 0 1 0 1.5h-1.65v1.65a.751.751 0 0 1-1.5 0v-1.65H10.4a.75.75 0 0 1 0-1.5h1.65V10.4a.75.75 0 0 1 .75-.75M8 8.65c.782 0 1.536.125 2.234.355a.75.75 0 0 1-.468 1.425 5.7 5.7 0 0 0-1.766-.28c-2.867 0-5.05 2.067-5.05 4.45a.75.75 0 0 1-1.5 0c0-3.36 3.012-5.95 6.55-5.95M8 .65a3.75 3.75 0 1 1-.002 7.501A3.75 3.75 0 0 1 8 .649m0 1.5a2.25 2.25 0 1 0 .002 4.501A2.25 2.25 0 0 0 8 2.149"/></svg>