<svg xmlns="http://www.w3.org/2000/svg" width="20" height="20" fill="none" data-fui-icon="true" viewBox="0 0 20 20"><path fill="currentColor" d="M17.755 2.186a.75.75 0 0 1 .99 1.127l-.403.354c.114.383.117.803.117 1.124v8.75a2.416 2.416 0 0 1-2.417 2.417h-3.228q-.031 0-.052.018l-.48-.577v.001l.48.576-.001.001-1.75 1.45a1.584 1.584 0 0 1-2.027-.006l-1.721-1.444-.025-.014a.1.1 0 0 0-.028-.005H4.356l-2.111 1.855a.75.75 0 0 1-.99-1.126zM6.063 14.458H7.21c.372 0 .732.131 1.016.37l1.722 1.443a.084.084 0 0 0 .107 0l1.749-1.449a1.6 1.6 0 0 1 1.01-.364h3.228c.507 0 .917-.41.917-.917V4.883zM13.25 2.375a.75.75 0 0 1 0 1.5H3.959a.917.917 0 0 0-.917.917v8.458a.75.75 0 1 1-1.5 0V4.792a2.417 2.417 0 0 1 2.417-2.417z"/></svg>