<svg xmlns="http://www.w3.org/2000/svg" width="12" height="12" fill="none" data-fui-icon="true" viewBox="0 0 12 12"><path fill="currentColor" d="M7.75 0C8.716 0 9.5.784 9.5 1.75v1.595c0 .899-.682 1.651-1.576 1.74l-.9.09a15 15 0 0 0 0 1.648l.9.091A1.75 1.75 0 0 1 9.5 8.655v1.595A1.75 1.75 0 0 1 7.75 12H6.042c-.469 0-1.072-.126-1.505-.614C3.88 10.644 3 9.066 3 6S3.88 1.356 4.537.614C4.97.126 5.573 0 6.042 0zM6.042 1.5c-.24 0-.344.066-.382.108C5.284 2.032 4.5 3.238 4.5 6s.784 3.968 1.16 4.392c.038.042.142.108.382.108H7.75a.25.25 0 0 0 .25-.25V8.655a.25.25 0 0 0-.226-.249L6.25 8.254l-.129-.025a.75.75 0 0 1-.543-.647 16 16 0 0 1 0-3.164.75.75 0 0 1 .543-.647l.129-.025 1.524-.152A.25.25 0 0 0 8 3.344V1.75a.25.25 0 0 0-.25-.25z"/></svg>