<svg xmlns="http://www.w3.org/2000/svg" width="12" height="12" fill="none" data-fui-icon="true" viewBox="0 0 12 12"><g clip-path="url(#a)"><path fill="currentColor" fill-rule="evenodd" d="M5.668 1.594a.63.63 0 0 1 .664 0l3.5 2.151a.35.35 0 0 1 .168.3v3.91a.35.35 0 0 1-.168.3l-3.5 2.151a.63.63 0 0 1-.664 0l-3.5-2.151a.35.35 0 0 1-.168-.3v-3.91c0-.122.064-.235.168-.3zM6 0c-.395 0-.781.11-1.118.316l-3.5 2.151A1.85 1.85 0 0 0 .5 4.046v3.908c0 .644.334 1.241.883 1.579l3.5 2.151a2.13 2.13 0 0 0 2.235 0l3.5-2.151c.548-.338.882-.935.882-1.579V4.046c0-.644-.334-1.241-.883-1.579L7.118.316A2.13 2.13 0 0 0 6 0m2.87 5.255-2.123 1.15v2.528a.75.75 0 1 1-1.5 0v-2.53l-2.12-1.148a.75.75 0 0 1 .713-1.32l2.158 1.169 2.158-1.168a.75.75 0 0 1 .714 1.319" clip-rule="evenodd"/></g><defs><clipPath id="a"><path fill="currentColor" d="M0 0h12v12H0z"/></clipPath></defs></svg>