<svg xmlns="http://www.w3.org/2000/svg" width="12" height="12" fill="none" data-fui-icon="true" viewBox="0 0 12 12"><path fill="currentColor" d="M3.245 2.5c1.227 0 2.24.97 2.245 2.188.069 1.302-.215 2.234-.757 2.981-.53.73-1.288 1.252-2.086 1.77a.375.375 0 0 1-.408-.628c.806-.524 1.45-.979 1.888-1.582.154-.213.286-.449.388-.718-.362.243-.8.384-1.27.385C2.015 6.896 1 5.92 1 4.698S2.014 2.5 3.245 2.5m5.5 0c1.227 0 2.24.97 2.245 2.188.069 1.302-.215 2.234-.757 2.981-.53.73-1.288 1.252-2.086 1.77a.375.375 0 0 1-.408-.628c.806-.524 1.45-.979 1.888-1.582.154-.213.286-.449.388-.718a2.27 2.27 0 0 1-1.27.385c-1.23 0-2.245-.975-2.245-2.198S7.514 2.5 8.745 2.5"/></svg>