<svg xmlns="http://www.w3.org/2000/svg" width="24" height="24" fill="none" data-fui-icon="true" viewBox="0 0 24 24"><path fill="currentColor" d="M12.375 3.375a5.25 5.25 0 0 1 4.93 3.448l1.555-1.418c1.252-1.142 3.265-.253 3.265 1.44v10.31c0 1.694-2.013 2.581-3.265 1.439l-1.555-1.42a5.25 5.25 0 0 1-4.93 3.451h-5.25a5.25 5.25 0 0 1-5.25-5.25v-6.75c0-2.9 2.35-5.25 5.25-5.25zm-5.25 1.5a3.75 3.75 0 0 0-3.75 3.75v6.75l.005.193a3.75 3.75 0 0 0 3.745 3.557h5.25a3.75 3.75 0 0 0 3.723-3.31l.021-.117c.15-.565.872-.841 1.357-.4l2.396 2.188a.45.45 0 0 0 .748-.26l.005-.072V6.846a.45.45 0 0 0-.753-.333l-2.396 2.186c-.518.472-1.303.126-1.378-.515a3.75 3.75 0 0 0-3.723-3.309z"/></svg>