<svg xmlns="http://www.w3.org/2000/svg" width="20" height="20" fill="none" data-fui-icon="true" viewBox="0 0 20 20"><path fill="currentColor" d="M6.667 9.875c1.671 0 3.03.669 4.024 1.78.977 1.093 1.573 2.582 1.825 4.215.15.974-.636 1.755-1.537 1.755H2.355c-.901 0-1.687-.781-1.537-1.755.251-1.633.847-3.122 1.825-4.216.993-1.11 2.353-1.779 4.024-1.779m7.5 0c1.47 0 2.676.572 3.565 1.528.873.941 1.411 2.22 1.65 3.621.168.985-.632 1.768-1.53 1.768h-3.06a.75.75 0 0 1 0-1.5h3.06c.027 0 .043-.01.05-.019-.204-1.196-.646-2.178-1.27-2.85-.609-.655-1.42-1.048-2.465-1.048q-.472.001-.872.1a.75.75 0 0 1-.355-1.456 5.2 5.2 0 0 1 1.227-.144m-7.5 1.5c-1.231 0-2.189.477-2.906 1.28-.732.819-1.24 2.01-1.461 3.444l.004.006c.008.01.025.02.05.02h8.625a.07.07 0 0 0 .051-.02q.005-.005.004-.005v-.001c-.222-1.434-.73-2.626-1.462-3.445-.717-.802-1.674-1.279-2.905-1.279m0-9a3.458 3.458 0 1 1 0 6.917 3.458 3.458 0 0 1 0-6.917m7.5.833a3.042 3.042 0 1 1-.001 6.083 3.042 3.042 0 0 1 .001-6.083m-7.5.667a1.959 1.959 0 1 0 0 3.918 1.959 1.959 0 0 0 0-3.918m7.5.833a1.542 1.542 0 1 0 0 3.085 1.542 1.542 0 0 0 0-3.085"/></svg>