<svg xmlns="http://www.w3.org/2000/svg" width="20" height="20" fill="none" data-fui-icon="true" viewBox="0 0 20 20"><path fill="currentColor" fill-rule="evenodd" d="M16.865 2.262a.75.75 0 0 1 .873.873l-.002.008-.004.023-.016.086a59 59 0 0 1-.303 1.5c-.209.981-.51 2.314-.884 3.72-.373 1.403-.821 2.894-1.324 4.185-.49 1.26-1.074 2.439-1.758 3.123a6.526 6.526 0 0 1-8.667.5l-1.25 1.25a.75.75 0 1 1-1.06-1.06l1.25-1.25a6.526 6.526 0 0 1 .5-8.667c.684-.684 1.864-1.267 3.123-1.758 1.291-.503 2.782-.951 4.185-1.324a78 78 0 0 1 5.22-1.187l.086-.016.023-.004zM12.386 14.72a5.026 5.026 0 0 1-6.536.49l2.71-2.71h3.19a.75.75 0 1 0 0-1.5h-1.69l3.97-3.97a.75.75 0 0 0-1.06-1.06l-2.22 2.22v-.65a.75.75 0 0 0-1.5 0v2.15l-2.053 2.053.053-1.72a.75.75 0 1 0-1.5-.046l-.102 3.314-.859.859a5.026 5.026 0 0 1 .491-6.536c.444-.444 1.359-.935 2.608-1.421 1.217-.475 2.648-.906 4.025-1.272a76 76 0 0 1 4.135-.969 78 78 0 0 1-.969 4.135c-.366 1.377-.798 2.808-1.272 4.025-.486 1.249-.977 2.164-1.42 2.608" clip-rule="evenodd"/></svg>