<svg xmlns="http://www.w3.org/2000/svg" width="12" height="12" fill="none" data-fui-icon="true" viewBox="0 0 12 12"><path fill="currentColor" d="M5.102 1.467c.773-.491 1.835.054 1.835 1.018v7.03c0 1.028-1.209 1.58-1.986.906L3.307 8.996a.75.75 0 0 0-.492-.184h-.752a1.5 1.5 0 0 1-1.5-1.5V4.688a1.5 1.5 0 0 1 1.5-1.5h.752a.75.75 0 0 0 .492-.183L4.95 1.579zm4.091 1.405a.75.75 0 0 1 1.06-.054l-.44.488.44-.487.005.004.007.006a1 1 0 0 1 .066.066q.059.06.146.165c.114.14.26.341.402.605.287.531.559 1.309.559 2.335s-.272 1.804-.56 2.335a4 4 0 0 1-.401.605 3 3 0 0 1-.212.23l-.007.007-.005.005a.75.75 0 0 1-1.06-1.059l.046-.047.001-.002q0 0 .003-.002l.007-.007q.02-.02.066-.076a2.3 2.3 0 0 0 .243-.366c.181-.337.379-.872.379-1.623s-.198-1.286-.38-1.623a2.3 2.3 0 0 0-.308-.442l-.007-.007-.003-.002v-.002l-.048-.047a.75.75 0 0 1 .001-1.005M4.29 4.138a2.25 2.25 0 0 1-1.474.55h-.752v2.625h.752a2.25 2.25 0 0 1 1.474.55l1.149.994V3.142zM7.691 4a.75.75 0 0 1 1.059-.059l-.39.436.391-.436v.001l.001.001.003.002.006.005.013.013.036.036q.042.042.102.112c.079.094.177.227.274.398.193.345.376.846.377 1.491 0 .645-.184 1.146-.377 1.491a2.6 2.6 0 0 1-.376.51l-.036.036-.013.013-.006.005q-.002 0-.003.002h-.001v.002L8.25 7.5l.5.559a.75.75 0 0 1-1.056-1.064l.05-.048-.004.001.024-.025c.026-.032.069-.087.113-.166.087-.156.186-.406.186-.757s-.099-.601-.186-.757a1 1 0 0 0-.137-.192q0 0 .003.002l.003.003h.001l-.052-.051A.75.75 0 0 1 7.691 4"/></svg>