<svg xmlns="http://www.w3.org/2000/svg" width="20" height="20" fill="none" data-fui-icon="true" viewBox="0 0 20 20"><path fill="currentColor" d="M10 10.292c3.157 0 5.571 1.89 6.552 4.542a1.97 1.97 0 0 1-.347 1.979 2.33 2.33 0 0 1-1.786.812H5.582a2.33 2.33 0 0 1-1.786-.812 1.97 1.97 0 0 1-.347-1.979c.98-2.652 3.395-4.542 6.552-4.542m0 1.5c-2.495 0-4.37 1.467-5.144 3.563a.47.47 0 0 0 .09.494c.13.155.36.276.636.276h8.837a.84.84 0 0 0 .636-.276.47.47 0 0 0 .09-.495c-.775-2.095-2.65-3.562-5.144-3.562m0-10.25a3.875 3.875 0 1 1 0 7.75 3.875 3.875 0 0 1 0-7.75m0 1.5a2.375 2.375 0 1 0 .001 4.75 2.375 2.375 0 0 0 0-4.75"/></svg>