<svg xmlns="http://www.w3.org/2000/svg" width="20" height="20" fill="none" data-fui-icon="true" viewBox="0 0 20 20"><path fill="currentColor" d="M10 1c.738 0 1.452.254 2.024.72l6.105 4.965c.55.448.871 1.12.871 1.83v8.935A1.55 1.55 0 0 1 17.45 19h-3.4a1.55 1.55 0 0 1-1.55-1.55V14.5a2.5 2.5 0 0 0-5 0v2.95A1.55 1.55 0 0 1 5.95 19h-3.4A1.55 1.55 0 0 1 1 17.45V8.516c0-.71.32-1.383.871-1.831L7.976 1.72A3.2 3.2 0 0 1 10 1m0 1.5c-.393 0-.773.135-1.078.383L2.817 7.849a.86.86 0 0 0-.317.667v8.934c0 .028.022.05.05.05h3.4a.05.05 0 0 0 .05-.05V14.5a4 4 0 0 1 8 0v2.95c0 .028.022.05.05.05h3.4a.05.05 0 0 0 .05-.05V8.516a.86.86 0 0 0-.317-.667l-6.105-4.966A1.7 1.7 0 0 0 10 2.5"/></svg>