<svg xmlns="http://www.w3.org/2000/svg" width="12" height="12" fill="none" data-fui-icon="true" viewBox="0 0 12 12"><path fill="currentColor" d="M5.102 1.467c.773-.491 1.835.054 1.835 1.018v7.03c0 1.028-1.209 1.58-1.986.906L3.307 8.996a.75.75 0 0 0-.492-.184h-.752a1.5 1.5 0 0 1-1.5-1.5V4.688a1.5 1.5 0 0 1 1.5-1.5h.752a.75.75 0 0 0 .492-.183L4.95 1.579zm-.813 2.67a2.25 2.25 0 0 1-1.474.55h-.752v2.625h.752a2.25 2.25 0 0 1 1.474.55l1.149.995V3.142zm6.056.208a.75.75 0 0 1 1.06 1.06L10.811 6l.594.595a.75.75 0 1 1-1.06 1.06l-.595-.594-.595.594a.75.75 0 1 1-1.06-1.06L8.689 6l-.594-.595a.75.75 0 1 1 1.06-1.06l.595.594z"/></svg>