<svg xmlns="http://www.w3.org/2000/svg" width="32" height="32" fill="none" data-fui-icon="true" viewBox="0 0 32 32"><path fill="currentColor" d="M21.772 3.25a6.95 6.95 0 0 1 4.727 1.845c.97-.22 1.894-.56 2.754-1.003l.148-.063a1 1 0 0 1 .965.19c.3.258.45.709.252 1.144q-.255.563-.604 1.065.346-.126.683-.272l.128-.044c.64-.159 1.187.572.792 1.154a13.1 13.1 0 0 1-2.926 3.08q.005.209.006.417c0 8.34-6.45 17.987-18.263 17.987-3.21 0-6.226-.821-8.849-2.258a.99.99 0 0 1-.467-1.174c.12-.374.482-.726.998-.71l.353.004c2.042 0 3.96-.517 5.628-1.423a6.89 6.89 0 0 1-4.283-3.949c-.221-.543.049-1.02.454-1.24-1.703-1.238-2.812-3.23-2.812-5.482a.796.796 0 0 1 1.115-.73 6.7 6.7 0 0 1-1.064-3.634c0-1.104.269-2.15.743-3.076l.07-.118c.354-.514 1.06-.536 1.481-.157l.086.087.275.311a16.82 16.82 0 0 0 10.73 5.418 7 7 0 0 1-.025-.559c0-3.772 3.103-6.81 6.905-6.81m0 1.5c-2.995 0-5.405 2.388-5.405 5.31q.002.622.14 1.21l.223.967-.992-.049a18.33 18.33 0 0 1-12.45-5.724 5.2 5.2 0 0 0-.28 1.69c0 1.836.948 3.463 2.398 4.417l2.222 1.461-2.658-.085a7 7 0 0 1-1.897-.327c.44 2.04 2.071 3.654 4.158 4.09l.029.006.033.007 2.321.472-2.17.95c-.14.061-.308.1-.436.125a9.567 9.567 0 0 1-1.438.135 5.42 5.42 0 0 0 4.557 2.614l2.139.037-1.694 1.306a13.2 13.2 0 0 1-6.497 2.653 16.9 16.9 0 0 0 6.359 1.235c10.833 0 16.763-8.816 16.763-16.487q0-.373-.018-.75l-.019-.408.333-.236c.44-.312.855-.657 1.245-1.025q-.34.072-.686.128a.85.85 0 0 1-.929-.551.855.855 0 0 1 .313-.997l.288-.216c.225-.18.433-.381.626-.595a13 13 0 0 1-1.945.535l-.4.078-.284-.296a5.45 5.45 0 0 0-3.95-1.68"/></svg>