<svg xmlns="http://www.w3.org/2000/svg" width="12" height="12" fill="none" data-fui-icon="true" viewBox="0 0 12 12"><path fill="currentColor" d="M3.64 6.5A1.86 1.86 0 0 1 5.5 8.36v1.78A1.86 1.86 0 0 1 3.64 12H1.86A1.86 1.86 0 0 1 0 10.14V8.36A1.86 1.86 0 0 1 1.86 6.5zm5.61 0a.75.75 0 0 1 .75.75V8.5h1.25a.75.75 0 0 1 0 1.5H10v1.25a.75.75 0 0 1-1.5 0V10H7.25a.75.75 0 0 1 0-1.5H8.5V7.25a.75.75 0 0 1 .75-.75M1.86 8a.36.36 0 0 0-.36.36v1.78c0 .198.162.36.36.36h1.78a.36.36 0 0 0 .36-.36V8.36A.36.36 0 0 0 3.64 8zm1.78-8A1.86 1.86 0 0 1 5.5 1.86v1.78A1.86 1.86 0 0 1 3.64 5.5H1.86A1.86 1.86 0 0 1 0 3.64V1.86A1.86 1.86 0 0 1 1.86 0zm6.5 0A1.86 1.86 0 0 1 12 1.86v1.78a1.86 1.86 0 0 1-1.86 1.86H8.36A1.86 1.86 0 0 1 6.5 3.64V1.86A1.86 1.86 0 0 1 8.36 0zM1.86 1.5a.36.36 0 0 0-.36.36v1.78c0 .198.162.36.36.36h1.78A.36.36 0 0 0 4 3.64V1.86a.36.36 0 0 0-.36-.36zm6.5 0a.36.36 0 0 0-.36.36v1.78c0 .198.162.36.36.36h1.78a.36.36 0 0 0 .36-.36V1.86a.36.36 0 0 0-.36-.36z"/></svg>