<svg xmlns="http://www.w3.org/2000/svg" width="12" height="12" fill="none" data-fui-icon="true" viewBox="0 0 12 12"><path fill="currentColor" d="M4.068 1.25a3 3 0 0 1 2.121.879l.341.34A.75.75 0 1 1 5.47 3.53l-.341-.34a1.5 1.5 0 0 0-1.06-.44H3.25a1.5 1.5 0 0 0-1.5 1.5v3.5a1.5 1.5 0 0 0 1.5 1.5h.818a1.5 1.5 0 0 0 1.06-.44l.342-.34a.75.75 0 1 1 1.06 1.06l-.34.341a3 3 0 0 1-2.122.879H3.25a3 3 0 0 1-3-3v-3.5a3 3 0 0 1 3-3zm4.688 2.186a.75.75 0 0 1 1.058.07l1.75 2a.75.75 0 0 1 0 .988l-1.75 2a.75.75 0 0 1-1.128-.988l.66-.756H5a.75.75 0 0 1 0-1.5h4.347l-.661-.756a.75.75 0 0 1 .07-1.058"/></svg>