<svg xmlns="http://www.w3.org/2000/svg" width="32" height="32" fill="none" data-fui-icon="true" viewBox="0 0 32 32"><path fill="currentColor" d="M19 2.917c1.151 0 2.084.933 2.084 2.083v12.584h3.796c1.212 0 1.864 1.423 1.073 2.34l-8.374 9.725a2.084 2.084 0 0 1-3.157 0l-8.374-9.724c-.791-.918-.139-2.341 1.073-2.341h3.796V5c0-1.15.933-2.083 2.084-2.083zm-6 1.5a.584.584 0 0 0-.583.583v13.334c0 .414-.336.75-.75.75H7.303l8.256 9.587.095.089a.584.584 0 0 0 .788-.09l8.256-9.586h-4.364a.75.75 0 0 1-.75-.75V5A.584.584 0 0 0 19 4.417z"/></svg>