<svg xmlns="http://www.w3.org/2000/svg" width="16" height="16" fill="none" data-fui-icon="true" viewBox="0 0 16 16"><path fill="currentColor" d="M5.5 2.75a.75.75 0 0 1 .75.75v9a.75.75 0 0 1-1.5 0v-9a.75.75 0 0 1 .75-.75m5 1.5a.75.75 0 0 1 .75.75v6a.75.75 0 0 1-1.5 0V5a.75.75 0 0 1 .75-.75m-2.5.5a.75.75 0 0 1 .75.75v5a.75.75 0 0 1-1.5 0v-5A.75.75 0 0 1 8 4.75m5 1a.75.75 0 0 1 .75.75v3a.75.75 0 0 1-1.5 0v-3a.75.75 0 0 1 .75-.75M3 6a.75.75 0 0 1 .75.75v2.5a.75.75 0 0 1-1.5 0v-2.5A.75.75 0 0 1 3 6"/></svg>