<svg xmlns="http://www.w3.org/2000/svg" width="32" height="32" fill="none" data-fui-icon="true" viewBox="0 0 32 32"><path fill="currentColor" d="M16 4.979c4.139-3.605 10.694-3.624 15.065-.131.634.506.935 1.27.935 2.016v20.822c0 .783-.494 1.359-1.064 1.634-.563.271-1.295.302-1.916-.072-3.976-2.395-9.344-2.018-12.547.584a.75.75 0 0 1-.946 0c-3.203-2.602-8.571-2.979-12.548-.584-.617.372-1.347.346-1.912.077C.497 29.053 0 28.48 0 27.695V6.854c0-.75.304-1.502.935-2.006C5.305 1.355 11.86 1.374 16 4.978m-.75 1.343C11.708 3.013 5.797 2.883 1.871 6.02c-.23.184-.37.481-.371.834v20.84c0 .092.05.2.212.278.169.08.36.072.493-.008 4.021-2.422 9.312-2.366 13.048-.143l-.003-.07zm14.879-.302c-3.926-3.137-9.837-3.007-13.379.302V27.75l-.004.07c3.736-2.222 9.027-2.278 13.049.144.13.078.32.087.49.005.163-.08.215-.19.215-.283V6.865c0-.358-.143-.663-.371-.845"/></svg>