<svg xmlns="http://www.w3.org/2000/svg" width="16" height="16" fill="none" data-fui-icon="true" viewBox="0 0 16 16"><path fill="currentColor" d="M8.835 1.75a3.417 3.417 0 0 1 3.416 3.417v.166c0 .938-.378 1.787-.99 2.404a3.42 3.42 0 0 1 1.657 2.93v.166a3.417 3.417 0 0 1-3.417 3.417H4.495a1.417 1.417 0 0 1-1.417-1.417V3.167c0-.782.635-1.417 1.417-1.417zm-4.257 11h4.923a1.917 1.917 0 0 0 1.917-1.917v-.166A1.917 1.917 0 0 0 9.501 8.75H4.578zm0-5.5h4.257a1.917 1.917 0 0 0 1.916-1.917v-.166A1.917 1.917 0 0 0 8.835 3.25H4.578z"/></svg>