<svg xmlns="http://www.w3.org/2000/svg" width="16" height="16" fill="none" data-fui-icon="true" viewBox="0 0 16 16"><path fill="currentColor" d="M12.167 1.75c1.15 0 2.083.933 2.083 2.083v8.334c0 1.15-.933 2.083-2.083 2.083H3.833a2.083 2.083 0 0 1-2.083-2.083V3.833c0-1.15.933-2.083 2.083-2.083zm-8.334 1.5a.583.583 0 0 0-.583.583v8.334c0 .322.261.583.583.583h8.334a.583.583 0 0 0 .583-.583V3.833a.583.583 0 0 0-.583-.583zm1.504 4.938c.679 0 1.418.498 1.418 1.329 0 .351-.136.627-.3.834a.748.748 0 0 1-.33 1.42H4.563a.75.75 0 0 1-.747-.673l-.003-.077c0-.483.29-.8.497-.971q.07-.058.148-.112a.743.743 0 0 1-.306-1.262h.001v-.001l.005-.005.009-.007.022-.02q.027-.024.069-.056c.055-.043.132-.099.227-.154.181-.106.482-.245.852-.245m6.1 1.041a.75.75 0 0 1 0 1.5H7.897a.75.75 0 0 1 0-1.5zM5.175 4.365a.75.75 0 0 1 1.18.614v2.084a.75.75 0 0 1-1.5 0v-.665a.75.75 0 0 1-.721-1.304zm6.264.906a.75.75 0 0 1 0 1.5H7.896a.75.75 0 0 1 0-1.5z"/></svg>