<svg xmlns="http://www.w3.org/2000/svg" width="12" height="12" fill="none" data-fui-icon="true" viewBox="0 0 12 12"><path fill="currentColor" fill-rule="evenodd" d="M6.525.57A1.68 1.68 0 0 1 8.028 1.95l.045.257q.114.06.224.128l.278-.099.144-.045a1.7 1.7 0 0 1 1.894.779l.36.607v.001a1.66 1.66 0 0 1-.38 2.133l-.215.173q.004.057.005.115l-.005.114.214.174c.64.52.8 1.424.381 2.133l-.36.608a1.7 1.7 0 0 1-2.038.734l-.001-.001-.277-.1a4 4 0 0 1-.224.128l-.045.259a1.68 1.68 0 0 1-1.503 1.382l-.152.007H5.62a1.68 1.68 0 0 1-1.655-1.388l-.047-.26a4 4 0 0 1-.224-.128l-.275.1a1.7 1.7 0 0 1-2.039-.734v.001l-.36-.607V8.42a1.66 1.66 0 0 1 .38-2.133l.213-.175Q1.61 6.057 1.61 6l.003-.114-.213-.174a1.66 1.66 0 0 1-.38-2.133l.36-.608a1.7 1.7 0 0 1 2.038-.734l.276.099a4 4 0 0 1 .224-.127l.047-.259A1.68 1.68 0 0 1 5.62.563h.753zm-.968 1.503a.18.18 0 0 0-.115.138l-.113.64-.073.406-.38.156c-.228.093-.44.215-.633.358l-.324.24-.379-.135-.63-.227a.2.2 0 0 0-.24.084v.001l-.359.608a.16.16 0 0 0 .036.206l.516.42.323.263-.053.415a2.8 2.8 0 0 0 0 .708l.053.413-.322.263-.516.421v.001a.16.16 0 0 0-.037.206l.36.608a.2.2 0 0 0 .17.096l.07-.011.628-.227.38-.138.324.242q.217.162.464.283l.168.075.381.156.073.406.113.64v.001a.18.18 0 0 0 .178.149h.753a.18.18 0 0 0 .178-.149l.112-.639.072-.407.383-.157q.339-.14.631-.358l.324-.242.379.138.63.227a.2.2 0 0 0 .24-.084v-.001l.36-.608a.16.16 0 0 0-.036-.206l-.517-.422-.323-.262.053-.414q.023-.182.024-.354 0-.174-.024-.354l-.054-.415.325-.263.516-.42a.16.16 0 0 0 .036-.206l-.36-.608a.2.2 0 0 0-.17-.096l-.07.011-.63.227-.38.136-.323-.24a3 3 0 0 0-.631-.359l-.383-.157-.072-.407-.112-.638a.18.18 0 0 0-.115-.138l-.063-.01H5.62zM6 4.688a1.313 1.313 0 1 1 0 2.625 1.313 1.313 0 0 1 0-2.625" clip-rule="evenodd"/></svg>