<svg xmlns="http://www.w3.org/2000/svg" width="24" height="24" fill="none" data-fui-icon="true" viewBox="0 0 24 24"><path fill="currentColor" fill-rule="evenodd" d="M12 7.75a2.75 2.75 0 1 1 5.5 0 2.75 2.75 0 0 1-5.5 0m2.75-1.25a1.25 1.25 0 1 0 0 2.5 1.25 1.25 0 0 0 0-2.5" clip-rule="evenodd"/><path fill="currentColor" fill-rule="evenodd" d="M7.38 19A3.38 3.38 0 0 1 4 15.62V4.88A3.38 3.38 0 0 1 7.38 1.5h13.24A3.38 3.38 0 0 1 24 4.88v10.74A3.38 3.38 0 0 1 20.62 19zm0-16A1.88 1.88 0 0 0 5.5 4.88v7.486l1.643-2.048a2.185 2.185 0 0 1 3.331-.091l4.14 4.62 2.021-2.52a2.21 2.21 0 0 1 3.33-.134l2.535 2.685V4.88A1.88 1.88 0 0 0 20.62 3zm14.778 13.701-3.284-3.479a.71.71 0 0 0-1.068.043l-2.177 2.715 1.32 1.473.039.047h3.632c.636 0 1.198-.316 1.538-.799M8.313 11.256 5.5 14.764v.856a1.88 1.88 0 0 0 1.88 1.88h7.597l-5.62-6.272a.685.685 0 0 0-1.044.028" clip-rule="evenodd"/><path fill="currentColor" d="M2 4.188a.75.75 0 0 0-1.5 0v14.687a3.375 3.375 0 0 0 3.375 3.375h16.438a.75.75 0 0 0 0-1.5H3.875A1.875 1.875 0 0 1 2 18.875z"/></svg>