<svg xmlns="http://www.w3.org/2000/svg" width="16" height="16" fill="none" data-fui-icon="true" viewBox="0 0 16 16"><path fill="currentColor" d="M8 1c2.448 0 4.23.894 5.386 2.267C14.524 4.619 15 6.366 15 8v3l-.004.077q.004.086.004.173A3.75 3.75 0 0 1 11.25 15a1.75 1.75 0 0 1-1.75-1.75v-4c0-.966.784-1.75 1.75-1.75.844 0 1.623.278 2.25.749V8c0-1.365-.4-2.744-1.26-3.767C11.395 3.232 10.05 2.5 8 2.5s-3.396.732-4.24 1.733C2.9 5.256 2.5 6.635 2.5 8v.249A3.73 3.73 0 0 1 4.75 7.5c.966 0 1.75.784 1.75 1.75v4A1.75 1.75 0 0 1 4.75 15a3.75 3.75 0 0 1-3.746-3.923L1 11V8c0-1.634.476-3.381 1.614-4.733C3.771 1.894 5.551 1 8 1M4.75 9a2.25 2.25 0 0 0 0 4.5.25.25 0 0 0 .25-.25v-4A.25.25 0 0 0 4.75 9m6.5 0a.25.25 0 0 0-.25.25v4c0 .138.112.25.25.25a2.25 2.25 0 0 0 0-4.5"/></svg>