<svg xmlns="http://www.w3.org/2000/svg" width="20" height="20" fill="none" data-fui-icon="true" viewBox="0 0 20 20"><path fill="currentColor" d="M8.5 3a.75.75 0 0 1 0 1.5H4.32A1.82 1.82 0 0 0 2.5 6.32v9.36a1.82 1.82 0 0 0 1.82 1.82h9.36a1.82 1.82 0 0 0 1.82-1.82V11.5a.75.75 0 0 1 1.5 0v4.18A3.32 3.32 0 0 1 13.68 19H4.32A3.32 3.32 0 0 1 1 15.68V6.32A3.32 3.32 0 0 1 4.32 3zm9.75-2a.75.75 0 0 1 .75.75V7a.75.75 0 0 1-1.5 0V3.56l-7.22 7.22a.75.75 0 1 1-1.06-1.06l7.22-7.22H13A.75.75 0 0 1 13 1z"/></svg>