<svg xmlns="http://www.w3.org/2000/svg" width="32" height="32" fill="none" data-fui-icon="true" viewBox="0 0 32 32"><path fill="currentColor" d="M13.778 2.778c.978-1.704 3.467-1.704 4.444 0l.093.176 3.226 6.716 7.427.973c2.135.28 3.008 2.914 1.43 4.403l-5.426 5.114 1.363 7.307c.397 2.132-1.859 3.738-3.743 2.723L16 26.636l-6.59 3.552c-1.885 1.016-4.142-.59-3.744-2.722l1.361-7.307-5.424-5.114c-1.58-1.49-.706-4.124 1.429-4.403l7.427-.973 3.226-6.716zm-5.392 26.2.042-.008zm.125-.032q.02-.004.038-.01l.022-.01q-.03.012-.06.02m7.229-3.836a1 1 0 0 0-.248.097L8.697 28.87l-.024.01.025-.01 6.794-3.662a1 1 0 0 1 .248-.096m9.12 2.631a1 1 0 0 1 .018.162zL23.454 20.2h-.001zm-17.738.153v.007q.003-.078.018-.16zm22.33-14.027q-.039.046-.084.088l-5.6 5.278q-.023.025-.047.051.023-.027.048-.05l5.6-5.279q.09-.086.154-.181zm-.679-1.737q.029.004.056.01l-.055-.01-7.659-1.003zm-17.63-1.07a1 1 0 0 1-.258.067l.132-.025q.065-.018.125-.042m.421-.305q-.084.1-.191.179l.101-.083q.048-.045.09-.096m8.727-.223q.03.062.066.117zl-3.33-6.928z"/></svg>