<svg xmlns="http://www.w3.org/2000/svg" width="12" height="12" fill="none" data-fui-icon="true" viewBox="0 0 12 12"><g clip-path="url(#a)"><path fill="currentColor" d="M6 0a6 6 0 1 1 0 12A6 6 0 0 1 6 0m0 1.5a4.5 4.5 0 1 0 0 9 4.5 4.5 0 0 0 0-9m1.25.5a.75.75 0 0 1 .75.75v.467A1.874 1.874 0 0 1 8.622 6 1.873 1.873 0 0 1 8 8.782v.468a.75.75 0 0 1-1.5 0V9H6v.25a.75.75 0 0 1-1.5 0V9h-.75a.75.75 0 0 1 0-1.5h.258v-3H3.75a.75.75 0 0 1 0-1.5h.75v-.25a.75.75 0 0 1 1.5 0V3h.5v-.25A.75.75 0 0 1 7.25 2M5.508 7.5h1.617a.375.375 0 1 0 0-.75H5.508zm0-2.25h1.617l.075-.008a.375.375 0 0 0-.075-.742H5.508z"/></g><defs><clipPath id="a"><path fill="currentColor" d="M0 0h12v12H0z"/></clipPath></defs></svg>