<svg xmlns="http://www.w3.org/2000/svg" width="20" height="20" fill="none" data-fui-icon="true" viewBox="0 0 20 20"><path fill="currentColor" d="M15.78 1.05a2.97 2.97 0 0 1 2.97 2.97v12.06a2.97 2.97 0 0 1-2.97 2.97H4.22a2.97 2.97 0 0 1-2.97-2.97V4.02a2.97 2.97 0 0 1 2.97-2.97zm-7.53 16.5h7.53a1.47 1.47 0 0 0 1.47-1.47V7.61h-9zm-5.5-1.47c0 .812.658 1.47 1.47 1.47h2.53V7.61H3a.8.8 0 0 1-.25-.047zM4.22 2.55a1.47 1.47 0 0 0-1.47 1.47v2.134A.8.8 0 0 1 3 6.11h3.75V2.55zm4.03 3.56h9V4.02a1.47 1.47 0 0 0-1.47-1.47H8.25z"/></svg>