<svg xmlns="http://www.w3.org/2000/svg" width="32" height="32" fill="none" data-fui-icon="GlobeEurope32" viewBox="0 0 32 32"><path fill="currentColor" d="M16 1c8.284 0 15 6.716 15 15s-6.716 15-15 15S1 24.284 1 16 7.716 1 16 1m-3.285 15.398a1.7 1.7 0 0 0-1.37-.314l-1.11.226c-.37.075-.728.2-1.064.372l-.258.13a3.48 3.48 0 0 0-1.727 4.182l.33 1.009a2.44 2.44 0 0 0 2.323 1.683h.343A3.586 3.586 0 0 1 13.7 26.58l.183.934c.147.75.557 1.423 1.155 1.9a1 1 0 0 1 .063.055q.446.03.899.031.635 0 1.255-.059a.74.74 0 0 1 .11-.34l1.388-2.215c.138-.22.21-.476.21-.737.001-.956.475-1.85 1.267-2.387l.192-.131c.223-.152.383-.38.447-.643l.06-.244a.817.817 0 0 0-.531-.969 2.3 2.3 0 0 1-.909-.57l-.744-.758a4.13 4.13 0 0 1-1.104-2.094l-.189-.962a.932.932 0 0 0-1.44-.59c-.87.591-2.029.565-2.87-.076zm2.843-13.89C8.307 2.74 2.5 8.692 2.5 16c0 6.386 4.434 11.736 10.392 13.14a4.7 4.7 0 0 1-.48-1.337l-.185-.933a2.086 2.086 0 0 0-2.046-1.684H9.84A3.945 3.945 0 0 1 6.09 22.47l-.33-1.01a4.98 4.98 0 0 1 2.471-5.983l.258-.132a5.7 5.7 0 0 1 1.447-.505l1.109-.226a3.2 3.2 0 0 1 2.579.592l.428.327a.96.96 0 0 0 1.116.027 2.432 2.432 0 0 1 3.755 1.541l.188.963c.1.503.344.966.703 1.331l.745.758q.137.138.32.203a2.317 2.317 0 0 1 1.506 2.746l-.06.244a2.6 2.6 0 0 1-1.061 1.526l-.193.13c-.38.259-.608.688-.608 1.147 0 .542-.152 1.073-.44 1.533l-.913 1.457q.905-.215 1.76-.546a.8.8 0 0 1 .099-.123q.001 0 .017-.022l.042-.066q.052-.089.112-.23c.08-.192.152-.422.215-.653a10 10 0 0 0 .177-.793l.009-.05.002-.011v-.002a.75.75 0 0 1 1.49.166l-.01.076v.008l-.004.017-.011.063a12 12 0 0 1-.14.65 13.51 13.51 0 0 0 6.379-9.02c-.005-.132-.075-.289-.274-.475a2.8 2.8 0 0 0-.692-.445.8.8 0 0 0-.337-.06 2.81 2.81 0 0 1-2.13-.979l-.883-1.028-.026-.03-.021-.03-.445-.639a.368.368 0 0 0-.564-.048l-.04.041a.31.31 0 0 0 0 .434c.44.447.615 1.09.466 1.699l-.313 1.275a1.827 1.827 0 0 1-3.077.844l-.664-.676a3.1 3.1 0 0 1-.835-1.584l-.427-2.17-.191-.584a.134.134 0 0 0-.202-.069 1.634 1.634 0 0 1-2.284-.456l-.362-.552a.8.8 0 0 0-.402-.312l-.202-.069a1.4 1.4 0 0 0-1.236.167l-.462.315a4 4 0 0 1-.966.48l-.744.253a2.47 2.47 0 0 1-1.584 0l-.337-.114a1.969 1.969 0 0 1 0-3.728l.46-.156c.17-.057.324-.154.45-.282l.197-.201c.266-.27.415-.634.415-1.013q0-.355.085-.702l.233-.952c.222-.9.768-1.686 1.535-2.206l.394-.268a2.2 2.2 0 0 1 1.233-.379c.45 0 .78-.422.674-.86zm1.588.179a2.195 2.195 0 0 1-2.13 2.717.7.7 0 0 0-.391.12l-.395.268c-.459.312-.787.784-.92 1.323l-.233.951a1.5 1.5 0 0 0-.04.345c0 .772-.305 1.514-.846 2.065l-.197.2c-.29.295-.645.519-1.037.652l-.46.156a.468.468 0 0 0 0 .886l.336.114c.201.069.42.069.62 0l.743-.252q.325-.11.607-.301l.463-.315a2.9 2.9 0 0 1 2.56-.346l.2.068c.483.164.897.485 1.176.911l.361.552c.041.062.126.08.188.038a1.633 1.633 0 0 1 2.47.843l.206.63.014.043.01.045.434 2.213c.06.31.212.597.433.823l.664.675a.327.327 0 0 0 .55-.151l.313-1.274a.31.31 0 0 0-.08-.291 1.81 1.81 0 0 1 0-2.536l.04-.04a1.868 1.868 0 0 1 2.867.241l.42.608.86.999c.249.29.612.456.993.456.299 0 .64.046.971.2.156.073.356.178.568.315q.016-.317.016-.638c0-7.082-5.453-12.89-12.389-13.455zM10 5.068a.75.75 0 0 1 .75.75c0 .879-.201 1.748-.589 2.536l-.06.122a.75.75 0 0 1-1.346-.662l.06-.12a4.26 4.26 0 0 0 .435-1.876.75.75 0 0 1 .75-.75"/></svg>