<svg xmlns="http://www.w3.org/2000/svg" width="24" height="24" fill="none" data-fui-icon="true" viewBox="0 0 24 24"><path fill="currentColor" fill-rule="evenodd" d="m19.804 4.562-7.249-2.418a1.78 1.78 0 0 0-1.108-.002L4.197 4.56q-.27.09-.489.255c-.437.323-.707.84-.707 1.404v5.707c.004 2.73 1.186 4.746 2.858 6.333.038.035.083.066.122.101q.532.492 1.115.934.061.047.122.096a21 21 0 0 0 1.412.96c1.003.631 2.039 1.19 3.014 1.717a.75.75 0 0 0 .712 0C16.207 19.99 21 17.405 21 11.914V6.22c0-.753-.48-1.42-1.196-1.66m-.304 7.35c0 4.448-3.91 6.701-7.5 8.643v-17q.04 0 .079.012l7.25 2.417a.25.25 0 0 1 .171.237z" clip-rule="evenodd"/></svg>