<svg xmlns="http://www.w3.org/2000/svg" width="16" height="16" fill="none" data-fui-icon="true" viewBox="0 0 16 16"><g clip-path="url(#a)"><path fill="currentColor" d="M8 .583a7.417 7.417 0 1 1-.002 14.834A7.417 7.417 0 0 1 8 .583m0 1.5a5.917 5.917 0 1 0 0 11.832A5.917 5.917 0 0 0 8 2.083m1.405 2.514c1.25-.474 2.473.749 2 1.998l-.884 2.33a2.75 2.75 0 0 1-1.596 1.595l-2.33.884c-1.25.474-2.472-.75-1.998-1.999l.882-2.329c.28-.736.861-1.317 1.597-1.597zm.533 1.402-2.33.884a1.25 1.25 0 0 0-.725.724l-.884 2.33-.005.02v.008a.1.1 0 0 0 .016.025q.016.015.026.016h.007q.005.001.02-.004l2.33-.884c.334-.127.598-.391.725-.725l.884-2.33.005-.02-.001-.007a.1.1 0 0 0-.016-.026.1.1 0 0 0-.025-.016h-.008z"/></g><defs><clipPath id="a"><path fill="currentColor" d="M0 0h16v16H0z"/></clipPath></defs></svg>