<svg xmlns="http://www.w3.org/2000/svg" width="20" height="20" fill="none" data-fui-icon="true" viewBox="0 0 20 20"><path fill="currentColor" d="M13.542 1.542a.75.75 0 0 1 .75.75v.917h.916a2.417 2.417 0 0 1 2.417 2.416v9.584a2.417 2.417 0 0 1-2.417 2.416H4.792a2.417 2.417 0 0 1-2.417-2.416V5.625a2.417 2.417 0 0 1 2.417-2.416h.916v-.917a.75.75 0 0 1 1.5 0v.917h5.584v-.917a.75.75 0 0 1 .75-.75m-8.75 3.167a.917.917 0 0 0-.917.916v9.584c0 .506.41.916.917.916h10.416c.506 0 .917-.41.917-.916V5.625a.917.917 0 0 0-.917-.916zm6.763 3.095a.75.75 0 1 1 1.06 1.06L11.06 10.42l1.553 1.553a.75.75 0 0 1-1.06 1.06L10 11.48l-1.553 1.553a.75.75 0 0 1-1.06-1.06l1.552-1.553-1.554-1.555a.75.75 0 0 1 1.06-1.06L10 9.358z"/></svg>