<svg xmlns="http://www.w3.org/2000/svg" width="20" height="20" fill="none" data-fui-icon="true" viewBox="0 0 20 20"><path fill="currentColor" d="M15.648 10.476a.75.75 0 0 1 .96 1.106l-6.005 8.114a.752.752 0 0 1-1.206 0l-6.004-8.114a.75.75 0 0 1 .96-1.106L10 13.528zm-5.29 4.565a.75.75 0 0 1-.715 0l-3.04-1.645L10 17.989l3.397-4.591zM10 0c.232 0 .453.109.595.293l6.004 7.789a.75.75 0 0 1-.193 1.092l-.073.04-6.005 2.922a.75.75 0 0 1-.655 0L3.668 9.214l-.073-.04a.753.753 0 0 1-.193-1.092L9.406.293A.75.75 0 0 1 10 0M5.152 8.269 10 10.627l4.848-2.358L10 1.979z"/></svg>