<svg xmlns="http://www.w3.org/2000/svg" width="24" height="24" fill="none" data-fui-icon="true" viewBox="0 0 24 24"><path fill="currentColor" d="M7.213 3c.658 0 1.276.32 1.656.856l1.36 1.92c.1.14.261.224.433.224H21.28a2.22 2.22 0 0 1 2.22 2.22v4.03a.75.75 0 0 1-1.5 0V8.22a.72.72 0 0 0-.72-.72H10.662a2.03 2.03 0 0 1-1.656-.856l-1.36-1.92a.53.53 0 0 0-.433-.224H2.72a.72.72 0 0 0-.72.72v13.53c0 .414.336.75.75.75h12.5a.75.75 0 0 1 0 1.5H2.75A2.25 2.25 0 0 1 .5 18.75V5.22A2.22 2.22 0 0 1 2.72 3zM20 13a.75.75 0 0 1 .75.75v2.5h2.5a.75.75 0 0 1 0 1.5h-2.5v2.5a.75.75 0 0 1-1.5 0v-2.5h-2.5a.75.75 0 0 1 0-1.5h2.5v-2.5A.75.75 0 0 1 20 13"/></svg>