<svg xmlns="http://www.w3.org/2000/svg" width="24" height="24" fill="none" data-fui-icon="true" viewBox="0 0 24 24"><path fill="currentColor" d="M17.146 2.632a5.25 5.25 0 0 1 4.979 5.243v8.25c0 2.9-2.35 5.25-5.25 5.25h-9.75a5.25 5.25 0 0 1-5.25-5.25v-8.25c0-2.9 2.35-5.25 5.25-5.25h9.75zM13.874 12.75c-.621 0-1.125.504-1.125 1.125v6h4.125a3.75 3.75 0 0 0 3.75-3.75V12.75zm-6.75-8.625a3.75 3.75 0 0 0-3.75 3.75v8.25a3.75 3.75 0 0 0 3.75 3.75h4.125v-6a2.625 2.625 0 0 1 2.625-2.625h6.75V7.875a3.75 3.75 0 0 0-3.557-3.745l-.193-.005z"/></svg>