<svg xmlns="http://www.w3.org/2000/svg" width="24" height="24" fill="none" data-fui-icon="true" viewBox="0 0 24 24"><path fill="currentColor" d="M3.938 2.25c1.397 0 2.569.956 2.902 2.25h1.835a3.63 3.63 0 0 1 3.282 2.08l2.205 4.67h6.031l-2.175-2.297a.75.75 0 0 1 1.09-1.031l3.374 3.562a.75.75 0 0 1 0 1.032l-3.375 3.562a.75.75 0 0 1-1.09-1.031l2.176-2.297h-6.03l-2.206 4.67a3.63 3.63 0 0 1-3.282 2.08H6.84a2.999 2.999 0 0 1-5.902-.75A3 3 0 0 1 6.84 18h1.835c.824 0 1.575-.476 1.927-1.22L12.858 12l-2.256-4.78A2.13 2.13 0 0 0 8.675 6H6.84a2.998 2.998 0 0 1-5.902-.75 3 3 0 0 1 3-3m0 15a1.5 1.5 0 1 0 0 3 1.5 1.5 0 0 0 0-3m0-13.5a1.5 1.5 0 1 0 0 3 1.5 1.5 0 0 0 0-3"/></svg>