<svg xmlns="http://www.w3.org/2000/svg" width="32" height="32" fill="none" data-fui-icon="true" viewBox="0 0 32 32"><path fill="currentColor" d="M24.41 3.366a1.5 1.5 0 0 1 2.898.777l-1.37 5.11h4.052a1.5 1.5 0 0 1 0 3h-4.855l-2.225 8.303H27.3a1.5 1.5 0 1 1 0 3h-5.193l-1.432 5.347a1.5 1.5 0 0 1-2.899-.776L19 23.557H9.188l-1.432 5.346a1.501 1.501 0 0 1-2.899-.776l1.225-4.57H2a1.5 1.5 0 0 1 0-3h4.886l2.225-8.305h-4.42a1.5 1.5 0 0 1 0-3h5.224l1.577-5.886a1.5 1.5 0 0 1 2.898.777l-1.37 5.11h9.813zM9.992 20.556h9.812l2.225-8.304h-9.812z"/></svg>