<svg xmlns="http://www.w3.org/2000/svg" width="20" height="20" fill="none" data-fui-icon="true" viewBox="0 0 20 20"><path fill="currentColor" d="M10 0c5.523 0 10 4.477 10 10s-4.477 10-10 10S0 15.523 0 10 4.477 0 10 0m.124 3.398q-1.527 0-2.78.475a6.1 6.1 0 0 0-2.147 1.349 5.9 5.9 0 0 0-1.376 2.091q-.48 1.212-.481 2.705 0 1.486.481 2.697.49 1.211 1.384 2.077.901.873 2.153 1.342 1.253.474 2.793.474 1.239 0 2.133-.24.581-.155.977-.29a.39.39 0 0 0 .231-.52l-.284-.725a.444.444 0 0 0-.55-.251q-.317.102-.759.217a7 7 0 0 1-1.754.2q-1.556 0-2.69-.612a4.27 4.27 0 0 1-1.748-1.721q-.62-1.122-.62-2.655 0-1.535.62-2.657a4.3 4.3 0 0 1 1.754-1.733q1.136-.612 2.69-.612 1.466 0 2.54.564a3.93 3.93 0 0 1 1.658 1.61q.585 1.046.585 2.518 0 1.109-.345 1.74-.338.626-.936.626a.6.6 0 0 1-.447-.165q-.158-.171-.158-.57V7.125a.417.417 0 0 0-.417-.417h-.701a.34.34 0 0 0-.34.34v.337q-.001.004-.005.005-.003 0-.004-.003-.193-.336-.686-.582Q10.4 6.55 9.71 6.55q-.84 0-1.548.413-.709.406-1.142 1.177-.434.77-.433 1.864 0 1.004.385 1.803.384.79 1.087 1.252.7.46 1.658.46.832 0 1.342-.33.507-.335.68-.774 0-.003.004-.003.003 0 .004.003.084.412.523.781.44.371 1.341.371 1.439 0 2.243-1.017.805-1.025.805-2.876 0-1.892-.811-3.303a5.6 5.6 0 0 0-2.284-2.188q-1.466-.785-3.441-.785m-.22 4.659q.777 0 1.19.508.42.503.42 1.439 0 .928-.42 1.437-.413.503-1.19.503-.805 0-1.246-.503-.433-.502-.433-1.437 0-.936.433-1.439.441-.508 1.245-.508"/></svg>