<svg xmlns="http://www.w3.org/2000/svg" width="12" height="12" fill="none" data-fui-icon="true" viewBox="0 0 12 12"><path fill="currentColor" d="M6 0a6 6 0 1 1 0 12A6 6 0 0 1 6 0m0 6.5c-.932 0-1.595.315-2.031.664a2.7 2.7 0 0 0-.585.653l-.035.06-.012.022-.007.014v.001l.393.197-.394-.196a.75.75 0 0 0 1.304.737l.034-.061.034-.047c.039-.052.106-.129.205-.208C5.096 8.185 5.432 8 6 8s.905.185 1.094.336a1.2 1.2 0 0 1 .239.258l-.001-.003.035.061a.75.75 0 0 0 1.304-.737l-.394.196.394-.197H8.67l-.007-.015-.012-.022-.035-.06a2.665 2.665 0 0 0-.585-.653C7.595 6.815 6.932 6.5 6 6.5M4.665 8.597l-.002.004.003-.005v-.002zM4.25 3.78a1 1 0 1 0 0 2 1 1 0 0 0 0-2m3.5 0a1 1 0 1 0 0 2 1 1 0 0 0 0-2"/></svg>