<svg xmlns="http://www.w3.org/2000/svg" width="20" height="20" fill="none" data-fui-icon="true" viewBox="0 0 20 20"><path fill="currentColor" d="M10 1a9 9 0 1 1 0 18 9 9 0 0 1 0-18M7.82 13.5c.15.774.347 1.469.58 2.059.273.694.581 1.207.884 1.532.302.324.544.409.716.409s.414-.085.716-.41c.303-.325.61-.837.885-1.531.232-.59.43-1.285.58-2.059zm-4.454 0a7.52 7.52 0 0 0 4.076 3.552 8 8 0 0 1-.438-.944 13.7 13.7 0 0 1-.71-2.608zm10.34 0c-.172.968-.412 1.851-.71 2.608q-.199.503-.44.944a7.52 7.52 0 0 0 4.078-3.552zm.2-5.5a21.3 21.3 0 0 1 0 4h3.323a7.5 7.5 0 0 0 0-4zM7.6 8c-.065.636-.1 1.306-.1 2s.035 1.364.1 2h4.8c.065-.636.1-1.306.1-2s-.035-1.364-.1-2zM2.77 8a7.5 7.5 0 0 0 0 4h3.323a21.3 21.3 0 0 1 0-4zm4.671-5.053A7.52 7.52 0 0 0 3.366 6.5h2.929c.17-.968.41-1.851.709-2.608q.198-.504.438-.945M10 2.5c-.172 0-.414.085-.716.41-.303.324-.61.836-.885 1.531-.232.59-.43 1.285-.58 2.059h4.362a12 12 0 0 0-.58-2.059c-.274-.695-.582-1.207-.885-1.532-.302-.324-.544-.409-.716-.409m2.557.447q.24.441.44.945c.297.757.537 1.64.708 2.608h2.929a7.52 7.52 0 0 0-4.077-3.553"/></svg>