<svg xmlns="http://www.w3.org/2000/svg" width="24" height="24" fill="none" data-fui-icon="true" viewBox="0 0 24 24"><path fill="currentColor" d="M17.75 2A4.25 4.25 0 0 1 22 6.25v11.5A4.25 4.25 0 0 1 17.75 22H6.25A4.25 4.25 0 0 1 2 17.75V6.25A4.25 4.25 0 0 1 6.25 2zM6.847 12.5a.69.69 0 0 0-.535.256L3.5 16.264v1.486a2.75 2.75 0 0 0 2.75 2.75h8.07l-6.964-7.773a.69.69 0 0 0-.51-.227m9.511 2a.7.7 0 0 0-.552.266l-2.178 2.713 2.707 3.021h1.415c1.273 0 2.34-.866 2.653-2.04l-3.529-3.737a.7.7 0 0 0-.516-.223M6.25 3.5A2.75 2.75 0 0 0 3.5 6.25v7.615l1.643-2.048a2.185 2.185 0 0 1 3.33-.09l4.14 4.62 2.023-2.52a2.21 2.21 0 0 1 3.329-.135l2.535 2.686V6.25a2.75 2.75 0 0 0-2.75-2.75zM13 5a3 3 0 1 1 0 6 3 3 0 0 1 0-6m0 1.5a1.5 1.5 0 1 0 0 3 1.5 1.5 0 0 0 0-3"/></svg>