<svg xmlns="http://www.w3.org/2000/svg" width="24" height="24" fill="none" data-fui-icon="true" viewBox="0 0 24 24"><path fill="currentColor" d="M15.097 3.62c1.567.266 3.094.737 4.539 1.402 2.49 3.66 3.727 7.788 3.27 12.551a18.2 18.2 0 0 1-5.57 2.808 13.4 13.4 0 0 1-1.192-1.93 12 12 0 0 0 1.88-.904 7 7 0 0 1-.46-.348 13.02 13.02 0 0 1-11.13 0 22 22 0 0 1-.46.348q.9.534 1.878.901c-.343.677-.741 1.324-1.192 1.933a18.3 18.3 0 0 1-5.567-2.81c-.39-4.107.39-8.273 3.262-12.545A18.3 18.3 0 0 1 8.898 3.62q.322.578.58 1.188a16.8 16.8 0 0 1 5.038 0q.26-.61.58-1.188m-6.755 7.002c-1.113 0-1.978 1-1.978 2.217s.896 2.207 1.981 2.207c1.106 0 1.96-.99 1.98-2.207.019-1.218-.87-2.217-1.983-2.217m7.313 0c-1.115 0-1.98 1-1.98 2.217s.893 2.207 1.98 2.207c1.105 0 1.958-.99 1.977-2.207.02-1.218-.863-2.217-1.978-2.217"/></svg>