<svg xmlns="http://www.w3.org/2000/svg" width="12" height="12" fill="none" data-fui-icon="true" viewBox="0 0 12 12"><path fill="currentColor" fill-rule="evenodd" d="M11.57 4.65a1.12 1.12 0 0 0-.929-.771l-2.525-.331-1.098-2.281A1.12 1.12 0 0 0 6 .625c-.44 0-.829.246-1.019.641L3.882 3.549l-2.525.331a1.12 1.12 0 0 0-.929.771c-.135.418-.02.865.3 1.167l1.844 1.738-.463 2.485c-.08.43.091.858.445 1.116.354.26.815.29 1.202.082l2.242-1.208L8.24 11.24a1.124 1.124 0 0 0 1.202-.082c.354-.258.525-.686.445-1.117l-.463-2.484 1.844-1.738c.32-.302.435-.749.3-1.167zM8.25 6.604a1.12 1.12 0 0 0-.335 1.026l.357 1.92-1.736-.936A1.1 1.1 0 0 0 6 8.478v-5.87l.85 1.767c.165.347.491.584.873.633l1.947.255-1.42 1.339z" clip-rule="evenodd"/></svg>