<svg xmlns="http://www.w3.org/2000/svg" width="24" height="24" fill="none" data-fui-icon="true" viewBox="0 0 24 24"><path fill="currentColor" d="M11.914 2.25C5.97 2.25 2.25 6.785 2.25 12s3.72 9.75 9.664 9.75c4.184 0 7.55-2.5 8.942-5.701a.75.75 0 0 0-1.376-.598c-1.16 2.67-3.997 4.799-7.566 4.799-5.027 0-8.164-3.773-8.164-8.25s3.137-8.25 8.164-8.25c4.566 0 6.779 3.132 7.411 5.596H16a.75.75 0 0 0 0 1.5h3.972c.989 0 1.778-.807 1.778-1.788V4a.75.75 0 0 0-1.5 0v3.492C19.074 4.9 16.47 2.25 11.914 2.25m-.164 4A.75.75 0 0 0 11 7v5.5c0 .21.088.409.24.55l.069.056 2.75 2a.75.75 0 0 0 .882-1.212L12.5 12.118V7a.75.75 0 0 0-.75-.75"/></svg>