<svg xmlns="http://www.w3.org/2000/svg" width="24" height="24" fill="none" data-fui-icon="true" viewBox="0 0 24 24"><path fill="currentColor" d="M12 18.75a.75.75 0 0 1 .75.75v2.75a.75.75 0 0 1-1.5 0V19.5a.75.75 0 0 1 .75-.75m-5.834-1.977a.751.751 0 0 1 1.062 1.061l-1.946 1.944a.75.75 0 0 1-1.06-1.06zm10.607 0a.75.75 0 0 1 1.061 0l1.944 1.945a.75.75 0 0 1-1.06 1.06l-1.945-1.944a.75.75 0 0 1 0-1.061M12 7a5 5 0 1 1 0 10 5 5 0 0 1 0-10m0 1.5a3.5 3.5 0 1 0 0 7 3.5 3.5 0 0 0 0-7m-7.5 2.75a.75.75 0 0 1 0 1.5H1.75a.75.75 0 0 1 0-1.5zm17.75 0a.75.75 0 0 1 0 1.5H19.5a.75.75 0 0 1 0-1.5zM4.222 4.222a.75.75 0 0 1 1.06 0l1.945 1.944a.75.75 0 1 1-1.061 1.06L4.222 5.283a.75.75 0 0 1 0-1.06m14.496 0a.75.75 0 0 1 1.06 1.06l-1.944 1.945a.75.75 0 1 1-1.06-1.061zM12 1a.75.75 0 0 1 .75.75V4.5a.75.75 0 0 1-1.5 0V1.75A.75.75 0 0 1 12 1"/></svg>