<svg xmlns="http://www.w3.org/2000/svg" width="32" height="32" fill="none" data-fui-icon="true" viewBox="0 0 32 32"><path fill="currentColor" d="M25.47 8.47a.75.75 0 0 1 1.06 0c.63.629.959 1.42 1.133 2.118.175.7.207 1.358.207 1.775v8.447c0 .642.22 1.267.624 1.775l.91 1.14c.845 1.06.056 2.57-1.256 2.57h-7.676v.614c0 2.686-2.211 4.84-4.912 4.841-2.7 0-4.911-2.155-4.912-4.84v-.614H9.5a.75.75 0 0 1 0-1.5h18.648c.031 0 .049-.008.059-.015a.1.1 0 0 0 .033-.039.1.1 0 0 0 .01-.042c0-.006-.003-.019-.02-.039l-.909-1.142a4.35 4.35 0 0 1-.95-2.71v-8.446a6 6 0 0 0-.163-1.412c-.136-.543-.368-1.05-.738-1.42a.75.75 0 0 1 0-1.061M12.148 26.91c0 1.832 1.516 3.34 3.412 3.34 1.897 0 3.412-1.508 3.412-3.34v-.614h-6.824zM28.47.47a.75.75 0 0 1 1.06 1.06l-26 26a.75.75 0 1 1-1.06-1.06zM15.56.25c.966 0 2.148.133 3.295.468 1.142.333 2.305.882 3.175 1.752a.75.75 0 0 1-1.06 1.06c-.63-.63-1.533-1.08-2.534-1.373a10.6 10.6 0 0 0-2.876-.407c-5.982 0-10.81 4.764-10.81 10.613V21a.75.75 0 0 1-1.5 0v-8.637C3.25 5.661 8.774.25 15.56.25"/></svg>