<svg xmlns="http://www.w3.org/2000/svg" width="20" height="20" fill="none" data-fui-icon="true" viewBox="0 0 20 20"><path fill="currentColor" d="M13.25 1A5.75 5.75 0 0 1 19 6.75v6.5A5.75 5.75 0 0 1 13.25 19h-6.5A5.75 5.75 0 0 1 1 13.25v-6.5A5.75 5.75 0 0 1 6.75 1zm-6.5 1.5A4.25 4.25 0 0 0 2.5 6.75v6.5a4.25 4.25 0 0 0 4.25 4.25h6.5a4.25 4.25 0 0 0 4.25-4.25v-6.5a4.25 4.25 0 0 0-4.25-4.25zm1 3.5a.75.75 0 0 1 .75.75v6.5a.75.75 0 0 1-1.5 0v-6.5A.75.75 0 0 1 7.75 6m4.95.241a.75.75 0 0 1 1.1 1.018L11.27 10l2.53 2.741a.75.75 0 0 1-1.1 1.018l-3-3.25a.75.75 0 0 1 0-1.018z"/></svg>