<svg xmlns="http://www.w3.org/2000/svg" width="12" height="12" fill="none" data-fui-icon="true" viewBox="0 0 12 12"><path stroke="currentColor" stroke-linecap="round" stroke-linejoin="round" stroke-width="1.5" d="M8.297 2.25H9c.518 0 .938.42.938.938v7.124c0 .518-.42.938-.938.938H3a.937.937 0 0 1-.937-.937V3.186c0-.517.42-.937.937-.937h.703m1.047 3.5h2.5m-2.5 3h2.5"/><path stroke="currentColor" stroke-linecap="round" stroke-linejoin="round" stroke-width="1.5" d="M4 2.5v-1a.75.75 0 0 1 .75-.75h2.5A.75.75 0 0 1 8 1.5v1a.75.75 0 0 1-.75.75h-2.5A.75.75 0 0 1 4 2.5"/></svg>