<svg xmlns="http://www.w3.org/2000/svg" width="12" height="12" fill="none" data-fui-icon="true" viewBox="0 0 12 12"><path fill="currentColor" d="M6.003.636a1.75 1.75 0 0 1 1.534 2.009l-.153.98H9.13a2.25 2.25 0 0 1 2.223 2.589l-.418 2.75a2.25 2.25 0 0 1-2.224 1.911H1.875c-.69 0-1.25-.56-1.25-1.25v-3.75c0-.69.56-1.25 1.25-1.25h1.106l1.712-3.322A1.25 1.25 0 0 1 5.806.625zM2.125 9.375h.5v-3.25h-.5zm2-3.693v3.693h4.586a.75.75 0 0 0 .741-.637l.42-2.75a.75.75 0 0 0-.742-.863H6.508a.75.75 0 0 1-.741-.865l.288-1.847a.25.25 0 0 0-.118-.25z"/></svg>