<svg xmlns="http://www.w3.org/2000/svg" width="24" height="24" fill="none" data-fui-icon="true" viewBox="0 0 24 24"><path fill="currentColor" d="M10.5 4a.75.75 0 0 1 0 1.5H5.32A1.82 1.82 0 0 0 3.5 7.32v11.36a1.82 1.82 0 0 0 1.82 1.82h11.36a1.82 1.82 0 0 0 1.82-1.82V13.5a.75.75 0 0 1 1.5 0v5.18A3.32 3.32 0 0 1 16.68 22H5.32A3.32 3.32 0 0 1 2 18.68V7.32A3.32 3.32 0 0 1 5.32 4zm10.75-2a.75.75 0 0 1 .75.75V9a.75.75 0 0 1-1.5 0V4.56l-8.22 8.22a.75.75 0 1 1-1.06-1.06l8.22-8.22H15A.75.75 0 0 1 15 2z"/></svg>