<svg xmlns="http://www.w3.org/2000/svg" width="32" height="32" fill="none" data-fui-icon="true" viewBox="0 0 32 32"><path fill="currentColor" d="M12.519 4.46q.307.555.574 1.13a23.2 23.2 0 0 1 5.806 0q.267-.575.575-1.13l.259-.463.522.089c1.885.32 3.727.858 5.49 1.6l.75.33.189.087.117.172c3.41 5.013 5.114 10.69 4.487 17.228l-.031.331-.268.2a25 25 0 0 1-7.657 3.859l-.505.152-.314-.424a18.6 18.6 0 0 1-1.656-2.682l-.115-.225a18 18 0 0 1-4.742.635c-1.608 0-3.205-.216-4.749-.636l-.112.223c-.476.94-1.03 1.838-1.656 2.684l-.315.426-.507-.154a25.1 25.1 0 0 1-7.65-3.862l-.269-.198-.03-.333c-.535-5.636.54-11.366 4.473-17.216l.117-.175.191-.087a25 25 0 0 1 6.243-1.935l.524-.09zm8.013 1.203q-.262.511-.488 1.04l-.227.535-.575-.088a21.7 21.7 0 0 0-6.492 0l-.574.088-.228-.535q-.226-.528-.489-1.039c-1.772.346-3.5.893-5.148 1.634-3.552 5.363-4.562 10.575-4.136 15.725a23.6 23.6 0 0 0 6.411 3.27q.443-.639.827-1.316a17 17 0 0 1-1.83-.936l-.978-.58.92-.671q.3-.22.597-.451l.363-.281.416.196a16.61 16.61 0 0 0 14.198 0l.43-.202.366.3q.284.235.56.424l.974.663-1.013.602q-.89.527-1.836.939.385.676.828 1.315a23.5 23.5 0 0 0 6.414-3.269c.497-5.946-1.05-11.114-4.143-15.731a23.4 23.4 0 0 0-5.147-1.632m-9.41 8.5c1.484 0 2.67 1.332 2.645 2.955-.026 1.624-1.166 2.944-2.64 2.944-1.446 0-2.641-1.32-2.642-2.944s1.154-2.955 2.637-2.955m9.751 0c1.486 0 2.662 1.332 2.637 2.955-.026 1.624-1.163 2.943-2.637 2.944-1.449 0-2.64-1.32-2.64-2.944s1.154-2.955 2.64-2.955"/></svg>