<svg xmlns="http://www.w3.org/2000/svg" width="32" height="32" fill="none" data-fui-icon="true" viewBox="0 0 32 32"><path fill="currentColor" d="M20.25 1A3.75 3.75 0 0 1 24 4.75v7.545c0 .356.078.707.227 1.03l2.479 5.348C27.857 21.158 26.042 24 23.303 24H16.75v6.25a.75.75 0 0 1-1.5 0V24H8.696c-2.739 0-4.554-2.842-3.402-5.327l2.478-5.348c.15-.322.228-.674.228-1.03V4.75A3.75 3.75 0 0 1 11.75 1zm-8.5 1.5A2.25 2.25 0 0 0 9.5 4.75v7.545a3.95 3.95 0 0 1-.367 1.66l-2.478 5.349c-.69 1.49.398 3.195 2.04 3.196h14.608c1.644 0 2.732-1.705 2.041-3.196l-2.478-5.349a3.95 3.95 0 0 1-.366-1.66V4.75a2.25 2.25 0 0 0-2.25-2.25z"/></svg>