<svg xmlns="http://www.w3.org/2000/svg" width="24" height="24" fill="none" data-fui-icon="true" viewBox="0 0 24 24"><path fill="currentColor" fill-rule="evenodd" d="M19.25 1a.75.75 0 0 0-.75.75q-.002.65-.096 1.25H5.595A8 8 0 0 1 5.5 1.75a.75.75 0 1 0-1.5 0C4 4.6 5.207 6.793 6.747 8.525c1.244 1.4 2.739 2.533 4.001 3.475-1.262.942-2.757 2.075-4.001 3.475C5.207 17.208 4 19.4 4 22.25a.75.75 0 0 0 1.5 0q.001-.65.095-1.25h12.809q.095.6.096 1.25a.75.75 0 0 0 1.5 0c0-3.943-2.307-6.616-4.6-8.565a.75.75 0 0 0-.971 1.143c.437.371.862.76 1.263 1.172H8.307c1.088-1.117 2.329-2.043 3.47-2.895l.662-.497q.002 0 .005-.004l.022-.016q.3-.229.63-.472c1.294-.965 2.862-2.134 4.157-3.591C18.793 6.793 20 4.6 20 1.75a.75.75 0 0 0-.75-.75m-2.3 16.5h-9.9a8.8 8.8 0 0 0-1.064 2h12.027a8.8 8.8 0 0 0-1.064-2m-9.9-11h9.9a8.8 8.8 0 0 0 1.064-2H5.986c.267.72.631 1.384 1.064 2M15.692 8H8.307c1.088 1.117 2.329 2.043 3.47 2.895l.223.167.223-.167c1.14-.852 2.382-1.778 3.47-2.895" clip-rule="evenodd"/></svg>