<svg xmlns="http://www.w3.org/2000/svg" width="24" height="24" fill="none" data-fui-icon="true" viewBox="0 0 24 24"><path fill="currentColor" d="M12.017 0a.75.75 0 0 1 .75.75v1.215c4.262.282 5.909 2.96 6.22 4.45a.75.75 0 0 1-1.469.307c-.18-.86-1.275-2.986-4.75-3.255v7.912c1.35.258 2.776.571 3.903 1.202.667.374 1.261.874 1.684 1.562.425.69.648 1.523.648 2.511 0 2.373-2.125 5.082-6.236 5.376v1.218a.75.75 0 0 1-1.5 0V22.03c-1.99-.138-3.406-.82-4.394-1.686a6.33 6.33 0 0 1-1.837-2.8.75.75 0 1 1 1.428-.458 4.83 4.83 0 0 0 1.398 2.129c.71.623 1.781 1.18 3.405 1.313v-7.91c-1.351-.258-2.776-.57-3.903-1.201-.668-.374-1.262-.873-1.685-1.562s-.647-1.522-.647-2.51c0-2.373 2.127-5.082 6.235-5.378V.75a.75.75 0 0 1 .75-.75m.75 20.527c3.39-.28 4.735-2.449 4.736-3.873 0-.756-.168-1.307-.425-1.725-.26-.421-.64-.759-1.14-1.04-.843-.47-1.937-.738-3.17-.982zm-1.5-17.056c-3.389.281-4.735 2.45-4.735 3.874 0 .756.168 1.306.425 1.724.258.421.64.759 1.14 1.04.842.47 1.937.737 3.17.98z"/></svg>