<svg xmlns="http://www.w3.org/2000/svg" width="16" height="16" fill="none" data-fui-icon="true" viewBox="0 0 16 16"><path fill="currentColor" d="M8 2.808c1.691 0 1.891.006 2.56.037.4.004.798.078 1.175.218.275.101.524.263.728.474.21.204.373.453.474.728.14.377.213.774.218 1.176.03.668.037.868.037 2.559s-.006 1.891-.037 2.56c-.005.4-.078.798-.218 1.175a2.1 2.1 0 0 1-1.202 1.202c-.377.14-.774.213-1.176.218-.668.03-.868.037-2.559.037s-1.891-.006-2.56-.037a3.5 3.5 0 0 1-1.176-.218 2 2 0 0 1-.727-.474 2 2 0 0 1-.474-.728 3.5 3.5 0 0 1-.218-1.176c-.03-.668-.037-.868-.037-2.559s.006-1.891.037-2.56c.004-.4.078-.798.218-1.175.101-.275.263-.524.474-.728.204-.21.453-.373.728-.474.377-.14.774-.214 1.176-.218.668-.03.868-.037 2.559-.037m0-1.141c-1.72 0-1.936.007-2.611.038-.525.01-1.045.11-1.537.294-.423.16-.806.409-1.122.731a3.1 3.1 0 0 0-.731 1.122 4.7 4.7 0 0 0-.294 1.537c-.031.675-.038.891-.038 2.611s.007 1.936.038 2.611c.01.525.11 1.045.294 1.537.16.423.409.806.731 1.123.316.322.7.571 1.122.73a4.6 4.6 0 0 0 1.537.294c.675.031.891.038 2.611.038s1.936-.007 2.611-.038a4.6 4.6 0 0 0 1.537-.294 3.24 3.24 0 0 0 1.853-1.853 4.6 4.6 0 0 0 .294-1.537c.031-.675.038-.891.038-2.611s-.007-1.936-.038-2.611a4.6 4.6 0 0 0-.294-1.537 3.1 3.1 0 0 0-.731-1.122 3.1 3.1 0 0 0-1.122-.731 4.7 4.7 0 0 0-1.537-.294C9.936 1.674 9.72 1.667 8 1.667m0 3.08a3.252 3.252 0 1 0 0 6.505 3.252 3.252 0 0 0 0-6.504m0 5.364A2.111 2.111 0 1 1 8 5.89a2.111 2.111 0 0 1 0 4.222m3.38-6.252a.76.76 0 1 0 0 1.52.76.76 0 0 0 0-1.52"/></svg>