<svg xmlns="http://www.w3.org/2000/svg" width="12" height="12" fill="none" data-fui-icon="true" viewBox="0 0 12 12"><g clip-path="url(#a)"><path fill="currentColor" d="M7.203.146a3.3 3.3 0 0 1 3.957 2.473l.317 1.37a.293.293 0 0 1-.22.353l-3.06.706a2.567 2.567 0 0 0-1.923 3.078l.706 3.06a.293.293 0 0 1-.22.351l-1.37.317A3.3 3.3 0 0 1 1.432 9.38l-.99-4.288a3.3 3.3 0 0 1 2.473-3.957zm3.964 5.756a.28.28 0 0 1 .344.324 7.28 7.28 0 0 1-2.725 4.362.28.28 0 0 1-.443-.167l-.608-2.633a1.067 1.067 0 0 1 .8-1.278z"/></g><defs><clipPath id="a"><path fill="currentColor" d="M0 0h12v12H0z"/></clipPath></defs></svg>