<svg xmlns="http://www.w3.org/2000/svg" width="32" height="32" fill="none" data-fui-icon="true" viewBox="0 0 32 32"><path fill="currentColor" fill-rule="evenodd" d="M29.198 13.272a1.74 1.74 0 0 0 .466-1.817 1.75 1.75 0 0 0-1.448-1.203L20.95 9.3a.26.26 0 0 1-.203-.146L17.589 2.58a1.75 1.75 0 0 0-1.59-.998c-.683 0-1.292.382-1.588.998l-3.158 6.573a.26.26 0 0 1-.203.146l-7.267.95a1.74 1.74 0 0 0-1.447 1.204 1.74 1.74 0 0 0 .466 1.817l5.312 5.008a.26.26 0 0 1 .077.233l-1.334 7.156c-.125.67.14 1.337.692 1.74a1.75 1.75 0 0 0 1.878.128l6.446-3.475a.27.27 0 0 1 .252 0l6.446 3.475a1.76 1.76 0 0 0 1.878-.127c.552-.403.817-1.07.692-1.741l-1.334-7.156a.25.25 0 0 1 .077-.232l5.312-5.01zm-6.863 5.517 1.334 7.155a.25.25 0 0 1-.102.254.25.25 0 0 1-.282.019l-6.446-3.475A1.76 1.76 0 0 0 16 22.53V3.085c.062 0 .175.019.237.147l3.158 6.574c.259.538.767.905 1.36.983l7.266.95a.25.25 0 0 1 .215.179.24.24 0 0 1-.068.264l-5.312 5.009a1.75 1.75 0 0 0-.522 1.598" clip-rule="evenodd"/></svg>