<svg xmlns="http://www.w3.org/2000/svg" width="12" height="12" fill="none" data-fui-icon="true" viewBox="0 0 12 12"><path fill="currentColor" d="M10.72.22a.75.75 0 1 1 1.06 1.06l-.626.625a2.1 2.1 0 0 1 .221.971v5.25a1.75 1.75 0 0 1-1.75 1.75H7.778l-.98.812a1.25 1.25 0 0 1-1.51.063l-.09-.068-.963-.808h-1.05L1.28 11.78a.75.75 0 1 1-1.06-1.06zM4.167 9.818l-.002-.002h-.002zm.478-1.403c.175.046.34.132.483.252l.874.731.889-.735h.002c.222-.184.503-.287.795-.287h1.937a.25.25 0 0 0 .25-.25v-4.94zm2.574-7.29a.75.75 0 0 1 0 1.5H2.375a.25.25 0 0 0-.25.25v4.5a.75.75 0 0 1-1.5 0v-4.5c0-.966.784-1.75 1.75-1.75z"/></svg>