<svg xmlns="http://www.w3.org/2000/svg" width="24" height="24" fill="none" data-fui-icon="true" viewBox="0 0 24 24"><path fill="currentColor" fill-rule="evenodd" d="M10.984 2.789a1.93 1.93 0 0 1 2.032 0l6.75 4.17c.456.281.734.78.734 1.316v7.45c0 .536-.278 1.034-.734 1.316l-6.75 4.17a1.93 1.93 0 0 1-2.032 0l-6.75-4.17a1.55 1.55 0 0 1-.734-1.316v-7.45c0-.536.278-1.035.734-1.316zM12 1c-.637 0-1.262.177-1.805.513l-6.75 4.17A3.05 3.05 0 0 0 2 8.274v7.45c0 1.056.547 2.037 1.446 2.593l6.75 4.17a3.43 3.43 0 0 0 3.609 0l6.75-4.17A3.05 3.05 0 0 0 22 15.725v-7.45a3.05 3.05 0 0 0-1.446-2.593l-6.75-4.17A3.43 3.43 0 0 0 12 1m-.003 9.906L6.97 8.186a.75.75 0 1 0-.714 1.319l4.987 2.699v5.926a.75.75 0 1 0 1.5 0v-5.922l4.995-2.703a.75.75 0 1 0-.714-1.32z" clip-rule="evenodd"/></svg>