<svg xmlns="http://www.w3.org/2000/svg" width="12" height="12" fill="none" data-fui-icon="true" viewBox="0 0 12 12"><path fill="currentColor" d="M.22.22a.75.75 0 0 1 1.06 0l10.5 10.5a.75.75 0 1 1-1.06 1.06L8.58 9.64a.202.202 0 0 0-.339.095c-.33 1.32-1.973 1.776-2.935.814l-1.19-1.191a.3.3 0 0 0-.425 0l-1.378 1.38a.75.75 0 0 1-1.061-1.062l1.379-1.379a.3.3 0 0 0 0-.424l-1.19-1.19c-.962-.962-.508-2.606.812-2.936a.203.203 0 0 0 .094-.34L.22 1.28a.75.75 0 0 1 0-1.06m2.397 4.982a.25.25 0 0 0-.116.42l3.865 3.865a.25.25 0 0 0 .42-.115l.264-1.056a.3.3 0 0 0-.08-.285L3.957 5.017a.3.3 0 0 0-.285-.08zm3.76-3.834a1.75 1.75 0 0 1 2.477 0l1.767 1.768a1.75 1.75 0 0 1 0 2.474l-.713.713a.3.3 0 0 1-.424 0l-.636-.636a.3.3 0 0 1 0-.425l.713-.712a.25.25 0 0 0 0-.354L7.793 2.43a.25.25 0 0 0-.354 0l-.713.712a.3.3 0 0 1-.424 0l-.637-.637a.3.3 0 0 1 0-.424z"/></svg>