<svg xmlns="http://www.w3.org/2000/svg" width="32" height="32" fill="none" data-fui-icon="true" viewBox="0 0 32 32"><path fill="currentColor" d="M16 4.25c3.572 0 4.02.014 5.44.08a8.2 8.2 0 0 1 2.734.507h-.001c.68.252 1.298.65 1.806 1.169l.19.197c.434.47.772 1.022.994 1.623l.114.332c.249.771.382 1.575.394 2.386l.04.952c.031.896.039 1.814.039 4.504 0 3.585-.014 4.024-.08 5.456a8.2 8.2 0 0 1-.507 2.717l-.004.01a5.2 5.2 0 0 1-2.976 2.976l-.01.004-.26-.703-.006-.013.266.716c-.875.324-1.8.495-2.733.508-1.42.065-1.868.079-5.44.079s-4.02-.014-5.441-.08a8.2 8.2 0 0 1-2.734-.507 4.9 4.9 0 0 1-1.82-1.184v-.002a4.9 4.9 0 0 1-1.167-1.804 8.2 8.2 0 0 1-.509-2.717c-.065-1.432-.079-1.87-.079-5.456 0-3.585.014-4.024.08-5.456a8.2 8.2 0 0 1 .507-2.718 4.9 4.9 0 0 1 1.184-1.82 4.9 4.9 0 0 1 1.805-1.168 8.2 8.2 0 0 1 2.733-.509c1.42-.065 1.868-.079 5.441-.079m0 1.5c-3.58 0-3.99.013-5.388.077l-.025.001c-.765.01-1.522.15-2.24.415v.001a3.4 3.4 0 0 0-1.28.838 3.4 3.4 0 0 0-.823 1.265 6.7 6.7 0 0 0-.416 2.24v.025C5.762 12.01 5.75 12.421 5.75 16c0 3.58.013 3.99.077 5.388l.001.025c.01.765.15 1.522.415 2.24h.001l.071.177c.152.35.36.671.619.951l.132.137.016.016c.354.365.787.645 1.264.822a6.7 6.7 0 0 0 2.24.416h.026c1.398.065 1.809.078 5.388.078 3.58 0 3.99-.013 5.388-.077l.025-.001a6.7 6.7 0 0 0 2.23-.412 3.7 3.7 0 0 0 2.117-2.117 6.7 6.7 0 0 0 .412-2.23v-.025c.065-1.398.078-1.809.078-5.388 0-3.58-.013-3.99-.077-5.388l-.001-.025a6.7 6.7 0 0 0-.415-2.24h-.001l.704-.26.11-.041-.814.3a3.4 3.4 0 0 0-.838-1.28c-.31-.32-.68-.574-1.088-.75l-.177-.072a6.7 6.7 0 0 0-2.24-.416h-.025C19.99 5.762 19.579 5.75 16 5.75m-1.102 4.708a5.65 5.65 0 0 1 5.8 2.402 5.65 5.65 0 0 1-.702 7.135 5.652 5.652 0 0 1-9.537-5.097 5.65 5.65 0 0 1 4.44-4.44m2.69 1.707a4.152 4.152 0 0 0-5.422 5.423A4.152 4.152 0 0 0 20.15 16a4.15 4.15 0 0 0-2.561-3.835m5.174-4.446a1.625 1.625 0 0 1 1.35 2.525 1.626 1.626 0 0 1-2.945-.585 1.624 1.624 0 0 1 1.595-1.94"/></svg>