<svg xmlns="http://www.w3.org/2000/svg" width="32" height="32" fill="none" data-fui-icon="true" viewBox="0 0 32 32"><path fill="currentColor" d="M10.667 16.25c2.542 0 4.597 1.013 6.103 2.697 1.49 1.667 2.416 3.96 2.81 6.513.195 1.261-.823 2.29-2.014 2.29H3.768c-1.192 0-2.21-1.029-2.015-2.29.394-2.553 1.32-4.846 2.81-6.513 1.507-1.684 3.562-2.697 6.104-2.697m12 0c2.225 0 4.036.86 5.373 2.3 1.324 1.426 2.155 3.385 2.527 5.565.216 1.272-.814 2.302-2.002 2.302h-4.898a.75.75 0 0 1 0-1.5h4.898c.362 0 .567-.293.523-.55-.337-1.977-1.073-3.64-2.146-4.796-1.06-1.14-2.474-1.82-4.275-1.821a6.3 6.3 0 0 0-1.502.174.75.75 0 0 1-.355-1.457 7.8 7.8 0 0 1 1.857-.217m-12 1.5c-2.101 0-3.755.82-4.985 2.196-1.245 1.393-2.083 3.388-2.446 5.743-.042.27.174.561.532.561h13.798c.357 0 .574-.292.532-.561-.363-2.355-1.201-4.35-2.446-5.743-1.23-1.376-2.883-2.196-4.985-2.196m0-13.5a5.084 5.084 0 1 1-.001 10.167 5.084 5.084 0 0 1 .001-10.167m12 1.333a4.417 4.417 0 1 1-.002 8.834 4.417 4.417 0 0 1 .002-8.834m-12 .167a3.584 3.584 0 1 0 0 7.168 3.584 3.584 0 0 0 0-7.168m12 1.333a2.917 2.917 0 1 0 0 5.834 2.917 2.917 0 0 0 0-5.834"/></svg>