<svg xmlns="http://www.w3.org/2000/svg" width="20" height="20" fill="none" data-fui-icon="true" viewBox="0 0 20 20"><path fill="currentColor" d="M18.72.22a.75.75 0 1 1 1.06 1.06l-18.5 18.5a.75.75 0 1 1-1.06-1.06zm-2.297 6.538a.29.29 0 0 1 .496.164c.039.317.063.61.077.868.034.624.23 1.192.589 1.606l.377.434A4.333 4.333 0 0 1 14.688 17h-1.164a.32.32 0 0 0-.31.28c-.112.793-.473 1.44-.997 1.906-.623.553-1.432.814-2.217.814s-1.594-.261-2.217-.814c-.55-.49-.92-1.178-1.01-2.025A.18.18 0 0 0 6.596 17a.172.172 0 0 1-.121-.294l1.118-1.118a.3.3 0 0 1 .212-.088h6.882a2.833 2.833 0 0 0 2.14-4.687l-.376-.435c-.625-.721-.907-1.633-.954-2.508l-.002-.039a.3.3 0 0 1 .086-.232zM8.598 17c-.178 0-.32.156-.271.327.09.322.255.562.452.737.315.28.756.436 1.221.436s.906-.156 1.22-.436c.198-.175.364-.415.454-.737.049-.171-.093-.327-.271-.327zM10 0c2.103 0 3.607.712 4.663 1.746a.29.29 0 0 1-.002.412l-.635.633a.317.317 0 0 1-.442-.003C12.792 2.026 11.658 1.5 10 1.5c-2.339 0-3.636 1.044-4.402 2.322C4.8 5.152 4.56 6.778 4.502 7.87c-.047.875-.33 1.787-.954 2.508l-.376.434a2.83 2.83 0 0 0-.454 2.99.32.32 0 0 1-.06.357l-.678.678c-.133.133-.355.112-.447-.052a4.33 4.33 0 0 1 .505-4.955l.377-.434c.358-.414.555-.982.589-1.606.063-1.184.323-3.099 1.307-4.74C5.326 1.359 7.092 0 10 0"/></svg>