<svg xmlns="http://www.w3.org/2000/svg" width="32" height="32" fill="none" data-fui-icon="true" viewBox="0 0 32 32"><path fill="currentColor" d="M17.045.5c.74 0 1.4.465 1.648 1.161l.3.839h1.756c.88 0 1.61.651 1.732 1.5h1.769a3.25 3.25 0 0 1 3.25 3.25v20.5A3.25 3.25 0 0 1 24.25 31H7.75a3.25 3.25 0 0 1-3.25-3.25V7.25A3.25 3.25 0 0 1 7.75 4h1.77a1.75 1.75 0 0 1 1.731-1.5h1.756l.3-.839A1.75 1.75 0 0 1 14.955.5zm-9.295 5A1.75 1.75 0 0 0 6 7.25v20.5c0 .966.784 1.75 1.75 1.75h16.5A1.75 1.75 0 0 0 26 27.75V7.25a1.75 1.75 0 0 0-1.75-1.75H22.5v.25a1.75 1.75 0 0 1-1.75 1.75h-9.5A1.75 1.75 0 0 1 9.5 5.75V5.5zm14.5 18a.75.75 0 0 1 0 1.5H9.781a.75.75 0 0 1 0-1.5zm0-6a.75.75 0 0 1 0 1.5H9.781a.75.75 0 0 1 0-1.5zm0-6a.75.75 0 0 1 0 1.5H9.781a.75.75 0 0 1 0-1.5zM14.955 2a.25.25 0 0 0-.235.166l-.478 1.336-.048.107a.75.75 0 0 1-.658.391h-2.285a.25.25 0 0 0-.251.25v1.5c0 .138.112.25.25.25h9.5a.25.25 0 0 0 .25-.25v-1.5a.25.25 0 0 0-.251-.25h-2.285a.75.75 0 0 1-.706-.498l-.478-1.336A.25.25 0 0 0 17.045 2z"/></svg>