<svg xmlns="http://www.w3.org/2000/svg" width="32" height="32" fill="none" data-fui-icon="true" viewBox="0 0 32 32"><path fill="currentColor" d="M14.516 1.078a.75.75 0 0 1 .58 1.186c-2.924 4.1-2.547 9.829 1.131 13.508s9.408 4.054 13.508 1.131l.093-.057a.752.752 0 0 1 1.088.747C30.12 25.128 23.747 30.999 16.001 31 7.846 31 1.209 24.491 1.004 16.386l-.005-.387c0-7.746 5.871-14.12 13.406-14.917zm-1.524 1.759C6.984 4.204 2.5 9.577 2.5 15.999c0 7.456 6.046 13.501 13.502 13.501l.325-.004c6.278-.149 11.492-4.584 12.835-10.491-4.36 2.256-9.812 1.663-13.593-1.79l-.401-.383c-3.789-3.789-4.512-9.478-2.175-13.995"/></svg>