<svg xmlns="http://www.w3.org/2000/svg" width="20" height="20" fill="none" data-fui-icon="true" viewBox="0 0 20 20"><path fill="currentColor" d="M16.043 2.375a2.417 2.417 0 0 1 2.417 2.417v5.416a2.417 2.417 0 0 1-2.417 2.417h-.917v.917a2.416 2.416 0 0 1-2.416 2.416H8.946l-3.58 1.99a.75.75 0 0 1-1.115-.656v-1.334H3.96a2.417 2.417 0 0 1-2.417-2.416V8.125A2.42 2.42 0 0 1 3.96 5.708h1.125v-.916a2.417 2.417 0 0 1 2.416-2.417zM3.96 7.208a.92.92 0 0 0-.917.917v5.417c0 .506.411.916.917.916h1.041a.75.75 0 0 1 .75.75v.809l2.636-1.464a.75.75 0 0 1 .364-.095h3.959c.506 0 .916-.41.916-.916v-1.629l-.002-.038.002-.04v-3.71a.917.917 0 0 0-.916-.917zm3.541-3.333a.917.917 0 0 0-.916.917v.916h6.125a2.417 2.417 0 0 1 2.416 2.417v3h.917c.506 0 .917-.41.917-.917V4.792a.917.917 0 0 0-.917-.917z"/></svg>