<svg xmlns="http://www.w3.org/2000/svg" width="16" height="16" fill="none" data-fui-icon="true" viewBox="0 0 16 16"><path fill="currentColor" d="M4.25 5a.75.75 0 0 1 0 1.5H2.16a.66.66 0 0 0-.66.66v6.68c0 .364.296.66.66.66h5.68a.66.66 0 0 0 .66-.66v-1.09a.75.75 0 0 1 1.5 0v1.09A2.16 2.16 0 0 1 7.84 16H2.16A2.16 2.16 0 0 1 0 13.84V7.16A2.16 2.16 0 0 1 2.16 5zm9.59-5A2.16 2.16 0 0 1 16 2.16v6.68A2.16 2.16 0 0 1 13.84 11H8.16A2.16 2.16 0 0 1 6 8.84V2.16A2.16 2.16 0 0 1 8.16 0zM8.16 1.5a.66.66 0 0 0-.66.66v6.68c0 .364.296.66.66.66h5.68a.66.66 0 0 0 .66-.66V2.16a.66.66 0 0 0-.66-.66z"/></svg>