<svg xmlns="http://www.w3.org/2000/svg" width="16" height="16" fill="none" data-fui-icon="true" viewBox="0 0 16 16"><path fill="currentColor" d="M13.09 3.349a12 12 0 0 0-3.025-.936 8 8 0 0 0-.388.792 11.2 11.2 0 0 0-3.358 0 8 8 0 0 0-.387-.792c-1.046.179-2.064.494-3.029.938C.99 6.199.47 8.976.73 11.714a12.2 12.2 0 0 0 3.711 1.873q.45-.61.795-1.288a8 8 0 0 1-1.252-.6q.158-.117.307-.233a8.68 8.68 0 0 0 7.42 0q.15.126.307.232-.601.357-1.254.602.343.678.795 1.287a12.1 12.1 0 0 0 3.713-1.871c.305-3.176-.52-5.927-2.18-8.367M5.565 10.03c-.724 0-1.321-.66-1.321-1.472S4.82 7.082 5.56 7.082s1.335.665 1.322 1.477-.582 1.472-1.32 1.472m4.872 0c-.724 0-1.32-.66-1.32-1.472s.577-1.477 1.32-1.477 1.332.665 1.319 1.477-.582 1.472-1.319 1.472"/></svg>