<svg xmlns="http://www.w3.org/2000/svg" width="12" height="12" fill="none" data-fui-icon="true" viewBox="0 0 12 12"><g clip-path="url(#a)"><path fill="currentColor" d="M6.63.661c1.651 0 2.637.602 3.139 1.446q.107.182.179.364c.753.388 1.181.943 1.4 1.494.233.585.213 1.117.188 1.354q-.012.107-.025.194v.004a4.6 4.6 0 0 1-1.009 2.266c-.8.96-2.15 1.751-4.333 1.751h-.307l-.266 1.331c-.113.566-.61.974-1.187.974l-1.472-.001c-.71 0-1.241-.653-1.095-1.349l.007-.033h-.29A1.12 1.12 0 0 1 .468 9.095L2.051 1.97A1.67 1.67 0 0 1 3.683.66zm3.368 3.993a3.95 3.95 0 0 1-.903 1.511c-.809.848-2.15 1.526-4.308 1.526H4.45L3.989 9.54a1.2 1.2 0 0 1-.574.755l-.008.044h.764l.267-1.33.025-.105c.15-.51.621-.869 1.162-.869h.544c1.776 0 2.69-.622 3.181-1.21a3.1 3.1 0 0 0 .674-1.507v-.004c.009-.059.014-.106.02-.152.008-.087.016-.284-.046-.507M3.683 2.161c-.08 0-.15.056-.168.135l-1.48 6.66h.553l.462-1.848.03-.1a1.21 1.21 0 0 1 1.145-.817h.562c1.82 0 2.744-.559 3.223-1.061a2.4 2.4 0 0 0 .635-1.226l.015-.111c.016-.148.03-.565-.181-.919-.17-.286-.595-.713-1.849-.713z"/></g><defs><clipPath id="a"><path fill="currentColor" d="M0 0h12v12H0z"/></clipPath></defs></svg>