<svg xmlns="http://www.w3.org/2000/svg" width="12" height="12" fill="none" data-fui-icon="true" viewBox="0 0 12 12"><path fill="currentColor" d="M3.64 6.5A1.86 1.86 0 0 1 5.5 8.36v1.78A1.86 1.86 0 0 1 3.64 12H1.86A1.86 1.86 0 0 1 0 10.14V8.36A1.86 1.86 0 0 1 1.86 6.5zm6.5 0A1.86 1.86 0 0 1 12 8.36v1.78A1.86 1.86 0 0 1 10.14 12H8.36a1.86 1.86 0 0 1-1.86-1.86V8.36A1.86 1.86 0 0 1 8.36 6.5zM1.86 8a.36.36 0 0 0-.36.36v1.78c0 .198.162.36.36.36h1.78a.36.36 0 0 0 .36-.36V8.36A.36.36 0 0 0 3.64 8zm6.5 0a.36.36 0 0 0-.36.36v1.78c0 .198.162.36.36.36h1.78a.36.36 0 0 0 .36-.36V8.36a.36.36 0 0 0-.36-.36zM3.64 0A1.86 1.86 0 0 1 5.5 1.86v1.78A1.86 1.86 0 0 1 3.64 5.5H1.86A1.86 1.86 0 0 1 0 3.64V1.86A1.86 1.86 0 0 1 1.86 0zm6.5 0A1.86 1.86 0 0 1 12 1.86v1.78a1.86 1.86 0 0 1-1.86 1.86H8.36A1.86 1.86 0 0 1 6.5 3.64V1.86A1.86 1.86 0 0 1 8.36 0zM1.86 1.5a.36.36 0 0 0-.36.36v1.78c0 .198.162.36.36.36h1.78A.36.36 0 0 0 4 3.64V1.86a.36.36 0 0 0-.36-.36zm6.5 0a.36.36 0 0 0-.36.36v1.78c0 .198.162.36.36.36h1.78a.36.36 0 0 0 .36-.36V1.86a.36.36 0 0 0-.36-.36z"/></svg>