<svg xmlns="http://www.w3.org/2000/svg" width="24" height="24" fill="none" data-fui-icon="true" viewBox="0 0 24 24"><path fill="currentColor" d="M19.72 3.22a.75.75 0 0 1 1.06 1.06l-4.755 4.754a5 5 0 0 1-6.991 6.991L4.28 20.78a.75.75 0 0 1-1.06-1.06l4.754-4.755a5 5 0 0 1 6.991-6.991zm-.31 3.844a.75.75 0 0 1 1.06.008 22.2 22.2 0 0 1 3.372 4.449c.168.3.168.658 0 .958a22.2 22.2 0 0 1-3.527 4.605C18.327 19.055 15.488 21 12 21c-1.512 0-2.905-.366-4.155-.94a.751.751 0 0 1 .626-1.363c1.085.498 2.265.803 3.529.803 2.914 0 5.392-1.631 7.259-3.481a21 21 0 0 0 3.125-4.016 21 21 0 0 0-2.982-3.878.75.75 0 0 1 .008-1.06M12 3c1.511 0 2.903.366 4.154.94a.75.75 0 0 1-.625 1.364C14.443 4.805 13.264 4.5 12 4.5c-2.913 0-5.393 1.631-7.259 3.481a21 21 0 0 0-3.126 4.015 21 21 0 0 0 2.983 3.879.75.75 0 1 1-1.069 1.053 22.2 22.2 0 0 1-3.37-4.449.98.98 0 0 1 0-.958l.153-.267c.46-.78 1.626-2.605 3.373-4.338C5.673 4.945 8.512 3 12 3m-1.888 11.947a3.5 3.5 0 0 0 4.834-4.834zM12 8.5a3.5 3.5 0 0 0-2.947 5.386l4.833-4.833A3.5 3.5 0 0 0 12 8.5"/></svg>