<svg xmlns="http://www.w3.org/2000/svg" width="12" height="12" fill="none" data-fui-icon="true" viewBox="0 0 12 12"><path fill="currentColor" d="M3.852 2.56a.375.375 0 1 1 .408.63c-.805.523-1.45.978-1.887 1.582a3 3 0 0 0-.388.717 2.27 2.27 0 0 1 1.27-.384c1.231 0 2.245.974 2.245 2.197S4.486 9.5 3.255 9.5c-1.227 0-2.239-.97-2.245-2.187-.068-1.303.214-2.235.756-2.982.53-.73 1.289-1.252 2.086-1.77m5.5 0a.375.375 0 1 1 .408.63c-.805.523-1.45.978-1.887 1.582a3 3 0 0 0-.388.717 2.27 2.27 0 0 1 1.27-.384c1.231 0 2.244.974 2.245 2.197S9.986 9.5 8.755 9.5c-1.227 0-2.239-.97-2.245-2.187-.068-1.303.214-2.235.756-2.982.53-.73 1.289-1.252 2.086-1.77"/></svg>