<svg xmlns="http://www.w3.org/2000/svg" width="20" height="20" fill="none" data-fui-icon="true" viewBox="0 0 20 20"><path fill="currentColor" d="M13.25 1a.75.75 0 0 1 .75.75V3h1.68A3.32 3.32 0 0 1 19 6.32v9.36A3.32 3.32 0 0 1 15.68 19H4.32A3.32 3.32 0 0 1 1 15.68V6.32A3.32 3.32 0 0 1 4.32 3H6V1.75a.75.75 0 0 1 1.5 0V3h5V1.75a.75.75 0 0 1 .75-.75M2.5 15.68a1.82 1.82 0 0 0 1.82 1.82h11.36a1.82 1.82 0 0 0 1.82-1.82V8.5h-15zM4.32 4.5A1.82 1.82 0 0 0 2.5 6.32V7h15v-.68a1.82 1.82 0 0 0-1.82-1.82z"/></svg>