<svg xmlns="http://www.w3.org/2000/svg" width="32" height="32" fill="none" data-fui-icon="true" viewBox="0 0 32 32"><path fill="currentColor" d="M21.897 4.75a8.75 8.75 0 0 1 8.688 7.716l1.127 9.473a4.75 4.75 0 0 1-4.715 5.311h-.262a4.75 4.75 0 0 1-2.676-.825l-3.462-2.36a3.25 3.25 0 0 0-1.83-.565h-5.532c-.653 0-1.292.197-1.831.564l-3.461 2.36a4.75 4.75 0 0 1-2.676.826h-.262A4.75 4.75 0 0 1 .29 21.939l1.128-9.473a8.75 8.75 0 0 1 8.688-7.716zm-11.792 1.5a7.25 7.25 0 0 0-7.2 6.393l-1.127 9.473a3.25 3.25 0 0 0 3.227 3.634h.262c.653 0 1.292-.197 1.831-.564l3.461-2.36A4.75 4.75 0 0 1 13.235 22h5.532c.954 0 1.887.288 2.676.825l3.46 2.36c.54.368 1.179.565 1.832.565h.262a3.25 3.25 0 0 0 3.226-3.634l-1.127-9.473a7.25 7.25 0 0 0-7.199-6.393zm.394 4.5a.75.75 0 0 1 .75.75v2.25h2.25a.75.75 0 0 1 0 1.5h-2.25v2.25a.75.75 0 0 1-1.5 0v-2.25H7.5a.75.75 0 0 1 0-1.5h2.25V11.5a.75.75 0 0 1 .75-.75m9.251 4.75a1.25 1.25 0 1 1-.001 2.502 1.25 1.25 0 0 1 .002-2.502m3.1-4.501a1.251 1.251 0 1 1-.002 2.502A1.251 1.251 0 0 1 22.85 11"/></svg>