<svg xmlns="http://www.w3.org/2000/svg" width="12" height="12" fill="none" data-fui-icon="true" viewBox="0 0 12 12"><path fill="currentColor" d="M6.5 1.002a.75.75 0 0 1 .71.509l.926 2.727h1.727c.457 0 .935.176 1.302.433.353.247.773.697.773 1.329s-.42 1.082-.773 1.33c-.367.256-.846.432-1.302.432H8.136l-.926 2.726-.71-.24.71.24a.75.75 0 0 1-.71.51H4.938a.75.75 0 0 1-.748-.797l.152-2.44h-.68l-.995.994a.75.75 0 0 1-.53.22H.813A.75.75 0 0 1 .11 7.959L.854 6 .11 4.041a.75.75 0 0 1 .702-1.017h1.324l.146.015a.75.75 0 0 1 .384.205l.994.994h.68l-.151-2.44a.75.75 0 0 1 .748-.796zm-.611 3.94-.748.045v.001za.75.75 0 0 1-.748.797H3.35a.75.75 0 0 1-.532-.22l.532-.53-.532.53-.876-.876.415 1.092a.75.75 0 0 1 0 .532l-.415 1.09.876-.875c.141-.14.333-.22.532-.22h1.79a.75.75 0 0 1 .748.798l-.154 2.439h.228l.925-2.727.047-.11a.75.75 0 0 1 .663-.4h2.265a.9.9 0 0 0 .442-.16.6.6 0 0 0 .111-.101.6.6 0 0 0-.111-.102.87.87 0 0 0-.442-.16H7.598a.75.75 0 0 1-.663-.4l-.047-.109-.925-2.727h-.228z"/></svg>