<svg xmlns="http://www.w3.org/2000/svg" width="32" height="32" fill="none" data-fui-icon="true" viewBox="0 0 32 32"><path stroke="currentColor" stroke-width="1.5" d="M26.182 6.697a24.2 24.2 0 0 0-6.052-1.872 17 17 0 0 0-.775 1.584 22.4 22.4 0 0 0-6.717 0q-.346-.812-.775-1.584c-2.091.359-4.127.99-6.056 1.877-3.83 5.696-4.868 11.25-4.35 16.727a24.3 24.3 0 0 0 7.423 3.746c.601-.813 1.133-1.675 1.59-2.577a16 16 0 0 1-2.504-1.202q.316-.231.614-.463a17.36 17.36 0 0 0 14.84 0c.2.164.406.322.613.463-.799.475-1.638.877-2.507 1.204a18 18 0 0 0 1.59 2.574 24.2 24.2 0 0 0 7.426-3.743c.61-6.35-1.04-11.854-4.36-16.734Z"/><path fill="currentColor" d="M8.486 17.118c0 1.624 1.195 2.943 2.641 2.943 1.475 0 2.614-1.32 2.64-2.943.025-1.624-1.16-2.955-2.644-2.955s-2.637 1.331-2.637 2.955m9.747 0c0 1.624 1.19 2.943 2.64 2.943 1.474 0 2.611-1.32 2.637-2.943.025-1.624-1.151-2.955-2.637-2.955s-2.64 1.331-2.64 2.955"/></svg>