<svg xmlns="http://www.w3.org/2000/svg" width="20" height="20" fill="none" data-fui-icon="true" viewBox="0 0 20 20"><path fill="currentColor" d="M14.75 1a.75.75 0 0 1 0 1.5H13.5v5.29c0 .194.062.383.176.54l4.992 6.827c1.167 1.597.026 3.843-1.952 3.843H3.283c-1.978 0-3.118-2.246-1.951-3.843l4.99-6.827a.9.9 0 0 0 .178-.54V2.5H5.25a.75.75 0 0 1 0-1.5zM7.318 12.98c-.742-.137-1.62-.061-2.785.591a.7.7 0 0 1-.244.082l-1.746 2.389a.917.917 0 0 0 .74 1.458h13.433a.917.917 0 0 0 .74-1.458l-1.615-2.209c-1.217.825-2.302 1.14-3.33 1.093-1.118-.051-2.06-.529-2.864-.956-.845-.45-1.537-.843-2.329-.99M8 7.79c0 .512-.164 1.012-.466 1.426l-1.668 2.28a4.9 4.9 0 0 1 1.725.01c1.07.198 1.992.73 2.761 1.14.812.431 1.484.748 2.228.782.624.028 1.384-.144 2.376-.807l-2.49-3.405A2.4 2.4 0 0 1 12 7.789V2.5H8z"/></svg>