<svg xmlns="http://www.w3.org/2000/svg" width="24" height="24" fill="none" data-fui-icon="true" viewBox="0 0 24 24"><path fill="currentColor" d="M20.986 3.74c.153-.003.492.035.713.213.184.15.237.354.263.497.023.143.054.469.028.723-.276 2.903-1.476 9.947-2.086 13.198-.256 1.376-.765 1.837-1.258 1.882-1.07.098-1.882-.704-2.918-1.381-1.62-1.06-2.535-1.719-4.109-2.752-1.819-1.194-.638-1.851.398-2.924.27-.28 4.984-4.554 5.073-4.941.011-.05.022-.23-.087-.324-.107-.096-.265-.063-.38-.038-.166.039-2.753 1.745-7.77 5.119q-1.099.754-1.997.735c-.656-.014-1.922-.37-2.863-.675-1.15-.373-2.068-.571-1.988-1.206q.061-.495 1.37-1.015 8.055-3.496 10.74-4.61c5.115-2.121 6.178-2.49 6.871-2.502"/></svg>