<svg xmlns="http://www.w3.org/2000/svg" width="24" height="24" fill="none" data-fui-icon="true" viewBox="0 0 24 24"><path fill="currentColor" d="M2.095 2.095a.75.75 0 0 1 1.049-.01l18.771 18.771a.75.75 0 0 1-1.07 1.05l-3.574-3.574c-.175-.175-.468-.136-.61.066a5.23 5.23 0 0 1-4.286 2.228h-5.25a5.25 5.25 0 0 1-5.243-4.98l-.007-.27v-6.75a5.23 5.23 0 0 1 1.478-3.65.4.4 0 0 0 .006-.556L2.095 3.156a.75.75 0 0 1 0-1.06m2.852 3.913a.35.35 0 0 0-.497-.01 3.74 3.74 0 0 0-1.075 2.628v6.75l.005.193a3.75 3.75 0 0 0 3.745 3.557h5.25a3.75 3.75 0 0 0 3.327-2.023.35.35 0 0 0-.07-.41zm7.428-2.632a5.25 5.25 0 0 1 4.71 2.934c.118.24.436.317.633.137l1.143-1.041c1.252-1.142 3.264-.254 3.264 1.44v10.309l-.006.156a1.9 1.9 0 0 1-.254.823c-.108.186-.36.19-.512.039l-.672-.672c-.07-.07-.076-.177-.06-.275l.004-.071V6.846a.45.45 0 0 0-.753-.333L17.476 8.7c-.517.471-1.302.125-1.378-.516a3.75 3.75 0 0 0-3.723-3.308H8.211c-.1 0-.194-.04-.265-.11l-.979-.979c-.153-.154-.06-.411.158-.411z"/></svg>