<svg xmlns="http://www.w3.org/2000/svg" width="32" height="32" fill="none" data-fui-icon="true" viewBox="0 0 32 32"><g clip-path="url(#a)"><path fill="currentColor" fill-rule="evenodd" d="M5.584.407A.75.75 0 0 0 4.318.79a9.17 9.17 0 0 0 2.508 8.284L19.43 21.677a5.75 5.75 0 0 0 .496 7.567l.884.884a5.75 5.75 0 0 0 8.12.011l.011-.01 2.652-2.652a.75.75 0 0 0 0-1.061l-7.425-7.425.796-.795a.75.75 0 0 0-1.06-1.06l-.796.795zm2.303 7.606A7.67 7.67 0 0 1 5.64 2.585L22.047 18.99l-1.591 1.591zM27.682.79a.75.75 0 0 0-1.266-.383L17.404 9.42a.75.75 0 0 0 1.06 1.061l7.896-7.895a7.67 7.67 0 0 1-2.247 5.428l-4.058 4.058a.75.75 0 0 0 1.061 1.06l4.058-4.057A9.17 9.17 0 0 0 27.682.79M7.036 17.135a.75.75 0 0 1 1.06 0l.796.796 2.122-2.122.53-.53 1.06 1.06-.53.531-2.12 2.121 1.59 1.591 2.121-2.121.53-.53 1.061 1.06-.53.53-2.156 2.156a5.75 5.75 0 0 1-.496 7.567l-.883.884a5.75 5.75 0 0 1-8.132 0L.407 27.477a.75.75 0 0 1 0-1.061l7.425-7.425-.796-.795a.75.75 0 0 1 0-1.06m3.447 4.508-1.59-1.59-6.895 6.893 1.591 1.591zm.53 6.54a4.25 4.25 0 0 0 .484-5.433l-6.8 6.801a4.25 4.25 0 0 0 5.433-.483zm9.973 0a4.25 4.25 0 0 1-.483-5.433l6.8 6.801a4.25 4.25 0 0 1-5.433-.483zm7.425.354 1.591-1.59-6.894-6.895-1.591 1.591z" clip-rule="evenodd"/></g><defs><clipPath id="a"><path fill="currentColor" d="M0 0h32v32H0z"/></clipPath></defs></svg>