<svg xmlns="http://www.w3.org/2000/svg" width="32" height="32" fill="none" data-fui-icon="true" viewBox="0 0 32 32"><path fill="currentColor" d="M24.333 4.25a3.417 3.417 0 0 1 3.417 3.417V15a.75.75 0 0 1-1.5 0V7.667a1.917 1.917 0 0 0-1.917-1.917H7.667A1.917 1.917 0 0 0 5.75 7.667v16.666c0 1.059.858 1.917 1.917 1.917h8.666a.75.75 0 0 1 0 1.5H7.667a3.417 3.417 0 0 1-3.417-3.417V7.667A3.417 3.417 0 0 1 7.667 4.25zm0 14a.75.75 0 0 1 .75.75v3.25h3.25a.75.75 0 0 1 0 1.5h-3.25V27a.75.75 0 0 1-1.5 0v-3.25h-3.25a.75.75 0 0 1 0-1.5h3.25V19a.75.75 0 0 1 .75-.75"/></svg>