<svg xmlns="http://www.w3.org/2000/svg" width="16" height="16" fill="none" data-fui-icon="true" viewBox="0 0 16 16"><g clip-path="url(#a)"><path fill="currentColor" d="M12 .5A.75.75 0 0 1 12 2h-1v4.256c0 .117.035.231.1.328l3.852 5.661c.94 1.383-.05 3.255-1.722 3.255H2.77c-1.673 0-2.663-1.872-1.722-3.255l3.851-5.661a.6.6 0 0 0 .1-.328V2H4A.75.75 0 0 1 4 .5zM5.827 10.532c-.55-.102-1.21-.05-2.102.443l-1.437 2.114a.583.583 0 0 0 .481.911H13.23a.583.583 0 0 0 .482-.911l-1.189-1.747c-.902.562-1.727.785-2.52.749-.932-.043-1.713-.442-2.355-.783-.683-.364-1.216-.663-1.821-.776M6.5 6.256c0 .418-.126.826-.362 1.172L5.07 8.999c.357-.026.7-.004 1.031.058.884.163 1.644.604 2.252.927.65.346 1.162.582 1.719.608.42.019.934-.085 1.607-.493L9.86 7.428A2.1 2.1 0 0 1 9.5 6.256V2h-3z"/></g><defs><clipPath id="a"><path fill="currentColor" d="M0 0h16v16H0z"/></clipPath></defs></svg>