<svg xmlns="http://www.w3.org/2000/svg" width="24" height="24" fill="none" data-fui-icon="true" viewBox="0 0 24 24"><path fill="currentColor" d="M8.635 1c1.499 0 2.817.916 3.365 2.264A3.63 3.63 0 0 1 15.365 1h.385a3.25 3.25 0 0 1 2.727 5.018H21a2 2 0 0 1 2 2v1.99a2 2 0 0 1-2 2V20a3 3 0 0 1-3 3H6a3 3 0 0 1-3-3v-7.991a2 2 0 0 1-2-2V8.018a2 2 0 0 1 2-2h2.523A3.25 3.25 0 0 1 8.25 1zM4.5 20A1.5 1.5 0 0 0 6 21.5h5.25v-9.491H4.5zm8.25 1.5H18a1.5 1.5 0 0 0 1.5-1.5v-7.991h-6.75zM3 7.518a.5.5 0 0 0-.5.5v1.99a.5.5 0 0 0 .5.5h8.25v-2.99zm9.75 2.99H21a.5.5 0 0 0 .5-.5v-1.99a.5.5 0 0 0-.5-.5h-8.25zM8.25 2.5a1.75 1.75 0 1 0 0 3.5h2.835l-.357-1.784A2.135 2.135 0 0 0 8.636 2.5zm7.115 0a2.135 2.135 0 0 0-2.094 1.716L12.916 6h2.835a1.75 1.75 0 1 0 0-3.5z"/></svg>