<svg xmlns="http://www.w3.org/2000/svg" width="20" height="20" fill="none" data-fui-icon="true" viewBox="0 0 20 20"><path fill="currentColor" d="M10 0c5.523 0 10 4.477 10 10s-4.477 10-10 10S0 15.523 0 10 4.477 0 10 0m.007 3.75a.75.75 0 0 0-.75.75v.462c-1.9.275-2.991 1.585-2.991 2.879 0 .528.122.995.372 1.392.247.394.59.67.953.869.5.273 1.102.427 1.666.542v2.916c-.464-.097-.779-.277-.993-.46a1.86 1.86 0 0 1-.551-.82.75.75 0 0 0-1.426.468c.125.38.406.982 1.001 1.491.477.408 1.121.726 1.969.845v.416a.75.75 0 0 0 1.5 0v-.418c1.9-.275 2.99-1.583 2.991-2.877 0-.528-.122-.995-.372-1.392a2.54 2.54 0 0 0-.953-.869c-.5-.273-1.102-.43-1.666-.544V6.48c1.149.225 1.463.947 1.508 1.155a.75.75 0 1 0 1.467-.313c-.177-.824-1.02-2.1-2.975-2.363V4.5a.75.75 0 0 0-.75-.75m.75 7.188c.376.087.692.184.946.323.198.108.324.224.403.35.078.123.142.304.142.594 0 .367-.355 1.12-1.491 1.357zm-1.5-1.833c-.376-.086-.693-.181-.946-.32a1.05 1.05 0 0 1-.404-.35c-.077-.123-.141-.304-.141-.594 0-.366.354-1.121 1.49-1.358z"/></svg>