<svg xmlns="http://www.w3.org/2000/svg" width="16" height="16" fill="none" data-fui-icon="true" viewBox="0 0 16 16"><path fill="currentColor" d="M12.75 0A2.25 2.25 0 0 1 15 2.25v10.5a2.25 2.25 0 0 1-4.481.28L7.5 11.923v2.327a.75.75 0 0 1-1.5 0V11.5q0-.063.01-.123l-1.741-.639A2.247 2.247 0 0 1 0 9.75v-4.5a2.247 2.247 0 0 1 4.429-.548L10.5 2.476V2.25A2.25 2.25 0 0 1 12.75 0m0 1.5a.75.75 0 0 0-.75.75v10.5a.75.75 0 0 0 1.5 0V2.25a.75.75 0 0 0-.75-.75M4.5 6.273v2.953l6 2.2V4.073zM2.25 4.5a.75.75 0 0 0-.75.75v4.5a.75.75 0 0 0 1.5 0v-4.5a.75.75 0 0 0-.75-.75"/></svg>