<svg xmlns="http://www.w3.org/2000/svg" width="16" height="16" fill="none" data-fui-icon="true" viewBox="0 0 16 16"><path fill="currentColor" d="M3.963 12.5a.75.75 0 0 1 1.075 1.047l-1.111 1.142a.75.75 0 0 1-1.076-1.046zM2.48 10.978a.75.75 0 1 1 1.075 1.045l-1.851 1.906a.75.75 0 0 1-1.076-1.046zm11.114-9.869a1.343 1.343 0 0 1 1.293 1.45c-.202 2.557-1.47 4.532-3.304 6.279v2.6c0 .519-.284.996-.739 1.245l-2.334 1.272a1.417 1.417 0 0 1-2.094-1.244v-.974L4.263 9.583H3.29a1.417 1.417 0 0 1-1.244-2.095l1.273-2.333.104-.163a1.42 1.42 0 0 1 1.14-.575h2.599c1.746-1.836 3.722-3.104 6.28-3.306zm-5.678 10.68v.782l2.167-1.182v-1.322zm5.456-9.161c-2.063.217-3.717 1.287-5.319 3.03L5.577 8.774l1.646 1.647 3.12-2.477c1.742-1.601 2.813-3.255 3.03-5.318M3.43 8.083h.783l1.72-2.166H4.611zm7.398-4.067a1.125 1.125 0 1 1 0 2.25 1.125 1.125 0 0 1 0-2.25"/></svg>