<svg xmlns="http://www.w3.org/2000/svg" width="20" height="20" fill="none" data-fui-icon="true" viewBox="0 0 20 20"><g clip-path="url(#a)"><path fill="currentColor" d="M10 0c5.42 0 10 4.58 10 10s-4.58 10-10 10S0 15.42 0 10 4.58 0 10 0m0 12.25c-1.456 0-2.484.552-3.145 1.118-.326.28-.56.56-.715.775a4 4 0 0 0-.24.38l-.007.015-.001.001.487.244-.487-.243a.75.75 0 0 0 1.34.67v.003l.02-.035a2.992 2.992 0 0 1 .58-.67c.433-.372 1.124-.758 2.168-.758s1.735.386 2.168.757a3 3 0 0 1 .58.67l.02.036-.001-.002v-.001a.75.75 0 0 0 1.341-.67l-.487.243c.487-.243.487-.245.486-.245l-.007-.015a2 2 0 0 0-.063-.112c-.04-.068-.099-.16-.177-.268a4.5 4.5 0 0 0-.715-.775c-.661-.566-1.689-1.118-3.145-1.118m-4-4a1 1 0 1 0 0 2 1 1 0 0 0 0-2m8 0a1 1 0 1 0 0 2 1 1 0 0 0 0-2"/></g><defs><clipPath id="a"><path fill="currentColor" d="M0 0h20v20H0z"/></clipPath></defs></svg>