<svg xmlns="http://www.w3.org/2000/svg" width="24" height="24" fill="none" data-fui-icon="true" viewBox="0 0 24 24"><path fill="currentColor" d="M20.339 6.957a.75.75 0 0 1 .882.589q.174.869.175 1.787v6.194c0 .429.145.845.409 1.182l.654.837c.699.893.065 2.204-1.072 2.204H16.07V20c0 2.07-1.677 3.75-3.747 3.75A3.75 3.75 0 0 1 8.577 20v-1a.75.75 0 0 1 .75-.75h11.779l-.483-.616a3.42 3.42 0 0 1-.727-2.107V9.333q-.001-.769-.146-1.493a.75.75 0 0 1 .589-.883M10.077 20a2.25 2.25 0 0 0 2.246 2.25A2.25 2.25 0 0 0 14.57 20v-.25h-4.493zM21.47.47a.75.75 0 0 1 1.06 1.06l-19 19a.75.75 0 1 1-1.06-1.06zM12.323.25c1.418 0 2.762.326 3.96.908a.75.75 0 1 1-.657 1.349 7.5 7.5 0 0 0-3.303-.757c-4.181 0-7.573 3.394-7.573 7.583v4.502a.75.75 0 0 1-1.5 0V9.333C3.25 4.317 7.311.25 12.323.25"/></svg>