<svg xmlns="http://www.w3.org/2000/svg" width="20" height="20" fill="none" data-fui-icon="true" viewBox="0 0 20 20"><path fill="currentColor" d="M8.519 1.438c.898 0 1.681.485 2.106 1.208a2.441 2.441 0 0 1 3.724 2.076v.845c.217-.049.439-.067.651-.067.625 0 1.229.226 1.669.712.435.48.643 1.14.643 1.888v3.167c0 4.158-3.284 7.296-7.312 7.296s-7.312-3.138-7.312-7.296V5.565a2.44 2.44 0 0 1 3.446-2.221 2.44 2.44 0 0 1 2.385-1.906m0 1.5a.94.94 0 0 0-.945.939V10.1a.75.75 0 0 1-1.5 0V5.565a.94.94 0 0 0-.943-.938.94.94 0 0 0-.944.938v5.702c0 3.308 2.592 5.796 5.813 5.796s5.813-2.488 5.813-5.796V8.1c0-.477-.131-.743-.256-.881C15.437 7.086 15.258 7 15 7c-.356 0-.47.077-.508.113-.035.034-.143.172-.143.64 0 .645-.102 1.158-.27 1.595-.167.43-.388.757-.568 1.02-.346.5-.573.801-.573 1.507a.75.75 0 0 1-1.5 0c0-1.203.478-1.839.838-2.36.172-.25.305-.454.403-.708.095-.248.17-.575.17-1.053V4.722c0-.517-.42-.94-.944-.94a.94.94 0 0 0-.943.94v3.533a.75.75 0 0 1-1.5 0V3.877c0-.517-.42-.94-.943-.94"/></svg>