<svg xmlns="http://www.w3.org/2000/svg" width="16" height="16" fill="none" data-fui-icon="true" viewBox="0 0 16 16"><path fill="currentColor" d="M8 0c1.193 0 2.13 0 2.884.057.761.057 1.398.176 1.981.447a5.42 5.42 0 0 1 2.631 2.63c.271.584.39 1.22.447 1.982C16 5.87 16 6.806 16 8s0 2.13-.057 2.884c-.057.761-.176 1.398-.447 1.981a5.42 5.42 0 0 1-2.63 2.631c-.584.271-1.22.39-1.982.447C10.13 16 9.194 16 8 16s-2.13 0-2.884-.057c-.762-.057-1.398-.176-1.981-.447a5.42 5.42 0 0 1-2.631-2.63c-.271-.584-.39-1.22-.447-1.982C0 10.13 0 9.194 0 8s0-2.13.057-2.884c.057-.762.176-1.398.447-1.981A5.42 5.42 0 0 1 3.134.504c.584-.271 1.22-.39 1.982-.447C5.87 0 6.806 0 8 0M4.738 5.251A2.24 2.24 0 0 0 2.5 7.489v.85a2.407 2.407 0 0 0 2.406 2.407 1.88 1.88 0 0 0 1.88-1.879v-.18C6.784 8.03 6.253 7.5 5.598 7.5H5.5a.747.747 0 0 0-.229 1.46.38.38 0 0 1-.365.285A.907.907 0 0 1 4 8.34v-.85c0-.408.33-.739.738-.739.343 0 .533.087.618.14a.5.5 0 0 1 .08.06l.023.03a.751.751 0 0 0 1.2-.899l-.508.34c.467-.312.504-.339.506-.34V6.08h-.002l-.002-.005-.005-.008-.045-.06a1.929 1.929 0 0 0-.464-.396c-.323-.197-.783-.36-1.4-.36m3.557 0a.75.75 0 0 0-.75.75v3.995a.75.75 0 0 0 1.5 0V6.001a.75.75 0 0 0-.75-.75m2.905 0c-.69 0-1.25.56-1.25 1.25v3.495a.75.75 0 0 0 1.5 0V8.748h.987a.75.75 0 0 0 0-1.5h-.987v-.497h1.301a.75.75 0 0 0 0-1.5z"/></svg>