<svg xmlns="http://www.w3.org/2000/svg" width="24" height="24" fill="none" data-fui-icon="true" viewBox="0 0 24 24"><path fill="currentColor" d="M1.22 1.22a.75.75 0 0 1 1.06 0l20.5 20.5a.75.75 0 0 1-1.06 1.06L16.94 18h-3.89a.3.3 0 0 0-.3.3v3.95a.75.75 0 0 1-1.5 0V18.3a.3.3 0 0 0-.3-.3H6.56c-2.193 0-3.62-2.308-2.64-4.27l1.906-3.808c.115-.23.174-.482.174-.738V7.06L1.22 2.28a.75.75 0 0 1 0-1.061M15.05 1A2.95 2.95 0 0 1 18 3.95v5.234c0 .256.06.509.174.738l1.905 3.808a2.92 2.92 0 0 1-.02 2.673c-.086.167-.308.188-.44.055L6.29 3.13a.28.28 0 0 1-.065-.307A2.95 2.95 0 0 1 8.95 1z"/></svg>