<svg xmlns="http://www.w3.org/2000/svg" width="24" height="24" fill="none" data-fui-icon="true" viewBox="0 0 24 24"><path fill="currentColor" d="M12.086 2.25c-4.556 0-7.16 2.65-8.336 5.242V4a.75.75 0 0 0-1.5 0v5.058c0 .98.79 1.788 1.778 1.788H8a.75.75 0 0 0 0-1.5H4.675c.632-2.464 2.845-5.596 7.41-5.596 5.028 0 8.165 3.772 8.165 8.25s-3.137 8.25-8.164 8.25c-3.57 0-6.405-2.129-7.565-4.799a.75.75 0 0 0-1.376.598c1.39 3.202 4.757 5.701 8.94 5.701 5.945 0 9.665-4.535 9.665-9.75s-3.72-9.75-9.664-9.75m-.336 4A.75.75 0 0 0 11 7v5.5c0 .21.088.409.24.55l.069.056 2.75 2a.75.75 0 0 0 .882-1.212L12.5 12.118V7a.75.75 0 0 0-.75-.75"/></svg>