<svg xmlns="http://www.w3.org/2000/svg" width="24" height="24" fill="none" data-fui-icon="true" viewBox="0 0 24 24"><path fill="currentColor" d="M18.76 2A3.24 3.24 0 0 1 22 5.24v13.52A3.24 3.24 0 0 1 18.76 22H5.24A3.24 3.24 0 0 1 2 18.76V5.24A3.24 3.24 0 0 1 5.24 2zM5.24 3.5c-.96 0-1.74.78-1.74 1.74v13.52c0 .96.78 1.74 1.74 1.74h13.52c.96 0 1.74-.78 1.74-1.74V5.24c0-.96-.78-1.74-1.74-1.74zm2.07 11.56a1.25 1.25 0 1 1 0 2.5 1.25 1.25 0 0 1 0-2.5m7.94.5a.75.75 0 0 1 0 1.5h-3.5a.75.75 0 0 1 0-1.5zm-7.94-4.5a1.25 1.25 0 1 1 0 2.5 1.25 1.25 0 0 1 0-2.5m8.94.5a.75.75 0 0 1 0 1.5h-4.5a.75.75 0 0 1 0-1.5zm-8.94-4.5a1.25 1.25 0 1 1 0 2.5 1.25 1.25 0 0 1 0-2.5m9.94.5a.75.75 0 0 1 0 1.5h-5.5a.75.75 0 0 1 0-1.5z"/></svg>