<svg xmlns="http://www.w3.org/2000/svg" width="24" height="24" fill="none" data-fui-icon="true" viewBox="0 0 24 24"><path fill="currentColor" d="M12 0c6.627 0 12 5.373 12 12s-5.373 12-12 12S0 18.627 0 12 5.373 0 12 0m.01 4.35a.75.75 0 0 0-.75.75v.561c-2.474.282-3.844 1.945-3.845 3.52 0 .645.15 1.207.445 1.678.295.469.703.802 1.146 1.044.667.366 1.486.56 2.255.71v4.198c-.771-.114-1.284-.394-1.63-.69a2.6 2.6 0 0 1-.773-1.152.75.75 0 0 0-1.425.466 4.1 4.1 0 0 0 1.221 1.825c.613.526 1.462.936 2.607 1.062v.562a.75.75 0 0 0 1.5 0v-.563c2.475-.281 3.843-1.944 3.844-3.518q-.001-.97-.446-1.678c-.294-.469-.703-.801-1.145-1.044-.667-.365-1.485-.562-2.253-.712v-4.2c1.767.244 2.281 1.331 2.36 1.7a.75.75 0 0 0 1.467-.313c-.213-.997-1.27-2.628-3.827-2.898V5.1a.75.75 0 0 0-.75-.75m.75 8.55c.608.128 1.126.273 1.533.496.278.153.47.326.596.527.124.197.215.472.216.88 0 .628-.605 1.753-2.344 2.008zm-1.5-1.818c-.607-.128-1.125-.27-1.532-.494-.278-.152-.47-.325-.597-.526-.124-.198-.216-.473-.216-.881 0-.628.606-1.755 2.346-2.01z"/></svg>