<svg xmlns="http://www.w3.org/2000/svg" width="32" height="32" fill="none" data-fui-icon="true" viewBox="0 0 32 32"><path fill="currentColor" d="M16 2c6.351 0 11.5 5.149 11.5 11.5 0 2.148-.725 4.309-1.764 6.311-1.041 2.008-2.421 3.9-3.787 5.523a48 48 0 0 1-4.994 5.087q-.227.196-.35.3l-.094.08-.026.021q-.004.004-.006.005l-.003.003a.75.75 0 0 1-.842.074l-.11-.074-.002-.003-.007-.005-.026-.021-.094-.08q-.123-.104-.35-.3a48.002 48.002 0 0 1-4.994-5.087c-1.366-1.623-2.746-3.515-3.787-5.523C5.224 17.81 4.5 15.648 4.5 13.5 4.5 7.149 9.649 2 16 2m0 1.5c-5.523 0-10 4.477-10 10 0 1.82.62 3.738 1.596 5.62.974 1.877 2.281 3.676 3.603 5.248A46.5 46.5 0 0 0 16 29.263a46.509 46.509 0 0 0 4.8-4.894c1.323-1.573 2.63-3.372 3.604-5.249.977-1.882 1.596-3.8 1.596-5.62 0-5.523-4.477-10-10-10M16 8a5.5 5.5 0 1 1 0 11 5.5 5.5 0 0 1 0-11m0 1.5a4 4 0 1 0 0 8 4 4 0 0 0 0-8"/></svg>