<svg xmlns="http://www.w3.org/2000/svg" width="16" height="16" fill="none" data-fui-icon="true" viewBox="0 0 16 16"><path fill="currentColor" d="M12.35 8.23a.75.75 0 0 1 1.027.997l-.068.11-4.707 6.36a.75.75 0 0 1-1.205 0l-4.706-6.36a.75.75 0 0 1 .96-1.107L8 10.581zm-3.994 3.865a.75.75 0 0 1-.713 0L5.9 11.152 8 13.99l2.098-2.837zM8 0a.75.75 0 0 1 .594.292L13.3 6.397a.75.75 0 0 1-.193 1.091l-.073.041-4.706 2.29a.75.75 0 0 1-.656 0L2.966 7.53l-.074-.04A.75.75 0 0 1 2.7 6.396L7.406.292A.75.75 0 0 1 8 0M4.45 6.584 8 8.311l3.55-1.727L8 1.979z"/></svg>