<svg xmlns="http://www.w3.org/2000/svg" width="12" height="12" fill="none" data-fui-icon="true" viewBox="0 0 12 12"><path fill="currentColor" fill-rule="evenodd" d="M10.102 2.004c.452.14.807.55.928 1.073.22.947.22 2.923.22 2.923s0 1.976-.22 2.923c-.12.522-.476.933-.928 1.073C9.284 10.25 6 10.25 6 10.25s-3.284 0-4.102-.254c-.452-.14-.807-.55-.928-1.073C.75 7.976.75 6 .75 6s0-1.976.22-2.923c.12-.522.476-.933.928-1.073C2.716 1.75 6 1.75 6 1.75s3.284 0 4.102.254M7.757 6 4.899 7.65v-3.3z" clip-rule="evenodd"/></svg>