<svg xmlns="http://www.w3.org/2000/svg" width="12" height="12" fill="none" data-fui-icon="true" viewBox="0 0 12 12"><path fill="currentColor" d="M6 .4a5.6 5.6 0 0 1 .679 11.16l-.673.08V6.929h1.452l.06-.328H6.005V5.46c0-.46.085-.942.44-1.29.345-.34.82-.426 1.274-.429v-.258a5 5 0 0 0-.486-.03c-.75 0-1.174.176-1.418.425-.246.251-.422.69-.422 1.464V6.6H4.36v.328h1.032v4.692l-.745-.184A5.602 5.602 0 0 1 6 .4m0 1.2a4.4 4.4 0 0 0-1.808 8.412V8.128H3.16V5.4h1.032v-.058c0-.929.209-1.735.765-2.303.559-.57 1.357-.787 2.275-.787.327 0 .842.054 1.14.12a.695.695 0 0 1 .546.68v1.197a.704.704 0 0 1-.743.701 9 9 0 0 0-.435-.009c-.358 0-.443.073-.455.084-.008.009-.07.077-.078.375h1.751l-.13.708-.28 1.528-.09.492H7.206v2.103A4.4 4.4 0 0 0 6 1.6"/></svg>