<svg xmlns="http://www.w3.org/2000/svg" width="24" height="24" fill="none" data-fui-icon="true" viewBox="0 0 24 24"><path fill="currentColor" d="M7.814.5c.695 0 1.218.464 1.45.98a3 3 0 0 0 5.472 0c.232-.516.755-.98 1.45-.98h3.064a2.25 2.25 0 0 1 2.25 2.25v18.5a2.25 2.25 0 0 1-2.25 2.25h-3.064c-.695 0-1.218-.464-1.45-.98a3 3 0 0 0-5.472 0c-.232.516-.755.98-1.45.98H4.75a2.25 2.25 0 0 1-2.25-2.25V2.75A2.25 2.25 0 0 1 4.75.5zM4.75 2a.75.75 0 0 0-.75.75v18.5c0 .414.336.75.75.75h3.064c-.005 0 0 .003.017-.01a.2.2 0 0 0 .065-.085 4.5 4.5 0 0 1 8.209 0c.018.042.044.07.064.085.017.013.022.01.017.01h3.064a.75.75 0 0 0 .75-.75V2.75a.75.75 0 0 0-.75-.75h-3.064c.005 0 0-.003-.017.01a.2.2 0 0 0-.064.085 4.5 4.5 0 0 1-8.21 0 .2.2 0 0 0-.064-.085C7.814 1.997 7.81 2 7.814 2zm10.97 5.22a.75.75 0 1 1 1.06 1.06L13.06 12l3.72 3.72a.75.75 0 1 1-1.06 1.06L12 13.06l-3.72 3.72a.75.75 0 1 1-1.06-1.06L10.94 12 7.22 8.28a.75.75 0 1 1 1.06-1.06L12 10.94z"/></svg>