<svg xmlns="http://www.w3.org/2000/svg" width="32" height="32" fill="none" data-fui-icon="true" viewBox="0 0 32 32"><path fill="currentColor" fill-rule="evenodd" d="M14.023 5.154c1.262-1.094 3.227-.197 3.227 1.474v18.744c0 1.671-1.965 2.568-3.227 1.474l-4.386-3.802a3.25 3.25 0 0 0-2.13-.794H5.5a2.75 2.75 0 0 1-2.75-2.75v-7A2.75 2.75 0 0 1 5.5 9.75h2.008c.782 0 1.538-.282 2.129-.794zm1.727 1.474a.45.45 0 0 0-.745-.34l-4.386 3.802a4.75 4.75 0 0 1-3.111 1.16H5.5c-.69 0-1.25.56-1.25 1.25v7c0 .69.56 1.25 1.25 1.25h2.008a4.75 4.75 0 0 1 3.111 1.16l4.386 3.802a.45.45 0 0 0 .745-.34zm12.72 5.842a.75.75 0 1 1 1.06 1.06L27.06 16l2.47 2.47a.75.75 0 0 1-1.06 1.06L26 17.06l-2.47 2.47a.75.75 0 0 1-1.06-1.06L24.94 16l-2.47-2.47a.75.75 0 0 1 1.06-1.06L26 14.94z" clip-rule="evenodd"/></svg>