<svg xmlns="http://www.w3.org/2000/svg" width="32" height="32" fill="none" data-fui-icon="true" viewBox="0 0 32 32"><path fill="currentColor" d="M14.065 3.09c.872-1.468 2.998-1.468 3.87 0L31.3 25.602c.89 1.5-.191 3.398-1.935 3.398H2.635C.89 29-.19 27.103.7 25.603zM16 11a4.75 4.75 0 1 1 .004 9.5 4.75 4.75 0 0 1-.006-9.5c-3.095.001-5.294 1.385-6.76 2.898a12.3 12.3 0 0 0-2.333 3.472l-.116.272a1.3 1.3 0 0 0 .009 1.006C7.273 19.766 9.824 25 16 25c6.177 0 8.728-5.236 9.204-6.352.138-.324.14-.68.009-1.006a12.2 12.2 0 0 0-2.45-3.745c-1.466-1.513-3.667-2.896-6.763-2.896zm0 1.5a3.25 3.25 0 1 0 0 6.501 3.25 3.25 0 0 0 0-6.5"/></svg>