<svg xmlns="http://www.w3.org/2000/svg" width="16" height="16" fill="none" data-fui-icon="true" viewBox="0 0 16 16"><path fill="currentColor" d="M15.25 10a.75.75 0 0 1 .75.75v1.5A3.75 3.75 0 0 1 12.25 16h-8.5A3.75 3.75 0 0 1 0 12.25v-1.5a.75.75 0 0 1 1.5 0v1.5a2.25 2.25 0 0 0 2.25 2.25h8.5a2.25 2.25 0 0 0 2.25-2.25v-1.5a.75.75 0 0 1 .75-.75M10.22.97a.75.75 0 0 1 1.06 0l2.25 2.25a.75.75 0 0 1 0 1.06l-2.25 2.25a.75.75 0 1 1-1.06-1.06l.97-.97H9.25A2.25 2.25 0 0 0 7 6.75v3.5a.75.75 0 0 1-1.5 0v-3.5A3.75 3.75 0 0 1 9.25 3h1.94l-.97-.97a.75.75 0 0 1 0-1.06"/></svg>