<svg xmlns="http://www.w3.org/2000/svg" width="20" height="20" fill="none" data-fui-icon="true" viewBox="0 0 20 20"><g clip-path="url(#a)"><path fill="currentColor" d="M10 0c5.42 0 10 4.58 10 10s-4.58 10-10 10S0 15.42 0 10 4.58 0 10 0m0 1.5c-4.59 0-8.5 3.91-8.5 8.5s3.91 8.5 8.5 8.5 8.5-3.91 8.5-8.5-3.91-8.5-8.5-8.5m0 10.75c1.456 0 2.484.552 3.145 1.118.326.28.56.56.715.775a4 4 0 0 1 .24.38l.007.015s.001.002-.486.245l.487-.243a.75.75 0 0 1-1.341.67v.003q-.004-.01-.019-.035a2.995 2.995 0 0 0-.58-.67c-.433-.372-1.124-.758-2.168-.758s-1.735.386-2.168.757a3 3 0 0 0-.58.67l-.02.036v-.003a.75.75 0 1 1-1.34-.67l.487.243-.487-.244.008-.016a2 2 0 0 1 .063-.112c.04-.068.099-.16.177-.268.154-.215.39-.495.715-.775.661-.566 1.689-1.118 3.145-1.118m-4-4a1 1 0 1 1 0 2 1 1 0 0 1 0-2m8 0a1 1 0 1 1 0 2 1 1 0 0 1 0-2"/></g><defs><clipPath id="a"><path fill="currentColor" d="M0 0h20v20H0z"/></clipPath></defs></svg>