<svg xmlns="http://www.w3.org/2000/svg" width="25" height="24" fill="none" data-fui-icon="true" viewBox="0 0 25 24"><path fill="currentColor" d="m18.616 1.09.366.014a5.01 5.01 0 0 1 4.193 2.914l.564 1.233c.264.577.4 1.206.4 1.84l-.005.228a4.42 4.42 0 0 1-2.262 3.634v7.782a4.23 4.23 0 0 1-4.227 4.228H6.495a4.23 4.23 0 0 1-4.227-4.228v-7.782A4.42 4.42 0 0 1 .006 7.32L0 7.092c0-.635.136-1.264.4-1.841l.565-1.233a5.01 5.01 0 0 1 4.192-2.914l.366-.013zM8.35 9.426A4.53 4.53 0 0 1 4.74 11.51l-.209.005h-.11l-.227-.006a4 4 0 0 1-.427-.043v7.27a2.73 2.73 0 0 0 2.727 2.727h1.533v-5.158c0-.787.639-1.426 1.426-1.426h5.233c.786 0 1.424.639 1.424 1.426v5.158h1.534a2.73 2.73 0 0 0 2.727-2.728v-7.27q-.21.033-.428.044l-.227.006h-.11l-.209-.005a4.53 4.53 0 0 1-3.606-2.082 4.35 4.35 0 0 1-3.72 2.087l-.247-.007A4.35 4.35 0 0 1 8.35 9.425m1.178 12.038h5.083v-5.084H9.528zM9.24 6.75a2.861 2.861 0 1 0 5.665 0l-.59-4.16H9.83zm-3.716-4.16A3.51 3.51 0 0 0 2.33 4.64l-.564 1.235a2.924 2.924 0 0 0 2.658 4.139h.11c1.499 0 2.774-1.096 2.998-2.578l.734-4.846zm11.085 4.846a3.03 3.03 0 0 0 3 2.578h.109a2.923 2.923 0 0 0 2.658-4.139l-.564-1.234a3.51 3.51 0 0 0-3.195-2.051h-2.741z"/></svg>