<svg xmlns="http://www.w3.org/2000/svg" width="32" height="32" fill="none" data-fui-icon="true" viewBox="0 0 32 32"><path fill="currentColor" d="M7.667 18.917a3.416 3.416 0 1 1 0 6.832 3.416 3.416 0 0 1 0-6.832m0 1.5a1.917 1.917 0 1 0 0 3.833 1.917 1.917 0 0 0 0-3.833M27 21.583a.75.75 0 0 1 0 1.5H15.667a.75.75 0 0 1 0-1.5zM7.667 6.25a3.417 3.417 0 1 1-.001 6.833 3.417 3.417 0 0 1 .001-6.833m0 1.5a1.917 1.917 0 1 0 0 3.834 1.917 1.917 0 0 0 0-3.834M27 8.917a.75.75 0 0 1 0 1.5H15.667a.75.75 0 0 1 0-1.5z"/></svg>