<svg xmlns="http://www.w3.org/2000/svg" width="20" height="20" fill="none" data-fui-icon="true" viewBox="0 0 20 20"><path fill="currentColor" d="M8.8 1.285a1.584 1.584 0 0 1 2.4 0l5.233 6.078c.651.757.114 1.929-.884 1.929h-2.09v7.583c0 .875-.71 1.583-1.585 1.583h-3.75a1.583 1.583 0 0 1-1.583-1.583V9.292H4.45c-.998 0-1.535-1.173-.884-1.929zm1.263.98a.083.083 0 0 0-.126 0l-4.76 5.527h2.114a.75.75 0 0 1 .75.75v8.333c0 .046.038.083.083.083h3.75a.084.084 0 0 0 .084-.083V8.542a.75.75 0 0 1 .75-.75h2.115z"/></svg>