<svg xmlns="http://www.w3.org/2000/svg" width="12" height="12" fill="none" data-fui-icon="true" viewBox="0 0 12 12"><g clip-path="url(#a)"><path fill="currentColor" d="M6 0c.395 0 .781.11 1.117.316l3.5 2.152c.549.337.883.934.883 1.578v3.908c0 .644-.334 1.241-.883 1.578l-3.5 2.152a2.13 2.13 0 0 1-2.234 0l-3.5-2.152A1.85 1.85 0 0 1 .5 7.954V4.046c0-.644.334-1.241.883-1.578l3.5-2.152A2.13 2.13 0 0 1 6 0m0 1.5a.63.63 0 0 0-.332.094l-3.5 2.151a.35.35 0 0 0-.168.3v3.91c0 .122.064.236.168.3l3.5 2.151a.63.63 0 0 0 .664 0l3.5-2.151a.35.35 0 0 0 .168-.3v-3.91a.35.35 0 0 0-.168-.3l-3.5-2.151A.63.63 0 0 0 6 1.5M2.823 4.238a.75.75 0 0 1 1.017-.301l2.158 1.167 2.158-1.167a.75.75 0 1 1 .714 1.318l-2.124 1.15v2.527a.75.75 0 1 1-1.5 0v-2.53l-2.12-1.147a.75.75 0 0 1-.303-1.017"/></g><defs><clipPath id="a"><path fill="currentColor" d="M0 0h12v12H0z"/></clipPath></defs></svg>