<svg xmlns="http://www.w3.org/2000/svg" width="16" height="16" fill="none" data-fui-icon="true" viewBox="0 0 16 16"><path fill="currentColor" d="M6.167 1.75a.75.75 0 0 1 0 1.5H4.634c-.386 0-.63 0-.816.016-.175.014-.23.038-.25.047a.6.6 0 0 0-.255.255c-.01.02-.033.075-.047.25-.015.185-.016.43-.016.816v6.732c0 .386 0 .63.016.816.014.175.038.23.047.25a.6.6 0 0 0 .177.207l.078.048.067.022c.038.009.096.018.183.025.185.015.43.016.816.016h6.732c.386 0 .63 0 .816-.016.175-.014.23-.038.25-.047a.6.6 0 0 0 .255-.255c.01-.02.033-.075.047-.25.015-.185.016-.43.016-.816V9.833a.75.75 0 0 1 1.5 0v1.533c0 .361 0 .678-.02.938a2.1 2.1 0 0 1-.207.808c-.2.392-.519.71-.91.91-.267.136-.54.185-.81.207-.26.022-.576.021-.937.021H4.634c-.361 0-.678 0-.938-.02a2.1 2.1 0 0 1-.808-.207c-.392-.2-.71-.519-.91-.91a2.1 2.1 0 0 1-.207-.81c-.022-.26-.021-.576-.021-.937V4.634c0-.361 0-.678.02-.938.022-.268.072-.542.208-.808.2-.392.518-.71.91-.91.266-.136.54-.186.808-.207.26-.022.577-.021.938-.021zm7.333 0a.75.75 0 0 1 .75.75v4.333a.75.75 0 0 1-1.5 0V4.311L7.863 9.197a.75.75 0 0 1-1.06-1.06L11.69 3.25H9.167a.75.75 0 0 1 0-1.5z"/></svg>