<svg xmlns="http://www.w3.org/2000/svg" width="16" height="16" fill="none" data-fui-icon="true" viewBox="0 0 16 16"><path fill="currentColor" fill-rule="evenodd" d="M11.633 1c.857-.008 1.733.149 2.486.492s1.428.894 1.781 1.695c.073.166.1.334.1.483v9.908c0 .517-.38.81-.657.913a1.03 1.03 0 0 1-1.03-.18c-.66-.577-1.878-.898-3.123-.821-1.272.078-2.21.543-2.536 1.127a.75.75 0 0 1-1.308 0c-.327-.584-1.264-1.049-2.536-1.127-1.245-.077-2.464.244-3.123.82-.334.292-.753.282-1.03.18S0 14.096 0 13.579V3.666c0-.155.029-.318.1-.48l.07-.146c.368-.722 1.005-1.227 1.71-1.548.754-.343 1.63-.5 2.487-.492C5.64 1.012 7.07 1.405 8 2.313c.93-.908 2.36-1.3 3.633-1.313m-7.28 1.5c-.677-.006-1.33.12-1.851.357-.496.225-.83.531-1.002.88v8.905c1.004-.524 2.263-.72 3.402-.65.793.05 1.634.237 2.348.603V3.761c-.44-.742-1.557-1.248-2.896-1.26m7.294 0c-1.34.013-2.458.519-2.897 1.261v8.834c.714-.366 1.555-.554 2.348-.603 1.14-.07 2.398.126 3.402.65V3.738c-.173-.35-.507-.656-1.002-.881-.521-.237-1.174-.363-1.851-.357" clip-rule="evenodd"/></svg>