<svg xmlns="http://www.w3.org/2000/svg" width="20" height="20" fill="none" data-fui-icon="true" viewBox="0 0 20 20"><path fill="currentColor" d="M12.25 1a.75.75 0 0 1 0 1.5h-1.5v2.022c3.077.187 5.105 1.53 6.371 3.392 1.333 1.96 1.771 4.415 1.86 6.47.04.91-.7 1.616-1.564 1.616H10.75v1.5h7.5a.75.75 0 0 1 0 1.5H1.75a.75.75 0 0 1 0-1.5h7.5V16H2.583c-.864 0-1.604-.707-1.564-1.615.089-2.056.527-4.511 1.86-6.47C4.145 6.052 6.173 4.708 9.25 4.521V2.5h-1.5a.75.75 0 0 1 0-1.5zM10 6C6.968 6 5.192 7.181 4.12 8.758c-1.107 1.626-1.518 3.755-1.602 5.692q0 .011.002.015.001.006.01.014.016.019.053.021h14.834c.024 0 .042-.01.054-.02l.01-.015.001-.015c-.084-1.937-.495-4.066-1.601-5.692C14.808 7.18 13.032 6 10 6"/></svg>