<svg xmlns="http://www.w3.org/2000/svg" width="32" height="32" fill="none" data-fui-icon="true" viewBox="0 0 32 32"><path fill="currentColor" d="M18.93 5.75a4.75 4.75 0 0 1 4.71 5.378l-.15 1.123h2.965a3.25 3.25 0 0 1 2.906 1.796l1.46 2.92c.296.59.404 1.258.31 1.912l-.582 4.081a3.25 3.25 0 0 1-3.217 2.79h-.195a4.5 4.5 0 0 1-8.873 0h-4.528a4.5 4.5 0 0 1-8.898-.166 4.09 4.09 0 0 1-2.86-4.653l.396-2.18H1.6a.75.75 0 0 1 0-1.5h4.8a.75.75 0 0 1 0 1.5H3.897l-.445 2.448A2.59 2.59 0 0 0 4.91 24.01a4.5 4.5 0 0 1 8.826.24h4.528a4.5 4.5 0 0 1 2.558-3.34l1.33-9.98a3.25 3.25 0 0 0-3.221-3.68H6a.75.75 0 0 1 0-1.5zM9.3 22a3 3 0 1 0 0 6 3 3 0 0 0 0-6m13.4 0a3 3 0 1 0 0 6 3 3 0 0 0 0-6m-.312-1.489a4.5 4.5 0 0 1 4.749 3.74h.195c.87 0 1.61-.642 1.732-1.503l.584-4.08a1.75 1.75 0 0 0-.168-1.03l-1.46-2.92a1.75 1.75 0 0 0-1.565-.967H23.29zm-11.189-9.26a.75.75 0 0 1 0 1.5H1.6a.75.75 0 0 1 0-1.5z"/></svg>