<svg xmlns="http://www.w3.org/2000/svg" width="20" height="20" fill="none" data-fui-icon="true" viewBox="0 0 20 20"><path fill="currentColor" d="M8.19 11a.75.75 0 0 1 0 1.5H4.803c.631 1.774 2.286 3.75 5.453 3.75 3.269 0 5.36-1.958 6.015-4.676a.75.75 0 0 1 1.459.352c-.806 3.343-3.464 5.824-7.474 5.824-3.252 0-5.264-1.71-6.316-3.548v2.588a.75.75 0 0 1-1.5 0v-4.23c0-.85.684-1.56 1.55-1.56zm1.743-8.75c3.252 0 5.264 1.709 6.317 3.548V3.21a.75.75 0 0 1 1.5 0v4.23c0 .851-.685 1.56-1.55 1.56H12a.75.75 0 0 1 0-1.5h3.386c-.63-1.775-2.285-3.75-5.453-3.75-3.268 0-5.36 1.958-6.015 4.676a.75.75 0 0 1-1.459-.352C3.266 4.731 5.923 2.25 9.933 2.25"/></svg>