<svg xmlns="http://www.w3.org/2000/svg" width="20" height="20" fill="none" data-fui-icon="true" viewBox="0 0 20 20"><path fill="currentColor" d="M10 .917a9.084 9.084 0 0 1 1.1 18.1l-.84.103v-7.323h2.379l.192-1.047h-2.574V9.1c0-.743.14-1.462.658-1.972.515-.507 1.238-.642 1.985-.642l.214.002v-.901a9 9 0 0 0-1.06-.084c-1.287 0-2.07.304-2.541.786-.475.485-.776 1.293-.776 2.614v1.847h-1.72v1.047h1.72v7.25l-.93-.23A9.083 9.083 0 0 1 10 .916m0 1.5a7.583 7.583 0 0 0-2.763 14.647v-3.767h-1.72V9.25h1.72v-.347c0-1.515.34-2.783 1.203-3.664.866-.884 2.118-1.236 3.614-1.236.57 0 1.552.107 2.01.233l.55.153v3.707l-.826-.083a11 11 0 0 0-.888-.027c-.619 0-.843.124-.933.212-.087.086-.21.299-.21.902v.15h2.874l-.162.886-.467 2.546-.113.615H11.76v4.079A7.59 7.59 0 0 0 17.584 10 7.584 7.584 0 0 0 10 2.417"/></svg>