<svg xmlns="http://www.w3.org/2000/svg" width="32" height="32" fill="none" data-fui-icon="true" viewBox="0 0 32 32"><path fill="currentColor" d="M7.479 18.25c1.49 0 2.886 1.068 2.886 2.602 0 .875-.432 1.535-.957 2.029-.508.479-1.163.86-1.73 1.18-.559.317-1.03.577-1.39.855H10a.75.75 0 0 1 0 1.5H5a.75.75 0 0 1-.75-.75c0-.827.49-1.42.993-1.836.496-.41 1.146-.763 1.694-1.074.587-.332 1.086-.63 1.443-.967.34-.32.485-.613.485-.937 0-.512-.516-1.102-1.386-1.102-.405 0-.808.16-1.137.352a3.4 3.4 0 0 0-.474.335l-.02.017h-.001a.75.75 0 1 1-1.028-1.09l.194.204-.194-.206.003-.002.005-.004.014-.013.045-.04q.056-.05.154-.127c.13-.102.316-.235.545-.37.448-.261 1.118-.556 1.894-.556M27 21.583a.75.75 0 0 1 0 1.5H15.667a.75.75 0 0 1 0-1.5zM5.848 20.455h-.001v.001h-.001v-.002zm2.144-14.79a.75.75 0 0 1 1.091.668V13a.75.75 0 0 1-1.5 0V7.774L5.43 9.28a.75.75 0 0 1-.86-1.23L7.903 5.72zM27 8.916a.75.75 0 0 1 0 1.5H15.667a.75.75 0 0 1 0-1.5z"/></svg>