<svg xmlns="http://www.w3.org/2000/svg" width="16" height="16" fill="none" data-fui-icon="true" viewBox="0 0 16 16"><path fill="currentColor" d="M7.948 1.083c.553 0 1.082.22 1.473.61l3.553 3.552c.39.39.61.921.61 1.474v6.114c0 1.15-.934 2.083-2.084 2.083h-7a2.083 2.083 0 0 1-2.083-2.083V3.166c0-1.15.933-2.083 2.083-2.083zM4.5 2.583a.584.584 0 0 0-.583.583v9.667c0 .322.261.583.583.583h7c.322 0 .584-.26.584-.583V6.916h-2.25A2.084 2.084 0 0 1 7.75 4.833v-2.25zm5.813 7.917a.75.75 0 0 1 0 1.5H5.687a.75.75 0 0 1 0-1.5zM8 7.76a.75.75 0 0 1 0 1.5H5.688a.75.75 0 0 1 0-1.5zm1.25-2.927c0 .322.262.583.584.583h1.19L9.25 3.643z"/></svg>