<svg xmlns="http://www.w3.org/2000/svg" width="20" height="20" fill="none" data-fui-icon="true" viewBox="0 0 20 20"><path fill="currentColor" fill-rule="evenodd" d="M10.779 2.41a4.816 4.816 0 0 1 6.81 6.811l-2.416 2.417a.75.75 0 0 1-1.06-1.061l2.416-2.416a3.316 3.316 0 1 0-4.69-4.69L9.423 5.888a.75.75 0 1 1-1.06-1.061zM5.888 8.363a.75.75 0 0 1 0 1.061L3.47 11.84a3.316 3.316 0 1 0 4.69 4.69l2.416-2.417a.75.75 0 0 1 1.06 1.061L9.222 17.59a4.816 4.816 0 0 1-6.81-6.811l2.416-2.417a.75.75 0 0 1 1.06 0m-2.9-5.375a.75.75 0 0 1 1.06 0l12.965 12.965a.75.75 0 0 1-1.061 1.06L2.987 4.048a.75.75 0 0 1 0-1.06" clip-rule="evenodd"/><path fill="currentColor" fill-rule="evenodd" d="M8.763 11.237a.75.75 0 0 1 0 1.061L7.28 13.78a.75.75 0 0 1-1.06-1.06l1.482-1.483a.75.75 0 0 1 1.06 0M13.78 6.22a.75.75 0 0 1 0 1.06l-1.482 1.483a.75.75 0 0 1-1.06-1.061L12.72 6.22a.75.75 0 0 1 1.06 0" clip-rule="evenodd"/></svg>