<svg xmlns="http://www.w3.org/2000/svg" width="16" height="16" fill="none" data-fui-icon="true" viewBox="0 0 16 16"><path fill="currentColor" d="M1.22 1.22a.75.75 0 0 1 1.06 0l12.5 12.5a.75.75 0 0 1-1.06 1.06l-1.95-1.95a.256.256 0 0 0-.313-.036 6.7 6.7 0 0 1-2.485.885.26.26 0 0 0-.222.252v.319a.75.75 0 0 1-1.5 0v-.32a.26.26 0 0 0-.222-.251A6.75 6.75 0 0 1 1.25 7a.75.75 0 0 1 1.5 0 5.25 5.25 0 0 0 7.49 4.747.238.238 0 0 0 .06-.386l-.576-.577a.26.26 0 0 0-.28-.056 4 4 0 0 1-5.44-3.522L4.001 7V5.164a.25.25 0 0 0-.073-.177L1.22 2.28a.75.75 0 0 1 0-1.06M14 6.25a.75.75 0 0 1 .75.75c0 1.193-.31 2.313-.852 3.285a.24.24 0 0 1-.383.049l-.745-.745a.26.26 0 0 1-.047-.296c.337-.693.527-1.47.527-2.293a.75.75 0 0 1 .75-.75M5.5 7A2.5 2.5 0 0 0 8 9.5c.17 0 .236-.204.117-.323L5.81 6.87a.182.182 0 0 0-.31.129M8 1a4 4 0 0 1 4 4v2c0 .406-.061.797-.174 1.165-.052.171-.266.214-.392.088l-.867-.867a.26.26 0 0 1-.074-.207q.007-.09.007-.179V5A2.5 2.5 0 0 0 8 2.5a2.48 2.48 0 0 0-1.49.496.27.27 0 0 1-.35-.018l-.714-.713a.24.24 0 0 1 .012-.352A3.98 3.98 0 0 1 8 1"/></svg>