<svg xmlns="http://www.w3.org/2000/svg" width="24" height="24" fill="none" data-fui-icon="true" viewBox="0 0 24 24"><path fill="currentColor" d="M17.5 1a.75.75 0 0 1 0 1.5H16v6.853c0 .263.083.519.237.732l3.997 5.534.018.023 2.165 2.997c1.313 1.819.014 4.36-2.229 4.36H3.812c-2.243 0-3.542-2.541-2.228-4.36l6.18-8.554A1.25 1.25 0 0 0 8 9.353V2.5H6.5a.75.75 0 0 1 0-1.5zM8.675 15.43c-.949-.17-2.034-.076-3.406.668l-2.47 3.42c-.597.826-.007 1.982 1.013 1.982h16.376c1.02 0 1.61-1.156 1.013-1.983l-2.157-2.986c-1.417.938-2.685 1.282-3.884 1.23-1.334-.06-2.484-.61-3.498-1.123-1.056-.535-1.965-1.025-2.987-1.209"/></svg>