<svg xmlns="http://www.w3.org/2000/svg" width="20" height="20" fill="none" data-fui-icon="true" viewBox="0 0 20 20"><path stroke="currentColor" stroke-linecap="round" stroke-linejoin="round" stroke-width="1.5" d="M6.75 10.75 9 13.25l4.25-4.5"/><path stroke="currentColor" stroke-linecap="round" stroke-linejoin="round" stroke-width="1.5" d="M9.054 2.266c-1.4 1.951-3.876 3.012-5.272 3.481-.597.2-1.032.749-1.032 1.379v.918c0 4.75 2.429 9.665 6.943 11.14q.197.065.307.066.11 0 .306-.066c4.515-1.475 6.944-6.39 6.944-11.14v-.918c0-.63-.435-1.178-1.032-1.379-1.396-.469-3.871-1.53-5.272-3.48-.221-.31-.566-.517-.946-.517s-.725.208-.946.516"/></svg>