<svg xmlns="http://www.w3.org/2000/svg" width="24" height="24" fill="none" data-fui-icon="true" viewBox="0 0 24 24"><path fill="currentColor" d="M18.4 3.85a4.75 4.75 0 0 1 4.75 4.75V15c0 1.639-.83 3.083-2.093 3.936a3.24 3.24 0 0 1-2.25.9H12.6a.6.6 0 0 1-.307-.086H5.6A4.75 4.75 0 0 1 .85 15V8.6A4.75 4.75 0 0 1 5.6 3.85zM5.6 5.35A3.25 3.25 0 0 0 2.35 8.6v3.634l2.046-2.33A3.246 3.246 0 0 1 9.2 9.821l3.264 3.474 1.244-1.542a3 3 0 0 1 2.164-1.111l.169-.005h.001a3 3 0 0 1 .64.069 3 3 0 0 1 1.573.905l3.38 3.696a3 3 0 0 0 .015-.308V8.6a3.25 3.25 0 0 0-3.25-3.25z"/></svg>