<svg xmlns="http://www.w3.org/2000/svg" width="13" height="12" fill="none" data-fui-icon="true" viewBox="0 0 13 12"><path fill="currentColor" d="M8.164.9c.703 0 1.35.25 1.854.662a4 4 0 0 0 .806-.311l.101-.043a.7.7 0 0 1 .67.133c.176.151.276.4.222.656.342.12.548.55.302.91-.288.423-.64.803-1.04 1.126v.003c0 3.27-2.529 7.063-7.166 7.064a7.2 7.2 0 0 1-3.472-.886.69.69 0 0 1-.326-.816.7.7 0 0 1 .687-.489l.123.002c.472 0 .926-.08 1.346-.224a2.9 2.9 0 0 1-1.137-1.352.66.66 0 0 1 .01-.552 2.84 2.84 0 0 1-.917-2.089c0-.215.104-.392.256-.5a2.84 2.84 0 0 1 .076-2.435l.05-.083c.265-.386.811-.372 1.089-.051a6 6 0 0 0 3.561 1.991C5.342 2.095 6.62.901 8.164.9m0 1.2c-.952 0-1.708.758-1.708 1.672q0 .195.044.382l.18.774-.795-.04a7.2 7.2 0 0 1-4.438-1.815c.005.57.3 1.076.755 1.375l1.777 1.17-2.126-.07a3 3 0 0 1-.194-.013c.237.398.638.694 1.117.794l.019.004h-.001l.004.001 1.857.377-1.735.76a1 1 0 0 1-.2.06c.29.246.668.4 1.082.407l1.712.03L4.16 9.013a5.3 5.3 0 0 1-1.408.774q.564.111 1.162.113c3.854 0 5.966-3.13 5.967-5.864q0-.132-.006-.266l-.016-.327.172-.123a.7.7 0 0 1-.158-.24.7.7 0 0 1-.037-.25l-.195.038-.225-.236A1.73 1.73 0 0 0 8.164 2.1"/></svg>