<svg xmlns="http://www.w3.org/2000/svg" width="32" height="32" fill="none" data-fui-icon="true" viewBox="0 0 32 32"><g clip-path="url(#a)"><path fill="currentColor" fill-rule="evenodd" d="M11.503 32C5.151 32 .002 26.85.002 20.499c0-6.352 5.15-11.501 11.501-11.501h17.962l-7.68-7.719A.75.75 0 0 1 22.846.22l8.94 8.983a.75.75 0 0 1 0 1.059l-8.94 8.982a.75.75 0 0 1-1.063-1.059l7.65-7.687H11.503c-5.523 0-10 4.478-10.001 10 0 5.524 4.478 10.002 10.001 10.002h2.918a.75.75 0 0 1 0 1.5z" clip-rule="evenodd"/></g><defs><clipPath id="a"><path fill="currentColor" d="M0 0h32v32H0z"/></clipPath></defs></svg>