<svg xmlns="http://www.w3.org/2000/svg" width="24" height="24" fill="none" data-fui-icon="true" viewBox="0 0 24 24"><path fill="currentColor" d="M19.252 3a2.75 2.75 0 0 1 2.75 2.75v6.5a2.75 2.75 0 0 1-2.75 2.75h-1.25v1.25a2.75 2.75 0 0 1-2.75 2.75h-4.557l-4.329 2.405a.75.75 0 0 1-1.114-.655V19h-.5a2.75 2.75 0 0 1-2.75-2.75v-6.5A2.75 2.75 0 0 1 4.752 7h1.5V5.75A2.75 2.75 0 0 1 9.002 3zm-14.5 5.5c-.69 0-1.25.56-1.25 1.25v6.5c0 .69.56 1.25 1.25 1.25h1.25a.75.75 0 0 1 .75.75v1.226l3.386-1.881.086-.041a.8.8 0 0 1 .278-.054h4.75c.69 0 1.25-.56 1.25-1.25v-1.962l-.002-.038.002-.04V9.75c0-.69-.56-1.25-1.25-1.25zm5.162 6.206a.885.885 0 1 1 0 1.77.885.885 0 0 1 0-1.77m.105-5.23c1.122 0 2.02.916 2.02 2.032 0 .904-.594 1.377-.957 1.624-.122.082-.209.16-.272.245a.74.74 0 0 0-.135.347.75.75 0 0 1-1.484-.223c.13-.856.63-1.325 1.048-1.61l.16-.12a.6.6 0 0 0 .09-.093.26.26 0 0 0 .05-.17c0-.3-.24-.532-.52-.532s-.52.231-.52.532a.75.75 0 0 1-1.5 0c0-1.116.897-2.032 2.02-2.032M9.002 4.5c-.69 0-1.25.56-1.25 1.25V7h7.5a2.75 2.75 0 0 1 2.75 2.75v3.75h1.25c.69 0 1.25-.56 1.25-1.25v-6.5c0-.69-.56-1.25-1.25-1.25z"/></svg>