<svg xmlns="http://www.w3.org/2000/svg" width="24" height="24" fill="none" data-fui-icon="true" viewBox="0 0 24 24"><path fill="currentColor" d="M15.05 1A2.95 2.95 0 0 1 18 3.95v5.234c0 .256.06.509.174.738l1.905 3.808c.981 1.962-.446 4.27-2.638 4.27h-4.69v4.25a.75.75 0 0 1-1.5 0V18H6.56c-2.193 0-3.62-2.308-2.639-4.27l1.905-3.808c.115-.23.174-.482.174-.738V3.95A2.95 2.95 0 0 1 8.95 1zm-6.1 1.5c-.8 0-1.45.65-1.45 1.45v5.234c0 .488-.114.97-.333 1.408l-1.904 3.81A1.45 1.45 0 0 0 6.56 16.5h10.88a1.45 1.45 0 0 0 1.297-2.099l-1.904-3.81a3.15 3.15 0 0 1-.333-1.407V3.95c0-.8-.65-1.45-1.45-1.45z"/></svg>