<svg xmlns="http://www.w3.org/2000/svg" width="32" height="32" fill="none" data-fui-icon="true" viewBox="0 0 32 32"><path fill="currentColor" d="M5.25 3.25a3.75 3.75 0 0 1 3.675 3h2.641a4.59 4.59 0 0 1 4.15 2.63l3.009 6.37h8.78l-3.3-3.484a.75.75 0 0 1 1.09-1.032l4.5 4.75a.75.75 0 0 1 0 1.032l-4.5 4.75a.75.75 0 0 1-1.09-1.032l3.3-3.484h-8.78l-3.008 6.37a4.59 4.59 0 0 1-4.15 2.63H8.924a3.751 3.751 0 1 1 0-1.5h2.641a3.09 3.09 0 0 0 2.795-1.77l3.06-6.48-3.06-6.48a3.09 3.09 0 0 0-2.795-1.77H8.925a3.751 3.751 0 1 1-3.675-4.5m0 19.5a2.25 2.25 0 1 0 0 4.5 2.25 2.25 0 0 0 0-4.5m0-18a2.25 2.25 0 1 0 0 4.5 2.25 2.25 0 0 0 0-4.5"/></svg>