<svg xmlns="http://www.w3.org/2000/svg" width="24" height="24" fill="none" data-fui-icon="true" viewBox="0 0 24 24"><g clip-path="url(#a)"><path fill="currentColor" d="M14.738.224a6.6 6.6 0 0 1 7.583 5.014l.599 2.595.07.321c1.357 6.639-2.735 13.186-9.296 14.877l-.32.078-2.595.599-.332.068A6.6 6.6 0 0 1 2.95 19.09l-.085-.328-1.98-8.575A6.6 6.6 0 0 1 5.83 2.272l8.576-1.98zm-8.57 3.51a5.1 5.1 0 0 0-3.822 6.115l1.98 8.576a5.1 5.1 0 0 0 6.116 3.821l2.595-.599c.241-.055.478-.122.712-.192l-1.197-5.186a5.15 5.15 0 0 1 3.86-6.177l5.186-1.197c-.04-.241-.084-.483-.14-.725l-.599-2.595a5.1 5.1 0 0 0-6.116-3.821zm10.581 7.82a3.65 3.65 0 0 0-2.736 4.377l1.153 4.994A11.25 11.25 0 0 0 21.744 10.4z"/></g><defs><clipPath id="a"><path fill="currentColor" d="M0 0h24v24H0z"/></clipPath></defs></svg>