<svg xmlns="http://www.w3.org/2000/svg" width="32" height="32" fill="none" data-fui-icon="true" viewBox="0 0 32 32"><path fill="currentColor" d="M1.22 1.22a.75.75 0 0 1 1.06 0l28.5 28.5a.75.75 0 0 1-1.06 1.06l-7.623-7.623a.3.3 0 0 0-.494.11l-1.285 3.506c-.943 2.57-4.236 3.296-6.173 1.36L9.724 23.71a.3.3 0 0 0-.424 0l-4.384 4.384a.751.751 0 0 1-1.062-1.06L8.24 22.65a.3.3 0 0 0 0-.425l-4.422-4.422c-1.936-1.937-1.21-5.229 1.36-6.172l3.505-1.287a.3.3 0 0 0 .11-.493L1.22 2.28a.75.75 0 0 1 0-1.06M16.936 3.7a3.75 3.75 0 0 1 5.303 0l6.011 6.01a3.75 3.75 0 0 1 0 5.304l-4.876 4.875a.3.3 0 0 1-.424 0L12.06 9a.3.3 0 0 1 0-.424z"/></svg>