<svg xmlns="http://www.w3.org/2000/svg" width="32" height="32" fill="none" data-fui-icon="true" viewBox="0 0 32 32"><path fill="currentColor" fill-rule="evenodd" d="M16 10a.75.75 0 0 1 .75.75v8.5a.75.75 0 0 1-1.5 0v-8.5A.75.75 0 0 1 16 10" clip-rule="evenodd"/><path fill="currentColor" d="M17.25 24a1.25 1.25 0 1 1-2.5 0 1.25 1.25 0 0 1 2.5 0"/><path fill="currentColor" fill-rule="evenodd" d="M16 3.5c-.663 0-1.275.352-1.61.923L1.72 26.077A1.61 1.61 0 0 0 3.11 28.5h25.78a1.61 1.61 0 0 0 1.39-2.423L17.61 4.423A1.87 1.87 0 0 0 16 3.5m-2.905.166a3.366 3.366 0 0 1 5.81 0l12.67 21.653A3.11 3.11 0 0 1 28.89 30H3.11a3.11 3.11 0 0 1-2.684-4.68z" clip-rule="evenodd"/></svg>