<svg xmlns="http://www.w3.org/2000/svg" width="24" height="24" fill="none" data-fui-icon="true" viewBox="0 0 24 24"><path fill="currentColor" d="M14.148 1.25c1.12 0 2.185.433 2.985 1.188.123.116.036.312-.133.312a2.25 2.25 0 0 0 0 4.5.75.75 0 0 1 .75.75 2.25 2.25 0 0 0 4.5 0 .75.75 0 0 1 .75-.75c.3 0 .605.148.668.441q.081.378.082.78v9.93a4.35 4.35 0 0 1-4.35 4.349H4.6A4.35 4.35 0 0 1 .25 18.4V8.47a3.72 3.72 0 0 1 3.72-3.72c.718 0 1.391-.346 1.808-.93l.535-.749a4.35 4.35 0 0 1 3.54-1.821zM12 7.5A5.25 5.25 0 1 0 12 18a5.25 5.25 0 0 0 0-10.5M12 9a3.75 3.75 0 1 1 0 7.5A3.75 3.75 0 0 1 12 9m8-8a1 1 0 0 1 1 1v2h2a1 1 0 1 1 0 2h-2v2a1 1 0 1 1-2 0V6h-2a1 1 0 1 1 0-2h2V2a1 1 0 0 1 1-1"/></svg>