<svg xmlns="http://www.w3.org/2000/svg" width="24" height="24" fill="none" data-fui-icon="true" viewBox="0 0 24 24"><path fill="currentColor" d="M12 1.875c3.573 0 6.136 1.3 7.792 3.267C21.43 7.087 22.125 9.616 22.125 12v4.5a1 1 0 0 1-.008.098q.008.137.008.277c0 2.9-2.35 5.25-5.25 5.25a2.25 2.25 0 0 1-2.25-2.25v-6a2.25 2.25 0 0 1 2.25-2.25c1.47 0 2.797.604 3.75 1.577V12c0-2.115-.618-4.275-1.98-5.892C17.303 4.513 15.176 3.375 12 3.375S6.698 4.513 5.354 6.108C3.994 7.725 3.375 9.885 3.375 12v1.202a5.23 5.23 0 0 1 3.75-1.577 2.25 2.25 0 0 1 2.25 2.25v6a2.25 2.25 0 0 1-2.25 2.25 5.25 5.25 0 0 1-5.243-5.527 1 1 0 0 1-.007-.098V12c0-2.384.695-4.913 2.333-6.858C5.864 3.175 8.426 1.875 12 1.875m-4.875 11.25a3.75 3.75 0 1 0 0 7.5.75.75 0 0 0 .75-.75v-6a.75.75 0 0 0-.75-.75m9.75 0a.75.75 0 0 0-.75.75v6c0 .414.336.75.75.75a3.75 3.75 0 1 0 0-7.5"/></svg>