<svg xmlns="http://www.w3.org/2000/svg" width="16" height="16" fill="none" data-fui-icon="true" viewBox="0 0 16 16"><path fill="currentColor" d="M6.579 2.003c.697-.458 1.67.032 1.67.91v2.018c2.506.091 4.338.665 5.526 2.036 1.277 1.474 1.642 3.684 1.642 6.533a.75.75 0 0 1-1.354.445l-.067-.11-.354-.693c-.333-.615-.631-1.013-1.177-1.322-.704-.398-1.896-.678-4.215-.727v1.994c0 .936-1.11 1.43-1.807.805L.775 8.806a1.084 1.084 0 0 1 0-1.612l5.668-5.087zM2.122 8l4.628 4.152v-1.818a.75.75 0 0 1 .75-.75c2.846 0 4.561.285 5.702.93q.311.177.562.383c-.187-1.341-.55-2.286-1.122-2.947-.863-.995-2.368-1.533-5.142-1.533a.75.75 0 0 1-.75-.75v-1.82z"/></svg>