<svg xmlns="http://www.w3.org/2000/svg" width="24" height="24" fill="none" data-fui-icon="true" viewBox="0 0 24 24"><path fill="currentColor" d="M20 1a2.5 2.5 0 0 1 2.5 2.5v17a2.5 2.5 0 0 1-5 0v-.233l-4-1.52V20.5a2.5 2.5 0 0 1-5 0v-3.653l-2.066-.786A2.498 2.498 0 0 1 1.5 15.5v-7a2.5 2.5 0 0 1 4.934-.562L17.5 3.731V3.5A2.5 2.5 0 0 1 20 1M10 20.5a1 1 0 1 0 2 0v-2.323l-2-.76zm10-18a1 1 0 0 0-1 1v17a1 1 0 1 0 2 0v-17a1 1 0 0 0-1-1M6.5 9.517v4.965l11 4.18V5.337zM4 7.5a1 1 0 0 0-1 1v7a1 1 0 1 0 2 0v-7a1 1 0 0 0-1-1"/></svg>