<svg xmlns="http://www.w3.org/2000/svg" width="16" height="16" fill="none" data-fui-icon="true" viewBox="0 0 16 16"><path fill="currentColor" d="M14.13 0A1.87 1.87 0 0 1 16 1.87v5.166c0 .496-.197.972-.548 1.322l-6.848 6.848a2.71 2.71 0 0 1-3.833 0L.794 11.23a2.71 2.71 0 0 1 0-3.834L7.642.548A1.87 1.87 0 0 1 8.964 0zM8.964 1.5a.37.37 0 0 0-.262.108L1.854 8.456a1.21 1.21 0 0 0 0 1.713l3.977 3.976a1.21 1.21 0 0 0 1.713 0l6.848-6.847a.37.37 0 0 0 .108-.262V1.87a.37.37 0 0 0-.37-.37zM12 3a1 1 0 1 1 0 2 1 1 0 0 1 0-2"/></svg>