<svg xmlns="http://www.w3.org/2000/svg" width="16" height="16" fill="none" data-fui-icon="true" viewBox="0 0 16 16"><g clip-path="url(#a)"><path fill="currentColor" d="M8 0a8 8 0 1 1 0 16A8 8 0 0 1 8 0m3.085 9.58a.75.75 0 0 0-1.006.335l-.01.016q-.021.037-.076.114c-.074.102-.19.244-.356.386C9.313 10.708 8.794 11 8 11s-1.313-.292-1.637-.57a2.2 2.2 0 0 1-.432-.5l-.011-.018v.003a.749.749 0 1 0-1.34.67l.52-.26-.52.26.003.007.004.01.014.023.04.073c.035.058.084.136.149.226.13.179.325.412.597.645.551.473 1.407.931 2.613.931s2.062-.458 2.613-.93c.272-.234.468-.467.597-.646.065-.09.114-.168.148-.226q.026-.044.041-.073l.014-.023.004-.01.002-.003v-.002c.001 0 .002-.002-.519-.262l.52.26a.75.75 0 0 0-.335-1.006M5 6a1 1 0 1 0 0 2 1 1 0 0 0 0-2m6 0a1 1 0 1 0 0 2 1 1 0 0 0 0-2"/></g><defs><clipPath id="a"><path fill="currentColor" d="M0 0h16v16H0z"/></clipPath></defs></svg>