<svg xmlns="http://www.w3.org/2000/svg" width="16" height="16" fill="none" data-fui-icon="true" viewBox="0 0 16 16"><g clip-path="url(#a)"><path fill="currentColor" d="M8.003-.007A2.39 2.39 0 0 1 9.846.86c.23.277.504.528.837.666.333.139.702.152 1.061.119a2.39 2.39 0 0 1 2.61 2.606c-.034.36-.02.73.12 1.064.138.332.389.607.665.837a2.39 2.39 0 0 1 .004 3.676c-.277.232-.53.508-.668.842-.14.336-.154.708-.12 1.07a2.39 2.39 0 0 1-2.351 2.613l-.257-.01c-.36-.033-.732-.019-1.066.12l-.122.057c-.28.144-.516.367-.718.609a2.39 2.39 0 0 1-3.507.184l-.175-.19c-.2-.24-.433-.462-.71-.605l-.12-.056c-.332-.138-.7-.152-1.057-.118l-.257.01A2.392 2.392 0 0 1 1.66 11.74c.028-.316.02-.639-.075-.938l-.046-.127a2 2 0 0 0-.467-.66L.87 9.835a2.393 2.393 0 0 1 .004-3.69c.277-.23.529-.503.667-.835a2 2 0 0 0 .135-.79L1.66 4.25a2.39 2.39 0 0 1 2.613-2.605c.312.029.63.021.926-.073l.126-.046c.33-.137.601-.386.828-.66a2.4 2.4 0 0 1 1.849-.873m0 1.5a.9.9 0 0 0-.692.327c-.304.368-.762.823-1.41 1.092-.652.27-1.298.27-1.768.226a.9.9 0 0 0-.645.19l-.076.068a.9.9 0 0 0-.258.716c.044.471.044 1.119-.228 1.773-.27.65-.727 1.11-1.095 1.415a.9.9 0 0 0-.32.589l-.006.102c0 .275.123.522.325.69.368.305.824.767 1.095 1.418.272.655.272 1.305.23 1.776a.9.9 0 0 0 .257.717l.076.068a.9.9 0 0 0 .644.19c.47-.045 1.117-.046 1.77.225.648.269 1.107.723 1.411 1.09a.89.89 0 0 0 1.377.001c.306-.366.767-.82 1.415-1.09.658-.273 1.308-.27 1.78-.226a.89.89 0 0 0 .717-.257l.069-.076a.9.9 0 0 0 .19-.641c-.044-.472-.045-1.124.229-1.782.27-.649.723-1.11 1.089-1.416a.89.89 0 0 0-.001-1.375c-.366-.305-.82-.765-1.09-1.412-.272-.657-.271-1.307-.228-1.779a.9.9 0 0 0-.19-.641l-.068-.076a.89.89 0 0 0-.717-.257c-.472.044-1.121.045-1.778-.228-.649-.27-1.11-.724-1.415-1.092a.89.89 0 0 0-.69-.325M8 9.5a1 1 0 1 1 0 2 1 1 0 0 1 0-2m0-5.75a.75.75 0 0 1 .75.75v3a.75.75 0 0 1-1.5 0v-3A.75.75 0 0 1 8 3.75"/></g><defs><clipPath id="a"><path fill="currentColor" d="M0 0h16v16H0z"/></clipPath></defs></svg>