<svg xmlns="http://www.w3.org/2000/svg" width="32" height="32" fill="none" data-fui-icon="true" viewBox="0 0 32 32"><path fill="currentColor" d="M25.667 4.25a3.42 3.42 0 0 1 3.417 3.417v12.666a3.42 3.42 0 0 1-3.417 3.417H20.48v3.917h1.77a.75.75 0 0 1 0 1.5H9.75a.75.75 0 0 1 0-1.5h1.771V23.75H6.334a3.417 3.417 0 0 1-3.417-3.417V7.667A3.417 3.417 0 0 1 6.334 4.25zM13.021 27.667h5.959V23.75H13.02zm-8.604-7.334c0 1.059.858 1.917 1.917 1.917h19.333a1.917 1.917 0 0 0 1.917-1.917v-.791H4.417zM6.334 5.75a1.917 1.917 0 0 0-1.917 1.917v10.375h23.167V7.667a1.92 1.92 0 0 0-1.917-1.917z"/></svg>