<svg xmlns="http://www.w3.org/2000/svg" width="24" height="24" fill="none" data-fui-icon="true" viewBox="0 0 24 24"><path fill="currentColor" d="M9.25 5a.75.75 0 0 1 0 1.5H6.875c-.536 0-.896 0-1.174.021-.27.021-.4.059-.485.1a1.25 1.25 0 0 0-.596.595c-.04.085-.078.216-.099.485-.02.278-.021.638-.021 1.174v8.175c0 .572 0 .957.024 1.253.024.287.067.424.113.514.12.235.31.427.546.546.09.046.227.09.514.113.296.024.68.024 1.253.024h8.1c.572 0 .957 0 1.253-.024.287-.024.424-.067.514-.113.235-.12.427-.31.546-.546.046-.09.09-.227.113-.514.024-.296.024-.68.024-1.253V14a.75.75 0 0 1 1.5 0v3.05c0 .547.001 1.004-.03 1.375-.03.38-.098.736-.27 1.073a2.75 2.75 0 0 1-1.202 1.202c-.337.172-.694.24-1.073.27-.371.031-.828.03-1.375.03h-8.1c-.547 0-1.004.001-1.375-.03-.38-.03-.736-.098-1.073-.27A2.75 2.75 0 0 1 3.3 19.498c-.172-.337-.24-.694-.27-1.073-.031-.371-.03-.828-.03-1.375V8.875c0-.513 0-.94.026-1.29.028-.355.086-.69.238-1.01a2.75 2.75 0 0 1 1.31-1.311c.32-.152.656-.21 1.012-.238C5.934 5 6.362 5 6.875 5zm11-2a.75.75 0 0 1 .75.75v6.5a.75.75 0 0 1-1.5 0V5.56l-7.97 7.97a.75.75 0 1 1-1.06-1.06l7.97-7.97h-4.69a.75.75 0 0 1 0-1.5z"/></svg>