<svg xmlns="http://www.w3.org/2000/svg" width="24" height="24" fill="none" data-fui-icon="true" viewBox="0 0 24 24"><path fill="currentColor" d="M15.52 2.65a3.5 3.5 0 0 1 2.733 1.314L22 8.648a3.5 3.5 0 0 1-.161 4.56l-7.265 7.87a3.5 3.5 0 0 1-5.143 0l-7.265-7.87a3.5 3.5 0 0 1-.161-4.56l3.747-4.684a3.5 3.5 0 0 1 2.732-1.313zm-7.036 1.5a2 2 0 0 0-1.561.752L3.176 9.584a2 2 0 0 0 .093 2.607l7.263 7.87a2 2 0 0 0 2.94 0l7.264-7.87a2 2 0 0 0 .092-2.607l-3.746-4.682a2 2 0 0 0-1.562-.751zm2.923 2.973c.098-.688 1.09-.687 1.188 0l.194 1.378a2 2 0 0 0 1.71 1.704l1.36.185c.688.094.693 1.087.006 1.188l-1.386.205a2 2 0 0 0-1.69 1.697l-.194 1.367c-.098.687-1.09.687-1.188 0l-.196-1.37a2 2 0 0 0-1.689-1.694l-1.386-.204c-.687-.102-.681-1.095.007-1.189l1.359-.186a2 2 0 0 0 1.71-1.7z"/></svg>