<svg xmlns="http://www.w3.org/2000/svg" width="20" height="20" fill="none" data-fui-icon="true" viewBox="0 0 20 20"><path fill="currentColor" d="M10.066 2.25c-3.258 0-5.264 1.706-6.316 3.55V3.48a.75.75 0 0 0-1.5 0v4.232c0 .853.687 1.557 1.55 1.558H8a.75.75 0 0 0 0-1.5H4.521c.546-1.826 2.219-4.02 5.545-4.02 3.809 0 6.184 2.85 6.184 6.25s-2.375 6.25-6.184 6.25c-2.718 0-4.891-1.728-5.757-3.79a.75.75 0 0 0-1.383.58c1.08 2.57 3.767 4.71 7.14 4.71 4.725 0 7.684-3.612 7.684-7.75s-2.959-7.75-7.684-7.75"/></svg>