<svg xmlns="http://www.w3.org/2000/svg" width="16" height="16" fill="none" data-fui-icon="true" viewBox="0 0 16 16"><g clip-path="url(#a)"><path fill="currentColor" d="M8 .5a7.5 7.5 0 1 1 0 15 7.5 7.5 0 0 1 0-15M6.303 11c.12.558.272 1.06.447 1.49.227.558.479.96.72 1.21.239.247.418.3.53.3s.291-.053.53-.3c.241-.25.493-.652.72-1.21.175-.43.327-.932.447-1.49zm-3.498 0a6.02 6.02 0 0 0 2.743 2.476 8 8 0 0 1-.187-.42A11 11 0 0 1 4.772 11zm8.422 0c-.145.76-.343 1.454-.588 2.056a8 8 0 0 1-.188.42A6.02 6.02 0 0 0 13.195 11zm.206-4.5q.066.73.067 1.5-.001.77-.067 1.5h2.379A6 6 0 0 0 14 8a6 6 0 0 0-.188-1.5zm-5.359 0C6.028 6.979 6 7.48 6 8s.028 1.021.074 1.5h3.852C9.972 9.021 10 8.52 10 8s-.028-1.021-.074-1.5zm-3.886 0Q2.002 7.222 2 8q.002.779.188 1.5h2.38A17 17 0 0 1 4.5 8q.001-.77.067-1.5zm3.36-3.977A6.02 6.02 0 0 0 2.805 5h1.967c.145-.76.344-1.454.59-2.056q.087-.216.186-.42M8 2c-.112 0-.291.053-.53.3-.241.25-.493.652-.72 1.21-.175.43-.327.932-.447 1.49h3.394a9 9 0 0 0-.447-1.49c-.227-.558-.479-.96-.72-1.21C8.291 2.054 8.112 2 8 2m2.451.523q.1.205.188.421c.245.602.444 1.297.588 2.056h1.968a6.02 6.02 0 0 0-2.744-2.477"/></g><defs><clipPath id="a"><path fill="currentColor" d="M0 0h16v16H0z"/></clipPath></defs></svg>