<svg xmlns="http://www.w3.org/2000/svg" width="16" height="16" fill="none" data-fui-icon="true" viewBox="0 0 16 16"><path fill="currentColor" d="M10.728 2.25c2.237 0 4.022 1.883 4.022 4.135 0 1.064-.469 2.062-1.076 2.919-.613.864-1.413 1.65-2.19 2.307a22.5 22.5 0 0 1-3.039 2.152l-.054.032-.016.009-.006.003L8 13.154l.368.653a.75.75 0 0 1-.65.042l-.09-.043-.001-.001-.004-.003-.016-.009-.054-.031-.2-.12A22.847 22.847 0 0 1 4.515 11.6c-.776-.659-1.577-1.445-2.189-2.307-.607-.854-1.076-1.85-1.076-2.908 0-2.252 1.785-4.135 4.022-4.135 1.053 0 2.014.407 2.728 1.09a3.93 3.93 0 0 1 2.727-1.09m0 1.5c-.88 0-1.65.452-2.09 1.166L8 4.522l-.639.394A2.43 2.43 0 0 0 5.272 3.75C3.91 3.75 2.75 4.914 2.75 6.385c0 .62.28 1.31.799 2.039.513.722 1.212 1.418 1.936 2.032.721.612 1.445 1.125 1.992 1.486.203.135.382.246.524.334a21.03 21.03 0 0 0 2.515-1.81c.723-.613 1.423-1.307 1.935-2.03.518-.73.799-1.423.799-2.051 0-1.471-1.16-2.635-2.523-2.635m-2.09 1.166a.75.75 0 0 1-1.277 0L8 4.523z"/></svg>