<svg xmlns="http://www.w3.org/2000/svg" width="32" height="32" fill="none" data-fui-icon="true" viewBox="0 0 32 32"><path fill="currentColor" d="M30.273 9.336c.657 2.297.657 7.219.657 7.219s0 4.867-.657 7.218c-.328 1.313-1.367 2.297-2.625 2.625C25.297 27 16 27 16 27s-9.352 0-11.703-.602C3.039 26.07 2 25.086 1.672 23.773c-.656-2.351-.656-7.218-.656-7.218s0-4.922.656-7.22C2 8.024 3.039 6.986 4.297 6.657 6.648 6 16 6 16 6s9.297 0 11.648.656c1.258.328 2.297 1.367 2.625 2.68M12.938 20.984l7.765-4.43-7.765-4.429z"/></svg>