<svg xmlns="http://www.w3.org/2000/svg" width="20" height="20" fill="none" data-fui-icon="true" viewBox="0 0 20 20"><path fill="currentColor" d="M17.5 8a.75.75 0 0 1 .75.75 8.25 8.25 0 0 1-7.216 8.183.32.32 0 0 0-.284.317v.563a.75.75 0 0 1-1.5 0v-.563a.32.32 0 0 0-.284-.317A8.25 8.25 0 0 1 1.75 8.75a.75.75 0 0 1 1.5 0 6.75 6.75 0 0 0 13.5 0A.75.75 0 0 1 17.5 8M10 1.25a5 5 0 0 1 5 5v2.5a5 5 0 0 1-9.993.257L5 8.75v-2.5a5 5 0 0 1 5-5m0 1.5a3.5 3.5 0 0 0-3.5 3.5v2.5a3.5 3.5 0 1 0 7 0v-2.5a3.5 3.5 0 0 0-3.5-3.5"/></svg>