<svg xmlns="http://www.w3.org/2000/svg" width="32" height="32" fill="none" data-fui-icon="true" viewBox="0 0 32 32"><path fill="currentColor" d="M26.389 8.826c1.409 0 2.848 1.048 3.611 2.098h-.013L18.961 21.95a4.21 4.21 0 0 1-5.937 0l-1.054-1.055 9.968-9.97c.016-.02.375-.371.382-.378.96-.913 2.229-1.721 4.069-1.721m-9.983 0c1.41 0 2.848 1.048 3.612 2.098l-9.008 9.01-4.026-4.025 4.984-4.985c.018-.023.363-.37.37-.377.96-.913 2.228-1.721 4.068-1.721m-9.955 0c1.409 0 2.848 1.048 3.612 2.098L6.03 14.958 2 10.924c.002-.017.377-.372.383-.377.96-.913 2.228-1.721 4.068-1.721"/></svg>