<svg xmlns="http://www.w3.org/2000/svg" width="20" height="20" fill="none" data-fui-icon="true" viewBox="0 0 20 20"><g clip-path="url(#a)"><path fill="currentColor" d="M10 .917a9.084 9.084 0 1 1 0 18.168A9.084 9.084 0 0 1 10 .917m0 1.5a7.583 7.583 0 1 0 0 15.167 7.583 7.583 0 0 0 0-15.167m2.238 3.346c1.25-.474 2.473.749 2 1.998l-1.342 3.538a2.75 2.75 0 0 1-1.597 1.597L7.76 14.237c-1.25.473-2.472-.75-1.998-1.999L7.104 8.7A2.75 2.75 0 0 1 8.7 7.104zm.533 1.402L9.232 8.507a1.25 1.25 0 0 0-.725.725l-1.342 3.539-.005.019v.008a.1.1 0 0 0 .016.025q.016.014.026.016h.007q.005.001.02-.004l3.539-1.343a1.25 1.25 0 0 0 .724-.724l1.343-3.539.005-.02-.001-.007a.1.1 0 0 0-.016-.026.1.1 0 0 0-.025-.016h-.008z"/></g><defs><clipPath id="a"><path fill="currentColor" d="M0 0h20v20H0z"/></clipPath></defs></svg>