<svg xmlns="http://www.w3.org/2000/svg" width="24" height="24" fill="none" data-fui-icon="true" viewBox="0 0 24 24"><path fill="currentColor" d="M12 3c2.676 0 3.018.01 4.084.06.72.01 1.434.142 2.11.392a3.9 3.9 0 0 1 1.42.918c.415.403.735.893.935 1.436h-.001c.248.67.38 1.378.392 2.093l.03.718c.024.675.03 1.366.03 3.383 0 2.69-.01 3.022-.06 4.1a6.3 6.3 0 0 1-.392 2.095l-.003.01c-.18.465-.443.893-.776 1.263l-.147.154a4.1 4.1 0 0 1-1.418.923l-.009.003a6.3 6.3 0 0 1-2.111.392c-1.066.05-1.408.06-4.084.06-2.677 0-3.019-.01-4.085-.06a6.3 6.3 0 0 1-2.111-.392v-.001a3.9 3.9 0 0 1-1.418-.918 3.9 3.9 0 0 1-.935-1.435h.001A6.3 6.3 0 0 1 3.06 16.1C3.01 15.02 3 14.69 3 12s.01-3.022.06-4.1a6.3 6.3 0 0 1 .392-2.094c.2-.543.52-1.033.934-1.436.4-.407.884-.721 1.42-.919v.001a6.3 6.3 0 0 1 2.109-.392C8.981 3.01 9.323 3 12 3m0 1.5c-2.684 0-2.988.01-4.032.058h-.026a4.8 4.8 0 0 0-1.616.3v.001a2.4 2.4 0 0 0-.895.587 2.4 2.4 0 0 0-.572.88 4.8 4.8 0 0 0-.3 1.616l-.001.026C4.51 9.012 4.5 9.316 4.5 12s.01 2.988.058 4.032v.026c.006.483.085.962.233 1.42l.067.196h.001a2.4 2.4 0 0 0 .587.895c.247.254.547.45.88.573a4.8 4.8 0 0 0 1.616.3h.026c1.044.048 1.348.058 4.032.058s2.988-.01 4.032-.058h.026a4.8 4.8 0 0 0 1.605-.297c.337-.13.644-.329.898-.584l.181-.2a2.6 2.6 0 0 0 .402-.696 4.8 4.8 0 0 0 .297-1.607l.001-.026c.048-1.044.058-1.348.058-4.032s-.01-2.988-.058-4.032v-.026a4.8 4.8 0 0 0-.3-1.616h-.001a2.4 2.4 0 0 0-.587-.895 2.4 2.4 0 0 0-.88-.572 4.8 4.8 0 0 0-1.616-.3l-.026-.001C14.988 4.51 14.684 4.5 12 4.5m-.863 3.16a4.426 4.426 0 1 1 1.726 8.682 4.426 4.426 0 0 1-1.726-8.682m1.982 1.638a2.924 2.924 0 0 0-3.821 3.821l.09.197A2.93 2.93 0 0 0 12 14.925a2.926 2.926 0 0 0 1.316-5.537zm3.952-3.509a1.219 1.219 0 1 1 0 2.437 1.219 1.219 0 0 1 0-2.437"/></svg>