<svg xmlns="http://www.w3.org/2000/svg" width="20" height="20" fill="none" data-fui-icon="true" viewBox="0 0 20 20"><path fill="currentColor" d="M16.98 1A2.02 2.02 0 0 1 19 3.02v5.954a2.02 2.02 0 0 1-.592 1.428l-7.627 7.627a3.315 3.315 0 0 1-4.687 0L1.97 13.906a3.315 3.315 0 0 1 0-4.687l7.627-7.627A2.02 2.02 0 0 1 11.026 1zm-5.954 1.5a.52.52 0 0 0-.368.152L3.031 10.28a1.815 1.815 0 0 0 0 2.567l4.123 4.123a1.816 1.816 0 0 0 2.567 0l7.627-7.627a.52.52 0 0 0 .152-.368V3.02a.52.52 0 0 0-.52-.52zM14 4a2 2 0 1 1 0 4 2 2 0 0 1 0-4m0 1.5a.5.5 0 1 0 0 1 .5.5 0 0 0 0-1"/></svg>