<svg xmlns="http://www.w3.org/2000/svg" width="24" height="24" fill="none" data-fui-icon="true" viewBox="0 0 24 24"><path fill="currentColor" d="M2.25 2.813a.75.75 0 0 1 .75.75v14.562C3 19.16 3.84 20 4.875 20h17.063a.75.75 0 0 1 0 1.5H4.875A3.375 3.375 0 0 1 1.5 18.125V3.563a.75.75 0 0 1 .75-.75M19.75 6.5a.75.75 0 0 1 .75.75v3.375a.75.75 0 0 1-1.5 0V9.061l-5.095 5.094a.75.75 0 0 1-1.06 0L10 11.311l-4.345 4.344a.75.75 0 1 1-1.06-1.06L9.47 9.72l.056-.052a.75.75 0 0 1 1.004.052l2.845 2.845L17.939 8h-1.564a.75.75 0 0 1 0-1.5z"/></svg>