<svg xmlns="http://www.w3.org/2000/svg" width="16" height="16" fill="none" data-fui-icon="true" viewBox="0 0 16 16"><path fill="currentColor" fill-rule="evenodd" d="M8 5a.75.75 0 0 1 .75.75V9a.75.75 0 1 1-1.5 0V5.75A.75.75 0 0 1 8 5" clip-rule="evenodd"/><path fill="currentColor" d="M9 12a1 1 0 1 1-2 0 1 1 0 0 1 2 0"/><path fill="currentColor" fill-rule="evenodd" d="M8 2.5a.54.54 0 0 0-.47.273l-5.96 10.44a.526.526 0 0 0 .456.787h11.948a.526.526 0 0 0 .457-.787L8.47 2.773A.54.54 0 0 0 8 2.5m-1.773-.47a2.042 2.042 0 0 1 3.546 0l5.96 10.44a2.027 2.027 0 0 1-1.759 3.03H2.026a2.026 2.026 0 0 1-1.76-3.03z" clip-rule="evenodd"/></svg>