<svg xmlns="http://www.w3.org/2000/svg" width="12" height="12" fill="none" data-fui-icon="true" viewBox="0 0 12 12"><path fill="currentColor" d="M9.625 1.125c.966 0 1.75.784 1.75 1.75v5.25a1.75 1.75 0 0 1-1.75 1.75H7.778l-.98.812a1.25 1.25 0 0 1-1.6-.005l-.963-.807h-1.86a1.75 1.75 0 0 1-1.75-1.75v-5.25c0-.966.784-1.75 1.75-1.75zm-7.25 1.5a.25.25 0 0 0-.25.25v5.25c0 .138.112.25.25.25h1.951c.257 0 .507.08.716.226l.087.066.872.731.89-.736.087-.065a1.25 1.25 0 0 1 .71-.222h1.937a.25.25 0 0 0 .25-.25v-5.25a.25.25 0 0 0-.25-.25zM3.75 4.75a.813.813 0 1 1 0 1.625.813.813 0 0 1 0-1.625m2.25 0a.813.813 0 1 1 0 1.625.813.813 0 0 1 0-1.625m2.25 0a.813.813 0 1 1 0 1.625.813.813 0 0 1 0-1.625"/></svg>