<svg xmlns="http://www.w3.org/2000/svg" width="16" height="16" fill="none" data-fui-icon="true" viewBox="0 0 16 16"><path fill="currentColor" d="M9 7.5A.75.75 0 0 0 9 9h1.75a.75.75 0 1 0 0-1.5zm-1.27-.826a.75.75 0 0 1 .096 1.056l-1.25 1.5a.75.75 0 0 1-1.106.05l-.75-.75a.75.75 0 0 1 1.06-1.06l.17.169.724-.87a.75.75 0 0 1 1.056-.095M9 11a.75.75 0 0 0 0 1.5h1.75a.75.75 0 1 0 0-1.5zm-1.27-.826a.75.75 0 0 1 .096 1.056l-1.25 1.5a.75.75 0 0 1-1.106.05l-.75-.75a.75.75 0 1 1 1.06-1.06l.17.169.724-.87a.75.75 0 0 1 1.056-.095"/><path fill="currentColor" fill-rule="evenodd" d="M7.648.5a1.25 1.25 0 0 0-1.051.574l-.274.426H5.5c-.603 0-1.109.429-1.225 1H4a2 2 0 0 0-2 2V14a2 2 0 0 0 2 2h8a2 2 0 0 0 2-2V4.5a2 2 0 0 0-2-2h-.275c-.116-.571-.621-1-1.226-1h-.822l-.274-.426A1.25 1.25 0 0 0 8.353.5zm-.27 2.131L7.785 2h.432l.405.631A.75.75 0 0 0 9.267 3h.983v1h-4.5V3h.983a.75.75 0 0 0 .646-.369M12.5 4.5A.5.5 0 0 0 12 4h-.25v.25c0 .69-.56 1.25-1.25 1.25h-5c-.69 0-1.25-.56-1.25-1.25V4H4a.5.5 0 0 0-.5.5V14a.5.5 0 0 0 .5.5h8a.5.5 0 0 0 .5-.5z" clip-rule="evenodd"/></svg>