<svg xmlns="http://www.w3.org/2000/svg" width="32" height="32" fill="none" data-fui-icon="true" viewBox="0 0 32 32"><path fill="currentColor" d="m20.764 4.5-.65.375a.75.75 0 0 0 .843.349zm-9.528 0-.193.724a.75.75 0 0 0 .842-.35zM5.924 5.923l-.53-.53zm-1.425 5.312.376.65a.75.75 0 0 0 .349-.843zm0 9.528.725.193a.75.75 0 0 0-.35-.842zm1.425 5.312.53-.53zm5.312 1.425.65-.376a.75.75 0 0 0-.843-.349zm9.528 0 .193-.725a.75.75 0 0 0-.842.35zm6.737-6.737-.376-.65a.75.75 0 0 0-.349.843zm0-9.528-.725-.193a.75.75 0 0 0 .35.842zm-1.425-5.312.53-.53zm-4.663-1.8A6.25 6.25 0 0 0 16 1v1.5c1.757 0 3.292.954 4.115 2.375zM16 1a6.25 6.25 0 0 0-5.413 3.124l1.298.75A4.75 4.75 0 0 1 16 2.5zm-4.57 2.775a6.25 6.25 0 0 0-6.037 1.618l1.061 1.061a4.75 4.75 0 0 1 4.589-1.23zM5.393 5.393a6.25 6.25 0 0 0-1.618 6.037l1.449-.387a4.75 4.75 0 0 1 1.23-4.589zm-1.27 5.194A6.25 6.25 0 0 0 1 16h1.5c0-1.757.954-3.292 2.375-4.115zM1 16a6.25 6.25 0 0 0 3.124 5.413l.75-1.298A4.75 4.75 0 0 1 2.5 16zm2.775 4.57a6.25 6.25 0 0 0 1.618 6.037l1.061-1.061a4.75 4.75 0 0 1-1.23-4.589zm1.618 6.037a6.25 6.25 0 0 0 6.037 1.618l-.387-1.449a4.75 4.75 0 0 1-4.589-1.23zm5.194 1.27A6.25 6.25 0 0 0 16 31v-1.5a4.75 4.75 0 0 1-4.115-2.375zM16 31a6.25 6.25 0 0 0 5.413-3.124l-1.298-.75A4.75 4.75 0 0 1 16 29.5zm4.57-2.775c2.083.556 4.4.018 6.037-1.618l-1.061-1.061a4.75 4.75 0 0 1-4.589 1.23zm6.037-1.618a6.25 6.25 0 0 0 1.618-6.037l-1.449.387a4.75 4.75 0 0 1-1.23 4.589zm1.27-5.194A6.25 6.25 0 0 0 31 16h-1.5a4.75 4.75 0 0 1-2.375 4.115zM31 16a6.25 6.25 0 0 0-3.124-5.413l-.75 1.298A4.75 4.75 0 0 1 29.5 16zm-5.454-9.546a4.75 4.75 0 0 1 1.23 4.589l1.45.387a6.25 6.25 0 0 0-1.62-6.037zm-4.589-1.23a4.75 4.75 0 0 1 4.589 1.23l1.06-1.06a6.25 6.25 0 0 0-6.036-1.62z"/><path stroke="currentColor" stroke-linecap="round" stroke-linejoin="round" stroke-width="1.5" d="m10 16 4 4.25L22 12"/></svg>