<svg xmlns="http://www.w3.org/2000/svg" width="12" height="12" fill="none" data-fui-icon="true" viewBox="0 0 12 12"><path stroke="currentColor" d="M9.332 2.955a8 8 0 0 0-1.98-.612 6 6 0 0 0-.254.518 7.3 7.3 0 0 0-2.198 0 6 6 0 0 0-.254-.518 8 8 0 0 0-1.982.614C1.411 4.82 1.071 6.639 1.241 8.43c.734.545 1.555.96 2.429 1.226a6 6 0 0 0 .52-.843 5 5 0 0 1-.82-.393q.105-.076.202-.152a5.68 5.68 0 0 0 4.856 0q.099.081.201.152a5 5 0 0 1-.82.394q.224.444.52.842a7.9 7.9 0 0 0 2.43-1.225c.2-2.078-.34-3.88-1.427-5.477Z"/><path fill="currentColor" d="M3.542 6.366c0 .531.39.963.864.963.483 0 .856-.432.864-.963.008-.532-.38-.967-.865-.967-.486 0-.864.435-.864.967m3.19 0c0 .531.39.963.863.963.483 0 .855-.432.864-.963.008-.532-.377-.967-.864-.967-.486 0-.863.435-.863.967"/></svg>