<svg xmlns="http://www.w3.org/2000/svg" width="20" height="20" fill="none" data-fui-icon="true" viewBox="0 0 20 20"><path fill="currentColor" d="M10 1a9 9 0 0 1 9 9c0 2.71-1.2 5.137-3.094 6.787q-.015.016-.031.031-.04.033-.08.065a9 9 0 0 1-.652.5q-.075.054-.152.105-.1.067-.204.131-.08.052-.162.102-.1.059-.2.115-.073.042-.147.083-.123.066-.249.128a9 9 0 0 1-.375.177l-.108.049q-.102.043-.206.083-.098.041-.196.079-.095.034-.19.066-.1.035-.2.068-.105.034-.211.064a9 9 0 0 1-.808.198 9 9 0 0 1-.694.107l-.156.017q-.147.014-.296.024l-.152.01q-.216.01-.437.011-.22 0-.438-.012-.076-.003-.152-.01a9 9 0 0 1-.296-.023l-.156-.017a9 9 0 0 1-1.304-.248l-.198-.057q-.106-.03-.21-.064-.102-.033-.2-.068-.096-.032-.19-.066-.1-.038-.197-.079-.104-.04-.206-.084l-.108-.048a9 9 0 0 1-.375-.177q-.126-.062-.25-.128l-.107-.06a9 9 0 0 1-.25-.145l-.133-.082a9 9 0 0 1-.224-.145l-.13-.089-.207-.148-.136-.102a9 9 0 0 1-.33-.265l-.078-.065-.032-.03A9 9 0 0 1 10 1m0 14c-1.533 0-2.958.46-4.146 1.249q.132.087.265.169a7.5 7.5 0 0 0 1.954.83l.113.03q.11.027.221.05l.154.032a8 8 0 0 0 .614.093l.073.009q.15.014.302.022.039.004.077.006.186.01.373.01.225-.001.45-.016.15-.008.301-.022l.073-.009a7 7 0 0 0 .614-.093q.078-.015.154-.032.111-.023.221-.05l.113-.03a7 7 0 0 0 .556-.17 7.4 7.4 0 0 0 1.663-.829A7.46 7.46 0 0 0 10 15m0-12.5a7.5 7.5 0 0 0-5.346 12.76A8.96 8.96 0 0 1 10 13.5c2 0 3.85.655 5.344 1.76A7.5 7.5 0 0 0 10 2.5m0 3a3.5 3.5 0 1 1 0 7 3.5 3.5 0 0 1 0-7M10 7a2 2 0 1 0 0 4 2 2 0 0 0 0-4"/></svg>