<svg xmlns="http://www.w3.org/2000/svg" width="12" height="12" fill="none" data-fui-icon="true" viewBox="0 0 12 12"><path fill="currentColor" fill-rule="evenodd" d="M6 4a.75.75 0 0 1 .75.75v2a.75.75 0 0 1-1.5 0v-2A.75.75 0 0 1 6 4" clip-rule="evenodd"/><path fill="currentColor" d="M6.75 9a.75.75 0 1 1-1.5 0 .75.75 0 0 1 1.5 0"/><path fill="currentColor" fill-rule="evenodd" d="M6 2a.57.57 0 0 0-.511.314l-3.961 7.81a.26.26 0 0 0 .23.376h8.483a.26.26 0 0 0 .231-.376l-3.96-7.81A.57.57 0 0 0 6 2m-1.849-.365a2.073 2.073 0 0 1 3.698 0l3.96 7.81A1.76 1.76 0 0 1 10.242 12H1.76A1.76 1.76 0 0 1 .19 9.446z" clip-rule="evenodd"/></svg>