<svg xmlns="http://www.w3.org/2000/svg" width="20" height="20" fill="none" data-fui-icon="true" viewBox="0 0 20 20"><path fill="currentColor" d="m11.113 2.78.53-.53zm4.44 4.44-.53.53zm-8.686 6.093a.75.75 0 0 0 0 1.5zm6.266 1.5a.75.75 0 0 0 0-1.5zM6.867 9.888a.75.75 0 1 0 0 1.5zm3.711 1.5a.75.75 0 0 0 0-1.5zm-.703-8.68v3.334h1.5V2.708zm0 3.334a2.417 2.417 0 0 0 2.417 2.416v-1.5a.917.917 0 0 1-.917-.916zm2.417 2.416h3.333v-1.5h-3.333zM5.625 3.042h4.31v-1.5h-4.31zm4.31 0c.243 0 .476.096.648.268l1.06-1.06a2.42 2.42 0 0 0-1.708-.708zm.648.268 4.44 4.44 1.06-1.06-4.44-4.44zm4.44 4.44a.92.92 0 0 1 .269.649h1.5c0-.641-.255-1.256-.708-1.71zm.269.649v7.643h1.5V8.399zm0 7.643c0 .506-.41.916-.917.916v1.5a2.417 2.417 0 0 0 2.417-2.416zm-.917.916h-8.75v1.5h8.75zm-8.75 0a.917.917 0 0 1-.917-.916h-1.5a2.417 2.417 0 0 0 2.417 2.416zm-.917-.916V3.958h-1.5v12.084zm0-12.084c0-.506.41-.916.917-.916v-1.5a2.417 2.417 0 0 0-2.417 2.416zm2.16 10.855h6.265v-1.5H6.867zm0-3.425h3.71v-1.5h-3.71z"/></svg>