<svg xmlns="http://www.w3.org/2000/svg" width="16" height="16" fill="none" data-fui-icon="true" viewBox="0 0 16 16"><path fill="currentColor" d="M13.392 3.044c.091-.002.294.02.427.128.11.09.142.212.158.298.013.085.033.28.017.433-.166 1.742-.886 5.968-1.252 7.92-.153.824-.459 1.102-.754 1.13-.642.058-1.13-.424-1.75-.83-.973-.635-1.522-1.031-2.467-1.651-1.09-.717-.383-1.11.239-1.754.162-.169 2.99-2.733 3.044-2.965.007-.03.013-.137-.052-.194-.064-.058-.159-.038-.228-.023q-.146.033-4.662 3.071-.66.453-1.198.442c-.394-.009-1.153-.223-1.718-.406-.69-.224-1.241-.343-1.193-.723q.037-.297.822-.609A544 544 0 0 1 9.27 4.544c3.07-1.272 3.707-1.493 4.123-1.5"/></svg>