<svg xmlns="http://www.w3.org/2000/svg" width="20" height="20" fill="none" data-fui-icon="true" viewBox="0 0 20 20"><path fill="currentColor" d="M11.844 3.313a3.25 3.25 0 0 1 3.223 3.666l-.05.396h1.517c.876 0 1.677.495 2.069 1.278l.912 1.826c.21.42.288.894.221 1.36l-.364 2.55a2.31 2.31 0 0 1-2.29 1.986h-.147a3.001 3.001 0 0 1-5.87 0h-2.13a3 3 0 0 1-5.899-.156 3.046 3.046 0 0 1-2.032-3.434L1.146 12H1a.75.75 0 0 1 0-1.5h3A.75.75 0 0 1 4 12H2.672l-.193 1.054c-.12.66.199 1.284.729 1.601a3 3 0 0 1 5.662.22h2.26a3 3 0 0 1 1.645-1.863l.805-6.226a1.75 1.75 0 0 0-1.736-1.973H3.75a.75.75 0 0 1 0-1.5zM6 14.25a1.5 1.5 0 1 0 0 3 1.5 1.5 0 0 0 0-3m8 0a1.5 1.5 0 1 0 0 3 1.5 1.5 0 0 0 0-3m.32-1.483a3 3 0 0 1 2.55 2.108h.212a.81.81 0 0 0 .805-.697l.364-2.551a.8.8 0 0 0-.077-.479l-.913-1.824a.81.81 0 0 0-.727-.449h-1.71zM7 6.75a.75.75 0 0 1 0 1.5H1a.75.75 0 0 1 0-1.5z"/></svg>