<svg xmlns="http://www.w3.org/2000/svg" width="16" height="16" fill="none" data-fui-icon="true" viewBox="0 0 16 16"><path fill="currentColor" d="M6.303 1.947a.75.75 0 1 1 0 1.5H3.11c-.75 0-1.36.61-1.36 1.36v8.084c0 .75.61 1.359 1.36 1.359h8.083a1.36 1.36 0 0 0 1.36-1.36V9.698a.75.75 0 0 1 1.5 0v3.194a2.86 2.86 0 0 1-2.86 2.859H3.11a2.86 2.86 0 0 1-2.86-2.86V4.809a2.86 2.86 0 0 1 2.86-2.86zM11.818.25a.75.75 0 0 1 .75.75c0 .503.288 1.12.801 1.632s1.128.8 1.631.8a.75.75 0 0 1 0 1.5c-.448 0-1.057.336-1.61.936-.26.284-.476.593-.621.877-.153.297-.2.51-.2.618a.75.75 0 0 1-1.5 0c0-.069-.046-.262-.234-.571a5 5 0 0 0-.726-.901 5 5 0 0 0-.901-.726c-.31-.188-.502-.233-.571-.233a.75.75 0 0 1 0-1.5c.107 0 .32-.048.618-.2.284-.146.593-.36.877-.622.6-.552.936-1.162.936-1.61a.75.75 0 0 1 .75-.75m-.051 2.793a5.6 5.6 0 0 1-1.277 1.19c.236.182.467.384.68.597s.414.444.596.68c.155-.227.33-.449.52-.656.197-.214.422-.427.67-.62a5 5 0 0 1-.648-.542 5 5 0 0 1-.541-.649"/></svg>