<svg xmlns="http://www.w3.org/2000/svg" width="16" height="16" fill="none" data-fui-icon="true" viewBox="0 0 16 16"><path fill="currentColor" d="M11.5 8a.67.67 0 0 0-.638.464l-.586 1.812-1.812.586a.67.67 0 0 0 0 1.276l1.812.586.586 1.812a.67.67 0 0 0 1.275 0l.586-1.812 1.813-.586a.67.67 0 0 0 0-1.276l-1.812-.586-.587-1.812A.67.67 0 0 0 11.5 8M5.722 1a.91.91 0 0 0-.864.627l-.723 2.224a.44.44 0 0 1-.285.284l-2.223.723a.91.91 0 0 0 0 1.728l2.223.724c.135.043.24.15.285.284l.723 2.223a.908.908 0 0 0 1.727 0l.724-2.223a.44.44 0 0 1 .285-.284l2.223-.724a.908.908 0 0 0 0-1.728l-2.223-.723a.44.44 0 0 1-.285-.284l-.724-2.224A.91.91 0 0 0 5.722 1"/></svg>