<svg xmlns="http://www.w3.org/2000/svg" width="12" height="12" fill="none" data-fui-icon="true" viewBox="0 0 12 12"><path fill="currentColor" d="M9.818 2.511a9 9 0 0 0-2.27-.701 6 6 0 0 0-.29.594 8.4 8.4 0 0 0-2.519 0 6 6 0 0 0-.29-.594 9.1 9.1 0 0 0-2.271.703C.74 4.65.352 6.733.547 8.786A9.1 9.1 0 0 0 3.33 10.19a7 7 0 0 0 .596-.966 6 6 0 0 1-.939-.45l.23-.174a6.51 6.51 0 0 0 5.565 0q.114.092.23.174-.45.268-.94.451a6.7 6.7 0 0 0 .596.965 9.1 9.1 0 0 0 2.785-1.403c.229-2.382-.39-4.446-1.635-6.276M4.173 7.523c-.543 0-.99-.495-.99-1.104s.432-1.108.988-1.108 1.001.5.991 1.108c-.01.61-.436 1.104-.99 1.104m3.654 0c-.543 0-.99-.495-.99-1.104s.433-1.108.99-1.108.999.5.99 1.108c-.01.61-.437 1.104-.99 1.104"/></svg>